<svg width="31" height="31" viewBox="0 0 31 31" fill="none" xmlns="http://www.w3.org/2000/svg">
<path d="M30 6.8V30H1V6.8V1H30V6.8Z" stroke="#909093" stroke-width="2" stroke-linejoin="round"/>
<path d="M1 6.79993H30" stroke="#909093" stroke-width="2" stroke-linejoin="round"/>
<path d="M3.90015 3.90002H5.83348" stroke="#909093" stroke-width="2" stroke-linejoin="round"/>
<path d="M7.7666 3.90002H9.69993" stroke="#909093" stroke-width="2" stroke-linejoin="round"/>
<path d="M11.6333 3.90002H13.5666" stroke="#909093" stroke-width="2" stroke-linejoin="round"/>
<path d="M15.4999 26.1333C19.7709 26.1333 23.2333 22.671 23.2333 18.4C23.2333 14.129 19.7709 10.6666 15.4999 10.6666C11.2289 10.6666 7.7666 14.129 7.7666 18.4C7.7666 22.671 11.2289 26.1333 15.4999 26.1333Z" stroke="#909093" stroke-width="2" stroke-linejoin="round"/>
<path d="M15.4999 26.1333C17.1015 26.1333 18.3999 22.671 18.3999 18.4C18.3999 14.129 17.1015 10.6666 15.4999 10.6666C13.8982 10.6666 12.5999 14.129 12.5999 18.4C12.5999 22.671 13.8982 26.1333 15.4999 26.1333Z" stroke="#909093" stroke-width="2" stroke-linejoin="round"/>
<path d="M7.7666 18.4H12.5999H18.3999H23.2333" stroke="#909093" stroke-width="2" stroke-linejoin="round"/>
</svg>
