<svg width="31" height="31" viewBox="0 0 31 31" fill="none" xmlns="http://www.w3.org/2000/svg">
<path d="M22.2383 22.2383L21.273 23.2037H19.3422L7.75766 11.6192V9.68842L8.72304 8.72304L11.6192 5.8269L6.79228 1L3.89614 3.89614L1 6.79228V12.5846L18.3768 29.9614H24.1691L24.2077 30L27.1039 27.1039L30 24.2077L29.9614 24.1691L25.1345 19.3422L22.2383 22.2383Z" stroke="#6F6F72" stroke-width="2" stroke-linejoin="round"/>
<path d="M22.2383 22.2383L27.0652 27.0652" stroke="#6F6F72" stroke-width="2" stroke-linejoin="round"/>
<path d="M3.896 3.896L8.72289 8.72289" stroke="#6F6F72" stroke-width="2" stroke-linejoin="round"/>
<path d="M23.2232 16.4654C29.9809 13.5692 29.9809 8.74232 29.9809 8.74232V3.91543C29.2128 3.91543 28.4761 3.6103 27.933 3.06717C27.3899 2.52403 27.0847 1.78739 27.0847 1.01929H19.3617C19.3617 1.78739 19.0566 2.52403 18.5135 3.06717C17.9703 3.6103 17.2337 3.91543 16.4656 3.91543V8.74232C16.4656 8.74232 16.4656 13.5692 23.2232 16.4654Z" stroke="#6F6F72" stroke-width="2" stroke-linejoin="round"/>
<path d="M23.2229 3.91528V9.70756" stroke="#6F6F72" stroke-width="2" stroke-linejoin="round"/>
<path d="M23.2229 11.6387V13.5694" stroke="#6F6F72" stroke-width="2" stroke-linejoin="round"/>
</svg>
