<svg width="24" height="24" viewBox="0 0 24 24" fill="none" xmlns="http://www.w3.org/2000/svg">
<circle cx="12" cy="12" r="12" fill="white"/>
<path d="M15.8814 13.492H14.5041V11.9372C14.7886 11.6291 15.0274 11.2669 15.2336 10.856C15.6834 10.7768 16.0877 10.3137 16.3221 9.63123C16.6183 8.76919 16.439 7.99822 15.9268 7.76202V7.58737C15.9268 7.31042 16.1212 5.49604 15.029 4.21923C14.3369 3.41021 13.3279 3 12.0075 3C10.6872 3 9.67976 3.41027 8.99791 4.21941C7.92452 5.49323 8.07317 7.30148 8.13008 7.5907V7.73373L8.1278 7.7339C7.56798 7.93714 7.38381 8.73424 7.69113 9.62936C7.9293 10.3222 8.34606 10.7893 8.80248 10.8582C9.01942 11.2895 9.26824 11.667 9.55279 11.9846V13.492H8.15654C6.42931 13.492 5 14.9385 5 16.7126V18.3681C5 18.5498 5.11422 18.715 5.27442 18.7922C7.75703 19.9892 10.1039 20.3601 12.0517 20.36C13.0771 20.36 13.9967 20.2572 14.7674 20.118C17.1947 19.6797 18.7092 18.8132 18.7728 18.7766C18.9165 18.6936 19 18.5374 19 18.3681V16.7126C19 14.9385 17.6087 13.492 15.8814 13.492ZM12.019 18.7265C11.3742 17.854 10.6582 16.8032 10.1485 15.9269C10.6251 16.4244 11.2874 16.7335 12.019 16.7335C12.7505 16.7335 13.4128 16.4244 13.8894 15.9269C13.3797 16.8032 12.6637 17.854 12.019 18.7265ZM12.0065 13.133C12.5626 13.133 13.0813 12.9803 13.5935 12.6956V13.9638C13.5935 14.0833 13.6409 14.1921 13.7126 14.2749C13.599 15.1328 12.8832 15.7963 12.0172 15.7963C11.169 15.7963 10.4466 15.1598 10.3112 14.3275C10.4141 14.2416 10.4634 14.1106 10.4634 13.9637V12.7208C10.9756 12.9894 11.4672 13.133 12.0065 13.133ZM9.69512 4.82847C10.1959 4.237 10.9777 3.93703 12.019 3.93703C13.0629 3.93703 13.8514 4.23864 14.3628 4.83344C14.8203 5.36575 14.9928 6.05302 15.0524 6.59679C14.6993 6.09739 14.3465 5.75825 14.317 5.73125C14.2334 5.65468 14.1253 5.60102 14.0134 5.60102H10.0245C9.91702 5.60102 9.81287 5.6514 9.73069 5.7226C9.70252 5.74691 9.38018 6.03537 9.0431 6.47913C9.10524 5.95406 9.27404 5.32577 9.69512 4.82847ZM9.22595 9.90788C9.18133 9.8935 9.13535 9.88643 9.08948 9.88643C9.03496 9.88643 8.98061 9.89794 8.92933 9.9177C8.8475 9.86147 8.67221 9.67156 8.55065 9.31758C8.49698 9.16128 8.47149 9.02392 8.46193 8.91017C8.53193 8.95524 8.6145 9.04262 8.70317 9.04262C8.95517 9.04262 9.15937 8.82676 9.15937 8.56794C9.15937 7.79621 9.82807 6.94545 10.2 6.5363H13.8315C14.2072 6.94545 14.8784 7.78674 14.8784 8.56794C14.8784 8.82676 15.0827 9.04262 15.3347 9.04262C15.42 9.04262 15.4995 8.95202 15.5678 8.91017C15.5545 9.0089 15.53 9.19226 15.4869 9.31787C15.3644 9.67431 15.1871 9.86334 15.1061 9.9177C15.0115 9.88549 14.9085 9.88608 14.8131 9.92003C14.6936 9.96253 14.5968 10.0541 14.5455 10.1727C13.9973 11.4395 13.0561 12.1958 12.0275 12.1958C10.9975 12.1958 10.0552 11.4367 9.50669 10.1651C9.45342 10.0418 9.35121 9.94815 9.22595 9.90788ZM5.91057 16.7126C5.91057 15.4553 6.93234 14.4272 8.15654 14.4272H8.5552C8.58315 14.8364 8.82103 15.6553 10.1365 17.6383C10.6155 18.3603 11.0759 19.0147 11.3653 19.4054C9.74646 19.3291 7.90244 18.9696 5.91057 18.0674V16.7126ZM18.0894 18.0813C17.5772 18.3256 16.3528 18.8798 14.6064 19.1951C14.0344 19.2985 13.3798 19.3803 12.6539 19.4103C12.943 19.0202 13.4194 18.3627 13.8999 17.6383C15.2154 15.6553 15.4548 14.8364 15.4827 14.4273H15.8814C17.1055 14.4273 18.0894 15.4554 18.0894 16.7127V18.0813Z" fill="#808080"/>
</svg>
