<svg width="33" height="33" viewBox="0 0 33 33" fill="none" xmlns="http://www.w3.org/2000/svg">
<path d="M32 27.8667V29.9334C32 30.4815 31.7823 31.0071 31.3947 31.3947C31.0071 31.7823 30.4814 32 29.9333 32H3.06667C2.51855 32 1.99289 31.7823 1.60531 31.3947C1.21774 31.0071 1 30.4815 1 29.9334V27.8667H12.3667L13.4 28.9H19.6L20.6333 27.8667H32Z" stroke="#7A7A7D" stroke-width="2" stroke-linejoin="round"/>
<path d="M29.9334 27.8666V7.19995H25.8" stroke="#7A7A7D" stroke-width="2" stroke-linejoin="round"/>
<path d="M3.06641 27.8666V7.19995H7.19974" stroke="#7A7A7D" stroke-width="2" stroke-linejoin="round"/>
<path d="M7.19995 1V19.6H12.3666L16.5 23.7333L20.6333 19.6H25.8V1H7.19995Z" stroke="#7A7A7D" stroke-width="2" stroke-linejoin="round"/>
<path d="M16.5 12.3668C18.7828 12.3668 20.6334 10.5162 20.6334 8.23343C20.6334 5.95065 18.7828 4.1001 16.5 4.1001C14.2173 4.1001 12.3667 5.95065 12.3667 8.23343C12.3667 10.5162 14.2173 12.3668 16.5 12.3668Z" stroke="#7A7A7D" stroke-width="2" stroke-linejoin="round"/>
<path d="M11.3335 17.5334C11.3335 16.1631 11.8778 14.8489 12.8468 13.88C13.8157 12.911 15.1299 12.3667 16.5002 12.3667V12.3667C17.8704 12.3667 19.1846 12.911 20.1535 13.88C21.1225 14.8489 21.6668 16.1631 21.6668 17.5334" stroke="#7A7A7D" stroke-width="2" stroke-linejoin="round"/>
</svg>
