<svg width="31" height="31" viewBox="0 0 31 31" fill="none" xmlns="http://www.w3.org/2000/svg">
<path d="M15.5 30C23.5081 30 30 23.5081 30 15.5C30 7.49187 23.5081 1 15.5 1C7.49187 1 1 7.49187 1 15.5C1 23.5081 7.49187 30 15.5 30Z" stroke="#909093" stroke-width="2" stroke-linejoin="round"/>
<path d="M15.5 26.1334C21.3727 26.1334 26.1334 21.3727 26.1334 15.5C26.1334 9.6274 21.3727 4.8667 15.5 4.8667C9.6274 4.8667 4.8667 9.6274 4.8667 15.5C4.8667 21.3727 9.6274 26.1334 15.5 26.1334Z" stroke="#909093" stroke-width="2" stroke-linejoin="round"/>
<path d="M15.5 4.8667V7.7667" stroke="#909093" stroke-width="2" stroke-linejoin="round"/>
<path d="M15.5 23.2333V26.1333" stroke="#909093" stroke-width="2" stroke-linejoin="round"/>
<path d="M26.1333 15.5H23.2333" stroke="#909093" stroke-width="2" stroke-linejoin="round"/>
<path d="M7.7667 15.5H4.8667" stroke="#909093" stroke-width="2" stroke-linejoin="round"/>
<path d="M15.5 9.70007V15.5001L20.3333 20.3334" stroke="#909093" stroke-width="2" stroke-linejoin="round"/>
</svg>
