<svg width="24" height="24" viewBox="0 0 24 24" fill="none" xmlns="http://www.w3.org/2000/svg">
    <path fill-rule="evenodd" clip-rule="evenodd"
          d="M11.5 15.75C11.9142 15.75 12.25 15.4142 12.25 15V8C12.25 7.58579 11.9142 7.25 11.5 7.25C11.0858 7.25 10.75 7.58579 10.75 8L10.75 15C10.75 15.4142 11.0858 15.75 11.5 15.75Z"
          fill="#808080"/>
    <path fill-rule="evenodd" clip-rule="evenodd"
          d="M8.46967 11.0303C8.76256 11.3232 9.23744 11.3232 9.53033 11.0303L12.0303 8.53033C12.3232 8.23744 12.3232 7.76256 12.0303 7.46967C11.7374 7.17678 11.2626 7.17678 10.9697 7.46967L8.46967 9.96967C8.17678 10.2626 8.17678 10.7374 8.46967 11.0303Z"
          fill="#808080"/>
    <path fill-rule="evenodd" clip-rule="evenodd"
          d="M14.5303 11.0303C14.8232 10.7374 14.8232 10.2626 14.5303 9.96967L12.0303 7.46967C11.7374 7.17678 11.2626 7.17678 10.9697 7.46967C10.6768 7.76256 10.6768 8.23744 10.9697 8.53033L13.4697 11.0303C13.7626 11.3232 14.2374 11.3232 14.5303 11.0303Z"
          fill="#808080"/>
</svg>
