<svg width="24" height="24" viewBox="0 0 24 24" fill="none" xmlns="http://www.w3.org/2000/svg">
<path d="M3.66667 6.6H2V11.1H2.00833L2 19.2C2 20.19 2.75 21 3.66667 21H18.6667V19.2H3.66667V6.6ZM7.83333 14.7H19.5L16.5833 10.65L14.5 13.359L11.5833 9.3L7.83333 14.7ZM20.3333 4.8H13.6667L12 3H7C6.08333 3 5.34167 3.81 5.34167 4.8L5.33333 15.6C5.33333 16.59 6.08333 17.4 7 17.4H20.3333C21.25 17.4 22 16.59 22 15.6V6.6C22 5.61 21.25 4.8 20.3333 4.8ZM20.3333 15.6H7V4.8H11.3083L12.4833 6.069L12.975 6.6H20.3333V15.6Z" fill="#FFC107"/>
</svg>
