<svg width="150" height="80" viewBox="0 0 150 80" fill="none" xmlns="http://www.w3.org/2000/svg">
<path d="M76.7059 3H27.2941C25.4748 3 24 5.07068 24 7.625C24 10.1793 25.4748 12.25 27.2941 12.25H76.7059C78.5252 12.25 80 10.1793 80 7.625C80 5.07068 78.5252 3 76.7059 3Z" fill="#E7E9EF"/>
<path d="M84.5144 6.35214C84.5144 6.73031 84.4501 7.01624 84.3215 7.20994C84.1929 7.40363 83.9851 7.54199 83.6982 7.625C83.9851 7.70801 84.1929 7.84637 84.3215 8.04006C84.4501 8.23376 84.5144 8.51969 84.5144 8.89786V10.0778C84.5144 10.7973 84.8804 11.157 85.6125 11.157H85.9835V12.25H85.3306C84.5886 12.25 84.0296 12.0748 83.6537 11.7243C83.2777 11.383 83.0898 10.8757 83.0898 10.2024V8.87019C83.0898 8.40901 82.8672 8.17842 82.422 8.17842H81.9026V7.07158H82.422C82.8672 7.07158 83.0898 6.84099 83.0898 6.37981V5.04765C83.0898 4.37432 83.2777 3.86702 83.6537 3.52575C84.0296 3.17525 84.5886 3 85.3306 3H85.9835V4.093H85.6125C84.8804 4.093 84.5144 4.45272 84.5144 5.17217V6.35214Z" fill="#C0239D"/>
<path d="M109.336 19.3023C109.336 19.6805 109.272 19.9664 109.143 20.1601C109.015 20.3538 108.807 20.4922 108.52 20.5752C108.807 20.6582 109.015 20.7966 109.143 20.9903C109.272 21.184 109.336 21.4699 109.336 21.8481V23.028C109.336 23.7475 109.702 24.1072 110.434 24.1072H110.805V25.2002H110.152C109.41 25.2002 108.851 25.0249 108.475 24.6744C108.099 24.3332 107.911 23.8259 107.911 23.1525V21.8204C107.911 21.3592 107.689 21.1286 107.244 21.1286H106.724V20.0218H107.244C107.689 20.0218 107.911 19.7912 107.911 19.33V17.9978C107.911 17.3245 108.099 16.8172 108.475 16.4759C108.851 16.1254 109.41 15.9502 110.152 15.9502H110.805V17.0432H110.434C109.702 17.0432 109.336 17.4029 109.336 18.1224V19.3023Z" fill="#C0239D"/>
<path d="M25.4691 71.1021C25.4691 71.4803 25.5334 71.7662 25.662 71.9599C25.7907 72.1536 25.9984 72.292 26.2853 72.375C25.9984 72.458 25.7907 72.5964 25.662 72.7901C25.5334 72.9838 25.4691 73.2697 25.4691 73.6479V74.8278C25.4691 75.5473 25.1031 75.907 24.371 75.907H24V77H24.6529C25.3949 77 25.9539 76.8248 26.3298 76.4743C26.7058 76.133 26.8937 75.6257 26.8937 74.9524V73.6202C26.8937 73.159 27.1163 72.9284 27.5615 72.9284H28.0809V71.8216H27.5615C27.1163 71.8216 26.8937 71.591 26.8937 71.1298V69.7976C26.8937 69.1243 26.7058 68.617 26.3298 68.2757C25.9539 67.9252 25.3949 67.75 24.6529 67.75H24V68.843H24.371C25.1031 68.843 25.4691 69.2027 25.4691 69.9222V71.1021Z" fill="#C0239D"/>
<path d="M37.8732 58.1521C37.8732 58.5303 37.9376 58.8162 38.0662 59.0099C38.1948 59.2036 38.4025 59.342 38.6894 59.425C38.4025 59.508 38.1948 59.6464 38.0662 59.8401C37.9376 60.0338 37.8732 60.3197 37.8732 60.6979V61.8778C37.8732 62.5973 37.5072 62.957 36.7751 62.957H36.4041V64.05H37.0571C37.799 64.05 38.358 63.8748 38.734 63.5243C39.1099 63.183 39.2979 62.6757 39.2979 62.0024V60.6702C39.2979 60.209 39.5205 59.9784 39.9657 59.9784H40.485V58.8716H39.9657C39.5205 58.8716 39.2979 58.641 39.2979 58.1798V56.8477C39.2979 56.1743 39.1099 55.667 38.734 55.3258C38.358 54.9753 37.799 54.8 37.0571 54.8H36.4041V55.893H36.7751C37.5072 55.893 37.8732 56.2527 37.8732 56.9722V58.1521Z" fill="#C0239D"/>
<path d="M103.773 18.7304C103.485 18.7304 103.239 18.6446 103.033 18.4731C102.827 18.2925 102.724 18.0668 102.724 17.7959C102.724 17.5341 102.827 17.3174 103.033 17.1459C103.239 16.9653 103.485 16.875 103.773 16.875C104.061 16.875 104.303 16.9608 104.498 17.1323C104.694 17.3039 104.792 17.5251 104.792 17.7959C104.792 18.0668 104.689 18.2925 104.483 18.4731C104.288 18.6446 104.051 18.7304 103.773 18.7304Z" fill="#313749"/>
<path d="M103.773 24.2802C103.485 24.2802 103.239 24.1944 103.033 24.0229C102.827 23.8423 102.724 23.6166 102.724 23.3457C102.724 23.0839 102.827 22.8672 103.033 22.6957C103.239 22.5151 103.485 22.4248 103.773 22.4248C104.061 22.4248 104.303 22.5106 104.498 22.6821C104.694 22.8537 104.792 23.0749 104.792 23.3457C104.792 23.6166 104.689 23.8423 104.483 24.0229C104.288 24.1944 104.051 24.2802 103.773 24.2802Z" fill="#313749"/>
<path d="M97.1123 15.95H48.2347C46.2679 15.95 44.6735 18.0207 44.6735 20.575C44.6735 23.1293 46.2679 25.2 48.2347 25.2H97.1123C99.0791 25.2 100.674 23.1293 100.674 20.575C100.674 18.0207 99.0791 15.95 97.1123 15.95Z" fill="#E7E9EF"/>
<path d="M117.621 29H68.3786C66.5126 29 65 31.0147 65 33.5C65 35.9853 66.5126 38 68.3786 38H117.621C119.487 38 121 35.9853 121 33.5C121 31.0147 119.487 29 117.621 29Z" fill="#E7E9EF"/>
<path d="M117.621 42H68.3786C66.5126 42 65 44.0147 65 46.5C65 48.9853 66.5126 51 68.3786 51H117.621C119.487 51 121 48.9853 121 46.5C121 44.0147 119.487 42 117.621 42Z" fill="#E7E9EF"/>
<path d="M124.719 31.6748C124.996 31.6748 125.223 31.767 125.401 31.9515C125.589 32.1268 125.683 32.3481 125.683 32.6156C125.683 32.754 125.663 32.8877 125.624 33.0168C125.594 33.146 125.53 33.3443 125.431 33.6118L124.733 35.5349H123.798L124.348 33.4734C124.16 33.4089 124.006 33.3028 123.887 33.1552C123.779 32.9984 123.724 32.8185 123.724 32.6156C123.724 32.3389 123.818 32.1129 124.006 31.9377C124.194 31.7624 124.432 31.6748 124.719 31.6748Z" fill="#313749"/>
<path d="M31.1963 70.525C31.4733 70.525 31.7008 70.6172 31.8789 70.8017C32.0669 70.977 32.1609 71.1983 32.1609 71.4658C32.1609 71.6042 32.1411 71.7379 32.1015 71.867C32.0718 71.9962 32.0075 72.1945 31.9086 72.462L31.2111 74.3851H30.2762L30.8253 72.3236C30.6373 72.259 30.484 72.153 30.3653 72.0054C30.2564 71.8486 30.202 71.6687 30.202 71.4658C30.202 71.1891 30.296 70.9631 30.484 70.7879C30.672 70.6126 30.9094 70.525 31.1963 70.525Z" fill="#313749"/>
<path d="M43.6005 57.575C43.8775 57.575 44.105 57.6672 44.2831 57.8517C44.4711 58.027 44.5651 58.2483 44.5651 58.5158C44.5651 58.6542 44.5453 58.7879 44.5057 58.917C44.476 59.0462 44.4117 59.2445 44.3128 59.512L43.6153 61.4351H42.6804L43.2295 59.3736C43.0415 59.309 42.8882 59.203 42.7694 59.0554C42.6606 58.8986 42.6062 58.7187 42.6062 58.5158C42.6062 58.2391 42.7002 58.0131 42.8882 57.8379C43.0761 57.6626 43.3136 57.575 43.6005 57.575Z" fill="#313749"/>
</svg>
