<svg width="157" height="108" viewBox="0 0 157 108" fill="none" xmlns="http://www.w3.org/2000/svg">
<g filter="url(#filter0_dii_337:8101)">
<path d="M82.7059 20H33.2941C31.4748 20 30 22.0707 30 24.625C30 27.1793 31.4748 29.25 33.2941 29.25H82.7059C84.5252 29.25 86 27.1793 86 24.625C86 22.0707 84.5252 20 82.7059 20Z" fill="#F7F7F7"/>
</g>
<path d="M90.5144 23.3521C90.5144 23.7303 90.4501 24.0162 90.3215 24.2099C90.1929 24.4036 89.9851 24.542 89.6982 24.625C89.9851 24.708 90.1929 24.8464 90.3215 25.0401C90.4501 25.2338 90.5144 25.5197 90.5144 25.8979V27.0778C90.5144 27.7973 90.8804 28.157 91.6125 28.157H91.9835V29.25H91.3306C90.5886 29.25 90.0296 29.0748 89.6537 28.7243C89.2777 28.383 89.0898 27.8757 89.0898 27.2024V25.8702C89.0898 25.409 88.8672 25.1784 88.422 25.1784H87.9026V24.0716H88.422C88.8672 24.0716 89.0898 23.841 89.0898 23.3798V22.0476C89.0898 21.3743 89.2777 20.867 89.6537 20.5257C90.0296 20.1752 90.5886 20 91.3306 20H91.9835V21.093H91.6125C90.8804 21.093 90.5144 21.4527 90.5144 22.1722V23.3521Z" fill="#C0239D"/>
<path d="M115.336 36.3023C115.336 36.6805 115.272 36.9664 115.143 37.1601C115.015 37.3538 114.807 37.4922 114.52 37.5752C114.807 37.6582 115.015 37.7966 115.143 37.9903C115.272 38.184 115.336 38.4699 115.336 38.8481V40.028C115.336 40.7475 115.702 41.1072 116.434 41.1072H116.805V42.2002H116.152C115.41 42.2002 114.851 42.0249 114.475 41.6744C114.099 41.3332 113.911 40.8259 113.911 40.1525V38.8204C113.911 38.3592 113.689 38.1286 113.244 38.1286H112.724V37.0218H113.244C113.689 37.0218 113.911 36.7912 113.911 36.33V34.9978C113.911 34.3245 114.099 33.8172 114.475 33.4759C114.851 33.1254 115.41 32.9502 116.152 32.9502H116.805V34.0432H116.434C115.702 34.0432 115.336 34.4029 115.336 35.1224V36.3023Z" fill="#C0239D"/>
<path d="M31.4691 88.1021C31.4691 88.4803 31.5334 88.7662 31.662 88.9599C31.7907 89.1536 31.9984 89.292 32.2853 89.375C31.9984 89.458 31.7907 89.5964 31.662 89.7901C31.5334 89.9838 31.4691 90.2697 31.4691 90.6479V91.8278C31.4691 92.5473 31.1031 92.907 30.371 92.907H30V94H30.6529C31.3949 94 31.9539 93.8248 32.3298 93.4743C32.7058 93.133 32.8937 92.6257 32.8937 91.9524V90.6202C32.8937 90.159 33.1163 89.9284 33.5615 89.9284H34.0809V88.8216H33.5615C33.1163 88.8216 32.8937 88.591 32.8937 88.1298V86.7976C32.8937 86.1243 32.7058 85.617 32.3298 85.2757C31.9539 84.9252 31.3949 84.75 30.6529 84.75H30V85.843H30.371C31.1031 85.843 31.4691 86.2027 31.4691 86.9222V88.1021Z" fill="#C0239D"/>
<path d="M43.8732 75.1521C43.8732 75.5303 43.9376 75.8162 44.0662 76.0099C44.1948 76.2036 44.4025 76.342 44.6894 76.425C44.4025 76.508 44.1948 76.6464 44.0662 76.8401C43.9376 77.0338 43.8732 77.3197 43.8732 77.6979V78.8778C43.8732 79.5973 43.5072 79.957 42.7751 79.957H42.4041V81.05H43.0571C43.799 81.05 44.358 80.8748 44.734 80.5243C45.1099 80.183 45.2979 79.6757 45.2979 79.0024V77.6702C45.2979 77.209 45.5205 76.9784 45.9657 76.9784H46.485V75.8716H45.9657C45.5205 75.8716 45.2979 75.641 45.2979 75.1798V73.8477C45.2979 73.1743 45.1099 72.667 44.734 72.3258C44.358 71.9753 43.799 71.8 43.0571 71.8H42.4041V72.893H42.7751C43.5072 72.893 43.8732 73.2527 43.8732 73.9722V75.1521Z" fill="#C0239D"/>
<path d="M109.773 35.7304C109.485 35.7304 109.239 35.6446 109.033 35.4731C108.827 35.2925 108.724 35.0668 108.724 34.7959C108.724 34.5341 108.827 34.3174 109.033 34.1459C109.239 33.9653 109.485 33.875 109.773 33.875C110.061 33.875 110.303 33.9608 110.498 34.1323C110.694 34.3039 110.792 34.5251 110.792 34.7959C110.792 35.0668 110.689 35.2925 110.483 35.4731C110.288 35.6446 110.051 35.7304 109.773 35.7304Z" fill="#030302"/>
<path d="M109.773 41.2802C109.485 41.2802 109.239 41.1944 109.033 41.0229C108.827 40.8423 108.724 40.6166 108.724 40.3457C108.724 40.0839 108.827 39.8672 109.033 39.6957C109.239 39.5151 109.485 39.4248 109.773 39.4248C110.061 39.4248 110.303 39.5106 110.498 39.6821C110.694 39.8537 110.792 40.0749 110.792 40.3457C110.792 40.6166 110.689 40.8423 110.483 41.0229C110.288 41.1944 110.051 41.2802 109.773 41.2802Z" fill="#030302"/>
<g filter="url(#filter1_dii_337:8101)">
<path d="M103.112 32.95H54.2347C52.2679 32.95 50.6735 35.0207 50.6735 37.575C50.6735 40.1293 52.2679 42.2 54.2347 42.2H103.112C105.079 42.2 106.674 40.1293 106.674 37.575C106.674 35.0207 105.079 32.95 103.112 32.95Z" fill="#F7F7F7"/>
</g>
<g filter="url(#filter2_dii_337:8101)">
<path d="M123.621 46H74.3786C72.5126 46 71 48.0147 71 50.5C71 52.9853 72.5126 55 74.3786 55H123.621C125.487 55 127 52.9853 127 50.5C127 48.0147 125.487 46 123.621 46Z" fill="#F7F7F7"/>
</g>
<g filter="url(#filter3_dii_337:8101)">
<path d="M123.621 59H74.3786C72.5126 59 71 61.0147 71 63.5C71 65.9853 72.5126 68 74.3786 68H123.621C125.487 68 127 65.9853 127 63.5C127 61.0147 125.487 59 123.621 59Z" fill="#F7F7F7"/>
</g>
<path d="M130.719 48.6748C130.996 48.6748 131.223 48.767 131.401 48.9515C131.589 49.1268 131.683 49.3481 131.683 49.6156C131.683 49.754 131.663 49.8877 131.624 50.0168C131.594 50.146 131.53 50.3443 131.431 50.6118L130.733 52.5349H129.798L130.348 50.4734C130.16 50.4089 130.006 50.3028 129.888 50.1552C129.779 49.9984 129.724 49.8185 129.724 49.6156C129.724 49.3389 129.818 49.1129 130.006 48.9377C130.194 48.7624 130.432 48.6748 130.719 48.6748Z" fill="#030302"/>
<path d="M37.1963 87.525C37.4733 87.525 37.7009 87.6172 37.879 87.8017C38.0669 87.977 38.1609 88.1983 38.1609 88.4658C38.1609 88.6042 38.1411 88.7379 38.1015 88.867C38.0719 88.9962 38.0076 89.1945 37.9086 89.462L37.2112 91.3851H36.2763L36.8253 89.3236C36.6374 89.259 36.484 89.153 36.3653 89.0054C36.2565 88.8486 36.2021 88.6687 36.2021 88.4658C36.2021 88.1891 36.296 87.9631 36.484 87.7879C36.672 87.6126 36.9094 87.525 37.1963 87.525Z" fill="#030302"/>
<path d="M49.6004 74.575C49.8774 74.575 50.105 74.6672 50.2831 74.8517C50.471 75.027 50.565 75.2483 50.565 75.5158C50.565 75.6542 50.5452 75.7879 50.5057 75.917C50.476 76.0462 50.4117 76.2445 50.3127 76.512L49.6153 78.4351H48.6804L49.2294 76.3736C49.0415 76.309 48.8881 76.203 48.7694 76.0554C48.6606 75.8986 48.6062 75.7187 48.6062 75.5158C48.6062 75.2391 48.7002 75.0131 48.8881 74.8379C49.0761 74.6626 49.3135 74.575 49.6004 74.575Z" fill="#030302"/>
<defs>
<filter id="filter0_dii_337:8101" x="0" y="0" width="116" height="69.25" filterUnits="userSpaceOnUse" color-interpolation-filters="sRGB">
<feFlood flood-opacity="0" result="BackgroundImageFix"/>
<feColorMatrix in="SourceAlpha" type="matrix" values="0 0 0 0 0 0 0 0 0 0 0 0 0 0 0 0 0 0 127 0" result="hardAlpha"/>
<feOffset dy="10"/>
<feGaussianBlur stdDeviation="15"/>
<feColorMatrix type="matrix" values="0 0 0 0 0.446597 0 0 0 0 0.461019 0 0 0 0 0.536736 0 0 0 0.1 0"/>
<feBlend mode="normal" in2="BackgroundImageFix" result="effect1_dropShadow_337:8101"/>
<feBlend mode="normal" in="SourceGraphic" in2="effect1_dropShadow_337:8101" result="shape"/>
<feColorMatrix in="SourceAlpha" type="matrix" values="0 0 0 0 0 0 0 0 0 0 0 0 0 0 0 0 0 0 127 0" result="hardAlpha"/>
<feOffset dx="-1" dy="-1"/>
<feGaussianBlur stdDeviation="1"/>
<feComposite in2="hardAlpha" operator="arithmetic" k2="-1" k3="1"/>
<feColorMatrix type="matrix" values="0 0 0 0 0.4 0 0 0 0 0.4 0 0 0 0 0.4 0 0 0 0.1 0"/>
<feBlend mode="normal" in2="shape" result="effect2_innerShadow_337:8101"/>
<feColorMatrix in="SourceAlpha" type="matrix" values="0 0 0 0 0 0 0 0 0 0 0 0 0 0 0 0 0 0 127 0" result="hardAlpha"/>
<feOffset dx="1" dy="1"/>
<feGaussianBlur stdDeviation="1"/>
<feComposite in2="hardAlpha" operator="arithmetic" k2="-1" k3="1"/>
<feColorMatrix type="matrix" values="0 0 0 0 1 0 0 0 0 1 0 0 0 0 1 0 0 0 0.8 0"/>
<feBlend mode="normal" in2="effect2_innerShadow_337:8101" result="effect3_innerShadow_337:8101"/>
</filter>
<filter id="filter1_dii_337:8101" x="20.6735" y="12.95" width="116" height="69.25" filterUnits="userSpaceOnUse" color-interpolation-filters="sRGB">
<feFlood flood-opacity="0" result="BackgroundImageFix"/>
<feColorMatrix in="SourceAlpha" type="matrix" values="0 0 0 0 0 0 0 0 0 0 0 0 0 0 0 0 0 0 127 0" result="hardAlpha"/>
<feOffset dy="10"/>
<feGaussianBlur stdDeviation="15"/>
<feColorMatrix type="matrix" values="0 0 0 0 0.446597 0 0 0 0 0.461019 0 0 0 0 0.536736 0 0 0 0.1 0"/>
<feBlend mode="normal" in2="BackgroundImageFix" result="effect1_dropShadow_337:8101"/>
<feBlend mode="normal" in="SourceGraphic" in2="effect1_dropShadow_337:8101" result="shape"/>
<feColorMatrix in="SourceAlpha" type="matrix" values="0 0 0 0 0 0 0 0 0 0 0 0 0 0 0 0 0 0 127 0" result="hardAlpha"/>
<feOffset dx="-1" dy="-1"/>
<feGaussianBlur stdDeviation="1"/>
<feComposite in2="hardAlpha" operator="arithmetic" k2="-1" k3="1"/>
<feColorMatrix type="matrix" values="0 0 0 0 0.4 0 0 0 0 0.4 0 0 0 0 0.4 0 0 0 0.1 0"/>
<feBlend mode="normal" in2="shape" result="effect2_innerShadow_337:8101"/>
<feColorMatrix in="SourceAlpha" type="matrix" values="0 0 0 0 0 0 0 0 0 0 0 0 0 0 0 0 0 0 127 0" result="hardAlpha"/>
<feOffset dx="1" dy="1"/>
<feGaussianBlur stdDeviation="1"/>
<feComposite in2="hardAlpha" operator="arithmetic" k2="-1" k3="1"/>
<feColorMatrix type="matrix" values="0 0 0 0 1 0 0 0 0 1 0 0 0 0 1 0 0 0 0.8 0"/>
<feBlend mode="normal" in2="effect2_innerShadow_337:8101" result="effect3_innerShadow_337:8101"/>
</filter>
<filter id="filter2_dii_337:8101" x="41" y="26" width="116" height="69" filterUnits="userSpaceOnUse" color-interpolation-filters="sRGB">
<feFlood flood-opacity="0" result="BackgroundImageFix"/>
<feColorMatrix in="SourceAlpha" type="matrix" values="0 0 0 0 0 0 0 0 0 0 0 0 0 0 0 0 0 0 127 0" result="hardAlpha"/>
<feOffset dy="10"/>
<feGaussianBlur stdDeviation="15"/>
<feColorMatrix type="matrix" values="0 0 0 0 0.446597 0 0 0 0 0.461019 0 0 0 0 0.536736 0 0 0 0.1 0"/>
<feBlend mode="normal" in2="BackgroundImageFix" result="effect1_dropShadow_337:8101"/>
<feBlend mode="normal" in="SourceGraphic" in2="effect1_dropShadow_337:8101" result="shape"/>
<feColorMatrix in="SourceAlpha" type="matrix" values="0 0 0 0 0 0 0 0 0 0 0 0 0 0 0 0 0 0 127 0" result="hardAlpha"/>
<feOffset dx="-1" dy="-1"/>
<feGaussianBlur stdDeviation="1"/>
<feComposite in2="hardAlpha" operator="arithmetic" k2="-1" k3="1"/>
<feColorMatrix type="matrix" values="0 0 0 0 0.4 0 0 0 0 0.4 0 0 0 0 0.4 0 0 0 0.1 0"/>
<feBlend mode="normal" in2="shape" result="effect2_innerShadow_337:8101"/>
<feColorMatrix in="SourceAlpha" type="matrix" values="0 0 0 0 0 0 0 0 0 0 0 0 0 0 0 0 0 0 127 0" result="hardAlpha"/>
<feOffset dx="1" dy="1"/>
<feGaussianBlur stdDeviation="1"/>
<feComposite in2="hardAlpha" operator="arithmetic" k2="-1" k3="1"/>
<feColorMatrix type="matrix" values="0 0 0 0 1 0 0 0 0 1 0 0 0 0 1 0 0 0 0.8 0"/>
<feBlend mode="normal" in2="effect2_innerShadow_337:8101" result="effect3_innerShadow_337:8101"/>
</filter>
<filter id="filter3_dii_337:8101" x="41" y="39" width="116" height="69" filterUnits="userSpaceOnUse" color-interpolation-filters="sRGB">
<feFlood flood-opacity="0" result="BackgroundImageFix"/>
<feColorMatrix in="SourceAlpha" type="matrix" values="0 0 0 0 0 0 0 0 0 0 0 0 0 0 0 0 0 0 127 0" result="hardAlpha"/>
<feOffset dy="10"/>
<feGaussianBlur stdDeviation="15"/>
<feColorMatrix type="matrix" values="0 0 0 0 0.446597 0 0 0 0 0.461019 0 0 0 0 0.536736 0 0 0 0.1 0"/>
<feBlend mode="normal" in2="BackgroundImageFix" result="effect1_dropShadow_337:8101"/>
<feBlend mode="normal" in="SourceGraphic" in2="effect1_dropShadow_337:8101" result="shape"/>
<feColorMatrix in="SourceAlpha" type="matrix" values="0 0 0 0 0 0 0 0 0 0 0 0 0 0 0 0 0 0 127 0" result="hardAlpha"/>
<feOffset dx="-1" dy="-1"/>
<feGaussianBlur stdDeviation="1"/>
<feComposite in2="hardAlpha" operator="arithmetic" k2="-1" k3="1"/>
<feColorMatrix type="matrix" values="0 0 0 0 0.4 0 0 0 0 0.4 0 0 0 0 0.4 0 0 0 0.1 0"/>
<feBlend mode="normal" in2="shape" result="effect2_innerShadow_337:8101"/>
<feColorMatrix in="SourceAlpha" type="matrix" values="0 0 0 0 0 0 0 0 0 0 0 0 0 0 0 0 0 0 127 0" result="hardAlpha"/>
<feOffset dx="1" dy="1"/>
<feGaussianBlur stdDeviation="1"/>
<feComposite in2="hardAlpha" operator="arithmetic" k2="-1" k3="1"/>
<feColorMatrix type="matrix" values="0 0 0 0 1 0 0 0 0 1 0 0 0 0 1 0 0 0 0.8 0"/>
<feBlend mode="normal" in2="effect2_innerShadow_337:8101" result="effect3_innerShadow_337:8101"/>
</filter>
</defs>
</svg>
