<svg width="150" height="80" viewBox="0 0 150 80" fill="none" xmlns="http://www.w3.org/2000/svg">
<rect x="12" y="45" width="32" height="32" rx="4" fill="#2B3040"/>
<path fill-rule="evenodd" clip-rule="evenodd" d="M34 61V61C34 64.3333 31.3333 67 28 67V67C24.6667 67 22 64.3333 22 61V61C22 57.6667 24.6667 55 28 55V55C31.3333 55 34 57.6667 34 61Z" stroke="#169C18" stroke-width="1.5" stroke-linecap="round" stroke-linejoin="round"/>
<path fill-rule="evenodd" clip-rule="evenodd" d="M27.4667 59.0667L29.9334 60.5334C30.2667 60.7334 30.2667 61.2667 29.9334 61.4667L27.4667 62.9334C27.1334 63.1334 26.6667 62.8667 26.6667 62.4667V59.5334C26.6667 59.1334 27.1334 58.8667 27.4667 59.0667Z" stroke="#169C18" stroke-width="1.5" stroke-linecap="round" stroke-linejoin="round"/>
<rect x="59" y="3" width="32" height="32" rx="4" fill="#2B3040"/>
<path fill-rule="evenodd" clip-rule="evenodd" d="M73.1667 23C73.1667 22.7239 73.3905 22.5 73.6667 22.5H76.3333C76.6095 22.5 76.8333 22.7239 76.8333 23C76.8333 23.2761 76.6095 23.5 76.3333 23.5H73.6667C73.3905 23.5 73.1667 23.2761 73.1667 23Z" fill="#F65855"/>
<path fill-rule="evenodd" clip-rule="evenodd" d="M70.5 14.3333C70.5 13.3239 71.3239 12.5 72.3333 12.5H77.6667C78.707 12.5 79.5 13.3558 79.5 14.4667V15.3333C79.5 15.6946 79.406 16.0698 79.1333 16.4333L79.129 16.4391L77.0986 19.0667L79.1122 21.6726C79.4316 22.0127 79.5 22.4953 79.5 22.8V23.6667C79.5 24.6761 78.6761 25.5 77.6667 25.5H72.3333C71.3239 25.5 70.5 24.6761 70.5 23.6667V22.7333C70.5 22.3388 70.6814 21.9099 70.8506 21.656C70.8544 21.6503 70.8583 21.6447 70.8623 21.6392L72.7818 19L70.8643 16.3635C70.5935 16.001 70.5 15.6268 70.5 15.2667V14.3333ZM72.3333 13.5C71.8761 13.5 71.5 13.8761 71.5 14.3333V15.2667C71.5 15.4388 71.5393 15.5969 71.6667 15.7667L71.6711 15.7725L73.8044 18.7059C73.9319 18.8812 73.9319 19.1188 73.8044 19.2941L71.6778 22.2181C71.5825 22.3647 71.5 22.5969 71.5 22.7333V23.6667C71.5 24.1239 71.8761 24.5 72.3333 24.5H77.6667C78.1239 24.5 78.5 24.1239 78.5 23.6667V22.8C78.5 22.5792 78.4387 22.4125 78.3798 22.3536C78.3647 22.3385 78.3507 22.3225 78.3377 22.3057L76.071 19.3724C75.9319 19.1923 75.9319 18.941 76.071 18.7609L78.3353 15.8307C78.4611 15.6619 78.5 15.5046 78.5 15.3333V14.4667C78.5 13.8442 78.093 13.5 77.6667 13.5H72.3333Z" fill="#F65855"/>
<rect x="106" y="45" width="32" height="32" rx="4" fill="#2B3040"/>
<path fill-rule="evenodd" clip-rule="evenodd" d="M126.667 64.0666L126.133 63.5333C125.6 62.9999 124.8 62.9999 124.267 63.5333L124 63.7999C123.8 63.9999 123.467 64.0666 123.2 63.9333C122.333 63.5333 121.533 62.9999 120.8 62.2666C120.067 61.5333 119.533 60.7333 119.133 59.8666C119 59.5999 119.067 59.2666 119.267 58.9999L119.533 58.7333C120.067 58.1999 120.067 57.3999 119.533 56.8666L119 56.3333C118.467 55.7999 117.667 55.7999 117.133 56.3333L116.667 56.7999C116.2 57.2666 115.933 57.9999 116.133 58.7333C116.467 60.4666 117.467 62.3999 119.133 63.9999C120.733 65.5999 122.667 66.6666 124.4 66.9999C125.133 67.1333 125.8 66.9333 126.333 66.3999L126.8 65.9333C127.133 65.4666 127.133 64.5999 126.667 64.0666Z" stroke="#3D56F5" stroke-width="1.5" stroke-linecap="round" stroke-linejoin="round"/>
<path d="M128 55L124 59" stroke="#3D56F5" stroke-width="1.5" stroke-linecap="round" stroke-linejoin="round"/>
<path d="M128 59L124 55" stroke="#3D56F5" stroke-width="1.5" stroke-linecap="round" stroke-linejoin="round"/>
<circle cx="59.5" cy="19" r="1.5" stroke="#169C18"/>
<circle cx="2" cy="2" r="1.5" transform="matrix(-1 0 0 1 93 17)" stroke="#2083DF"/>
<circle cx="44" cy="58" r="1.5" stroke="#169C18"/>
<circle cx="2" cy="2" r="1.5" transform="matrix(-1 0 0 1 108 59)" stroke="#2083DF"/>
<circle cx="44" cy="64" r="1.5" transform="rotate(-180 44 64)" stroke="#C9981D"/>
<path d="M76.3536 64.3536C76.5488 64.1583 76.5488 63.8417 76.3536 63.6464L73.1716 60.4645C72.9763 60.2692 72.6597 60.2692 72.4645 60.4645C72.2692 60.6597 72.2692 60.9763 72.4645 61.1716L75.2929 64L72.4645 66.8284C72.2692 67.0237 72.2692 67.3403 72.4645 67.5355C72.6597 67.7308 72.9763 67.7308 73.1716 67.5355L76.3536 64.3536ZM46 64.5L46.9375 64.5L46.9375 63.5L46 63.5L46 64.5ZM48.8125 64.5L50.6875 64.5L50.6875 63.5L48.8125 63.5L48.8125 64.5ZM52.5625 64.5L54.4375 64.5L54.4375 63.5L52.5625 63.5L52.5625 64.5ZM56.3125 64.5L58.1875 64.5L58.1875 63.5L56.3125 63.5L56.3125 64.5ZM60.0625 64.5L61.9375 64.5L61.9375 63.5L60.0625 63.5L60.0625 64.5ZM63.8125 64.5L65.6875 64.5L65.6875 63.5L63.8125 63.5L63.8125 64.5ZM67.5625 64.5L69.4375 64.5L69.4375 63.5L67.5625 63.5L67.5625 64.5ZM71.3125 64.5L73.1875 64.5L73.1875 63.5L71.3125 63.5L71.3125 64.5ZM75.0625 64.5L76 64.5L76 63.5L75.0625 63.5L75.0625 64.5Z" fill="#C9981D"/>
<path d="M58 19V19C54.6863 19 52 21.6863 52 25V51.5C52 55.0898 49.0899 58 45.5 58V58" stroke="#169C18"/>
<path d="M92.5 19V19C95.8137 19 98.5 21.6863 98.5 25V54.5C98.5 58.0899 101.41 61 105 61V61" stroke="#2083DF"/>
</svg>
