<svg width="206" height="136" viewBox="0 0 206 136" fill="none" xmlns="http://www.w3.org/2000/svg">
    <g clip-path="url(#clip0_337_8062)">
        <g filter="url(#filter0_dii_337_8062)">
            <rect x="40" y="73" width="32" height="32" rx="4" fill="#F7F7F7"/>
            <path fill-rule="evenodd" clip-rule="evenodd"
                  d="M62 89V89C62 92.3333 59.3333 95 56 95V95C52.6667 95 50 92.3333 50 89V89C50 85.6667 52.6667 83 56 83V83C59.3333 83 62 85.6667 62 89Z"
                  stroke="#2BA329" stroke-width="1.5" stroke-linecap="round" stroke-linejoin="round"/>
            <path fill-rule="evenodd" clip-rule="evenodd"
                  d="M55.4667 87.0667L57.9333 88.5334C58.2667 88.7334 58.2667 89.2667 57.9333 89.4667L55.4667 90.9334C55.1333 91.1334 54.6667 90.8667 54.6667 90.4667V87.5334C54.6667 87.1334 55.1333 86.8667 55.4667 87.0667Z"
                  stroke="#2BA329" stroke-width="1.5" stroke-linecap="round" stroke-linejoin="round"/>
        </g>
        <g filter="url(#filter1_dii_337_8062)">
            <rect x="87" y="31" width="32" height="32" rx="4" fill="#F7F7F7"/>
            <path fill-rule="evenodd" clip-rule="evenodd"
                  d="M101.167 51C101.167 50.7239 101.391 50.5 101.667 50.5H104.333C104.609 50.5 104.833 50.7239 104.833 51C104.833 51.2761 104.609 51.5 104.333 51.5H101.667C101.391 51.5 101.167 51.2761 101.167 51Z"
                  fill="#E63E1A"/>
            <path fill-rule="evenodd" clip-rule="evenodd"
                  d="M98.5 42.3333C98.5 41.3239 99.3239 40.5 100.333 40.5H105.667C106.707 40.5 107.5 41.3558 107.5 42.4667V43.3333C107.5 43.6946 107.406 44.0698 107.133 44.4333L107.129 44.4391L105.099 47.0667L107.112 49.6726C107.432 50.0127 107.5 50.4953 107.5 50.8V51.6667C107.5 52.6761 106.676 53.5 105.667 53.5H100.333C99.3239 53.5 98.5 52.6761 98.5 51.6667V50.7333C98.5 50.3388 98.6814 49.9099 98.8506 49.656C98.8544 49.6503 98.8583 49.6447 98.8623 49.6392L100.782 47L98.8643 44.3635C98.5935 44.001 98.5 43.6268 98.5 43.2667V42.3333ZM100.333 41.5C99.8761 41.5 99.5 41.8761 99.5 42.3333V43.2667C99.5 43.4388 99.5393 43.5969 99.6667 43.7667L99.6711 43.7725L101.804 46.7059C101.932 46.8812 101.932 47.1188 101.804 47.2941L99.6778 50.2181C99.5825 50.3647 99.5 50.5969 99.5 50.7333V51.6667C99.5 52.1239 99.8761 52.5 100.333 52.5H105.667C106.124 52.5 106.5 52.1239 106.5 51.6667V50.8C106.5 50.5792 106.439 50.4125 106.38 50.3536C106.365 50.3385 106.351 50.3225 106.338 50.3057L104.071 47.3724C103.932 47.1923 103.932 46.941 104.071 46.7609L106.335 43.8307C106.461 43.6619 106.5 43.5046 106.5 43.3333V42.4667C106.5 41.8442 106.093 41.5 105.667 41.5H100.333Z"
                  fill="#E63E1A"/>
        </g>
        <g filter="url(#filter2_dii_337_8062)">
            <rect x="134" y="73" width="32" height="32" rx="4" fill="#F7F7F7"/>
            <path fill-rule="evenodd" clip-rule="evenodd"
                  d="M154.667 92.0666L154.133 91.5333C153.6 90.9999 152.8 90.9999 152.267 91.5333L152 91.7999C151.8 91.9999 151.467 92.0666 151.2 91.9333C150.333 91.5333 149.533 90.9999 148.8 90.2666C148.067 89.5333 147.533 88.7333 147.133 87.8666C147 87.5999 147.067 87.2666 147.267 86.9999L147.533 86.7333C148.067 86.1999 148.067 85.3999 147.533 84.8666L147 84.3333C146.467 83.7999 145.667 83.7999 145.133 84.3333L144.667 84.7999C144.2 85.2666 143.933 85.9999 144.133 86.7333C144.467 88.4666 145.467 90.3999 147.133 91.9999C148.733 93.5999 150.667 94.6666 152.4 94.9999C153.133 95.1333 153.8 94.9333 154.333 94.3999L154.8 93.9333C155.133 93.4666 155.133 92.5999 154.667 92.0666Z"
                  stroke="#6B89F6" stroke-width="1.5" stroke-linecap="round" stroke-linejoin="round"/>
            <path d="M156 83L152 87" stroke="#6B89F6" stroke-width="1.5" stroke-linecap="round"
                  stroke-linejoin="round"/>
            <path d="M156 87L152 83" stroke="#6B89F6" stroke-width="1.5" stroke-linecap="round"
                  stroke-linejoin="round"/>
        </g>
        <circle cx="87.5" cy="47" r="1.5" stroke="#A8D7A7"/>
        <circle r="1.5" transform="matrix(-1 0 0 1 119 47)" stroke="#B6C3F0"/>
        <circle cx="72" cy="86" r="1.5" stroke="#A8D7A7"/>
        <circle r="1.5" transform="matrix(-1 0 0 1 134 89)" stroke="#B6C3F0"/>
        <circle cx="72" cy="92" r="1.5" transform="rotate(-180 72 92)" stroke="#FFC000"/>
        <path d="M104.354 92.3536C104.549 92.1583 104.549 91.8417 104.354 91.6464L101.172 88.4645C100.976 88.2692 100.66 88.2692 100.464 88.4645C100.269 88.6597 100.269 88.9763 100.464 89.1716L103.293 92L100.464 94.8284C100.269 95.0237 100.269 95.3403 100.464 95.5355C100.66 95.7308 100.976 95.7308 101.172 95.5355L104.354 92.3536ZM74 92.5L74.9375 92.5L74.9375 91.5L74 91.5L74 92.5ZM76.8125 92.5L78.6875 92.5L78.6875 91.5L76.8125 91.5L76.8125 92.5ZM80.5625 92.5L82.4375 92.5L82.4375 91.5L80.5625 91.5L80.5625 92.5ZM84.3125 92.5L86.1875 92.5L86.1875 91.5L84.3125 91.5L84.3125 92.5ZM88.0625 92.5L89.9375 92.5L89.9375 91.5L88.0625 91.5L88.0625 92.5ZM91.8125 92.5L93.6875 92.5L93.6875 91.5L91.8125 91.5L91.8125 92.5ZM95.5625 92.5L97.4375 92.5L97.4375 91.5L95.5625 91.5L95.5625 92.5ZM99.3125 92.5L101.187 92.5L101.188 91.5L99.3125 91.5L99.3125 92.5ZM103.062 92.5L104 92.5L104 91.5L103.063 91.5L103.062 92.5Z"
              fill="#FFC000"/>
        <path d="M86 47V47C82.6863 47 80 49.6863 80 53V79.5C80 83.0898 77.0899 86 73.5 86V86" stroke="#A8D7A7"/>
        <path d="M120.5 47V47C123.814 47 126.5 49.6863 126.5 53V82.5C126.5 86.0899 129.41 89 133 89V89"
              stroke="#B6C3F0"/>
    </g>
    <defs>
        <filter id="filter0_dii_337_8062" x="10" y="53" width="92" height="92" filterUnits="userSpaceOnUse"
                color-interpolation-filters="sRGB">
            <feFlood flood-opacity="0" result="BackgroundImageFix"/>
            <feColorMatrix in="SourceAlpha" type="matrix" values="0 0 0 0 0 0 0 0 0 0 0 0 0 0 0 0 0 0 127 0"
                           result="hardAlpha"/>
            <feOffset dy="10"/>
            <feGaussianBlur stdDeviation="15"/>
            <feColorMatrix type="matrix" values="0 0 0 0 0.446597 0 0 0 0 0.461019 0 0 0 0 0.536736 0 0 0 0.1 0"/>
            <feBlend mode="normal" in2="BackgroundImageFix" result="effect1_dropShadow_337_8062"/>
            <feBlend mode="normal" in="SourceGraphic" in2="effect1_dropShadow_337_8062" result="shape"/>
            <feColorMatrix in="SourceAlpha" type="matrix" values="0 0 0 0 0 0 0 0 0 0 0 0 0 0 0 0 0 0 127 0"
                           result="hardAlpha"/>
            <feOffset dx="-1" dy="-1"/>
            <feGaussianBlur stdDeviation="1"/>
            <feComposite in2="hardAlpha" operator="arithmetic" k2="-1" k3="1"/>
            <feColorMatrix type="matrix" values="0 0 0 0 0.4 0 0 0 0 0.4 0 0 0 0 0.4 0 0 0 0.1 0"/>
            <feBlend mode="normal" in2="shape" result="effect2_innerShadow_337_8062"/>
            <feColorMatrix in="SourceAlpha" type="matrix" values="0 0 0 0 0 0 0 0 0 0 0 0 0 0 0 0 0 0 127 0"
                           result="hardAlpha"/>
            <feOffset dx="1" dy="1"/>
            <feGaussianBlur stdDeviation="1"/>
            <feComposite in2="hardAlpha" operator="arithmetic" k2="-1" k3="1"/>
            <feColorMatrix type="matrix" values="0 0 0 0 1 0 0 0 0 1 0 0 0 0 1 0 0 0 0.8 0"/>
            <feBlend mode="normal" in2="effect2_innerShadow_337_8062" result="effect3_innerShadow_337_8062"/>
        </filter>
        <filter id="filter1_dii_337_8062" x="57" y="11" width="92" height="92" filterUnits="userSpaceOnUse"
                color-interpolation-filters="sRGB">
            <feFlood flood-opacity="0" result="BackgroundImageFix"/>
            <feColorMatrix in="SourceAlpha" type="matrix" values="0 0 0 0 0 0 0 0 0 0 0 0 0 0 0 0 0 0 127 0"
                           result="hardAlpha"/>
            <feOffset dy="10"/>
            <feGaussianBlur stdDeviation="15"/>
            <feColorMatrix type="matrix" values="0 0 0 0 0.446597 0 0 0 0 0.461019 0 0 0 0 0.536736 0 0 0 0.1 0"/>
            <feBlend mode="normal" in2="BackgroundImageFix" result="effect1_dropShadow_337_8062"/>
            <feBlend mode="normal" in="SourceGraphic" in2="effect1_dropShadow_337_8062" result="shape"/>
            <feColorMatrix in="SourceAlpha" type="matrix" values="0 0 0 0 0 0 0 0 0 0 0 0 0 0 0 0 0 0 127 0"
                           result="hardAlpha"/>
            <feOffset dx="-1" dy="-1"/>
            <feGaussianBlur stdDeviation="1"/>
            <feComposite in2="hardAlpha" operator="arithmetic" k2="-1" k3="1"/>
            <feColorMatrix type="matrix" values="0 0 0 0 0.4 0 0 0 0 0.4 0 0 0 0 0.4 0 0 0 0.1 0"/>
            <feBlend mode="normal" in2="shape" result="effect2_innerShadow_337_8062"/>
            <feColorMatrix in="SourceAlpha" type="matrix" values="0 0 0 0 0 0 0 0 0 0 0 0 0 0 0 0 0 0 127 0"
                           result="hardAlpha"/>
            <feOffset dx="1" dy="1"/>
            <feGaussianBlur stdDeviation="1"/>
            <feComposite in2="hardAlpha" operator="arithmetic" k2="-1" k3="1"/>
            <feColorMatrix type="matrix" values="0 0 0 0 1 0 0 0 0 1 0 0 0 0 1 0 0 0 0.8 0"/>
            <feBlend mode="normal" in2="effect2_innerShadow_337_8062" result="effect3_innerShadow_337_8062"/>
        </filter>
        <filter id="filter2_dii_337_8062" x="104" y="53" width="92" height="92" filterUnits="userSpaceOnUse"
                color-interpolation-filters="sRGB">
            <feFlood flood-opacity="0" result="BackgroundImageFix"/>
            <feColorMatrix in="SourceAlpha" type="matrix" values="0 0 0 0 0 0 0 0 0 0 0 0 0 0 0 0 0 0 127 0"
                           result="hardAlpha"/>
            <feOffset dy="10"/>
            <feGaussianBlur stdDeviation="15"/>
            <feColorMatrix type="matrix" values="0 0 0 0 0.446597 0 0 0 0 0.461019 0 0 0 0 0.536736 0 0 0 0.1 0"/>
            <feBlend mode="normal" in2="BackgroundImageFix" result="effect1_dropShadow_337_8062"/>
            <feBlend mode="normal" in="SourceGraphic" in2="effect1_dropShadow_337_8062" result="shape"/>
            <feColorMatrix in="SourceAlpha" type="matrix" values="0 0 0 0 0 0 0 0 0 0 0 0 0 0 0 0 0 0 127 0"
                           result="hardAlpha"/>
            <feOffset dx="-1" dy="-1"/>
            <feGaussianBlur stdDeviation="1"/>
            <feComposite in2="hardAlpha" operator="arithmetic" k2="-1" k3="1"/>
            <feColorMatrix type="matrix" values="0 0 0 0 0.4 0 0 0 0 0.4 0 0 0 0 0.4 0 0 0 0.1 0"/>
            <feBlend mode="normal" in2="shape" result="effect2_innerShadow_337_8062"/>
            <feColorMatrix in="SourceAlpha" type="matrix" values="0 0 0 0 0 0 0 0 0 0 0 0 0 0 0 0 0 0 127 0"
                           result="hardAlpha"/>
            <feOffset dx="1" dy="1"/>
            <feGaussianBlur stdDeviation="1"/>
            <feComposite in2="hardAlpha" operator="arithmetic" k2="-1" k3="1"/>
            <feColorMatrix type="matrix" values="0 0 0 0 1 0 0 0 0 1 0 0 0 0 1 0 0 0 0.8 0"/>
            <feBlend mode="normal" in2="effect2_innerShadow_337_8062" result="effect3_innerShadow_337_8062"/>
        </filter>
        <clipPath id="clip0_337_8062">
            <rect width="206" height="136" fill="white"/>
        </clipPath>
    </defs>
</svg>
