<svg width="230" height="132" viewBox="0 0 230 132" fill="none" xmlns="http://www.w3.org/2000/svg">
    <path d="M210.863 4.71195V120.74C210.863 122.776 209.224 124.407 207.163 124.407H22.8385C20.803 124.407 19.1387 122.773 19.1387 120.74V4.71195C19.1387 2.4024 21.0266 0.5 23.3875 0.5H206.614C208.951 0.5 210.863 2.37891 210.863 4.71195Z"
          stroke="#2C3A6F"/>
    <path d="M224.557 130.406L224.557 130.406L224.561 130.405L228.015 129.143C228.913 128.805 229.5 127.951 229.5 126.976V125.802H0.518433C0.52124 125.853 0.523987 125.909 0.526276 125.969L0.526642 125.978V125.988V127.772C0.526642 128.26 0.818298 128.699 1.27232 128.869L1.27768 128.871L5.44421 130.489C5.44485 130.49 5.4455 130.49 5.44614 130.49C7.20085 131.155 9.06076 131.5 10.919 131.5H218.559C220.611 131.5 222.636 131.127 224.557 130.406Z"
          stroke="#2C3A6F"/>
    <path d="M27.4658 8.77472H203.328V117.315H27.4658V8.77472Z" stroke="#2C3A6F"/>
    <rect x="44.6826" y="26.9835" width="8.78981" height="2.18784" rx="1.09392" fill="#2C3A6F"/>
    <rect x="54.9365" y="26.9835" width="12.4522" height="2.18784" rx="1.09392" fill="#2C3A6F"/>
    <rect x="69.5859" y="26.9835" width="32.9618" height="2.18784" rx="1.09392" fill="#2C3A6F"/>
    <rect x="44.6826" y="23.3369" width="57.8662" height="2.18784" rx="1.09392" fill="#2C3A6F"/>
    <rect x="106.211" y="23.3369" width="11.7197" height="2.18784" rx="1.09392" fill="#2C3A6F"/>
    <rect x="123.058" y="23.3369" width="28.5669" height="2.18784" rx="1.09392" fill="#2C3A6F"/>
    <rect x="44.6826" y="45.9448" width="8.78981" height="2.18784" rx="1.09392" fill="#2C3A6F"/>
    <rect x="54.9365" y="45.9448" width="12.4522" height="2.18784" rx="1.09392" fill="#2C3A6F"/>
    <rect x="69.5859" y="45.9448" width="32.9618" height="2.18784" rx="1.09392" fill="#2C3A6F"/>
    <rect x="106.211" y="42.4843" width="11.7197" height="2.18784" rx="1.09392" fill="#2C3A6F"/>
    <rect x="123.058" y="42.2982" width="28.5669" height="2.18784" rx="1.09392" fill="#2C3A6F"/>
    <rect x="44.6826" y="42.2982" width="57.8662" height="2.18784" rx="1.09392" fill="#2C3A6F"/>
    <rect x="44.6826" y="64.9061" width="8.78981" height="2.18784" rx="1.09392" fill="#2C3A6F"/>
    <rect x="54.9365" y="64.9061" width="12.4522" height="2.18784" rx="1.09392" fill="#2C3A6F"/>
    <rect x="69.5859" y="64.9061" width="32.9618" height="2.18784" rx="1.09392" fill="#2C3A6F"/>
    <rect x="106.211" y="61.4455" width="11.7197" height="2.18784" rx="1.09392" fill="#2C3A6F"/>
    <rect x="123.058" y="61.2595" width="28.5669" height="2.18784" rx="1.09392" fill="#2C3A6F"/>
    <rect x="44.6826" y="61.2595" width="57.8662" height="2.18784" rx="1.09392" fill="#2C3A6F"/>
    <rect x="44.6826" y="83.8674" width="8.78981" height="2.18784" rx="1.09392" fill="#2C3A6F"/>
    <rect x="54.9365" y="83.8674" width="12.4522" height="2.18784" rx="1.09392" fill="#2C3A6F"/>
    <rect x="69.5859" y="83.8674" width="32.9618" height="2.18784" rx="1.09392" fill="#2C3A6F"/>
    <rect x="106.211" y="80.4068" width="11.7197" height="2.18784" rx="1.09392" fill="#2C3A6F"/>
    <rect x="123.058" y="80.2207" width="28.5669" height="2.18784" rx="1.09392" fill="#2C3A6F"/>
    <rect x="44.6826" y="80.2207" width="57.8662" height="2.18784" rx="1.09392" fill="#2C3A6F"/>
    <rect x="44.6826" y="103.558" width="8.78981" height="2.18784" rx="1.09392" fill="#2C3A6F"/>
    <rect x="54.9365" y="103.558" width="12.4522" height="2.18784" rx="1.09392" fill="#2C3A6F"/>
    <rect x="106.211" y="100.097" width="11.7197" height="2.18784" rx="1.09392" fill="#2C3A6F"/>
    <rect x="123.058" y="99.9114" width="28.5669" height="2.18784" rx="1.09392" fill="#2C3A6F"/>
    <rect x="44.6826" y="99.9114" width="57.8662" height="2.18784" rx="1.09392" fill="#2C3A6F"/>
    <path d="M187.059 25.8898C187.059 25.0116 187.733 24.3401 188.615 24.3401C189.497 24.3401 190.172 25.0116 190.172 25.8898"
          stroke="#2C3A6F" stroke-linecap="round" stroke-linejoin="round"/>
    <path d="M187.059 25.8898C187.059 25.0116 187.733 24.3401 188.615 24.3401C189.497 24.3401 190.172 25.0116 190.172 25.8898"
          stroke="#2C3A6F" stroke-linecap="round" stroke-linejoin="round"/>
    <path d="M190.172 25.8894C190.172 26.7676 189.497 27.4391 188.615 27.4391C187.733 27.4391 187.059 26.7676 187.059 25.8894"
          stroke="#2C3A6F" stroke-linecap="round" stroke-linejoin="round"/>
    <path d="M192.507 25.8894C192.507 25.7344 192.507 25.5278 192.455 25.3728L193.389 24.6496C193.596 24.4946 193.648 24.1847 193.493 23.9781L192.663 22.5833C192.559 22.3767 192.247 22.2734 192.04 22.3767L191.21 22.6866C191.054 22.7383 190.847 22.7383 190.743 22.635C190.639 22.5317 190.483 22.48 190.328 22.4284C190.172 22.325 190.068 22.2217 190.016 22.0151L189.913 21.1369C189.861 20.8786 189.653 20.672 189.394 20.672H187.785C187.526 20.672 187.318 20.8786 187.267 21.1369L187.163 22.0151C187.163 22.1701 187.007 22.325 186.851 22.4284C186.696 22.48 186.592 22.5833 186.436 22.635C186.281 22.7383 186.125 22.7383 185.969 22.6866L185.139 22.3767C184.88 22.2734 184.62 22.3767 184.517 22.5833L183.687 23.9781C183.583 24.1847 183.635 24.4946 183.79 24.6496L184.724 25.3728C184.724 25.5278 184.672 25.6828 184.672 25.8894"
          stroke="#2C3A6F" stroke-linecap="round" stroke-linejoin="round"/>
    <path d="M192.506 25.8894C192.506 26.0444 192.506 26.251 192.454 26.406L193.388 27.1292C193.596 27.2842 193.648 27.5941 193.492 27.8007L192.662 29.1955C192.558 29.4021 192.247 29.5054 192.039 29.4021L191.209 29.0922C191.053 29.0405 190.846 29.0405 190.742 29.1438C190.638 29.2471 190.483 29.2988 190.327 29.3505C190.171 29.4538 190.068 29.5571 190.016 29.7637L189.912 30.6419C189.86 30.9002 189.653 31.1068 189.393 31.1068H187.785C187.525 31.1068 187.318 30.9002 187.266 30.6419L187.162 29.7637C187.162 29.6087 187.006 29.4538 186.851 29.3505C186.695 29.2988 186.591 29.1955 186.436 29.1438C186.28 29.0405 186.124 29.0405 185.969 29.0922L185.139 29.4021C184.879 29.5054 184.62 29.4021 184.516 29.1955L183.686 27.8007C183.582 27.5941 183.634 27.2842 183.79 27.1292L184.724 26.406C184.724 26.251 184.672 26.096 184.672 25.8894"
          stroke="#2C3A6F" stroke-linecap="round" stroke-linejoin="round"/>
    <path d="M187.059 44.851C187.059 43.9728 187.733 43.3013 188.615 43.3013C189.497 43.3013 190.172 43.9728 190.172 44.851"
          stroke="#2C3A6F" stroke-linecap="round" stroke-linejoin="round"/>
    <path d="M187.059 44.851C187.059 43.9728 187.733 43.3013 188.615 43.3013C189.497 43.3013 190.172 43.9728 190.172 44.851"
          stroke="#2C3A6F" stroke-linecap="round" stroke-linejoin="round"/>
    <path d="M190.172 44.8506C190.172 45.7288 189.497 46.4003 188.615 46.4003C187.733 46.4003 187.059 45.7288 187.059 44.8506"
          stroke="#2C3A6F" stroke-linecap="round" stroke-linejoin="round"/>
    <path d="M192.507 44.8507C192.507 44.6957 192.507 44.4891 192.455 44.3341L193.389 43.6109C193.596 43.456 193.648 43.146 193.493 42.9394L192.663 41.5446C192.559 41.338 192.247 41.2347 192.04 41.338L191.21 41.6479C191.054 41.6996 190.847 41.6996 190.743 41.5963C190.639 41.493 190.483 41.4413 190.328 41.3897C190.172 41.2863 190.068 41.183 190.016 40.9764L189.913 40.0982C189.861 39.8399 189.653 39.6333 189.394 39.6333H187.785C187.526 39.6333 187.318 39.8399 187.267 40.0982L187.163 40.9764C187.163 41.1314 187.007 41.2863 186.851 41.3897C186.696 41.4413 186.592 41.5446 186.436 41.5963C186.281 41.6996 186.125 41.6996 185.969 41.6479L185.139 41.338C184.88 41.2347 184.62 41.338 184.517 41.5446L183.687 42.9394C183.583 43.146 183.635 43.456 183.79 43.6109L184.724 44.3341C184.724 44.4891 184.672 44.6441 184.672 44.8507"
          stroke="#2C3A6F" stroke-linecap="round" stroke-linejoin="round"/>
    <path d="M192.506 44.8506C192.506 45.0056 192.506 45.2122 192.454 45.3672L193.388 46.0904C193.596 46.2453 193.648 46.5553 193.492 46.7619L192.662 48.1567C192.558 48.3633 192.247 48.4666 192.039 48.3633L191.209 48.0533C191.053 48.0017 190.846 48.0017 190.742 48.105C190.638 48.2083 190.483 48.26 190.327 48.3116C190.171 48.4149 190.068 48.5183 190.016 48.7249L189.912 49.6031C189.86 49.8614 189.653 50.068 189.393 50.068H187.785C187.525 50.068 187.318 49.8614 187.266 49.6031L187.162 48.7249C187.162 48.5699 187.006 48.4149 186.851 48.3116C186.695 48.26 186.591 48.1567 186.436 48.105C186.28 48.0017 186.124 48.0017 185.969 48.0533L185.139 48.3633C184.879 48.4666 184.62 48.3633 184.516 48.1567L183.686 46.7619C183.582 46.5553 183.634 46.2453 183.79 46.0904L184.724 45.3672C184.724 45.2122 184.672 45.0572 184.672 44.8506"
          stroke="#2C3A6F" stroke-linecap="round" stroke-linejoin="round"/>
    <path d="M187.059 63.8121C187.059 62.9339 187.733 62.2624 188.615 62.2624C189.497 62.2624 190.172 62.9339 190.172 63.8121"
          stroke="#2C3A6F" stroke-linecap="round" stroke-linejoin="round"/>
    <path d="M187.059 63.8121C187.059 62.9339 187.733 62.2624 188.615 62.2624C189.497 62.2624 190.172 62.9339 190.172 63.8121"
          stroke="#2C3A6F" stroke-linecap="round" stroke-linejoin="round"/>
    <path d="M190.172 63.8117C190.172 64.6899 189.497 65.3614 188.615 65.3614C187.733 65.3614 187.059 64.6899 187.059 63.8117"
          stroke="#2C3A6F" stroke-linecap="round" stroke-linejoin="round"/>
    <path d="M192.507 63.8119C192.507 63.657 192.507 63.4503 192.455 63.2954L193.389 62.5722C193.596 62.4172 193.648 62.1072 193.493 61.9006L192.663 60.5059C192.559 60.2992 192.247 60.1959 192.04 60.2992L191.21 60.6092C191.054 60.6608 190.847 60.6608 190.743 60.5575C190.639 60.4542 190.483 60.4026 190.328 60.3509C190.172 60.2476 190.068 60.1443 190.016 59.9376L189.913 59.0595C189.861 58.8012 189.653 58.5945 189.394 58.5945H187.785C187.526 58.5945 187.318 58.8012 187.267 59.0595L187.163 59.9376C187.163 60.0926 187.007 60.2476 186.851 60.3509C186.696 60.4026 186.592 60.5059 186.436 60.5575C186.281 60.6608 186.125 60.6608 185.969 60.6092L185.139 60.2992C184.88 60.1959 184.62 60.2992 184.517 60.5059L183.687 61.9006C183.583 62.1072 183.635 62.4172 183.79 62.5722L184.724 63.2954C184.724 63.4503 184.672 63.6053 184.672 63.8119"
          stroke="#2C3A6F" stroke-linecap="round" stroke-linejoin="round"/>
    <path d="M192.506 63.8117C192.506 63.9667 192.506 64.1733 192.454 64.3283L193.388 65.0515C193.596 65.2065 193.648 65.5164 193.492 65.723L192.662 67.1178C192.558 67.3244 192.247 67.4277 192.039 67.3244L191.209 67.0145C191.053 66.9628 190.846 66.9628 190.742 67.0661C190.638 67.1694 190.483 67.2211 190.327 67.2728C190.171 67.3761 190.068 67.4794 190.016 67.686L189.912 68.5642C189.86 68.8225 189.653 69.0291 189.393 69.0291H187.785C187.525 69.0291 187.318 68.8225 187.266 68.5642L187.162 67.686C187.162 67.531 187.006 67.3761 186.851 67.2728C186.695 67.2211 186.591 67.1178 186.436 67.0661C186.28 66.9628 186.124 66.9628 185.969 67.0145L185.139 67.3244C184.879 67.4277 184.62 67.3244 184.516 67.1178L183.686 65.723C183.582 65.5164 183.634 65.2065 183.79 65.0515L184.724 64.3283C184.724 64.1733 184.672 64.0183 184.672 63.8117"
          stroke="#2C3A6F" stroke-linecap="round" stroke-linejoin="round"/>
    <path d="M187.059 82.7738C187.059 81.8956 187.733 81.2241 188.615 81.2241C189.497 81.2241 190.172 81.8956 190.172 82.7738"
          stroke="#2C3A6F" stroke-linecap="round" stroke-linejoin="round"/>
    <path d="M187.059 82.7738C187.059 81.8956 187.733 81.2241 188.615 81.2241C189.497 81.2241 190.172 81.8956 190.172 82.7738"
          stroke="#2C3A6F" stroke-linecap="round" stroke-linejoin="round"/>
    <path d="M190.172 82.7734C190.172 83.6516 189.497 84.3231 188.615 84.3231C187.733 84.3231 187.059 83.6516 187.059 82.7734"
          stroke="#2C3A6F" stroke-linecap="round" stroke-linejoin="round"/>
    <path d="M192.507 82.7732C192.507 82.6183 192.507 82.4116 192.455 82.2567L193.389 81.5335C193.596 81.3785 193.648 81.0686 193.493 80.8619L192.663 79.4672C192.559 79.2605 192.247 79.1572 192.04 79.2605L191.21 79.5705C191.054 79.6221 190.847 79.6221 190.743 79.5188C190.639 79.4155 190.483 79.3639 190.328 79.3122C190.172 79.2089 190.068 79.1056 190.016 78.8989L189.913 78.0208C189.861 77.7625 189.653 77.5558 189.394 77.5558H187.785C187.526 77.5558 187.318 77.7625 187.267 78.0208L187.163 78.8989C187.163 79.0539 187.007 79.2089 186.851 79.3122C186.696 79.3639 186.592 79.4672 186.436 79.5188C186.281 79.6221 186.125 79.6221 185.969 79.5705L185.139 79.2605C184.88 79.1572 184.62 79.2605 184.517 79.4672L183.687 80.8619C183.583 81.0686 183.635 81.3785 183.79 81.5335L184.724 82.2567C184.724 82.4116 184.672 82.5666 184.672 82.7732"
          stroke="#2C3A6F" stroke-linecap="round" stroke-linejoin="round"/>
    <path d="M192.506 82.7734C192.506 82.9283 192.506 83.135 192.454 83.29L193.388 84.0132C193.596 84.1681 193.648 84.4781 193.492 84.6847L192.662 86.0795C192.558 86.2861 192.247 86.3894 192.039 86.2861L191.209 85.9761C191.053 85.9245 190.846 85.9245 190.742 86.0278C190.638 86.1311 190.483 86.1828 190.327 86.2344C190.171 86.3377 190.068 86.4411 190.016 86.6477L189.912 87.5259C189.86 87.7841 189.653 87.9908 189.393 87.9908H187.785C187.525 87.9908 187.318 87.7841 187.266 87.5259L187.162 86.6477C187.162 86.4927 187.006 86.3377 186.851 86.2344C186.695 86.1828 186.591 86.0795 186.436 86.0278C186.28 85.9245 186.124 85.9245 185.969 85.9761L185.139 86.2861C184.879 86.3894 184.62 86.2861 184.516 86.0795L183.686 84.6847C183.582 84.4781 183.634 84.1681 183.79 84.0132L184.724 83.29C184.724 83.135 184.672 82.98 184.672 82.7734"
          stroke="#2C3A6F" stroke-linecap="round" stroke-linejoin="round"/>
    <path d="M187.059 103.193C187.059 102.315 187.733 101.643 188.615 101.643C189.497 101.643 190.172 102.315 190.172 103.193"
          stroke="#2C3A6F" stroke-linecap="round" stroke-linejoin="round"/>
    <path d="M187.059 103.193C187.059 102.315 187.733 101.643 188.615 101.643C189.497 101.643 190.172 102.315 190.172 103.193"
          stroke="#2C3A6F" stroke-linecap="round" stroke-linejoin="round"/>
    <path d="M190.172 103.193C190.172 104.071 189.497 104.743 188.615 104.743C187.733 104.743 187.059 104.071 187.059 103.193"
          stroke="#2C3A6F" stroke-linecap="round" stroke-linejoin="round"/>
    <path d="M192.507 103.193C192.507 103.038 192.507 102.831 192.455 102.676L193.389 101.953C193.596 101.798 193.648 101.488 193.493 101.281L192.663 99.8867C192.559 99.68 192.247 99.5767 192.04 99.68L191.21 99.99C191.054 100.042 190.847 100.042 190.743 99.9383C190.639 99.835 190.483 99.7834 190.328 99.7317C190.172 99.6284 190.068 99.5251 190.016 99.3184L189.913 98.4403C189.861 98.182 189.653 97.9753 189.394 97.9753H187.785C187.526 97.9753 187.318 98.182 187.267 98.4403L187.163 99.3184C187.163 99.4734 187.007 99.6284 186.851 99.7317C186.696 99.7834 186.592 99.8867 186.436 99.9383C186.281 100.042 186.125 100.042 185.969 99.99L185.139 99.68C184.88 99.5767 184.62 99.68 184.517 99.8867L183.687 101.281C183.583 101.488 183.635 101.798 183.79 101.953L184.724 102.676C184.724 102.831 184.672 102.986 184.672 103.193"
          stroke="#2C3A6F" stroke-linecap="round" stroke-linejoin="round"/>
    <path d="M192.506 103.193C192.506 103.348 192.506 103.554 192.454 103.709L193.388 104.433C193.596 104.588 193.648 104.898 193.492 105.104L192.662 106.499C192.558 106.706 192.247 106.809 192.039 106.706L191.209 106.396C191.053 106.344 190.846 106.344 190.742 106.447C190.638 106.551 190.483 106.602 190.327 106.654C190.171 106.757 190.068 106.861 190.016 107.067L189.912 107.945C189.86 108.204 189.653 108.41 189.393 108.41H187.785C187.525 108.41 187.318 108.204 187.266 107.945L187.162 107.067C187.162 106.912 187.006 106.757 186.851 106.654C186.695 106.602 186.591 106.499 186.436 106.447C186.28 106.344 186.124 106.344 185.969 106.396L185.139 106.706C184.879 106.809 184.62 106.706 184.516 106.499L183.686 105.104C183.582 104.898 183.634 104.588 183.79 104.433L184.724 103.709C184.724 103.554 184.672 103.4 184.672 103.193"
          stroke="#2C3A6F" stroke-linecap="round" stroke-linejoin="round"/>
</svg>
