<svg width="160" height="92" viewBox="0 0 160 92" fill="none" xmlns="http://www.w3.org/2000/svg">
<path fill-rule="evenodd" clip-rule="evenodd" d="M16 1C14.7174 1 14 1.75109 14 3.00046V83.0005C14 84.0523 14.9387 85.0005 16 85.0005L144 85.0002C145.077 85.0002 146.016 84.0561 146.016 83.0002V3.00023C146.016 1.73925 145.271 1 144 1H16ZM13 3.00046C13 1.19711 14.1668 0 16 0H144C145.815 0 147.016 1.17803 147.016 3.00023V83.0002C147.016 84.6137 145.623 86.0002 144 86.0002L16 86.0005C14.3957 86.0005 13 84.6138 13 83.0005V3.00046Z" fill="white"/>
<path fill-rule="evenodd" clip-rule="evenodd" d="M0.000647973 88.9819C0.0105552 87.8845 0.903034 87 2.00056 87H158.833C159.477 87 160 87.5225 160 88.1671C160 88.9891 159.486 90.0471 158.724 90.3347L158.719 90.3365L156.303 91.221L156.3 91.2219C154.931 91.7345 153.487 92.0002 152.022 92.0002H7.57727C6.24232 92.0002 4.90737 91.752 3.64853 91.2743L3.64164 91.2717L0.740965 90.143C0.286037 89.9704 0 89.5322 0 89.0537L0.000647973 88.9819ZM1.01854 88L1 89.0537C1 89.1355 1.04644 89.1895 1.09618 89.2082L1.10225 89.2105L4.00162 90.3387L4.00277 90.3392C5.15055 90.7747 6.36561 91.0002 7.57727 91.0002H152.022C153.37 91.0002 154.702 90.7547 155.964 90.2797L155.981 90.2736L155.988 90.2715L158.371 89.3991L158.373 89.3985C158.737 89.2601 159 88.5803 159 88.1671V88H1.01854Z" fill="white"/>
<path fill-rule="evenodd" clip-rule="evenodd" d="M16 5.00023C16 3.89566 16.8954 3.00023 18 3.00023H142C143.105 3.00023 144 3.89566 144 5.00023V81.0002C144 82.1048 143.105 83.0002 142 83.0002H18C16.8954 83.0002 16 82.1048 16 81.0002V5.00023ZM18 4.00023C17.4477 4.00023 17 4.44794 17 5.00023V81.0002C17 81.5525 17.4477 82.0002 18 82.0002H142C142.552 82.0002 143 81.5525 143 81.0002V5.00023C143 4.44794 142.552 4.00023 142 4.00023H18Z" fill="white"/>
<path d="M35 14C35 13.4477 35.4477 13 36 13H63C63.5523 13 64 13.4477 64 14C64 14.5523 63.5523 15 63 15H36C35.4477 15 35 14.5523 35 14Z" fill="white"/>
<path d="M35 53C35 52.4477 35.4477 52 36 52H63C63.5523 52 64 52.4477 64 53C64 53.5523 63.5523 54 63 54H36C35.4477 54 35 53.5523 35 53Z" fill="white"/>
<path d="M35 27C35 26.4477 35.4477 26 36 26H63C63.5523 26 64 26.4477 64 27C64 27.5523 63.5523 28 63 28H36C35.4477 28 35 27.5523 35 27Z" fill="white"/>
<path d="M35 66C35 65.4477 35.4477 65 36 65H63C63.5523 65 64 65.4477 64 66C64 66.5523 63.5523 67 63 67H36C35.4477 67 35 66.5523 35 66Z" fill="white"/>
<path d="M35 40C35 39.4477 35.4477 39 36 39H63C63.5523 39 64 39.4477 64 40C64 40.5523 63.5523 41 63 41H36C35.4477 41 35 40.5523 35 40Z" fill="white"/>
<path d="M66 14C66 13.4477 66.4477 13 67 13H78C78.5523 13 79 13.4477 79 14C79 14.5523 78.5523 15 78 15H67C66.4477 15 66 14.5523 66 14Z" fill="white"/>
<path d="M66 53C66 52.4477 66.4477 52 67 52H78C78.5523 52 79 52.4477 79 53C79 53.5523 78.5523 54 78 54H67C66.4477 54 66 53.5523 66 53Z" fill="white"/>
<path d="M66 27C66 26.4477 66.4477 26 67 26H78C78.5523 26 79 26.4477 79 27C79 27.5523 78.5523 28 78 28H67C66.4477 28 66 27.5523 66 27Z" fill="white"/>
<path d="M66 66C66 65.4477 66.4477 65 67 65H78C78.5523 65 79 65.4477 79 66C79 66.5523 78.5523 67 78 67H67C66.4477 67 66 66.5523 66 66Z" fill="white"/>
<path d="M66 40C66 39.4477 66.4477 39 67 39H78C78.5523 39 79 39.4477 79 40C79 40.5523 78.5523 41 78 41H67C66.4477 41 66 40.5523 66 40Z" fill="white"/>
<path d="M81 14C81 13.4477 81.4477 13 82 13H120C120.552 13 121 13.4477 121 14C121 14.5523 120.552 15 120 15H82C81.4477 15 81 14.5523 81 14Z" fill="white"/>
<path d="M81 53C81 52.4477 81.4477 52 82 52H120C120.552 52 121 52.4477 121 53C121 53.5523 120.552 54 120 54H82C81.4477 54 81 53.5523 81 53Z" fill="white"/>
<path d="M81 27C81 26.4477 81.4477 26 82 26H120C120.552 26 121 26.4477 121 27C121 27.5523 120.552 28 120 28H82C81.4477 28 81 27.5523 81 27Z" fill="white"/>
<path d="M81 66C81 65.4477 81.4477 65 82 65H120C120.552 65 121 65.4477 121 66C121 66.5523 120.552 67 120 67H82C81.4477 67 81 66.5523 81 66Z" fill="white"/>
<path d="M81 40C81 39.4477 81.4477 39 82 39H120C120.552 39 121 39.4477 121 40C121 40.5523 120.552 41 120 41H82C81.4477 41 81 40.5523 81 40Z" fill="white"/>
<path d="M35 18C35 17.4477 35.4477 17 36 17H40C40.5523 17 41 17.4477 41 18C41 18.5523 40.5523 19 40 19H36C35.4477 19 35 18.5523 35 18Z" fill="white"/>
<path d="M35 57C35 56.4477 35.4477 56 36 56H40C40.5523 56 41 56.4477 41 57C41 57.5523 40.5523 58 40 58H36C35.4477 58 35 57.5523 35 57Z" fill="white"/>
<path d="M35 31C35 30.4477 35.4477 30 36 30H40C40.5523 30 41 30.4477 41 31C41 31.5523 40.5523 32 40 32H36C35.4477 32 35 31.5523 35 31Z" fill="white"/>
<path d="M35 70C35 69.4477 35.4477 69 36 69H40C40.5523 69 41 69.4477 41 70C41 70.5523 40.5523 71 40 71H36C35.4477 71 35 70.5523 35 70Z" fill="white"/>
<path d="M35 44C35 43.4477 35.4477 43 36 43H40C40.5523 43 41 43.4477 41 44C41 44.5523 40.5523 45 40 45H36C35.4477 45 35 44.5523 35 44Z" fill="white"/>
<path d="M43 18C43 17.4477 43.4477 17 44 17H49C49.5523 17 50 17.4477 50 18C50 18.5523 49.5523 19 49 19H44C43.4477 19 43 18.5523 43 18Z" fill="white"/>
<path d="M43 57C43 56.4477 43.4477 56 44 56H49C49.5523 56 50 56.4477 50 57C50 57.5523 49.5523 58 49 58H44C43.4477 58 43 57.5523 43 57Z" fill="white"/>
<path d="M43 31C43 30.4477 43.4477 30 44 30H49C49.5523 30 50 30.4477 50 31C50 31.5523 49.5523 32 49 32H44C43.4477 32 43 31.5523 43 31Z" fill="white"/>
<path d="M43 70C43 69.4477 43.4477 69 44 69H49C49.5523 69 50 69.4477 50 70C50 70.5523 49.5523 71 49 71H44C43.4477 71 43 70.5523 43 70Z" fill="white"/>
<path d="M43 44C43 43.4477 43.4477 43 44 43H49C49.5523 43 50 43.4477 50 44C50 44.5523 49.5523 45 49 45H44C43.4477 45 43 44.5523 43 44Z" fill="white"/>
<rect x="27.5" y="14.5" width="3" height="3" rx="0.5" stroke="white"/>
<rect x="27.5" y="53.5" width="3" height="3" rx="0.5" stroke="white"/>
<rect x="27.5" y="27.5" width="3" height="3" rx="0.5" stroke="white"/>
<rect x="27.5" y="66.5" width="3" height="3" rx="0.5" stroke="white"/>
<rect x="27.5" y="40.5" width="3" height="3" rx="0.5" stroke="white"/>
<path fill-rule="evenodd" clip-rule="evenodd" d="M130 11C129.65 11 129.315 11.1389 129.068 11.3861C128.821 11.6333 128.682 11.9686 128.682 12.3182V12.3864C128.682 12.4203 128.671 12.4534 128.653 12.4817C128.643 12.4965 128.631 12.5097 128.617 12.5208C128.59 12.5276 128.564 12.5368 128.538 12.5481C128.506 12.5622 128.471 12.5664 128.436 12.5602C128.402 12.554 128.371 12.5381 128.346 12.5144L128.325 12.4926C128.202 12.37 128.057 12.2728 127.897 12.2065C127.737 12.1401 127.565 12.106 127.392 12.106C127.219 12.106 127.047 12.1401 126.887 12.2065C126.727 12.2728 126.582 12.3699 126.46 12.4924C126.337 12.6148 126.24 12.7601 126.174 12.9201C126.107 13.0801 126.073 13.2516 126.073 13.4249C126.073 13.5981 126.107 13.7696 126.174 13.9297C126.24 14.0897 126.337 14.2351 126.46 14.3575L126.482 14.3793C126.505 14.4041 126.521 14.4353 126.527 14.4691C126.534 14.5035 126.529 14.539 126.515 14.571C126.511 14.5806 126.507 14.5904 126.503 14.6003C126.491 14.6332 126.47 14.6618 126.441 14.6822C126.414 14.7019 126.381 14.7131 126.347 14.7147H126.318C125.969 14.7147 125.633 14.8536 125.386 15.1008C125.139 15.348 125 15.6833 125 16.0329C125 16.3825 125.139 16.7178 125.386 16.9651C125.633 17.2123 125.969 17.3512 126.318 17.3512H126.386C126.42 17.3514 126.453 17.3615 126.482 17.3803C126.51 17.3991 126.532 17.4259 126.546 17.4572L126.548 17.4621C126.562 17.4941 126.566 17.5296 126.56 17.564C126.554 17.5978 126.538 17.6291 126.514 17.6538L126.492 17.6758C126.37 17.7982 126.273 17.9435 126.206 18.1035C126.14 18.2635 126.106 18.435 126.106 18.6083C126.106 18.7815 126.14 18.953 126.206 19.1131C126.273 19.2729 126.37 19.4182 126.492 19.5405C126.615 19.6631 126.76 19.7603 126.92 19.8267C127.08 19.893 127.252 19.9271 127.425 19.9271C127.598 19.9271 127.77 19.893 127.93 19.8267C128.089 19.7604 128.235 19.663 128.357 19.5405L128.379 19.5188C128.404 19.495 128.435 19.4791 128.469 19.473C128.503 19.4667 128.539 19.4709 128.571 19.485C128.58 19.4893 128.59 19.4932 128.6 19.4969C128.633 19.509 128.662 19.5308 128.682 19.5593C128.702 19.5868 128.713 19.6194 128.715 19.6531V19.6822C128.715 20.0318 128.853 20.3671 129.101 20.6143C129.34 20.8538 129.662 20.9916 130 21C130.338 20.9916 130.66 20.8538 130.899 20.6143C131.147 20.3671 131.285 20.0318 131.285 19.6822V19.6531C131.287 19.6194 131.298 19.5868 131.318 19.5593C131.338 19.5308 131.367 19.509 131.4 19.4969C131.41 19.4932 131.42 19.4893 131.429 19.485C131.461 19.4709 131.497 19.4667 131.531 19.473C131.565 19.4791 131.596 19.495 131.621 19.5188L131.643 19.5405C131.765 19.663 131.911 19.7604 132.07 19.8267C132.23 19.893 132.402 19.9271 132.575 19.9271C132.748 19.9271 132.92 19.893 133.08 19.8267C133.24 19.7603 133.385 19.6631 133.508 19.5405C133.63 19.4182 133.727 19.2729 133.794 19.1131C133.86 18.953 133.894 18.7815 133.894 18.6083C133.894 18.435 133.86 18.2635 133.794 18.1035C133.727 17.9435 133.63 17.7982 133.508 17.6758L133.486 17.6538C133.462 17.6291 133.446 17.5978 133.44 17.564C133.434 17.5296 133.438 17.4941 133.452 17.4621L133.454 17.4572C133.468 17.4259 133.49 17.3991 133.518 17.3803C133.547 17.3615 133.58 17.3514 133.614 17.3512H133.682C134.031 17.3512 134.367 17.2123 134.614 16.9651C134.861 16.7178 135 16.3825 135 16.0329C135 15.6833 134.861 15.348 134.614 15.1008C134.367 14.8536 134.031 14.7147 133.682 14.7147H133.653C133.619 14.7131 133.586 14.7019 133.559 14.6822C133.53 14.6618 133.509 14.6332 133.497 14.6003C133.493 14.5904 133.489 14.5806 133.485 14.571C133.471 14.539 133.466 14.5035 133.473 14.4691C133.479 14.4353 133.495 14.4041 133.518 14.3793L133.54 14.3575C133.663 14.2351 133.76 14.0897 133.826 13.9297C133.893 13.7696 133.927 13.5981 133.927 13.4249C133.927 13.2516 133.893 13.0801 133.826 12.9201C133.76 12.7601 133.663 12.6148 133.54 12.4924C133.418 12.3699 133.273 12.2728 133.113 12.2065C132.953 12.1401 132.781 12.106 132.608 12.106C132.435 12.106 132.263 12.1401 132.103 12.2065C131.943 12.2728 131.798 12.37 131.675 12.4926L131.654 12.5144C131.629 12.5381 131.598 12.554 131.564 12.5602C131.529 12.5664 131.494 12.5622 131.462 12.5481C131.436 12.5368 131.41 12.5276 131.383 12.5208C131.369 12.5097 131.357 12.4965 131.347 12.4817C131.329 12.4534 131.318 12.4203 131.318 12.3864V12.3182C131.318 11.9686 131.179 11.6333 130.932 11.3861C130.685 11.1389 130.35 11 130 11ZM130.192 19.9072C130.14 19.9591 130.072 19.9912 130 19.9987C129.928 19.9912 129.86 19.9591 129.808 19.9072C129.748 19.8475 129.715 19.7666 129.715 19.6822V19.6454L129.714 19.6337C129.709 19.3979 129.633 19.1693 129.495 18.9776C129.361 18.7901 129.175 18.6463 128.96 18.5639C128.749 18.4741 128.516 18.448 128.291 18.489C128.06 18.5308 127.846 18.641 127.679 18.8051L127.65 18.8338C127.62 18.8634 127.585 18.8868 127.547 18.9028C127.508 18.9189 127.467 18.9271 127.425 18.9271C127.383 18.9271 127.342 18.9189 127.303 18.9028C127.264 18.8868 127.229 18.8634 127.2 18.8338C127.17 18.8042 127.146 18.7687 127.13 18.7301C127.114 18.6915 127.106 18.6501 127.106 18.6083C127.106 18.5664 127.114 18.525 127.13 18.4864C127.146 18.4478 127.17 18.4125 127.199 18.3829L127.224 18.3584L127.228 18.3545C127.392 18.1866 127.502 17.9735 127.544 17.7424C127.586 17.5123 127.558 17.275 127.464 17.0608C127.374 16.8513 127.224 16.6725 127.034 16.5465C126.843 16.4199 126.619 16.352 126.39 16.3511H126.318C126.234 16.3511 126.153 16.3176 126.093 16.2579C126.034 16.1983 126 16.1173 126 16.0329C126 15.9485 126.034 15.8676 126.093 15.8079C126.153 15.7483 126.234 15.7147 126.318 15.7147H126.355L126.367 15.7146C126.602 15.7091 126.831 15.6328 127.023 15.4956C127.21 15.3615 127.354 15.1753 127.436 14.9603C127.526 14.7493 127.552 14.5165 127.511 14.2907C127.469 14.0597 127.359 13.8465 127.195 13.6786L127.167 13.65C127.137 13.6204 127.113 13.5853 127.097 13.5467C127.081 13.5081 127.073 13.4667 127.073 13.4249C127.073 13.3831 127.081 13.3417 127.097 13.303C127.113 13.2644 127.137 13.2293 127.167 13.1997C127.196 13.1702 127.232 13.1463 127.27 13.1303C127.309 13.1143 127.35 13.106 127.392 13.106C127.434 13.106 127.475 13.1143 127.514 13.1303C127.553 13.1463 127.588 13.17 127.617 13.1996L127.642 13.2241L127.646 13.228C127.814 13.3922 128.027 13.5023 128.258 13.5442C128.455 13.58 128.658 13.5645 128.847 13.5C128.889 13.4937 128.93 13.482 128.97 13.4651C129.18 13.3749 129.36 13.225 129.486 13.0339C129.613 12.8428 129.681 12.6189 129.682 12.3898V12.3182C129.682 12.2338 129.715 12.1529 129.775 12.0932C129.835 12.0336 129.916 12 130 12C130.084 12 130.165 12.0336 130.225 12.0932C130.285 12.1529 130.318 12.2338 130.318 12.3182V12.3898C130.319 12.6189 130.387 12.8428 130.514 13.0339C130.64 13.225 130.82 13.3749 131.03 13.4651C131.07 13.482 131.111 13.4937 131.153 13.5C131.342 13.5645 131.545 13.58 131.742 13.5442C131.973 13.5023 132.186 13.3922 132.354 13.228L132.358 13.2241L132.383 13.1996C132.412 13.17 132.447 13.1463 132.486 13.1303C132.525 13.1143 132.566 13.106 132.608 13.106C132.65 13.106 132.691 13.1143 132.73 13.1303C132.768 13.1463 132.804 13.1698 132.833 13.1994C132.863 13.2289 132.887 13.2644 132.903 13.303C132.919 13.3417 132.927 13.3831 132.927 13.4249C132.927 13.4667 132.919 13.5081 132.903 13.5467C132.887 13.5853 132.863 13.6204 132.833 13.65L132.805 13.6786C132.641 13.8465 132.531 14.0597 132.489 14.2907C132.448 14.5165 132.474 14.7493 132.564 14.9603C132.646 15.1753 132.79 15.3615 132.977 15.4956C133.169 15.6328 133.398 15.7091 133.633 15.7146L133.645 15.7147H133.682C133.766 15.7147 133.847 15.7483 133.907 15.8079C133.966 15.8676 134 15.9485 134 16.0329C134 16.1173 133.966 16.1983 133.907 16.2579C133.847 16.3176 133.766 16.3511 133.682 16.3511H133.61C133.381 16.352 133.157 16.4199 132.966 16.5465C132.776 16.6725 132.626 16.8513 132.536 17.0608C132.442 17.275 132.414 17.5123 132.456 17.7424C132.498 17.9735 132.608 18.1866 132.772 18.3545L132.776 18.3584L132.801 18.3829C132.83 18.4125 132.854 18.4478 132.87 18.4864C132.886 18.525 132.894 18.5664 132.894 18.6083C132.894 18.6501 132.886 18.6915 132.87 18.7301C132.854 18.7687 132.83 18.8038 132.801 18.8334C132.771 18.863 132.736 18.8868 132.697 18.9028C132.658 18.9189 132.617 18.9271 132.575 18.9271C132.533 18.9271 132.492 18.9189 132.453 18.9028C132.415 18.8868 132.38 18.8634 132.35 18.8338L132.321 18.8051C132.154 18.641 131.94 18.5308 131.709 18.489C131.484 18.448 131.251 18.4741 131.04 18.5639C130.825 18.6463 130.639 18.7901 130.505 18.9776C130.367 19.1693 130.291 19.3979 130.286 19.6337L130.285 19.6454V19.6822C130.285 19.7666 130.252 19.8475 130.192 19.9072ZM129.5 16.0002C129.5 15.724 129.724 15.5002 130 15.5002C130.276 15.5002 130.5 15.724 130.5 16.0002C130.5 16.2764 130.276 16.5002 130 16.5002C129.724 16.5002 129.5 16.2764 129.5 16.0002ZM130 14.5001C129.172 14.5001 128.5 15.1717 128.5 16.0002C128.5 16.8287 129.172 17.5003 130 17.5003C130.828 17.5003 131.5 16.8287 131.5 16.0002C131.5 15.1717 130.828 14.5001 130 14.5001Z" fill="white"/>
<path fill-rule="evenodd" clip-rule="evenodd" d="M130 24C129.65 24 129.315 24.1389 129.068 24.3861C128.821 24.6333 128.682 24.9686 128.682 25.3182V25.3864C128.682 25.4203 128.671 25.4534 128.653 25.4817C128.643 25.4965 128.631 25.5097 128.617 25.5208C128.59 25.5276 128.564 25.5368 128.538 25.5481C128.506 25.5622 128.471 25.5664 128.436 25.5602C128.402 25.554 128.371 25.5381 128.346 25.5144L128.325 25.4926C128.202 25.37 128.057 25.2728 127.897 25.2065C127.737 25.1401 127.565 25.106 127.392 25.106C127.219 25.106 127.047 25.1401 126.887 25.2065C126.727 25.2728 126.582 25.3699 126.46 25.4924C126.337 25.6148 126.24 25.7601 126.174 25.9201C126.107 26.0801 126.073 26.2516 126.073 26.4249C126.073 26.5981 126.107 26.7696 126.174 26.9297C126.24 27.0897 126.337 27.2351 126.46 27.3575L126.482 27.3793C126.505 27.4041 126.521 27.4353 126.527 27.4691C126.534 27.5035 126.529 27.539 126.515 27.571C126.511 27.5806 126.507 27.5904 126.503 27.6003C126.491 27.6332 126.47 27.6618 126.441 27.6822C126.414 27.7019 126.381 27.7131 126.347 27.7147H126.318C125.969 27.7147 125.633 27.8536 125.386 28.1008C125.139 28.348 125 28.6833 125 29.0329C125 29.3825 125.139 29.7178 125.386 29.9651C125.633 30.2123 125.969 30.3512 126.318 30.3512H126.386C126.42 30.3514 126.453 30.3615 126.482 30.3803C126.51 30.3991 126.532 30.4259 126.546 30.4572L126.548 30.4621C126.562 30.4941 126.566 30.5296 126.56 30.564C126.554 30.5978 126.538 30.6291 126.514 30.6538L126.492 30.6758C126.37 30.7982 126.273 30.9435 126.206 31.1035C126.14 31.2635 126.106 31.435 126.106 31.6083C126.106 31.7815 126.14 31.953 126.206 32.1131C126.273 32.2729 126.37 32.4182 126.492 32.5405C126.615 32.6631 126.76 32.7603 126.92 32.8267C127.08 32.893 127.252 32.9271 127.425 32.9271C127.598 32.9271 127.77 32.893 127.93 32.8267C128.089 32.7604 128.235 32.663 128.357 32.5405L128.379 32.5188C128.404 32.495 128.435 32.4791 128.469 32.473C128.503 32.4667 128.539 32.4709 128.571 32.485C128.58 32.4893 128.59 32.4932 128.6 32.4969C128.633 32.509 128.662 32.5308 128.682 32.5593C128.702 32.5868 128.713 32.6194 128.715 32.6531V32.6822C128.715 33.0318 128.853 33.3671 129.101 33.6143C129.34 33.8538 129.662 33.9916 130 34C130.338 33.9916 130.66 33.8538 130.899 33.6143C131.147 33.3671 131.285 33.0318 131.285 32.6822V32.6531C131.287 32.6194 131.298 32.5868 131.318 32.5593C131.338 32.5308 131.367 32.509 131.4 32.4969C131.41 32.4932 131.42 32.4893 131.429 32.485C131.461 32.4709 131.497 32.4667 131.531 32.473C131.565 32.4791 131.596 32.495 131.621 32.5188L131.643 32.5405C131.765 32.663 131.911 32.7604 132.07 32.8267C132.23 32.893 132.402 32.9271 132.575 32.9271C132.748 32.9271 132.92 32.893 133.08 32.8267C133.24 32.7603 133.385 32.6631 133.508 32.5405C133.63 32.4182 133.727 32.2729 133.794 32.1131C133.86 31.953 133.894 31.7815 133.894 31.6083C133.894 31.435 133.86 31.2635 133.794 31.1035C133.727 30.9435 133.63 30.7982 133.508 30.6758L133.486 30.6538C133.462 30.6291 133.446 30.5978 133.44 30.564C133.434 30.5296 133.438 30.4941 133.452 30.4621L133.454 30.4572C133.468 30.4259 133.49 30.3991 133.518 30.3803C133.547 30.3615 133.58 30.3514 133.614 30.3512H133.682C134.031 30.3512 134.367 30.2123 134.614 29.9651C134.861 29.7178 135 29.3825 135 29.0329C135 28.6833 134.861 28.348 134.614 28.1008C134.367 27.8536 134.031 27.7147 133.682 27.7147H133.653C133.619 27.7131 133.586 27.7019 133.559 27.6822C133.53 27.6618 133.509 27.6332 133.497 27.6003C133.493 27.5904 133.489 27.5806 133.485 27.571C133.471 27.539 133.466 27.5035 133.473 27.4691C133.479 27.4353 133.495 27.4041 133.518 27.3793L133.54 27.3575C133.663 27.2351 133.76 27.0897 133.826 26.9297C133.893 26.7696 133.927 26.5981 133.927 26.4249C133.927 26.2516 133.893 26.0801 133.826 25.9201C133.76 25.7601 133.663 25.6148 133.54 25.4924C133.418 25.3699 133.273 25.2728 133.113 25.2065C132.953 25.1401 132.781 25.106 132.608 25.106C132.435 25.106 132.263 25.1401 132.103 25.2065C131.943 25.2728 131.798 25.37 131.675 25.4926L131.654 25.5144C131.629 25.5381 131.598 25.554 131.564 25.5602C131.529 25.5664 131.494 25.5622 131.462 25.5481C131.436 25.5368 131.41 25.5276 131.383 25.5208C131.369 25.5097 131.357 25.4965 131.347 25.4817C131.329 25.4534 131.318 25.4203 131.318 25.3864V25.3182C131.318 24.9686 131.179 24.6333 130.932 24.3861C130.685 24.1389 130.35 24 130 24ZM130.192 32.9072C130.14 32.9591 130.072 32.9912 130 32.9987C129.928 32.9912 129.86 32.9591 129.808 32.9072C129.748 32.8475 129.715 32.7666 129.715 32.6822V32.6454L129.714 32.6337C129.709 32.3979 129.633 32.1693 129.495 31.9776C129.361 31.7901 129.175 31.6463 128.96 31.5639C128.749 31.4741 128.516 31.448 128.291 31.489C128.06 31.5308 127.846 31.641 127.679 31.8051L127.65 31.8338C127.62 31.8634 127.585 31.8868 127.547 31.9028C127.508 31.9189 127.467 31.9271 127.425 31.9271C127.383 31.9271 127.342 31.9189 127.303 31.9028C127.264 31.8868 127.229 31.8634 127.2 31.8338L127.199 31.8334C127.17 31.8038 127.146 31.7687 127.13 31.7301C127.114 31.6915 127.106 31.6501 127.106 31.6083C127.106 31.5664 127.114 31.525 127.13 31.4864C127.146 31.4478 127.17 31.4125 127.199 31.3829L127.224 31.3584L127.228 31.3545C127.392 31.1866 127.502 30.9735 127.544 30.7424C127.586 30.5123 127.558 30.275 127.464 30.0608C127.374 29.8513 127.224 29.6725 127.034 29.5465C126.843 29.4199 126.619 29.352 126.39 29.3511H126.318C126.234 29.3511 126.153 29.3176 126.093 29.2579C126.034 29.1983 126 29.1173 126 29.0329C126 28.9485 126.034 28.8676 126.093 28.8079C126.153 28.7483 126.234 28.7147 126.318 28.7147H126.355L126.367 28.7146C126.602 28.7091 126.831 28.6328 127.023 28.4956C127.21 28.3615 127.354 28.1753 127.436 27.9603C127.526 27.7493 127.552 27.5165 127.511 27.2907C127.469 27.0597 127.359 26.8465 127.195 26.6786L127.167 26.65C127.137 26.6204 127.113 26.5853 127.097 26.5467C127.081 26.5081 127.073 26.4667 127.073 26.4249C127.073 26.3831 127.081 26.3416 127.097 26.303C127.113 26.2644 127.137 26.2293 127.167 26.1997L127.167 26.1994C127.196 26.1698 127.232 26.1463 127.27 26.1303C127.309 26.1143 127.35 26.106 127.392 26.106C127.434 26.106 127.475 26.1143 127.514 26.1303C127.553 26.1463 127.588 26.17 127.617 26.1996L127.642 26.2241L127.646 26.228C127.814 26.3922 128.027 26.5023 128.258 26.5442C128.455 26.58 128.658 26.5645 128.847 26.5C128.889 26.4937 128.93 26.482 128.97 26.4651C129.18 26.3749 129.36 26.225 129.486 26.0339C129.613 25.8428 129.681 25.6189 129.682 25.3898V25.3182C129.682 25.2338 129.715 25.1529 129.775 25.0932C129.835 25.0336 129.916 25 130 25C130.084 25 130.165 25.0336 130.225 25.0932C130.285 25.1529 130.318 25.2338 130.318 25.3182V25.3898C130.319 25.6189 130.387 25.8428 130.514 26.0339C130.64 26.225 130.82 26.3749 131.03 26.4651C131.07 26.482 131.111 26.4937 131.153 26.5C131.342 26.5645 131.545 26.58 131.742 26.5442C131.973 26.5023 132.186 26.3922 132.354 26.228L132.358 26.2241L132.383 26.1996C132.412 26.17 132.447 26.1463 132.486 26.1303C132.525 26.1143 132.566 26.106 132.608 26.106C132.65 26.106 132.691 26.1143 132.73 26.1303C132.768 26.1463 132.804 26.1698 132.833 26.1994L132.833 26.1997C132.863 26.2293 132.887 26.2644 132.903 26.303C132.919 26.3416 132.927 26.3831 132.927 26.4249C132.927 26.4667 132.919 26.5081 132.903 26.5467C132.887 26.5853 132.863 26.6204 132.833 26.65L132.805 26.6786C132.641 26.8465 132.531 27.0597 132.489 27.2907C132.448 27.5165 132.474 27.7493 132.564 27.9603C132.646 28.1753 132.79 28.3615 132.977 28.4956C133.169 28.6328 133.398 28.7091 133.633 28.7146L133.645 28.7147H133.682C133.766 28.7147 133.847 28.7483 133.907 28.8079C133.966 28.8676 134 28.9485 134 29.0329C134 29.1173 133.966 29.1983 133.907 29.2579C133.847 29.3176 133.766 29.3511 133.682 29.3511H133.61C133.381 29.352 133.157 29.4199 132.966 29.5465C132.776 29.6725 132.626 29.8513 132.536 30.0608C132.442 30.275 132.414 30.5123 132.456 30.7424C132.498 30.9735 132.608 31.1866 132.772 31.3545L132.776 31.3584L132.801 31.3829C132.83 31.4125 132.854 31.4478 132.87 31.4864C132.886 31.525 132.894 31.5664 132.894 31.6083C132.894 31.6501 132.886 31.6915 132.87 31.7301C132.854 31.7687 132.83 31.8038 132.801 31.8334L132.8 31.8338C132.771 31.8634 132.736 31.8868 132.697 31.9028C132.658 31.9189 132.617 31.9271 132.575 31.9271C132.533 31.9271 132.492 31.9189 132.453 31.9028C132.415 31.8868 132.38 31.8634 132.35 31.8338L132.321 31.8051C132.154 31.641 131.94 31.5308 131.709 31.489C131.484 31.448 131.251 31.4741 131.04 31.5639C130.825 31.6463 130.639 31.7901 130.505 31.9776C130.367 32.1693 130.291 32.3979 130.286 32.6337L130.285 32.6454V32.6822C130.285 32.7666 130.252 32.8475 130.192 32.9072ZM129.5 29.0002C129.5 28.724 129.724 28.5002 130 28.5002C130.276 28.5002 130.5 28.724 130.5 29.0002C130.5 29.2764 130.276 29.5002 130 29.5002C129.724 29.5002 129.5 29.2764 129.5 29.0002ZM130 27.5001C129.172 27.5001 128.5 28.1717 128.5 29.0002C128.5 29.8287 129.172 30.5003 130 30.5003C130.828 30.5003 131.5 29.8287 131.5 29.0002C131.5 28.1717 130.828 27.5001 130 27.5001Z" fill="white"/>
<path fill-rule="evenodd" clip-rule="evenodd" d="M130 37C129.65 37 129.315 37.1389 129.068 37.3861C128.821 37.6333 128.682 37.9686 128.682 38.3182V38.3864C128.682 38.4203 128.671 38.4534 128.653 38.4817C128.643 38.4965 128.631 38.5097 128.617 38.5208C128.59 38.5276 128.564 38.5368 128.538 38.5481C128.506 38.5622 128.471 38.5664 128.436 38.5602C128.402 38.554 128.371 38.5381 128.346 38.5144L128.325 38.4926C128.202 38.37 128.057 38.2728 127.897 38.2065C127.737 38.1401 127.565 38.106 127.392 38.106C127.219 38.106 127.047 38.1401 126.887 38.2065C126.727 38.2728 126.582 38.3699 126.46 38.4924C126.337 38.6148 126.24 38.7601 126.174 38.9201C126.107 39.0801 126.073 39.2516 126.073 39.4249C126.073 39.5981 126.107 39.7696 126.174 39.9297C126.24 40.0897 126.337 40.2351 126.46 40.3575L126.482 40.3793C126.505 40.4041 126.521 40.4353 126.527 40.4691C126.534 40.5035 126.529 40.539 126.515 40.571C126.511 40.5806 126.507 40.5904 126.503 40.6003C126.491 40.6332 126.47 40.6618 126.441 40.6822C126.414 40.7019 126.381 40.7131 126.347 40.7147H126.318C125.969 40.7147 125.633 40.8536 125.386 41.1008C125.139 41.348 125 41.6833 125 42.0329C125 42.3825 125.139 42.7178 125.386 42.9651C125.633 43.2123 125.969 43.3512 126.318 43.3512H126.386C126.42 43.3514 126.453 43.3615 126.482 43.3803C126.51 43.3991 126.532 43.4259 126.546 43.4572L126.548 43.4621C126.562 43.4941 126.566 43.5296 126.56 43.564C126.554 43.5978 126.538 43.6291 126.514 43.6538L126.492 43.6758C126.37 43.7982 126.273 43.9435 126.206 44.1035C126.14 44.2635 126.106 44.435 126.106 44.6083C126.106 44.7815 126.14 44.953 126.206 45.1131C126.273 45.2729 126.37 45.4182 126.492 45.5405C126.615 45.6631 126.76 45.7603 126.92 45.8267C127.08 45.893 127.252 45.9271 127.425 45.9271C127.598 45.9271 127.77 45.893 127.93 45.8267C128.089 45.7604 128.235 45.663 128.357 45.5405L128.379 45.5188C128.404 45.495 128.435 45.4791 128.469 45.473C128.503 45.4667 128.539 45.4709 128.571 45.485C128.58 45.4893 128.59 45.4932 128.6 45.4969C128.633 45.509 128.662 45.5308 128.682 45.5593C128.702 45.5868 128.713 45.6194 128.715 45.6531V45.6822C128.715 46.0318 128.853 46.3671 129.101 46.6143C129.34 46.8538 129.662 46.9916 130 47C130.338 46.9916 130.66 46.8538 130.899 46.6143C131.147 46.3671 131.285 46.0318 131.285 45.6822V45.6531C131.287 45.6194 131.298 45.5868 131.318 45.5593C131.338 45.5308 131.367 45.509 131.4 45.4969C131.41 45.4932 131.42 45.4893 131.429 45.485C131.461 45.4709 131.497 45.4667 131.531 45.473C131.565 45.4791 131.596 45.495 131.621 45.5188L131.643 45.5405C131.765 45.663 131.911 45.7604 132.07 45.8267C132.23 45.893 132.402 45.9271 132.575 45.9271C132.748 45.9271 132.92 45.893 133.08 45.8267C133.24 45.7603 133.385 45.6631 133.508 45.5405C133.63 45.4182 133.727 45.2729 133.794 45.1131C133.86 44.953 133.894 44.7815 133.894 44.6083C133.894 44.435 133.86 44.2635 133.794 44.1035C133.727 43.9435 133.63 43.7982 133.508 43.6758L133.486 43.6538C133.462 43.6291 133.446 43.5978 133.44 43.564C133.434 43.5296 133.438 43.4941 133.452 43.4621L133.454 43.4572C133.468 43.4259 133.49 43.3991 133.518 43.3803C133.547 43.3615 133.58 43.3514 133.614 43.3512H133.682C134.031 43.3512 134.367 43.2123 134.614 42.9651C134.861 42.7178 135 42.3825 135 42.0329C135 41.6833 134.861 41.348 134.614 41.1008C134.367 40.8536 134.031 40.7147 133.682 40.7147H133.653C133.619 40.7131 133.586 40.7019 133.559 40.6822C133.53 40.6618 133.509 40.6332 133.497 40.6003C133.493 40.5904 133.489 40.5806 133.485 40.571C133.471 40.539 133.466 40.5035 133.473 40.4691C133.479 40.4353 133.495 40.4041 133.518 40.3793L133.54 40.3575C133.663 40.2351 133.76 40.0897 133.826 39.9297C133.893 39.7696 133.927 39.5981 133.927 39.4249C133.927 39.2516 133.893 39.0801 133.826 38.9201C133.76 38.7601 133.663 38.6148 133.54 38.4924C133.418 38.3699 133.273 38.2728 133.113 38.2065C132.953 38.1401 132.781 38.106 132.608 38.106C132.435 38.106 132.263 38.1401 132.103 38.2065C131.943 38.2728 131.798 38.37 131.675 38.4926L131.654 38.5144C131.629 38.5381 131.598 38.554 131.564 38.5602C131.529 38.5664 131.494 38.5622 131.462 38.5481C131.436 38.5368 131.41 38.5276 131.383 38.5208C131.369 38.5097 131.357 38.4965 131.347 38.4817C131.329 38.4534 131.318 38.4203 131.318 38.3864V38.3182C131.318 37.9686 131.179 37.6333 130.932 37.3861C130.685 37.1389 130.35 37 130 37ZM130.192 45.9072C130.14 45.9591 130.072 45.9912 130 45.9987C129.928 45.9912 129.86 45.9591 129.808 45.9072C129.748 45.8475 129.715 45.7666 129.715 45.6822V45.6454L129.714 45.6337C129.709 45.3979 129.633 45.1693 129.495 44.9776C129.361 44.7901 129.175 44.6463 128.96 44.5639C128.749 44.4741 128.516 44.448 128.291 44.489C128.06 44.5308 127.846 44.641 127.679 44.8051L127.65 44.8338C127.62 44.8634 127.585 44.8868 127.547 44.9028C127.508 44.9189 127.467 44.9271 127.425 44.9271C127.383 44.9271 127.342 44.9189 127.303 44.9028C127.264 44.8868 127.229 44.8634 127.2 44.8338L127.199 44.8334C127.17 44.8038 127.146 44.7687 127.13 44.7301C127.114 44.6915 127.106 44.6501 127.106 44.6083C127.106 44.5664 127.114 44.525 127.13 44.4864C127.146 44.4478 127.17 44.4125 127.199 44.3829L127.224 44.3584L127.228 44.3545C127.392 44.1866 127.502 43.9735 127.544 43.7424C127.586 43.5123 127.558 43.275 127.464 43.0608C127.374 42.8513 127.224 42.6725 127.034 42.5465C126.843 42.4199 126.619 42.352 126.39 42.3511H126.318C126.234 42.3511 126.153 42.3176 126.093 42.2579C126.034 42.1983 126 42.1173 126 42.0329C126 41.9485 126.034 41.8676 126.093 41.8079C126.153 41.7483 126.234 41.7147 126.318 41.7147H126.355L126.367 41.7146C126.602 41.7091 126.831 41.6328 127.023 41.4956C127.21 41.3615 127.354 41.1753 127.436 40.9603C127.526 40.7493 127.552 40.5165 127.511 40.2907C127.469 40.0597 127.359 39.8465 127.195 39.6786L127.167 39.65C127.137 39.6204 127.113 39.5853 127.097 39.5467C127.081 39.5081 127.073 39.4667 127.073 39.4249C127.073 39.3831 127.081 39.3416 127.097 39.303C127.113 39.2644 127.137 39.2293 127.167 39.1997L127.167 39.1994C127.196 39.1698 127.232 39.1463 127.27 39.1303C127.309 39.1143 127.35 39.106 127.392 39.106C127.434 39.106 127.475 39.1143 127.514 39.1303C127.553 39.1463 127.588 39.17 127.617 39.1996L127.642 39.2241L127.646 39.228C127.814 39.3922 128.027 39.5023 128.258 39.5442C128.455 39.58 128.658 39.5645 128.847 39.5C128.889 39.4937 128.93 39.482 128.97 39.4651C129.18 39.3749 129.36 39.225 129.486 39.0339C129.613 38.8428 129.681 38.6189 129.682 38.3898V38.3182C129.682 38.2338 129.715 38.1529 129.775 38.0932C129.835 38.0336 129.916 38 130 38C130.084 38 130.165 38.0336 130.225 38.0932C130.285 38.1529 130.318 38.2338 130.318 38.3182V38.3898C130.319 38.6189 130.387 38.8428 130.514 39.0339C130.64 39.225 130.82 39.3749 131.03 39.4651C131.07 39.482 131.111 39.4937 131.153 39.5C131.342 39.5645 131.545 39.58 131.742 39.5442C131.973 39.5023 132.186 39.3922 132.354 39.228L132.358 39.2241L132.383 39.1996C132.412 39.17 132.447 39.1463 132.486 39.1303C132.525 39.1143 132.566 39.106 132.608 39.106C132.65 39.106 132.691 39.1143 132.73 39.1303C132.768 39.1463 132.804 39.1698 132.833 39.1994L132.833 39.1997C132.863 39.2293 132.887 39.2644 132.903 39.303C132.919 39.3416 132.927 39.3831 132.927 39.4249C132.927 39.4667 132.919 39.5081 132.903 39.5467C132.887 39.5853 132.863 39.6204 132.833 39.65L132.805 39.6786C132.641 39.8465 132.531 40.0597 132.489 40.2907C132.448 40.5165 132.474 40.7493 132.564 40.9603C132.646 41.1753 132.79 41.3615 132.977 41.4956C133.169 41.6328 133.398 41.7091 133.633 41.7146L133.645 41.7147H133.682C133.766 41.7147 133.847 41.7483 133.907 41.8079C133.966 41.8676 134 41.9485 134 42.0329C134 42.1173 133.966 42.1983 133.907 42.2579C133.847 42.3176 133.766 42.3511 133.682 42.3511H133.61C133.381 42.352 133.157 42.4199 132.966 42.5465C132.776 42.6725 132.626 42.8513 132.536 43.0608C132.442 43.275 132.414 43.5123 132.456 43.7424C132.498 43.9735 132.608 44.1866 132.772 44.3545L132.776 44.3584L132.801 44.3829C132.83 44.4125 132.854 44.4478 132.87 44.4864C132.886 44.525 132.894 44.5664 132.894 44.6083C132.894 44.6501 132.886 44.6915 132.87 44.7301C132.854 44.7687 132.83 44.8038 132.801 44.8334L132.8 44.8338C132.771 44.8634 132.736 44.8868 132.697 44.9028C132.658 44.9189 132.617 44.9271 132.575 44.9271C132.533 44.9271 132.492 44.9189 132.453 44.9028C132.415 44.8868 132.38 44.8634 132.35 44.8338L132.321 44.8051C132.154 44.641 131.94 44.5308 131.709 44.489C131.484 44.448 131.251 44.4741 131.04 44.5639C130.825 44.6463 130.639 44.7901 130.505 44.9776C130.367 45.1693 130.291 45.3979 130.286 45.6337L130.285 45.6454V45.6822C130.285 45.7666 130.252 45.8475 130.192 45.9072ZM129.5 42.0002C129.5 41.724 129.724 41.5002 130 41.5002C130.276 41.5002 130.5 41.724 130.5 42.0002C130.5 42.2764 130.276 42.5002 130 42.5002C129.724 42.5002 129.5 42.2764 129.5 42.0002ZM130 40.5001C129.172 40.5001 128.5 41.1717 128.5 42.0002C128.5 42.8287 129.172 43.5003 130 43.5003C130.828 43.5003 131.5 42.8287 131.5 42.0002C131.5 41.1717 130.828 40.5001 130 40.5001Z" fill="white"/>
<path fill-rule="evenodd" clip-rule="evenodd" d="M130 50C129.65 50 129.315 50.1389 129.068 50.3861C128.821 50.6333 128.682 50.9686 128.682 51.3182V51.3864C128.682 51.4203 128.671 51.4534 128.653 51.4817C128.643 51.4965 128.631 51.5097 128.617 51.5208C128.59 51.5276 128.564 51.5368 128.538 51.5481C128.506 51.5622 128.471 51.5664 128.436 51.5602C128.402 51.554 128.371 51.5381 128.346 51.5144L128.325 51.4926C128.202 51.37 128.057 51.2728 127.897 51.2065C127.737 51.1401 127.565 51.106 127.392 51.106C127.219 51.106 127.047 51.1401 126.887 51.2065C126.727 51.2728 126.582 51.3699 126.46 51.4924C126.337 51.6148 126.24 51.7601 126.174 51.9201C126.107 52.0801 126.073 52.2516 126.073 52.4249C126.073 52.5981 126.107 52.7696 126.174 52.9297C126.24 53.0897 126.337 53.2351 126.46 53.3575L126.482 53.3793C126.505 53.4041 126.521 53.4353 126.527 53.4691C126.534 53.5035 126.529 53.539 126.515 53.571C126.511 53.5806 126.507 53.5904 126.503 53.6003C126.491 53.6332 126.47 53.6618 126.441 53.6822C126.414 53.7019 126.381 53.7131 126.347 53.7147H126.318C125.969 53.7147 125.633 53.8536 125.386 54.1008C125.139 54.348 125 54.6833 125 55.0329C125 55.3825 125.139 55.7178 125.386 55.9651C125.633 56.2123 125.969 56.3512 126.318 56.3512H126.386C126.42 56.3514 126.453 56.3615 126.482 56.3803C126.51 56.3991 126.532 56.4259 126.546 56.4572L126.548 56.4621C126.562 56.4941 126.566 56.5296 126.56 56.564C126.554 56.5978 126.538 56.6291 126.514 56.6538L126.492 56.6758C126.37 56.7982 126.273 56.9435 126.206 57.1035C126.14 57.2635 126.106 57.435 126.106 57.6083C126.106 57.7815 126.14 57.953 126.206 58.1131C126.273 58.2729 126.37 58.4182 126.492 58.5405C126.615 58.6631 126.76 58.7603 126.92 58.8267C127.08 58.893 127.252 58.9271 127.425 58.9271C127.598 58.9271 127.77 58.893 127.93 58.8267C128.089 58.7604 128.235 58.663 128.357 58.5405L128.379 58.5188C128.404 58.495 128.435 58.4791 128.469 58.473C128.503 58.4667 128.539 58.4709 128.571 58.485C128.58 58.4893 128.59 58.4932 128.6 58.4969C128.633 58.509 128.662 58.5308 128.682 58.5593C128.702 58.5868 128.713 58.6194 128.715 58.6531V58.6822C128.715 59.0318 128.853 59.3671 129.101 59.6143C129.34 59.8538 129.662 59.9916 130 60C130.338 59.9916 130.66 59.8538 130.899 59.6143C131.147 59.3671 131.285 59.0318 131.285 58.6822V58.6531C131.287 58.6194 131.298 58.5868 131.318 58.5593C131.338 58.5308 131.367 58.509 131.4 58.4969C131.41 58.4932 131.42 58.4893 131.429 58.485C131.461 58.4709 131.497 58.4667 131.531 58.473C131.565 58.4791 131.596 58.495 131.621 58.5188L131.643 58.5405C131.765 58.663 131.911 58.7604 132.07 58.8267C132.23 58.893 132.402 58.9271 132.575 58.9271C132.748 58.9271 132.92 58.893 133.08 58.8267C133.24 58.7603 133.385 58.6631 133.508 58.5405C133.63 58.4182 133.727 58.2729 133.794 58.1131C133.86 57.953 133.894 57.7815 133.894 57.6083C133.894 57.435 133.86 57.2635 133.794 57.1035C133.727 56.9435 133.63 56.7982 133.508 56.6758L133.486 56.6538C133.462 56.6291 133.446 56.5978 133.44 56.564C133.434 56.5296 133.438 56.4941 133.452 56.4621L133.454 56.4572C133.468 56.4259 133.49 56.3991 133.518 56.3803C133.547 56.3615 133.58 56.3514 133.614 56.3512H133.682C134.031 56.3512 134.367 56.2123 134.614 55.9651C134.861 55.7178 135 55.3825 135 55.0329C135 54.6833 134.861 54.348 134.614 54.1008C134.367 53.8536 134.031 53.7147 133.682 53.7147H133.653C133.619 53.7131 133.586 53.7019 133.559 53.6822C133.53 53.6618 133.509 53.6332 133.497 53.6003C133.493 53.5904 133.489 53.5806 133.485 53.571C133.471 53.539 133.466 53.5035 133.473 53.4691C133.479 53.4353 133.495 53.4041 133.518 53.3793L133.54 53.3575C133.663 53.2351 133.76 53.0897 133.826 52.9297C133.893 52.7696 133.927 52.5981 133.927 52.4249C133.927 52.2516 133.893 52.0801 133.826 51.9201C133.76 51.7601 133.663 51.6148 133.54 51.4924C133.418 51.3699 133.273 51.2728 133.113 51.2065C132.953 51.1401 132.781 51.106 132.608 51.106C132.435 51.106 132.263 51.1401 132.103 51.2065C131.943 51.2728 131.798 51.37 131.675 51.4926L131.654 51.5144C131.629 51.5381 131.598 51.554 131.564 51.5602C131.529 51.5664 131.494 51.5622 131.462 51.5481C131.436 51.5368 131.41 51.5276 131.383 51.5208C131.369 51.5097 131.357 51.4965 131.347 51.4817C131.329 51.4534 131.318 51.4203 131.318 51.3864V51.3182C131.318 50.9686 131.179 50.6333 130.932 50.3861C130.685 50.1389 130.35 50 130 50ZM130.192 58.9072C130.14 58.9591 130.072 58.9912 130 58.9987C129.928 58.9912 129.86 58.9591 129.808 58.9072C129.748 58.8475 129.715 58.7666 129.715 58.6822V58.6454L129.714 58.6337C129.709 58.3979 129.633 58.1693 129.495 57.9776C129.361 57.7901 129.175 57.6463 128.96 57.5639C128.749 57.4741 128.516 57.448 128.291 57.489C128.06 57.5308 127.846 57.641 127.679 57.8051L127.65 57.8338C127.62 57.8634 127.585 57.8868 127.547 57.9028C127.508 57.9189 127.467 57.9271 127.425 57.9271C127.383 57.9271 127.342 57.9189 127.303 57.9028C127.264 57.8868 127.229 57.8634 127.2 57.8338L127.199 57.8334C127.17 57.8038 127.146 57.7687 127.13 57.7301C127.114 57.6915 127.106 57.6501 127.106 57.6083C127.106 57.5664 127.114 57.525 127.13 57.4864C127.146 57.4478 127.17 57.4125 127.199 57.3829L127.224 57.3584L127.228 57.3545C127.392 57.1866 127.502 56.9735 127.544 56.7424C127.586 56.5123 127.558 56.275 127.464 56.0608C127.374 55.8513 127.224 55.6725 127.034 55.5465C126.843 55.4199 126.619 55.352 126.39 55.3511H126.318C126.234 55.3511 126.153 55.3176 126.093 55.2579C126.034 55.1983 126 55.1173 126 55.0329C126 54.9485 126.034 54.8676 126.093 54.8079C126.153 54.7483 126.234 54.7147 126.318 54.7147H126.355L126.367 54.7146C126.602 54.7091 126.831 54.6328 127.023 54.4956C127.21 54.3615 127.354 54.1753 127.436 53.9603C127.526 53.7493 127.552 53.5165 127.511 53.2907C127.469 53.0597 127.359 52.8465 127.195 52.6786L127.167 52.65C127.137 52.6204 127.113 52.5853 127.097 52.5467C127.081 52.5081 127.073 52.4667 127.073 52.4249C127.073 52.3831 127.081 52.3416 127.097 52.303C127.113 52.2644 127.137 52.2293 127.167 52.1997L127.167 52.1994C127.196 52.1698 127.232 52.1463 127.27 52.1303C127.309 52.1143 127.35 52.106 127.392 52.106C127.434 52.106 127.475 52.1143 127.514 52.1303C127.553 52.1463 127.588 52.17 127.617 52.1996L127.642 52.2241L127.646 52.228C127.814 52.3922 128.027 52.5023 128.258 52.5442C128.455 52.58 128.658 52.5645 128.847 52.5C128.889 52.4937 128.93 52.482 128.97 52.4651C129.18 52.3749 129.36 52.225 129.486 52.0339C129.613 51.8428 129.681 51.6189 129.682 51.3898V51.3182C129.682 51.2338 129.715 51.1529 129.775 51.0932C129.835 51.0336 129.916 51 130 51C130.084 51 130.165 51.0336 130.225 51.0932C130.285 51.1529 130.318 51.2338 130.318 51.3182V51.3898C130.319 51.6189 130.387 51.8428 130.514 52.0339C130.64 52.225 130.82 52.3749 131.03 52.4651C131.07 52.482 131.111 52.4937 131.153 52.5C131.342 52.5645 131.545 52.58 131.742 52.5442C131.973 52.5023 132.186 52.3922 132.354 52.228L132.358 52.2241L132.383 52.1996C132.412 52.17 132.447 52.1463 132.486 52.1303C132.525 52.1143 132.566 52.106 132.608 52.106C132.65 52.106 132.691 52.1143 132.73 52.1303C132.768 52.1463 132.804 52.1698 132.833 52.1994L132.833 52.1997C132.863 52.2293 132.887 52.2644 132.903 52.303C132.919 52.3416 132.927 52.3831 132.927 52.4249C132.927 52.4667 132.919 52.5081 132.903 52.5467C132.887 52.5853 132.863 52.6204 132.833 52.65L132.805 52.6786C132.641 52.8465 132.531 53.0597 132.489 53.2907C132.448 53.5165 132.474 53.7493 132.564 53.9603C132.646 54.1753 132.79 54.3615 132.977 54.4956C133.169 54.6328 133.398 54.7091 133.633 54.7146L133.645 54.7147H133.682C133.766 54.7147 133.847 54.7483 133.907 54.8079C133.966 54.8676 134 54.9485 134 55.0329C134 55.1173 133.966 55.1983 133.907 55.2579C133.847 55.3176 133.766 55.3511 133.682 55.3511H133.61C133.381 55.352 133.157 55.4199 132.966 55.5465C132.776 55.6725 132.626 55.8513 132.536 56.0608C132.442 56.275 132.414 56.5123 132.456 56.7424C132.498 56.9735 132.608 57.1866 132.772 57.3545L132.776 57.3584L132.801 57.3829C132.83 57.4125 132.854 57.4478 132.87 57.4864C132.886 57.525 132.894 57.5664 132.894 57.6083C132.894 57.6501 132.886 57.6915 132.87 57.7301C132.854 57.7687 132.83 57.8038 132.801 57.8334L132.8 57.8338C132.771 57.8634 132.736 57.8868 132.697 57.9028C132.658 57.9189 132.617 57.9271 132.575 57.9271C132.533 57.9271 132.492 57.9189 132.453 57.9028C132.415 57.8868 132.38 57.8634 132.35 57.8338L132.321 57.8051C132.154 57.641 131.94 57.5308 131.709 57.489C131.484 57.448 131.251 57.4741 131.04 57.5639C130.825 57.6463 130.639 57.7901 130.505 57.9776C130.367 58.1693 130.291 58.3979 130.286 58.6337L130.285 58.6454V58.6822C130.285 58.7666 130.252 58.8475 130.192 58.9072ZM129.5 55.0002C129.5 54.724 129.724 54.5002 130 54.5002C130.276 54.5002 130.5 54.724 130.5 55.0002C130.5 55.2764 130.276 55.5002 130 55.5002C129.724 55.5002 129.5 55.2764 129.5 55.0002ZM130 53.5001C129.172 53.5001 128.5 54.1717 128.5 55.0002C128.5 55.8287 129.172 56.5003 130 56.5003C130.828 56.5003 131.5 55.8287 131.5 55.0002C131.5 54.1717 130.828 53.5001 130 53.5001Z" fill="white"/>
<path fill-rule="evenodd" clip-rule="evenodd" d="M130 63C129.65 63 129.315 63.1389 129.068 63.3861C128.821 63.6333 128.682 63.9686 128.682 64.3182V64.3864C128.682 64.4203 128.671 64.4534 128.653 64.4817C128.643 64.4965 128.631 64.5097 128.617 64.5208C128.59 64.5276 128.564 64.5368 128.538 64.5481C128.506 64.5622 128.471 64.5664 128.436 64.5602C128.402 64.554 128.371 64.5381 128.346 64.5144L128.325 64.4926C128.202 64.37 128.057 64.2728 127.897 64.2065C127.737 64.1401 127.565 64.106 127.392 64.106C127.219 64.106 127.047 64.1401 126.887 64.2065C126.727 64.2728 126.582 64.3699 126.46 64.4924C126.337 64.6148 126.24 64.7601 126.174 64.9201C126.107 65.0801 126.073 65.2516 126.073 65.4249C126.073 65.5981 126.107 65.7696 126.174 65.9297C126.24 66.0897 126.337 66.2351 126.46 66.3575L126.482 66.3793C126.505 66.4041 126.521 66.4353 126.527 66.4691C126.534 66.5035 126.529 66.539 126.515 66.571C126.511 66.5806 126.507 66.5904 126.503 66.6003C126.491 66.6332 126.47 66.6618 126.441 66.6822C126.414 66.7019 126.381 66.7131 126.347 66.7147H126.318C125.969 66.7147 125.633 66.8536 125.386 67.1008C125.139 67.348 125 67.6833 125 68.0329C125 68.3825 125.139 68.7178 125.386 68.9651C125.633 69.2123 125.969 69.3512 126.318 69.3512H126.386C126.42 69.3514 126.453 69.3615 126.482 69.3803C126.51 69.3991 126.532 69.4259 126.546 69.4572L126.548 69.4621C126.562 69.4941 126.566 69.5296 126.56 69.564C126.554 69.5978 126.538 69.6291 126.514 69.6538L126.492 69.6758C126.37 69.7982 126.273 69.9435 126.206 70.1035C126.14 70.2635 126.106 70.435 126.106 70.6083C126.106 70.7815 126.14 70.953 126.206 71.1131C126.273 71.2729 126.37 71.4182 126.492 71.5405C126.615 71.6631 126.76 71.7603 126.92 71.8267C127.08 71.893 127.252 71.9271 127.425 71.9271C127.598 71.9271 127.77 71.893 127.93 71.8267C128.089 71.7604 128.235 71.663 128.357 71.5405L128.379 71.5188C128.404 71.495 128.435 71.4791 128.469 71.473C128.503 71.4667 128.539 71.4709 128.571 71.485C128.58 71.4893 128.59 71.4932 128.6 71.4969C128.633 71.509 128.662 71.5308 128.682 71.5593C128.702 71.5868 128.713 71.6194 128.715 71.6531V71.6822C128.715 72.0318 128.853 72.3671 129.101 72.6143C129.34 72.8538 129.662 72.9916 130 73C130.338 72.9916 130.66 72.8538 130.899 72.6143C131.147 72.3671 131.285 72.0318 131.285 71.6822V71.6531C131.287 71.6194 131.298 71.5868 131.318 71.5593C131.338 71.5308 131.367 71.509 131.4 71.4969C131.41 71.4932 131.42 71.4893 131.429 71.485C131.461 71.4709 131.497 71.4667 131.531 71.473C131.565 71.4791 131.596 71.495 131.621 71.5188L131.643 71.5405C131.765 71.663 131.911 71.7604 132.07 71.8267C132.23 71.893 132.402 71.9271 132.575 71.9271C132.748 71.9271 132.92 71.893 133.08 71.8267C133.24 71.7603 133.385 71.6631 133.508 71.5405C133.63 71.4182 133.727 71.2729 133.794 71.1131C133.86 70.953 133.894 70.7815 133.894 70.6083C133.894 70.435 133.86 70.2635 133.794 70.1035C133.727 69.9435 133.63 69.7982 133.508 69.6758L133.486 69.6538C133.462 69.6291 133.446 69.5978 133.44 69.564C133.434 69.5296 133.438 69.4941 133.452 69.4621L133.454 69.4572C133.468 69.4259 133.49 69.3991 133.518 69.3803C133.547 69.3615 133.58 69.3514 133.614 69.3512H133.682C134.031 69.3512 134.367 69.2123 134.614 68.9651C134.861 68.7178 135 68.3825 135 68.0329C135 67.6833 134.861 67.348 134.614 67.1008C134.367 66.8536 134.031 66.7147 133.682 66.7147H133.653C133.619 66.7131 133.586 66.7019 133.559 66.6822C133.53 66.6618 133.509 66.6332 133.497 66.6003C133.493 66.5904 133.489 66.5806 133.485 66.571C133.471 66.539 133.466 66.5035 133.473 66.4691C133.479 66.4353 133.495 66.4041 133.518 66.3793L133.54 66.3575C133.663 66.2351 133.76 66.0897 133.826 65.9297C133.893 65.7696 133.927 65.5981 133.927 65.4249C133.927 65.2516 133.893 65.0801 133.826 64.9201C133.76 64.7601 133.663 64.6148 133.54 64.4924C133.418 64.3699 133.273 64.2728 133.113 64.2065C132.953 64.1401 132.781 64.106 132.608 64.106C132.435 64.106 132.263 64.1401 132.103 64.2065C131.943 64.2728 131.798 64.37 131.675 64.4926L131.654 64.5144C131.629 64.5381 131.598 64.554 131.564 64.5602C131.529 64.5664 131.494 64.5622 131.462 64.5481C131.436 64.5368 131.41 64.5276 131.383 64.5208C131.369 64.5097 131.357 64.4965 131.347 64.4817C131.329 64.4534 131.318 64.4203 131.318 64.3864V64.3182C131.318 63.9686 131.179 63.6333 130.932 63.3861C130.685 63.1389 130.35 63 130 63ZM130.192 71.9072C130.14 71.9591 130.072 71.9912 130 71.9987C129.928 71.9912 129.86 71.9591 129.808 71.9072C129.748 71.8475 129.715 71.7666 129.715 71.6822V71.6454L129.714 71.6337C129.709 71.3979 129.633 71.1693 129.495 70.9776C129.361 70.7901 129.175 70.6463 128.96 70.5639C128.749 70.4741 128.516 70.448 128.291 70.489C128.06 70.5308 127.846 70.641 127.679 70.8051L127.65 70.8338C127.62 70.8634 127.585 70.8868 127.547 70.9028C127.508 70.9189 127.467 70.9271 127.425 70.9271C127.383 70.9271 127.342 70.9189 127.303 70.9028C127.264 70.8868 127.229 70.8634 127.2 70.8338L127.199 70.8334C127.17 70.8038 127.146 70.7687 127.13 70.7301C127.114 70.6915 127.106 70.6501 127.106 70.6083C127.106 70.5664 127.114 70.525 127.13 70.4864C127.146 70.4478 127.17 70.4125 127.199 70.3829L127.224 70.3584L127.228 70.3545C127.392 70.1866 127.502 69.9735 127.544 69.7424C127.586 69.5123 127.558 69.275 127.464 69.0608C127.374 68.8513 127.224 68.6725 127.034 68.5465C126.843 68.4199 126.619 68.352 126.39 68.3511H126.318C126.234 68.3511 126.153 68.3176 126.093 68.2579C126.034 68.1983 126 68.1173 126 68.0329C126 67.9485 126.034 67.8676 126.093 67.8079C126.153 67.7483 126.234 67.7147 126.318 67.7147H126.355L126.367 67.7146C126.602 67.7091 126.831 67.6328 127.023 67.4956C127.21 67.3615 127.354 67.1753 127.436 66.9603C127.526 66.7493 127.552 66.5165 127.511 66.2907C127.469 66.0597 127.359 65.8465 127.195 65.6786L127.167 65.65C127.137 65.6204 127.113 65.5853 127.097 65.5467C127.081 65.5081 127.073 65.4667 127.073 65.4249C127.073 65.3831 127.081 65.3416 127.097 65.303C127.113 65.2644 127.137 65.2293 127.167 65.1997L127.167 65.1994C127.196 65.1698 127.232 65.1463 127.27 65.1303C127.309 65.1143 127.35 65.106 127.392 65.106C127.434 65.106 127.475 65.1143 127.514 65.1303C127.553 65.1463 127.588 65.17 127.617 65.1996L127.642 65.2241L127.646 65.228C127.814 65.3922 128.027 65.5023 128.258 65.5442C128.455 65.58 128.658 65.5645 128.847 65.5C128.889 65.4937 128.93 65.482 128.97 65.4651C129.18 65.3749 129.36 65.225 129.486 65.0339C129.613 64.8428 129.681 64.6189 129.682 64.3898V64.3182C129.682 64.2338 129.715 64.1529 129.775 64.0932C129.835 64.0336 129.916 64 130 64C130.084 64 130.165 64.0336 130.225 64.0932C130.285 64.1529 130.318 64.2338 130.318 64.3182V64.3898C130.319 64.6189 130.387 64.8428 130.514 65.0339C130.64 65.225 130.82 65.3749 131.03 65.4651C131.07 65.482 131.111 65.4937 131.153 65.5C131.342 65.5645 131.545 65.58 131.742 65.5442C131.973 65.5023 132.186 65.3922 132.354 65.228L132.358 65.2241L132.383 65.1996C132.412 65.17 132.447 65.1463 132.486 65.1303C132.525 65.1143 132.566 65.106 132.608 65.106C132.65 65.106 132.691 65.1143 132.73 65.1303C132.768 65.1463 132.804 65.1698 132.833 65.1994L132.833 65.1997C132.863 65.2293 132.887 65.2644 132.903 65.303C132.919 65.3416 132.927 65.3831 132.927 65.4249C132.927 65.4667 132.919 65.5081 132.903 65.5467C132.887 65.5853 132.863 65.6204 132.833 65.65L132.805 65.6786C132.641 65.8465 132.531 66.0597 132.489 66.2907C132.448 66.5165 132.474 66.7493 132.564 66.9603C132.646 67.1753 132.79 67.3615 132.977 67.4956C133.169 67.6328 133.398 67.7091 133.633 67.7146L133.645 67.7147H133.682C133.766 67.7147 133.847 67.7483 133.907 67.8079C133.966 67.8676 134 67.9485 134 68.0329C134 68.1173 133.966 68.1983 133.907 68.2579C133.847 68.3176 133.766 68.3511 133.682 68.3511H133.61C133.381 68.352 133.157 68.4199 132.966 68.5465C132.776 68.6725 132.626 68.8513 132.536 69.0608C132.442 69.275 132.414 69.5123 132.456 69.7424C132.498 69.9735 132.608 70.1866 132.772 70.3545L132.776 70.3584L132.801 70.3829C132.83 70.4125 132.854 70.4478 132.87 70.4864C132.886 70.525 132.894 70.5664 132.894 70.6083C132.894 70.6501 132.886 70.6915 132.87 70.7301C132.854 70.7687 132.83 70.8038 132.801 70.8334L132.8 70.8338C132.771 70.8634 132.736 70.8868 132.697 70.9028C132.658 70.9189 132.617 70.9271 132.575 70.9271C132.533 70.9271 132.492 70.9189 132.453 70.9028C132.415 70.8868 132.38 70.8634 132.35 70.8338L132.321 70.8051C132.154 70.641 131.94 70.5308 131.709 70.489C131.484 70.448 131.251 70.4741 131.04 70.5639C130.825 70.6463 130.639 70.7901 130.505 70.9776C130.367 71.1693 130.291 71.3979 130.286 71.6337L130.285 71.6454V71.6822C130.285 71.7666 130.252 71.8475 130.192 71.9072ZM129.5 68.0002C129.5 67.724 129.724 67.5002 130 67.5002C130.276 67.5002 130.5 67.724 130.5 68.0002C130.5 68.2764 130.276 68.5002 130 68.5002C129.724 68.5002 129.5 68.2764 129.5 68.0002ZM130 66.5001C129.172 66.5001 128.5 67.1717 128.5 68.0002C128.5 68.8287 129.172 69.5003 130 69.5003C130.828 69.5003 131.5 68.8287 131.5 68.0002C131.5 67.1717 130.828 66.5001 130 66.5001Z" fill="white"/>
</svg>
