<svg width="160" height="92" viewBox="0 0 160 92" fill="none" xmlns="http://www.w3.org/2000/svg">
    <path d="M146.535 3.28409V84.1523C146.535 85.4869 145.463 86.5567 144.114 86.5567H15.8877C14.5549 86.5567 13.4661 85.4848 13.4661 84.1523V3.28409C13.4661 1.75773 14.7117 0.5 16.2696 0.5H143.732C145.274 0.5 146.535 1.74249 146.535 3.28409Z"
          stroke="#5256E6"/>
    <path d="M156.159 90.7475L156.159 90.7475L156.164 90.746L158.566 89.8666C159.13 89.6539 159.5 89.1165 159.5 88.4986V87.8314H0.518539V89.0534C0.518539 89.3342 0.685501 89.5808 0.938843 89.676L0.944214 89.6781L3.84151 90.8055C3.8423 90.8058 3.84311 90.8061 3.8439 90.8064C5.04729 91.263 6.3224 91.5 7.59581 91.5H152.041C153.45 91.5 154.841 91.2433 156.159 90.7475Z"
          stroke="#5256E6"/>
    <path d="M19.2588 81.6134V6.26721H141.293V81.6134H19.2588Z" stroke="#5256E6"/>
    <rect x="31.0835" y="18.8067" width="6.11465" height="1.52486" rx="0.762431" fill="#5256E6"/>
    <rect x="38.2168" y="18.8067" width="8.66242" height="1.52486" rx="0.762431" fill="#5256E6"/>
    <rect x="48.4076" y="18.8067" width="22.9299" height="1.52486" rx="0.762431" fill="#5256E6"/>
    <rect x="31.0835" y="16.2651" width="40.2548" height="1.52486" rx="0.762431" fill="#5256E6"/>
    <rect x="73.8859" y="16.2651" width="8.15287" height="1.52486" rx="0.762431" fill="#5256E6"/>
    <rect x="85.6052" y="16.2651" width="19.8726" height="1.52486" rx="0.762431" fill="#5256E6"/>
    <rect x="31.0835" y="32.0222" width="6.11465" height="1.52486" rx="0.762431" fill="#5256E6"/>
    <rect x="38.2168" y="32.0222" width="8.66242" height="1.52486" rx="0.762431" fill="#5256E6"/>
    <rect x="48.4076" y="32.0222" width="22.9299" height="1.52486" rx="0.762431" fill="#5256E6"/>
    <rect x="73.8859" y="29.6102" width="8.15287" height="1.52486" rx="0.762431" fill="#5256E6"/>
    <rect x="85.6052" y="29.4805" width="19.8726" height="1.52486" rx="0.762431" fill="#5256E6"/>
    <rect x="31.0835" y="29.4805" width="40.2548" height="1.52486" rx="0.762431" fill="#5256E6"/>
    <rect x="31.0835" y="45.2376" width="6.11465" height="1.52486" rx="0.762431" fill="#5256E6"/>
    <rect x="38.2168" y="45.2376" width="8.66242" height="1.52486" rx="0.762431" fill="#5256E6"/>
    <rect x="48.4076" y="45.2376" width="22.9299" height="1.52486" rx="0.762431" fill="#5256E6"/>
    <rect x="73.8859" y="42.8257" width="8.15287" height="1.52486" rx="0.762431" fill="#5256E6"/>
    <rect x="85.6052" y="42.696" width="19.8726" height="1.52486" rx="0.762431" fill="#5256E6"/>
    <rect x="31.0835" y="42.696" width="40.2548" height="1.52486" rx="0.762431" fill="#5256E6"/>
    <rect x="31.0835" y="58.453" width="6.11465" height="1.52486" rx="0.762431" fill="#5256E6"/>
    <rect x="38.2168" y="58.453" width="8.66242" height="1.52486" rx="0.762431" fill="#5256E6"/>
    <rect x="48.4076" y="58.453" width="22.9299" height="1.52486" rx="0.762431" fill="#5256E6"/>
    <rect x="73.8859" y="56.0411" width="8.15287" height="1.52486" rx="0.762431" fill="#5256E6"/>
    <rect x="85.6052" y="55.9114" width="19.8726" height="1.52486" rx="0.762431" fill="#5256E6"/>
    <rect x="31.0835" y="55.9114" width="40.2548" height="1.52486" rx="0.762431" fill="#5256E6"/>
    <rect x="31.0835" y="72.1768" width="6.11465" height="1.52486" rx="0.762431" fill="#5256E6"/>
    <rect x="38.2168" y="72.1768" width="8.66242" height="1.52486" rx="0.762431" fill="#5256E6"/>
    <rect x="73.8859" y="69.7649" width="8.15287" height="1.52486" rx="0.762431" fill="#5256E6"/>
    <rect x="85.6052" y="69.6352" width="19.8726" height="1.52486" rx="0.762431" fill="#5256E6"/>
    <rect x="31.0835" y="69.6352" width="40.2548" height="1.52486" rx="0.762431" fill="#5256E6"/>
    <path d="M130.128 18.0444C130.128 17.4323 130.597 16.9643 131.211 16.9643C131.824 16.9643 132.293 17.4323 132.293 18.0444"
          stroke="#5256E6" stroke-linecap="round" stroke-linejoin="round"/>
    <path d="M130.128 18.0444C130.128 17.4323 130.597 16.9643 131.211 16.9643C131.824 16.9643 132.293 17.4323 132.293 18.0444"
          stroke="#5256E6" stroke-linecap="round" stroke-linejoin="round"/>
    <path d="M132.293 18.0441C132.293 18.6561 131.824 19.1242 131.211 19.1242C130.597 19.1242 130.128 18.6561 130.128 18.0441"
          stroke="#5256E6" stroke-linecap="round" stroke-linejoin="round"/>
    <path d="M133.918 18.0441C133.918 17.9361 133.918 17.7921 133.882 17.684L134.532 17.18C134.676 17.072 134.712 16.856 134.604 16.7119L134.026 15.7399C133.954 15.5958 133.738 15.5238 133.593 15.5958L133.016 15.8119C132.907 15.8479 132.763 15.8479 132.691 15.7759C132.619 15.7038 132.51 15.6678 132.402 15.6318C132.294 15.5598 132.222 15.4878 132.186 15.3438L132.113 14.7317C132.077 14.5517 131.933 14.4077 131.752 14.4077H130.634C130.453 14.4077 130.309 14.5517 130.273 14.7317L130.2 15.3438C130.2 15.4518 130.092 15.5598 129.984 15.6318C129.876 15.6678 129.803 15.7399 129.695 15.7759C129.587 15.8479 129.479 15.8479 129.37 15.8119L128.793 15.5958C128.612 15.5238 128.432 15.5958 128.36 15.7399L127.782 16.7119C127.71 16.856 127.746 17.072 127.854 17.18L128.504 17.684C128.504 17.7921 128.468 17.9001 128.468 18.0441"
          stroke="#5256E6" stroke-linecap="round" stroke-linejoin="round"/>
    <path d="M133.917 18.0441C133.917 18.1521 133.917 18.2961 133.881 18.4041L134.531 18.9082C134.675 19.0162 134.711 19.2322 134.603 19.3762L134.026 20.3483C133.953 20.4923 133.737 20.5643 133.592 20.4923L133.015 20.2763C132.907 20.2403 132.762 20.2403 132.69 20.3123C132.618 20.3843 132.51 20.4203 132.401 20.4563C132.293 20.5283 132.221 20.6003 132.185 20.7443L132.113 21.3564C132.077 21.5364 131.932 21.6804 131.752 21.6804H130.633C130.452 21.6804 130.308 21.5364 130.272 21.3564L130.2 20.7443C130.2 20.6363 130.091 20.5283 129.983 20.4563C129.875 20.4203 129.803 20.3483 129.694 20.3123C129.586 20.2403 129.478 20.2403 129.37 20.2763L128.792 20.4923C128.612 20.5643 128.431 20.4923 128.359 20.3483L127.781 19.3762C127.709 19.2322 127.745 19.0162 127.854 18.9082L128.503 18.4041C128.503 18.2961 128.467 18.1881 128.467 18.0441"
          stroke="#5256E6" stroke-linecap="round" stroke-linejoin="round"/>
    <path d="M130.128 31.2598C130.128 30.6477 130.597 30.1797 131.211 30.1797C131.824 30.1797 132.293 30.6477 132.293 31.2598"
          stroke="#5256E6" stroke-linecap="round" stroke-linejoin="round"/>
    <path d="M130.128 31.2598C130.128 30.6477 130.597 30.1797 131.211 30.1797C131.824 30.1797 132.293 30.6477 132.293 31.2598"
          stroke="#5256E6" stroke-linecap="round" stroke-linejoin="round"/>
    <path d="M132.293 31.2595C132.293 31.8715 131.824 32.3396 131.211 32.3396C130.597 32.3396 130.128 31.8715 130.128 31.2595"
          stroke="#5256E6" stroke-linecap="round" stroke-linejoin="round"/>
    <path d="M133.918 31.2595C133.918 31.1515 133.918 31.0075 133.882 30.8995L134.532 30.3955C134.676 30.2874 134.712 30.0714 134.604 29.9274L134.026 28.9553C133.954 28.8113 133.738 28.7393 133.593 28.8113L133.016 29.0273C132.907 29.0633 132.763 29.0633 132.691 28.9913C132.619 28.9193 132.51 28.8833 132.402 28.8473C132.294 28.7753 132.222 28.7033 132.186 28.5593L132.113 27.9472C132.077 27.7672 131.933 27.6232 131.752 27.6232H130.634C130.453 27.6232 130.309 27.7672 130.273 27.9472L130.2 28.5593C130.2 28.6673 130.092 28.7753 129.984 28.8473C129.876 28.8833 129.803 28.9553 129.695 28.9913C129.587 29.0633 129.479 29.0633 129.37 29.0273L128.793 28.8113C128.612 28.7393 128.432 28.8113 128.36 28.9553L127.782 29.9274C127.71 30.0714 127.746 30.2874 127.854 30.3955L128.504 30.8995C128.504 31.0075 128.468 31.1155 128.468 31.2595"
          stroke="#5256E6" stroke-linecap="round" stroke-linejoin="round"/>
    <path d="M133.917 31.2595C133.917 31.3675 133.917 31.5115 133.881 31.6195L134.531 32.1235C134.675 32.2316 134.711 32.4476 134.603 32.5916L134.026 33.5637C133.953 33.7077 133.737 33.7797 133.592 33.7077L133.015 33.4917C132.907 33.4557 132.762 33.4557 132.69 33.5277C132.618 33.5997 132.51 33.6357 132.401 33.6717C132.293 33.7437 132.221 33.8157 132.185 33.9597L132.113 34.5718C132.077 34.7518 131.932 34.8958 131.752 34.8958H130.633C130.452 34.8958 130.308 34.7518 130.272 34.5718L130.2 33.9597C130.2 33.8517 130.091 33.7437 129.983 33.6717C129.875 33.6357 129.803 33.5637 129.694 33.5277C129.586 33.4557 129.478 33.4557 129.37 33.4917L128.792 33.7077C128.612 33.7797 128.431 33.7077 128.359 33.5637L127.781 32.5916C127.709 32.4476 127.745 32.2316 127.854 32.1235L128.503 31.6195C128.503 31.5115 128.467 31.4035 128.467 31.2595"
          stroke="#5256E6" stroke-linecap="round" stroke-linejoin="round"/>
    <path d="M130.128 44.4751C130.128 43.863 130.597 43.395 131.211 43.395C131.824 43.395 132.293 43.863 132.293 44.4751"
          stroke="#5256E6" stroke-linecap="round" stroke-linejoin="round"/>
    <path d="M130.128 44.4751C130.128 43.863 130.597 43.395 131.211 43.395C131.824 43.395 132.293 43.863 132.293 44.4751"
          stroke="#5256E6" stroke-linecap="round" stroke-linejoin="round"/>
    <path d="M132.293 44.4748C132.293 45.0869 131.824 45.5549 131.211 45.5549C130.597 45.5549 130.128 45.0869 130.128 44.4748"
          stroke="#5256E6" stroke-linecap="round" stroke-linejoin="round"/>
    <path d="M133.918 44.475C133.918 44.367 133.918 44.223 133.882 44.115L134.532 43.6109C134.676 43.5029 134.712 43.2869 134.604 43.1429L134.026 42.1708C133.954 42.0268 133.738 41.9548 133.593 42.0268L133.016 42.2428C132.907 42.2788 132.763 42.2788 132.691 42.2068C132.619 42.1348 132.51 42.0988 132.402 42.0628C132.294 41.9908 132.222 41.9188 132.186 41.7747L132.113 41.1627C132.077 40.9827 131.933 40.8387 131.752 40.8387H130.634C130.453 40.8387 130.309 40.9827 130.273 41.1627L130.2 41.7747C130.2 41.8828 130.092 41.9908 129.984 42.0628C129.876 42.0988 129.803 42.1708 129.695 42.2068C129.587 42.2788 129.479 42.2788 129.37 42.2428L128.793 42.0268C128.612 41.9548 128.432 42.0268 128.36 42.1708L127.782 43.1429C127.71 43.2869 127.746 43.5029 127.854 43.6109L128.504 44.115C128.504 44.223 128.468 44.331 128.468 44.475"
          stroke="#5256E6" stroke-linecap="round" stroke-linejoin="round"/>
    <path d="M133.917 44.4748C133.917 44.5828 133.917 44.7268 133.881 44.8348L134.531 45.3389C134.675 45.4469 134.711 45.6629 134.603 45.8069L134.026 46.779C133.953 46.923 133.737 46.995 133.592 46.923L133.015 46.707C132.907 46.671 132.762 46.671 132.69 46.743C132.618 46.815 132.51 46.851 132.401 46.887C132.293 46.959 132.221 47.0311 132.185 47.1751L132.113 47.7871C132.077 47.9671 131.932 48.1112 131.752 48.1112H130.633C130.452 48.1112 130.308 47.9671 130.272 47.7871L130.2 47.1751C130.2 47.0671 130.091 46.959 129.983 46.887C129.875 46.851 129.803 46.779 129.694 46.743C129.586 46.671 129.478 46.671 129.37 46.707L128.792 46.923C128.612 46.995 128.431 46.923 128.359 46.779L127.781 45.8069C127.709 45.6629 127.745 45.4469 127.854 45.3389L128.503 44.8348C128.503 44.7268 128.467 44.6188 128.467 44.4748"
          stroke="#5256E6" stroke-linecap="round" stroke-linejoin="round"/>
    <path d="M130.128 57.6908C130.128 57.0787 130.597 56.6107 131.211 56.6107C131.824 56.6107 132.293 57.0787 132.293 57.6908"
          stroke="#5256E6" stroke-linecap="round" stroke-linejoin="round"/>
    <path d="M130.128 57.6908C130.128 57.0787 130.597 56.6107 131.211 56.6107C131.824 56.6107 132.293 57.0787 132.293 57.6908"
          stroke="#5256E6" stroke-linecap="round" stroke-linejoin="round"/>
    <path d="M132.293 57.6905C132.293 58.3026 131.824 58.7706 131.211 58.7706C130.597 58.7706 130.128 58.3026 130.128 57.6905"
          stroke="#5256E6" stroke-linecap="round" stroke-linejoin="round"/>
    <path d="M133.918 57.6904C133.918 57.5824 133.918 57.4384 133.882 57.3304L134.532 56.8264C134.676 56.7183 134.712 56.5023 134.604 56.3583L134.026 55.3862C133.954 55.2422 133.738 55.1702 133.593 55.2422L133.016 55.4582C132.907 55.4942 132.763 55.4942 132.691 55.4222C132.619 55.3502 132.51 55.3142 132.402 55.2782C132.294 55.2062 132.222 55.1342 132.186 54.9902L132.113 54.3781C132.077 54.1981 131.933 54.0541 131.752 54.0541H130.634C130.453 54.0541 130.309 54.1981 130.273 54.3781L130.2 54.9902C130.2 55.0982 130.092 55.2062 129.984 55.2782C129.876 55.3142 129.803 55.3862 129.695 55.4222C129.587 55.4942 129.479 55.4942 129.37 55.4582L128.793 55.2422C128.612 55.1702 128.432 55.2422 128.36 55.3862L127.782 56.3583C127.71 56.5023 127.746 56.7183 127.854 56.8264L128.504 57.3304C128.504 57.4384 128.468 57.5464 128.468 57.6904"
          stroke="#5256E6" stroke-linecap="round" stroke-linejoin="round"/>
    <path d="M133.917 57.6905C133.917 57.7985 133.917 57.9425 133.881 58.0505L134.531 58.5546C134.675 58.6626 134.711 58.8786 134.603 59.0226L134.026 59.9947C133.953 60.1387 133.737 60.2107 133.592 60.1387L133.015 59.9227C132.907 59.8867 132.762 59.8867 132.69 59.9587C132.618 60.0307 132.51 60.0667 132.401 60.1027C132.293 60.1747 132.221 60.2468 132.185 60.3908L132.113 61.0028C132.077 61.1828 131.932 61.3269 131.752 61.3269H130.633C130.452 61.3269 130.308 61.1828 130.272 61.0028L130.2 60.3908C130.2 60.2828 130.091 60.1747 129.983 60.1027C129.875 60.0667 129.803 59.9947 129.694 59.9587C129.586 59.8867 129.478 59.8867 129.37 59.9227L128.792 60.1387C128.612 60.2107 128.431 60.1387 128.359 59.9947L127.781 59.0226C127.709 58.8786 127.745 58.6626 127.854 58.5546L128.503 58.0505C128.503 57.9425 128.467 57.8345 128.467 57.6905"
          stroke="#5256E6" stroke-linecap="round" stroke-linejoin="round"/>
    <path d="M130.128 71.9222C130.128 71.3102 130.597 70.8421 131.211 70.8421C131.824 70.8421 132.293 71.3102 132.293 71.9222"
          stroke="#5256E6" stroke-linecap="round" stroke-linejoin="round"/>
    <path d="M130.128 71.9222C130.128 71.3102 130.597 70.8421 131.211 70.8421C131.824 70.8421 132.293 71.3102 132.293 71.9222"
          stroke="#5256E6" stroke-linecap="round" stroke-linejoin="round"/>
    <path d="M132.293 71.9223C132.293 72.5344 131.824 73.0024 131.211 73.0024C130.597 73.0024 130.128 72.5344 130.128 71.9223"
          stroke="#5256E6" stroke-linecap="round" stroke-linejoin="round"/>
    <path d="M133.918 71.9222C133.918 71.8142 133.918 71.6702 133.882 71.5622L134.532 71.0581C134.676 70.9501 134.712 70.7341 134.604 70.5901L134.026 69.618C133.954 69.474 133.738 69.402 133.593 69.474L133.016 69.69C132.907 69.726 132.763 69.726 132.691 69.654C132.619 69.582 132.51 69.546 132.402 69.51C132.294 69.438 132.222 69.366 132.186 69.222L132.113 68.6099C132.077 68.4299 131.933 68.2859 131.752 68.2859H130.634C130.453 68.2859 130.309 68.4299 130.273 68.6099L130.2 69.222C130.2 69.33 130.092 69.438 129.984 69.51C129.876 69.546 129.803 69.618 129.695 69.654C129.587 69.726 129.479 69.726 129.37 69.69L128.793 69.474C128.612 69.402 128.432 69.474 128.36 69.618L127.782 70.5901C127.71 70.7341 127.746 70.9501 127.854 71.0581L128.504 71.5622C128.504 71.6702 128.468 71.7782 128.468 71.9222"
          stroke="#5256E6" stroke-linecap="round" stroke-linejoin="round"/>
    <path d="M133.917 71.9223C133.917 72.0303 133.917 72.1743 133.881 72.2823L134.531 72.7864C134.675 72.8944 134.711 73.1104 134.603 73.2544L134.026 74.2265C133.953 74.3706 133.737 74.4426 133.592 74.3706L133.015 74.1545C132.907 74.1185 132.762 74.1185 132.69 74.1905C132.618 74.2625 132.51 74.2985 132.401 74.3345C132.293 74.4066 132.221 74.4786 132.185 74.6226L132.113 75.2346C132.077 75.4147 131.932 75.5587 131.752 75.5587H130.633C130.452 75.5587 130.308 75.4147 130.272 75.2346L130.2 74.6226C130.2 74.5146 130.091 74.4066 129.983 74.3345C129.875 74.2985 129.803 74.2265 129.694 74.1905C129.586 74.1185 129.478 74.1185 129.37 74.1545L128.792 74.3706C128.612 74.4426 128.431 74.3706 128.359 74.2265L127.781 73.2544C127.709 73.1104 127.745 72.8944 127.854 72.7864L128.503 72.2823C128.503 72.1743 128.467 72.0663 128.467 71.9223"
          stroke="#5256E6" stroke-linecap="round" stroke-linejoin="round"/>
</svg>
