<svg width="160" height="92" viewBox="0 0 160 92" fill="none" xmlns="http://www.w3.org/2000/svg">
    <path d="M146.535 3.28409V84.1524C146.535 85.4871 145.463 86.5569 144.113 86.5569H15.8874C14.5546 86.5569 13.4658 85.485 13.4658 84.1524V3.28409C13.4658 1.75773 14.7114 0.5 16.2693 0.5H143.731C145.274 0.5 146.535 1.7425 146.535 3.28409Z"
          stroke="#5256E6"/>
    <path d="M156.159 90.7475L156.159 90.7475L156.164 90.746L158.566 89.8667C159.13 89.6539 159.5 89.1165 159.5 88.4986V87.8314H0.518539V89.0534C0.518539 89.3342 0.685501 89.5808 0.938843 89.676L0.944214 89.6781L3.84151 90.8055C3.8423 90.8058 3.84311 90.8061 3.8439 90.8064C5.04729 91.263 6.3224 91.5 7.59581 91.5H152.041C153.45 91.5 154.841 91.2433 156.159 90.7475Z"
          stroke="#5256E6"/>
    <path d="M19.2588 81.6135V6.26709H141.293V81.6135H19.2588Z" stroke="#5256E6"/>
    <path d="M119.454 41.1212L121.044 39.0433L119.454 36.9394H95.3044V41.1212H119.454Z" fill="#5256E6"/>
    <path d="M124.777 48.9849H95.8044V45.803H124.777L125.982 47.3939L124.777 48.9849Z" stroke="#5256E6"/>
    <path d="M119.189 57.3485H95.8044V54.1667H119.189L120.413 55.7576L119.189 57.3485Z" stroke="#5256E6"/>
    <path d="M53.0653 27.6836V46.197H34.5983C34.7785 41.1354 36.9795 36.4295 40.4102 33.1227C43.8863 29.8175 47.935 27.766 53.0653 27.6836Z"
          stroke="#5256E6"/>
    <path d="M62.05 38.3029L62.051 38.304C63.7284 39.9981 64.7869 42.284 64.884 44.803H55.4565V35.3665C58.0198 35.5203 60.3878 36.6143 62.05 38.3029Z"
          stroke="#5256E6"/>
    <path d="M69.7481 47.197C69.5749 51.5096 67.7765 55.4753 64.9533 58.2827C62.127 61.0931 58.2943 62.8372 54.0652 62.9211V47.197H69.7481Z"
          stroke="#5256E6"/>
    <path d="M53.5652 46.697L39.653 46.697C39.6119 50.5079 41.1304 53.9723 43.6337 56.4994C46.1371 59.0264 49.7075 60.5956 53.5652 60.6364L53.5652 46.697Z"
          fill="#5256E6"/>
</svg>
