<svg width="160" height="92" viewBox="0 0 160 92" fill="none" xmlns="http://www.w3.org/2000/svg">
<path fill-rule="evenodd" clip-rule="evenodd" d="M16 1C14.7174 1 14 1.75109 14 3.00046V83.0005C14 84.0523 14.9387 85.0005 16 85.0005L144 85.0002C145.077 85.0002 146.016 84.0561 146.016 83.0002V3.00023C146.016 1.73925 145.271 1 144 1H16ZM13 3.00046C13 1.19711 14.1668 0 16 0H144C145.815 0 147.016 1.17803 147.016 3.00023V83.0002C147.016 84.6137 145.623 86.0002 144 86.0002L16 86.0005C14.3957 86.0005 13 84.6138 13 83.0005V3.00046Z" fill="white"/>
<path fill-rule="evenodd" clip-rule="evenodd" d="M0.000647973 88.9819C0.0105552 87.8845 0.903034 87 2.00056 87H158.833C159.477 87 160 87.5225 160 88.1671C160 88.9891 159.486 90.0471 158.724 90.3347L158.719 90.3365L156.303 91.221L156.3 91.2219C154.931 91.7345 153.487 92.0002 152.022 92.0002H7.57727C6.24232 92.0002 4.90737 91.752 3.64853 91.2743L3.64164 91.2717L0.740965 90.143C0.286037 89.9704 0 89.5322 0 89.0537L0.000647973 88.9819ZM1.01854 88L1 89.0537C1 89.1355 1.04644 89.1895 1.09618 89.2082L1.10225 89.2105L4.00162 90.3387L4.00277 90.3392C5.15055 90.7747 6.36561 91.0002 7.57727 91.0002H152.022C153.37 91.0002 154.702 90.7547 155.964 90.2797L155.981 90.2736L155.988 90.2715L158.371 89.3991L158.373 89.3985C158.737 89.2601 159 88.5803 159 88.1671V88H1.01854Z" fill="white"/>
<path fill-rule="evenodd" clip-rule="evenodd" d="M16 5.00023C16 3.89566 16.8954 3.00023 18 3.00023H142C143.105 3.00023 144 3.89566 144 5.00023V81.0002C144 82.1048 143.105 83.0002 142 83.0002H18C16.8954 83.0002 16 82.1048 16 81.0002V5.00023ZM18 4.00023C17.4477 4.00023 17 4.44794 17 5.00023V81.0002C17 81.5525 17.4477 82.0002 18 82.0002H142C142.552 82.0002 143 81.5525 143 81.0002V5.00023C143 4.44794 142.552 4.00023 142 4.00023H18Z" fill="white"/>
<path d="M47 14C47 13.4477 47.4477 13 48 13H75C75.5523 13 76 13.4477 76 14C76 14.5523 75.5523 15 75 15H48C47.4477 15 47 14.5523 47 14Z" fill="white"/>
<path d="M47 53C47 52.4477 47.4477 52 48 52H75C75.5523 52 76 52.4477 76 53C76 53.5523 75.5523 54 75 54H48C47.4477 54 47 53.5523 47 53Z" fill="white"/>
<path d="M47 27C47 26.4477 47.4477 26 48 26H75C75.5523 26 76 26.4477 76 27C76 27.5523 75.5523 28 75 28H48C47.4477 28 47 27.5523 47 27Z" fill="white"/>
<path d="M47 66C47 65.4477 47.4477 65 48 65H75C75.5523 65 76 65.4477 76 66C76 66.5523 75.5523 67 75 67H48C47.4477 67 47 66.5523 47 66Z" fill="white"/>
<path d="M47 40C47 39.4477 47.4477 39 48 39H75C75.5523 39 76 39.4477 76 40C76 40.5523 75.5523 41 75 41H48C47.4477 41 47 40.5523 47 40Z" fill="white"/>
<path d="M78 14C78 13.4477 78.4477 13 79 13H90C90.5523 13 91 13.4477 91 14C91 14.5523 90.5523 15 90 15H79C78.4477 15 78 14.5523 78 14Z" fill="white"/>
<path d="M78 53C78 52.4477 78.4477 52 79 52H90C90.5523 52 91 52.4477 91 53C91 53.5523 90.5523 54 90 54H79C78.4477 54 78 53.5523 78 53Z" fill="white"/>
<path d="M78 27C78 26.4477 78.4477 26 79 26H90C90.5523 26 91 26.4477 91 27C91 27.5523 90.5523 28 90 28H79C78.4477 28 78 27.5523 78 27Z" fill="white"/>
<path d="M78 66C78 65.4477 78.4477 65 79 65H90C90.5523 65 91 65.4477 91 66C91 66.5523 90.5523 67 90 67H79C78.4477 67 78 66.5523 78 66Z" fill="white"/>
<path d="M78 40C78 39.4477 78.4477 39 79 39H90C90.5523 39 91 39.4477 91 40C91 40.5523 90.5523 41 90 41H79C78.4477 41 78 40.5523 78 40Z" fill="white"/>
<path d="M47 18C47 17.4477 47.4477 17 48 17H52C52.5523 17 53 17.4477 53 18C53 18.5523 52.5523 19 52 19H48C47.4477 19 47 18.5523 47 18Z" fill="white"/>
<path d="M47 57C47 56.4477 47.4477 56 48 56H52C52.5523 56 53 56.4477 53 57C53 57.5523 52.5523 58 52 58H48C47.4477 58 47 57.5523 47 57Z" fill="white"/>
<path d="M47 31C47 30.4477 47.4477 30 48 30H52C52.5523 30 53 30.4477 53 31C53 31.5523 52.5523 32 52 32H48C47.4477 32 47 31.5523 47 31Z" fill="white"/>
<path d="M47 70C47 69.4477 47.4477 69 48 69H52C52.5523 69 53 69.4477 53 70C53 70.5523 52.5523 71 52 71H48C47.4477 71 47 70.5523 47 70Z" fill="white"/>
<path d="M47 44C47 43.4477 47.4477 43 48 43H52C52.5523 43 53 43.4477 53 44C53 44.5523 52.5523 45 52 45H48C47.4477 45 47 44.5523 47 44Z" fill="white"/>
<path d="M55 18C55 17.4477 55.4477 17 56 17H61C61.5523 17 62 17.4477 62 18C62 18.5523 61.5523 19 61 19H56C55.4477 19 55 18.5523 55 18Z" fill="white"/>
<path d="M55 57C55 56.4477 55.4477 56 56 56H61C61.5523 56 62 56.4477 62 57C62 57.5523 61.5523 58 61 58H56C55.4477 58 55 57.5523 55 57Z" fill="white"/>
<path d="M55 31C55 30.4477 55.4477 30 56 30H61C61.5523 30 62 30.4477 62 31C62 31.5523 61.5523 32 61 32H56C55.4477 32 55 31.5523 55 31Z" fill="white"/>
<path d="M55 70C55 69.4477 55.4477 69 56 69H61C61.5523 69 62 69.4477 62 70C62 70.5523 61.5523 71 61 71H56C55.4477 71 55 70.5523 55 70Z" fill="white"/>
<path d="M55 44C55 43.4477 55.4477 43 56 43H61C61.5523 43 62 43.4477 62 44C62 44.5523 61.5523 45 61 45H56C55.4477 45 55 44.5523 55 44Z" fill="white"/>
<rect x="27.5" y="14.5" width="3" height="3" rx="0.5" stroke="white"/>
<rect x="27.5" y="53.5" width="3" height="3" rx="0.5" stroke="white"/>
<rect x="27.5" y="27.5" width="3" height="3" rx="0.5" stroke="white"/>
<rect x="27.5" y="66.5" width="3" height="3" rx="0.5" stroke="white"/>
<rect x="27.5" y="40.5" width="3" height="3" rx="0.5" stroke="white"/>
<path fill-rule="evenodd" clip-rule="evenodd" d="M100.078 15.7164C99.9807 15.8176 99.9353 15.9645 99.9583 16.1087L100.114 17.077C100.219 17.7328 99.5241 18.2212 98.9462 17.8973L98.1899 17.4733C98.071 17.4065 97.929 17.4065 97.8098 17.4733L97.0538 17.8971C96.4759 18.221 95.7806 17.7326 95.886 17.0769L96.0416 16.1092C96.0649 15.9647 96.0193 15.8176 95.9219 15.7164L95.223 14.9899C94.7771 14.5264 95.0374 13.751 95.6718 13.6527L96.5981 13.5093C96.7295 13.4888 96.8467 13.4002 96.9077 13.2684L97.2822 12.4597C97.5661 11.8467 98.4346 11.8468 98.7183 12.4599L99.0926 13.2686C99.1535 13.4003 99.2705 13.4888 99.4024 13.5093L100.328 13.6527C100.963 13.751 101.223 14.5263 100.777 14.9898L100.078 15.7164Z" fill="white"/>
<path fill-rule="evenodd" clip-rule="evenodd" d="M100.078 28.7164C99.9807 28.8176 99.9353 28.9645 99.9583 29.1087L100.114 30.077C100.219 30.7328 99.5241 31.2212 98.9462 30.8973L98.1899 30.4733C98.071 30.4065 97.929 30.4065 97.8098 30.4733L97.0538 30.8971C96.4759 31.221 95.7806 30.7326 95.886 30.0769L96.0416 29.1092C96.0649 28.9647 96.0193 28.8176 95.9219 28.7164L95.223 27.9899C94.7771 27.5264 95.0374 26.751 95.6718 26.6527L96.5981 26.5093C96.7295 26.4888 96.8467 26.4002 96.9077 26.2684L97.2822 25.4597C97.5661 24.8467 98.4346 24.8468 98.7183 25.4599L99.0926 26.2686C99.1535 26.4003 99.2705 26.4888 99.4024 26.5093L100.328 26.6527C100.963 26.751 101.223 27.5263 100.777 27.9898L100.078 28.7164Z" fill="white"/>
<path fill-rule="evenodd" clip-rule="evenodd" d="M100.078 41.7164C99.9807 41.8176 99.9353 41.9645 99.9583 42.1087L100.114 43.077C100.219 43.7328 99.5241 44.2212 98.9462 43.8973L98.1899 43.4733C98.071 43.4065 97.929 43.4065 97.8098 43.4733L97.0538 43.8971C96.4759 44.221 95.7806 43.7326 95.886 43.0769L96.0416 42.1092C96.0649 41.9647 96.0193 41.8176 95.9219 41.7164L95.223 40.9899C94.7771 40.5264 95.0374 39.751 95.6718 39.6527L96.5981 39.5093C96.7295 39.4888 96.8467 39.4002 96.9077 39.2684L97.2822 38.4597C97.5661 37.8467 98.4346 37.8468 98.7183 38.4599L99.0926 39.2686C99.1535 39.4003 99.2705 39.4888 99.4024 39.5093L100.328 39.6527C100.963 39.751 101.223 40.5263 100.777 40.9898L100.078 41.7164Z" fill="white"/>
<path fill-rule="evenodd" clip-rule="evenodd" d="M100.078 54.7164C99.9807 54.8176 99.9353 54.9645 99.9583 55.1087L100.114 56.077C100.219 56.7328 99.5241 57.2212 98.9462 56.8973L98.1899 56.4733C98.071 56.4065 97.929 56.4065 97.8098 56.4733L97.0538 56.8971C96.4759 57.221 95.7806 56.7326 95.886 56.0769L96.0416 55.1092C96.0649 54.9647 96.0193 54.8176 95.9219 54.7164L95.223 53.9899C94.7771 53.5264 95.0374 52.751 95.6718 52.6527L96.5981 52.5093C96.7295 52.4888 96.8467 52.4002 96.9077 52.2684L97.2822 51.4597C97.5661 50.8467 98.4346 50.8468 98.7183 51.4599L99.0926 52.2686C99.1535 52.4003 99.2705 52.4888 99.4024 52.5093L100.328 52.6527C100.963 52.751 101.223 53.5263 100.777 53.9898L100.078 54.7164Z" fill="white"/>
<path fill-rule="evenodd" clip-rule="evenodd" d="M100.078 67.7164C99.9807 67.8176 99.9353 67.9645 99.9583 68.1087L100.114 69.077C100.219 69.7328 99.5241 70.2212 98.9462 69.8973L98.1899 69.4733C98.071 69.4065 97.929 69.4065 97.8098 69.4733L97.0538 69.8971C96.4759 70.221 95.7806 69.7326 95.886 69.0769L96.0416 68.1092C96.0649 67.9647 96.0193 67.8176 95.9219 67.7164L95.223 66.9899C94.7771 66.5264 95.0374 65.751 95.6718 65.6527L96.5981 65.5093C96.7295 65.4888 96.8467 65.4002 96.9077 65.2684L97.2822 64.4597C97.5661 63.8467 98.4346 63.8468 98.7183 64.4599L99.0926 65.2686C99.1535 65.4003 99.2705 65.4888 99.4024 65.5093L100.328 65.6527C100.963 65.751 101.223 66.5263 100.777 66.9898L100.078 67.7164Z" fill="white"/>
<path fill-rule="evenodd" clip-rule="evenodd" d="M108.078 15.7164C107.981 15.8176 107.935 15.9645 107.958 16.1087L108.114 17.077C108.219 17.7328 107.524 18.2212 106.946 17.8973L106.19 17.4733C106.071 17.4065 105.929 17.4065 105.81 17.4733L105.054 17.8971C104.476 18.221 103.781 17.7326 103.886 17.0769L104.042 16.1092C104.065 15.9647 104.019 15.8176 103.922 15.7164L103.223 14.9899C102.777 14.5264 103.037 13.751 103.672 13.6527L104.598 13.5093C104.73 13.4888 104.847 13.4002 104.908 13.2684L105.282 12.4597C105.566 11.8467 106.435 11.8468 106.718 12.4599L107.093 13.2686C107.154 13.4003 107.27 13.4888 107.402 13.5093L108.328 13.6527C108.963 13.751 109.223 14.5263 108.777 14.9898L108.078 15.7164Z" fill="white"/>
<path fill-rule="evenodd" clip-rule="evenodd" d="M108.078 41.7164C107.981 41.8176 107.935 41.9645 107.958 42.1087L108.114 43.077C108.219 43.7328 107.524 44.2212 106.946 43.8973L106.19 43.4733C106.071 43.4065 105.929 43.4065 105.81 43.4733L105.054 43.8971C104.476 44.221 103.781 43.7326 103.886 43.0769L104.042 42.1092C104.065 41.9647 104.019 41.8176 103.922 41.7164L103.223 40.9899C102.777 40.5264 103.037 39.751 103.672 39.6527L104.598 39.5093C104.73 39.4888 104.847 39.4002 104.908 39.2684L105.282 38.4597C105.566 37.8467 106.435 37.8468 106.718 38.4599L107.093 39.2686C107.154 39.4003 107.27 39.4888 107.402 39.5093L108.328 39.6527C108.963 39.751 109.223 40.5263 108.777 40.9898L108.078 41.7164Z" fill="white"/>
<path fill-rule="evenodd" clip-rule="evenodd" d="M108.078 54.7164C107.981 54.8176 107.935 54.9645 107.958 55.1087L108.114 56.077C108.219 56.7328 107.524 57.2212 106.946 56.8973L106.19 56.4733C106.071 56.4065 105.929 56.4065 105.81 56.4733L105.054 56.8971C104.476 57.221 103.781 56.7326 103.886 56.0769L104.042 55.1092C104.065 54.9647 104.019 54.8176 103.922 54.7164L103.223 53.9899C102.777 53.5264 103.037 52.751 103.672 52.6527L104.598 52.5093C104.73 52.4888 104.847 52.4002 104.908 52.2684L105.282 51.4597C105.566 50.8467 106.435 50.8468 106.718 51.4599L107.093 52.2686C107.154 52.4003 107.27 52.4888 107.402 52.5093L108.328 52.6527C108.963 52.751 109.223 53.5263 108.777 53.9898L108.078 54.7164Z" fill="white"/>
<path fill-rule="evenodd" clip-rule="evenodd" d="M108.078 28.7164C107.981 28.8176 107.935 28.9645 107.958 29.1087L108.114 30.077C108.219 30.7328 107.524 31.2212 106.946 30.8973L106.19 30.4733C106.071 30.4065 105.929 30.4065 105.81 30.4733L105.054 30.8971C104.476 31.221 103.781 30.7326 103.886 30.0769L104.042 29.1092C104.065 28.9647 104.019 28.8176 103.922 28.7164L103.223 27.9899C102.777 27.5264 103.037 26.751 103.672 26.6527L104.598 26.5093C104.73 26.4888 104.847 26.4002 104.908 26.2684L105.282 25.4597C105.566 24.8467 106.435 24.8468 106.718 25.4599L107.093 26.2686C107.154 26.4003 107.27 26.4888 107.402 26.5093L108.328 26.6527C108.963 26.751 109.223 27.5263 108.777 27.9898L108.078 28.7164Z" fill="white"/>
<path fill-rule="evenodd" clip-rule="evenodd" d="M116.078 15.7164C115.981 15.8176 115.935 15.9645 115.958 16.1087L116.114 17.077C116.219 17.7328 115.524 18.2212 114.946 17.8973L114.19 17.4733C114.071 17.4065 113.929 17.4065 113.81 17.4733L113.054 17.8971C112.476 18.221 111.781 17.7326 111.886 17.0769L112.042 16.1092C112.065 15.9647 112.019 15.8176 111.922 15.7164L111.223 14.9899C110.777 14.5264 111.037 13.751 111.672 13.6527L112.598 13.5093C112.73 13.4888 112.847 13.4002 112.908 13.2684L113.282 12.4597C113.566 11.8467 114.435 11.8468 114.718 12.4599L115.093 13.2686C115.154 13.4003 115.27 13.4888 115.402 13.5093L116.328 13.6527C116.963 13.751 117.223 14.5263 116.777 14.9898L116.078 15.7164Z" fill="white"/>
<path fill-rule="evenodd" clip-rule="evenodd" d="M116.078 28.7164C115.981 28.8176 115.935 28.9645 115.958 29.1087L116.114 30.077C116.219 30.7328 115.524 31.2212 114.946 30.8973L114.19 30.4733C114.071 30.4065 113.929 30.4065 113.81 30.4733L113.054 30.8971C112.476 31.221 111.781 30.7326 111.886 30.0769L112.042 29.1092C112.065 28.9647 112.019 28.8176 111.922 28.7164L111.223 27.9899C110.777 27.5264 111.037 26.751 111.672 26.6527L112.598 26.5093C112.73 26.4888 112.847 26.4002 112.908 26.2684L113.282 25.4597C113.566 24.8467 114.435 24.8468 114.718 25.4599L115.093 26.2686C115.154 26.4003 115.27 26.4888 115.402 26.5093L116.328 26.6527C116.963 26.751 117.223 27.5263 116.777 27.9898L116.078 28.7164Z" fill="white"/>
<path fill-rule="evenodd" clip-rule="evenodd" d="M116.078 41.7164C115.981 41.8176 115.935 41.9645 115.958 42.1087L116.114 43.077C116.219 43.7328 115.524 44.2212 114.946 43.8973L114.19 43.4733C114.071 43.4065 113.929 43.4065 113.81 43.4733L113.054 43.8971C112.476 44.221 111.781 43.7326 111.886 43.0769L112.042 42.1092C112.065 41.9647 112.019 41.8176 111.922 41.7164L111.223 40.9899C110.777 40.5264 111.037 39.751 111.672 39.6527L112.598 39.5093C112.73 39.4888 112.847 39.4002 112.908 39.2684L113.282 38.4597C113.566 37.8467 114.435 37.8468 114.718 38.4599L115.093 39.2686C115.154 39.4003 115.27 39.4888 115.402 39.5093L116.328 39.6527C116.963 39.751 117.223 40.5263 116.777 40.9898L116.078 41.7164Z" fill="white"/>
<path fill-rule="evenodd" clip-rule="evenodd" d="M124.078 15.7164C123.981 15.8176 123.935 15.9645 123.958 16.1087L124.114 17.077C124.219 17.7328 123.524 18.2212 122.946 17.8973L122.19 17.4733C122.071 17.4065 121.929 17.4065 121.81 17.4733L121.054 17.8971C120.476 18.221 119.781 17.7326 119.886 17.0769L120.042 16.1092C120.065 15.9647 120.019 15.8176 119.922 15.7164L119.223 14.9899C118.777 14.5264 119.037 13.751 119.672 13.6527L120.598 13.5093C120.73 13.4888 120.847 13.4002 120.908 13.2684L121.282 12.4597C121.566 11.8467 122.435 11.8468 122.718 12.4599L123.093 13.2686C123.154 13.4003 123.27 13.4888 123.402 13.5093L124.328 13.6527C124.963 13.751 125.223 14.5263 124.777 14.9898L124.078 15.7164Z" fill="white"/>
<path fill-rule="evenodd" clip-rule="evenodd" d="M124.078 28.7164C123.981 28.8176 123.935 28.9645 123.958 29.1087L124.114 30.077C124.219 30.7328 123.524 31.2212 122.946 30.8973L122.19 30.4733C122.071 30.4065 121.929 30.4065 121.81 30.4733L121.054 30.8971C120.476 31.221 119.781 30.7326 119.886 30.0769L120.042 29.1092C120.065 28.9647 120.019 28.8176 119.922 28.7164L119.223 27.9899C118.777 27.5264 119.037 26.751 119.672 26.6527L120.598 26.5093C120.73 26.4888 120.847 26.4002 120.908 26.2684L121.282 25.4597C121.566 24.8467 122.435 24.8468 122.718 25.4599L123.093 26.2686C123.154 26.4003 123.27 26.4888 123.402 26.5093L124.328 26.6527C124.963 26.751 125.223 27.5263 124.777 27.9898L124.078 28.7164Z" fill="white"/>
<path fill-rule="evenodd" clip-rule="evenodd" d="M132.078 15.7164C131.981 15.8176 131.935 15.9645 131.958 16.1087L132.114 17.077C132.219 17.7328 131.524 18.2212 130.946 17.8973L130.19 17.4733C130.071 17.4065 129.929 17.4065 129.81 17.4733L129.054 17.8971C128.476 18.221 127.781 17.7326 127.886 17.0769L128.042 16.1092C128.065 15.9647 128.019 15.8176 127.922 15.7164L127.223 14.9899C126.777 14.5264 127.037 13.751 127.672 13.6527L128.598 13.5093C128.73 13.4888 128.847 13.4002 128.908 13.2684L129.282 12.4597C129.566 11.8467 130.435 11.8468 130.718 12.4599L131.093 13.2686C131.154 13.4003 131.27 13.4888 131.402 13.5093L132.328 13.6527C132.963 13.751 133.223 14.5263 132.777 14.9898L132.078 15.7164Z" fill="white"/>
<path fill-rule="evenodd" clip-rule="evenodd" d="M41.7854 18.8708C41.7854 18.8707 41.7855 18.8708 41.7854 18.8708C41.7859 18.8703 41.7863 18.87 41.7868 18.8695C41.9967 18.6656 42.1843 18.4388 42.3456 18.1933C42.4735 17.9986 42.5848 17.7922 42.6776 17.5759C42.7747 17.3497 42.8515 17.1128 42.9057 16.8674C42.9675 16.5881 43 16.2979 43 16C43 13.7909 41.2091 12 39 12C38.7239 12 38.4542 12.028 38.1938 12.0813C36.769 12.3728 35.6201 13.422 35.1864 14.7895C35.0653 15.1714 35 15.578 35 16C35 16.1399 35.0072 16.2782 35.0212 16.4144C35.0827 17.0123 35.2759 17.5711 35.5713 18.0614C35.6124 18.1295 35.6554 18.1962 35.7003 18.2616C35.8478 18.4763 36.0156 18.6759 36.2011 18.8576C36.2035 18.8605 36.2062 18.863 36.2088 18.8655C36.2108 18.8674 36.2127 18.8692 36.2145 18.8709C36.2145 18.871 36.2145 18.8709 36.2145 18.8709C36.9347 19.5699 37.9171 20 39 20C40.0829 20 41.0652 19.5697 41.7854 18.8708ZM37.2197 17.8718C37.0761 17.9172 36.9428 17.9822 36.8223 18.0634C37.369 18.6402 38.1425 19 39 19C39.8575 19 40.6309 18.6403 41.1776 18.0635C41.0569 17.9823 40.9233 17.9172 40.7794 17.8718L39.5954 17.4978V17.3025C39.6795 17.2525 39.7586 17.1986 39.8313 17.1478C39.8475 17.1365 39.8634 17.1254 39.8789 17.1144C39.9166 17.0879 39.9524 17.0628 39.9861 17.0401C40.1901 16.9024 40.3269 16.6879 40.3671 16.4455L40.4298 16.068C40.6277 16.068 40.7873 15.9084 40.7873 15.7106C40.7873 15.5554 40.6888 15.4237 40.551 15.374C40.6059 15.1848 40.6539 14.9939 40.6757 14.7968C40.7097 14.4996 40.6827 14.1866 40.5492 13.9267C40.3819 13.5998 40.0637 13.3941 39.735 13.3026C39.561 13.254 39.3808 13.2332 39.2021 13.229C39.0432 13.2252 38.8854 13.2346 38.7341 13.2494C38.6643 13.2563 38.5946 13.2642 38.5257 13.272L38.5112 13.2736L38.5089 13.2739C38.3375 13.2943 38.1647 13.3149 38.0009 13.3749C37.8309 13.4359 37.6696 13.5423 37.5667 13.7036L37.5449 13.7018C37.381 13.7044 37.2424 13.8562 37.1901 14.0279C37.1369 14.1996 37.1543 14.388 37.1858 14.5667C37.2346 14.8492 37.3157 15.1238 37.4263 15.3827C37.3683 15.4079 37.3184 15.448 37.2814 15.4983C37.2377 15.5575 37.2119 15.6309 37.2119 15.7106C37.2119 15.9084 37.3714 16.068 37.5693 16.068L37.6321 16.4455C37.6731 16.6879 37.8099 16.9032 38.0131 17.0401C38.0493 17.0643 38.0881 17.0915 38.129 17.1202C38.2121 17.1786 38.3044 17.2435 38.4037 17.3025V17.4978L37.2197 17.8718Z" fill="white"/>
<path fill-rule="evenodd" clip-rule="evenodd" d="M41.7854 31.8708C41.7854 31.8707 41.7855 31.8708 41.7854 31.8708C41.7859 31.8703 41.7863 31.87 41.7868 31.8695C41.9967 31.6656 42.1843 31.4388 42.3456 31.1933C42.4735 30.9986 42.5848 30.7922 42.6776 30.5759C42.7747 30.3497 42.8515 30.1128 42.9057 29.8674C42.9675 29.5881 43 29.2979 43 29C43 26.7909 41.2091 25 39 25C38.7239 25 38.4542 25.028 38.1938 25.0813C36.769 25.3728 35.6201 26.422 35.1864 27.7895C35.0653 28.1714 35 28.578 35 29C35 29.1399 35.0072 29.2782 35.0212 29.4144C35.0827 30.0123 35.2759 30.5711 35.5713 31.0614C35.6124 31.1295 35.6554 31.1962 35.7003 31.2616C35.8478 31.4763 36.0156 31.6759 36.2011 31.8576C36.2035 31.8605 36.2062 31.863 36.2088 31.8655C36.2108 31.8674 36.2127 31.8692 36.2145 31.8709C36.2145 31.871 36.2145 31.8709 36.2145 31.8709C36.9347 32.5699 37.9171 33 39 33C40.0829 33 41.0652 32.5697 41.7854 31.8708ZM37.2197 30.8718C37.0761 30.9172 36.9428 30.9822 36.8223 31.0634C37.369 31.6402 38.1425 32 39 32C39.8575 32 40.6309 31.6403 41.1776 31.0635C41.0569 30.9823 40.9233 30.9172 40.7794 30.8718L39.5954 30.4978V30.3025C39.6795 30.2525 39.7586 30.1986 39.8313 30.1478C39.8475 30.1365 39.8634 30.1254 39.8789 30.1144C39.9166 30.0879 39.9524 30.0628 39.9861 30.0401C40.1901 29.9024 40.3269 29.6879 40.3671 29.4455L40.4298 29.068C40.6277 29.068 40.7873 28.9084 40.7873 28.7106C40.7873 28.5554 40.6888 28.4237 40.551 28.374C40.6059 28.1848 40.6539 27.9939 40.6757 27.7968C40.7097 27.4996 40.6827 27.1866 40.5492 26.9267C40.3819 26.5998 40.0637 26.3941 39.735 26.3026C39.561 26.254 39.3808 26.2332 39.2021 26.229C39.0432 26.2252 38.8854 26.2346 38.7341 26.2494C38.6643 26.2563 38.5946 26.2642 38.5257 26.272L38.5112 26.2736L38.5089 26.2739C38.3375 26.2943 38.1647 26.3149 38.0009 26.3749C37.8309 26.4359 37.6696 26.5423 37.5667 26.7036L37.5449 26.7018C37.381 26.7044 37.2424 26.8562 37.1901 27.0279C37.1369 27.1996 37.1543 27.388 37.1858 27.5667C37.2346 27.8492 37.3157 28.1238 37.4263 28.3827C37.3683 28.4079 37.3184 28.448 37.2814 28.4983C37.2377 28.5575 37.2119 28.6309 37.2119 28.7106C37.2119 28.9084 37.3714 29.068 37.5693 29.068L37.6321 29.4455C37.6731 29.6879 37.8099 29.9032 38.0131 30.0401C38.0493 30.0643 38.0881 30.0915 38.129 30.1202C38.2121 30.1786 38.3044 30.2435 38.4037 30.3025V30.4978L37.2197 30.8718Z" fill="white"/>
<path fill-rule="evenodd" clip-rule="evenodd" d="M41.7854 44.8708C41.7854 44.8707 41.7855 44.8708 41.7854 44.8708C41.7859 44.8703 41.7863 44.87 41.7868 44.8695C41.9967 44.6656 42.1843 44.4388 42.3456 44.1933C42.4735 43.9986 42.5848 43.7922 42.6776 43.5759C42.7747 43.3497 42.8515 43.1128 42.9057 42.8674C42.9675 42.5881 43 42.2979 43 42C43 39.7909 41.2091 38 39 38C38.7239 38 38.4542 38.028 38.1938 38.0813C36.769 38.3728 35.6201 39.422 35.1864 40.7895C35.0653 41.1714 35 41.578 35 42C35 42.1399 35.0072 42.2782 35.0212 42.4144C35.0827 43.0123 35.2759 43.5711 35.5713 44.0614C35.6124 44.1295 35.6554 44.1962 35.7003 44.2616C35.8478 44.4763 36.0156 44.6759 36.2011 44.8576C36.2035 44.8605 36.2062 44.863 36.2088 44.8655C36.2108 44.8674 36.2127 44.8692 36.2145 44.8709C36.2145 44.871 36.2145 44.8709 36.2145 44.8709C36.9347 45.5699 37.9171 46 39 46C40.0829 46 41.0652 45.5697 41.7854 44.8708ZM37.2197 43.8718C37.0761 43.9172 36.9428 43.9822 36.8223 44.0634C37.369 44.6402 38.1425 45 39 45C39.8575 45 40.6309 44.6403 41.1776 44.0635C41.0569 43.9823 40.9233 43.9172 40.7794 43.8718L39.5954 43.4978V43.3025C39.6795 43.2525 39.7586 43.1986 39.8313 43.1478C39.8475 43.1365 39.8634 43.1254 39.8789 43.1144C39.9166 43.0879 39.9524 43.0628 39.9861 43.0401C40.1901 42.9024 40.3269 42.6879 40.3671 42.4455L40.4298 42.068C40.6277 42.068 40.7873 41.9084 40.7873 41.7106C40.7873 41.5554 40.6888 41.4237 40.551 41.374C40.6059 41.1848 40.6539 40.9939 40.6757 40.7968C40.7097 40.4996 40.6827 40.1866 40.5492 39.9267C40.3819 39.5998 40.0637 39.3941 39.735 39.3026C39.561 39.254 39.3808 39.2332 39.2021 39.229C39.0432 39.2252 38.8854 39.2346 38.7341 39.2494C38.6643 39.2563 38.5946 39.2642 38.5257 39.272L38.5112 39.2736L38.5089 39.2739C38.3375 39.2943 38.1647 39.3149 38.0009 39.3749C37.8309 39.4359 37.6696 39.5423 37.5667 39.7036L37.5449 39.7018C37.381 39.7044 37.2424 39.8562 37.1901 40.0279C37.1369 40.1996 37.1543 40.388 37.1858 40.5667C37.2346 40.8492 37.3157 41.1238 37.4263 41.3827C37.3683 41.4079 37.3184 41.448 37.2814 41.4983C37.2377 41.5575 37.2119 41.6309 37.2119 41.7106C37.2119 41.9084 37.3714 42.068 37.5693 42.068L37.6321 42.4455C37.6731 42.6879 37.8099 42.9032 38.0131 43.0401C38.0493 43.0643 38.0881 43.0915 38.129 43.1202C38.2121 43.1786 38.3044 43.2435 38.4037 43.3025V43.4978L37.2197 43.8718Z" fill="white"/>
<path fill-rule="evenodd" clip-rule="evenodd" d="M41.7854 57.8708C41.7854 57.8707 41.7855 57.8708 41.7854 57.8708C41.7859 57.8703 41.7863 57.87 41.7868 57.8695C41.9967 57.6656 42.1843 57.4388 42.3456 57.1933C42.4735 56.9986 42.5848 56.7922 42.6776 56.5759C42.7747 56.3497 42.8515 56.1128 42.9057 55.8674C42.9675 55.5881 43 55.2979 43 55C43 52.7909 41.2091 51 39 51C38.7239 51 38.4542 51.028 38.1938 51.0813C36.769 51.3728 35.6201 52.422 35.1864 53.7895C35.0653 54.1714 35 54.578 35 55C35 55.1399 35.0072 55.2782 35.0212 55.4144C35.0827 56.0123 35.2759 56.5711 35.5713 57.0614C35.6124 57.1295 35.6554 57.1962 35.7003 57.2616C35.8478 57.4763 36.0156 57.6759 36.2011 57.8576C36.2035 57.8605 36.2062 57.863 36.2088 57.8655C36.2108 57.8674 36.2127 57.8692 36.2145 57.8709C36.2145 57.871 36.2145 57.8709 36.2145 57.8709C36.9347 58.5699 37.9171 59 39 59C40.0829 59 41.0652 58.5697 41.7854 57.8708ZM37.2197 56.8718C37.0761 56.9172 36.9428 56.9822 36.8223 57.0634C37.369 57.6402 38.1425 58 39 58C39.8575 58 40.6309 57.6403 41.1776 57.0635C41.0569 56.9823 40.9233 56.9172 40.7794 56.8718L39.5954 56.4978V56.3025C39.6795 56.2525 39.7586 56.1986 39.8313 56.1478C39.8475 56.1365 39.8634 56.1254 39.8789 56.1144C39.9166 56.0879 39.9524 56.0628 39.9861 56.0401C40.1901 55.9024 40.3269 55.6879 40.3671 55.4455L40.4298 55.068C40.6277 55.068 40.7873 54.9084 40.7873 54.7106C40.7873 54.5554 40.6888 54.4237 40.551 54.374C40.6059 54.1848 40.6539 53.9939 40.6757 53.7968C40.7097 53.4996 40.6827 53.1866 40.5492 52.9267C40.3819 52.5998 40.0637 52.3941 39.735 52.3026C39.561 52.254 39.3808 52.2332 39.2021 52.229C39.0432 52.2252 38.8854 52.2346 38.7341 52.2494C38.6643 52.2563 38.5946 52.2642 38.5257 52.272L38.5112 52.2736L38.5089 52.2739C38.3375 52.2943 38.1647 52.3149 38.0009 52.3749C37.8309 52.4359 37.6696 52.5423 37.5667 52.7036L37.5449 52.7018C37.381 52.7044 37.2424 52.8562 37.1901 53.0279C37.1369 53.1996 37.1543 53.388 37.1858 53.5667C37.2346 53.8492 37.3157 54.1238 37.4263 54.3827C37.3683 54.4079 37.3184 54.448 37.2814 54.4983C37.2377 54.5575 37.2119 54.6309 37.2119 54.7106C37.2119 54.9084 37.3714 55.068 37.5693 55.068L37.6321 55.4455C37.6731 55.6879 37.8099 55.9032 38.0131 56.0401C38.0493 56.0643 38.0881 56.0915 38.129 56.1202C38.2121 56.1786 38.3044 56.2435 38.4037 56.3025V56.4978L37.2197 56.8718Z" fill="white"/>
<path fill-rule="evenodd" clip-rule="evenodd" d="M41.7854 70.8708C41.7854 70.8707 41.7855 70.8708 41.7854 70.8708C41.7859 70.8703 41.7863 70.87 41.7868 70.8695C41.9967 70.6656 42.1843 70.4388 42.3456 70.1933C42.4735 69.9986 42.5848 69.7922 42.6776 69.5759C42.7747 69.3497 42.8515 69.1128 42.9057 68.8674C42.9675 68.5881 43 68.2979 43 68C43 65.7909 41.2091 64 39 64C38.7239 64 38.4542 64.028 38.1938 64.0813C36.769 64.3728 35.6201 65.422 35.1864 66.7895C35.0653 67.1714 35 67.578 35 68C35 68.1399 35.0072 68.2782 35.0212 68.4144C35.0827 69.0123 35.2759 69.5711 35.5713 70.0614C35.6124 70.1295 35.6554 70.1962 35.7003 70.2616C35.8478 70.4763 36.0156 70.6759 36.2011 70.8576C36.2035 70.8605 36.2062 70.863 36.2088 70.8655C36.2108 70.8674 36.2127 70.8692 36.2145 70.8709C36.2145 70.871 36.2145 70.8709 36.2145 70.8709C36.9347 71.5699 37.9171 72 39 72C40.0829 72 41.0652 71.5697 41.7854 70.8708ZM37.2197 69.8718C37.0761 69.9172 36.9428 69.9822 36.8223 70.0634C37.369 70.6402 38.1425 71 39 71C39.8575 71 40.6309 70.6403 41.1776 70.0635C41.0569 69.9823 40.9233 69.9172 40.7794 69.8718L39.5954 69.4978V69.3025C39.6795 69.2525 39.7586 69.1986 39.8313 69.1478C39.8475 69.1365 39.8634 69.1254 39.8789 69.1144C39.9166 69.0879 39.9524 69.0628 39.9861 69.0401C40.1901 68.9024 40.3269 68.6879 40.3671 68.4455L40.4298 68.068C40.6277 68.068 40.7873 67.9084 40.7873 67.7106C40.7873 67.5554 40.6888 67.4237 40.551 67.374C40.6059 67.1848 40.6539 66.9939 40.6757 66.7968C40.7097 66.4996 40.6827 66.1866 40.5492 65.9267C40.3819 65.5998 40.0637 65.3941 39.735 65.3026C39.561 65.254 39.3808 65.2332 39.2021 65.229C39.0432 65.2252 38.8854 65.2346 38.7341 65.2494C38.6643 65.2563 38.5946 65.2642 38.5257 65.272L38.5112 65.2736L38.5089 65.2739C38.3375 65.2943 38.1647 65.3149 38.0009 65.3749C37.8309 65.4359 37.6696 65.5423 37.5667 65.7036L37.5449 65.7018C37.381 65.7044 37.2424 65.8562 37.1901 66.0279C37.1369 66.1996 37.1543 66.388 37.1858 66.5667C37.2346 66.8492 37.3157 67.1238 37.4263 67.3827C37.3683 67.4079 37.3184 67.448 37.2814 67.4983C37.2377 67.5575 37.2119 67.6309 37.2119 67.7106C37.2119 67.9084 37.3714 68.068 37.5693 68.068L37.6321 68.4455C37.6731 68.6879 37.8099 68.9032 38.0131 69.0401C38.0493 69.0643 38.0881 69.0915 38.129 69.1202C38.2121 69.1786 38.3044 69.2435 38.4037 69.3025V69.4978L37.2197 69.8718Z" fill="white"/>
</svg>
