<svg width="160" height="92" viewBox="0 0 160 92" fill="none" xmlns="http://www.w3.org/2000/svg">
    <path d="M146.535 3.28409V84.1524C146.535 85.4871 145.463 86.5569 144.113 86.5569H15.8874C14.5546 86.5569 13.4658 85.485 13.4658 84.1524V3.28409C13.4658 1.75773 14.7114 0.5 16.2693 0.5H143.731C145.274 0.5 146.535 1.7425 146.535 3.28409Z"
          stroke="#5256E6"/>
    <path d="M156.159 90.7475L156.159 90.7475L156.164 90.746L158.566 89.8667C159.13 89.6539 159.5 89.1165 159.5 88.4986V87.8314H0.518539V89.0534C0.518539 89.3342 0.685501 89.5808 0.938843 89.676L0.944214 89.6781L3.84151 90.8055C3.8423 90.8058 3.84311 90.8061 3.8439 90.8064C5.04729 91.263 6.3224 91.5 7.59581 91.5H152.041C153.45 91.5 154.841 91.2433 156.159 90.7475Z"
          stroke="#5256E6"/>
    <path d="M19.2588 81.6134V6.26703H141.293V81.6134H19.2588Z" stroke="#5256E6"/>
    <rect x="40.3533" y="18.8068" width="6.11465" height="1.52486" rx="0.762432" fill="#5256E6"/>
    <rect x="47.4872" y="18.8068" width="8.66242" height="1.52486" rx="0.762432" fill="#5256E6"/>
    <rect x="57.6772" y="18.8068" width="22.9299" height="1.52486" rx="0.762432" fill="#5256E6"/>
    <rect x="40.3533" y="16.2653" width="40.2548" height="1.52486" rx="0.762432" fill="#5256E6"/>
    <rect x="83.1555" y="16.2653" width="8.15287" height="1.52486" rx="0.762432" fill="#5256E6"/>
    <rect x="40.3533" y="32.0222" width="6.11465" height="1.52486" rx="0.762432" fill="#5256E6"/>
    <rect x="47.4872" y="32.0222" width="8.66242" height="1.52486" rx="0.762432" fill="#5256E6"/>
    <rect x="57.6772" y="32.0222" width="22.9299" height="1.52486" rx="0.762432" fill="#5256E6"/>
    <rect x="83.1555" y="29.6104" width="8.15287" height="1.52486" rx="0.762432" fill="#5256E6"/>
    <rect x="40.3533" y="29.4807" width="40.2548" height="1.52486" rx="0.762432" fill="#5256E6"/>
    <rect x="40.3533" y="45.2377" width="6.11465" height="1.52486" rx="0.762432" fill="#5256E6"/>
    <rect x="47.4872" y="45.2377" width="8.66242" height="1.52486" rx="0.762432" fill="#5256E6"/>
    <rect x="57.6772" y="45.2377" width="22.9299" height="1.52486" rx="0.762432" fill="#5256E6"/>
    <rect x="83.1555" y="42.8259" width="8.15287" height="1.52486" rx="0.762432" fill="#5256E6"/>
    <rect x="40.3533" y="42.6962" width="40.2548" height="1.52486" rx="0.762432" fill="#5256E6"/>
    <rect x="40.3533" y="58.4532" width="6.11465" height="1.52486" rx="0.762432" fill="#5256E6"/>
    <rect x="47.4872" y="58.4532" width="8.66242" height="1.52486" rx="0.762432" fill="#5256E6"/>
    <rect x="57.6772" y="58.4532" width="22.9299" height="1.52486" rx="0.762432" fill="#5256E6"/>
    <rect x="83.1555" y="56.0413" width="8.15287" height="1.52486" rx="0.762432" fill="#5256E6"/>
    <rect x="40.3533" y="55.9117" width="40.2548" height="1.52486" rx="0.762432" fill="#5256E6"/>
    <rect x="40.3533" y="72.1769" width="6.11465" height="1.52486" rx="0.762432" fill="#5256E6"/>
    <rect x="47.4872" y="72.1769" width="8.66242" height="1.52486" rx="0.762432" fill="#5256E6"/>
    <rect x="57.6772" y="72.1769" width="22.9299" height="1.52486" rx="0.762432" fill="#5256E6"/>
    <rect x="83.1555" y="69.7654" width="8.15287" height="1.52486" rx="0.762432" fill="#5256E6"/>
    <rect x="40.3533" y="69.6354" width="40.2548" height="1.52486" rx="0.762432" fill="#5256E6"/>
    <path d="M32.3073 13.7237C29.9984 13.7237 28.1237 15.6136 28.1237 17.9412C28.1237 20.2688 29.9984 22.1587 32.3073 22.1587C34.6163 22.1587 36.491 20.2688 36.491 17.9412C36.491 15.6202 34.6163 13.7237 32.3073 13.7237ZM29.8471 21.0844C29.9326 20.7794 30.051 20.5009 30.2615 20.3616C30.3076 20.3284 30.801 20.1494 30.9457 20.1096C31.1628 20.0566 31.3733 19.977 31.5838 19.9173C31.5706 20.0234 31.564 20.1361 31.5838 20.2356C31.643 20.5075 32.0771 20.5672 32.3205 20.5672C32.3271 20.5672 32.3337 20.5672 32.3402 20.5672C32.3468 20.5672 32.3534 20.5672 32.36 20.5672C32.6099 20.5605 33.0375 20.5075 33.0967 20.2356C33.1165 20.1428 33.1099 20.03 33.0967 19.9239C33.3072 19.9836 33.5111 20.0566 33.7216 20.1096C33.8006 20.1295 33.8861 20.1494 33.965 20.1759L34.0703 20.2091C34.1887 20.2489 34.3071 20.2953 34.4058 20.3616C34.6097 20.5075 34.7215 20.7727 34.7939 21.0645C34.1098 21.6215 33.248 21.9531 32.3008 21.9531C31.3798 21.9531 30.5247 21.6282 29.8471 21.0844ZM32.3402 19.4664C32.1034 19.4465 31.6298 19.0353 31.6298 19.0353C31.439 18.8961 31.2483 18.6773 31.1167 18.4982C30.9588 18.286 30.8865 18.1401 30.8865 17.8616C30.8865 17.7555 30.8865 17.6494 30.8931 17.5433C31.2351 17.6627 31.7153 17.5499 32.0113 17.4571C32.3008 17.3709 32.5442 17.2383 32.7876 17.0526C32.8402 17.0128 32.8862 16.9664 32.9323 16.92C33.0901 17.2648 33.4322 17.53 33.794 17.5831C33.794 17.6759 33.794 17.7688 33.794 17.855C33.794 18.1269 33.7151 18.2794 33.5638 18.4916C33.4322 18.6706 33.2414 18.8828 33.0507 19.0287C33.0507 19.0353 32.5771 19.4465 32.3402 19.4664ZM32.781 20.3815C32.6297 20.4345 32.4981 20.4611 32.3402 20.4677C32.1824 20.4677 32.0508 20.4345 31.8995 20.3815C31.6824 20.3019 31.6758 20.1295 31.6956 19.9306C31.7153 19.7051 31.7351 19.473 31.7351 19.2409C31.9127 19.3802 32.0968 19.546 32.3205 19.5725C32.3271 19.5725 32.3337 19.5791 32.3468 19.5791C32.3534 19.5791 32.3666 19.5791 32.3731 19.5725C32.5902 19.546 32.781 19.3802 32.9586 19.2409C32.9652 19.4332 32.9981 19.9173 32.9981 19.9306C33.0112 20.1295 32.9981 20.3019 32.781 20.3815ZM34.8926 20.9849C34.8202 20.7064 34.7149 20.4478 34.5176 20.3085C34.386 20.2157 34.2347 20.1494 34.0769 20.103C34.1426 19.0619 34.807 18.1401 34.8597 17.099C34.886 16.6017 34.807 15.9717 34.5308 15.5407C34.2742 15.1428 33.8335 15.0234 33.3993 15.1693C33.0704 14.4996 32.3534 14.2675 31.6495 14.3139C30.8996 14.3669 30.2813 14.9306 29.9655 15.5937C29.6564 16.2436 29.584 17.1123 29.7221 17.8086C29.8011 18.1932 29.9129 18.5579 30.0379 18.9292C30.176 19.347 30.3471 19.7316 30.3668 20.1826C30.2879 20.2157 30.2089 20.2621 30.1366 20.3085C29.9458 20.4412 29.8274 20.7131 29.7419 21.0115C28.8736 20.2754 28.321 19.1746 28.321 17.9478C28.321 15.7396 30.1037 13.9425 32.2942 13.9425C34.4847 13.9425 36.2674 15.7396 36.2674 17.9478C36.2805 19.1613 35.7411 20.2489 34.8926 20.9849Z"
          fill="#5256E6"/>
    <path d="M32.4456 18.7104C32.4127 18.7104 32.3864 18.7237 32.3666 18.7436C32.3535 18.7568 32.3272 18.7966 32.3074 18.8032C32.2943 18.7966 32.2679 18.7568 32.2482 18.7436C32.2219 18.7237 32.2022 18.7104 32.1693 18.7104C32.1101 18.7104 32.0377 18.7568 31.9982 18.8032C31.9785 18.8298 31.9851 18.8629 32.0048 18.8762C32.0246 18.9226 32.0838 18.9359 32.1232 18.9558C32.1824 18.9757 32.4324 18.9757 32.4916 18.9558C32.5311 18.9425 32.5903 18.9226 32.61 18.8762C32.6297 18.8563 32.6363 18.8231 32.6166 18.8032C32.5771 18.7568 32.5048 18.7038 32.4456 18.7104Z"
          fill="#5256E6"/>
    <path d="M32.3073 26.9392C29.9984 26.9392 28.1237 28.8291 28.1237 31.1567C28.1237 33.4843 29.9984 35.3742 32.3073 35.3742C34.6163 35.3742 36.491 33.4843 36.491 31.1567C36.491 28.8358 34.6163 26.9392 32.3073 26.9392ZM29.8471 34.2999C29.9326 33.9949 30.051 33.7164 30.2615 33.5771C30.3076 33.544 30.801 33.3649 30.9457 33.3251C31.1628 33.2721 31.3733 33.1925 31.5838 33.1328C31.5706 33.2389 31.564 33.3517 31.5838 33.4511C31.643 33.723 32.0771 33.7827 32.3205 33.7827C32.3271 33.7827 32.3337 33.7827 32.3402 33.7827C32.3468 33.7827 32.3534 33.7827 32.36 33.7827C32.6099 33.7761 33.0375 33.723 33.0967 33.4511C33.1165 33.3583 33.1099 33.2456 33.0967 33.1395C33.3072 33.1991 33.5111 33.2721 33.7216 33.3251C33.8006 33.345 33.8861 33.3649 33.965 33.3914L34.0703 33.4246C34.1887 33.4644 34.3071 33.5108 34.4058 33.5771C34.6097 33.723 34.7215 33.9883 34.7939 34.28C34.1098 34.8371 33.248 35.1686 32.3008 35.1686C31.3798 35.1686 30.5247 34.8437 29.8471 34.2999ZM32.3402 32.6819C32.1034 32.662 31.6298 32.2509 31.6298 32.2509C31.439 32.1116 31.2483 31.8928 31.1167 31.7137C30.9588 31.5015 30.8865 31.3556 30.8865 31.0771C30.8865 30.971 30.8865 30.8649 30.8931 30.7588C31.2351 30.8782 31.7153 30.7655 32.0113 30.6726C32.3008 30.5864 32.5442 30.4538 32.7876 30.2681C32.8402 30.2283 32.8862 30.1819 32.9323 30.1355C33.0901 30.4803 33.4322 30.7456 33.794 30.7986C33.794 30.8914 33.794 30.9843 33.794 31.0705C33.794 31.3424 33.7151 31.4949 33.5638 31.7071C33.4322 31.8861 33.2414 32.0983 33.0507 32.2442C33.0507 32.2509 32.5771 32.662 32.3402 32.6819ZM32.781 33.597C32.6297 33.6501 32.4981 33.6766 32.3402 33.6832C32.1824 33.6832 32.0508 33.6501 31.8995 33.597C31.6824 33.5174 31.6758 33.345 31.6956 33.1461C31.7153 32.9206 31.7351 32.6885 31.7351 32.4564C31.9127 32.5957 32.0968 32.7615 32.3205 32.788C32.3271 32.788 32.3337 32.7946 32.3468 32.7946C32.3534 32.7946 32.3666 32.7946 32.3731 32.788C32.5902 32.7615 32.781 32.5957 32.9586 32.4564C32.9652 32.6487 32.9981 33.1328 32.9981 33.1461C33.0112 33.345 32.9981 33.5174 32.781 33.597ZM34.8926 34.2005C34.8202 33.9219 34.7149 33.6633 34.5176 33.5241C34.386 33.4312 34.2347 33.3649 34.0769 33.3185C34.1426 32.2774 34.807 31.3556 34.8597 30.3145C34.886 29.8172 34.807 29.1872 34.5308 28.7562C34.2742 28.3583 33.8335 28.2389 33.3993 28.3848C33.0704 27.7151 32.3534 27.483 31.6495 27.5294C30.8996 27.5824 30.2813 28.1461 29.9655 28.8092C29.6564 29.4591 29.584 30.3278 29.7221 31.0241C29.8011 31.4087 29.9129 31.7734 30.0379 32.1448C30.176 32.5625 30.3471 32.9471 30.3668 33.3981C30.2879 33.4312 30.2089 33.4776 30.1366 33.5241C29.9458 33.6567 29.8274 33.9286 29.7419 34.227C28.8736 33.4909 28.321 32.3901 28.321 31.1633C28.321 28.9551 30.1037 27.158 32.2942 27.158C34.4847 27.158 36.2674 28.9551 36.2674 31.1633C36.2805 32.3769 35.7411 33.4644 34.8926 34.2005Z"
          fill="#5256E6"/>
    <path d="M32.4456 31.9258C32.4127 31.9258 32.3864 31.9391 32.3666 31.959C32.3535 31.9722 32.3272 32.012 32.3074 32.0186C32.2943 32.012 32.2679 31.9722 32.2482 31.959C32.2219 31.9391 32.2022 31.9258 32.1693 31.9258C32.1101 31.9258 32.0377 31.9722 31.9982 32.0186C31.9785 32.0452 31.9851 32.0783 32.0048 32.0916C32.0246 32.138 32.0838 32.1513 32.1232 32.1712C32.1824 32.191 32.4324 32.191 32.4916 32.1712C32.5311 32.1579 32.5903 32.138 32.61 32.0916C32.6297 32.0717 32.6363 32.0385 32.6166 32.0186C32.5771 31.9722 32.5048 31.9192 32.4456 31.9258Z"
          fill="#5256E6"/>
    <path d="M32.3073 40.1546C29.9984 40.1546 28.1237 42.0445 28.1237 44.3721C28.1237 46.6997 29.9984 48.5896 32.3073 48.5896C34.6163 48.5896 36.491 46.6997 36.491 44.3721C36.491 42.0512 34.6163 40.1546 32.3073 40.1546ZM29.8471 47.5153C29.9326 47.2103 30.051 46.9318 30.2615 46.7925C30.3076 46.7594 30.801 46.5803 30.9457 46.5405C31.1628 46.4875 31.3733 46.4079 31.5838 46.3482C31.5706 46.4543 31.564 46.5671 31.5838 46.6665C31.643 46.9384 32.0771 46.9981 32.3205 46.9981C32.3271 46.9981 32.3337 46.9981 32.3402 46.9981C32.3468 46.9981 32.3534 46.9981 32.36 46.9981C32.6099 46.9915 33.0375 46.9384 33.0967 46.6665C33.1165 46.5737 33.1099 46.461 33.0967 46.3549C33.3072 46.4146 33.5111 46.4875 33.7216 46.5405C33.8006 46.5604 33.8861 46.5803 33.965 46.6069L34.0703 46.64C34.1887 46.6798 34.3071 46.7262 34.4058 46.7925C34.6097 46.9384 34.7215 47.2037 34.7939 47.4955C34.1098 48.0525 33.248 48.384 32.3008 48.384C31.3798 48.384 30.5247 48.0591 29.8471 47.5153ZM32.3402 45.8973C32.1034 45.8774 31.6298 45.4663 31.6298 45.4663C31.439 45.327 31.2483 45.1082 31.1167 44.9291C30.9588 44.7169 30.8865 44.5711 30.8865 44.2925C30.8865 44.1864 30.8865 44.0803 30.8931 43.9742C31.2351 44.0936 31.7153 43.9809 32.0113 43.888C32.3008 43.8018 32.5442 43.6692 32.7876 43.4835C32.8402 43.4437 32.8862 43.3973 32.9323 43.3509C33.0901 43.6957 33.4322 43.961 33.794 44.014C33.794 44.1069 33.794 44.1997 33.794 44.2859C33.794 44.5578 33.7151 44.7103 33.5638 44.9225C33.4322 45.1016 33.2414 45.3138 33.0507 45.4597C33.0507 45.4663 32.5771 45.8774 32.3402 45.8973ZM32.781 46.8124C32.6297 46.8655 32.4981 46.892 32.3402 46.8986C32.1824 46.8986 32.0508 46.8655 31.8995 46.8124C31.6824 46.7329 31.6758 46.5604 31.6956 46.3615C31.7153 46.136 31.7351 45.9039 31.7351 45.6719C31.9127 45.8111 32.0968 45.9769 32.3205 46.0034C32.3271 46.0034 32.3337 46.01 32.3468 46.01C32.3534 46.01 32.3666 46.01 32.3731 46.0034C32.5902 45.9769 32.781 45.8111 32.9586 45.6719C32.9652 45.8642 32.9981 46.3482 32.9981 46.3615C33.0112 46.5604 32.9981 46.7329 32.781 46.8124ZM34.8926 47.4159C34.8202 47.1374 34.7149 46.8787 34.5176 46.7395C34.386 46.6466 34.2347 46.5803 34.0769 46.5339C34.1426 45.4928 34.807 44.5711 34.8597 43.53C34.886 43.0326 34.807 42.4026 34.5308 41.9716C34.2742 41.5737 33.8335 41.4544 33.3993 41.6003C33.0704 40.9305 32.3534 40.6984 31.6495 40.7448C30.8996 40.7979 30.2813 41.3615 29.9655 42.0247C29.6564 42.6745 29.584 43.5432 29.7221 44.2395C29.8011 44.6241 29.9129 44.9888 30.0379 45.3602C30.176 45.778 30.3471 46.1626 30.3668 46.6135C30.2879 46.6466 30.2089 46.6931 30.1366 46.7395C29.9458 46.8721 29.8274 47.144 29.7419 47.4424C28.8736 46.7063 28.321 45.6055 28.321 44.3788C28.321 42.1705 30.1037 40.3735 32.2942 40.3735C34.4847 40.3735 36.2674 42.1705 36.2674 44.3788C36.2805 45.5923 35.7411 46.6798 34.8926 47.4159Z"
          fill="#5256E6"/>
    <path d="M32.4456 45.1412C32.4127 45.1412 32.3864 45.1544 32.3666 45.1743C32.3535 45.1876 32.3272 45.2274 32.3074 45.234C32.2943 45.2274 32.2679 45.1876 32.2482 45.1743C32.2219 45.1544 32.2022 45.1412 32.1693 45.1412C32.1101 45.1412 32.0377 45.1876 31.9982 45.234C31.9785 45.2605 31.9851 45.2937 32.0048 45.3069C32.0246 45.3534 32.0838 45.3666 32.1232 45.3865C32.1824 45.4064 32.4324 45.4064 32.4916 45.3865C32.5311 45.3733 32.5903 45.3534 32.61 45.3069C32.6297 45.287 32.6363 45.2539 32.6166 45.234C32.5771 45.1876 32.5048 45.1345 32.4456 45.1412Z"
          fill="#5256E6"/>
    <path d="M32.3073 53.8784C29.9984 53.8784 28.1237 55.7683 28.1237 58.0958C28.1237 60.4234 29.9984 62.3133 32.3073 62.3133C34.6163 62.3133 36.491 60.4234 36.491 58.0958C36.491 55.7749 34.6163 53.8784 32.3073 53.8784ZM29.8471 61.2391C29.9326 60.934 30.051 60.6555 30.2615 60.5163C30.3076 60.4831 30.801 60.3041 30.9457 60.2643C31.1628 60.2112 31.3733 60.1316 31.5838 60.072C31.5706 60.1781 31.564 60.2908 31.5838 60.3903C31.643 60.6622 32.0771 60.7218 32.3205 60.7218C32.3271 60.7218 32.3337 60.7218 32.3402 60.7218C32.3468 60.7218 32.3534 60.7218 32.36 60.7218C32.6099 60.7152 33.0375 60.6622 33.0967 60.3903C33.1165 60.2974 33.1099 60.1847 33.0967 60.0786C33.3072 60.1383 33.5111 60.2112 33.7216 60.2643C33.8006 60.2842 33.8861 60.3041 33.965 60.3306L34.0703 60.3637C34.1887 60.4035 34.3071 60.4499 34.4058 60.5163C34.6097 60.6621 34.7215 60.9274 34.7939 61.2192C34.1098 61.7762 33.248 62.1078 32.3008 62.1078C31.3798 62.1078 30.5247 61.7828 29.8471 61.2391ZM32.3402 59.621C32.1034 59.6011 31.6298 59.19 31.6298 59.19C31.439 59.0508 31.2483 58.8319 31.1167 58.6529C30.9588 58.4407 30.8865 58.2948 30.8865 58.0163C30.8865 57.9102 30.8865 57.8041 30.8931 57.698C31.2351 57.8173 31.7153 57.7046 32.0113 57.6118C32.3008 57.5256 32.5442 57.3929 32.7876 57.2073C32.8402 57.1675 32.8862 57.1211 32.9323 57.0746C33.0901 57.4195 33.4322 57.6847 33.794 57.7378C33.794 57.8306 33.794 57.9234 33.794 58.0096C33.794 58.2815 33.7151 58.434 33.5638 58.6462C33.4322 58.8253 33.2414 59.0375 33.0507 59.1834C33.0507 59.19 32.5771 59.6011 32.3402 59.621ZM32.781 60.5362C32.6297 60.5892 32.4981 60.6157 32.3402 60.6224C32.1824 60.6224 32.0508 60.5892 31.8995 60.5362C31.6824 60.4566 31.6758 60.2842 31.6956 60.0852C31.7153 59.8598 31.7351 59.6277 31.7351 59.3956C31.9127 59.5348 32.0968 59.7006 32.3205 59.7271C32.3271 59.7271 32.3337 59.7338 32.3468 59.7338C32.3534 59.7338 32.3666 59.7338 32.3731 59.7271C32.5902 59.7006 32.781 59.5348 32.9586 59.3956C32.9652 59.5879 32.9981 60.072 32.9981 60.0852C33.0112 60.2842 32.9981 60.4566 32.781 60.5362ZM34.8926 61.1396C34.8202 60.8611 34.7149 60.6025 34.5176 60.4632C34.386 60.3704 34.2347 60.3041 34.0769 60.2576C34.1426 59.2165 34.807 58.2948 34.8597 57.2537C34.886 56.7563 34.807 56.1264 34.5308 55.6953C34.2742 55.2974 33.8335 55.1781 33.3993 55.324C33.0704 54.6542 32.3534 54.4221 31.6495 54.4685C30.8996 54.5216 30.2813 55.0852 29.9655 55.7484C29.6564 56.3982 29.584 57.2669 29.7221 57.9632C29.8011 58.3478 29.9129 58.7126 30.0379 59.0839C30.176 59.5017 30.3471 59.8863 30.3668 60.3372C30.2879 60.3704 30.2089 60.4168 30.1366 60.4632C29.9458 60.5958 29.8274 60.8677 29.7419 61.1661C28.8736 60.4301 28.321 59.3293 28.321 58.1025C28.321 55.8943 30.1037 54.0972 32.2942 54.0972C34.4847 54.0972 36.2674 55.8943 36.2674 58.1025C36.2805 59.316 35.7411 60.4035 34.8926 61.1396Z"
          fill="#5256E6"/>
    <path d="M32.4456 58.8649C32.4127 58.8649 32.3864 58.8782 32.3666 58.8981C32.3535 58.9114 32.3272 58.9512 32.3074 58.9578C32.2943 58.9512 32.2679 58.9114 32.2482 58.8981C32.2219 58.8782 32.2022 58.8649 32.1693 58.8649C32.1101 58.8649 32.0377 58.9114 31.9982 58.9578C31.9785 58.9843 31.9851 59.0175 32.0048 59.0307C32.0246 59.0771 32.0838 59.0904 32.1232 59.1103C32.1824 59.1302 32.4324 59.1302 32.4916 59.1103C32.5311 59.097 32.5903 59.0771 32.61 59.0307C32.6297 59.0108 32.6363 58.9777 32.6166 58.9578C32.5771 58.9114 32.5048 58.8583 32.4456 58.8649Z"
          fill="#5256E6"/>
    <path d="M32.3073 67.6024C29.9984 67.6024 28.1237 69.4924 28.1237 71.8199C28.1237 74.1475 29.9984 76.0374 32.3073 76.0374C34.6163 76.0374 36.491 74.1475 36.491 71.8199C36.491 69.499 34.6163 67.6024 32.3073 67.6024ZM29.8471 74.9632C29.9326 74.6581 30.051 74.3796 30.2615 74.2404C30.3076 74.2072 30.801 74.0282 30.9457 73.9884C31.1628 73.9353 31.3733 73.8557 31.5838 73.7961C31.5706 73.9022 31.564 74.0149 31.5838 74.1144C31.643 74.3862 32.0771 74.4459 32.3205 74.4459C32.3271 74.4459 32.3337 74.4459 32.3402 74.4459C32.3468 74.4459 32.3534 74.4459 32.36 74.4459C32.6099 74.4393 33.0375 74.3862 33.0967 74.1144C33.1165 74.0215 33.1099 73.9088 33.0967 73.8027C33.3072 73.8624 33.5111 73.9353 33.7216 73.9884C33.8006 74.0083 33.8861 74.0282 33.965 74.0547L34.0703 74.0878C34.1887 74.1276 34.3071 74.174 34.4058 74.2404C34.6097 74.3862 34.7215 74.6515 34.7939 74.9433C34.1098 75.5003 33.248 75.8319 32.3008 75.8319C31.3798 75.8319 30.5247 75.5069 29.8471 74.9632ZM32.3402 73.3451C32.1034 73.3252 31.6298 72.9141 31.6298 72.9141C31.439 72.7748 31.2483 72.556 31.1167 72.377C30.9588 72.1648 30.8865 72.0189 30.8865 71.7404C30.8865 71.6343 30.8865 71.5282 30.8931 71.4221C31.2351 71.5414 31.7153 71.4287 32.0113 71.3359C32.3008 71.2496 32.5442 71.117 32.7876 70.9313C32.8402 70.8916 32.8862 70.8451 32.9323 70.7987C33.0901 71.1435 33.4322 71.4088 33.794 71.4618C33.794 71.5547 33.794 71.6475 33.794 71.7337C33.794 72.0056 33.7151 72.1581 33.5638 72.3703C33.4322 72.5494 33.2414 72.7616 33.0507 72.9075C33.0507 72.9141 32.5771 73.3252 32.3402 73.3451ZM32.781 74.2602C32.6297 74.3133 32.4981 74.3398 32.3402 74.3465C32.1824 74.3465 32.0508 74.3133 31.8995 74.2602C31.6824 74.1807 31.6758 74.0083 31.6956 73.8093C31.7153 73.5839 31.7351 73.3518 31.7351 73.1197C31.9127 73.2589 32.0968 73.4247 32.3205 73.4512C32.3271 73.4512 32.3337 73.4579 32.3468 73.4579C32.3534 73.4579 32.3666 73.4579 32.3731 73.4512C32.5902 73.4247 32.781 73.2589 32.9586 73.1197C32.9652 73.312 32.9981 73.7961 32.9981 73.8093C33.0112 74.0083 32.9981 74.1807 32.781 74.2602ZM34.8926 74.8637C34.8202 74.5852 34.7149 74.3266 34.5176 74.1873C34.386 74.0945 34.2347 74.0282 34.0769 73.9817C34.1426 72.9406 34.807 72.0189 34.8597 70.9778C34.886 70.4804 34.807 69.8504 34.5308 69.4194C34.2742 69.0215 33.8335 68.9022 33.3993 69.0481C33.0704 68.3783 32.3534 68.1462 31.6495 68.1926C30.8996 68.2457 30.2813 68.8093 29.9655 69.4725C29.6564 70.1223 29.584 70.991 29.7221 71.6873C29.8011 72.0719 29.9129 72.4366 30.0379 72.808C30.176 73.2258 30.3471 73.6104 30.3668 74.0613C30.2879 74.0945 30.2089 74.1409 30.1366 74.1873C29.9458 74.3199 29.8274 74.5918 29.7419 74.8902C28.8736 74.1541 28.321 73.0534 28.321 71.8266C28.321 69.6184 30.1037 67.8213 32.2942 67.8213C34.4847 67.8213 36.2674 69.6184 36.2674 71.8266C36.2805 73.0401 35.7411 74.1276 34.8926 74.8637Z"
          fill="#5256E6"/>
    <path d="M32.4456 72.5892C32.4127 72.5892 32.3864 72.6025 32.3666 72.6223C32.3535 72.6356 32.3272 72.6754 32.3074 72.682C32.2943 72.6754 32.2679 72.6356 32.2482 72.6223C32.2219 72.6025 32.2022 72.5892 32.1693 72.5892C32.1101 72.5892 32.0377 72.6356 31.9982 72.682C31.9785 72.7086 31.9851 72.7417 32.0048 72.755C32.0246 72.8014 32.0838 72.8147 32.1232 72.8345C32.1824 72.8544 32.4324 72.8544 32.4916 72.8345C32.5311 72.8213 32.5903 72.8014 32.61 72.755C32.6297 72.7351 32.6363 72.7019 32.6166 72.682C32.5771 72.6356 32.5048 72.5826 32.4456 72.5892Z"
          fill="#5256E6"/>
    <g clip-path="url(#clip0_532_7495)">
        <path d="M103.631 15.82C103.662 15.7556 103.725 15.7147 103.793 15.7147C103.862 15.7147 103.925 15.7556 103.955 15.82L104.537 17.0513C104.563 17.107 104.614 17.1456 104.673 17.1545L105.974 17.3519C106.042 17.3623 106.098 17.4122 106.12 17.4805C106.141 17.5488 106.123 17.624 106.074 17.6741L105.133 18.6326C105.09 18.676 105.071 18.7385 105.081 18.7998L105.303 20.1532C105.314 20.2241 105.287 20.2957 105.231 20.338C105.175 20.3801 105.101 20.3857 105.04 20.3525L103.877 19.7134C103.824 19.6845 103.761 19.6845 103.709 19.7134L102.546 20.3524C102.485 20.3857 102.411 20.3803 102.355 20.338C102.299 20.2958 102.272 20.2241 102.283 20.1532L102.505 18.7998C102.515 18.7385 102.496 18.676 102.453 18.6326L101.512 17.6741C101.463 17.6239 101.445 17.5488 101.466 17.4805C101.488 17.4122 101.544 17.3623 101.612 17.3519L102.913 17.1545C102.972 17.1456 103.023 17.107 103.049 17.0512L103.631 15.82Z"
              fill="#5256E6"/>
    </g>
    <g clip-path="url(#clip1_532_7495)">
        <path d="M109.236 15.82C109.266 15.7556 109.329 15.7147 109.398 15.7147C109.467 15.7147 109.53 15.7556 109.56 15.82L110.142 17.0513C110.168 17.107 110.219 17.1456 110.278 17.1545L111.578 17.3519C111.647 17.3623 111.703 17.4122 111.724 17.4805C111.745 17.5488 111.728 17.624 111.678 17.6741L110.737 18.6326C110.695 18.676 110.675 18.7385 110.685 18.7998L110.907 20.1532C110.919 20.2241 110.891 20.2957 110.835 20.338C110.78 20.3801 110.706 20.3857 110.645 20.3525L109.482 19.7134C109.429 19.6845 109.366 19.6845 109.313 19.7134L108.15 20.3524C108.089 20.3857 108.015 20.3803 107.96 20.338C107.904 20.2958 107.876 20.2241 107.888 20.1532L108.11 18.7998C108.12 18.7385 108.1 18.676 108.058 18.6326L107.117 17.6741C107.067 17.6239 107.05 17.5488 107.071 17.4805C107.092 17.4122 107.149 17.3623 107.217 17.3519L108.518 17.1545C108.577 17.1456 108.628 17.107 108.654 17.0512L109.236 15.82Z"
              fill="#5256E6"/>
    </g>
    <g clip-path="url(#clip2_532_7495)">
        <path d="M114.84 15.82C114.871 15.7556 114.934 15.7147 115.002 15.7147C115.071 15.7147 115.134 15.7556 115.165 15.82L115.746 17.0513C115.772 17.107 115.823 17.1456 115.882 17.1545L117.183 17.3519C117.251 17.3623 117.308 17.4122 117.329 17.4805C117.35 17.5488 117.332 17.624 117.283 17.6741L116.342 18.6326C116.299 18.676 116.28 18.7385 116.29 18.7998L116.512 20.1532C116.524 20.2241 116.496 20.2957 116.44 20.338C116.384 20.3801 116.311 20.3857 116.25 20.3525L115.086 19.7134C115.034 19.6845 114.971 19.6845 114.918 19.7134L113.755 20.3524C113.694 20.3857 113.62 20.3803 113.564 20.338C113.509 20.2958 113.481 20.2241 113.492 20.1532L113.714 18.7998C113.725 18.7385 113.705 18.676 113.662 18.6326L112.721 17.6741C112.672 17.6239 112.654 17.5488 112.676 17.4805C112.697 17.4122 112.753 17.3623 112.822 17.3519L114.122 17.1545C114.181 17.1456 114.232 17.107 114.258 17.0512L114.84 15.82Z"
              fill="#5256E6"/>
    </g>
    <g clip-path="url(#clip3_532_7495)">
        <path d="M120.446 15.82C120.477 15.7556 120.54 15.7147 120.609 15.7147C120.677 15.7147 120.74 15.7556 120.771 15.82L121.352 17.0513C121.379 17.107 121.43 17.1456 121.488 17.1545L122.789 17.3519C122.857 17.3623 122.914 17.4122 122.935 17.4805C122.956 17.5488 122.938 17.624 122.889 17.6741L121.948 18.6326C121.906 18.676 121.886 18.7385 121.896 18.7998L122.118 20.1532C122.13 20.2241 122.102 20.2957 122.046 20.338C121.99 20.3801 121.917 20.3857 121.856 20.3525L120.692 19.7134C120.64 19.6845 120.577 19.6845 120.524 19.7134L119.361 20.3524C119.3 20.3857 119.226 20.3803 119.17 20.338C119.115 20.2958 119.087 20.2241 119.098 20.1532L119.321 18.7998C119.331 18.7385 119.311 18.676 119.268 18.6326L118.327 17.6741C118.278 17.6239 118.26 17.5488 118.282 17.4805C118.303 17.4122 118.359 17.3623 118.428 17.3519L119.728 17.1545C119.787 17.1456 119.838 17.107 119.865 17.0512L120.446 15.82Z"
              fill="#5256E6"/>
    </g>
    <g clip-path="url(#clip4_532_7495)">
        <path d="M126.051 15.82C126.082 15.7556 126.144 15.7147 126.213 15.7147C126.282 15.7147 126.345 15.7556 126.375 15.82L126.957 17.0513C126.983 17.107 127.034 17.1456 127.093 17.1545L128.394 17.3519C128.462 17.3623 128.518 17.4122 128.54 17.4805C128.561 17.5488 128.543 17.624 128.494 17.6741L127.553 18.6326C127.51 18.676 127.491 18.7385 127.501 18.7998L127.723 20.1532C127.734 20.2241 127.707 20.2957 127.651 20.338C127.595 20.3801 127.521 20.3857 127.46 20.3525L126.297 19.7134C126.244 19.6845 126.181 19.6845 126.129 19.7134L124.965 20.3524C124.905 20.3857 124.831 20.3803 124.775 20.338C124.719 20.2958 124.691 20.2241 124.703 20.1532L124.925 18.7998C124.935 18.7385 124.916 18.676 124.873 18.6326L123.932 17.6741C123.883 17.6239 123.865 17.5488 123.886 17.4805C123.908 17.4122 123.964 17.3623 124.032 17.3519L125.333 17.1545C125.392 17.1456 125.443 17.107 125.469 17.0512L126.051 15.82Z"
              fill="#5256E6"/>
    </g>
    <g clip-path="url(#clip5_532_7495)">
        <path d="M103.63 29.0351C103.661 28.9707 103.724 28.9298 103.793 28.9298C103.861 28.9298 103.924 28.9707 103.955 29.0351L104.536 30.2664C104.563 30.322 104.614 30.3607 104.673 30.3696L105.973 30.567C106.041 30.5774 106.098 30.6273 106.119 30.6956C106.14 30.7639 106.122 30.8391 106.073 30.8892L105.132 31.8477C105.09 31.8911 105.07 31.9536 105.08 32.0149L105.302 33.3683C105.314 33.4392 105.286 33.5108 105.23 33.5531C105.174 33.5952 105.101 33.6008 105.04 33.5675L103.876 32.9285C103.824 32.8995 103.761 32.8995 103.708 32.9285L102.545 33.5674C102.484 33.6008 102.41 33.5953 102.354 33.5531C102.299 33.5109 102.271 33.4392 102.282 33.3683L102.505 32.0149C102.515 31.9536 102.495 31.8911 102.452 31.8477L101.512 30.8892C101.462 30.839 101.444 30.7639 101.466 30.6956C101.487 30.6273 101.544 30.5774 101.612 30.567L102.913 30.3696C102.971 30.3607 103.022 30.322 103.049 30.2662L103.63 29.0351Z"
              fill="#5256E6"/>
    </g>
    <g clip-path="url(#clip6_532_7495)">
        <path d="M103.63 42.2509C103.661 42.1864 103.724 42.1456 103.793 42.1456C103.861 42.1456 103.924 42.1864 103.955 42.2509L104.536 43.4821C104.563 43.5378 104.614 43.5765 104.673 43.5854L105.973 43.7828C106.041 43.7931 106.098 43.843 106.119 43.9114C106.14 43.9797 106.122 44.0549 106.073 44.105L105.132 45.0635C105.09 45.1068 105.07 45.1694 105.08 45.2307L105.302 46.584C105.314 46.655 105.286 46.7266 105.23 46.7689C105.174 46.811 105.101 46.8166 105.04 46.7833L103.876 46.1443C103.824 46.1153 103.761 46.1153 103.708 46.1443L102.545 46.7832C102.484 46.8166 102.41 46.8111 102.354 46.7689C102.299 46.7267 102.271 46.655 102.282 46.584L102.505 45.2307C102.515 45.1694 102.495 45.1068 102.452 45.0635L101.512 44.105C101.462 44.0548 101.444 43.9797 101.466 43.9114C101.487 43.843 101.544 43.7931 101.612 43.7828L102.913 43.5854C102.971 43.5765 103.022 43.5378 103.049 43.482L103.63 42.2509Z"
              fill="#5256E6"/>
    </g>
    <g clip-path="url(#clip7_532_7495)">
        <path d="M103.63 55.9746C103.661 55.9102 103.724 55.8693 103.793 55.8693C103.861 55.8693 103.924 55.9102 103.955 55.9746L104.536 57.2059C104.563 57.2616 104.614 57.3002 104.673 57.3091L105.973 57.5066C106.041 57.5169 106.098 57.5668 106.119 57.6351C106.14 57.7034 106.122 57.7786 106.073 57.8287L105.132 58.7872C105.09 58.8306 105.07 58.8931 105.08 58.9544L105.302 60.3078C105.314 60.3787 105.286 60.4503 105.23 60.4926C105.174 60.5348 105.101 60.5403 105.04 60.5071L103.876 59.868C103.824 59.8391 103.761 59.8391 103.708 59.868L102.545 60.507C102.484 60.5403 102.41 60.5349 102.354 60.4926C102.299 60.4504 102.271 60.3787 102.282 60.3078L102.505 58.9544C102.515 58.8931 102.495 58.8306 102.452 58.7872L101.512 57.8287C101.462 57.7785 101.444 57.7034 101.466 57.6351C101.487 57.5668 101.544 57.5169 101.612 57.5066L102.913 57.3091C102.971 57.3002 103.022 57.2616 103.049 57.2058L103.63 55.9746Z"
              fill="#5256E6"/>
    </g>
    <g clip-path="url(#clip8_532_7495)">
        <path d="M103.63 69.1901C103.661 69.1257 103.724 69.0848 103.793 69.0848C103.861 69.0848 103.924 69.1257 103.955 69.1901L104.536 70.4214C104.563 70.477 104.614 70.5157 104.673 70.5246L105.973 70.722C106.041 70.7324 106.098 70.7823 106.119 70.8506C106.14 70.9189 106.122 70.9941 106.073 71.0442L105.132 72.0027C105.09 72.0461 105.07 72.1086 105.08 72.1699L105.302 73.5233C105.314 73.5942 105.286 73.6658 105.23 73.7081C105.174 73.7502 105.101 73.7558 105.04 73.7225L103.876 73.0835C103.824 73.0545 103.761 73.0545 103.708 73.0835L102.545 73.7224C102.484 73.7558 102.41 73.7503 102.354 73.7081C102.299 73.6659 102.271 73.5942 102.282 73.5233L102.505 72.1699C102.515 72.1086 102.495 72.0461 102.452 72.0027L101.512 71.0442C101.462 70.994 101.444 70.9189 101.466 70.8506C101.487 70.7823 101.544 70.7324 101.612 70.722L102.913 70.5246C102.971 70.5157 103.022 70.477 103.049 70.4212L103.63 69.1901Z"
              fill="#5256E6"/>
    </g>
    <g clip-path="url(#clip9_532_7495)">
        <path d="M109.235 29.0351C109.266 28.9707 109.328 28.9298 109.397 28.9298C109.466 28.9298 109.529 28.9707 109.559 29.0351L110.141 30.2664C110.167 30.322 110.218 30.3607 110.277 30.3696L111.578 30.567C111.646 30.5774 111.702 30.6273 111.723 30.6956C111.745 30.7639 111.727 30.8391 111.678 30.8892L110.737 31.8477C110.694 31.8911 110.675 31.9536 110.685 32.0149L110.907 33.3683C110.918 33.4392 110.891 33.5108 110.835 33.5531C110.779 33.5952 110.705 33.6008 110.644 33.5675L109.481 32.9285C109.428 32.8995 109.365 32.8995 109.313 32.9285L108.149 33.5674C108.089 33.6008 108.015 33.5953 107.959 33.5531C107.903 33.5109 107.875 33.4392 107.887 33.3683L108.109 32.0149C108.119 31.9536 108.1 31.8911 108.057 31.8477L107.116 30.8892C107.067 30.839 107.049 30.7639 107.07 30.6956C107.092 30.6273 107.148 30.5774 107.216 30.567L108.517 30.3696C108.576 30.3607 108.627 30.322 108.653 30.2662L109.235 29.0351Z"
              fill="#5256E6"/>
    </g>
    <path d="M109.235 42.2509C109.266 42.1864 109.328 42.1456 109.397 42.1456C109.466 42.1456 109.529 42.1864 109.559 42.2509L110.141 43.4821C110.167 43.5378 110.218 43.5765 110.277 43.5854L111.578 43.7828C111.646 43.7931 111.702 43.843 111.723 43.9114C111.745 43.9797 111.727 44.0549 111.678 44.105L110.737 45.0635C110.694 45.1068 110.675 45.1694 110.685 45.2307L110.907 46.584C110.918 46.655 110.891 46.7266 110.835 46.7689C110.779 46.811 110.705 46.8166 110.644 46.7833L109.481 46.1443C109.428 46.1153 109.365 46.1153 109.313 46.1443L108.149 46.7832C108.089 46.8166 108.015 46.8111 107.959 46.7689C107.903 46.7267 107.875 46.655 107.887 46.584L108.109 45.2307C108.119 45.1694 108.1 45.1068 108.057 45.0635L107.116 44.105C107.067 44.0548 107.049 43.9797 107.07 43.9114C107.092 43.843 107.148 43.7931 107.216 43.7828L108.517 43.5854C108.576 43.5765 108.627 43.5378 108.653 43.482L109.235 42.2509Z"
          fill="#5256E6"/>
    <g clip-path="url(#clip10_532_7495)">
        <path d="M109.235 55.9746C109.266 55.9102 109.328 55.8693 109.397 55.8693C109.466 55.8693 109.529 55.9102 109.559 55.9746L110.141 57.2059C110.167 57.2616 110.218 57.3002 110.277 57.3091L111.578 57.5066C111.646 57.5169 111.702 57.5668 111.723 57.6351C111.745 57.7034 111.727 57.7786 111.678 57.8287L110.737 58.7872C110.694 58.8306 110.675 58.8931 110.685 58.9544L110.907 60.3078C110.918 60.3787 110.891 60.4503 110.835 60.4926C110.779 60.5348 110.705 60.5403 110.644 60.5071L109.481 59.868C109.428 59.8391 109.365 59.8391 109.313 59.868L108.149 60.507C108.089 60.5403 108.015 60.5349 107.959 60.4926C107.903 60.4504 107.875 60.3787 107.887 60.3078L108.109 58.9544C108.119 58.8931 108.1 58.8306 108.057 58.7872L107.116 57.8287C107.067 57.7785 107.049 57.7034 107.07 57.6351C107.092 57.5668 107.148 57.5169 107.216 57.5066L108.517 57.3091C108.576 57.3002 108.627 57.2616 108.653 57.2058L109.235 55.9746Z"
              fill="#5256E6"/>
    </g>
    <g clip-path="url(#clip11_532_7495)">
        <path d="M114.84 29.0351C114.871 28.9707 114.934 28.9298 115.002 28.9298C115.071 28.9298 115.134 28.9707 115.165 29.0351L115.746 30.2664C115.772 30.322 115.823 30.3607 115.882 30.3696L117.183 30.567C117.251 30.5774 117.308 30.6273 117.329 30.6956C117.35 30.7639 117.332 30.8391 117.283 30.8892L116.342 31.8477C116.299 31.8911 116.28 31.9536 116.29 32.0149L116.512 33.3683C116.524 33.4392 116.496 33.5108 116.44 33.5531C116.384 33.5952 116.311 33.6008 116.25 33.5675L115.086 32.9285C115.034 32.8995 114.971 32.8995 114.918 32.9285L113.755 33.5674C113.694 33.6008 113.62 33.5953 113.564 33.5531C113.509 33.5109 113.481 33.4392 113.492 33.3683L113.714 32.0149C113.725 31.9536 113.705 31.8911 113.662 31.8477L112.721 30.8892C112.672 30.839 112.654 30.7639 112.676 30.6956C112.697 30.6273 112.753 30.5774 112.822 30.567L114.122 30.3696C114.181 30.3607 114.232 30.322 114.258 30.2662L114.84 29.0351Z"
              fill="#5256E6"/>
    </g>
    <g clip-path="url(#clip12_532_7495)">
        <path d="M114.84 42.2509C114.871 42.1864 114.934 42.1456 115.002 42.1456C115.071 42.1456 115.134 42.1864 115.165 42.2509L115.746 43.4821C115.772 43.5378 115.823 43.5765 115.882 43.5854L117.183 43.7828C117.251 43.7931 117.308 43.843 117.329 43.9114C117.35 43.9797 117.332 44.0549 117.283 44.105L116.342 45.0635C116.299 45.1068 116.28 45.1694 116.29 45.2307L116.512 46.584C116.524 46.655 116.496 46.7266 116.44 46.7689C116.384 46.811 116.311 46.8166 116.25 46.7833L115.086 46.1443C115.034 46.1153 114.971 46.1153 114.918 46.1443L113.755 46.7832C113.694 46.8166 113.62 46.8111 113.564 46.7689C113.509 46.7267 113.481 46.655 113.492 46.584L113.714 45.2307C113.725 45.1694 113.705 45.1068 113.662 45.0635L112.721 44.105C112.672 44.0548 112.654 43.9797 112.676 43.9114C112.697 43.843 112.753 43.7931 112.822 43.7828L114.122 43.5854C114.181 43.5765 114.232 43.5378 114.258 43.482L114.84 42.2509Z"
              fill="#5256E6"/>
    </g>
    <g clip-path="url(#clip13_532_7495)">
        <path d="M114.84 55.9746C114.871 55.9102 114.934 55.8693 115.002 55.8693C115.071 55.8693 115.134 55.9102 115.165 55.9746L115.746 57.2059C115.772 57.2616 115.823 57.3002 115.882 57.3091L117.183 57.5066C117.251 57.5169 117.308 57.5668 117.329 57.6351C117.35 57.7034 117.332 57.7786 117.283 57.8287L116.342 58.7872C116.299 58.8306 116.28 58.8931 116.29 58.9544L116.512 60.3078C116.524 60.3787 116.496 60.4503 116.44 60.4926C116.384 60.5348 116.311 60.5403 116.25 60.5071L115.086 59.868C115.034 59.8391 114.971 59.8391 114.918 59.868L113.755 60.507C113.694 60.5403 113.62 60.5349 113.564 60.4926C113.509 60.4504 113.481 60.3787 113.492 60.3078L113.714 58.9544C113.725 58.8931 113.705 58.8306 113.662 58.7872L112.721 57.8287C112.672 57.7785 112.654 57.7034 112.676 57.6351C112.697 57.5668 112.753 57.5169 112.822 57.5066L114.122 57.3091C114.181 57.3002 114.232 57.2616 114.258 57.2058L114.84 55.9746Z"
              fill="#5256E6"/>
    </g>
    <g clip-path="url(#clip14_532_7495)">
        <path d="M120.446 29.0351C120.476 28.9707 120.539 28.9298 120.608 28.9298C120.677 28.9298 120.74 28.9707 120.77 29.0351L121.351 30.2664C121.378 30.322 121.429 30.3607 121.488 30.3696L122.788 30.567C122.856 30.5774 122.913 30.6273 122.934 30.6956C122.955 30.7639 122.938 30.8391 122.888 30.8892L121.947 31.8477C121.905 31.8911 121.885 31.9536 121.895 32.0149L122.117 33.3683C122.129 33.4392 122.101 33.5108 122.045 33.5531C121.99 33.5952 121.916 33.6008 121.855 33.5675L120.692 32.9285C120.639 32.8995 120.576 32.8995 120.523 32.9285L119.36 33.5674C119.299 33.6008 119.225 33.5953 119.17 33.5531C119.114 33.5109 119.086 33.4392 119.098 33.3683L119.32 32.0149C119.33 31.9536 119.31 31.8911 119.268 31.8477L118.327 30.8892C118.277 30.839 118.26 30.7639 118.281 30.6956C118.302 30.6273 118.359 30.5774 118.427 30.567L119.728 30.3696C119.787 30.3607 119.838 30.322 119.864 30.2662L120.446 29.0351Z"
              fill="#5256E6"/>
    </g>
    <path d="M120.446 42.2509C120.476 42.1864 120.539 42.1456 120.608 42.1456C120.677 42.1456 120.74 42.1864 120.77 42.2509L121.351 43.4821C121.378 43.5378 121.429 43.5765 121.488 43.5854L122.788 43.7828C122.856 43.7931 122.913 43.843 122.934 43.9114C122.955 43.9797 122.938 44.0549 122.888 44.105L121.947 45.0635C121.905 45.1068 121.885 45.1694 121.895 45.2307L122.117 46.584C122.129 46.655 122.101 46.7266 122.045 46.7689C121.99 46.811 121.916 46.8166 121.855 46.7833L120.692 46.1443C120.639 46.1153 120.576 46.1153 120.523 46.1443L119.36 46.7832C119.299 46.8166 119.225 46.8111 119.17 46.7689C119.114 46.7267 119.086 46.655 119.098 46.584L119.32 45.2307C119.33 45.1694 119.31 45.1068 119.268 45.0635L118.327 44.105C118.277 44.0548 118.26 43.9797 118.281 43.9114C118.302 43.843 118.359 43.7931 118.427 43.7828L119.728 43.5854C119.787 43.5765 119.838 43.5378 119.864 43.482L120.446 42.2509Z"
          fill="#5256E6"/>
    <g clip-path="url(#clip15_532_7495)">
        <path d="M126.05 29.0351C126.081 28.9707 126.144 28.9298 126.212 28.9298C126.281 28.9298 126.344 28.9707 126.375 29.0351L126.956 30.2664C126.982 30.322 127.033 30.3607 127.092 30.3696L128.393 30.567C128.461 30.5774 128.518 30.6273 128.539 30.6956C128.56 30.7639 128.542 30.8391 128.493 30.8892L127.552 31.8477C127.509 31.8911 127.49 31.9536 127.5 32.0149L127.722 33.3683C127.734 33.4392 127.706 33.5108 127.65 33.5531C127.594 33.5952 127.521 33.6008 127.46 33.5675L126.296 32.9285C126.244 32.8995 126.181 32.8995 126.128 32.9285L124.965 33.5674C124.904 33.6008 124.83 33.5953 124.774 33.5531C124.719 33.5109 124.691 33.4392 124.702 33.3683L124.924 32.0149C124.934 31.9536 124.915 31.8911 124.872 31.8477L123.931 30.8892C123.882 30.839 123.864 30.7639 123.886 30.6956C123.907 30.6273 123.963 30.5774 124.032 30.567L125.332 30.3696C125.391 30.3607 125.442 30.322 125.468 30.2662L126.05 29.0351Z"
              fill="#5256E6"/>
    </g>
    <defs>
        <clipPath id="clip0_532_7495">
            <rect width="5.6051" height="5.59117" fill="white" transform="translate(100.99 15.2488)"/>
        </clipPath>
        <clipPath id="clip1_532_7495">
            <rect width="5.6051" height="5.59117" fill="white" transform="translate(106.595 15.2488)"/>
        </clipPath>
        <clipPath id="clip2_532_7495">
            <rect width="5.6051" height="5.59117" fill="white" transform="translate(112.2 15.2488)"/>
        </clipPath>
        <clipPath id="clip3_532_7495">
            <rect width="5.6051" height="5.59117" fill="white" transform="translate(117.806 15.2488)"/>
        </clipPath>
        <clipPath id="clip4_532_7495">
            <rect width="5.6051" height="5.59117" fill="white" transform="translate(123.41 15.2488)"/>
        </clipPath>
        <clipPath id="clip5_532_7495">
            <rect width="5.6051" height="5.59117" fill="white" transform="translate(100.99 28.4639)"/>
        </clipPath>
        <clipPath id="clip6_532_7495">
            <rect width="5.6051" height="5.59117" fill="white" transform="translate(100.99 41.6797)"/>
        </clipPath>
        <clipPath id="clip7_532_7495">
            <rect width="5.6051" height="5.59117" fill="white" transform="translate(100.99 55.4034)"/>
        </clipPath>
        <clipPath id="clip8_532_7495">
            <rect width="5.6051" height="5.59117" fill="white" transform="translate(100.99 68.6189)"/>
        </clipPath>
        <clipPath id="clip9_532_7495">
            <rect width="5.6051" height="5.59117" fill="white" transform="translate(106.594 28.4639)"/>
        </clipPath>
        <clipPath id="clip10_532_7495">
            <rect width="5.6051" height="5.59117" fill="white" transform="translate(106.594 55.4034)"/>
        </clipPath>
        <clipPath id="clip11_532_7495">
            <rect width="5.6051" height="5.59117" fill="white" transform="translate(112.2 28.4639)"/>
        </clipPath>
        <clipPath id="clip12_532_7495">
            <rect width="5.6051" height="5.59117" fill="white" transform="translate(112.2 41.6797)"/>
        </clipPath>
        <clipPath id="clip13_532_7495">
            <rect width="5.6051" height="5.59117" fill="white" transform="translate(112.2 55.4034)"/>
        </clipPath>
        <clipPath id="clip14_532_7495">
            <rect width="5.6051" height="5.59117" fill="white" transform="translate(117.805 28.4639)"/>
        </clipPath>
        <clipPath id="clip15_532_7495">
            <rect width="5.6051" height="5.59117" fill="white" transform="translate(123.41 28.4639)"/>
        </clipPath>
    </defs>
</svg>
