<svg width="160" height="92" viewBox="0 0 160 92" fill="none" xmlns="http://www.w3.org/2000/svg">
    <path d="M146.534 3.28409V84.1524C146.534 85.4871 145.462 86.5569 144.112 86.5569H15.8864C14.5536 86.5569 13.4648 85.485 13.4648 84.1524V3.28409C13.4648 1.75773 14.7104 0.5 16.2684 0.5H143.73C145.273 0.5 146.534 1.7425 146.534 3.28409Z"
          stroke="#5256E6"/>
    <path d="M156.159 90.7477L156.159 90.7477L156.164 90.7462L158.566 89.8669C159.13 89.6541 159.5 89.1167 159.5 88.4988V87.8316H0.518539V89.0537C0.518539 89.3344 0.685501 89.581 0.938843 89.6762L0.944214 89.6783L3.84151 90.8057C3.8423 90.806 3.84311 90.8063 3.8439 90.8066C5.04729 91.2632 6.3224 91.5002 7.59581 91.5002H152.041C153.45 91.5002 154.841 91.2435 156.159 90.7477Z"
          stroke="#5256E6"/>
    <path d="M19.2578 81.6135V6.26709H141.292V81.6135H19.2578Z" stroke="#5256E6"/>
    <path d="M62.5 24C51.1863 24 42 33.1863 42 44.5C42 55.8137 51.1863 65 62.5 65C73.8137 65 83 55.8137 83 44.5C83 33.2186 73.7815 24 62.5 24ZM59.4701 49.7539C60.2437 50.4953 61.1785 51.2689 62.2421 51.43C62.2744 51.4623 62.3066 51.4623 62.3711 51.4623C62.4033 51.4623 62.4355 51.4623 62.5 51.4623C62.5322 51.4623 62.5645 51.4623 62.6289 51.4623C62.6934 51.4623 62.7256 51.4623 62.7579 51.43C63.8216 51.2689 64.7563 50.5275 65.5299 49.7539C65.5621 50.9143 65.7555 52.0747 65.7555 53.2351C65.7233 54.8467 64.1761 56.2649 62.5322 56.3294C60.8884 56.2649 59.309 54.8467 59.309 53.2351C59.2445 52.0747 59.4379 50.9143 59.4701 49.7539ZM56.7304 45.1124C56.0535 43.8553 56.0535 42.6627 56.1502 41.2767C56.2146 39.9552 56.2791 38.6659 56.3758 37.3766C56.5692 37.3766 56.7948 37.3443 57.0204 37.2799C57.3428 37.1509 57.5039 36.8931 57.5684 36.603C57.923 36.8286 58.4065 36.8931 58.7932 36.7319C58.8899 36.6997 58.9544 36.603 59.0189 36.4741C59.5991 37.441 60.6627 37.8601 61.8554 37.7634C62.4678 37.7311 63.2414 37.1187 63.6926 36.4418C63.8216 36.6352 64.0472 36.7964 64.3373 36.9253C64.7885 37.1187 65.2398 37.0542 65.6266 36.8608C65.7877 37.1187 66.0456 37.3443 66.4002 37.5377C67.206 37.9245 67.8829 37.9245 68.592 37.6022C68.6887 38.827 68.7209 40.0519 68.7854 41.309C68.8499 42.695 68.8821 43.8876 68.2052 45.1447C67.4639 46.4984 66.787 47.82 65.6266 48.8836C64.7241 49.7217 63.7571 50.8498 62.4355 50.9465C61.1462 50.8498 60.147 49.7217 59.2445 48.8836C58.1486 47.7877 57.4717 46.4984 56.7304 45.1124ZM76.1667 58.3601C75.6187 57.3931 75.0708 56.3939 74.6195 55.3947C73.9426 53.8797 72.5244 53.8152 71.0417 53.3962C69.3978 52.9127 67.7862 52.2681 66.1745 51.7524C66.1745 51.7524 66.1745 51.7524 66.1423 51.7524C66.0456 50.9143 65.9811 50.1085 66.0134 49.2704V49.2382C66.9481 48.2712 67.7217 47.3042 68.3341 46.0794C68.6242 45.467 68.9788 44.8868 69.2044 44.2744C69.2044 44.2421 69.2044 44.2421 69.2044 44.2099C70.5904 44.4678 70.2036 42.0503 70.526 41.309C70.6871 40.9222 70.7516 40.5998 70.7194 40.3098C72.2665 40.5354 72.8467 37.989 71.7508 37.1509C72.2665 36.7641 72.6533 36.0228 72.5889 35.4748C72.4599 34.25 72.0087 33.3797 70.8161 32.8962C71.0095 32.6384 71.0739 32.316 70.945 31.9615C70.7516 31.4135 70.2681 31.0912 69.7524 31.0912C69.8813 30.4465 69.7846 29.7374 69.4945 29.3829C68.8499 28.6415 67.625 28.0613 66.6903 28.4803C66.6258 28.2547 66.5291 28.0613 66.4002 27.9324C66.1423 27.6745 65.7233 27.6745 65.3687 27.8357C65.2076 27.3844 64.8852 26.9976 64.434 26.8687C64.1439 26.8042 63.7893 26.8365 63.467 26.9332C63.0157 26.5786 62.3066 26.7075 61.8554 27.0621C61.4686 26.8365 60.9851 26.7398 60.6305 26.8687C60.1793 26.9976 59.8247 27.3844 59.6958 27.8357C59.3412 27.7068 58.9222 27.6745 58.6643 27.9324C58.5354 28.0613 58.4387 28.2547 58.3742 28.4803C57.4395 28.0291 56.1824 28.6093 55.57 29.3829C55.2799 29.7374 55.1832 30.4465 55.3121 31.0912C54.7642 31.0912 54.2807 31.4135 54.1195 31.9615C53.9906 32.316 54.0873 32.6384 54.2484 32.8962C53.0558 33.3475 52.6046 34.2178 52.4756 35.4748C52.4112 36.0228 52.798 36.7641 53.3137 37.1509C52.1855 37.989 52.7657 40.5354 54.3451 40.3098C54.3129 40.5998 54.3774 40.9544 54.5385 41.309C54.8609 42.0181 54.5063 44.4033 55.8278 44.2099V44.2421C56.0535 44.8868 56.408 45.467 56.6981 46.0472C57.3428 47.3042 58.1164 48.239 59.0189 49.206V49.2382C59.0511 50.0763 58.9866 50.8821 58.8899 51.7201H58.8577C57.2138 52.2036 55.6344 52.8805 53.9906 53.364C52.5079 53.783 51.0896 53.8475 50.4127 55.3624C49.9615 56.3616 49.4135 57.3609 48.8656 58.3278C45.2877 54.7822 43.0959 49.8829 43.0959 44.5C43.0959 33.7665 51.831 25.0314 62.5645 25.0314C73.298 25.0314 82.033 33.7665 82.033 44.5C81.9686 49.9151 79.7445 54.8145 76.1667 58.3601ZM69.3656 41.9858C69.3333 41.2767 69.3011 40.5676 69.2689 39.8585C70.2036 39.6973 70.2681 40.6643 69.978 41.3412C69.9135 41.4701 69.8813 41.5991 69.8491 41.7602C69.8168 42.0503 69.8813 43.6942 69.3333 43.7264C69.43 43.1462 69.3978 42.566 69.3656 41.9858ZM55.6344 43.6942C55.1187 43.5975 55.1832 42.0503 55.151 41.7602C55.151 41.6313 55.0865 41.4701 55.022 41.3412C54.7319 40.6965 54.7964 39.7296 55.6989 39.8585C55.6667 40.5676 55.6344 41.2767 55.6022 41.9858C55.57 42.566 55.5377 43.114 55.6344 43.6942Z"
          fill="#5256E6"/>
    <path d="M63.821 47.8519C64.0466 47.7552 64.2723 47.6585 64.3689 47.4973C64.4656 47.3362 64.5301 47.2073 64.5623 47.0461C64.5946 47.0139 64.5946 46.9816 64.5946 46.9494C64.6268 46.9172 64.659 46.8849 64.659 46.8205C64.659 46.5948 64.5946 46.337 64.2722 46.2403C63.9822 46.1436 63.7243 46.0469 63.3697 46.0469C62.9829 46.0469 62.6928 46.208 62.4672 46.4014C62.2738 46.208 61.9837 46.0469 61.5647 46.0469C61.2101 46.0469 60.9523 46.1113 60.6622 46.2403C60.3399 46.3692 60.2754 46.6271 60.2754 46.8205C60.2754 46.8849 60.3076 46.9172 60.3399 46.9494C60.3399 46.9816 60.3399 47.0139 60.3721 47.0461C60.4043 47.2073 60.4688 47.3684 60.5655 47.4973C60.6622 47.6585 60.8878 47.7552 61.1134 47.8519C61.468 47.9808 62.016 48.0453 62.435 47.9808C62.8862 48.0453 63.4664 47.9808 63.821 47.8519Z"
          fill="#5256E6"/>
    <rect x="87" y="37" width="33" height="6" rx="3" fill="#5256E6"/>
    <rect x="87" y="46" width="24" height="6" rx="3" fill="#5256E6"/>
    <path d="M42 26.8621C42 25.8337 42.8059 25 43.8 25H52.2C53.1941 25 54 25.8337 54 26.8621V33.069C54 34.0974 53.1941 34.931 52.2 34.931H50.7C50.1334 34.931 49.5999 35.207 49.26 35.6759L48.48 36.7517C48.24 37.0828 47.76 37.0828 47.52 36.7517L46.74 35.6759C46.4001 35.207 45.8666 34.931 45.3 34.931H43.8C42.8059 34.931 42 34.0974 42 33.069V26.8621Z"
          fill="#5256E6"/>
    <path d="M82.9949 61.056C82.9538 60.6223 82.6691 60.1949 82.1246 59.7492C81.4839 59.2248 80.9892 58.9708 80.5679 58.9498C80.0417 58.9236 79.7249 59.2495 79.3895 59.5946C79.3552 59.6298 79.3205 59.6656 79.2848 59.7018C79.2642 59.7226 79.2307 59.7461 79.154 59.7423C78.9308 59.7312 78.3441 59.5009 76.9224 58.0841C76.3059 57.4693 75.8517 56.9495 75.5725 56.5391C75.2949 56.1313 75.1908 55.8257 75.294 55.7214C75.3294 55.6855 75.3646 55.6504 75.3992 55.616C75.7038 55.3126 75.9916 55.026 76.0293 54.5889C76.0695 54.1247 75.8208 53.5943 75.2232 52.8692C74.761 52.3075 74.3198 52.0236 73.8742 52.0014C73.2695 51.9712 72.827 52.4456 72.4715 52.8266C72.4089 52.8938 72.3497 52.9573 72.292 53.0158C71.8616 53.4509 71.9094 54.433 72.4195 55.6427C72.9722 56.9531 74.0013 58.3975 75.3174 59.7099C77.6597 62.045 79.8243 62.94 80.9662 62.9969C81.4278 63.0198 81.7858 62.9164 82.0017 62.6977C82.06 62.6386 82.1229 62.5782 82.1895 62.5143C82.5749 62.1447 83.0546 61.6847 82.9949 61.056Z"
          fill="#5256E6"/>
</svg>
