<svg width="160" height="92" viewBox="0 0 160 92" fill="none" xmlns="http://www.w3.org/2000/svg">
<path fill-rule="evenodd" clip-rule="evenodd" d="M16 1C14.7174 1 14 1.75109 14 3.00046V83.0005C14 84.0523 14.9387 85.0005 16 85.0005L144 85.0002C145.077 85.0002 146.016 84.0561 146.016 83.0002V3.00023C146.016 1.73925 145.271 1 144 1H16ZM13 3.00046C13 1.19711 14.1668 0 16 0H144C145.815 0 147.016 1.17803 147.016 3.00023V83.0002C147.016 84.6137 145.623 86.0002 144 86.0002L16 86.0005C14.3957 86.0005 13 84.6138 13 83.0005V3.00046Z" fill="white"/>
<path fill-rule="evenodd" clip-rule="evenodd" d="M0.000647973 88.9819C0.0105552 87.8845 0.903034 87 2.00056 87H158.833C159.477 87 160 87.5225 160 88.1671C160 88.9891 159.486 90.0471 158.724 90.3347L158.719 90.3365L156.303 91.221L156.3 91.2219C154.931 91.7345 153.487 92.0002 152.022 92.0002H7.57727C6.24232 92.0002 4.90737 91.752 3.64853 91.2743L3.64164 91.2717L0.740965 90.143C0.286037 89.9704 0 89.5322 0 89.0537L0.000647973 88.9819ZM1.01854 88L1 89.0537C1 89.1355 1.04644 89.1895 1.09618 89.2082L1.10225 89.2105L4.00162 90.3387L4.00277 90.3392C5.15055 90.7747 6.36561 91.0002 7.57727 91.0002H152.022C153.37 91.0002 154.702 90.7547 155.964 90.2797L155.981 90.2736L155.988 90.2715L158.371 89.3991L158.373 89.3985C158.737 89.2601 159 88.5803 159 88.1671V88H1.01854Z" fill="white"/>
<path fill-rule="evenodd" clip-rule="evenodd" d="M16 5.00023C16 3.89566 16.8954 3.00023 18 3.00023H142C143.105 3.00023 144 3.89566 144 5.00023V81.0002C144 82.1048 143.105 83.0002 142 83.0002H18C16.8954 83.0002 16 82.1048 16 81.0002V5.00023ZM18 4.00023C17.4477 4.00023 17 4.44794 17 5.00023V81.0002C17 81.5525 17.4477 82.0002 18 82.0002H142C142.552 82.0002 143 81.5525 143 81.0002V5.00023C143 4.44794 142.552 4.00023 142 4.00023H18Z" fill="white"/>
<path fill-rule="evenodd" clip-rule="evenodd" d="M40.5709 27.7415C40.5708 27.7414 40.5709 27.7417 40.5709 27.7415C40.5717 27.7406 40.5727 27.74 40.5735 27.739C40.9933 27.3312 41.3685 26.8777 41.6912 26.3865C41.9469 25.9973 42.1696 25.5844 42.3552 25.1519C42.5494 24.6995 42.703 24.2256 42.8115 23.7347C42.9349 23.1762 43 22.5958 43 22C43 17.5817 39.4183 14 35 14C34.4477 14 33.9085 14.056 33.3877 14.1625C30.5379 14.7456 28.2402 16.8439 27.3728 19.579C27.1307 20.3427 27 21.1561 27 22C27 22.2799 27.0144 22.5563 27.0424 22.8287C27.1654 24.0246 27.5517 25.1421 28.1427 26.1227C28.2248 26.2589 28.3108 26.3925 28.4006 26.5232C28.6955 26.9527 29.0312 27.3519 29.4022 27.7153C29.407 27.7209 29.4123 27.7261 29.4176 27.731C29.4215 27.7347 29.4254 27.7383 29.429 27.7419C29.429 27.742 29.429 27.7418 29.429 27.7419C30.8694 29.1398 32.8343 30 35 30C37.1657 30 39.1305 29.1394 40.5709 27.7415ZM31.4394 25.7436C31.1523 25.8343 30.8856 25.9644 30.6445 26.1267C31.738 27.2804 33.285 28 35 28C36.7149 28 38.2618 27.2805 39.3552 26.127C39.1138 25.9645 38.8467 25.8344 38.5589 25.7436L36.1909 24.9956V24.6049C36.359 24.505 36.5172 24.3973 36.6627 24.2957C36.695 24.273 36.7268 24.2507 36.7578 24.2289C36.8333 24.1758 36.9048 24.1255 36.9721 24.0802C37.3801 23.8047 37.6538 23.3757 37.7342 22.8909L37.8597 22.1359C38.2554 22.1359 38.5745 21.8168 38.5745 21.4211C38.5745 21.1107 38.3776 20.8474 38.102 20.748C38.2119 20.3697 38.3078 19.9877 38.3514 19.5937C38.4194 18.9992 38.3653 18.3732 38.0985 17.8535C37.7637 17.1996 37.1274 16.7881 36.47 16.6051C36.1219 16.5081 35.7616 16.4664 35.4042 16.458C35.0864 16.4505 34.7709 16.4692 34.4682 16.4987C34.3287 16.5127 34.1892 16.5283 34.0514 16.5439L34.0225 16.5472L34.0178 16.5477C33.6751 16.5886 33.3294 16.6299 33.0018 16.7498C32.6617 16.8718 32.3393 17.0845 32.1334 17.4072L32.0899 17.4036C31.7621 17.4088 31.4848 17.7123 31.3801 18.0558C31.2737 18.3993 31.3087 18.776 31.3715 19.1334C31.4692 19.6984 31.6313 20.2475 31.8526 20.7654C31.7366 20.8158 31.6368 20.896 31.5628 20.9966C31.4754 21.115 31.4238 21.2617 31.4238 21.4211C31.4238 21.8168 31.7429 22.1359 32.1386 22.1359L32.2642 22.8909C32.3462 23.3757 32.6199 23.8064 33.0262 24.0802C33.0987 24.1285 33.1761 24.1829 33.258 24.2404C33.4242 24.3573 33.6088 24.4869 33.8074 24.6049V24.9956L31.4394 25.7436Z" fill="white"/>
<path d="M27 35C27 34.4477 27.4477 34 28 34H42C42.5523 34 43 34.4477 43 35C43 35.5523 42.5523 36 42 36H28C27.4477 36 27 35.5523 27 35Z" fill="white"/>
<path d="M27 43C27 42.4477 27.4477 42 28 42H42C42.5523 42 43 42.4477 43 43C43 43.5523 42.5523 44 42 44H28C27.4477 44 27 43.5523 27 43Z" fill="white"/>
<path d="M27 47C27 46.4477 27.4477 46 28 46H42C42.5523 46 43 46.4477 43 47C43 47.5523 42.5523 48 42 48H28C27.4477 48 27 47.5523 27 47Z" fill="white"/>
<path d="M27 59C27 58.4477 27.4477 58 28 58H42C42.5523 58 43 58.4477 43 59C43 59.5523 42.5523 60 42 60H28C27.4477 60 27 59.5523 27 59Z" fill="white"/>
<path d="M27 39C27 38.4477 27.4477 38 28 38H33C33.5523 38 34 38.4477 34 39C34 39.5523 33.5523 40 33 40H28C27.4477 40 27 39.5523 27 39Z" fill="white"/>
<path d="M27 71C27 70.4477 27.4477 70 28 70H30C30.5523 70 31 70.4477 31 71C31 71.5523 30.5523 72 30 72H28C27.4477 72 27 71.5523 27 71Z" fill="white"/>
<path d="M27 51C27 50.4477 27.4477 50 28 50H37C37.5523 50 38 50.4477 38 51C38 51.5523 37.5523 52 37 52H28C27.4477 52 27 51.5523 27 51Z" fill="white"/>
<path d="M27 63C27 62.4477 27.4477 62 28 62H37C37.5523 62 38 62.4477 38 63C38 63.5523 37.5523 64 37 64H28C27.4477 64 27 63.5523 27 63Z" fill="white"/>
<path d="M36 39C36 38.4477 36.4477 38 37 38H42C42.5523 38 43 38.4477 43 39C43 39.5523 42.5523 40 42 40H37C36.4477 40 36 39.5523 36 39Z" fill="white"/>
<path d="M27 55C27 54.4477 27.4477 54 28 54H33C33.5523 54 34 54.4477 34 55C34 55.5523 33.5523 56 33 56H28C27.4477 56 27 55.5523 27 55Z" fill="white"/>
<path d="M27 67C27 66.4477 27.4477 66 28 66H33C33.5523 66 34 66.4477 34 67C34 67.5523 33.5523 68 33 68H28C27.4477 68 27 67.5523 27 67Z" fill="white"/>
<rect x="121" y="15" width="4" height="4" rx="1" transform="rotate(90 121 15)" fill="white"/>
<rect x="127" y="15" width="4" height="4" rx="1" transform="rotate(90 127 15)" fill="white"/>
<rect x="133" y="15" width="4" height="4" rx="1" transform="rotate(90 133 15)" fill="white"/>
<circle cx="60.5" cy="18.5" r="2.5" fill="white"/>
<circle cx="60.5" cy="18.5" r="4" stroke="white"/>
<path d="M69 16C69 15.4477 69.4477 15 70 15H112C112.552 15 113 15.4477 113 16C113 16.5523 112.552 17 112 17H70C69.4477 17 69 16.5523 69 16Z" fill="white"/>
<path d="M69 20C69 19.4477 69.4477 19 70 19H80C80.5523 19 81 19.4477 81 20C81 20.5523 80.5523 21 80 21H70C69.4477 21 69 20.5523 69 20Z" fill="white"/>
<rect x="121" y="32" width="4" height="4" rx="1" transform="rotate(90 121 32)" fill="white"/>
<rect x="127" y="32" width="4" height="4" rx="1" transform="rotate(90 127 32)" fill="white"/>
<rect x="133" y="32" width="4" height="4" rx="1" transform="rotate(90 133 32)" fill="white"/>
<circle cx="60.5" cy="35.5" r="2.5" fill="white"/>
<circle cx="60.5" cy="35.5" r="4" stroke="white"/>
<path d="M69 33C69 32.4477 69.4477 32 70 32H112C112.552 32 113 32.4477 113 33C113 33.5523 112.552 34 112 34H70C69.4477 34 69 33.5523 69 33Z" fill="white"/>
<path d="M69 37C69 36.4477 69.4477 36 70 36H80C80.5523 36 81 36.4477 81 37C81 37.5523 80.5523 38 80 38H70C69.4477 38 69 37.5523 69 37Z" fill="white"/>
<path d="M60 22.5C60 22.2239 60.2239 22 60.5 22C60.7761 22 61 22.2239 61 22.5V31.5C61 31.7761 60.7761 32 60.5 32C60.2239 32 60 31.7761 60 31.5V22.5Z" fill="white"/>
<path d="M60 39.5C60 39.2239 60.2239 39 60.5 39C60.7761 39 61 39.2239 61 39.5V48.5C61 48.7761 60.7761 49 60.5 49C60.2239 49 60 48.7761 60 48.5V39.5Z" fill="white"/>
<path d="M60 56.5C60 56.2239 60.2239 56 60.5 56C60.7761 56 61 56.2239 61 56.5V65.5C61 65.7761 60.7761 66 60.5 66C60.2239 66 60 65.7761 60 65.5V56.5Z" fill="white"/>
<rect x="121" y="49" width="4" height="4" rx="1" transform="rotate(90 121 49)" fill="white"/>
<rect x="127" y="49" width="4" height="4" rx="1" transform="rotate(90 127 49)" fill="white"/>
<rect x="133" y="49" width="4" height="4" rx="1" transform="rotate(90 133 49)" fill="white"/>
<circle cx="60.5" cy="52.5" r="2.5" fill="white"/>
<circle cx="60.5" cy="52.5" r="4" stroke="white"/>
<path d="M69 50C69 49.4477 69.4477 49 70 49H112C112.552 49 113 49.4477 113 50C113 50.5523 112.552 51 112 51H70C69.4477 51 69 50.5523 69 50Z" fill="white"/>
<path d="M69 54C69 53.4477 69.4477 53 70 53H80C80.5523 53 81 53.4477 81 54C81 54.5523 80.5523 55 80 55H70C69.4477 55 69 54.5523 69 54Z" fill="white"/>
<rect x="121" y="66" width="4" height="4" rx="1" transform="rotate(90 121 66)" fill="white"/>
<rect x="127" y="66" width="4" height="4" rx="1" transform="rotate(90 127 66)" fill="white"/>
<rect x="133" y="66" width="4" height="4" rx="1" transform="rotate(90 133 66)" fill="white"/>
<circle cx="60.5" cy="69.5" r="2.5" fill="white"/>
<circle cx="60.5" cy="69.5" r="4" stroke="white"/>
<path d="M69 67C69 66.4477 69.4477 66 70 66H112C112.552 66 113 66.4477 113 67C113 67.5523 112.552 68 112 68H70C69.4477 68 69 67.5523 69 67Z" fill="white"/>
<path d="M69 71C69 70.4477 69.4477 70 70 70H80C80.5523 70 81 70.4477 81 71C81 71.5523 80.5523 72 80 72H70C69.4477 72 69 71.5523 69 71Z" fill="white"/>
</svg>
