<svg width="160" height="92" viewBox="0 0 160 92" fill="none" xmlns="http://www.w3.org/2000/svg">
    <path d="M146.535 3.28409V84.1524C146.535 85.4871 145.463 86.5569 144.113 86.5569H15.8873C14.5545 86.5569 13.4657 85.485 13.4657 84.1524V3.28409C13.4657 1.75773 14.7113 0.5 16.2692 0.5H143.731C145.274 0.5 146.535 1.7425 146.535 3.28409Z"
          stroke="#5256E6"/>
    <path d="M156.159 90.7475L156.159 90.7475L156.164 90.746L158.566 89.8667C159.13 89.6539 159.5 89.1165 159.5 88.4986V87.8315H0.518539V89.0535C0.518539 89.3342 0.685501 89.5808 0.938843 89.676L0.944214 89.6781L3.84151 90.8055C3.8423 90.8058 3.84311 90.8061 3.8439 90.8064C5.04729 91.2631 6.3224 91.5 7.59581 91.5H152.041C153.45 91.5 154.841 91.2433 156.159 90.7475Z"
          stroke="#5256E6"/>
    <path d="M19.2588 81.6134V6.26703H141.293V81.6134H19.2588Z" stroke="#5256E6"/>
    <path d="M19.2595 81.6134V6.26703H141.294V81.6134H19.2595Z" stroke="#5256E6"/>
    <rect x="40.3533" y="18.3322" width="6.11465" height="1.52486" rx="0.762432" fill="#5256E6"/>
    <rect x="47.4872" y="18.3322" width="8.66242" height="1.52486" rx="0.762432" fill="#5256E6"/>
    <rect x="57.678" y="18.3322" width="22.9299" height="1.52486" rx="0.762432" fill="#5256E6"/>
    <rect x="40.3533" y="15.7906" width="40.2548" height="1.52486" rx="0.762432" fill="#5256E6"/>
    <rect x="83.1562" y="15.7906" width="8.15287" height="1.52486" rx="0.762432" fill="#5256E6"/>
    <rect x="95.3845" y="15.7906" width="8.15287" height="1.52486" rx="0.762432" fill="#5256E6"/>
    <rect width="16.0618" height="1.52486" rx="0.762432"
          transform="matrix(0.999941 -0.0108328 0.0108869 0.999941 110.162 15.8351)" fill="#5256E6"/>
    <rect x="40.3533" y="31.5477" width="6.11465" height="1.52486" rx="0.762432" fill="#5256E6"/>
    <rect x="47.4872" y="31.5477" width="8.66242" height="1.52486" rx="0.762432" fill="#5256E6"/>
    <rect x="57.678" y="31.5477" width="22.9299" height="1.52486" rx="0.762432" fill="#5256E6"/>
    <rect x="83.1562" y="29.1361" width="8.15287" height="1.52486" rx="0.762432" fill="#5256E6"/>
    <rect x="95.3845" y="29.1361" width="8.15287" height="1.52486" rx="0.762432" fill="#5256E6"/>
    <rect width="16.0618" height="1.52486" rx="0.762432"
          transform="matrix(0.999941 -0.0108328 0.0108869 0.999941 110.162 29.1803)" fill="#5256E6"/>
    <rect x="40.3533" y="29.0063" width="40.2548" height="1.52486" rx="0.762432" fill="#5256E6"/>
    <rect x="40.3533" y="44.7631" width="6.11465" height="1.52486" rx="0.762432" fill="#5256E6"/>
    <rect x="47.4872" y="44.7631" width="8.66242" height="1.52486" rx="0.762432" fill="#5256E6"/>
    <rect x="57.678" y="44.7631" width="22.9299" height="1.52486" rx="0.762432" fill="#5256E6"/>
    <rect x="83.1562" y="42.3515" width="8.15287" height="1.52486" rx="0.762432" fill="#5256E6"/>
    <rect x="95.3845" y="42.3515" width="8.15287" height="1.52486" rx="0.762432" fill="#5256E6"/>
    <rect width="16.0618" height="1.52486" rx="0.762432"
          transform="matrix(0.999941 -0.0108328 0.0108869 0.999941 110.162 42.3957)" fill="#5256E6"/>
    <rect x="40.3533" y="42.2216" width="40.2548" height="1.52486" rx="0.762432" fill="#5256E6"/>
    <rect x="40.3533" y="57.9786" width="6.11465" height="1.52486" rx="0.762432" fill="#5256E6"/>
    <rect x="47.4872" y="57.9786" width="8.66242" height="1.52486" rx="0.762432" fill="#5256E6"/>
    <rect x="57.678" y="57.9786" width="22.9299" height="1.52486" rx="0.762432" fill="#5256E6"/>
    <rect x="83.1562" y="55.5672" width="8.15287" height="1.52486" rx="0.762432" fill="#5256E6"/>
    <rect x="95.3845" y="55.5672" width="8.15287" height="1.52486" rx="0.762432" fill="#5256E6"/>
    <rect width="16.0618" height="1.52486" rx="0.762432"
          transform="matrix(0.999941 -0.0108328 0.0108869 0.999941 110.162 55.6112)" fill="#5256E6"/>
    <rect x="40.3533" y="55.4371" width="40.2548" height="1.52486" rx="0.762432" fill="#5256E6"/>
    <rect x="40.3533" y="71.7027" width="6.11465" height="1.52486" rx="0.762432" fill="#5256E6"/>
    <rect x="47.4872" y="71.7027" width="8.66242" height="1.52486" rx="0.762432" fill="#5256E6"/>
    <rect x="57.678" y="71.7027" width="22.9299" height="1.52486" rx="0.762432" fill="#5256E6"/>
    <rect x="83.1562" y="69.2908" width="8.15287" height="1.52486" rx="0.762432" fill="#5256E6"/>
    <rect x="95.3845" y="69.2908" width="8.15287" height="1.52486" rx="0.762432" fill="#5256E6"/>
    <rect width="16.0618" height="1.52486" rx="0.762432"
          transform="matrix(0.999941 -0.0108328 0.0108869 0.999941 110.162 69.3349)" fill="#5256E6"/>
    <rect x="40.3533" y="69.1613" width="40.2548" height="1.52486" rx="0.762432" fill="#5256E6"/>
    <path fill-rule="evenodd" clip-rule="evenodd"
          d="M35.0877 18.8746L34.8159 18.6035C34.5442 18.3324 34.1365 18.3324 33.8648 18.6035L33.7289 18.7391C33.627 18.8407 33.4571 18.8746 33.3212 18.8068C32.8796 18.6035 32.472 18.3324 32.0983 17.9597C31.7246 17.587 31.4529 17.1803 31.2491 16.7398C31.1811 16.6043 31.2151 16.4348 31.317 16.2993L31.4529 16.1637C31.7246 15.8927 31.7246 15.486 31.4529 15.2149L31.1811 14.9439C30.9094 14.6728 30.5017 14.6728 30.2299 14.9439L29.9922 15.1811C29.7544 15.4183 29.6185 15.791 29.7204 16.1637C29.8902 17.0448 30.3998 18.0275 31.2491 18.8407C32.0643 19.654 33.0495 20.1962 33.9327 20.3656C34.3064 20.4334 34.6461 20.3317 34.9178 20.0606L35.1556 19.8234C35.3255 19.5862 35.3255 19.1457 35.0877 18.8746Z"
          fill="#5256E6"/>
    <path fill-rule="evenodd" clip-rule="evenodd"
          d="M35.0877 32.0901L34.8159 31.819C34.5442 31.548 34.1365 31.548 33.8648 31.819L33.7289 31.9546C33.627 32.0562 33.4571 32.0901 33.3212 32.0224C32.8796 31.819 32.472 31.548 32.0983 31.1752C31.7246 30.8025 31.4529 30.3958 31.2491 29.9553C31.1811 29.8198 31.2151 29.6503 31.317 29.5148L31.4529 29.3793C31.7246 29.1082 31.7246 28.7015 31.4529 28.4305L31.1811 28.1594C30.9094 27.8883 30.5017 27.8883 30.2299 28.1594L29.9922 28.3966C29.7544 28.6338 29.6185 29.0065 29.7204 29.3793C29.8902 30.2603 30.3998 31.243 31.2491 32.0562C32.0643 32.8695 33.0495 33.4117 33.9327 33.5811C34.3064 33.6489 34.6461 33.5472 34.9178 33.2761L35.1556 33.0389C35.3255 32.8017 35.3255 32.3612 35.0877 32.0901Z"
          fill="#5256E6"/>
    <path fill-rule="evenodd" clip-rule="evenodd"
          d="M35.0877 45.3055L34.8159 45.0344C34.5442 44.7633 34.1365 44.7633 33.8648 45.0344L33.7289 45.17C33.627 45.2716 33.4571 45.3055 33.3212 45.2378C32.8796 45.0344 32.472 44.7633 32.0983 44.3906C31.7246 44.0179 31.4529 43.6112 31.2491 43.1707C31.1811 43.0352 31.2151 42.8657 31.317 42.7302L31.4529 42.5947C31.7246 42.3236 31.7246 41.9169 31.4529 41.6458L31.1811 41.3748C30.9094 41.1037 30.5017 41.1037 30.2299 41.3748L29.9922 41.612C29.7544 41.8492 29.6185 42.2219 29.7204 42.5947C29.8902 43.4757 30.3998 44.4584 31.2491 45.2716C32.0643 46.0849 33.0495 46.6271 33.9327 46.7965C34.3064 46.8643 34.6461 46.7626 34.9178 46.4915L35.1556 46.2543C35.3255 46.0171 35.3255 45.5766 35.0877 45.3055Z"
          fill="#5256E6"/>
    <path fill-rule="evenodd" clip-rule="evenodd"
          d="M35.0877 59.0293L34.8159 58.7583C34.5442 58.4872 34.1365 58.4872 33.8648 58.7583L33.7289 58.8938C33.627 58.9955 33.4571 59.0293 33.3212 58.9616C32.8796 58.7583 32.472 58.4872 32.0983 58.1144C31.7246 57.7417 31.4529 57.335 31.2491 56.8945C31.1811 56.759 31.2151 56.5896 31.317 56.454L31.4529 56.3185C31.7246 56.0474 31.7246 55.6408 31.4529 55.3697L31.1811 55.0986C30.9094 54.8275 30.5017 54.8275 30.2299 55.0986L29.9922 55.3358C29.7544 55.573 29.6185 55.9457 29.7204 56.3185C29.8902 57.1995 30.3998 58.1822 31.2491 58.9955C32.0643 59.8087 33.0495 60.3509 33.9327 60.5203C34.3064 60.5881 34.6461 60.4864 34.9178 60.2153L35.1556 59.9781C35.3255 59.7409 35.3255 59.3004 35.0877 59.0293Z"
          fill="#5256E6"/>
    <path fill-rule="evenodd" clip-rule="evenodd"
          d="M35.0877 72.2448L34.8159 71.9737C34.5442 71.7026 34.1365 71.7026 33.8648 71.9737L33.7289 72.1092C33.627 72.2109 33.4571 72.2448 33.3212 72.177C32.8796 71.9737 32.472 71.7026 32.0983 71.3298C31.7246 70.9571 31.4529 70.5505 31.2491 70.11C31.1811 69.9744 31.2151 69.805 31.317 69.6694L31.4529 69.5339C31.7246 69.2628 31.7246 68.8562 31.4529 68.5851L31.1811 68.314C30.9094 68.0429 30.5017 68.0429 30.2299 68.314L29.9922 68.5512C29.7544 68.7884 29.6185 69.1611 29.7204 69.5339C29.8902 70.4149 30.3998 71.3976 31.2491 72.2109C32.0643 73.0241 33.0495 73.5663 33.9327 73.7357C34.3064 73.8035 34.6461 73.7019 34.9178 73.4308L35.1556 73.1936C35.3255 72.9564 35.3255 72.5158 35.0877 72.2448Z"
          fill="#5256E6"/>
</svg>
