<svg width="160" height="92" viewBox="0 0 160 92" fill="none" xmlns="http://www.w3.org/2000/svg">
    <path d="M146.536 3.2841V84.1525C146.536 85.4872 145.464 86.5569 144.114 86.5569H15.8883C14.5555 86.5569 13.4667 85.485 13.4667 84.1525V3.2841C13.4667 1.75773 14.7123 0.5 16.2702 0.5H143.732C145.275 0.5 146.536 1.7425 146.536 3.2841Z"
          stroke="#5256E6"/>
    <path d="M156.159 90.7475L156.159 90.7475L156.164 90.746L158.566 89.8666C159.13 89.6539 159.5 89.1165 159.5 88.4985V87.8314H0.518539V89.0534C0.518539 89.3341 0.685501 89.5808 0.938843 89.676L0.944214 89.6781L3.84151 90.8055C3.8423 90.8058 3.84311 90.8061 3.8439 90.8064C5.04729 91.263 6.3224 91.5 7.59581 91.5H152.041C153.45 91.5 154.841 91.2433 156.159 90.7475Z"
          stroke="#5256E6"/>
    <path d="M19.2595 81.6136V6.26715H141.294V81.6136H19.2595Z" stroke="#5256E6"/>
    <path d="M19.2595 81.6136V6.26715H141.294V81.6136H19.2595Z" stroke="#5256E6"/>
    <rect x="40.3531" y="19.3149" width="6.11465" height="1.37955" rx="0.689773" fill="#5256E6"/>
    <rect x="47.4865" y="19.3149" width="8.66242" height="1.37955" rx="0.689773" fill="#5256E6"/>
    <rect x="57.6772" y="19.3149" width="22.9299" height="1.37955" rx="0.689773" fill="#5256E6"/>
    <rect x="40.3531" y="16.7734" width="40.2548" height="1.37955" rx="0.689773" fill="#5256E6"/>
    <rect x="83.1555" y="16.7734" width="8.15287" height="1.37955" rx="0.689773" fill="#5256E6"/>
    <rect x="95.3845" y="16.7734" width="8.15287" height="1.37955" rx="0.689773" fill="#5256E6"/>
    <rect width="16.0618" height="1.37955" rx="0.689773"
          transform="matrix(0.999941 -0.0108328 0.0108869 0.999941 110.162 16.8179)" fill="#5256E6"/>
    <path d="M33.7285 14.7405C31.4788 14.7405 29.6521 16.5626 29.6521 18.8068C29.6521 21.0509 31.4788 22.8731 33.7285 22.8731C35.9783 22.8731 37.805 21.0509 37.805 18.8068C37.805 16.569 35.9719 14.7405 33.7285 14.7405ZM33.126 19.8489C33.2799 19.996 33.4657 20.1494 33.6773 20.1814C33.6837 20.1878 33.6901 20.1878 33.7029 20.1878C33.7093 20.1878 33.7157 20.1878 33.7285 20.1878C33.7349 20.1878 33.7414 20.1878 33.7542 20.1878C33.767 20.1878 33.7734 20.1878 33.7798 20.1814C33.9913 20.1494 34.1772 20.0024 34.331 19.8489C34.3374 20.0791 34.3759 20.3093 34.3759 20.5394C34.3695 20.8591 34.0618 21.1404 33.7349 21.1532C33.4081 21.1404 33.094 20.8591 33.094 20.5394C33.0812 20.3093 33.1196 20.0791 33.126 19.8489ZM32.5812 18.9283C32.4466 18.6789 32.4466 18.4424 32.4659 18.1674C32.4787 17.9053 32.4915 17.6496 32.5107 17.3938C32.5492 17.3938 32.5941 17.3874 32.6389 17.3746C32.703 17.3491 32.7351 17.2979 32.7479 17.2404C32.8184 17.2851 32.9145 17.2979 32.9914 17.2659C33.0107 17.2595 33.0235 17.2404 33.0363 17.2148C33.1517 17.4066 33.3632 17.4897 33.6003 17.4705C33.7221 17.4641 33.876 17.3427 33.9657 17.2084C33.9913 17.2468 34.0362 17.2787 34.0939 17.3043C34.1836 17.3427 34.2733 17.3299 34.3503 17.2915C34.3823 17.3427 34.4336 17.3874 34.5041 17.4258C34.6643 17.5025 34.7989 17.5025 34.9399 17.4386C34.9592 17.6815 34.9656 17.9245 34.9784 18.1738C34.9912 18.4487 34.9976 18.6853 34.863 18.9347C34.7156 19.2032 34.581 19.4653 34.3503 19.6763C34.1708 19.8425 33.9785 20.0663 33.7157 20.0855C33.4593 20.0663 33.2606 19.8425 33.0812 19.6763C32.8633 19.4589 32.7287 19.2032 32.5812 18.9283ZM36.4462 21.556C36.3372 21.3642 36.2282 21.166 36.1385 20.9678C36.0039 20.6673 35.7219 20.6545 35.427 20.5714C35.1002 20.4755 34.7797 20.3476 34.4592 20.2453C34.4592 20.2453 34.4592 20.2453 34.4528 20.2453C34.4336 20.0791 34.4208 19.9193 34.4272 19.753V19.7466C34.613 19.5548 34.7669 19.363 34.8887 19.1201C34.9463 18.9986 35.0168 18.8835 35.0617 18.762C35.0617 18.7556 35.0617 18.7556 35.0617 18.7492C35.3373 18.8004 35.2604 18.3209 35.3245 18.1738C35.3565 18.0971 35.3694 18.0332 35.363 17.9756C35.6706 18.0204 35.786 17.5153 35.5681 17.3491C35.6706 17.2723 35.7475 17.1253 35.7347 17.0166C35.7091 16.7736 35.6193 16.601 35.3822 16.5051C35.4206 16.454 35.4335 16.39 35.4078 16.3197C35.3694 16.211 35.2732 16.1471 35.1707 16.1471C35.1963 16.0192 35.1771 15.8785 35.1194 15.8082C34.9912 15.6612 34.7476 15.5461 34.5618 15.6292C34.5489 15.5844 34.5297 15.5461 34.5041 15.5205C34.4528 15.4693 34.3695 15.4693 34.299 15.5013C34.2669 15.4118 34.2028 15.3351 34.1131 15.3095C34.0554 15.2967 33.9849 15.3031 33.9208 15.3223C33.8311 15.252 33.6901 15.2775 33.6003 15.3479C33.5234 15.3031 33.4273 15.2839 33.3568 15.3095C33.2671 15.3351 33.1965 15.4118 33.1709 15.5013C33.1004 15.4757 33.0171 15.4693 32.9658 15.5205C32.9402 15.5461 32.9209 15.5844 32.9081 15.6292C32.7222 15.5397 32.4723 15.6548 32.3505 15.8082C32.2928 15.8785 32.2736 16.0192 32.2992 16.1471C32.1903 16.1471 32.0941 16.211 32.0621 16.3197C32.0364 16.39 32.0557 16.454 32.0877 16.5051C31.8506 16.5946 31.7608 16.7672 31.7352 17.0166C31.7224 17.1253 31.7993 17.2723 31.9018 17.3491C31.6775 17.5153 31.7929 18.0204 32.1069 17.9756C32.1005 18.0332 32.1133 18.1035 32.1454 18.1738C32.2095 18.3145 32.139 18.7876 32.4018 18.7492V18.7556C32.4466 18.8835 32.5171 18.9986 32.5748 19.1137C32.703 19.363 32.8568 19.5484 33.0363 19.7402V19.7466C33.0427 19.9129 33.0299 20.0727 33.0107 20.2389H33.0043C32.6774 20.3348 32.3633 20.4691 32.0364 20.565C31.7416 20.6481 31.4596 20.6609 31.325 20.9614C31.2352 21.1596 31.1263 21.3578 31.0173 21.5496C30.3059 20.8463 29.87 19.8745 29.87 18.8068C29.87 16.6777 31.607 14.9451 33.7414 14.9451C35.8757 14.9451 37.6127 16.6777 37.6127 18.8068C37.5999 19.8809 37.1576 20.8527 36.4462 21.556ZM35.0938 18.3081C35.0873 18.1674 35.0809 18.0268 35.0745 17.8861C35.2604 17.8541 35.2732 18.046 35.2155 18.1802C35.2027 18.2058 35.1963 18.2314 35.1899 18.2633C35.1835 18.3209 35.1963 18.6469 35.0873 18.6533C35.1066 18.5383 35.1002 18.4232 35.0938 18.3081ZM32.3633 18.6469C32.2608 18.6278 32.2736 18.3209 32.2672 18.2633C32.2672 18.2378 32.2544 18.2058 32.2415 18.1802C32.1838 18.0523 32.1967 17.8605 32.3761 17.8861C32.3697 18.0268 32.3633 18.1674 32.3569 18.3081C32.3505 18.4232 32.3441 18.5319 32.3633 18.6469Z"
          fill="#5256E6"/>
    <path d="M33.9909 19.4718C34.0358 19.4526 34.0807 19.4334 34.0999 19.4015C34.1191 19.3695 34.1319 19.3439 34.1383 19.312C34.1448 19.3056 34.1448 19.2992 34.1448 19.2928C34.1512 19.2864 34.1576 19.28 34.1576 19.2672C34.1576 19.2225 34.1448 19.1713 34.0807 19.1521C34.023 19.133 33.9717 19.1138 33.9012 19.1138C33.8243 19.1138 33.7666 19.1457 33.7217 19.1841C33.6833 19.1457 33.6256 19.1138 33.5423 19.1138C33.4718 19.1138 33.4205 19.1266 33.3628 19.1521C33.2987 19.1777 33.2859 19.2289 33.2859 19.2672C33.2859 19.28 33.2923 19.2864 33.2987 19.2928C33.2987 19.2992 33.2987 19.3056 33.3051 19.312C33.3115 19.3439 33.3243 19.3759 33.3436 19.4015C33.3628 19.4334 33.4077 19.4526 33.4525 19.4718C33.523 19.4974 33.632 19.5102 33.7153 19.4974C33.8051 19.5102 33.9204 19.4974 33.9909 19.4718Z"
          fill="#5256E6"/>
    <ellipse cx="36.7861" cy="15.7571" rx="1.01911" ry="1.01658" fill="#5256E6"/>
    <rect x="40.3531" y="32.165" width="6.11465" height="1.37955" rx="0.689773" fill="#5256E6"/>
    <rect x="47.4865" y="32.165" width="8.66242" height="1.37955" rx="0.689773" fill="#5256E6"/>
    <rect x="57.6772" y="32.165" width="22.9299" height="1.37955" rx="0.689773" fill="#5256E6"/>
    <rect x="40.3531" y="29.6235" width="40.2548" height="1.37955" rx="0.689773" fill="#5256E6"/>
    <rect x="83.1555" y="29.6235" width="8.15287" height="1.37955" rx="0.689773" fill="#5256E6"/>
    <rect x="95.3845" y="29.6235" width="8.15287" height="1.37955" rx="0.689773" fill="#5256E6"/>
    <rect width="16.0618" height="1.37955" rx="0.689773"
          transform="matrix(0.999941 -0.0108328 0.0108869 0.999941 110.162 29.6684)" fill="#5256E6"/>
    <path d="M33.7285 27.5907C31.4788 27.5907 29.6521 29.4129 29.6521 31.657C29.6521 33.9011 31.4788 35.7233 33.7285 35.7233C35.9783 35.7233 37.805 33.9011 37.805 31.657C37.805 29.4193 35.9719 27.5907 33.7285 27.5907ZM33.126 32.6992C33.2799 32.8462 33.4657 32.9997 33.6773 33.0316C33.6837 33.038 33.6901 33.038 33.7029 33.038C33.7093 33.038 33.7157 33.038 33.7285 33.038C33.7349 33.038 33.7414 33.038 33.7542 33.038C33.767 33.038 33.7734 33.038 33.7798 33.0316C33.9913 32.9997 34.1772 32.8526 34.331 32.6992C34.3374 32.9293 34.3759 33.1595 34.3759 33.3897C34.3695 33.7093 34.0618 33.9907 33.7349 34.0034C33.4081 33.9907 33.094 33.7093 33.094 33.3897C33.0812 33.1595 33.1196 32.9293 33.126 32.6992ZM32.5812 31.7785C32.4466 31.5291 32.4466 31.2926 32.4659 31.0176C32.4787 30.7555 32.4915 30.4998 32.5107 30.244C32.5492 30.244 32.5941 30.2376 32.6389 30.2248C32.703 30.1993 32.7351 30.1481 32.7479 30.0906C32.8184 30.1353 32.9145 30.1481 32.9914 30.1162C33.0107 30.1098 33.0235 30.0906 33.0363 30.065C33.1517 30.2568 33.3632 30.3399 33.6003 30.3207C33.7221 30.3144 33.876 30.1929 33.9657 30.0586C33.9913 30.097 34.0362 30.1289 34.0939 30.1545C34.1836 30.1929 34.2733 30.1801 34.3503 30.1417C34.3823 30.1929 34.4336 30.2376 34.5041 30.276C34.6643 30.3527 34.7989 30.3527 34.9399 30.2888C34.9592 30.5317 34.9656 30.7747 34.9784 31.024C34.9912 31.299 34.9976 31.5355 34.863 31.7849C34.7156 32.0534 34.581 32.3155 34.3503 32.5265C34.1708 32.6928 33.9785 32.9165 33.7157 32.9357C33.4593 32.9165 33.2606 32.6928 33.0812 32.5265C32.8633 32.3091 32.7287 32.0534 32.5812 31.7785ZM36.4462 34.4062C36.3372 34.2144 36.2282 34.0162 36.1385 33.818C36.0039 33.5175 35.7219 33.5047 35.427 33.4216C35.1002 33.3257 34.7797 33.1979 34.4592 33.0956C34.4592 33.0956 34.4592 33.0956 34.4528 33.0956C34.4336 32.9293 34.4208 32.7695 34.4272 32.6033V32.5969C34.613 32.4051 34.7669 32.2132 34.8887 31.9703C34.9463 31.8488 35.0168 31.7337 35.0617 31.6123C35.0617 31.6059 35.0617 31.6059 35.0617 31.5995C35.3373 31.6506 35.2604 31.1711 35.3245 31.024C35.3565 30.9473 35.3694 30.8834 35.363 30.8258C35.6706 30.8706 35.786 30.3655 35.5681 30.1993C35.6706 30.1225 35.7475 29.9755 35.7347 29.8668C35.7091 29.6239 35.6193 29.4512 35.3822 29.3553C35.4206 29.3042 35.4335 29.2402 35.4078 29.1699C35.3694 29.0612 35.2732 28.9973 35.1707 28.9973C35.1963 28.8694 35.1771 28.7288 35.1194 28.6584C34.9912 28.5114 34.7476 28.3963 34.5618 28.4794C34.5489 28.4346 34.5297 28.3963 34.5041 28.3707C34.4528 28.3196 34.3695 28.3196 34.299 28.3515C34.2669 28.262 34.2028 28.1853 34.1131 28.1597C34.0554 28.1469 33.9849 28.1533 33.9208 28.1725C33.8311 28.1022 33.6901 28.1278 33.6003 28.1981C33.5234 28.1533 33.4273 28.1342 33.3568 28.1597C33.2671 28.1853 33.1965 28.262 33.1709 28.3515C33.1004 28.326 33.0171 28.3196 32.9658 28.3707C32.9402 28.3963 32.9209 28.4346 32.9081 28.4794C32.7222 28.3899 32.4723 28.505 32.3505 28.6584C32.2928 28.7288 32.2736 28.8694 32.2992 28.9973C32.1903 28.9973 32.0941 29.0612 32.0621 29.1699C32.0364 29.2402 32.0557 29.3042 32.0877 29.3553C31.8506 29.4448 31.7608 29.6175 31.7352 29.8668C31.7224 29.9755 31.7993 30.1225 31.9018 30.1993C31.6775 30.3655 31.7929 30.8706 32.1069 30.8258C32.1005 30.8834 32.1133 30.9537 32.1454 31.024C32.2095 31.1647 32.139 31.6378 32.4018 31.5995V31.6059C32.4466 31.7337 32.5171 31.8488 32.5748 31.9639C32.703 32.2132 32.8568 32.3987 33.0363 32.5905V32.5969C33.0427 32.7631 33.0299 32.9229 33.0107 33.0892H33.0043C32.6774 33.1851 32.3633 33.3193 32.0364 33.4152C31.7416 33.4984 31.4596 33.5111 31.325 33.8116C31.2352 34.0098 31.1263 34.208 31.0173 34.3998C30.3059 33.6966 29.87 32.7247 29.87 31.657C29.87 29.5279 31.607 27.7953 33.7414 27.7953C35.8757 27.7953 37.6127 29.5279 37.6127 31.657C37.5999 32.7311 37.1576 33.7029 36.4462 34.4062ZM35.0938 31.1583C35.0873 31.0176 35.0809 30.877 35.0745 30.7363C35.2604 30.7044 35.2732 30.8962 35.2155 31.0304C35.2027 31.056 35.1963 31.0816 35.1899 31.1136C35.1835 31.1711 35.1963 31.4972 35.0873 31.5036C35.1066 31.3885 35.1002 31.2734 35.0938 31.1583ZM32.3633 31.4972C32.2608 31.478 32.2736 31.1711 32.2672 31.1136C32.2672 31.088 32.2544 31.056 32.2415 31.0304C32.1838 30.9026 32.1967 30.7108 32.3761 30.7363C32.3697 30.877 32.3633 31.0176 32.3569 31.1583C32.3505 31.2734 32.3441 31.3821 32.3633 31.4972Z"
          fill="#5256E6"/>
    <path d="M33.9909 32.3216C34.0358 32.3024 34.0807 32.2832 34.0999 32.2512C34.1191 32.2193 34.1319 32.1937 34.1383 32.1617C34.1448 32.1553 34.1448 32.1489 34.1448 32.1426C34.1512 32.1362 34.1576 32.1298 34.1576 32.117C34.1576 32.0722 34.1448 32.0211 34.0807 32.0019C34.023 31.9827 33.9717 31.9635 33.9012 31.9635C33.8243 31.9635 33.7666 31.9955 33.7217 32.0339C33.6833 31.9955 33.6256 31.9635 33.5423 31.9635C33.4718 31.9635 33.4205 31.9763 33.3628 32.0019C33.2987 32.0275 33.2859 32.0786 33.2859 32.117C33.2859 32.1298 33.2923 32.1362 33.2987 32.1426C33.2987 32.1489 33.2987 32.1553 33.3051 32.1617C33.3115 32.1937 33.3243 32.2257 33.3436 32.2512C33.3628 32.2832 33.4077 32.3024 33.4525 32.3216C33.523 32.3471 33.632 32.3599 33.7153 32.3471C33.8051 32.3599 33.9204 32.3471 33.9909 32.3216Z"
          fill="#5256E6"/>
    <ellipse cx="36.7861" cy="28.6074" rx="1.01911" ry="1.01658" fill="#5256E6"/>
    <rect x="40.3531" y="45.2712" width="6.11465" height="1.37955" rx="0.689773" fill="#5256E6"/>
    <rect x="47.4865" y="45.2712" width="8.66242" height="1.37955" rx="0.689773" fill="#5256E6"/>
    <rect x="57.6772" y="45.2712" width="22.9299" height="1.37955" rx="0.689773" fill="#5256E6"/>
    <rect x="40.3531" y="42.7293" width="40.2548" height="1.37955" rx="0.689773" fill="#5256E6"/>
    <rect x="83.1555" y="42.7293" width="8.15287" height="1.37955" rx="0.689773" fill="#5256E6"/>
    <rect x="95.3845" y="42.7293" width="8.15287" height="1.37955" rx="0.689773" fill="#5256E6"/>
    <rect width="16.0618" height="1.37955" rx="0.689773"
          transform="matrix(0.999941 -0.0108328 0.0108869 0.999941 110.162 42.7742)" fill="#5256E6"/>
    <path d="M33.7285 40.6964C31.4788 40.6964 29.6521 42.5186 29.6521 44.7627C29.6521 47.0069 31.4788 48.829 33.7285 48.829C35.9783 48.829 37.805 47.0069 37.805 44.7627C37.805 42.525 35.9719 40.6964 33.7285 40.6964ZM33.126 45.8049C33.2799 45.9519 33.4657 46.1054 33.6773 46.1373C33.6837 46.1437 33.6901 46.1437 33.7029 46.1437C33.7093 46.1437 33.7157 46.1437 33.7285 46.1437C33.7349 46.1437 33.7414 46.1437 33.7542 46.1437C33.767 46.1437 33.7734 46.1437 33.7798 46.1373C33.9913 46.1054 34.1772 45.9583 34.331 45.8049C34.3374 46.035 34.3759 46.2652 34.3759 46.4954C34.3695 46.8151 34.0618 47.0964 33.7349 47.1092C33.4081 47.0964 33.094 46.8151 33.094 46.4954C33.0812 46.2652 33.1196 46.035 33.126 45.8049ZM32.5812 44.8842C32.4466 44.6348 32.4466 44.3983 32.4659 44.1234C32.4787 43.8612 32.4915 43.6055 32.5107 43.3497C32.5492 43.3497 32.5941 43.3433 32.6389 43.3306C32.703 43.305 32.7351 43.2538 32.7479 43.1963C32.8184 43.2411 32.9145 43.2538 32.9914 43.2219C33.0107 43.2155 33.0235 43.1963 33.0363 43.1707C33.1517 43.3625 33.3632 43.4456 33.6003 43.4265C33.7221 43.4201 33.876 43.2986 33.9657 43.1643C33.9913 43.2027 34.0362 43.2347 34.0939 43.2602C34.1836 43.2986 34.2733 43.2858 34.3503 43.2474C34.3823 43.2986 34.4336 43.3433 34.5041 43.3817C34.6643 43.4584 34.7989 43.4584 34.9399 43.3945C34.9592 43.6375 34.9656 43.8804 34.9784 44.1298C34.9912 44.4047 34.9976 44.6412 34.863 44.8906C34.7156 45.1591 34.581 45.4213 34.3503 45.6322C34.1708 45.7985 33.9785 46.0223 33.7157 46.0414C33.4593 46.0223 33.2606 45.7985 33.0812 45.6322C32.8633 45.4149 32.7287 45.1591 32.5812 44.8842ZM36.4462 47.512C36.3372 47.3201 36.2282 47.1219 36.1385 46.9237C36.0039 46.6232 35.7219 46.6105 35.427 46.5273C35.1002 46.4314 34.7797 46.3036 34.4592 46.2013C34.4592 46.2013 34.4592 46.2013 34.4528 46.2013C34.4336 46.035 34.4208 45.8752 34.4272 45.709V45.7026C34.613 45.5108 34.7669 45.319 34.8887 45.076C34.9463 44.9545 35.0168 44.8394 35.0617 44.718C35.0617 44.7116 35.0617 44.7116 35.0617 44.7052C35.3373 44.7563 35.2604 44.2768 35.3245 44.1298C35.3565 44.053 35.3694 43.9891 35.363 43.9316C35.6706 43.9763 35.786 43.4712 35.5681 43.305C35.6706 43.2283 35.7475 43.0812 35.7347 42.9725C35.7091 42.7296 35.6193 42.5569 35.3822 42.461C35.4206 42.4099 35.4335 42.346 35.4078 42.2756C35.3694 42.1669 35.2732 42.103 35.1707 42.103C35.1963 41.9751 35.1771 41.8345 35.1194 41.7641C34.9912 41.6171 34.7476 41.502 34.5618 41.5851C34.5489 41.5404 34.5297 41.502 34.5041 41.4764C34.4528 41.4253 34.3695 41.4253 34.299 41.4572C34.2669 41.3677 34.2028 41.291 34.1131 41.2654C34.0554 41.2527 33.9849 41.259 33.9208 41.2782C33.8311 41.2079 33.6901 41.2335 33.6003 41.3038C33.5234 41.259 33.4273 41.2399 33.3568 41.2654C33.2671 41.291 33.1965 41.3677 33.1709 41.4572C33.1004 41.4317 33.0171 41.4253 32.9658 41.4764C32.9402 41.502 32.9209 41.5404 32.9081 41.5851C32.7222 41.4956 32.4723 41.6107 32.3505 41.7641C32.2928 41.8345 32.2736 41.9751 32.2992 42.103C32.1903 42.103 32.0941 42.1669 32.0621 42.2756C32.0364 42.346 32.0557 42.4099 32.0877 42.461C31.8506 42.5505 31.7608 42.7232 31.7352 42.9725C31.7224 43.0812 31.7993 43.2283 31.9018 43.305C31.6775 43.4712 31.7929 43.9763 32.1069 43.9316C32.1005 43.9891 32.1133 44.0594 32.1454 44.1298C32.2095 44.2704 32.139 44.7435 32.4018 44.7052V44.7116C32.4466 44.8394 32.5171 44.9545 32.5748 45.0696C32.703 45.319 32.8568 45.5044 33.0363 45.6962V45.7026C33.0427 45.8688 33.0299 46.0286 33.0107 46.1949H33.0043C32.6774 46.2908 32.3633 46.425 32.0364 46.521C31.7416 46.6041 31.4596 46.6169 31.325 46.9173C31.2352 47.1156 31.1263 47.3138 31.0173 47.5056C30.3059 46.8023 29.87 45.8304 29.87 44.7627C29.87 42.6337 31.607 40.901 33.7414 40.901C35.8757 40.901 37.6127 42.6337 37.6127 44.7627C37.5999 45.8368 37.1576 46.8087 36.4462 47.512ZM35.0938 44.264C35.0873 44.1234 35.0809 43.9827 35.0745 43.842C35.2604 43.8101 35.2732 44.0019 35.2155 44.1361C35.2027 44.1617 35.1963 44.1873 35.1899 44.2193C35.1835 44.2768 35.1963 44.6029 35.0873 44.6093C35.1066 44.4942 35.1002 44.3791 35.0938 44.264ZM32.3633 44.6029C32.2608 44.5837 32.2736 44.2768 32.2672 44.2193C32.2672 44.1937 32.2544 44.1617 32.2415 44.1361C32.1838 44.0083 32.1967 43.8165 32.3761 43.842C32.3697 43.9827 32.3633 44.1234 32.3569 44.264C32.3505 44.3791 32.3441 44.4878 32.3633 44.6029Z"
          fill="#5256E6"/>
    <path d="M33.9909 45.4277C34.0358 45.4086 34.0807 45.3894 34.0999 45.3574C34.1191 45.3254 34.1319 45.2999 34.1383 45.2679C34.1448 45.2615 34.1448 45.2551 34.1448 45.2487C34.1512 45.2423 34.1576 45.2359 34.1576 45.2231C34.1576 45.1784 34.1448 45.1272 34.0807 45.1081C34.023 45.0889 33.9717 45.0697 33.9012 45.0697C33.8243 45.0697 33.7666 45.1017 33.7217 45.14C33.6833 45.1017 33.6256 45.0697 33.5423 45.0697C33.4718 45.0697 33.4205 45.0825 33.3628 45.1081C33.2987 45.1336 33.2859 45.1848 33.2859 45.2231C33.2859 45.2359 33.2923 45.2423 33.2987 45.2487C33.2987 45.2551 33.2987 45.2615 33.3051 45.2679C33.3115 45.2999 33.3243 45.3318 33.3436 45.3574C33.3628 45.3894 33.4077 45.4086 33.4525 45.4277C33.523 45.4533 33.632 45.4661 33.7153 45.4533C33.8051 45.4661 33.9204 45.4533 33.9909 45.4277Z"
          fill="#5256E6"/>
    <ellipse cx="36.7861" cy="41.7131" rx="1.01911" ry="1.01658" fill="#5256E6"/>
    <rect x="40.3531" y="59.0663" width="6.11465" height="1.37955" rx="0.689773" fill="#5256E6"/>
    <rect x="47.4865" y="59.0663" width="8.66242" height="1.37955" rx="0.689773" fill="#5256E6"/>
    <rect x="57.6772" y="59.0663" width="22.9299" height="1.37955" rx="0.689773" fill="#5256E6"/>
    <rect x="40.3531" y="56.5247" width="40.2548" height="1.37955" rx="0.689773" fill="#5256E6"/>
    <rect x="83.1555" y="56.5247" width="8.15287" height="1.37955" rx="0.689773" fill="#5256E6"/>
    <rect x="95.3845" y="56.5247" width="8.15287" height="1.37955" rx="0.689773" fill="#5256E6"/>
    <rect width="16.0618" height="1.37955" rx="0.689773"
          transform="matrix(0.999941 -0.0108328 0.0108869 0.999941 110.162 56.5691)" fill="#5256E6"/>
    <path d="M33.7285 54.492C31.4788 54.492 29.6521 56.3142 29.6521 58.5583C29.6521 60.8025 31.4788 62.6247 33.7285 62.6247C35.9783 62.6247 37.805 60.8025 37.805 58.5583C37.805 56.3206 35.9719 54.492 33.7285 54.492ZM33.126 59.6005C33.2799 59.7475 33.4657 59.901 33.6773 59.933C33.6837 59.9394 33.6901 59.9394 33.7029 59.9394C33.7093 59.9394 33.7157 59.9394 33.7285 59.9394C33.7349 59.9394 33.7414 59.9394 33.7542 59.9394C33.767 59.9394 33.7734 59.9394 33.7798 59.933C33.9913 59.901 34.1772 59.7539 34.331 59.6005C34.3374 59.8307 34.3759 60.0608 34.3759 60.291C34.3695 60.6107 34.0618 60.892 33.7349 60.9048C33.4081 60.892 33.094 60.6107 33.094 60.291C33.0812 60.0608 33.1196 59.8307 33.126 59.6005ZM32.5812 58.6798C32.4466 58.4305 32.4466 58.1939 32.4659 57.919C32.4787 57.6569 32.4915 57.4011 32.5107 57.1454C32.5492 57.1454 32.5941 57.139 32.6389 57.1262C32.703 57.1006 32.7351 57.0495 32.7479 56.9919C32.8184 57.0367 32.9145 57.0495 32.9914 57.0175C33.0107 57.0111 33.0235 56.9919 33.0363 56.9663C33.1517 57.1582 33.3632 57.2413 33.6003 57.2221C33.7221 57.2157 33.876 57.0942 33.9657 56.96C33.9913 56.9983 34.0362 57.0303 34.0939 57.0559C34.1836 57.0942 34.2733 57.0814 34.3503 57.0431C34.3823 57.0942 34.4336 57.139 34.5041 57.1773C34.6643 57.2541 34.7989 57.2541 34.9399 57.1901C34.9592 57.4331 34.9656 57.676 34.9784 57.9254C34.9912 58.2003 34.9976 58.4369 34.863 58.6862C34.7156 58.9547 34.581 59.2169 34.3503 59.4279C34.1708 59.5941 33.9785 59.8179 33.7157 59.8371C33.4593 59.8179 33.2606 59.5941 33.0812 59.4279C32.8633 59.2105 32.7287 58.9547 32.5812 58.6798ZM36.4462 61.3076C36.3372 61.1158 36.2282 60.9176 36.1385 60.7194C36.0039 60.4189 35.7219 60.4061 35.427 60.323C35.1002 60.2271 34.7797 60.0992 34.4592 59.9969C34.4592 59.9969 34.4592 59.9969 34.4528 59.9969C34.4336 59.8307 34.4208 59.6708 34.4272 59.5046V59.4982C34.613 59.3064 34.7669 59.1146 34.8887 58.8716C34.9463 58.7501 35.0168 58.6351 35.0617 58.5136C35.0617 58.5072 35.0617 58.5072 35.0617 58.5008C35.3373 58.5519 35.2604 58.0724 35.3245 57.9254C35.3565 57.8487 35.3694 57.7847 35.363 57.7272C35.6706 57.7719 35.786 57.2668 35.5681 57.1006C35.6706 57.0239 35.7475 56.8768 35.7347 56.7681C35.7091 56.5252 35.6193 56.3526 35.3822 56.2567C35.4206 56.2055 35.4335 56.1416 35.4078 56.0712C35.3694 55.9626 35.2732 55.8986 35.1707 55.8986C35.1963 55.7707 35.1771 55.6301 35.1194 55.5598C34.9912 55.4127 34.7476 55.2976 34.5618 55.3807C34.5489 55.336 34.5297 55.2976 34.5041 55.272C34.4528 55.2209 34.3695 55.2209 34.299 55.2529C34.2669 55.1634 34.2028 55.0866 34.1131 55.0611C34.0554 55.0483 33.9849 55.0547 33.9208 55.0738C33.8311 55.0035 33.6901 55.0291 33.6003 55.0994C33.5234 55.0547 33.4273 55.0355 33.3568 55.0611C33.2671 55.0866 33.1965 55.1634 33.1709 55.2529C33.1004 55.2273 33.0171 55.2209 32.9658 55.272C32.9402 55.2976 32.9209 55.336 32.9081 55.3807C32.7222 55.2912 32.4723 55.4063 32.3505 55.5598C32.2928 55.6301 32.2736 55.7707 32.2992 55.8986C32.1903 55.8986 32.0941 55.9626 32.0621 56.0712C32.0364 56.1416 32.0557 56.2055 32.0877 56.2567C31.8506 56.3462 31.7608 56.5188 31.7352 56.7681C31.7224 56.8768 31.7993 57.0239 31.9018 57.1006C31.6775 57.2668 31.7929 57.7719 32.1069 57.7272C32.1005 57.7847 32.1133 57.855 32.1454 57.9254C32.2095 58.066 32.139 58.5392 32.4018 58.5008V58.5072C32.4466 58.6351 32.5171 58.7501 32.5748 58.8652C32.703 59.1146 32.8568 59.3 33.0363 59.4918V59.4982C33.0427 59.6644 33.0299 59.8243 33.0107 59.9905H33.0043C32.6774 60.0864 32.3633 60.2207 32.0364 60.3166C31.7416 60.3997 31.4596 60.4125 31.325 60.713C31.2352 60.9112 31.1263 61.1094 31.0173 61.3012C30.3059 60.5979 29.87 59.6261 29.87 58.5583C29.87 56.4293 31.607 54.6966 33.7414 54.6966C35.8757 54.6966 37.6127 56.4293 37.6127 58.5583C37.5999 59.6325 37.1576 60.6043 36.4462 61.3076ZM35.0938 58.0596C35.0873 57.919 35.0809 57.7783 35.0745 57.6377C35.2604 57.6057 35.2732 57.7975 35.2155 57.9318C35.2027 57.9573 35.1963 57.9829 35.1899 58.0149C35.1835 58.0724 35.1963 58.3985 35.0873 58.4049C35.1066 58.2898 35.1002 58.1747 35.0938 58.0596ZM32.3633 58.3985C32.2608 58.3793 32.2736 58.0724 32.2672 58.0149C32.2672 57.9893 32.2544 57.9573 32.2415 57.9318C32.1838 57.8039 32.1967 57.6121 32.3761 57.6377C32.3697 57.7783 32.3633 57.919 32.3569 58.0596C32.3505 58.1747 32.3441 58.2834 32.3633 58.3985Z"
          fill="#5256E6"/>
    <path d="M33.9909 59.2232C34.0358 59.2041 34.0807 59.1849 34.0999 59.1529C34.1191 59.1209 34.1319 59.0954 34.1383 59.0634C34.1448 59.057 34.1448 59.0506 34.1448 59.0442C34.1512 59.0378 34.1576 59.0314 34.1576 59.0186C34.1576 58.9739 34.1448 58.9227 34.0807 58.9036C34.023 58.8844 33.9717 58.8652 33.9012 58.8652C33.8243 58.8652 33.7666 58.8972 33.7217 58.9355C33.6833 58.8972 33.6256 58.8652 33.5423 58.8652C33.4718 58.8652 33.4205 58.878 33.3628 58.9036C33.2987 58.9291 33.2859 58.9803 33.2859 59.0186C33.2859 59.0314 33.2923 59.0378 33.2987 59.0442C33.2987 59.0506 33.2987 59.057 33.3051 59.0634C33.3115 59.0954 33.3243 59.1273 33.3436 59.1529C33.3628 59.1849 33.4077 59.2041 33.4525 59.2232C33.523 59.2488 33.632 59.2616 33.7153 59.2488C33.8051 59.2616 33.9204 59.2488 33.9909 59.2232Z"
          fill="#5256E6"/>
    <ellipse cx="36.7861" cy="55.5084" rx="1.01911" ry="1.01658" fill="#5256E6"/>
    <rect x="40.3531" y="72.1719" width="6.11465" height="1.37955" rx="0.689773" fill="#5256E6"/>
    <rect x="47.4865" y="72.1719" width="8.66242" height="1.37955" rx="0.689773" fill="#5256E6"/>
    <rect x="57.6772" y="72.1719" width="22.9299" height="1.37955" rx="0.689773" fill="#5256E6"/>
    <rect x="40.3531" y="69.6308" width="40.2548" height="1.37955" rx="0.689773" fill="#5256E6"/>
    <rect x="83.1555" y="69.6308" width="8.15287" height="1.37955" rx="0.689773" fill="#5256E6"/>
    <rect x="95.3845" y="69.6308" width="8.15287" height="1.37955" rx="0.689773" fill="#5256E6"/>
    <rect width="16.0618" height="1.37955" rx="0.689773"
          transform="matrix(0.999941 -0.0108328 0.0108869 0.999941 110.162 69.6751)" fill="#5256E6"/>
    <path d="M33.7285 67.5979C31.4788 67.5979 29.6521 69.4201 29.6521 71.6642C29.6521 73.9084 31.4788 75.7305 33.7285 75.7305C35.9783 75.7305 37.805 73.9084 37.805 71.6642C37.805 69.4265 35.9719 67.5979 33.7285 67.5979ZM33.126 72.7064C33.2799 72.8534 33.4657 73.0069 33.6773 73.0389C33.6837 73.0452 33.6901 73.0452 33.7029 73.0452C33.7093 73.0452 33.7157 73.0452 33.7285 73.0452C33.7349 73.0452 33.7414 73.0452 33.7542 73.0452C33.767 73.0452 33.7734 73.0452 33.7798 73.0389C33.9913 73.0069 34.1772 72.8598 34.331 72.7064C34.3374 72.9366 34.3759 73.1667 34.3759 73.3969C34.3695 73.7166 34.0618 73.9979 33.7349 74.0107C33.4081 73.9979 33.094 73.7166 33.094 73.3969C33.0812 73.1667 33.1196 72.9366 33.126 72.7064ZM32.5812 71.7857C32.4466 71.5364 32.4466 71.2998 32.4659 71.0249C32.4787 70.7627 32.4915 70.507 32.5107 70.2513C32.5492 70.2513 32.5941 70.2449 32.6389 70.2321C32.703 70.2065 32.7351 70.1554 32.7479 70.0978C32.8184 70.1426 32.9145 70.1554 32.9914 70.1234C33.0107 70.117 33.0235 70.0978 33.0363 70.0722C33.1517 70.264 33.3632 70.3472 33.6003 70.328C33.7221 70.3216 33.876 70.2001 33.9657 70.0658C33.9913 70.1042 34.0362 70.1362 34.0939 70.1618C34.1836 70.2001 34.2733 70.1873 34.3503 70.149C34.3823 70.2001 34.4336 70.2449 34.5041 70.2832C34.6643 70.36 34.7989 70.36 34.9399 70.296C34.9592 70.539 34.9656 70.7819 34.9784 71.0313C34.9912 71.3062 34.9976 71.5428 34.863 71.7921C34.7156 72.0606 34.581 72.3228 34.3503 72.5338C34.1708 72.7 33.9785 72.9238 33.7157 72.943C33.4593 72.9238 33.2606 72.7 33.0812 72.5338C32.8633 72.3164 32.7287 72.0606 32.5812 71.7857ZM36.4462 74.4135C36.3372 74.2217 36.2282 74.0235 36.1385 73.8253C36.0039 73.5248 35.7219 73.512 35.427 73.4289C35.1002 73.333 34.7797 73.2051 34.4592 73.1028C34.4592 73.1028 34.4592 73.1028 34.4528 73.1028C34.4336 72.9366 34.4208 72.7767 34.4272 72.6105V72.6041C34.613 72.4123 34.7669 72.2205 34.8887 71.9775C34.9463 71.856 35.0168 71.741 35.0617 71.6195C35.0617 71.6131 35.0617 71.6131 35.0617 71.6067C35.3373 71.6578 35.2604 71.1783 35.3245 71.0313C35.3565 70.9546 35.3694 70.8906 35.363 70.8331C35.6706 70.8778 35.786 70.3727 35.5681 70.2065C35.6706 70.1298 35.7475 69.9827 35.7347 69.874C35.7091 69.6311 35.6193 69.4585 35.3822 69.3626C35.4206 69.3114 35.4335 69.2475 35.4078 69.1771C35.3694 69.0684 35.2732 69.0045 35.1707 69.0045C35.1963 68.8766 35.1771 68.736 35.1194 68.6657C34.9912 68.5186 34.7476 68.4035 34.5618 68.4866C34.5489 68.4419 34.5297 68.4035 34.5041 68.3779C34.4528 68.3268 34.3695 68.3268 34.299 68.3588C34.2669 68.2693 34.2028 68.1925 34.1131 68.167C34.0554 68.1542 33.9849 68.1606 33.9208 68.1797C33.8311 68.1094 33.6901 68.135 33.6003 68.2053C33.5234 68.1606 33.4273 68.1414 33.3568 68.167C33.2671 68.1925 33.1965 68.2693 33.1709 68.3588C33.1004 68.3332 33.0171 68.3268 32.9658 68.3779C32.9402 68.4035 32.9209 68.4419 32.9081 68.4866C32.7222 68.3971 32.4723 68.5122 32.3505 68.6657C32.2928 68.736 32.2736 68.8766 32.2992 69.0045C32.1903 69.0045 32.0941 69.0684 32.0621 69.1771C32.0364 69.2475 32.0557 69.3114 32.0877 69.3626C31.8506 69.4521 31.7608 69.6247 31.7352 69.874C31.7224 69.9827 31.7993 70.1298 31.9018 70.2065C31.6775 70.3727 31.7929 70.8778 32.1069 70.8331C32.1005 70.8906 32.1133 70.9609 32.1454 71.0313C32.2095 71.1719 32.139 71.6451 32.4018 71.6067V71.6131C32.4466 71.741 32.5171 71.856 32.5748 71.9711C32.703 72.2205 32.8568 72.4059 33.0363 72.5977V72.6041C33.0427 72.7703 33.0299 72.9302 33.0107 73.0964H33.0043C32.6774 73.1923 32.3633 73.3266 32.0364 73.4225C31.7416 73.5056 31.4596 73.5184 31.325 73.8189C31.2352 74.0171 31.1263 74.2153 31.0173 74.4071C30.3059 73.7038 29.87 72.732 29.87 71.6642C29.87 69.5352 31.607 67.8025 33.7414 67.8025C35.8757 67.8025 37.6127 69.5352 37.6127 71.6642C37.5999 72.7384 37.1576 73.7102 36.4462 74.4135ZM35.0938 71.1655C35.0873 71.0249 35.0809 70.8842 35.0745 70.7436C35.2604 70.7116 35.2732 70.9034 35.2155 71.0377C35.2027 71.0632 35.1963 71.0888 35.1899 71.1208C35.1835 71.1783 35.1963 71.5044 35.0873 71.5108C35.1066 71.3957 35.1002 71.2806 35.0938 71.1655ZM32.3633 71.5044C32.2608 71.4852 32.2736 71.1783 32.2672 71.1208C32.2672 71.0952 32.2544 71.0632 32.2415 71.0377C32.1838 70.9098 32.1967 70.718 32.3761 70.7436C32.3697 70.8842 32.3633 71.0249 32.3569 71.1655C32.3505 71.2806 32.3441 71.3893 32.3633 71.5044Z"
          fill="#5256E6"/>
    <path d="M33.9909 72.3289C34.0358 72.3097 34.0807 72.2905 34.0999 72.2585C34.1191 72.2266 34.1319 72.201 34.1383 72.169C34.1448 72.1626 34.1448 72.1562 34.1448 72.1498C34.1512 72.1435 34.1576 72.1371 34.1576 72.1243C34.1576 72.0795 34.1448 72.0284 34.0807 72.0092C34.023 71.99 33.9717 71.9708 33.9012 71.9708C33.8243 71.9708 33.7666 72.0028 33.7217 72.0412C33.6833 72.0028 33.6256 71.9708 33.5423 71.9708C33.4718 71.9708 33.4205 71.9836 33.3628 72.0092C33.2987 72.0348 33.2859 72.0859 33.2859 72.1243C33.2859 72.1371 33.2923 72.1435 33.2987 72.1498C33.2987 72.1562 33.2987 72.1626 33.3051 72.169C33.3115 72.201 33.3243 72.233 33.3436 72.2585C33.3628 72.2905 33.4077 72.3097 33.4525 72.3289C33.523 72.3544 33.632 72.3672 33.7153 72.3544C33.8051 72.3672 33.9204 72.3544 33.9909 72.3289Z"
          fill="#5256E6"/>
    <ellipse cx="36.7861" cy="68.6143" rx="1.01911" ry="1.01658" fill="#5256E6"/>
</svg>
