<svg width="160" height="92" viewBox="0 0 160 92" fill="none" xmlns="http://www.w3.org/2000/svg">
<path fill-rule="evenodd" clip-rule="evenodd" d="M16 1C14.7174 1 14 1.75109 14 3.00046V83.0005C14 84.0523 14.9387 85.0005 16 85.0005L144 85.0002C145.077 85.0002 146.016 84.0561 146.016 83.0002V3.00023C146.016 1.73925 145.271 1 144 1H16ZM13 3.00046C13 1.19711 14.1668 0 16 0H144C145.815 0 147.016 1.17803 147.016 3.00023V83.0002C147.016 84.6137 145.623 86.0002 144 86.0002L16 86.0005C14.3957 86.0005 13 84.6138 13 83.0005V3.00046Z" fill="white"/>
<path fill-rule="evenodd" clip-rule="evenodd" d="M0.000647973 88.9819C0.0105552 87.8845 0.903034 87 2.00056 87H158.833C159.477 87 160 87.5225 160 88.1671C160 88.9891 159.486 90.0471 158.724 90.3347L158.719 90.3365L156.303 91.221L156.3 91.2219C154.931 91.7345 153.487 92.0002 152.022 92.0002H7.57727C6.24232 92.0002 4.90737 91.752 3.64853 91.2743L3.64164 91.2717L0.740965 90.143C0.286037 89.9704 0 89.5322 0 89.0537L0.000647973 88.9819ZM1.01854 88L1 89.0537C1 89.1355 1.04644 89.1895 1.09618 89.2082L1.10225 89.2105L4.00162 90.3387L4.00277 90.3392C5.15055 90.7747 6.36561 91.0002 7.57727 91.0002H152.022C153.37 91.0002 154.702 90.7547 155.964 90.2797L155.981 90.2736L155.988 90.2715L158.371 89.3991L158.373 89.3985C158.737 89.2601 159 88.5803 159 88.1671V88H1.01854Z" fill="white"/>
<path fill-rule="evenodd" clip-rule="evenodd" d="M16 5.00023C16 3.89566 16.8954 3.00023 18 3.00023H142C143.105 3.00023 144 3.89566 144 5.00023V81.0002C144 82.1048 143.105 83.0002 142 83.0002H18C16.8954 83.0002 16 82.1048 16 81.0002V5.00023ZM18 4.00023C17.4477 4.00023 17 4.44794 17 5.00023V81.0002C17 81.5525 17.4477 82.0002 18 82.0002H142C142.552 82.0002 143 81.5525 143 81.0002V5.00023C143 4.44794 142.552 4.00023 142 4.00023H18Z" fill="white"/>
<path d="M47 14C47 13.4477 47.4477 13 48 13H75C75.5523 13 76 13.4477 76 14C76 14.5523 75.5523 15 75 15H48C47.4477 15 47 14.5523 47 14Z" fill="white"/>
<path d="M47 53C47 52.4477 47.4477 52 48 52H75C75.5523 52 76 52.4477 76 53C76 53.5523 75.5523 54 75 54H48C47.4477 54 47 53.5523 47 53Z" fill="white"/>
<path d="M47 27C47 26.4477 47.4477 26 48 26H75C75.5523 26 76 26.4477 76 27C76 27.5523 75.5523 28 75 28H48C47.4477 28 47 27.5523 47 27Z" fill="white"/>
<path d="M47 66C47 65.4477 47.4477 65 48 65H75C75.5523 65 76 65.4477 76 66C76 66.5523 75.5523 67 75 67H48C47.4477 67 47 66.5523 47 66Z" fill="white"/>
<path d="M47 40C47 39.4477 47.4477 39 48 39H75C75.5523 39 76 39.4477 76 40C76 40.5523 75.5523 41 75 41H48C47.4477 41 47 40.5523 47 40Z" fill="white"/>
<path d="M90 14C90 13.4477 90.4477 13 91 13H102C102.552 13 103 13.4477 103 14C103 14.5523 102.552 15 102 15H91C90.4477 15 90 14.5523 90 14Z" fill="white"/>
<path d="M90 53C90 52.4477 90.4477 52 91 52H102C102.552 52 103 52.4477 103 53C103 53.5523 102.552 54 102 54H91C90.4477 54 90 53.5523 90 53Z" fill="white"/>
<path d="M90 27C90 26.4477 90.4477 26 91 26H102C102.552 26 103 26.4477 103 27C103 27.5523 102.552 28 102 28H91C90.4477 28 90 27.5523 90 27Z" fill="white"/>
<path d="M90 66C90 65.4477 90.4477 65 91 65H102C102.552 65 103 65.4477 103 66C103 66.5523 102.552 67 102 67H91C90.4477 67 90 66.5523 90 66Z" fill="white"/>
<path d="M90 40C90 39.4477 90.4477 39 91 39H102C102.552 39 103 39.4477 103 40C103 40.5523 102.552 41 102 41H91C90.4477 41 90 40.5523 90 40Z" fill="white"/>
<path d="M105 14C105 13.4477 105.448 13 106 13H117C117.552 13 118 13.4477 118 14C118 14.5523 117.552 15 117 15H106C105.448 15 105 14.5523 105 14Z" fill="white"/>
<path d="M105 53C105 52.4477 105.448 52 106 52H117C117.552 52 118 52.4477 118 53C118 53.5523 117.552 54 117 54H106C105.448 54 105 53.5523 105 53Z" fill="white"/>
<path d="M105 27C105 26.4477 105.448 26 106 26H117C117.552 26 118 26.4477 118 27C118 27.5523 117.552 28 117 28H106C105.448 28 105 27.5523 105 27Z" fill="white"/>
<path d="M105 66C105 65.4477 105.448 65 106 65H117C117.552 65 118 65.4477 118 66C118 66.5523 117.552 67 117 67H106C105.448 67 105 66.5523 105 66Z" fill="white"/>
<path d="M105 40C105 39.4477 105.448 39 106 39H117C117.552 39 118 39.4477 118 40C118 40.5523 117.552 41 117 41H106C105.448 41 105 40.5523 105 40Z" fill="white"/>
<path d="M120 14C120 13.4477 120.448 13 121 13H132C132.552 13 133 13.4477 133 14C133 14.5523 132.552 15 132 15H121C120.448 15 120 14.5523 120 14Z" fill="white"/>
<path d="M120 53C120 52.4477 120.448 52 121 52H132C132.552 52 133 52.4477 133 53C133 53.5523 132.552 54 132 54H121C120.448 54 120 53.5523 120 53Z" fill="white"/>
<path d="M120 27C120 26.4477 120.448 26 121 26H132C132.552 26 133 26.4477 133 27C133 27.5523 132.552 28 132 28H121C120.448 28 120 27.5523 120 27Z" fill="white"/>
<path d="M120 66C120 65.4477 120.448 65 121 65H132C132.552 65 133 65.4477 133 66C133 66.5523 132.552 67 132 67H121C120.448 67 120 66.5523 120 66Z" fill="white"/>
<path d="M120 40C120 39.4477 120.448 39 121 39H132C132.552 39 133 39.4477 133 40C133 40.5523 132.552 41 132 41H121C120.448 41 120 40.5523 120 40Z" fill="white"/>
<path d="M78 14C78 13.4477 78.4477 13 79 13C79.5523 13 80 13.4477 80 14C80 14.5523 79.5523 15 79 15C78.4477 15 78 14.5523 78 14Z" fill="white"/>
<path d="M78 53C78 52.4477 78.4477 52 79 52C79.5523 52 80 52.4477 80 53C80 53.5523 79.5523 54 79 54C78.4477 54 78 53.5523 78 53Z" fill="white"/>
<path d="M78 27C78 26.4477 78.4477 26 79 26C79.5523 26 80 26.4477 80 27C80 27.5523 79.5523 28 79 28C78.4477 28 78 27.5523 78 27Z" fill="white"/>
<path d="M78 66C78 65.4477 78.4477 65 79 65C79.5523 65 80 65.4477 80 66C80 66.5523 79.5523 67 79 67C78.4477 67 78 66.5523 78 66Z" fill="white"/>
<path d="M78 40C78 39.4477 78.4477 39 79 39C79.5523 39 80 39.4477 80 40C80 40.5523 79.5523 41 79 41C78.4477 41 78 40.5523 78 40Z" fill="white"/>
<path d="M82 14C82 13.4477 82.4477 13 83 13C83.5523 13 84 13.4477 84 14C84 14.5523 83.5523 15 83 15C82.4477 15 82 14.5523 82 14Z" fill="white"/>
<path d="M82 53C82 52.4477 82.4477 52 83 52C83.5523 52 84 52.4477 84 53C84 53.5523 83.5523 54 83 54C82.4477 54 82 53.5523 82 53Z" fill="white"/>
<path d="M82 27C82 26.4477 82.4477 26 83 26C83.5523 26 84 26.4477 84 27C84 27.5523 83.5523 28 83 28C82.4477 28 82 27.5523 82 27Z" fill="white"/>
<path d="M82 66C82 65.4477 82.4477 65 83 65C83.5523 65 84 65.4477 84 66C84 66.5523 83.5523 67 83 67C82.4477 67 82 66.5523 82 66Z" fill="white"/>
<path d="M82 40C82 39.4477 82.4477 39 83 39C83.5523 39 84 39.4477 84 40C84 40.5523 83.5523 41 83 41C82.4477 41 82 40.5523 82 40Z" fill="white"/>
<path d="M86 14C86 13.4477 86.4477 13 87 13C87.5523 13 88 13.4477 88 14C88 14.5523 87.5523 15 87 15C86.4477 15 86 14.5523 86 14Z" fill="white"/>
<path d="M86 53C86 52.4477 86.4477 52 87 52C87.5523 52 88 52.4477 88 53C88 53.5523 87.5523 54 87 54C86.4477 54 86 53.5523 86 53Z" fill="white"/>
<path d="M86 27C86 26.4477 86.4477 26 87 26C87.5523 26 88 26.4477 88 27C88 27.5523 87.5523 28 87 28C86.4477 28 86 27.5523 86 27Z" fill="white"/>
<path d="M86 66C86 65.4477 86.4477 65 87 65C87.5523 65 88 65.4477 88 66C88 66.5523 87.5523 67 87 67C86.4477 67 86 66.5523 86 66Z" fill="white"/>
<path d="M86 40C86 39.4477 86.4477 39 87 39C87.5523 39 88 39.4477 88 40C88 40.5523 87.5523 41 87 41C86.4477 41 86 40.5523 86 40Z" fill="white"/>
<path d="M47 18C47 17.4477 47.4477 17 48 17H52C52.5523 17 53 17.4477 53 18C53 18.5523 52.5523 19 52 19H48C47.4477 19 47 18.5523 47 18Z" fill="white"/>
<path d="M47 57C47 56.4477 47.4477 56 48 56H52C52.5523 56 53 56.4477 53 57C53 57.5523 52.5523 58 52 58H48C47.4477 58 47 57.5523 47 57Z" fill="white"/>
<path d="M47 31C47 30.4477 47.4477 30 48 30H52C52.5523 30 53 30.4477 53 31C53 31.5523 52.5523 32 52 32H48C47.4477 32 47 31.5523 47 31Z" fill="white"/>
<path d="M47 70C47 69.4477 47.4477 69 48 69H52C52.5523 69 53 69.4477 53 70C53 70.5523 52.5523 71 52 71H48C47.4477 71 47 70.5523 47 70Z" fill="white"/>
<path d="M47 44C47 43.4477 47.4477 43 48 43H52C52.5523 43 53 43.4477 53 44C53 44.5523 52.5523 45 52 45H48C47.4477 45 47 44.5523 47 44Z" fill="white"/>
<path d="M55 18C55 17.4477 55.4477 17 56 17H61C61.5523 17 62 17.4477 62 18C62 18.5523 61.5523 19 61 19H56C55.4477 19 55 18.5523 55 18Z" fill="white"/>
<path d="M55 57C55 56.4477 55.4477 56 56 56H61C61.5523 56 62 56.4477 62 57C62 57.5523 61.5523 58 61 58H56C55.4477 58 55 57.5523 55 57Z" fill="white"/>
<path d="M55 31C55 30.4477 55.4477 30 56 30H61C61.5523 30 62 30.4477 62 31C62 31.5523 61.5523 32 61 32H56C55.4477 32 55 31.5523 55 31Z" fill="white"/>
<path d="M55 70C55 69.4477 55.4477 69 56 69H61C61.5523 69 62 69.4477 62 70C62 70.5523 61.5523 71 61 71H56C55.4477 71 55 70.5523 55 70Z" fill="white"/>
<path d="M55 44C55 43.4477 55.4477 43 56 43H61C61.5523 43 62 43.4477 62 44C62 44.5523 61.5523 45 61 45H56C55.4477 45 55 44.5523 55 44Z" fill="white"/>
<path d="M42 15C42.5522 15 43 14.5522 43 14C43 13.5396 42.689 13.1519 42.2651 13.0356C42.1807 13.0122 42.0918 13 42 13C41.6479 13 41.3384 13.1821 41.1602 13.457C41.0586 13.6133 41 13.7998 41 14C41 14.5522 41.4478 15 42 15Z" fill="white"/>
<path d="M42.1406 18.4771C42.2129 18.3857 42.2812 18.291 42.3457 18.1934C42.4736 17.9985 42.585 17.792 42.6777 17.5757C42.7207 17.4751 42.7598 17.3726 42.7949 17.2681C42.8384 17.1377 42.8755 17.0039 42.9058 16.8672C42.9673 16.5879 43 16.2979 43 16C43 15.9116 42.9976 15.8242 42.9917 15.7373C42.6992 15.9043 42.3608 16 42 16C41.5303 16 41.0986 15.8384 40.7573 15.5674C40.7764 15.6113 40.7871 15.6597 40.7871 15.7104C40.7871 15.8145 40.7432 15.9077 40.6729 15.9727C40.6372 16.0059 40.5947 16.0317 40.5479 16.0483C40.5107 16.061 40.4712 16.0679 40.4297 16.0679L40.3672 16.4453C40.3271 16.688 40.1899 16.9023 39.9858 17.04L39.8789 17.1143L39.8315 17.1479C39.7588 17.1987 39.6797 17.2524 39.5952 17.3022V17.498L40.7793 17.8716C40.9233 17.917 41.0571 17.9824 41.1777 18.0635C40.8687 18.3896 40.4868 18.6465 40.0581 18.8081C39.729 18.9321 39.3726 19 39 19C38.1426 19 37.3691 18.6401 36.8223 18.0635C36.8838 18.022 36.9487 17.9849 37.0166 17.9521C37.0815 17.9209 37.1494 17.894 37.2197 17.8716L38.4038 17.498V17.3022C38.3042 17.2437 38.2119 17.1787 38.1289 17.1201L38.0132 17.04C37.8101 16.9033 37.6729 16.688 37.6318 16.4453L37.5693 16.0679C37.4155 16.0679 37.2852 15.9717 37.2344 15.8354C37.2197 15.7964 37.2119 15.7544 37.2119 15.7104C37.2119 15.6675 37.2197 15.626 37.2334 15.5879C37.2412 15.5664 37.251 15.5459 37.2622 15.5264L37.2812 15.498C37.3184 15.4482 37.3682 15.4077 37.4263 15.3828C37.3154 15.1235 37.2344 14.8491 37.1855 14.5669C37.166 14.4546 37.1519 14.3389 37.1567 14.2256C37.1597 14.1582 37.1699 14.0918 37.1899 14.0278C37.2422 13.856 37.3809 13.7046 37.5449 13.7017L37.5669 13.7036C37.6694 13.5425 37.8311 13.436 38.001 13.375C38.1646 13.3149 38.3374 13.2944 38.5112 13.2734L38.5259 13.272L38.7339 13.2495C38.8853 13.2344 39.0435 13.2251 39.2021 13.229C39.3809 13.2334 39.561 13.2539 39.7349 13.3027C39.8525 13.3354 39.9692 13.3828 40.0781 13.4453C40.1973 13.0317 40.4463 12.6724 40.7783 12.416C40.5679 12.3115 40.3467 12.2246 40.1172 12.1582C39.7627 12.0552 39.3877 12 39 12C38.7236 12 38.4541 12.0278 38.1938 12.0811C37.2822 12.2681 36.4834 12.7646 35.9131 13.4565C35.5918 13.8457 35.3428 14.2969 35.1865 14.7896C35.0654 15.1714 35 15.5781 35 16C35 16.1401 35.0073 16.2783 35.021 16.4146C35.0825 17.0122 35.2759 17.5713 35.5713 18.0615C35.6123 18.1294 35.6553 18.1963 35.7002 18.2617C35.793 18.397 35.8936 18.5259 36.002 18.6479C36.0659 18.7202 36.1323 18.79 36.2012 18.8574L36.209 18.8657L36.2144 18.8711C36.9346 19.5698 37.917 20 39 20C40.083 20 41.0654 19.5698 41.7856 18.8706C41.9126 18.7471 42.0312 18.6157 42.1406 18.4771Z" fill="white"/>
<path d="M42 54C42.5522 54 43 53.5522 43 53C43 52.5396 42.689 52.1519 42.2651 52.0356C42.1807 52.0122 42.0918 52 42 52C41.6479 52 41.3384 52.1821 41.1602 52.457C41.0586 52.6133 41 52.7998 41 53C41 53.5522 41.4478 54 42 54Z" fill="white"/>
<path d="M42.1406 57.4771C42.2129 57.3857 42.2812 57.291 42.3457 57.1934C42.4736 56.9985 42.585 56.792 42.6777 56.5757C42.7207 56.4751 42.7598 56.3726 42.7949 56.2681C42.8384 56.1377 42.8755 56.0039 42.9058 55.8672C42.9673 55.5879 43 55.2979 43 55C43 54.9116 42.9976 54.8242 42.9917 54.7373C42.6992 54.9043 42.3608 55 42 55C41.5303 55 41.0986 54.8384 40.7573 54.5674C40.7764 54.6113 40.7871 54.6597 40.7871 54.7104C40.7871 54.8145 40.7432 54.9077 40.6729 54.9727C40.6372 55.0059 40.5947 55.0317 40.5479 55.0483C40.5107 55.061 40.4712 55.0679 40.4297 55.0679L40.3672 55.4453C40.3271 55.688 40.1899 55.9023 39.9858 56.04L39.8789 56.1143L39.8315 56.1479C39.7588 56.1987 39.6797 56.2524 39.5952 56.3022V56.498L40.7793 56.8716C40.9233 56.917 41.0571 56.9824 41.1777 57.0635C40.8687 57.3896 40.4868 57.6465 40.0581 57.8081C39.729 57.9321 39.3726 58 39 58C38.1426 58 37.3691 57.6401 36.8223 57.0635C36.8838 57.022 36.9487 56.9849 37.0166 56.9521C37.0815 56.9209 37.1494 56.894 37.2197 56.8716L38.4038 56.498V56.3022C38.3042 56.2437 38.2119 56.1787 38.1289 56.1201L38.0132 56.04C37.8101 55.9033 37.6729 55.688 37.6318 55.4453L37.5693 55.0679C37.4155 55.0679 37.2852 54.9717 37.2344 54.8354C37.2197 54.7964 37.2119 54.7544 37.2119 54.7104C37.2119 54.6675 37.2197 54.626 37.2334 54.5879C37.2412 54.5664 37.251 54.5459 37.2622 54.5264L37.2812 54.498C37.3184 54.4482 37.3682 54.4077 37.4263 54.3828C37.3154 54.1235 37.2344 53.8491 37.1855 53.5669C37.166 53.4546 37.1519 53.3389 37.1567 53.2256C37.1597 53.1582 37.1699 53.0918 37.1899 53.0278C37.2422 52.856 37.3809 52.7046 37.5449 52.7017L37.5669 52.7036C37.6694 52.5425 37.8311 52.436 38.001 52.375C38.1646 52.3149 38.3374 52.2944 38.5112 52.2734L38.5259 52.272L38.7339 52.2495C38.8853 52.2344 39.0435 52.2251 39.2021 52.229C39.3809 52.2334 39.561 52.2539 39.7349 52.3027C39.8525 52.3354 39.9692 52.3828 40.0781 52.4453C40.1973 52.0317 40.4463 51.6724 40.7783 51.416C40.5679 51.3115 40.3467 51.2246 40.1172 51.1582C39.7627 51.0552 39.3877 51 39 51C38.7236 51 38.4541 51.0278 38.1938 51.0811C37.2822 51.2681 36.4834 51.7646 35.9131 52.4565C35.5918 52.8457 35.3428 53.2969 35.1865 53.7896C35.0654 54.1714 35 54.5781 35 55C35 55.1401 35.0073 55.2783 35.021 55.4146C35.0825 56.0122 35.2759 56.5713 35.5713 57.0615C35.6123 57.1294 35.6553 57.1963 35.7002 57.2617C35.793 57.397 35.8936 57.5259 36.002 57.6479C36.0659 57.7202 36.1323 57.79 36.2012 57.8574L36.209 57.8657L36.2144 57.8711C36.9346 58.5698 37.917 59 39 59C40.083 59 41.0654 58.5698 41.7856 57.8706C41.9126 57.7471 42.0312 57.6157 42.1406 57.4771Z" fill="white"/>
<path d="M42 28C42.5522 28 43 27.5522 43 27C43 26.5396 42.689 26.1519 42.2651 26.0356C42.1807 26.0122 42.0918 26 42 26C41.6479 26 41.3384 26.1821 41.1602 26.457C41.0586 26.6133 41 26.7998 41 27C41 27.5522 41.4478 28 42 28Z" fill="white"/>
<path d="M42.1406 31.4771C42.2129 31.3857 42.2812 31.291 42.3457 31.1934C42.4736 30.9985 42.585 30.792 42.6777 30.5757C42.7207 30.4751 42.7598 30.3726 42.7949 30.2681C42.8384 30.1377 42.8755 30.0039 42.9058 29.8672C42.9673 29.5879 43 29.2979 43 29C43 28.9116 42.9976 28.8242 42.9917 28.7373C42.6992 28.9043 42.3608 29 42 29C41.5303 29 41.0986 28.8384 40.7573 28.5674C40.7764 28.6113 40.7871 28.6597 40.7871 28.7104C40.7871 28.8145 40.7432 28.9077 40.6729 28.9727C40.6372 29.0059 40.5947 29.0317 40.5479 29.0483C40.5107 29.061 40.4712 29.0679 40.4297 29.0679L40.3672 29.4453C40.3271 29.688 40.1899 29.9023 39.9858 30.04L39.8789 30.1143L39.8315 30.1479C39.7588 30.1987 39.6797 30.2524 39.5952 30.3022V30.498L40.7793 30.8716C40.9233 30.917 41.0571 30.9824 41.1777 31.0635C40.8687 31.3896 40.4868 31.6465 40.0581 31.8081C39.729 31.9321 39.3726 32 39 32C38.1426 32 37.3691 31.6401 36.8223 31.0635C36.8838 31.022 36.9487 30.9849 37.0166 30.9521C37.0815 30.9209 37.1494 30.894 37.2197 30.8716L38.4038 30.498V30.3022C38.3042 30.2437 38.2119 30.1787 38.1289 30.1201L38.0132 30.04C37.8101 29.9033 37.6729 29.688 37.6318 29.4453L37.5693 29.0679C37.4155 29.0679 37.2852 28.9717 37.2344 28.8354C37.2197 28.7964 37.2119 28.7544 37.2119 28.7104C37.2119 28.6675 37.2197 28.626 37.2334 28.5879C37.2412 28.5664 37.251 28.5459 37.2622 28.5264L37.2812 28.498C37.3184 28.4482 37.3682 28.4077 37.4263 28.3828C37.3154 28.1235 37.2344 27.8491 37.1855 27.5669C37.166 27.4546 37.1519 27.3389 37.1567 27.2256C37.1597 27.1582 37.1699 27.0918 37.1899 27.0278C37.2422 26.856 37.3809 26.7046 37.5449 26.7017L37.5669 26.7036C37.6694 26.5425 37.8311 26.436 38.001 26.375C38.1646 26.3149 38.3374 26.2944 38.5112 26.2734L38.5259 26.272L38.7339 26.2495C38.8853 26.2344 39.0435 26.2251 39.2021 26.229C39.3809 26.2334 39.561 26.2539 39.7349 26.3027C39.8525 26.3354 39.9692 26.3828 40.0781 26.4453C40.1973 26.0317 40.4463 25.6724 40.7783 25.416C40.5679 25.3115 40.3467 25.2246 40.1172 25.1582C39.7627 25.0552 39.3877 25 39 25C38.7236 25 38.4541 25.0278 38.1938 25.0811C37.2822 25.2681 36.4834 25.7646 35.9131 26.4565C35.5918 26.8457 35.3428 27.2969 35.1865 27.7896C35.0654 28.1714 35 28.5781 35 29C35 29.1401 35.0073 29.2783 35.021 29.4146C35.0825 30.0122 35.2759 30.5713 35.5713 31.0615C35.6123 31.1294 35.6553 31.1963 35.7002 31.2617C35.793 31.397 35.8936 31.5259 36.002 31.6479C36.0659 31.7202 36.1323 31.79 36.2012 31.8574L36.209 31.8657L36.2144 31.8711C36.9346 32.5698 37.917 33 39 33C40.083 33 41.0654 32.5698 41.7856 31.8706C41.9126 31.7471 42.0312 31.6157 42.1406 31.4771Z" fill="white"/>
<path d="M42 67C42.5522 67 43 66.5522 43 66C43 65.5396 42.689 65.1519 42.2651 65.0356C42.1807 65.0122 42.0918 65 42 65C41.6479 65 41.3384 65.1821 41.1602 65.457C41.0586 65.6133 41 65.7998 41 66C41 66.5522 41.4478 67 42 67Z" fill="white"/>
<path d="M42.1406 70.4771C42.2129 70.3857 42.2812 70.291 42.3457 70.1934C42.4736 69.9985 42.585 69.792 42.6777 69.5757C42.7207 69.4751 42.7598 69.3726 42.7949 69.2681C42.8384 69.1377 42.8755 69.0039 42.9058 68.8672C42.9673 68.5879 43 68.2979 43 68C43 67.9116 42.9976 67.8242 42.9917 67.7373C42.6992 67.9043 42.3608 68 42 68C41.5303 68 41.0986 67.8384 40.7573 67.5674C40.7764 67.6113 40.7871 67.6597 40.7871 67.7104C40.7871 67.8145 40.7432 67.9077 40.6729 67.9727C40.6372 68.0059 40.5947 68.0317 40.5479 68.0483C40.5107 68.061 40.4712 68.0679 40.4297 68.0679L40.3672 68.4453C40.3271 68.688 40.1899 68.9023 39.9858 69.04L39.8789 69.1143L39.8315 69.1479C39.7588 69.1987 39.6797 69.2524 39.5952 69.3022V69.498L40.7793 69.8716C40.9233 69.917 41.0571 69.9824 41.1777 70.0635C40.8687 70.3896 40.4868 70.6465 40.0581 70.8081C39.729 70.9321 39.3726 71 39 71C38.1426 71 37.3691 70.6401 36.8223 70.0635C36.8838 70.022 36.9487 69.9849 37.0166 69.9521C37.0815 69.9209 37.1494 69.894 37.2197 69.8716L38.4038 69.498V69.3022C38.3042 69.2437 38.2119 69.1787 38.1289 69.1201L38.0132 69.04C37.8101 68.9033 37.6729 68.688 37.6318 68.4453L37.5693 68.0679C37.4155 68.0679 37.2852 67.9717 37.2344 67.8354C37.2197 67.7964 37.2119 67.7544 37.2119 67.7104C37.2119 67.6675 37.2197 67.626 37.2334 67.5879C37.2412 67.5664 37.251 67.5459 37.2622 67.5264L37.2812 67.498C37.3184 67.4482 37.3682 67.4077 37.4263 67.3828C37.3154 67.1235 37.2344 66.8491 37.1855 66.5669C37.166 66.4546 37.1519 66.3389 37.1567 66.2256C37.1597 66.1582 37.1699 66.0918 37.1899 66.0278C37.2422 65.856 37.3809 65.7046 37.5449 65.7017L37.5669 65.7036C37.6694 65.5425 37.8311 65.436 38.001 65.375C38.1646 65.3149 38.3374 65.2944 38.5112 65.2734L38.5259 65.272L38.7339 65.2495C38.8853 65.2344 39.0435 65.2251 39.2021 65.229C39.3809 65.2334 39.561 65.2539 39.7349 65.3027C39.8525 65.3354 39.9692 65.3828 40.0781 65.4453C40.1973 65.0317 40.4463 64.6724 40.7783 64.416C40.5679 64.3115 40.3467 64.2246 40.1172 64.1582C39.7627 64.0552 39.3877 64 39 64C38.7236 64 38.4541 64.0278 38.1938 64.0811C37.2822 64.2681 36.4834 64.7646 35.9131 65.4565C35.5918 65.8457 35.3428 66.2969 35.1865 66.7896C35.0654 67.1714 35 67.5781 35 68C35 68.1401 35.0073 68.2783 35.021 68.4146C35.0825 69.0122 35.2759 69.5713 35.5713 70.0615C35.6123 70.1294 35.6553 70.1963 35.7002 70.2617C35.793 70.397 35.8936 70.5259 36.002 70.6479C36.0659 70.7202 36.1323 70.79 36.2012 70.8574L36.209 70.8657L36.2144 70.8711C36.9346 71.5698 37.917 72 39 72C40.083 72 41.0654 71.5698 41.7856 70.8706C41.9126 70.7471 42.0312 70.6157 42.1406 70.4771Z" fill="white"/>
<path d="M42 41C42.5522 41 43 40.5522 43 40C43 39.5396 42.689 39.1519 42.2651 39.0356C42.1807 39.0122 42.0918 39 42 39C41.6479 39 41.3384 39.1821 41.1602 39.457C41.0586 39.6133 41 39.7998 41 40C41 40.5522 41.4478 41 42 41Z" fill="white"/>
<path d="M42.1406 44.4771C42.2129 44.3857 42.2812 44.291 42.3457 44.1934C42.4736 43.9985 42.585 43.792 42.6777 43.5757C42.7207 43.4751 42.7598 43.3726 42.7949 43.2681C42.8384 43.1377 42.8755 43.0039 42.9058 42.8672C42.9673 42.5879 43 42.2979 43 42C43 41.9116 42.9976 41.8242 42.9917 41.7373C42.6992 41.9043 42.3608 42 42 42C41.5303 42 41.0986 41.8384 40.7573 41.5674C40.7764 41.6113 40.7871 41.6597 40.7871 41.7104C40.7871 41.8145 40.7432 41.9077 40.6729 41.9727C40.6372 42.0059 40.5947 42.0317 40.5479 42.0483C40.5107 42.061 40.4712 42.0679 40.4297 42.0679L40.3672 42.4453C40.3271 42.688 40.1899 42.9023 39.9858 43.04L39.8789 43.1143L39.8315 43.1479C39.7588 43.1987 39.6797 43.2524 39.5952 43.3022V43.498L40.7793 43.8716C40.9233 43.917 41.0571 43.9824 41.1777 44.0635C40.8687 44.3896 40.4868 44.6465 40.0581 44.8081C39.729 44.9321 39.3726 45 39 45C38.1426 45 37.3691 44.6401 36.8223 44.0635C36.8838 44.022 36.9487 43.9849 37.0166 43.9521C37.0815 43.9209 37.1494 43.894 37.2197 43.8716L38.4038 43.498V43.3022C38.3042 43.2437 38.2119 43.1787 38.1289 43.1201L38.0132 43.04C37.8101 42.9033 37.6729 42.688 37.6318 42.4453L37.5693 42.0679C37.4155 42.0679 37.2852 41.9717 37.2344 41.8354C37.2197 41.7964 37.2119 41.7544 37.2119 41.7104C37.2119 41.6675 37.2197 41.626 37.2334 41.5879C37.2412 41.5664 37.251 41.5459 37.2622 41.5264L37.2812 41.498C37.3184 41.4482 37.3682 41.4077 37.4263 41.3828C37.3154 41.1235 37.2344 40.8491 37.1855 40.5669C37.166 40.4546 37.1519 40.3389 37.1567 40.2256C37.1597 40.1582 37.1699 40.0918 37.1899 40.0278C37.2422 39.856 37.3809 39.7046 37.5449 39.7017L37.5669 39.7036C37.6694 39.5425 37.8311 39.436 38.001 39.375C38.1646 39.3149 38.3374 39.2944 38.5112 39.2734L38.5259 39.272L38.7339 39.2495C38.8853 39.2344 39.0435 39.2251 39.2021 39.229C39.3809 39.2334 39.561 39.2539 39.7349 39.3027C39.8525 39.3354 39.9692 39.3828 40.0781 39.4453C40.1973 39.0317 40.4463 38.6724 40.7783 38.416C40.5679 38.3115 40.3467 38.2246 40.1172 38.1582C39.7627 38.0552 39.3877 38 39 38C38.7236 38 38.4541 38.0278 38.1938 38.0811C37.2822 38.2681 36.4834 38.7646 35.9131 39.4565C35.5918 39.8457 35.3428 40.2969 35.1865 40.7896C35.0654 41.1714 35 41.5781 35 42C35 42.1401 35.0073 42.2783 35.021 42.4146C35.0825 43.0122 35.2759 43.5713 35.5713 44.0615C35.6123 44.1294 35.6553 44.1963 35.7002 44.2617C35.793 44.397 35.8936 44.5259 36.002 44.6479C36.0659 44.7202 36.1323 44.79 36.2012 44.8574L36.209 44.8657L36.2144 44.8711C36.9346 45.5698 37.917 46 39 46C40.083 46 41.0654 45.5698 41.7856 44.8706C41.9126 44.7471 42.0312 44.6157 42.1406 44.4771Z" fill="white"/>
<rect x="27.5" y="14.5" width="3" height="3" rx="0.5" stroke="white"/>
<rect x="27.5" y="53.5" width="3" height="3" rx="0.5" stroke="white"/>
<rect x="27.5" y="27.5" width="3" height="3" rx="0.5" stroke="white"/>
<rect x="27.5" y="66.5" width="3" height="3" rx="0.5" stroke="white"/>
<rect x="27.5" y="40.5" width="3" height="3" rx="0.5" stroke="white"/>
</svg>
