<svg width="160" height="92" viewBox="0 0 160 92" fill="none" xmlns="http://www.w3.org/2000/svg">
<path fill-rule="evenodd" clip-rule="evenodd" d="M16 1C14.7174 1 14 1.75109 14 3.00046V83.0005C14 84.0523 14.9387 85.0005 16 85.0005L144 85.0002C145.077 85.0002 146.016 84.0561 146.016 83.0002V3.00023C146.016 1.73925 145.271 1 144 1H16ZM13 3.00046C13 1.19711 14.1668 0 16 0H144C145.815 0 147.016 1.17803 147.016 3.00023V83.0002C147.016 84.6137 145.623 86.0002 144 86.0002L16 86.0005C14.3957 86.0005 13 84.6138 13 83.0005V3.00046Z" fill="white"/>
<path fill-rule="evenodd" clip-rule="evenodd" d="M0.000647973 88.9819C0.0105552 87.8845 0.903034 87 2.00056 87H158.833C159.477 87 160 87.5225 160 88.1671C160 88.9891 159.486 90.0471 158.724 90.3347L158.719 90.3365L156.303 91.221L156.3 91.2219C154.931 91.7345 153.487 92.0002 152.022 92.0002H7.57727C6.24232 92.0002 4.90737 91.752 3.64853 91.2743L3.64164 91.2717L0.740965 90.143C0.286037 89.9704 0 89.5322 0 89.0537L0.000647973 88.9819ZM1.01854 88L1 89.0537C1 89.1355 1.04644 89.1895 1.09618 89.2082L1.10225 89.2105L4.00162 90.3387L4.00277 90.3392C5.15055 90.7747 6.36561 91.0002 7.57727 91.0002H152.022C153.37 91.0002 154.702 90.7547 155.964 90.2797L155.981 90.2736L155.988 90.2715L158.371 89.3991L158.373 89.3985C158.737 89.2601 159 88.5803 159 88.1671V88H1.01854Z" fill="white"/>
<path fill-rule="evenodd" clip-rule="evenodd" d="M16 5.00023C16 3.89566 16.8954 3.00023 18 3.00023H142C143.105 3.00023 144 3.89566 144 5.00023V81.0002C144 82.1048 143.105 83.0002 142 83.0002H18C16.8954 83.0002 16 82.1048 16 81.0002V5.00023ZM18 4.00023C17.4477 4.00023 17 4.44794 17 5.00023V81.0002C17 81.5525 17.4477 82.0002 18 82.0002H142C142.552 82.0002 143 81.5525 143 81.0002V5.00023C143 4.44794 142.552 4.00023 142 4.00023H18Z" fill="white"/>
<path d="M41 18C41 17.4477 41.4477 17 42 17H56C56.5523 17 57 17.4477 57 18C57 18.5523 56.5523 19 56 19H42C41.4477 19 41 18.5523 41 18Z" fill="white"/>
<path d="M41 22C41 21.4477 41.4477 21 42 21H47C47.5523 21 48 21.4477 48 22C48 22.5523 47.5523 23 47 23H42C41.4477 23 41 22.5523 41 22Z" fill="white"/>
<path d="M50 22C50 21.4477 50.4477 21 51 21H56C56.5523 21 57 21.4477 57 22C57 22.5523 56.5523 23 56 23H51C50.4477 23 50 22.5523 50 22Z" fill="white"/>
<circle cx="28" cy="18" r="1" fill="white"/>
<path fill-rule="evenodd" clip-rule="evenodd" d="M37.7854 22.8708C37.7854 22.8707 37.7855 22.8708 37.7854 22.8708C37.7859 22.8703 37.7863 22.87 37.7868 22.8695C37.9967 22.6656 38.1843 22.4388 38.3456 22.1933C38.4735 21.9986 38.5848 21.7922 38.6776 21.5759C38.7747 21.3497 38.8515 21.1128 38.9057 20.8674C38.9675 20.5881 39 20.2979 39 20C39 17.7909 37.2091 16 35 16C34.7239 16 34.4542 16.028 34.1938 16.0813C32.769 16.3728 31.6201 17.422 31.1864 18.7895C31.0653 19.1714 31 19.578 31 20C31 20.1399 31.0072 20.2782 31.0212 20.4144C31.0827 21.0123 31.2759 21.5711 31.5713 22.0614C31.6124 22.1295 31.6554 22.1962 31.7003 22.2616C31.8478 22.4763 32.0156 22.6759 32.2011 22.8576C32.2035 22.8605 32.2062 22.863 32.2088 22.8655C32.2108 22.8674 32.2127 22.8692 32.2145 22.8709C32.2145 22.871 32.2145 22.8709 32.2145 22.8709C32.9347 23.5699 33.9171 24 35 24C36.0829 24 37.0652 23.5697 37.7854 22.8708ZM33.2197 21.8718C33.0761 21.9172 32.9428 21.9822 32.8223 22.0634C33.369 22.6402 34.1425 23 35 23C35.8575 23 36.6309 22.6403 37.1776 22.0635C37.0569 21.9823 36.9233 21.9172 36.7794 21.8718L35.5954 21.4978V21.3025C35.6795 21.2525 35.7586 21.1986 35.8313 21.1478C35.8475 21.1365 35.8634 21.1254 35.8789 21.1144C35.9166 21.0879 35.9524 21.0628 35.9861 21.0401C36.1901 20.9024 36.3269 20.6879 36.3671 20.4455L36.4298 20.068C36.6277 20.068 36.7873 19.9084 36.7873 19.7106C36.7873 19.5554 36.6888 19.4237 36.551 19.374C36.6059 19.1848 36.6539 18.9939 36.6757 18.7968C36.7097 18.4996 36.6827 18.1866 36.5492 17.9267C36.3819 17.5998 36.0637 17.3941 35.735 17.3026C35.561 17.254 35.3808 17.2332 35.2021 17.229C35.0432 17.2252 34.8854 17.2346 34.7341 17.2494C34.6643 17.2563 34.5946 17.2642 34.5257 17.272L34.5112 17.2736L34.5089 17.2739C34.3375 17.2943 34.1647 17.3149 34.0009 17.3749C33.8309 17.4359 33.6696 17.5423 33.5667 17.7036L33.5449 17.7018C33.381 17.7044 33.2424 17.8562 33.1901 18.0279C33.1369 18.1996 33.1543 18.388 33.1858 18.5667C33.2346 18.8492 33.3157 19.1238 33.4263 19.3827C33.3683 19.4079 33.3184 19.448 33.2814 19.4983C33.2377 19.5575 33.2119 19.6309 33.2119 19.7106C33.2119 19.9084 33.3714 20.068 33.5693 20.068L33.6321 20.4455C33.6731 20.6879 33.8099 20.9032 34.0131 21.0401C34.0493 21.0643 34.0881 21.0915 34.129 21.1202C34.2121 21.1786 34.3044 21.2435 34.4037 21.3025V21.4978L33.2197 21.8718Z" fill="white"/>
<path fill-rule="evenodd" clip-rule="evenodd" d="M108.571 36.7415C108.571 36.7414 108.571 36.7417 108.571 36.7415C108.572 36.7406 108.573 36.74 108.574 36.739C108.993 36.3312 109.369 35.8777 109.691 35.3865C109.947 34.9973 110.17 34.5844 110.355 34.1519C110.549 33.6995 110.703 33.2256 110.811 32.7347C110.935 32.1762 111 31.5958 111 31C111 26.5817 107.418 23 103 23C102.448 23 101.908 23.056 101.388 23.1625C98.5379 23.7456 96.2402 25.8439 95.3728 28.579C95.1307 29.3427 95 30.1561 95 31C95 31.2799 95.0144 31.5563 95.0424 31.8287C95.1654 33.0246 95.5517 34.1421 96.1427 35.1227C96.2248 35.2589 96.3108 35.3925 96.4006 35.5232C96.6955 35.9527 97.0312 36.3519 97.4022 36.7153C97.407 36.7209 97.4123 36.7261 97.4176 36.731C97.4215 36.7347 97.4254 36.7383 97.429 36.7419C97.429 36.742 97.429 36.7418 97.429 36.7419C98.8694 38.1398 100.834 39 103 39C105.166 39 107.13 38.1394 108.571 36.7415ZM99.4394 34.7436C99.1523 34.8343 98.8856 34.9644 98.6445 35.1267C99.738 36.2804 101.285 37 103 37C104.715 37 106.262 36.2805 107.355 35.127C107.114 34.9645 106.847 34.8344 106.559 34.7436L104.191 33.9956V33.6049C104.359 33.505 104.517 33.3973 104.663 33.2957C104.695 33.273 104.727 33.2507 104.758 33.2289C104.833 33.1758 104.905 33.1255 104.972 33.0802C105.38 32.8047 105.654 32.3757 105.734 31.8909L105.86 31.1359C106.255 31.1359 106.575 30.8168 106.575 30.4211C106.575 30.1107 106.378 29.8474 106.102 29.748C106.212 29.3697 106.308 28.9877 106.351 28.5937C106.419 27.9992 106.365 27.3732 106.098 26.8535C105.764 26.1996 105.127 25.7881 104.47 25.6051C104.122 25.5081 103.762 25.4664 103.404 25.458C103.086 25.4505 102.771 25.4692 102.468 25.4987C102.329 25.5127 102.189 25.5283 102.051 25.5439L102.022 25.5472L102.018 25.5477C101.675 25.5886 101.329 25.6299 101.002 25.7498C100.662 25.8718 100.339 26.0845 100.133 26.4072L100.09 26.4036C99.7621 26.4088 99.4848 26.7123 99.3801 27.0558C99.2737 27.3993 99.3087 27.776 99.3715 28.1334C99.4692 28.6984 99.6313 29.2475 99.8526 29.7654C99.7366 29.8158 99.6368 29.896 99.5628 29.9966C99.4754 30.115 99.4238 30.2617 99.4238 30.4211C99.4238 30.8168 99.7429 31.1359 100.139 31.1359L100.264 31.8909C100.346 32.3757 100.62 32.8064 101.026 33.0802C101.099 33.1285 101.176 33.1829 101.258 33.2404C101.424 33.3573 101.609 33.4869 101.807 33.6049V33.9956L99.4394 34.7436Z" fill="white"/>
<path d="M95 42C95 41.4477 95.4477 41 96 41H110C110.552 41 111 41.4477 111 42C111 42.5523 110.552 43 110 43H96C95.4477 43 95 42.5523 95 42Z" fill="white"/>
<path d="M95 46C95 45.4477 95.4477 45 96 45H101C101.552 45 102 45.4477 102 46C102 46.5523 101.552 47 101 47H96C95.4477 47 95 46.5523 95 46Z" fill="white"/>
<path d="M104 46C104 45.4477 104.448 45 105 45H110C110.552 45 111 45.4477 111 46C111 46.5523 110.552 47 110 47H105C104.448 47 104 46.5523 104 46Z" fill="white"/>
<path d="M41 33C41 32.4477 41.4477 32 42 32H56C56.5523 32 57 32.4477 57 33C57 33.5523 56.5523 34 56 34H42C41.4477 34 41 33.5523 41 33Z" fill="white"/>
<path d="M41 37C41 36.4477 41.4477 36 42 36H47C47.5523 36 48 36.4477 48 37C48 37.5523 47.5523 38 47 38H42C41.4477 38 41 37.5523 41 37Z" fill="white"/>
<path d="M50 37C50 36.4477 50.4477 36 51 36H56C56.5523 36 57 36.4477 57 37C57 37.5523 56.5523 38 56 38H51C50.4477 38 50 37.5523 50 37Z" fill="white"/>
<circle cx="28" cy="33" r="1" fill="white"/>
<path fill-rule="evenodd" clip-rule="evenodd" d="M37.7854 37.8708C37.7854 37.8707 37.7855 37.8708 37.7854 37.8708C37.7859 37.8703 37.7863 37.87 37.7868 37.8695C37.9967 37.6656 38.1843 37.4388 38.3456 37.1933C38.4735 36.9986 38.5848 36.7922 38.6776 36.5759C38.7747 36.3497 38.8515 36.1128 38.9057 35.8674C38.9675 35.5881 39 35.2979 39 35C39 32.7909 37.2091 31 35 31C34.7239 31 34.4542 31.028 34.1938 31.0813C32.769 31.3728 31.6201 32.422 31.1864 33.7895C31.0653 34.1714 31 34.578 31 35C31 35.1399 31.0072 35.2782 31.0212 35.4144C31.0827 36.0123 31.2759 36.5711 31.5713 37.0614C31.6124 37.1295 31.6554 37.1962 31.7003 37.2616C31.8478 37.4763 32.0156 37.6759 32.2011 37.8576C32.2035 37.8605 32.2062 37.863 32.2088 37.8655C32.2108 37.8674 32.2127 37.8692 32.2145 37.8709C32.2145 37.871 32.2145 37.8709 32.2145 37.8709C32.9347 38.5699 33.9171 39 35 39C36.0829 39 37.0652 38.5697 37.7854 37.8708ZM33.2197 36.8718C33.0761 36.9172 32.9428 36.9822 32.8223 37.0634C33.369 37.6402 34.1425 38 35 38C35.8575 38 36.6309 37.6403 37.1776 37.0635C37.0569 36.9823 36.9233 36.9172 36.7794 36.8718L35.5954 36.4978V36.3025C35.6795 36.2525 35.7586 36.1986 35.8313 36.1478C35.8475 36.1365 35.8634 36.1254 35.8789 36.1144C35.9166 36.0879 35.9524 36.0628 35.9861 36.0401C36.1901 35.9024 36.3269 35.6879 36.3671 35.4455L36.4298 35.068C36.6277 35.068 36.7873 34.9084 36.7873 34.7106C36.7873 34.5554 36.6888 34.4237 36.551 34.374C36.6059 34.1848 36.6539 33.9939 36.6757 33.7968C36.7097 33.4996 36.6827 33.1866 36.5492 32.9267C36.3819 32.5998 36.0637 32.3941 35.735 32.3026C35.561 32.254 35.3808 32.2332 35.2021 32.229C35.0432 32.2252 34.8854 32.2346 34.7341 32.2494C34.6643 32.2563 34.5946 32.2642 34.5257 32.272L34.5112 32.2736L34.5089 32.2739C34.3375 32.2943 34.1647 32.3149 34.0009 32.3749C33.8309 32.4359 33.6696 32.5423 33.5667 32.7036L33.5449 32.7018C33.381 32.7044 33.2424 32.8562 33.1901 33.0279C33.1369 33.1996 33.1543 33.388 33.1858 33.5667C33.2346 33.8492 33.3157 34.1238 33.4263 34.3827C33.3683 34.4079 33.3184 34.448 33.2814 34.4983C33.2377 34.5575 33.2119 34.6309 33.2119 34.7106C33.2119 34.9084 33.3714 35.068 33.5693 35.068L33.6321 35.4455C33.6731 35.6879 33.8099 35.9032 34.0131 36.0401C34.0493 36.0643 34.0881 36.0915 34.129 36.1202C34.2121 36.1786 34.3044 36.2435 34.4037 36.3025V36.4978L33.2197 36.8718Z" fill="white"/>
<path d="M41 48C41 47.4477 41.4477 47 42 47H56C56.5523 47 57 47.4477 57 48C57 48.5523 56.5523 49 56 49H42C41.4477 49 41 48.5523 41 48Z" fill="white"/>
<path d="M41 52C41 51.4477 41.4477 51 42 51H47C47.5523 51 48 51.4477 48 52C48 52.5523 47.5523 53 47 53H42C41.4477 53 41 52.5523 41 52Z" fill="white"/>
<path d="M50 52C50 51.4477 50.4477 51 51 51H56C56.5523 51 57 51.4477 57 52C57 52.5523 56.5523 53 56 53H51C50.4477 53 50 52.5523 50 52Z" fill="white"/>
<circle cx="28" cy="48" r="1" fill="white"/>
<path fill-rule="evenodd" clip-rule="evenodd" d="M37.7854 52.8708C37.7854 52.8707 37.7855 52.8708 37.7854 52.8708C37.7859 52.8703 37.7863 52.87 37.7868 52.8695C37.9967 52.6656 38.1843 52.4388 38.3456 52.1933C38.4735 51.9986 38.5848 51.7922 38.6776 51.5759C38.7747 51.3497 38.8515 51.1128 38.9057 50.8674C38.9675 50.5881 39 50.2979 39 50C39 47.7909 37.2091 46 35 46C34.7239 46 34.4542 46.028 34.1938 46.0813C32.769 46.3728 31.6201 47.422 31.1864 48.7895C31.0653 49.1714 31 49.578 31 50C31 50.1399 31.0072 50.2782 31.0212 50.4144C31.0827 51.0123 31.2759 51.5711 31.5713 52.0614C31.6124 52.1295 31.6554 52.1962 31.7003 52.2616C31.8478 52.4763 32.0156 52.6759 32.2011 52.8576C32.2035 52.8605 32.2062 52.863 32.2088 52.8655C32.2108 52.8674 32.2127 52.8692 32.2145 52.8709C32.2145 52.871 32.2145 52.8709 32.2145 52.8709C32.9347 53.5699 33.9171 54 35 54C36.0829 54 37.0652 53.5697 37.7854 52.8708ZM33.2197 51.8718C33.0761 51.9172 32.9428 51.9822 32.8223 52.0634C33.369 52.6402 34.1425 53 35 53C35.8575 53 36.6309 52.6403 37.1776 52.0635C37.0569 51.9823 36.9233 51.9172 36.7794 51.8718L35.5954 51.4978V51.3025C35.6795 51.2525 35.7586 51.1986 35.8313 51.1478C35.8475 51.1365 35.8634 51.1254 35.8789 51.1144C35.9166 51.0879 35.9524 51.0628 35.9861 51.0401C36.1901 50.9024 36.3269 50.6879 36.3671 50.4455L36.4298 50.068C36.6277 50.068 36.7873 49.9084 36.7873 49.7106C36.7873 49.5554 36.6888 49.4237 36.551 49.374C36.6059 49.1848 36.6539 48.9939 36.6757 48.7968C36.7097 48.4996 36.6827 48.1866 36.5492 47.9267C36.3819 47.5998 36.0637 47.3941 35.735 47.3026C35.561 47.254 35.3808 47.2332 35.2021 47.229C35.0432 47.2252 34.8854 47.2346 34.7341 47.2494C34.6643 47.2563 34.5946 47.2642 34.5257 47.272L34.5112 47.2736L34.5089 47.2739C34.3375 47.2943 34.1647 47.3149 34.0009 47.3749C33.8309 47.4359 33.6696 47.5423 33.5667 47.7036L33.5449 47.7018C33.381 47.7044 33.2424 47.8562 33.1901 48.0279C33.1369 48.1996 33.1543 48.388 33.1858 48.5667C33.2346 48.8492 33.3157 49.1238 33.4263 49.3827C33.3683 49.4079 33.3184 49.448 33.2814 49.4983C33.2377 49.5575 33.2119 49.6309 33.2119 49.7106C33.2119 49.9084 33.3714 50.068 33.5693 50.068L33.6321 50.4455C33.6731 50.6879 33.8099 50.9032 34.0131 51.0401C34.0493 51.0643 34.0881 51.0915 34.129 51.1202C34.2121 51.1786 34.3044 51.2435 34.4037 51.3025V51.4978L33.2197 51.8718Z" fill="white"/>
<path d="M41 63C41 62.4477 41.4477 62 42 62H56C56.5523 62 57 62.4477 57 63C57 63.5523 56.5523 64 56 64H42C41.4477 64 41 63.5523 41 63Z" fill="white"/>
<path d="M41 67C41 66.4477 41.4477 66 42 66H47C47.5523 66 48 66.4477 48 67C48 67.5523 47.5523 68 47 68H42C41.4477 68 41 67.5523 41 67Z" fill="white"/>
<path d="M50 67C50 66.4477 50.4477 66 51 66H56C56.5523 66 57 66.4477 57 67C57 67.5523 56.5523 68 56 68H51C50.4477 68 50 67.5523 50 67Z" fill="white"/>
<circle cx="28" cy="63" r="1" fill="white"/>
<path fill-rule="evenodd" clip-rule="evenodd" d="M37.7854 67.8708C37.7854 67.8707 37.7855 67.8708 37.7854 67.8708C37.7859 67.8703 37.7863 67.87 37.7868 67.8695C37.9967 67.6656 38.1843 67.4388 38.3456 67.1933C38.4735 66.9986 38.5848 66.7922 38.6776 66.5759C38.7747 66.3497 38.8515 66.1128 38.9057 65.8674C38.9675 65.5881 39 65.2979 39 65C39 62.7909 37.2091 61 35 61C34.7239 61 34.4542 61.028 34.1938 61.0813C32.769 61.3728 31.6201 62.422 31.1864 63.7895C31.0653 64.1714 31 64.578 31 65C31 65.1399 31.0072 65.2782 31.0212 65.4144C31.0827 66.0123 31.2759 66.5711 31.5713 67.0614C31.6124 67.1295 31.6554 67.1962 31.7003 67.2616C31.8478 67.4763 32.0156 67.6759 32.2011 67.8576C32.2035 67.8605 32.2062 67.863 32.2088 67.8655C32.2108 67.8674 32.2127 67.8692 32.2145 67.8709C32.2145 67.871 32.2145 67.8709 32.2145 67.8709C32.9347 68.5699 33.9171 69 35 69C36.0829 69 37.0652 68.5697 37.7854 67.8708ZM33.2197 66.8718C33.0761 66.9172 32.9428 66.9822 32.8223 67.0634C33.369 67.6402 34.1425 68 35 68C35.8575 68 36.6309 67.6403 37.1776 67.0635C37.0569 66.9823 36.9233 66.9172 36.7794 66.8718L35.5954 66.4978V66.3025C35.6795 66.2525 35.7586 66.1986 35.8313 66.1478C35.8475 66.1365 35.8634 66.1254 35.8789 66.1144C35.9166 66.0879 35.9524 66.0628 35.9861 66.0401C36.1901 65.9024 36.3269 65.6879 36.3671 65.4455L36.4298 65.068C36.6277 65.068 36.7873 64.9084 36.7873 64.7106C36.7873 64.5554 36.6888 64.4237 36.551 64.374C36.6059 64.1848 36.6539 63.9939 36.6757 63.7968C36.7097 63.4996 36.6827 63.1866 36.5492 62.9267C36.3819 62.5998 36.0637 62.3941 35.735 62.3026C35.561 62.254 35.3808 62.2332 35.2021 62.229C35.0432 62.2252 34.8854 62.2346 34.7341 62.2494C34.6643 62.2563 34.5946 62.2642 34.5257 62.272L34.5112 62.2736L34.5089 62.2739C34.3375 62.2943 34.1647 62.3149 34.0009 62.3749C33.8309 62.4359 33.6696 62.5423 33.5667 62.7036L33.5449 62.7018C33.381 62.7044 33.2424 62.8562 33.1901 63.0279C33.1369 63.1996 33.1543 63.388 33.1858 63.5667C33.2346 63.8492 33.3157 64.1238 33.4263 64.3827C33.3683 64.4079 33.3184 64.448 33.2814 64.4983C33.2377 64.5575 33.2119 64.6309 33.2119 64.7106C33.2119 64.9084 33.3714 65.068 33.5693 65.068L33.6321 65.4455C33.6731 65.6879 33.8099 65.9032 34.0131 66.0401C34.0493 66.0643 34.0881 66.0915 34.129 66.1202C34.2121 66.1786 34.3044 66.2435 34.4037 66.3025V66.4978L33.2197 66.8718Z" fill="white"/>
<circle cx="98.5" cy="58.5" r="3.5" fill="white"/>
<circle cx="107.5" cy="58.5" r="3.5" fill="white"/>
</svg>
