<svg width="160" height="92" viewBox="0 0 160 92" fill="none" xmlns="http://www.w3.org/2000/svg">
    <path d="M146.535 3.28409V84.1524C146.535 85.4871 145.463 86.5569 144.113 86.5569H15.8873C14.5545 86.5569 13.4657 85.485 13.4657 84.1524V3.28409C13.4657 1.75773 14.7113 0.5 16.2692 0.5H143.731C145.274 0.5 146.535 1.7425 146.535 3.28409Z"
          stroke="#5256E6"/>
    <path d="M156.159 90.7475L156.159 90.7475L156.164 90.746L158.566 89.8667C159.13 89.6539 159.5 89.1165 159.5 88.4986V87.8315H0.518539V89.0535C0.518539 89.3342 0.685501 89.5808 0.938843 89.676L0.944214 89.6781L3.84151 90.8055C3.8423 90.8058 3.84311 90.8061 3.8439 90.8064C5.04729 91.2631 6.3224 91.5 7.59581 91.5H152.041C153.45 91.5 154.841 91.2433 156.159 90.7475Z"
          stroke="#5256E6"/>
    <path d="M19.2588 81.6135V6.26715H141.293V81.6135H19.2588Z" stroke="#5256E6"/>
    <ellipse cx="97.4786" cy="60.8241" rx="3.43379" ry="3.41842" fill="#5256E6"/>
    <rect x="92.1508" y="46.0511" width="2.94593" height="1.37954" rx="0.689772" fill="#5256E6"/>
    <rect x="95.517" y="46.0511" width="4.4189" height="1.37954" rx="0.689772" fill="#5256E6"/>
    <rect x="100.357" y="46.0511" width="11.5733" height="1.37954" rx="0.689772" fill="#5256E6"/>
    <rect x="92.1508" y="44.0174" width="19.7798" height="1.37954" rx="0.689772" fill="#5256E6"/>
    <ellipse cx="106.603" cy="60.8429" rx="3.43379" ry="3.41842" fill="#5256E6"/>
    <path d="M102.041 26.2115C98.0923 26.2115 94.8864 29.4032 94.8864 33.3339C94.8864 37.2647 98.0923 40.4563 102.041 40.4563C105.989 40.4563 109.195 37.2647 109.195 33.3339C109.195 29.4144 105.978 26.2115 102.041 26.2115ZM100.983 35.1593C101.253 35.4169 101.58 35.6857 101.951 35.7417C101.962 35.7529 101.973 35.7528 101.996 35.7528C102.007 35.7528 102.018 35.7528 102.041 35.7528C102.052 35.7528 102.063 35.7528 102.086 35.7528C102.108 35.7528 102.12 35.7529 102.131 35.7417C102.502 35.6857 102.828 35.4281 103.098 35.1593C103.109 35.5625 103.177 35.9656 103.177 36.3688C103.166 36.9287 102.626 37.4215 102.052 37.4439C101.478 37.4215 100.927 36.9287 100.927 36.3688C100.905 35.9656 100.972 35.5625 100.983 35.1593ZM100.027 33.5467C99.7909 33.11 99.7909 32.6956 99.8247 32.2141C99.8472 31.7549 99.8697 31.307 99.9034 30.859C99.9709 30.859 100.05 30.8478 100.128 30.8254C100.241 30.7806 100.297 30.691 100.32 30.5902C100.443 30.6686 100.612 30.691 100.747 30.635C100.781 30.6238 100.803 30.5902 100.826 30.5454C101.028 30.8814 101.4 31.027 101.816 30.9934C102.03 30.9822 102.299 30.7694 102.457 30.5343C102.502 30.6014 102.581 30.6574 102.682 30.7022C102.839 30.7694 102.997 30.747 103.132 30.6798C103.188 30.7694 103.278 30.8478 103.402 30.915C103.683 31.0494 103.919 31.0494 104.167 30.9374C104.201 31.363 104.212 31.7885 104.234 32.2253C104.257 32.7068 104.268 33.1212 104.032 33.5579C103.773 34.0282 103.537 34.4874 103.132 34.857C102.817 35.1481 102.479 35.5401 102.018 35.5737C101.568 35.5401 101.22 35.1481 100.905 34.857C100.522 34.4762 100.286 34.0282 100.027 33.5467ZM106.81 38.1494C106.619 37.8134 106.428 37.4663 106.27 37.1191C106.034 36.5928 105.539 36.5704 105.022 36.4248C104.448 36.2568 103.886 36.0328 103.323 35.8536C103.323 35.8536 103.323 35.8536 103.312 35.8536C103.278 35.5625 103.256 35.2825 103.267 34.9913V34.9801C103.593 34.6442 103.863 34.3082 104.077 33.8827C104.178 33.6699 104.302 33.4683 104.381 33.2555C104.381 33.2443 104.381 33.2443 104.381 33.2331C104.864 33.3227 104.729 32.4828 104.842 32.2253C104.898 32.0909 104.921 31.9789 104.909 31.8781C105.449 31.9565 105.652 31.0718 105.269 30.7806C105.449 30.6462 105.584 30.3887 105.562 30.1983C105.517 29.7727 105.359 29.4704 104.943 29.3024C105.011 29.2128 105.033 29.1008 104.988 28.9776C104.921 28.7872 104.752 28.6753 104.572 28.6753C104.617 28.4513 104.583 28.2049 104.482 28.0817C104.257 27.8242 103.829 27.6226 103.503 27.7682C103.481 27.6898 103.447 27.6226 103.402 27.5778C103.312 27.4882 103.166 27.4882 103.042 27.5442C102.986 27.3874 102.873 27.253 102.716 27.2082C102.614 27.1858 102.491 27.197 102.378 27.2306C102.221 27.1074 101.973 27.1522 101.816 27.2754C101.681 27.197 101.512 27.1634 101.388 27.2082C101.231 27.253 101.107 27.3874 101.062 27.5442C100.938 27.4994 100.792 27.4882 100.702 27.5778C100.657 27.6226 100.623 27.6898 100.601 27.7682C100.275 27.6114 99.8359 27.813 99.6222 28.0817C99.521 28.2049 99.4872 28.4513 99.5322 28.6753C99.341 28.6753 99.1722 28.7872 99.116 28.9776C99.071 29.1008 99.1048 29.2128 99.161 29.3024C98.7448 29.4592 98.5873 29.7615 98.5423 30.1983C98.5198 30.3887 98.6548 30.6462 98.8348 30.7806C98.4411 31.0718 98.6435 31.9565 99.1947 31.8781C99.1835 31.9789 99.206 32.1021 99.2622 32.2253C99.3747 32.4716 99.251 33.3003 99.7122 33.2331V33.2443C99.7909 33.4683 99.9147 33.6699 100.016 33.8715C100.241 34.3082 100.511 34.633 100.826 34.9689V34.9801C100.837 35.2713 100.815 35.5513 100.781 35.8424H100.77C100.196 36.0104 99.6447 36.2456 99.071 36.4136C98.5535 36.5592 98.0586 36.5816 97.8224 37.1079C97.6649 37.4551 97.4736 37.8022 97.2824 38.1382C96.0338 36.9063 95.2688 35.2041 95.2688 33.3339C95.2688 29.6048 98.3173 26.5699 102.063 26.5699C105.809 26.5699 108.858 29.6048 108.858 33.3339C108.835 35.2153 108.059 36.9175 106.81 38.1494ZM104.437 32.4604C104.426 32.2141 104.414 31.9677 104.403 31.7213C104.729 31.6653 104.752 32.0013 104.651 32.2365C104.628 32.2812 104.617 32.326 104.606 32.382C104.594 32.4828 104.617 33.054 104.426 33.0652C104.459 32.8636 104.448 32.662 104.437 32.4604ZM99.6447 33.054C99.4647 33.0204 99.4872 32.4828 99.476 32.382C99.476 32.3372 99.4535 32.2812 99.431 32.2365C99.3297 32.0125 99.3522 31.6765 99.6672 31.7213C99.656 31.9677 99.6447 32.2141 99.6335 32.4604C99.6222 32.662 99.611 32.8524 99.6447 33.054Z"
          fill="#5256E6"/>
    <mask id="path-11-inside-1_532_3066" fill="white">
        <path d="M102.502 34.4986C102.581 34.4651 102.66 34.4315 102.693 34.3755C102.727 34.3195 102.75 34.2747 102.761 34.2187C102.772 34.2075 102.772 34.1963 102.772 34.1851C102.783 34.1739 102.795 34.1627 102.795 34.1403C102.795 34.0619 102.772 33.9723 102.66 33.9387C102.558 33.9051 102.468 33.8715 102.345 33.8715C102.21 33.8715 102.108 33.9275 102.03 33.9947C101.962 33.9275 101.861 33.8715 101.715 33.8715C101.591 33.8715 101.501 33.8939 101.4 33.9387C101.287 33.9835 101.265 34.0731 101.265 34.1403C101.265 34.1627 101.276 34.1739 101.287 34.1851C101.287 34.1963 101.287 34.2075 101.298 34.2187C101.31 34.2747 101.332 34.3307 101.366 34.3755C101.4 34.4315 101.478 34.4651 101.557 34.4986C101.681 34.5434 101.872 34.5658 102.018 34.5434C102.176 34.5658 102.378 34.5434 102.502 34.4986Z"/>
    </mask>
    <path d="M102.502 34.4986L102.842 35.4389L102.869 35.4294L102.894 35.4184L102.502 34.4986ZM102.761 34.2187L102.055 33.51L101.84 33.7241L101.78 34.0217L102.761 34.2187ZM102.772 34.1851L102.067 33.4764L101.772 33.7696V34.1851H102.772ZM102.66 33.9387L102.345 34.8878L102.359 34.8926L102.373 34.8969L102.66 33.9387ZM102.03 33.9947L101.324 34.7034L101.977 35.3538L102.679 34.7554L102.03 33.9947ZM101.4 33.9387L101.77 34.8678L101.787 34.8608L101.804 34.8532L101.4 33.9387ZM101.287 34.1851H102.287V33.7696L101.993 33.4764L101.287 34.1851ZM101.298 34.2187L102.279 34.0217L102.219 33.7241L102.004 33.51L101.298 34.2187ZM101.366 34.3755L102.222 33.8593L102.196 33.815L102.165 33.7737L101.366 34.3755ZM101.557 34.4986L101.165 35.4184L101.19 35.4294L101.217 35.4389L101.557 34.4986ZM102.018 34.5434L102.159 33.5534L102.013 33.5326L101.867 33.555L102.018 34.5434ZM102.894 35.4184C102.92 35.4074 103.02 35.3665 103.117 35.3102C103.21 35.2562 103.406 35.1301 103.55 34.8917L101.837 33.8593C101.894 33.7639 101.959 33.6982 102.006 33.6571C102.053 33.6166 102.093 33.5921 102.112 33.5807C102.132 33.569 102.145 33.5635 102.142 33.5649C102.138 33.5666 102.132 33.5694 102.11 33.5789L102.894 35.4184ZM103.55 34.8917C103.603 34.8028 103.696 34.6407 103.741 34.4156L101.78 34.0217C101.791 33.9697 101.807 33.9244 101.822 33.8894C101.835 33.8601 101.845 33.8452 101.837 33.8593L103.55 34.8917ZM103.466 34.9274C103.79 34.6052 103.772 34.2118 103.772 34.1851H101.772C101.772 34.2093 101.767 34.0917 101.801 33.9583C101.843 33.7912 101.93 33.635 102.055 33.51L103.466 34.9274ZM103.478 34.8938C103.499 34.8728 103.795 34.6042 103.795 34.1403H101.795C101.795 33.9654 101.843 33.7959 101.931 33.6507C102.001 33.5353 102.085 33.4576 102.067 33.4764L103.478 34.8938ZM103.795 34.1403C103.795 34.0212 103.78 33.7901 103.649 33.5469C103.498 33.2678 103.245 33.07 102.946 32.9805L102.373 34.8969C102.186 34.8411 102.001 34.7048 101.89 34.4985C101.797 34.3281 101.795 34.181 101.795 34.1403H103.795ZM102.974 32.9896C102.907 32.9671 102.659 32.8715 102.345 32.8715V34.8715C102.33 34.8715 102.314 34.8705 102.299 34.8684C102.284 34.8665 102.274 34.864 102.269 34.8629C102.265 34.862 102.267 34.8623 102.28 34.8665C102.287 34.8685 102.294 34.8711 102.306 34.8748C102.311 34.8767 102.317 34.8785 102.323 34.8807C102.33 34.8829 102.337 34.8853 102.345 34.8878L102.974 32.9896ZM102.345 32.8715C101.901 32.8715 101.578 33.0651 101.38 33.234L102.679 34.7554C102.662 34.7695 102.623 34.7999 102.561 34.8264C102.496 34.8547 102.421 34.8715 102.345 34.8715V32.8715ZM102.735 33.286C102.496 33.0477 102.146 32.8715 101.715 32.8715V34.8715C101.657 34.8715 101.583 34.8596 101.506 34.8264C101.431 34.7939 101.37 34.7489 101.324 34.7034L102.735 33.286ZM101.715 32.8715C101.439 32.8715 101.212 32.9284 100.995 33.0242L101.804 34.8532C101.81 34.8509 101.793 34.8584 101.765 34.8647C101.751 34.8677 101.739 34.8695 101.729 34.8705C101.719 34.8715 101.714 34.8715 101.715 34.8715V32.8715ZM101.03 33.0097C100.764 33.1155 100.546 33.3051 100.41 33.5553C100.286 33.7848 100.265 34.0037 100.265 34.1403H102.265C102.265 34.2097 102.254 34.3502 102.17 34.5069C102.074 34.6843 101.923 34.8067 101.77 34.8678L101.03 33.0097ZM100.265 34.1403C100.265 34.6042 100.561 34.8728 100.582 34.8938L101.993 33.4764C101.974 33.4576 102.059 33.5353 102.128 33.6507C102.216 33.7959 102.265 33.9654 102.265 34.1403H100.265ZM100.287 34.1851C100.287 34.2115 100.269 34.6051 100.593 34.9274L102.004 33.51C102.13 33.6351 102.217 33.7913 102.258 33.9585C102.292 34.0918 102.287 34.2094 102.287 34.1851H100.287ZM100.318 34.4156C100.353 34.5878 100.426 34.7901 100.567 34.9772L102.165 33.7737C102.238 33.8712 102.267 33.9615 102.279 34.0217L100.318 34.4156ZM100.509 34.8917C100.653 35.1301 100.849 35.2562 100.942 35.3102C101.039 35.3665 101.139 35.4074 101.165 35.4184L101.95 33.5789C101.927 33.5694 101.921 33.5666 101.917 33.5649C101.914 33.5635 101.927 33.569 101.947 33.5807C101.966 33.5921 102.006 33.6166 102.053 33.6571C102.1 33.6982 102.165 33.7639 102.222 33.8593L100.509 34.8917ZM101.217 35.4389C101.491 35.5383 101.851 35.5807 102.17 35.5319L101.867 33.555C101.877 33.5535 101.884 33.5528 101.888 33.5525C101.89 33.5524 101.891 33.5523 101.892 33.5523C101.893 33.5522 101.893 33.5522 101.893 33.5522C101.893 33.5522 101.893 33.5522 101.892 33.5522C101.892 33.5522 101.891 33.5522 101.89 33.5521C101.887 33.552 101.885 33.5518 101.882 33.5515C101.879 33.5512 101.876 33.5508 101.874 33.5505C101.873 33.5503 101.872 33.5501 101.871 33.55C101.87 33.5499 101.87 33.5498 101.87 33.5498C101.87 33.5498 101.871 33.5499 101.871 33.5502C101.872 33.5504 101.874 33.5508 101.876 33.5513C101.88 33.5524 101.887 33.5546 101.898 33.5584L101.217 35.4389ZM101.878 35.5335C102.19 35.5779 102.558 35.542 102.842 35.4389L102.162 33.5584C102.174 33.5538 102.183 33.5512 102.187 33.55C102.192 33.5488 102.194 33.5484 102.194 33.5485C102.193 33.5486 102.191 33.549 102.188 33.5495C102.184 33.55 102.18 33.5505 102.175 33.551C102.166 33.552 102.157 33.5523 102.151 33.5522C102.148 33.5522 102.147 33.5521 102.148 33.5522C102.149 33.5522 102.153 33.5525 102.159 33.5534L101.878 35.5335Z"
          fill="#5256E6" mask="url(#path-11-inside-1_532_3066)"/>
    <ellipse cx="32.472" cy="18.4324" rx="1.17241" ry="1.18801" fill="#5256E6"/>
    <rect x="44.4246" y="19.4805" width="19.8621" height="1.37954" rx="0.689772" fill="#5256E6"/>
    <rect x="44.4246" y="21.5865" width="3.03448" height="1.37954" rx="0.689772" fill="#5256E6"/>
    <rect x="47.8729" y="21.5865" width="4.27586" height="1.37954" rx="0.689772" fill="#5256E6"/>
    <rect x="52.5625" y="21.5865" width="11.7241" height="1.37954" rx="0.689772" fill="#5256E6"/>
    <path d="M38.1489 17.5336C35.84 17.5336 33.9652 19.4235 33.9652 21.7511C33.9652 24.0787 35.84 25.9686 38.1489 25.9686C40.4578 25.9686 42.3326 24.0787 42.3326 21.7511C42.3326 19.4302 40.4578 17.5336 38.1489 17.5336ZM35.6887 24.8943C35.7742 24.5893 35.8926 24.3108 36.1031 24.1715C36.1491 24.1384 36.6425 23.9593 36.7872 23.9195C37.0043 23.8665 37.2148 23.7869 37.4253 23.7272C37.4122 23.8333 37.4056 23.9461 37.4253 24.0455C37.4845 24.3174 37.9187 24.3771 38.1621 24.3771C38.1686 24.3771 38.1752 24.3771 38.1818 24.3771C38.1884 24.3771 38.1949 24.3771 38.2015 24.3771C38.4515 24.3705 38.8791 24.3174 38.9383 24.0455C38.958 23.9527 38.9514 23.84 38.9383 23.7339C39.1488 23.7936 39.3527 23.8665 39.5632 23.9195C39.6421 23.9394 39.7277 23.9593 39.8066 23.9859L39.9118 24.019C40.0302 24.0588 40.1487 24.1052 40.2473 24.1715C40.4512 24.3174 40.5631 24.5827 40.6354 24.8745C39.9513 25.4315 39.0896 25.763 38.1423 25.763C37.2214 25.763 36.3662 25.4381 35.6887 24.8943ZM38.1818 23.2763C37.945 23.2564 37.4714 22.8453 37.4714 22.8453C37.2806 22.706 37.0898 22.4872 36.9583 22.3081C36.8004 22.0959 36.728 21.9501 36.728 21.6715C36.728 21.5654 36.728 21.4593 36.7346 21.3532C37.0767 21.4726 37.5569 21.3599 37.8529 21.267C38.1423 21.1808 38.3857 21.0482 38.6291 20.8625C38.6817 20.8227 38.7278 20.7763 38.7738 20.7299C38.9317 21.0747 39.2738 21.34 39.6356 21.393C39.6356 21.4859 39.6356 21.5787 39.6356 21.6649C39.6356 21.9368 39.5566 22.0893 39.4053 22.3015C39.2738 22.4806 39.083 22.6928 38.8922 22.8386C38.8922 22.8453 38.4186 23.2564 38.1818 23.2763ZM38.6225 24.1914C38.4712 24.2445 38.3397 24.271 38.1818 24.2776C38.0239 24.2776 37.8924 24.2445 37.7411 24.1914C37.524 24.1119 37.5174 23.9394 37.5371 23.7405C37.5569 23.515 37.5766 23.2829 37.5766 23.0509C37.7542 23.1901 37.9384 23.3559 38.1621 23.3824C38.1686 23.3824 38.1752 23.389 38.1884 23.389C38.1949 23.389 38.2081 23.389 38.2147 23.3824C38.4318 23.3559 38.6225 23.1901 38.8001 23.0509C38.8067 23.2432 38.8396 23.7272 38.8396 23.7405C38.8528 23.9394 38.8396 24.1119 38.6225 24.1914ZM40.7341 24.7949C40.6617 24.5164 40.5565 24.2577 40.3592 24.1185C40.2276 24.0256 40.0763 23.9593 39.9184 23.9129C39.9842 22.8718 40.6486 21.9501 40.7012 20.9089C40.7275 20.4116 40.6486 19.7816 40.3723 19.3506C40.1158 18.9527 39.675 18.8334 39.2409 18.9792C38.912 18.3095 38.1949 18.0774 37.4911 18.1238C36.7412 18.1769 36.1228 18.7405 35.8071 19.4037C35.4979 20.0535 35.4256 20.9222 35.5637 21.6185C35.6426 22.0031 35.7545 22.3678 35.8794 22.7392C36.0176 23.157 36.1886 23.5416 36.2084 23.9925C36.1294 24.0256 36.0505 24.0721 35.9781 24.1185C35.7874 24.2511 35.6689 24.523 35.5834 24.8214C34.7151 24.0853 34.1626 22.9845 34.1626 21.7578C34.1626 19.5495 35.9452 17.7525 38.1357 17.7525C40.3263 17.7525 42.1089 19.5495 42.1089 21.7578C42.1221 22.9713 41.5827 24.0588 40.7341 24.7949Z"
          fill="#5256E6"/>
    <path d="M38.3092 22.7708C38.3056 22.7714 38.3018 22.7719 38.2978 22.7725C38.2944 22.7729 38.2909 22.7734 38.2872 22.7738C38.2809 22.7745 38.2742 22.7751 38.2672 22.7757C38.2483 22.7774 38.2271 22.7785 38.2048 22.7792C38.1593 22.7807 38.1094 22.7803 38.066 22.7781C38.0644 22.778 38.0627 22.7779 38.0611 22.7778L38.0109 22.7405L37.9865 22.7223L38.0109 22.6737L38.0162 22.6633L38.0346 22.6267L38.0481 22.6L38.0764 22.5436C38.0808 22.5466 38.0852 22.5499 38.0899 22.5534C38.0964 22.5578 38.1037 22.5651 38.111 22.5732C38.115 22.5776 38.119 22.5822 38.1228 22.5867C38.1332 22.5987 38.1427 22.6098 38.1491 22.613C38.1619 22.6087 38.1775 22.5904 38.1905 22.5745C38.1916 22.5731 38.1928 22.5716 38.194 22.5702C38.1995 22.5634 38.2045 22.5573 38.2083 22.5534M38.2083 22.5534L38.2588 22.6037L38.2083 22.5534ZM38.2083 22.5534C38.2206 22.541 38.2355 22.5312 38.2529 22.5256C38.2628 22.5224 38.2736 22.5205 38.2852 22.5204C38.2859 22.5203 38.2866 22.5203 38.2872 22.5203C38.2949 22.5195 38.3028 22.5196 38.3108 22.5206C38.3138 22.5316 38.3164 22.5425 38.3186 22.5536C38.3239 22.5799 38.3266 22.6064 38.3271 22.6327C38.3274 22.6455 38.3271 22.6581 38.3263 22.6707L38.3013 22.6458M38.3013 22.6458L38.2892 22.6339L38.3013 22.6458Z"
          stroke="#5256E6"/>
    <ellipse cx="32.472" cy="48.7641" rx="1.17241" ry="1.18801" fill="#5256E6"/>
    <rect x="44.4246" y="49.8124" width="19.8621" height="1.37954" rx="0.689772" fill="#5256E6"/>
    <rect x="44.4246" y="51.9183" width="3.03448" height="1.37954" rx="0.689772" fill="#5256E6"/>
    <rect x="47.8729" y="51.9183" width="4.27586" height="1.37954" rx="0.689772" fill="#5256E6"/>
    <rect x="52.5625" y="51.9183" width="11.7241" height="1.37954" rx="0.689772" fill="#5256E6"/>
    <path d="M38.1489 47.8656C35.84 47.8656 33.9652 49.7555 33.9652 52.0831C33.9652 54.4107 35.84 56.3006 38.1489 56.3006C40.4578 56.3006 42.3326 54.4107 42.3326 52.0831C42.3326 49.7621 40.4578 47.8656 38.1489 47.8656ZM35.6887 55.2263C35.7742 54.9213 35.8926 54.6428 36.1031 54.5035C36.1491 54.4703 36.6425 54.2913 36.7872 54.2515C37.0043 54.1985 37.2148 54.1189 37.4253 54.0592C37.4122 54.1653 37.4056 54.278 37.4253 54.3775C37.4845 54.6494 37.9187 54.7091 38.1621 54.7091C38.1686 54.7091 38.1752 54.7091 38.1818 54.7091C38.1884 54.7091 38.1949 54.7091 38.2015 54.7091C38.4515 54.7024 38.8791 54.6494 38.9383 54.3775C38.958 54.2847 38.9514 54.1719 38.9383 54.0658C39.1488 54.1255 39.3527 54.1985 39.5632 54.2515C39.6421 54.2714 39.7277 54.2913 39.8066 54.3178L39.9118 54.351C40.0302 54.3908 40.1487 54.4372 40.2473 54.5035C40.4512 54.6494 40.5631 54.9146 40.6354 55.2064C39.9513 55.7634 39.0896 56.095 38.1423 56.095C37.2214 56.095 36.3662 55.7701 35.6887 55.2263ZM38.1818 53.6083C37.945 53.5884 37.4714 53.1773 37.4714 53.1773C37.2806 53.038 37.0898 52.8192 36.9583 52.6401C36.8004 52.4279 36.728 52.282 36.728 52.0035C36.728 51.8974 36.728 51.7913 36.7346 51.6852C37.0767 51.8046 37.5569 51.6918 37.8529 51.599C38.1423 51.5128 38.3857 51.3802 38.6291 51.1945C38.6817 51.1547 38.7278 51.1083 38.7738 51.0619C38.9317 51.4067 39.2738 51.672 39.6356 51.725C39.6356 51.8178 39.6356 51.9107 39.6356 51.9969C39.6356 52.2688 39.5566 52.4213 39.4053 52.6335C39.2738 52.8125 39.083 53.0247 38.8922 53.1706C38.8922 53.1773 38.4186 53.5884 38.1818 53.6083ZM38.6225 54.5234C38.4712 54.5765 38.3397 54.603 38.1818 54.6096C38.0239 54.6096 37.8924 54.5765 37.7411 54.5234C37.524 54.4438 37.5174 54.2714 37.5371 54.0725C37.5569 53.847 37.5766 53.6149 37.5766 53.3828C37.7542 53.5221 37.9384 53.6879 38.1621 53.7144C38.1686 53.7144 38.1752 53.721 38.1884 53.721C38.1949 53.721 38.2081 53.721 38.2147 53.7144C38.4318 53.6879 38.6225 53.5221 38.8001 53.3828C38.8067 53.5751 38.8396 54.0592 38.8396 54.0725C38.8528 54.2714 38.8396 54.4438 38.6225 54.5234ZM40.7341 55.1268C40.6617 54.8483 40.5565 54.5897 40.3592 54.4505C40.2276 54.3576 40.0763 54.2913 39.9184 54.2449C39.9842 53.2038 40.6486 52.282 40.7012 51.2409C40.7275 50.7436 40.6486 50.1136 40.3723 49.6826C40.1158 49.2847 39.675 49.1653 39.2409 49.3112C38.912 48.6415 38.1949 48.4094 37.4911 48.4558C36.7412 48.5088 36.1228 49.0725 35.8071 49.7356C35.4979 50.3855 35.4256 51.2542 35.5637 51.9505C35.6426 52.3351 35.7545 52.6998 35.8794 53.0712C36.0176 53.4889 36.1886 53.8735 36.2084 54.3245C36.1294 54.3576 36.0505 54.404 35.9781 54.4505C35.7874 54.5831 35.6689 54.855 35.5834 55.1534C34.7151 54.4173 34.1626 53.3165 34.1626 52.0897C34.1626 49.8815 35.9452 48.0844 38.1357 48.0844C40.3263 48.0844 42.1089 49.8815 42.1089 52.0897C42.1221 53.3032 41.5827 54.3908 40.7341 55.1268Z"
          fill="#5256E6"/>
    <path d="M38.3092 53.1026C38.3056 53.1032 38.3018 53.1038 38.2978 53.1043C38.2944 53.1048 38.2909 53.1052 38.2872 53.1056C38.2809 53.1063 38.2742 53.107 38.2672 53.1076C38.2483 53.1092 38.2271 53.1104 38.2048 53.1111C38.1593 53.1126 38.1094 53.1122 38.066 53.11C38.0644 53.1099 38.0627 53.1098 38.0611 53.1097L38.0109 53.0723L37.9865 53.0541L38.0109 53.0056L38.0162 52.9952L38.0346 52.9586L38.0481 52.9318L38.0764 52.8754C38.0808 52.8785 38.0852 52.8818 38.0899 52.8853C38.0964 52.8897 38.1037 52.897 38.111 52.905C38.115 52.9094 38.119 52.9141 38.1228 52.9186C38.1332 52.9306 38.1427 52.9416 38.1491 52.9448C38.1619 52.9405 38.1775 52.9223 38.1905 52.9064C38.1916 52.9049 38.1928 52.9035 38.194 52.9021C38.1995 52.8952 38.2045 52.8891 38.2083 52.8853M38.2083 52.8853L38.2588 52.9355L38.2083 52.8853ZM38.2083 52.8853C38.2206 52.8729 38.2355 52.8631 38.2529 52.8575C38.2628 52.8542 38.2736 52.8524 38.2852 52.8522C38.2859 52.8522 38.2866 52.8522 38.2872 52.8522C38.2949 52.8513 38.3028 52.8515 38.3108 52.8525C38.3138 52.8634 38.3164 52.8744 38.3186 52.8854C38.3239 52.9118 38.3266 52.9383 38.3271 52.9646C38.3274 52.9773 38.3271 52.99 38.3263 53.0026L38.3013 52.9777M38.3013 52.9777L38.2892 52.9657L38.3013 52.9777Z"
          stroke="#5256E6"/>
    <ellipse cx="32.472" cy="33.5893" rx="1.17241" ry="1.18801" fill="#5256E6"/>
    <rect x="44.4246" y="34.6377" width="19.8621" height="1.37954" rx="0.689772" fill="#5256E6"/>
    <rect x="44.4246" y="36.7431" width="3.03448" height="1.37954" rx="0.689772" fill="#5256E6"/>
    <rect x="47.8729" y="36.7431" width="4.27586" height="1.37954" rx="0.689772" fill="#5256E6"/>
    <rect x="52.5625" y="36.7431" width="11.7241" height="1.37954" rx="0.689772" fill="#5256E6"/>
    <path d="M38.1489 32.6903C35.84 32.6903 33.9652 34.5802 33.9652 36.9078C33.9652 39.2354 35.84 41.1253 38.1489 41.1253C40.4578 41.1253 42.3326 39.2354 42.3326 36.9078C42.3326 34.5869 40.4578 32.6903 38.1489 32.6903ZM35.6887 40.051C35.7742 39.746 35.8926 39.4675 36.1031 39.3282C36.1491 39.2951 36.6425 39.116 36.7872 39.0762C37.0043 39.0232 37.2148 38.9436 37.4253 38.8839C37.4122 38.99 37.4056 39.1028 37.4253 39.2022C37.4845 39.4741 37.9187 39.5338 38.1621 39.5338C38.1686 39.5338 38.1752 39.5338 38.1818 39.5338C38.1884 39.5338 38.1949 39.5338 38.2015 39.5338C38.4515 39.5272 38.8791 39.4741 38.9383 39.2022C38.958 39.1094 38.9514 38.9967 38.9383 38.8905C39.1488 38.9502 39.3527 39.0232 39.5632 39.0762C39.6421 39.0961 39.7277 39.116 39.8066 39.1425L39.9118 39.1757C40.0302 39.2155 40.1487 39.2619 40.2473 39.3282C40.4512 39.4741 40.5631 39.7394 40.6354 40.0311C39.9513 40.5882 39.0896 40.9197 38.1423 40.9197C37.2214 40.9197 36.3662 40.5948 35.6887 40.051ZM38.1818 38.433C37.945 38.4131 37.4714 38.002 37.4714 38.002C37.2806 37.8627 37.0898 37.6439 36.9583 37.4648C36.8004 37.2526 36.728 37.1067 36.728 36.8282C36.728 36.7221 36.728 36.616 36.7346 36.5099C37.0767 36.6293 37.5569 36.5166 37.8529 36.4237C38.1423 36.3375 38.3857 36.2049 38.6291 36.0192C38.6817 35.9794 38.7278 35.933 38.7738 35.8866C38.9317 36.2314 39.2738 36.4967 39.6356 36.5497C39.6356 36.6425 39.6356 36.7354 39.6356 36.8216C39.6356 37.0935 39.5566 37.246 39.4053 37.4582C39.2738 37.6372 39.083 37.8494 38.8922 37.9953C38.8922 38.002 38.4186 38.4131 38.1818 38.433ZM38.6225 39.3481C38.4712 39.4012 38.3397 39.4277 38.1818 39.4343C38.0239 39.4343 37.8924 39.4012 37.7411 39.3481C37.524 39.2685 37.5174 39.0961 37.5371 38.8972C37.5569 38.6717 37.5766 38.4396 37.5766 38.2075C37.7542 38.3468 37.9384 38.5126 38.1621 38.5391C38.1686 38.5391 38.1752 38.5457 38.1884 38.5457C38.1949 38.5457 38.2081 38.5457 38.2147 38.5391C38.4318 38.5126 38.6225 38.3468 38.8001 38.2075C38.8067 38.3998 38.8396 38.8839 38.8396 38.8972C38.8528 39.0961 38.8396 39.2685 38.6225 39.3481ZM40.7341 39.9516C40.6617 39.673 40.5565 39.4144 40.3592 39.2752C40.2276 39.1823 40.0763 39.116 39.9184 39.0696C39.9842 38.0285 40.6486 37.1067 40.7012 36.0656C40.7275 35.5683 40.6486 34.9383 40.3723 34.5073C40.1158 34.1094 39.675 33.99 39.2409 34.1359C38.912 33.4662 38.1949 33.2341 37.4911 33.2805C36.7412 33.3335 36.1228 33.8972 35.8071 34.5603C35.4979 35.2102 35.4256 36.0789 35.5637 36.7752C35.6426 37.1598 35.7545 37.5245 35.8794 37.8959C36.0176 38.3136 36.1886 38.6982 36.2084 39.1492C36.1294 39.1823 36.0505 39.2287 35.9781 39.2752C35.7874 39.4078 35.6689 39.6797 35.5834 39.9781C34.7151 39.242 34.1626 38.1412 34.1626 36.9144C34.1626 34.7062 35.9452 32.9091 38.1357 32.9091C40.3263 32.9091 42.1089 34.7062 42.1089 36.9144C42.1221 38.128 41.5827 39.2155 40.7341 39.9516Z"
          fill="#5256E6"/>
    <path d="M38.3092 37.928C38.3056 37.9286 38.3018 37.9292 38.2978 37.9297C38.2944 37.9302 38.2909 37.9306 38.2872 37.9311C38.2809 37.9318 38.2742 37.9324 38.2672 37.933C38.2483 37.9346 38.2271 37.9358 38.2048 37.9365C38.1593 37.938 38.1094 37.9376 38.066 37.9354C38.0644 37.9353 38.0627 37.9352 38.0611 37.9351L38.0109 37.8978L37.9865 37.8796L38.0109 37.831L38.0162 37.8206L38.0346 37.784L38.0481 37.7572L38.0764 37.7008C38.0808 37.7039 38.0852 37.7072 38.0899 37.7107C38.0964 37.7151 38.1037 37.7224 38.111 37.7304C38.115 37.7349 38.119 37.7395 38.1228 37.744C38.1332 37.756 38.1427 37.7671 38.1491 37.7703C38.1619 37.766 38.1775 37.7477 38.1905 37.7318C38.1916 37.7304 38.1928 37.7289 38.194 37.7275C38.1995 37.7207 38.2045 37.7146 38.2083 37.7107M38.2083 37.7107L38.2588 37.761L38.2083 37.7107ZM38.2083 37.7107C38.2206 37.6983 38.2355 37.6885 38.2529 37.6829C38.2628 37.6797 38.2736 37.6778 38.2852 37.6776C38.2859 37.6776 38.2866 37.6776 38.2872 37.6776C38.2949 37.6768 38.3028 37.6769 38.3108 37.6779C38.3138 37.6888 38.3164 37.6998 38.3186 37.7109C38.3239 37.7372 38.3266 37.7637 38.3271 37.79C38.3274 37.8028 38.3271 37.8154 38.3263 37.828L38.3013 37.8031M38.3013 37.8031L38.2892 37.7911L38.3013 37.8031Z"
          stroke="#5256E6"/>
    <ellipse cx="32.472" cy="63.9215" rx="1.17241" ry="1.18801" fill="#5256E6"/>
    <rect x="44.4246" y="64.9697" width="19.8621" height="1.37954" rx="0.689772" fill="#5256E6"/>
    <rect x="44.4246" y="67.0751" width="3.03448" height="1.37954" rx="0.689772" fill="#5256E6"/>
    <rect x="47.8729" y="67.0751" width="4.27586" height="1.37954" rx="0.689772" fill="#5256E6"/>
    <rect x="52.5625" y="67.0751" width="11.7241" height="1.37954" rx="0.689772" fill="#5256E6"/>
    <path d="M38.1489 63.0228C35.84 63.0228 33.9652 64.9127 33.9652 67.2403C33.9652 69.5678 35.84 71.4577 38.1489 71.4577C40.4578 71.4577 42.3326 69.5678 42.3326 67.2403C42.3326 64.9193 40.4578 63.0228 38.1489 63.0228ZM35.6887 70.3835C35.7742 70.0784 35.8926 69.7999 36.1031 69.6607C36.1491 69.6275 36.6425 69.4485 36.7872 69.4087C37.0043 69.3556 37.2148 69.2761 37.4253 69.2164C37.4122 69.3225 37.4056 69.4352 37.4253 69.5347C37.4845 69.8066 37.9187 69.8662 38.1621 69.8662C38.1686 69.8662 38.1752 69.8662 38.1818 69.8662C38.1884 69.8662 38.1949 69.8662 38.2015 69.8662C38.4515 69.8596 38.8791 69.8066 38.9383 69.5347C38.958 69.4418 38.9514 69.3291 38.9383 69.223C39.1488 69.2827 39.3527 69.3556 39.5632 69.4087C39.6421 69.4286 39.7277 69.4485 39.8066 69.475L39.9118 69.5082C40.0302 69.5479 40.1487 69.5944 40.2473 69.6607C40.4512 69.8066 40.5631 70.0718 40.6354 70.3636C39.9513 70.9206 39.0896 71.2522 38.1423 71.2522C37.2214 71.2522 36.3662 70.9272 35.6887 70.3835ZM38.1818 68.7654C37.945 68.7456 37.4714 68.3344 37.4714 68.3344C37.2806 68.1952 37.0898 67.9763 36.9583 67.7973C36.8004 67.5851 36.728 67.4392 36.728 67.1607C36.728 67.0546 36.728 66.9485 36.7346 66.8424C37.0767 66.9617 37.5569 66.849 37.8529 66.7562C38.1423 66.67 38.3857 66.5373 38.6291 66.3517C38.6817 66.3119 38.7278 66.2655 38.7738 66.219C38.9317 66.5639 39.2738 66.8291 39.6356 66.8822C39.6356 66.975 39.6356 67.0678 39.6356 67.1541C39.6356 67.4259 39.5566 67.5785 39.4053 67.7907C39.2738 67.9697 39.083 68.1819 38.8922 68.3278C38.8922 68.3344 38.4186 68.7456 38.1818 68.7654ZM38.6225 69.6806C38.4712 69.7336 38.3397 69.7601 38.1818 69.7668C38.0239 69.7668 37.8924 69.7336 37.7411 69.6806C37.524 69.601 37.5174 69.4286 37.5371 69.2296C37.5569 69.0042 37.5766 68.7721 37.5766 68.54C37.7542 68.6792 37.9384 68.845 38.1621 68.8716C38.1686 68.8716 38.1752 68.8782 38.1884 68.8782C38.1949 68.8782 38.2081 68.8782 38.2147 68.8716C38.4318 68.845 38.6225 68.6792 38.8001 68.54C38.8067 68.7323 38.8396 69.2164 38.8396 69.2296C38.8528 69.4286 38.8396 69.601 38.6225 69.6806ZM40.7341 70.284C40.6617 70.0055 40.5565 69.7469 40.3592 69.6076C40.2276 69.5148 40.0763 69.4485 39.9184 69.4021C39.9842 68.3609 40.6486 67.4392 40.7012 66.3981C40.7275 65.9007 40.6486 65.2708 40.3723 64.8397C40.1158 64.4419 39.675 64.3225 39.2409 64.4684C38.912 63.7986 38.1949 63.5665 37.4911 63.6129C36.7412 63.666 36.1228 64.2297 35.8071 64.8928C35.4979 65.5427 35.4256 66.4113 35.5637 67.1076C35.6426 67.4922 35.7545 67.857 35.8794 68.2283C36.0176 68.6461 36.1886 69.0307 36.2084 69.4816C36.1294 69.5148 36.0505 69.5612 35.9781 69.6076C35.7874 69.7402 35.6689 70.0121 35.5834 70.3105C34.7151 69.5745 34.1626 68.4737 34.1626 67.2469C34.1626 65.0387 35.9452 63.2416 38.1357 63.2416C40.3263 63.2416 42.1089 65.0387 42.1089 67.2469C42.1221 68.4604 41.5827 69.5479 40.7341 70.284Z"
          fill="#5256E6"/>
    <path d="M38.3092 68.26C38.3056 68.2606 38.3018 68.2611 38.2978 68.2617C38.2944 68.2621 38.2909 68.2626 38.2872 68.263C38.2809 68.2637 38.2742 68.2644 38.2672 68.265C38.2483 68.2666 38.2271 68.2677 38.2048 68.2685C38.1593 68.2699 38.1094 68.2696 38.066 68.2673C38.0644 68.2672 38.0627 68.2672 38.0611 68.2671L38.0109 68.2297L37.9865 68.2115L38.0109 68.1629L38.0162 68.1526L38.0346 68.1159L38.0481 68.0892L38.0764 68.0328C38.0808 68.0358 38.0852 68.0391 38.0899 68.0427C38.0964 68.047 38.1037 68.0543 38.111 68.0624C38.115 68.0668 38.119 68.0715 38.1228 68.076C38.1332 68.088 38.1427 68.099 38.1491 68.1022C38.1619 68.0979 38.1775 68.0797 38.1905 68.0638C38.1916 68.0623 38.1928 68.0609 38.194 68.0595C38.1995 68.0526 38.2045 68.0465 38.2083 68.0427M38.2083 68.0427L38.2588 68.0929L38.2083 68.0427ZM38.2083 68.0427C38.2206 68.0303 38.2355 68.0205 38.2529 68.0148C38.2628 68.0116 38.2736 68.0098 38.2852 68.0096C38.2859 68.0096 38.2866 68.0096 38.2872 68.0096C38.2949 68.0087 38.3028 68.0089 38.3108 68.0098C38.3138 68.0208 38.3164 68.0318 38.3186 68.0428C38.3239 68.0692 38.3266 68.0957 38.3271 68.122C38.3274 68.1347 38.3271 68.1474 38.3263 68.1599L38.3013 68.1351M38.3013 68.1351L38.2892 68.1231L38.3013 68.1351Z"
          stroke="#5256E6"/>
</svg>
