<svg width="230" height="132" viewBox="0 0 230 132" fill="none" xmlns="http://www.w3.org/2000/svg">
<path d="M210.862 4.71196V120.74C210.862 122.776 209.223 124.408 207.163 124.408H22.838C20.8025 124.408 19.1382 122.774 19.1382 120.74V4.71196C19.1382 2.4024 21.0262 0.5 23.387 0.5H206.614C208.951 0.5 210.862 2.37891 210.862 4.71196Z" stroke="#2C3A6F"/>
<path d="M224.557 130.406L224.557 130.406L224.561 130.405L228.015 129.143C228.913 128.805 229.5 127.951 229.5 126.976V125.802H0.518433C0.52124 125.853 0.523987 125.909 0.526276 125.969L0.526642 125.978V125.988V127.772C0.526642 128.26 0.818298 128.699 1.27232 128.869L1.27768 128.871L5.44421 130.489C5.44485 130.489 5.4455 130.49 5.44614 130.49C7.20085 131.155 9.06076 131.5 10.919 131.5H218.559C220.611 131.5 222.636 131.127 224.557 130.406Z" stroke="#2C3A6F"/>
<path d="M27.4658 8.77451H203.328V117.315H27.4658V8.77451Z" stroke="#2C3A6F"/>
<rect x="58.0078" y="26.9836" width="8.78981" height="2.18785" rx="1.09392" fill="#2C3A6F"/>
<rect x="68.2627" y="26.9836" width="12.4522" height="2.18785" rx="1.09392" fill="#2C3A6F"/>
<rect x="82.9111" y="26.9836" width="32.9618" height="2.18785" rx="1.09392" fill="#2C3A6F"/>
<rect x="58.0078" y="23.3371" width="57.8662" height="2.18785" rx="1.09392" fill="#2C3A6F"/>
<rect x="119.536" y="23.3371" width="11.7197" height="2.18785" rx="1.09392" fill="#2C3A6F"/>
<rect x="58.0078" y="45.9449" width="8.78981" height="2.18785" rx="1.09392" fill="#2C3A6F"/>
<rect x="68.2627" y="45.9449" width="12.4522" height="2.18785" rx="1.09392" fill="#2C3A6F"/>
<rect x="82.9111" y="45.9449" width="32.9618" height="2.18785" rx="1.09392" fill="#2C3A6F"/>
<rect x="119.536" y="42.4844" width="11.7197" height="2.18785" rx="1.09392" fill="#2C3A6F"/>
<rect x="58.0078" y="42.2984" width="57.8662" height="2.18785" rx="1.09392" fill="#2C3A6F"/>
<rect x="58.0078" y="64.9062" width="8.78981" height="2.18785" rx="1.09392" fill="#2C3A6F"/>
<rect x="68.2627" y="64.9062" width="12.4522" height="2.18785" rx="1.09392" fill="#2C3A6F"/>
<rect x="82.9111" y="64.9062" width="32.9618" height="2.18785" rx="1.09392" fill="#2C3A6F"/>
<rect x="119.536" y="61.4458" width="11.7197" height="2.18785" rx="1.09392" fill="#2C3A6F"/>
<rect x="58.0078" y="61.2597" width="57.8662" height="2.18785" rx="1.09392" fill="#2C3A6F"/>
<rect x="58.0078" y="83.8676" width="8.78981" height="2.18785" rx="1.09392" fill="#2C3A6F"/>
<rect x="68.2627" y="83.8676" width="12.4522" height="2.18785" rx="1.09392" fill="#2C3A6F"/>
<rect x="82.9111" y="83.8676" width="32.9618" height="2.18785" rx="1.09392" fill="#2C3A6F"/>
<rect x="119.536" y="80.4071" width="11.7197" height="2.18785" rx="1.09392" fill="#2C3A6F"/>
<rect x="58.0078" y="80.2211" width="57.8662" height="2.18785" rx="1.09392" fill="#2C3A6F"/>
<rect x="58.0078" y="103.558" width="8.78981" height="2.18785" rx="1.09392" fill="#2C3A6F"/>
<rect x="68.2627" y="103.558" width="12.4522" height="2.18785" rx="1.09392" fill="#2C3A6F"/>
<rect x="82.9111" y="103.558" width="32.9618" height="2.18785" rx="1.09392" fill="#2C3A6F"/>
<rect x="119.536" y="100.098" width="11.7197" height="2.18785" rx="1.09392" fill="#2C3A6F"/>
<rect x="58.0078" y="99.9116" width="57.8662" height="2.18785" rx="1.09392" fill="#2C3A6F"/>
<path d="M46.4418 19.6906C43.1227 19.6906 40.4277 22.4022 40.4277 25.7417C40.4277 29.0813 43.1227 31.7929 46.4418 31.7929C49.7609 31.7929 52.4558 29.0813 52.4558 25.7417C52.4558 22.4117 49.7609 19.6906 46.4418 19.6906ZM42.9052 30.2516C43.0282 29.8139 43.1984 29.4143 43.501 29.2145C43.5671 29.1669 44.2764 28.91 44.4844 28.853C44.7964 28.7768 45.099 28.6627 45.4016 28.577C45.3827 28.7293 45.3733 28.891 45.4016 29.0337C45.4867 29.4238 46.1108 29.5095 46.4607 29.5095C46.4702 29.5095 46.4796 29.5095 46.4891 29.5095C46.4985 29.5095 46.508 29.5095 46.5174 29.5095C46.8768 29.4999 47.4914 29.4238 47.5765 29.0337C47.6049 28.9005 47.5954 28.7388 47.5765 28.5866C47.8791 28.6722 48.1722 28.7768 48.4748 28.853C48.5883 28.8815 48.7112 28.91 48.8247 28.9481L48.976 28.9957C49.1462 29.0528 49.3164 29.1194 49.4583 29.2145C49.7514 29.4238 49.9122 29.8044 50.0162 30.223C49.0327 31.0222 47.794 31.498 46.4323 31.498C45.1085 31.498 43.8792 31.0318 42.9052 30.2516ZM46.4891 27.9301C46.1487 27.9015 45.4678 27.3116 45.4678 27.3116C45.1936 27.1118 44.9194 26.7978 44.7302 26.5409C44.5033 26.2365 44.3993 26.0272 44.3993 25.6276C44.3993 25.4753 44.3993 25.3231 44.4087 25.1709C44.9005 25.3421 45.5907 25.1804 46.0163 25.0472C46.4323 24.9235 46.7822 24.7332 47.1321 24.4668C47.2077 24.4097 47.2739 24.3431 47.3401 24.2765C47.5671 24.7713 48.0588 25.1518 48.5789 25.228C48.5789 25.3612 48.5789 25.4944 48.5789 25.618C48.5789 26.0081 48.4654 26.227 48.2479 26.5314C48.0588 26.7883 47.7845 27.0928 47.5103 27.3021C47.5103 27.3116 46.8295 27.9015 46.4891 27.9301ZM47.1226 29.243C46.9051 29.3192 46.716 29.3572 46.4891 29.3667C46.2621 29.3667 46.073 29.3192 45.8555 29.243C45.5435 29.1289 45.534 28.8815 45.5624 28.5961C45.5907 28.2726 45.6191 27.9396 45.6191 27.6066C45.8744 27.8064 46.1392 28.0442 46.4607 28.0823C46.4702 28.0823 46.4796 28.0918 46.4985 28.0918C46.508 28.0918 46.5269 28.0918 46.5363 28.0823C46.8484 28.0442 47.1226 27.8064 47.3779 27.6066C47.3874 27.8825 47.4347 28.577 47.4347 28.5961C47.4536 28.8815 47.4347 29.1289 47.1226 29.243ZM50.158 30.1089C50.054 29.7093 49.9027 29.3382 49.619 29.1384C49.4299 29.0052 49.2124 28.91 48.9855 28.8434C49.08 27.3497 50.0351 26.0272 50.1107 24.5334C50.1486 23.8198 50.0351 22.9159 49.6379 22.2975C49.2691 21.7266 48.6356 21.5554 48.0115 21.7647C47.5387 20.8037 46.508 20.4707 45.4962 20.5373C44.4182 20.6135 43.5293 21.4222 43.0754 22.3736C42.631 23.306 42.527 24.5524 42.7256 25.5514C42.839 26.1033 42.9998 26.6266 43.1794 27.1594C43.378 27.7588 43.6239 28.3106 43.6523 28.9576C43.5388 29.0052 43.4253 29.0718 43.3213 29.1384C43.0471 29.3287 42.8769 29.7188 42.7539 30.1469C41.5057 29.0908 40.7114 27.5114 40.7114 25.7512C40.7114 22.5829 43.274 20.0045 46.4229 20.0045C49.5717 20.0045 52.1343 22.5829 52.1343 25.7512C52.1533 27.4924 51.3779 29.0528 50.158 30.1089Z" fill="#2C3A6F"/>
<path d="M46.6406 26.8454C46.5933 26.8454 46.5555 26.8644 46.5271 26.8929C46.5082 26.912 46.4704 26.969 46.442 26.9786C46.4231 26.969 46.3853 26.912 46.3569 26.8929C46.3191 26.8644 46.2907 26.8454 46.2435 26.8454C46.1583 26.8454 46.0543 26.912 45.9976 26.9786C45.9692 27.0166 45.9787 27.0642 46.0071 27.0832C46.0354 27.1498 46.1205 27.1688 46.1773 27.1974C46.2624 27.2259 46.6217 27.2259 46.7068 27.1974C46.7635 27.1784 46.8486 27.1498 46.877 27.0832C46.9054 27.0547 46.9148 27.0071 46.8865 26.9786C46.8297 26.912 46.7257 26.8358 46.6406 26.8454Z" fill="#2C3A6F"/>
<path d="M46.4418 38.6519C43.1227 38.6519 40.4277 41.3635 40.4277 44.7031C40.4277 48.0426 43.1227 50.7542 46.4418 50.7542C49.7609 50.7542 52.4558 48.0426 52.4558 44.7031C52.4558 41.373 49.7609 38.6519 46.4418 38.6519ZM42.9052 49.2129C43.0282 48.7752 43.1984 48.3756 43.501 48.1758C43.5671 48.1283 44.2764 47.8714 44.4844 47.8143C44.7964 47.7382 45.099 47.624 45.4016 47.5384C45.3827 47.6906 45.3733 47.8523 45.4016 47.9951C45.4867 48.3852 46.1108 48.4708 46.4607 48.4708C46.4702 48.4708 46.4796 48.4708 46.4891 48.4708C46.4985 48.4708 46.508 48.4708 46.5174 48.4708C46.8768 48.4613 47.4914 48.3852 47.5765 47.9951C47.6049 47.8619 47.5954 47.7001 47.5765 47.5479C47.8791 47.6335 48.1722 47.7382 48.4748 47.8143C48.5883 47.8428 48.7112 47.8714 48.8247 47.9094L48.976 47.957C49.1462 48.0141 49.3164 48.0807 49.4583 48.1758C49.7514 48.3852 49.9122 48.7657 50.0162 49.1844C49.0327 49.9836 47.794 50.4593 46.4323 50.4593C45.1085 50.4593 43.8792 49.9931 42.9052 49.2129ZM46.4891 46.8914C46.1487 46.8628 45.4678 46.2729 45.4678 46.2729C45.1936 46.0731 44.9194 45.7592 44.7302 45.5023C44.5033 45.1978 44.3993 44.9885 44.3993 44.5889C44.3993 44.4367 44.3993 44.2844 44.4087 44.1322C44.9005 44.3035 45.5907 44.1417 46.0163 44.0085C46.4323 43.8848 46.7822 43.6945 47.1321 43.4281C47.2077 43.371 47.2739 43.3044 47.3401 43.2378C47.5671 43.7326 48.0588 44.1132 48.5789 44.1893C48.5789 44.3225 48.5789 44.4557 48.5789 44.5794C48.5789 44.9695 48.4654 45.1883 48.2479 45.4928C48.0588 45.7497 47.7845 46.0541 47.5103 46.2634C47.5103 46.2729 46.8295 46.8628 46.4891 46.8914ZM47.1226 48.2044C46.9051 48.2805 46.716 48.3186 46.4891 48.3281C46.2621 48.3281 46.073 48.2805 45.8555 48.2044C45.5435 48.0902 45.534 47.8428 45.5624 47.5574C45.5907 47.2339 45.6191 46.9009 45.6191 46.5679C45.8744 46.7677 46.1392 47.0056 46.4607 47.0436C46.4702 47.0436 46.4796 47.0531 46.4985 47.0531C46.508 47.0531 46.5269 47.0531 46.5363 47.0436C46.8484 47.0056 47.1226 46.7677 47.3779 46.5679C47.3874 46.8438 47.4347 47.5384 47.4347 47.5574C47.4536 47.8428 47.4347 48.0902 47.1226 48.2044ZM50.158 49.0702C50.054 48.6706 49.9027 48.2995 49.619 48.0997C49.4299 47.9665 49.2124 47.8714 48.9855 47.8048C49.08 46.311 50.0351 44.9885 50.1107 43.4947C50.1486 42.7812 50.0351 41.8773 49.6379 41.2588C49.2691 40.688 48.6356 40.5167 48.0115 40.726C47.5387 39.7651 46.508 39.4321 45.4962 39.4987C44.4182 39.5748 43.5293 40.3835 43.0754 41.335C42.631 42.2674 42.527 43.5138 42.7256 44.5128C42.839 45.0646 42.9998 45.5879 43.1794 46.1207C43.378 46.7201 43.6239 47.272 43.6523 47.9189C43.5388 47.9665 43.4253 48.0331 43.3213 48.0997C43.0471 48.29 42.8769 48.6801 42.7539 49.1083C41.5057 48.0521 40.7114 46.4728 40.7114 44.7126C40.7114 41.5443 43.274 38.9659 46.4229 38.9659C49.5717 38.9659 52.1343 41.5443 52.1343 44.7126C52.1533 46.4537 51.3779 48.0141 50.158 49.0702Z" fill="#2C3A6F"/>
<path d="M46.6406 45.8066C46.5933 45.8066 46.5555 45.8256 46.5271 45.8542C46.5082 45.8732 46.4704 45.9303 46.442 45.9398C46.4231 45.9303 46.3853 45.8732 46.3569 45.8542C46.3191 45.8256 46.2907 45.8066 46.2435 45.8066C46.1583 45.8066 46.0543 45.8732 45.9976 45.9398C45.9692 45.9779 45.9787 46.0254 46.0071 46.0445C46.0354 46.1111 46.1205 46.1301 46.1773 46.1586C46.2624 46.1872 46.6217 46.1872 46.7068 46.1586C46.7635 46.1396 46.8486 46.1111 46.877 46.0445C46.9054 46.0159 46.9148 45.9683 46.8865 45.9398C46.8297 45.8732 46.7257 45.7971 46.6406 45.8066Z" fill="#2C3A6F"/>
<path d="M46.4418 57.6132C43.1227 57.6132 40.4277 60.3248 40.4277 63.6644C40.4277 67.004 43.1227 69.7156 46.4418 69.7156C49.7609 69.7156 52.4558 67.004 52.4558 63.6644C52.4558 60.3343 49.7609 57.6132 46.4418 57.6132ZM42.9052 68.1742C43.0282 67.7366 43.1984 67.337 43.501 67.1372C43.5671 67.0896 44.2764 66.8327 44.4844 66.7756C44.7964 66.6995 45.099 66.5853 45.4016 66.4997C45.3827 66.6519 45.3733 66.8137 45.4016 66.9564C45.4867 67.3465 46.1108 67.4321 46.4607 67.4321C46.4702 67.4321 46.4796 67.4321 46.4891 67.4321C46.4985 67.4321 46.508 67.4321 46.5174 67.4321C46.8768 67.4226 47.4914 67.3465 47.5765 66.9564C47.6049 66.8232 47.5954 66.6614 47.5765 66.5092C47.8791 66.5948 48.1722 66.6995 48.4748 66.7756C48.5883 66.8042 48.7112 66.8327 48.8247 66.8708L48.976 66.9183C49.1462 66.9754 49.3164 67.042 49.4583 67.1372C49.7514 67.3465 49.9122 67.7271 50.0162 68.1457C49.0327 68.9449 47.794 69.4206 46.4323 69.4206C45.1085 69.4206 43.8792 68.9544 42.9052 68.1742ZM46.4891 65.8527C46.1487 65.8242 45.4678 65.2343 45.4678 65.2343C45.1936 65.0345 44.9194 64.7205 44.7302 64.4636C44.5033 64.1592 44.3993 63.9498 44.3993 63.5502C44.3993 63.398 44.3993 63.2458 44.4087 63.0935C44.9005 63.2648 45.5907 63.1031 46.0163 62.9698C46.4323 62.8462 46.7822 62.6559 47.1321 62.3895C47.2077 62.3324 47.2739 62.2658 47.3401 62.1992C47.5671 62.6939 48.0588 63.0745 48.5789 63.1506C48.5789 63.2838 48.5789 63.417 48.5789 63.5407C48.5789 63.9308 48.4654 64.1496 48.2479 64.4541C48.0588 64.711 47.7845 65.0155 47.5103 65.2248C47.5103 65.2343 46.8295 65.8242 46.4891 65.8527ZM47.1226 67.1657C46.9051 67.2418 46.716 67.2799 46.4891 67.2894C46.2621 67.2894 46.073 67.2418 45.8555 67.1657C45.5435 67.0515 45.534 66.8042 45.5624 66.5187C45.5907 66.1952 45.6191 65.8622 45.6191 65.5292C45.8744 65.729 46.1392 65.9669 46.4607 66.005C46.4702 66.005 46.4796 66.0145 46.4985 66.0145C46.508 66.0145 46.5269 66.0145 46.5363 66.005C46.8484 65.9669 47.1226 65.729 47.3779 65.5292C47.3874 65.8052 47.4347 66.4997 47.4347 66.5187C47.4536 66.8042 47.4347 67.0515 47.1226 67.1657ZM50.158 68.0315C50.054 67.6319 49.9027 67.2609 49.619 67.0611C49.4299 66.9279 49.2124 66.8327 48.9855 66.7661C49.08 65.2723 50.0351 63.9498 50.1107 62.4561C50.1486 61.7425 50.0351 60.8386 49.6379 60.2202C49.2691 59.6493 48.6356 59.478 48.0115 59.6874C47.5387 58.7264 46.508 58.3934 45.4962 58.46C44.4182 58.5361 43.5293 59.3448 43.0754 60.2963C42.631 61.2287 42.527 62.4751 42.7256 63.4741C42.839 64.026 42.9998 64.5492 43.1794 65.0821C43.378 65.6815 43.6239 66.2333 43.6523 66.8803C43.5388 66.9279 43.4253 66.9945 43.3213 67.0611C43.0471 67.2513 42.8769 67.6414 42.7539 68.0696C41.5057 67.0135 40.7114 65.4341 40.7114 63.6739C40.7114 60.5056 43.274 57.9272 46.4229 57.9272C49.5717 57.9272 52.1343 60.5056 52.1343 63.6739C52.1533 65.4151 51.3779 66.9754 50.158 68.0315Z" fill="#2C3A6F"/>
<path d="M46.6406 64.7678C46.5933 64.7678 46.5555 64.7869 46.5271 64.8154C46.5082 64.8344 46.4704 64.8915 46.442 64.901C46.4231 64.8915 46.3853 64.8344 46.3569 64.8154C46.3191 64.7869 46.2907 64.7678 46.2435 64.7678C46.1583 64.7678 46.0543 64.8344 45.9976 64.901C45.9692 64.9391 45.9787 64.9867 46.0071 65.0057C46.0354 65.0723 46.1205 65.0913 46.1773 65.1199C46.2624 65.1484 46.6217 65.1484 46.7068 65.1199C46.7635 65.1008 46.8486 65.0723 46.877 65.0057C46.9054 64.9772 46.9148 64.9296 46.8865 64.901C46.8297 64.8344 46.7257 64.7583 46.6406 64.7678Z" fill="#2C3A6F"/>
<path d="M46.4418 77.3038C43.1227 77.3038 40.4277 80.0154 40.4277 83.355C40.4277 86.6945 43.1227 89.4061 46.4418 89.4061C49.7609 89.4061 52.4558 86.6945 52.4558 83.355C52.4558 80.0249 49.7609 77.3038 46.4418 77.3038ZM42.9052 87.8648C43.0282 87.4271 43.1984 87.0275 43.501 86.8277C43.5671 86.7802 44.2764 86.5233 44.4844 86.4662C44.7964 86.3901 45.099 86.2759 45.4016 86.1903C45.3827 86.3425 45.3733 86.5042 45.4016 86.6469C45.4867 87.037 46.1108 87.1227 46.4607 87.1227C46.4702 87.1227 46.4796 87.1227 46.4891 87.1227C46.4985 87.1227 46.508 87.1227 46.5174 87.1227C46.8768 87.1132 47.4914 87.037 47.5765 86.6469C47.6049 86.5137 47.5954 86.352 47.5765 86.1998C47.8791 86.2854 48.1722 86.3901 48.4748 86.4662C48.5883 86.4947 48.7112 86.5233 48.8247 86.5613L48.976 86.6089C49.1462 86.666 49.3164 86.7326 49.4583 86.8277C49.7514 87.037 49.9122 87.4176 50.0162 87.8363C49.0327 88.6355 47.794 89.1112 46.4323 89.1112C45.1085 89.1112 43.8792 88.645 42.9052 87.8648ZM46.4891 85.5433C46.1487 85.5147 45.4678 84.9248 45.4678 84.9248C45.1936 84.725 44.9194 84.4111 44.7302 84.1542C44.5033 83.8497 44.3993 83.6404 44.3993 83.2408C44.3993 83.0885 44.3993 82.9363 44.4087 82.7841C44.9005 82.9553 45.5907 82.7936 46.0163 82.6604C46.4323 82.5367 46.7822 82.3464 47.1321 82.08C47.2077 82.0229 47.2739 81.9563 47.3401 81.8897C47.5671 82.3845 48.0588 82.7651 48.5789 82.8412C48.5789 82.9744 48.5789 83.1076 48.5789 83.2313C48.5789 83.6214 48.4654 83.8402 48.2479 84.1447C48.0588 84.4015 47.7845 84.706 47.5103 84.9153C47.5103 84.9248 46.8295 85.5147 46.4891 85.5433ZM47.1226 86.8563C46.9051 86.9324 46.716 86.9704 46.4891 86.98C46.2621 86.98 46.073 86.9324 45.8555 86.8563C45.5435 86.7421 45.534 86.4947 45.5624 86.2093C45.5907 85.8858 45.6191 85.5528 45.6191 85.2198C45.8744 85.4196 46.1392 85.6574 46.4607 85.6955C46.4702 85.6955 46.4796 85.705 46.4985 85.705C46.508 85.705 46.5269 85.705 46.5363 85.6955C46.8484 85.6574 47.1226 85.4196 47.3779 85.2198C47.3874 85.4957 47.4347 86.1903 47.4347 86.2093C47.4536 86.4947 47.4347 86.7421 47.1226 86.8563ZM50.158 87.7221C50.054 87.3225 49.9027 86.9514 49.619 86.7516C49.4299 86.6184 49.2124 86.5233 48.9855 86.4567C49.08 84.9629 50.0351 83.6404 50.1107 82.1466C50.1486 81.433 50.0351 80.5292 49.6379 79.9107C49.2691 79.3399 48.6356 79.1686 48.0115 79.3779C47.5387 78.417 46.508 78.084 45.4962 78.1506C44.4182 78.2267 43.5293 79.0354 43.0754 79.9868C42.631 80.9193 42.527 82.1656 42.7256 83.1647C42.839 83.7165 42.9998 84.2398 43.1794 84.7726C43.378 85.372 43.6239 85.9239 43.6523 86.5708C43.5388 86.6184 43.4253 86.685 43.3213 86.7516C43.0471 86.9419 42.8769 87.332 42.7539 87.7601C41.5057 86.704 40.7114 85.1246 40.7114 83.3645C40.7114 80.1962 43.274 77.6177 46.4229 77.6177C49.5717 77.6177 52.1343 80.1962 52.1343 83.3645C52.1533 85.1056 51.3779 86.666 50.158 87.7221Z" fill="#2C3A6F"/>
<path d="M46.6406 84.4585C46.5933 84.4585 46.5555 84.4775 46.5271 84.5061C46.5082 84.5251 46.4704 84.5822 46.442 84.5917C46.4231 84.5822 46.3853 84.5251 46.3569 84.5061C46.3191 84.4775 46.2907 84.4585 46.2435 84.4585C46.1583 84.4585 46.0543 84.5251 45.9976 84.5917C45.9692 84.6297 45.9787 84.6773 46.0071 84.6963C46.0354 84.7629 46.1205 84.782 46.1773 84.8105C46.2624 84.8391 46.6217 84.8391 46.7068 84.8105C46.7635 84.7915 46.8486 84.7629 46.877 84.6963C46.9054 84.6678 46.9148 84.6202 46.8865 84.5917C46.8297 84.5251 46.7257 84.449 46.6406 84.4585Z" fill="#2C3A6F"/>
<path d="M46.4418 96.9948C43.1227 96.9948 40.4277 99.7064 40.4277 103.046C40.4277 106.386 43.1227 109.097 46.4418 109.097C49.7609 109.097 52.4558 106.386 52.4558 103.046C52.4558 99.7159 49.7609 96.9948 46.4418 96.9948ZM42.9052 107.556C43.0282 107.118 43.1984 106.719 43.501 106.519C43.5671 106.471 44.2764 106.214 44.4844 106.157C44.7964 106.081 45.099 105.967 45.4016 105.881C45.3827 106.033 45.3733 106.195 45.4016 106.338C45.4867 106.728 46.1108 106.814 46.4607 106.814C46.4702 106.814 46.4796 106.814 46.4891 106.814C46.4985 106.814 46.508 106.814 46.5174 106.814C46.8768 106.804 47.4914 106.728 47.5765 106.338C47.6049 106.205 47.5954 106.043 47.5765 105.891C47.8791 105.976 48.1722 106.081 48.4748 106.157C48.5883 106.186 48.7112 106.214 48.8247 106.252L48.976 106.3C49.1462 106.357 49.3164 106.424 49.4583 106.519C49.7514 106.728 49.9122 107.109 50.0162 107.527C49.0327 108.326 47.794 108.802 46.4323 108.802C45.1085 108.802 43.8792 108.336 42.9052 107.556ZM46.4891 105.234C46.1487 105.206 45.4678 104.616 45.4678 104.616C45.1936 104.416 44.9194 104.102 44.7302 103.845C44.5033 103.541 44.3993 103.331 44.3993 102.932C44.3993 102.78 44.3993 102.627 44.4087 102.475C44.9005 102.646 45.5907 102.485 46.0163 102.351C46.4323 102.228 46.7822 102.037 47.1321 101.771C47.2077 101.714 47.2739 101.647 47.3401 101.581C47.5671 102.075 48.0588 102.456 48.5789 102.532C48.5789 102.665 48.5789 102.799 48.5789 102.922C48.5789 103.312 48.4654 103.531 48.2479 103.836C48.0588 104.093 47.7845 104.397 47.5103 104.606C47.5103 104.616 46.8295 105.206 46.4891 105.234ZM47.1226 106.547C46.9051 106.623 46.716 106.661 46.4891 106.671C46.2621 106.671 46.073 106.623 45.8555 106.547C45.5435 106.433 45.534 106.186 45.5624 105.9C45.5907 105.577 45.6191 105.244 45.6191 104.911C45.8744 105.111 46.1392 105.348 46.4607 105.387C46.4702 105.387 46.4796 105.396 46.4985 105.396C46.508 105.396 46.5269 105.396 46.5363 105.387C46.8484 105.348 47.1226 105.111 47.3779 104.911C47.3874 105.187 47.4347 105.881 47.4347 105.9C47.4536 106.186 47.4347 106.433 47.1226 106.547ZM50.158 107.413C50.054 107.013 49.9027 106.642 49.619 106.443C49.4299 106.309 49.2124 106.214 48.9855 106.148C49.08 104.654 50.0351 103.331 50.1107 101.838C50.1486 101.124 50.0351 100.22 49.6379 99.6017C49.2691 99.0309 48.6356 98.8596 48.0115 99.0689C47.5387 98.108 46.508 97.775 45.4962 97.8416C44.4182 97.9177 43.5293 98.7264 43.0754 99.6779C42.631 100.61 42.527 101.857 42.7256 102.856C42.839 103.408 42.9998 103.931 43.1794 104.464C43.378 105.063 43.6239 105.615 43.6523 106.262C43.5388 106.309 43.4253 106.376 43.3213 106.443C43.0471 106.633 42.8769 107.023 42.7539 107.451C41.5057 106.395 40.7114 104.816 40.7114 103.055C40.7114 99.8872 43.274 97.3088 46.4229 97.3088C49.5717 97.3088 52.1343 99.8872 52.1343 103.055C52.1533 104.797 51.3779 106.357 50.158 107.413Z" fill="#2C3A6F"/>
<path d="M46.6406 104.15C46.5933 104.15 46.5555 104.169 46.5271 104.197C46.5082 104.216 46.4704 104.273 46.442 104.283C46.4231 104.273 46.3853 104.216 46.3569 104.197C46.3191 104.169 46.2907 104.15 46.2435 104.15C46.1583 104.15 46.0543 104.216 45.9976 104.283C45.9692 104.321 45.9787 104.368 46.0071 104.387C46.0354 104.454 46.1205 104.473 46.1773 104.502C46.2624 104.53 46.6217 104.53 46.7068 104.502C46.7635 104.483 46.8486 104.454 46.877 104.387C46.9054 104.359 46.9148 104.311 46.8865 104.283C46.8297 104.216 46.7257 104.14 46.6406 104.15Z" fill="#2C3A6F"/>
<g clip-path="url(#clip0)">
<path d="M148.97 22.6982C149.014 22.6058 149.104 22.5471 149.203 22.5471C149.302 22.5471 149.392 22.6058 149.436 22.6982L150.272 24.4648C150.31 24.5447 150.383 24.6001 150.468 24.613L152.337 24.8962C152.435 24.911 152.516 24.9826 152.547 25.0807C152.577 25.1787 152.552 25.2865 152.481 25.3584L151.129 26.7337C151.067 26.7959 151.039 26.8856 151.054 26.9735L151.373 28.9153C151.389 29.0172 151.35 29.1199 151.269 29.1806C151.189 29.241 151.083 29.249 150.996 29.2013L149.323 28.2844C149.248 28.2428 149.157 28.2428 149.081 28.2844L147.409 29.2011C147.322 29.249 147.216 29.2412 147.135 29.1806C147.055 29.12 147.015 29.0172 147.032 28.9153L147.351 26.9735C147.366 26.8856 147.338 26.7959 147.276 26.7337L145.924 25.3584C145.853 25.2864 145.827 25.1787 145.858 25.0807C145.889 24.9826 145.97 24.911 146.068 24.8962L147.938 24.613C148.022 24.6001 148.096 24.5447 148.133 24.4646L148.97 22.6982Z" fill="#2C3A6F"/>
</g>
<g clip-path="url(#clip1)">
<path d="M157.026 22.6982C157.07 22.6058 157.161 22.5471 157.259 22.5471C157.358 22.5471 157.449 22.6058 157.493 22.6982L158.328 24.4648C158.366 24.5447 158.44 24.6001 158.524 24.613L160.394 24.8962C160.492 24.911 160.573 24.9826 160.604 25.0807C160.634 25.1787 160.609 25.2865 160.538 25.3584L159.185 26.7337C159.124 26.7959 159.096 26.8856 159.11 26.9735L159.43 28.9153C159.446 29.0172 159.406 29.1199 159.326 29.1806C159.246 29.241 159.14 29.249 159.052 29.2013L157.38 28.2844C157.304 28.2428 157.214 28.2428 157.138 28.2844L155.466 29.2011C155.378 29.249 155.272 29.2412 155.192 29.1806C155.112 29.12 155.072 29.0172 155.089 28.9153L155.408 26.9735C155.422 26.8856 155.394 26.7959 155.333 26.7337L153.98 25.3584C153.91 25.2864 153.884 25.1787 153.915 25.0807C153.945 24.9826 154.026 24.911 154.124 24.8962L155.994 24.613C156.079 24.6001 156.152 24.5447 156.19 24.4646L157.026 22.6982Z" fill="#2C3A6F"/>
</g>
<g clip-path="url(#clip2)">
<path d="M165.083 22.6982C165.127 22.6058 165.217 22.5471 165.316 22.5471C165.415 22.5471 165.505 22.6058 165.549 22.6982L166.385 24.4648C166.423 24.5447 166.496 24.6001 166.581 24.613L168.45 24.8962C168.549 24.911 168.63 24.9826 168.66 25.0807C168.691 25.1787 168.665 25.2865 168.594 25.3584L167.242 26.7337C167.181 26.7959 167.153 26.8856 167.167 26.9735L167.486 28.9153C167.503 29.0172 167.463 29.1199 167.383 29.1806C167.302 29.241 167.197 29.249 167.109 29.2013L165.437 28.2844C165.361 28.2428 165.27 28.2428 165.195 28.2844L163.522 29.2011C163.435 29.249 163.329 29.2412 163.249 29.1806C163.169 29.12 163.129 29.0172 163.145 28.9153L163.465 26.9735C163.479 26.8856 163.451 26.7959 163.39 26.7337L162.037 25.3584C161.966 25.2864 161.941 25.1787 161.971 25.0807C162.002 24.9826 162.083 24.911 162.181 24.8962L164.051 24.613C164.136 24.6001 164.209 24.5447 164.247 24.4646L165.083 22.6982Z" fill="#2C3A6F"/>
</g>
<g clip-path="url(#clip3)">
<path d="M173.142 22.6982C173.185 22.6058 173.276 22.5471 173.375 22.5471C173.473 22.5471 173.564 22.6058 173.608 22.6982L174.444 24.4648C174.482 24.5447 174.555 24.6001 174.64 24.613L176.509 24.8962C176.607 24.911 176.688 24.9826 176.719 25.0807C176.749 25.1787 176.724 25.2865 176.653 25.3584L175.3 26.7337C175.239 26.7959 175.211 26.8856 175.225 26.9735L175.545 28.9153C175.561 29.0172 175.521 29.1199 175.441 29.1806C175.361 29.241 175.255 29.249 175.167 29.2013L173.495 28.2844C173.42 28.2428 173.329 28.2428 173.253 28.2844L171.581 29.2011C171.494 29.249 171.387 29.2412 171.307 29.1806C171.227 29.12 171.187 29.0172 171.204 28.9153L171.523 26.9735C171.538 26.8856 171.51 26.7959 171.448 26.7337L170.096 25.3584C170.025 25.2864 169.999 25.1787 170.03 25.0807C170.06 24.9826 170.142 24.911 170.24 24.8962L172.11 24.613C172.194 24.6001 172.267 24.5447 172.305 24.4646L173.142 22.6982Z" fill="#2C3A6F"/>
</g>
<g clip-path="url(#clip4)">
<path d="M181.198 22.6982C181.242 22.6058 181.333 22.5471 181.431 22.5471C181.53 22.5471 181.621 22.6058 181.664 22.6982L182.5 24.4648C182.538 24.5447 182.611 24.6001 182.696 24.613L184.566 24.8962C184.664 24.911 184.745 24.9826 184.775 25.0807C184.806 25.1787 184.781 25.2865 184.71 25.3584L183.357 26.7337C183.296 26.7959 183.268 26.8856 183.282 26.9735L183.601 28.9153C183.618 29.0172 183.578 29.1199 183.498 29.1806C183.418 29.241 183.312 29.249 183.224 29.2013L181.552 28.2844C181.476 28.2428 181.386 28.2428 181.31 28.2844L179.638 29.2011C179.55 29.249 179.444 29.2412 179.364 29.1806C179.284 29.12 179.244 29.0172 179.261 28.9153L179.58 26.9735C179.594 26.8856 179.566 26.7959 179.505 26.7337L178.152 25.3584C178.081 25.2864 178.056 25.1787 178.086 25.0807C178.117 24.9826 178.198 24.911 178.296 24.8962L180.166 24.613C180.251 24.6001 180.324 24.5447 180.362 24.4646L181.198 22.6982Z" fill="#2C3A6F"/>
</g>
<g clip-path="url(#clip5)">
<path d="M148.969 41.6591C149.013 41.5666 149.103 41.508 149.202 41.508C149.301 41.508 149.391 41.5666 149.435 41.6591L150.271 43.4256C150.309 43.5056 150.382 43.561 150.467 43.5738L152.336 43.8571C152.434 43.8719 152.515 43.9435 152.546 44.0415C152.577 44.1395 152.551 44.2474 152.48 44.3193L151.128 45.6945C151.066 45.7567 151.038 45.8465 151.053 45.9344L151.372 47.8762C151.388 47.978 151.349 48.0807 151.268 48.1414C151.188 48.2019 151.082 48.2099 150.995 48.1621L149.322 47.2452C149.247 47.2037 149.156 47.2037 149.08 47.2452L147.408 48.162C147.321 48.2099 147.215 48.202 147.134 48.1414C147.054 48.0809 147.014 47.978 147.031 47.8762L147.35 45.9344C147.365 45.8465 147.337 45.7567 147.275 45.6945L145.923 44.3193C145.852 44.2472 145.826 44.1395 145.857 44.0415C145.888 43.9435 145.969 43.8719 146.067 43.8571L147.937 43.5738C148.021 43.561 148.095 43.5056 148.132 43.4255L148.969 41.6591Z" fill="#2C3A6F"/>
</g>
<g clip-path="url(#clip6)">
<path d="M148.969 60.6209C149.013 60.5284 149.103 60.4698 149.202 60.4698C149.301 60.4698 149.391 60.5284 149.435 60.6209L150.271 62.3875C150.309 62.4674 150.382 62.5228 150.467 62.5357L152.336 62.8189C152.434 62.8337 152.515 62.9053 152.546 63.0033C152.577 63.1014 152.551 63.2092 152.48 63.2811L151.128 64.6563C151.066 64.7186 151.038 64.8083 151.053 64.8962L151.372 66.838C151.388 66.9398 151.349 67.0425 151.268 67.1033C151.188 67.1637 151.082 67.1717 150.995 67.124L149.322 66.2071C149.247 66.1655 149.156 66.1655 149.08 66.2071L147.408 67.1238C147.321 67.1717 147.215 67.1638 147.134 67.1033C147.054 67.0427 147.014 66.9398 147.031 66.838L147.35 64.8962C147.365 64.8083 147.337 64.7186 147.275 64.6563L145.923 63.2811C145.852 63.2091 145.826 63.1014 145.857 63.0033C145.888 62.9053 145.969 62.8337 146.067 62.8189L147.937 62.5357C148.021 62.5228 148.095 62.4674 148.132 62.3873L148.969 60.6209Z" fill="#2C3A6F"/>
</g>
<g clip-path="url(#clip7)">
<path d="M148.969 80.3114C149.013 80.2189 149.103 80.1603 149.202 80.1603C149.301 80.1603 149.391 80.2189 149.435 80.3114L150.271 82.078C150.309 82.1579 150.382 82.2133 150.467 82.2262L152.336 82.5094C152.434 82.5242 152.515 82.5958 152.546 82.6938C152.577 82.7919 152.551 82.8997 152.48 82.9716L151.128 84.3468C151.066 84.4091 151.038 84.4988 151.053 84.5867L151.372 86.5285C151.388 86.6303 151.349 86.7331 151.268 86.7938C151.188 86.8542 151.082 86.8622 150.995 86.8145L149.322 85.8976C149.247 85.856 149.156 85.856 149.08 85.8976L147.408 86.8143C147.321 86.8622 147.215 86.8544 147.134 86.7938C147.054 86.7332 147.014 86.6303 147.031 86.5285L147.35 84.5867C147.365 84.4988 147.337 84.4091 147.275 84.3468L145.923 82.9716C145.852 82.8996 145.826 82.7919 145.857 82.6938C145.888 82.5958 145.969 82.5242 146.067 82.5094L147.937 82.2262C148.021 82.2133 148.095 82.1579 148.132 82.0778L148.969 80.3114Z" fill="#2C3A6F"/>
</g>
<g clip-path="url(#clip8)">
<path d="M148.969 99.2727C149.013 99.1803 149.103 99.1217 149.202 99.1217C149.301 99.1217 149.391 99.1803 149.435 99.2727L150.271 101.039C150.309 101.119 150.382 101.175 150.467 101.188L152.336 101.471C152.434 101.486 152.515 101.557 152.546 101.655C152.577 101.753 152.551 101.861 152.48 101.933L151.128 103.308C151.066 103.37 151.038 103.46 151.053 103.548L151.372 105.49C151.388 105.592 151.349 105.694 151.268 105.755C151.188 105.816 151.082 105.824 150.995 105.776L149.322 104.859C149.247 104.817 149.156 104.817 149.08 104.859L147.408 105.776C147.321 105.824 147.215 105.816 147.134 105.755C147.054 105.695 147.014 105.592 147.031 105.49L147.35 103.548C147.365 103.46 147.337 103.37 147.275 103.308L145.923 101.933C145.852 101.861 145.826 101.753 145.857 101.655C145.888 101.557 145.969 101.486 146.067 101.471L147.937 101.188C148.021 101.175 148.095 101.119 148.132 101.039L148.969 99.2727Z" fill="#2C3A6F"/>
</g>
<g clip-path="url(#clip9)">
<path d="M157.025 41.6591C157.069 41.5666 157.16 41.508 157.258 41.508C157.357 41.508 157.448 41.5666 157.492 41.6591L158.327 43.4256C158.365 43.5056 158.439 43.561 158.523 43.5738L160.393 43.8571C160.491 43.8719 160.572 43.9435 160.603 44.0415C160.633 44.1395 160.608 44.2474 160.537 44.3193L159.184 45.6945C159.123 45.7567 159.095 45.8465 159.109 45.9344L159.429 47.8762C159.445 47.978 159.405 48.0807 159.325 48.1414C159.245 48.2019 159.139 48.2099 159.051 48.1621L157.379 47.2452C157.303 47.2037 157.213 47.2037 157.137 47.2452L155.465 48.162C155.377 48.2099 155.271 48.202 155.191 48.1414C155.111 48.0809 155.071 47.978 155.088 47.8762L155.407 45.9344C155.421 45.8465 155.393 45.7567 155.332 45.6945L153.979 44.3193C153.909 44.2472 153.883 44.1395 153.914 44.0415C153.944 43.9435 154.025 43.8719 154.123 43.8571L155.993 43.5738C156.078 43.561 156.151 43.5056 156.189 43.4255L157.025 41.6591Z" fill="#2C3A6F"/>
</g>
<g clip-path="url(#clip10)">
<path d="M157.025 60.6209C157.069 60.5284 157.16 60.4698 157.258 60.4698C157.357 60.4698 157.448 60.5284 157.492 60.6209L158.327 62.3875C158.365 62.4674 158.439 62.5228 158.523 62.5357L160.393 62.8189C160.491 62.8337 160.572 62.9053 160.603 63.0033C160.633 63.1014 160.608 63.2092 160.537 63.2811L159.184 64.6563C159.123 64.7186 159.095 64.8083 159.109 64.8962L159.429 66.838C159.445 66.9398 159.405 67.0425 159.325 67.1033C159.245 67.1637 159.139 67.1717 159.051 67.124L157.379 66.2071C157.303 66.1655 157.213 66.1655 157.137 66.2071L155.465 67.1238C155.377 67.1717 155.271 67.1638 155.191 67.1033C155.111 67.0427 155.071 66.9398 155.088 66.838L155.407 64.8962C155.421 64.8083 155.393 64.7186 155.332 64.6563L153.979 63.2811C153.909 63.2091 153.883 63.1014 153.914 63.0033C153.944 62.9053 154.025 62.8337 154.123 62.8189L155.993 62.5357C156.078 62.5228 156.151 62.4674 156.189 62.3873L157.025 60.6209Z" fill="#2C3A6F"/>
</g>
<g clip-path="url(#clip11)">
<path d="M157.025 80.3114C157.069 80.2189 157.16 80.1603 157.258 80.1603C157.357 80.1603 157.448 80.2189 157.492 80.3114L158.327 82.078C158.365 82.1579 158.439 82.2133 158.523 82.2262L160.393 82.5094C160.491 82.5242 160.572 82.5958 160.603 82.6938C160.633 82.7919 160.608 82.8997 160.537 82.9716L159.184 84.3468C159.123 84.4091 159.095 84.4988 159.109 84.5867L159.429 86.5285C159.445 86.6303 159.405 86.7331 159.325 86.7938C159.245 86.8542 159.139 86.8622 159.051 86.8145L157.379 85.8976C157.303 85.856 157.213 85.856 157.137 85.8976L155.465 86.8143C155.377 86.8622 155.271 86.8544 155.191 86.7938C155.111 86.7332 155.071 86.6303 155.088 86.5285L155.407 84.5867C155.421 84.4988 155.393 84.4091 155.332 84.3468L153.979 82.9716C153.909 82.8996 153.883 82.7919 153.914 82.6938C153.944 82.5958 154.025 82.5242 154.123 82.5094L155.993 82.2262C156.078 82.2133 156.151 82.1579 156.189 82.0778L157.025 80.3114Z" fill="#2C3A6F"/>
</g>
<g clip-path="url(#clip12)">
<path d="M165.083 41.6591C165.127 41.5666 165.217 41.508 165.316 41.508C165.415 41.508 165.505 41.5666 165.549 41.6591L166.385 43.4256C166.423 43.5056 166.496 43.561 166.581 43.5738L168.45 43.8571C168.549 43.8719 168.63 43.9435 168.66 44.0415C168.691 44.1395 168.665 44.2474 168.594 44.3193L167.242 45.6945C167.181 45.7567 167.153 45.8465 167.167 45.9344L167.486 47.8762C167.503 47.978 167.463 48.0807 167.383 48.1414C167.302 48.2019 167.197 48.2099 167.109 48.1621L165.437 47.2452C165.361 47.2037 165.27 47.2037 165.195 47.2452L163.522 48.162C163.435 48.2099 163.329 48.202 163.249 48.1414C163.169 48.0809 163.129 47.978 163.145 47.8762L163.465 45.9344C163.479 45.8465 163.451 45.7567 163.39 45.6945L162.037 44.3193C161.966 44.2472 161.941 44.1395 161.971 44.0415C162.002 43.9435 162.083 43.8719 162.181 43.8571L164.051 43.5738C164.136 43.561 164.209 43.5056 164.247 43.4255L165.083 41.6591Z" fill="#2C3A6F"/>
</g>
<g clip-path="url(#clip13)">
<path d="M165.083 60.6209C165.127 60.5284 165.217 60.4698 165.316 60.4698C165.415 60.4698 165.505 60.5284 165.549 60.6209L166.385 62.3875C166.423 62.4674 166.496 62.5228 166.581 62.5357L168.45 62.8189C168.549 62.8337 168.63 62.9053 168.66 63.0033C168.691 63.1014 168.665 63.2092 168.594 63.2811L167.242 64.6563C167.181 64.7186 167.153 64.8083 167.167 64.8962L167.486 66.838C167.503 66.9398 167.463 67.0425 167.383 67.1033C167.302 67.1637 167.197 67.1717 167.109 67.124L165.437 66.2071C165.361 66.1655 165.27 66.1655 165.195 66.2071L163.522 67.1238C163.435 67.1717 163.329 67.1638 163.249 67.1033C163.169 67.0427 163.129 66.9398 163.145 66.838L163.465 64.8962C163.479 64.8083 163.451 64.7186 163.39 64.6563L162.037 63.2811C161.966 63.2091 161.941 63.1014 161.971 63.0033C162.002 62.9053 162.083 62.8337 162.181 62.8189L164.051 62.5357C164.136 62.5228 164.209 62.4674 164.247 62.3873L165.083 60.6209Z" fill="#2C3A6F"/>
</g>
<g clip-path="url(#clip14)">
<path d="M165.083 80.3114C165.127 80.2189 165.217 80.1603 165.316 80.1603C165.415 80.1603 165.505 80.2189 165.549 80.3114L166.385 82.078C166.423 82.1579 166.496 82.2133 166.581 82.2262L168.45 82.5094C168.549 82.5242 168.63 82.5958 168.66 82.6938C168.691 82.7919 168.665 82.8997 168.594 82.9716L167.242 84.3468C167.181 84.4091 167.153 84.4988 167.167 84.5867L167.486 86.5285C167.503 86.6303 167.463 86.7331 167.383 86.7938C167.302 86.8542 167.197 86.8622 167.109 86.8145L165.437 85.8976C165.361 85.856 165.27 85.856 165.195 85.8976L163.522 86.8143C163.435 86.8622 163.329 86.8544 163.249 86.7938C163.169 86.7332 163.129 86.6303 163.145 86.5285L163.465 84.5867C163.479 84.4988 163.451 84.4091 163.39 84.3468L162.037 82.9716C161.966 82.8996 161.941 82.7919 161.971 82.6938C162.002 82.5958 162.083 82.5242 162.181 82.5094L164.051 82.2262C164.136 82.2133 164.209 82.1579 164.247 82.0778L165.083 80.3114Z" fill="#2C3A6F"/>
</g>
<g clip-path="url(#clip15)">
<path d="M173.141 41.6591C173.185 41.5666 173.275 41.508 173.374 41.508C173.472 41.508 173.563 41.5666 173.607 41.6591L174.443 43.4256C174.481 43.5056 174.554 43.561 174.639 43.5738L176.508 43.8571C176.606 43.8719 176.687 43.9435 176.718 44.0415C176.748 44.1395 176.723 44.2474 176.652 44.3193L175.299 45.6945C175.238 45.7567 175.21 45.8465 175.225 45.9344L175.544 47.8762C175.56 47.978 175.52 48.0807 175.44 48.1414C175.36 48.2019 175.254 48.2099 175.166 48.1621L173.494 47.2452C173.419 47.2037 173.328 47.2037 173.252 47.2452L171.58 48.162C171.493 48.2099 171.386 48.202 171.306 48.1414C171.226 48.0809 171.186 47.978 171.203 47.8762L171.522 45.9344C171.537 45.8465 171.509 45.7567 171.447 45.6945L170.095 44.3193C170.024 44.2472 169.998 44.1395 170.029 44.0415C170.059 43.9435 170.141 43.8719 170.239 43.8571L172.109 43.5738C172.193 43.561 172.266 43.5056 172.304 43.4255L173.141 41.6591Z" fill="#2C3A6F"/>
</g>
<g clip-path="url(#clip16)">
<path d="M173.141 60.6209C173.185 60.5284 173.275 60.4698 173.374 60.4698C173.472 60.4698 173.563 60.5284 173.607 60.6209L174.443 62.3875C174.481 62.4674 174.554 62.5228 174.639 62.5357L176.508 62.8189C176.606 62.8337 176.687 62.9053 176.718 63.0033C176.748 63.1014 176.723 63.2092 176.652 63.2811L175.299 64.6563C175.238 64.7186 175.21 64.8083 175.225 64.8962L175.544 66.838C175.56 66.9398 175.52 67.0425 175.44 67.1033C175.36 67.1637 175.254 67.1717 175.166 67.124L173.494 66.2071C173.419 66.1655 173.328 66.1655 173.252 66.2071L171.58 67.1238C171.493 67.1717 171.386 67.1638 171.306 67.1033C171.226 67.0427 171.186 66.9398 171.203 66.838L171.522 64.8962C171.537 64.8083 171.509 64.7186 171.447 64.6563L170.095 63.2811C170.024 63.2091 169.998 63.1014 170.029 63.0033C170.059 62.9053 170.141 62.8337 170.239 62.8189L172.109 62.5357C172.193 62.5228 172.266 62.4674 172.304 62.3873L173.141 60.6209Z" fill="#2C3A6F"/>
</g>
<g clip-path="url(#clip17)">
<path d="M181.197 41.6591C181.241 41.5666 181.332 41.508 181.43 41.508C181.529 41.508 181.62 41.5666 181.663 41.6591L182.499 43.4256C182.537 43.5056 182.61 43.561 182.695 43.5738L184.565 43.8571C184.663 43.8719 184.744 43.9435 184.774 44.0415C184.805 44.1395 184.78 44.2474 184.709 44.3193L183.356 45.6945C183.295 45.7567 183.267 45.8465 183.281 45.9344L183.6 47.8762C183.617 47.978 183.577 48.0807 183.497 48.1414C183.417 48.2019 183.311 48.2099 183.223 48.1621L181.551 47.2452C181.475 47.2037 181.385 47.2037 181.309 47.2452L179.637 48.162C179.549 48.2099 179.443 48.202 179.363 48.1414C179.283 48.0809 179.243 47.978 179.26 47.8762L179.579 45.9344C179.593 45.8465 179.565 45.7567 179.504 45.6945L178.151 44.3193C178.08 44.2472 178.055 44.1395 178.085 44.0415C178.116 43.9435 178.197 43.8719 178.295 43.8571L180.165 43.5738C180.25 43.561 180.323 43.5056 180.361 43.4255L181.197 41.6591Z" fill="#2C3A6F"/>
</g>
<defs>
<clipPath id="clip0">
<rect x="145.174" y="21.8787" width="8.05732" height="8.02211" fill="white"/>
</clipPath>
<clipPath id="clip1">
<rect x="153.23" y="21.8787" width="8.05732" height="8.02211" fill="white"/>
</clipPath>
<clipPath id="clip2">
<rect x="161.287" y="21.8787" width="8.05732" height="8.02211" fill="white"/>
</clipPath>
<clipPath id="clip3">
<rect x="169.346" y="21.8787" width="8.05732" height="8.02211" fill="white"/>
</clipPath>
<clipPath id="clip4">
<rect x="177.402" y="21.8787" width="8.05732" height="8.02211" fill="white"/>
</clipPath>
<clipPath id="clip5">
<rect x="145.173" y="40.8395" width="8.05732" height="8.02211" fill="white"/>
</clipPath>
<clipPath id="clip6">
<rect x="145.173" y="59.8013" width="8.05732" height="8.02211" fill="white"/>
</clipPath>
<clipPath id="clip7">
<rect x="145.173" y="79.4919" width="8.05732" height="8.02211" fill="white"/>
</clipPath>
<clipPath id="clip8">
<rect x="145.173" y="98.4532" width="8.05732" height="8.02211" fill="white"/>
</clipPath>
<clipPath id="clip9">
<rect x="153.229" y="40.8395" width="8.05732" height="8.02211" fill="white"/>
</clipPath>
<clipPath id="clip10">
<rect x="153.229" y="59.8013" width="8.05732" height="8.02211" fill="white"/>
</clipPath>
<clipPath id="clip11">
<rect x="153.229" y="79.4919" width="8.05732" height="8.02211" fill="white"/>
</clipPath>
<clipPath id="clip12">
<rect x="161.287" y="40.8395" width="8.05732" height="8.02211" fill="white"/>
</clipPath>
<clipPath id="clip13">
<rect x="161.287" y="59.8013" width="8.05732" height="8.02211" fill="white"/>
</clipPath>
<clipPath id="clip14">
<rect x="161.287" y="79.4919" width="8.05732" height="8.02211" fill="white"/>
</clipPath>
<clipPath id="clip15">
<rect x="169.345" y="40.8395" width="8.05732" height="8.02211" fill="white"/>
</clipPath>
<clipPath id="clip16">
<rect x="169.345" y="59.8013" width="8.05732" height="8.02211" fill="white"/>
</clipPath>
<clipPath id="clip17">
<rect x="177.401" y="40.8395" width="8.05732" height="8.02211" fill="white"/>
</clipPath>
</defs>
</svg>
