<svg width="217" height="43" viewBox="0 0 217 43" fill="none" xmlns="http://www.w3.org/2000/svg">
    <path d="M22.5599 34.56H10.7199L8.51994 40H0.439941L12.7999 12H20.5999L32.9999 40H24.7599L22.5599 34.56ZM20.2399 28.72L16.6399 19.76L13.0399 28.72H20.2399Z"
          fill="white"/>
    <path d="M58.1253 16.88V40H51.7653L42.6053 29.2V40H35.0453V16.88H41.4053L50.5653 27.76V16.88H58.1253Z"
          fill="white"/>
    <path d="M79.2065 35.92H69.2865L67.6065 40H60.2065L70.4865 16.88H78.0865L88.3665 40H80.8465L79.2065 35.92ZM77.0465 30.56L74.2865 23.6L71.4465 30.56H77.0465Z"
          fill="white"/>
    <path d="M90.4359 16.88H98.1559V34.16H108.876V40H90.4359V16.88Z" fill="white"/>
    <path d="M122.552 32.24V40H114.832V32.24L105.552 16.88H113.712L118.912 25.52L124.112 16.88H131.832L122.552 32.24Z"
          fill="white"/>
    <path d="M137.494 22.72H130.534V16.88H152.174V22.72H145.214V40H137.494V22.72Z" fill="white"/>
    <path d="M154.889 16.88H162.609V40H154.889V16.88Z" fill="white"/>
    <path d="M205.489 40.52C203.596 40.52 201.729 40.3067 199.889 39.88C198.049 39.4267 196.543 38.84 195.369 38.12L197.929 32.56C199.049 33.2533 200.303 33.8 201.689 34.2C203.076 34.5733 204.476 34.76 205.889 34.76C206.929 34.76 207.689 34.64 208.169 34.4C208.649 34.1333 208.889 33.7867 208.889 33.36C208.889 32.8533 208.569 32.48 207.929 32.24C207.289 31.9733 206.236 31.68 204.769 31.36C202.983 31.0133 201.489 30.6267 200.289 30.2C199.089 29.7733 198.036 29.0667 197.129 28.08C196.249 27.0933 195.809 25.76 195.809 24.08C195.809 22.6133 196.249 21.2933 197.129 20.12C198.009 18.9467 199.276 18.0267 200.929 17.36C202.609 16.6933 204.569 16.36 206.809 16.36C208.409 16.36 209.969 16.5333 211.489 16.88C213.009 17.2 214.343 17.6933 215.489 18.36L213.129 23.92C211.156 22.72 208.956 22.12 206.529 22.12C205.489 22.12 204.703 22.2667 204.169 22.56C203.663 22.8533 203.409 23.2267 203.409 23.68C203.409 24.16 203.729 24.5333 204.369 24.8C205.009 25.04 206.049 25.2933 207.489 25.56C209.276 25.9067 210.769 26.2933 211.969 26.72C213.196 27.1467 214.249 27.84 215.129 28.8C216.036 29.76 216.489 31.0667 216.489 32.72C216.489 34.2133 216.063 35.5467 215.209 36.72C214.383 37.8933 213.129 38.8267 211.449 39.52C209.796 40.1867 207.809 40.52 205.489 40.52Z"
          fill="white"/>
    <path d="M193.13 23.1141L183.175 26.815C182.697 25.5282 181.453 24.6136 180.006 24.6136C179.932 24.6136 179.857 24.6136 179.783 24.6242C178.868 24.688 178.06 25.1028 177.486 25.7409C175.104 23.6458 171.658 20.6149 169.499 18.7431C171.796 16.1376 175.05 14.3935 178.719 14.0638C179.145 14.0213 179.57 14 180.006 14C186.015 14 191.141 17.786 193.13 23.1141Z"
          fill="#8BC158"/>
    <path d="M178.049 30.7712L171.668 39.2578C168.233 36.7055 166 32.611 166 28.0061C166 24.4541 167.319 21.2105 169.499 18.7432C171.647 20.6149 175.103 23.6458 177.486 25.7409C176.943 26.3365 176.614 27.1341 176.614 28.0061C176.614 29.1441 177.177 30.1544 178.049 30.7712Z"
          fill="#F36A83"/>
    <path d="M179.783 24.6243C178.868 24.6881 178.06 25.1028 177.486 25.7409C175.104 23.6459 171.658 20.6149 169.499 18.7432C171.796 16.1376 175.05 14.3935 178.719 14.0638L179.783 24.6243Z"
          fill="#FACD5E"/>
    <path d="M193.209 32.6639C191.29 38.1079 186.103 42.0122 179.995 42.0122C176.869 42.0122 173.987 40.9913 171.658 39.2578L178.039 30.7712C178.592 31.1647 179.262 31.388 179.985 31.388C181.625 31.388 182.988 30.2197 183.3 28.6779L193.209 32.6639Z"
          fill="#9678D8"/>
    <circle cx="180" cy="28" r="7" fill="#091335"/>
</svg>
