<svg width="230" height="132" viewBox="0 0 230 132" fill="none" xmlns="http://www.w3.org/2000/svg">
<path d="M210.862 4.71196V120.74C210.862 122.776 209.223 124.408 207.163 124.408H22.838C20.8025 124.408 19.1382 122.774 19.1382 120.74V4.71196C19.1382 2.4024 21.0262 0.5 23.387 0.5H206.614C208.951 0.5 210.862 2.37891 210.862 4.71196Z" stroke="#2C3A6F"/>
<path d="M224.557 130.406L224.557 130.406L224.561 130.405L228.015 129.143C228.913 128.805 229.5 127.951 229.5 126.976V125.802H0.518417C0.521225 125.853 0.523972 125.909 0.526276 125.969L0.526642 125.978V125.988V127.772C0.526642 128.26 0.818298 128.699 1.27232 128.869L1.27768 128.871L5.44421 130.489C5.44485 130.49 5.4455 130.49 5.44614 130.49C7.20085 131.155 9.06076 131.5 10.919 131.5H218.559C220.611 131.5 222.636 131.127 224.557 130.406Z" stroke="#2C3A6F"/>
<path d="M27.4658 117.315V8.77448H203.328V117.315H27.4658Z" stroke="#2C3A6F"/>
<path d="M171.716 59L174 56.0186L171.716 53H137V59H171.716Z" fill="#2C3A6F"/>
<path d="M179.476 70.5H137.5V65.5H179.476L181.372 68L179.476 70.5Z" stroke="#2C3A6F"/>
<path d="M171.442 82.5H137.5V77.5H171.442L173.369 80L171.442 82.5Z" stroke="#2C3A6F"/>
<path d="M76.5 66.5H49.5092C49.7123 59.0948 52.9152 52.199 57.9381 47.3671C63.0173 42.5465 68.955 39.5629 76.5 39.4999V66.5Z" stroke="#2C3A6F"/>
<path d="M89.3531 54.8042L89.3541 54.8053C91.8522 57.3235 93.4105 60.7406 93.4963 64.5H79.5V50.5141C83.3267 50.6847 86.875 52.2914 89.3531 54.8042Z" stroke="#2C3A6F"/>
<path d="M93.525 83.7769C89.3745 87.8963 83.7265 90.4349 77.5 90.4988V67.5H100.49C100.293 73.8292 97.6721 79.6608 93.525 83.7769Z" stroke="#2C3A6F"/>
<path d="M77 67L57.0012 67C56.9422 72.4678 59.1249 77.4386 62.7235 81.0643C66.3222 84.6901 71.4546 86.9415 77 87L77 67Z" fill="#2C3A6F"/>
</svg>
