<svg width="274" height="42" viewBox="0 0 274 42" fill="none" xmlns="http://www.w3.org/2000/svg">
    <path d="M20.6405 39.5039C18.6005 39.5039 16.6205 39.2519 14.7005 38.7479C12.7805 38.2439 11.2205 37.5719 10.0205 36.7319L12.3605 31.4759C13.4885 32.2199 14.7965 32.8199 16.2845 33.2759C17.7725 33.7319 19.2365 33.9599 20.6765 33.9599C23.4125 33.9599 24.7805 33.2759 24.7805 31.9079C24.7805 31.1879 24.3845 30.6599 23.5925 30.3239C22.8245 29.9639 21.5765 29.5919 19.8485 29.2079C17.9525 28.7999 16.3685 28.3679 15.0965 27.9119C13.8245 27.4319 12.7325 26.6759 11.8205 25.6439C10.9085 24.6119 10.4525 23.2199 10.4525 21.4679C10.4525 19.9319 10.8725 18.5519 11.7125 17.3279C12.5525 16.0799 13.8005 15.0959 15.4565 14.3759C17.1365 13.6559 19.1885 13.2959 21.6125 13.2959C23.2685 13.2959 24.9005 13.4879 26.5085 13.8719C28.1165 14.2319 29.5325 14.7719 30.7565 15.4919L28.5605 20.7839C26.1605 19.4879 23.8325 18.8399 21.5765 18.8399C20.1605 18.8399 19.1285 19.0559 18.4805 19.4879C17.8325 19.8959 17.5085 20.4359 17.5085 21.1079C17.5085 21.7799 17.8925 22.2839 18.6605 22.6199C19.4285 22.9559 20.6645 23.3039 22.3685 23.6639C24.2885 24.0719 25.8725 24.5159 27.1205 24.9959C28.3925 25.4519 29.4845 26.1959 30.3965 27.2279C31.3325 28.2359 31.8005 29.6159 31.8005 31.3679C31.8005 32.8799 31.3805 34.2479 30.5405 35.4719C29.7005 36.6959 28.4405 37.6799 26.7605 38.4239C25.0805 39.1439 23.0405 39.5039 20.6405 39.5039Z"
          fill="white"/>
    <path d="M46.7211 39.5039C42.9771 39.5039 40.0611 38.4839 37.9731 36.4439C35.9091 34.4039 34.8771 31.5119 34.8771 27.7679V13.7999H42.0051V27.5519C42.0051 31.5839 43.6011 33.5999 46.7931 33.5999C49.9611 33.5999 51.5451 31.5839 51.5451 27.5519V13.7999H58.5651V27.7679C58.5651 31.5119 57.5211 34.4039 55.4331 36.4439C53.3691 38.4839 50.4651 39.5039 46.7211 39.5039Z"
          fill="white"/>
    <path d="M74.9139 13.7999C77.1939 13.7999 79.1739 14.1839 80.8539 14.9519C82.5339 15.6959 83.8299 16.7759 84.7419 18.1919C85.6539 19.5839 86.1099 21.2279 86.1099 23.1239C86.1099 25.0199 85.6539 26.6639 84.7419 28.0559C83.8299 29.4479 82.5339 30.5279 80.8539 31.2959C79.1739 32.0399 77.1939 32.4119 74.9139 32.4119H70.5219V38.9999H63.3939V13.7999H74.9139ZM74.4819 26.7959C75.9459 26.7959 77.0499 26.4839 77.7939 25.8599C78.5379 25.2119 78.9099 24.2999 78.9099 23.1239C78.9099 21.9479 78.5379 21.0359 77.7939 20.3879C77.0499 19.7399 75.9459 19.4159 74.4819 19.4159H70.5219V26.7959H74.4819Z"
          fill="white"/>
    <path d="M109.817 33.4919V38.9999H89.5853V13.7999H109.349V19.3079H96.6413V23.5559H107.837V28.8839H96.6413V33.4919H109.817Z"
          fill="white"/>
    <path d="M124.789 32.3039H120.901V38.9999H113.773V13.7999H125.293C127.573 13.7999 129.553 14.1839 131.233 14.9519C132.913 15.6959 134.209 16.7759 135.121 18.1919C136.033 19.5839 136.489 21.2279 136.489 23.1239C136.489 24.9479 136.057 26.5439 135.193 27.9119C134.353 29.2559 133.141 30.3119 131.557 31.0799L136.993 38.9999H129.361L124.789 32.3039ZM129.289 23.1239C129.289 21.9479 128.917 21.0359 128.173 20.3879C127.429 19.7399 126.325 19.4159 124.861 19.4159H120.901V26.7959H124.861C126.325 26.7959 127.429 26.4839 128.173 25.8599C128.917 25.2119 129.289 24.2999 129.289 23.1239Z"
          fill="white"/>
    <path d="M165.981 13.7999L155.181 38.9999H148.161L137.397 13.7999H145.101L151.941 30.2159L158.925 13.7999H165.981Z"
          fill="white"/>
    <path d="M167.456 13.7999H174.584V38.9999H167.456V13.7999Z" fill="white"/>
    <path d="M188.512 39.5039C186.472 39.5039 184.492 39.2519 182.572 38.7479C180.652 38.2439 179.092 37.5719 177.892 36.7319L180.232 31.4759C181.36 32.2199 182.668 32.8199 184.156 33.2759C185.644 33.7319 187.108 33.9599 188.548 33.9599C191.284 33.9599 192.652 33.2759 192.652 31.9079C192.652 31.1879 192.256 30.6599 191.464 30.3239C190.696 29.9639 189.448 29.5919 187.72 29.2079C185.824 28.7999 184.24 28.3679 182.968 27.9119C181.696 27.4319 180.604 26.6759 179.692 25.6439C178.78 24.6119 178.324 23.2199 178.324 21.4679C178.324 19.9319 178.744 18.5519 179.584 17.3279C180.424 16.0799 181.672 15.0959 183.328 14.3759C185.008 13.6559 187.06 13.2959 189.484 13.2959C191.14 13.2959 192.772 13.4879 194.38 13.8719C195.988 14.2319 197.404 14.7719 198.628 15.4919L196.432 20.7839C194.032 19.4879 191.704 18.8399 189.448 18.8399C188.032 18.8399 187 19.0559 186.352 19.4879C185.704 19.8959 185.38 20.4359 185.38 21.1079C185.38 21.7799 185.764 22.2839 186.532 22.6199C187.3 22.9559 188.536 23.3039 190.24 23.6639C192.16 24.0719 193.744 24.5159 194.992 24.9959C196.264 25.4519 197.356 26.1959 198.268 27.2279C199.204 28.2359 199.672 29.6159 199.672 31.3679C199.672 32.8799 199.252 34.2479 198.412 35.4719C197.572 36.6959 196.312 37.6799 194.632 38.4239C192.952 39.1439 190.912 39.5039 188.512 39.5039Z"
          fill="white"/>
    <path d="M242.41 32.3039H238.522V38.9999H231.394V13.7999H242.914C245.194 13.7999 247.174 14.1839 248.854 14.9519C250.534 15.6959 251.83 16.7759 252.742 18.1919C253.654 19.5839 254.11 21.2279 254.11 23.1239C254.11 24.9479 253.678 26.5439 252.814 27.9119C251.974 29.2559 250.762 30.3119 249.178 31.0799L254.614 38.9999H246.982L242.41 32.3039ZM246.91 23.1239C246.91 21.9479 246.538 21.0359 245.794 20.3879C245.05 19.7399 243.946 19.4159 242.482 19.4159H238.522V26.7959H242.482C243.946 26.7959 245.05 26.4839 245.794 25.8599C246.538 25.2119 246.91 24.2999 246.91 23.1239Z"
          fill="white"/>
    <path d="M215.228 39.5039C212.564 39.5039 210.164 38.9399 208.028 37.8119C205.916 36.6839 204.248 35.1239 203.024 33.1319C201.824 31.1399 201.224 28.8959 201.224 26.3999C201.224 23.9039 201.824 21.6599 203.024 19.6679C204.248 17.6759 205.916 16.1159 208.028 14.9879C210.164 13.8599 212.564 13.2959 215.228 13.2959C217.892 13.2959 220.28 13.8599 222.392 14.9879C224.528 16.1159 226.196 17.6759 227.396 19.6679C228.62 21.6599 229.232 23.9039 229.232 26.3999C229.232 28.8959 228.62 31.1399 227.396 33.1319C226.196 35.1239 224.528 36.6839 222.392 37.8119C220.28 38.9399 217.892 39.5039 215.228 39.5039ZM215.228 33.5999C216.5 33.5999 217.652 33.2999 218.684 32.6999C219.716 32.0999 220.532 31.2599 221.132 30.1799C221.732 29.0759 222.032 27.8159 222.032 26.3999C222.032 24.9839 221.732 23.7359 221.132 22.6559C220.532 21.5519 219.716 20.6999 218.684 20.0999C217.652 19.4999 216.5 19.1999 215.228 19.1999C213.956 19.1999 212.804 19.4999 211.772 20.0999C210.74 20.6999 209.924 21.5519 209.324 22.6559C208.724 23.7359 208.424 24.9839 208.424 26.3999C208.424 27.8159 208.724 29.0759 209.324 30.1799C209.924 31.2599 210.74 32.0999 211.772 32.6999C212.804 33.2999 213.956 33.5999 215.228 33.5999Z"
          fill="#FFC107"/>
    <circle cx="215.3" cy="26.5" r="2.5" fill="white"/>
</svg>
