<svg width="200" height="200" viewBox="0 0 200 200" fill="none" xmlns="http://www.w3.org/2000/svg">
    <path d="M80.5642 31.0514C79.9881 32.7224 78.5284 34.1437 77.3183 34.2397C76.1083 34.3357 75.5898 33.0489 76.1852 31.3779C76.7806 29.707 78.2211 28.2857 79.4311 28.1897C80.6411 28.0936 81.1596 29.3805 80.5642 31.0514Z" fill="#D93DF5"/>
    <path d="M174.349 57.8061C172.775 62.3196 168.818 66.1801 165.534 66.4106C162.249 66.641 160.867 63.1839 162.441 58.6704C164.016 54.1568 167.973 50.2963 171.257 50.0659C174.542 49.8354 175.924 53.2925 174.349 57.8061Z" fill="#FAB404"/>
    <path d="M30.4546 63.7217C27.4392 65.4694 25 69.6949 25 73.1712C25 76.6476 27.4584 78.0497 30.493 76.3019C33.5085 74.5541 35.9477 70.3287 35.9477 66.8523C35.9477 63.3759 33.4893 61.9739 30.4546 63.7217Z" fill="#D4D8E2"/>
    <mask id="mask0_5047_9488" style="mask-type:luminance" maskUnits="userSpaceOnUse" x="101" y="120" width="56" height="52">
        <path d="M120.861 140.956L138.953 130.499V150.037L120.843 160.494V140.956H120.861ZM120.314 141.273L101.252 152.277V171.815L120.296 160.812V141.273H120.314ZM139.518 130.181V149.72L156.323 140.003V120.465L139.518 130.164V130.181Z" fill="white"/>
    </mask>
    <g mask="url(#mask0_5047_9488)">
        <path d="M157.047 140.621L100.248 173.367V96.5177L157.047 63.7711V140.621Z" fill="#D4D8E2"/>
        <path d="M115.496 150.777C115.496 156.26 121.3 157.119 128.467 152.707C135.633 148.294 141.438 140.29 141.438 134.826C141.438 132.477 141.367 130.605 141.277 128.962C132.677 132.343 123.845 138.551 115.585 145.81C115.531 147.3 115.478 148.905 115.478 150.796L115.496 150.777Z" fill="#D4D8E2"/>
        <path d="M118.692 135.965C118.692 139.439 118.692 143.689 118.692 147.48C118.692 155.557 138.425 144.588 138.425 136.406C138.425 132.879 138.425 122.881 138.407 118.984L118.692 135.965Z" fill="#EDEEF3"/>
        <path d="M144.226 108.35C144.138 107.222 143.627 106.851 143.027 106.975C143.027 106.781 143.045 106.569 143.045 106.375C143.045 94.8955 136.467 89.376 128.356 94.049C120.244 98.7221 113.667 111.824 113.667 123.322C113.667 123.498 113.667 123.692 113.684 123.868C112.961 124.344 112.273 125.402 112.168 126.831C111.762 132.668 114.919 135.348 116.329 136.036C118.992 141.873 123.365 144.976 128.338 142.12C133.452 139.175 137.949 130.605 140.576 121.452C142.11 118.649 144.561 113.129 144.209 108.368L144.226 108.35Z" fill="#EDEEF3"/>
        <path d="M113.102 124.274C113.543 123.727 114.407 123.657 114.848 123.657C115.624 123.657 115.8 124.962 116.029 125.879C116.311 127.007 115.765 130.181 116.682 129.458C117.616 128.735 117.176 123.921 117.334 121.206C117.475 118.666 119.256 115.245 120.544 112.565C122.924 107.627 125.164 103.289 124.741 96.941C124.987 98.5634 125.234 100.203 125.816 101.632C126.874 104.312 128.285 104.206 130.066 105.035C137.807 108.632 138.195 114.945 139.553 121.206C139.553 121.206 140.047 110.449 142.198 107.857C142.868 107.045 144.173 107.416 144.173 107.416C147.189 83.0277 136.697 80.1181 127.051 86.3076C116.611 93.0086 109.893 104.876 113.102 124.292V124.274Z" fill="#D4D8E2"/>
    </g>
    <mask id="mask1_5047_9488" style="mask-type:luminance" maskUnits="userSpaceOnUse" x="48" y="121" width="54" height="51">
        <path d="M64.8493 150.367L48.2524 140.714V121.785L64.8493 131.421V150.35V150.367ZM65.398 150.676L82.9893 160.894V141.966L65.3808 131.747V150.676H65.398ZM83.538 142.274V161.203L101.438 171.593V152.665L83.538 142.257V142.274Z" fill="white"/>
    </mask>
    <g mask="url(#mask1_5047_9488)">
        <path d="M101.575 172.262L48.1665 140.971V67.5542L101.575 98.8448V172.262Z" fill="#D4D8E2"/>
        <path d="M101.576 158.974L91.5625 149.63C80.9152 139.668 69.5477 134.199 59.3804 131.301L48.15 128.987V140.971L101.576 172.262V158.974Z" fill="#D4D8E2"/>
        <path d="M62.7068 136.719C62.7068 141.623 68.1591 148.773 74.8973 152.716C81.6183 156.66 87.0877 155.888 87.0877 150.984C87.0877 148.875 87.0192 147.144 86.9334 145.566C77.9492 138.245 69.7022 134.147 62.8097 132.381C62.7582 133.65 62.7068 135.039 62.7068 136.719Z" fill="#D4D8E2"/>
        <path d="M65.6219 119.214C65.6219 119.214 65.6562 129.038 65.6562 136.719C65.6562 144.4 84.1391 156.78 84.1391 148.995C84.1391 141.211 84.1048 127.546 84.1048 127.546L65.6219 119.214Z" fill="#EDEEF3"/>
        <path d="M89.7454 125.283C89.6597 124.117 89.1796 123.191 88.6138 122.66C88.6138 122.471 88.631 122.283 88.631 122.111C88.631 111.172 82.4586 98.7076 74.8631 94.2497C67.2505 89.7919 61.0952 95.0556 61.0952 105.977C61.0952 106.149 61.0952 106.337 61.1124 106.509C60.4266 106.166 59.7922 106.423 59.7065 107.675C59.3293 112.784 62.2954 118.802 63.6156 120.997C66.1017 129.467 70.2167 137.234 74.8803 139.977C79.6639 142.789 83.8817 139.565 86.3506 133.736C87.7909 132.759 90.0884 130.187 89.7626 125.266L89.7454 125.283Z" fill="#EDEEF3"/>
        <path d="M86.3843 124.735C88.1503 122.283 89.6248 123.02 88.9047 111.361C88.5446 105.497 89.5733 102.274 85.767 96.4101C84.2411 94.0612 81.2406 93.8211 81.2406 93.8211C79.3203 90.2034 76.6113 88.6261 74.0566 86.9972C58.3856 77.0528 59.1743 88.6775 59.6715 100.371C59.7573 102.394 59.9801 104.331 60.2545 106.509C60.7174 106.475 63.3064 112.476 64.2494 112.921C64.6094 113.144 61.969 101.074 62.912 99.342C66.1011 93.5297 74.6567 103.577 80.1604 102.874C79.5089 105.892 84.9269 108.686 85.8699 112.664C86.8472 116.796 85.287 126.261 86.3671 124.735H86.3843Z" fill="#D4D8E2"/>
    </g>
    <path d="M127.96 127.327L54.3574 116.295L73.8011 73.1013L147.403 84.1332L127.96 127.327Z" fill="#EDEEF3"/>
    <mask id="mask2_5047_9488" style="mask-type:luminance" maskUnits="userSpaceOnUse" x="54" y="116" width="74" height="31">
        <path d="M79.8822 120.093L103.574 123.637V143.079L79.8822 139.535V120.093ZM104.107 123.723V143.165L127.816 146.709V127.267L104.107 123.706V123.723ZM54.1603 116.239V135.698L79.3316 139.466V120.024L54.1603 116.256V116.239Z" fill="white"/>
    </mask>
    <g mask="url(#mask2_5047_9488)">
        <path d="M128.315 173.911L53.5919 162.022V87.0413L128.315 98.9301V173.911Z" fill="#D4D8E2"/>
        <path d="M109.665 132.515C109.565 131.345 108.902 130.588 108.139 130.261C108.139 130.072 108.172 129.882 108.172 129.693C108.172 118.492 99.8304 108.032 89.5485 106.328C79.2665 104.625 70.9248 112.333 70.9248 123.551C70.9248 123.723 70.9414 123.912 70.9414 124.101C70.0293 124.015 69.1503 124.514 69.0342 125.839C68.5201 131.224 72.5334 136.266 74.3079 138.021C77.6744 145.763 83.2466 152.18 89.5485 153.23C96.0327 154.297 101.721 149.41 105.071 142.511C107.028 140.963 110.129 137.47 109.681 132.549L109.665 132.515Z" fill="#EDEEF3"/>
        <path d="M70.2282 124.05C70.7921 123.861 71.8866 124.463 72.4339 124.807C73.4289 125.409 73.6279 126.82 73.9264 127.887C74.2913 129.211 73.5947 131.878 74.7556 131.878C75.9331 131.878 75.3858 126.854 75.5848 124.325C75.7672 121.951 78.0226 119.989 79.6644 118.372C82.6993 115.396 85.5185 112.884 84.9713 106.363C85.2863 108.135 85.6014 109.941 86.3311 111.765C87.6744 115.206 89.4489 116.187 91.7209 118.372C101.539 127.852 102.019 134.304 103.744 141.462C103.744 141.462 104.374 131.362 107.094 130.467C107.94 130.192 109.615 131.569 109.615 131.569C113.446 110.114 100.145 99.1709 87.9232 97.7601C74.6727 96.2288 66.1652 102.646 70.2448 124.05H70.2282Z" fill="#D4D8E2"/>
    </g>
    <mask id="mask3_5047_9488" style="mask-type:luminance" maskUnits="userSpaceOnUse" x="52" y="51" width="96" height="58">
        <path d="M83.928 75.5713L61.0129 80.7285L52.7848 67.5268L75.6999 62.3697L83.928 75.5713ZM84.2451 76.1221L61.33 81.2792L69.5414 94.4809L92.4565 89.3237L84.2284 76.1221H84.2451ZM69.8585 95.0317L78.0699 108.233L100.985 103.076L92.7736 89.8745L69.8585 95.0317ZM107.444 70.2973L99.2159 57.0957L76.3008 62.2528L84.5289 75.4545L107.444 70.2973ZM84.846 76.0053L93.0741 89.2069L115.989 84.0498L107.761 70.8481L84.846 76.0053ZM93.3912 89.7577L101.619 102.959L124.534 97.8022L116.306 84.6005L93.3912 89.7577ZM130.877 65.0734L122.665 51.8717L99.75 57.0289L107.978 70.2306L130.893 65.0734H130.877ZM116.49 83.983L139.405 78.8258L131.194 65.6242L108.278 70.7813L116.507 83.983H116.49ZM139.739 79.3599L116.824 84.5171L125.035 97.7187L147.95 92.5616L139.739 79.3599Z" fill="white"/>
    </mask>
    <g mask="url(#mask3_5047_9488)">
        <path d="M153.008 93.8133L80.0897 111.304L49.0132 68.0943L121.931 50.6033L153.008 93.8133Z" fill="#EDEEF3"/>
        <path d="M111.847 69.3303C111.263 68.5125 111.396 67.3776 110.044 66.7768C108.893 66.2594 107.157 66.6933 105.855 67.1273C98.4114 69.5807 103.085 68.2288 96.175 69.2135C91.8523 69.831 73.1263 73.1857 74.0943 75.589C74.3113 76.1565 75.0123 76.5904 75.6298 77.0577C85.5931 90.6244 83.7819 103.303 91.8566 100.573C94.9442 103.41 109.948 99.371 115.222 97.6853C117.242 97.0344 119.128 96.0831 121.181 95.5156C123.133 94.9649 125.236 94.9148 127.106 94.1471C136.752 90.2083 123.93 81.2665 111.847 69.347V69.3303Z" fill="#D4D8E2"/>
        <path d="M115.524 74.2862C116.341 74.2194 117.226 74.4364 117.777 75.0372L117.76 75.0205C120.113 77.5741 118.695 80.4781 117.56 81.9468C117.521 82.6445 117.422 83.3352 117.262 84.0109C117.882 84.8154 118.59 85.7162 119.294 86.6126L119.297 86.6167C119.848 87.318 120.396 88.0164 120.899 88.6637C122.229 88.4364 123.569 88.2275 124.919 88.0386C125.67 88.9065 126.454 89.8745 127.339 91.0928C129.375 93.9301 123.7 98.0024 114.638 100.172C105.592 102.342 96.5794 101.791 94.5433 98.9538C93.8423 97.9691 93.3082 97.1346 92.8409 96.3668C94.0133 95.9259 95.2043 95.4929 96.4128 95.0695C95.7378 94.1325 95.0493 93.1819 94.3884 92.2694L94.383 92.2619C94.2614 92.094 94.1408 91.9275 94.0214 91.7625C92.0199 91.1213 90.0707 90.3039 88.2523 89.3571C85.9658 88.9732 80.4081 87.4878 78.7391 84.3835C78.3386 83.6325 78.906 83.0817 79.7739 82.8314C79.7499 82.8014 79.7217 82.7693 79.6922 82.7358C79.6396 82.676 79.583 82.6118 79.5402 82.5476C75.1341 76.4225 79.5736 69.5296 89.454 67.1596C99.3344 64.7897 110.917 67.8439 115.323 73.9691C115.357 74.0191 115.39 74.0734 115.423 74.1276C115.457 74.1819 115.49 74.2361 115.524 74.2862Z" fill="#EDEEF3"/>
        <path d="M147.384 86.0024L132.246 87.2208C116.124 88.5226 101.12 92.9454 88.5356 98.0692L75.0168 104.261L80.0906 111.304L153.008 93.8133L147.384 86.0024Z" fill="#D4D8E2"/>
        <path d="M111.283 64.7563C109.114 63.2709 106.627 61.9357 103.623 60.9677C94.7772 58.1471 85.0804 61.0344 79.0387 63.5379C76.4184 64.6228 72.1124 65.9413 70.9441 70.2305C70.2431 72.8175 71.1944 75.4378 73.1305 77.7744C75.3001 80.428 78.0206 83.0483 78.7883 83.4322C79.1722 83.1485 79.3725 82.9649 80.0401 82.9649C81.225 82.9649 82.1764 83.6325 83.0108 84.0998C84.0456 84.6673 84.8801 86.2862 85.8982 85.9357C86.9163 85.5685 83.7285 83.1151 82.5268 81.7298C81.3919 80.428 82.2932 78.6923 82.8606 77.3237C83.595 75.5379 85.5644 72.0664 92.6909 71.6158C96.9635 69.7632 103.573 70.7479 106.276 71.7159C108.346 72.4503 111.117 73.3182 111.918 74.6867C112.769 76.1554 113.52 79.193 114.705 79.0428C115.873 78.8926 114.471 77.3905 114.505 76.5727C114.521 75.9051 114.371 75.0372 115.206 74.5532C115.673 74.2862 116.04 74.3362 116.658 74.3696C116.758 73.5351 115.406 67.5936 111.3 64.773L111.283 64.7563Z" fill="#D4D8E2"/>
    </g>
    <mask id="mask4_5047_9488" style="mask-type:luminance" maskUnits="userSpaceOnUse" x="52" y="67" width="26" height="60">
        <path d="M61.0989 81.4582L69.2537 94.5479V112.783L61.0989 99.6928V81.4582ZM60.6964 80.8107L52.3141 67.336V85.5881L60.6964 99.0453V80.8107ZM69.6737 95.2129V113.447L77.6711 126.31V108.075L69.6737 95.2304V95.2129Z" fill="white"/>
    </mask>
    <g mask="url(#mask4_5047_9488)">
        <path d="M78.0736 182.571L52.2091 141.027V66.0935L78.0736 107.638V182.571Z" fill="#B9BED0"/>
        <path d="M70.7244 131.332C71.5819 129.145 72.2819 130.16 71.9494 118.137C71.7744 112.083 72.2644 108.985 70.4269 102.318C69.6919 99.6579 68.2394 98.8529 68.2394 98.8529C67.312 94.828 65.9995 92.728 64.757 90.593C57.1797 77.6083 57.5472 89.6131 57.7922 101.635C57.8272 103.718 57.9322 105.73 58.0722 108.005C58.2996 108.04 59.5421 114.638 60.0146 115.268C60.1896 115.548 58.9121 102.755 59.3671 101.163C60.9071 95.8079 65.0545 107.603 67.7145 107.883C67.3995 110.84 70.0244 114.673 70.4794 118.907C70.9519 123.3 70.1994 132.68 70.7244 131.315V131.332Z" fill="#D4D8E2"/>
    </g>
    <mask id="mask5_5047_9488" style="mask-type:luminance" maskUnits="userSpaceOnUse" x="77" y="92" width="71" height="35">
        <path d="M101.037 121.171L77.8879 126.39L77.9216 108.022L101.003 102.82L101.037 121.171ZM101.559 121.053L124.354 115.918L124.32 97.5673L101.525 102.702L101.559 121.053ZM124.859 97.4495L124.893 115.8L147.284 110.766L147.318 92.3988L124.859 97.4495Z" fill="white"/>
    </mask>
    <g mask="url(#mask5_5047_9488)">
        <path d="M147.738 165.33L77.2642 180.97V107.584L147.738 91.961V165.33Z" fill="#D4D8E2"/>
        <path d="M136.896 113.191C138.95 109.1 137.183 104.302 132.957 102.483C128.731 100.665 123.647 102.5 121.61 106.608C119.556 110.699 121.324 115.497 125.549 117.315C129.775 119.134 134.859 117.299 136.896 113.191Z" fill="#D4D8E2"/>
        <path d="M86.8273 124.302C84.7734 121.12 86.5411 115.531 90.7668 111.844C94.9925 108.14 100.077 107.736 102.114 110.918C104.168 114.1 102.4 119.689 98.1745 123.376C93.9487 127.08 88.8644 127.484 86.8273 124.302Z" fill="#D4D8E2"/>
        <path d="M93.2079 137.619C93.7635 137.215 94.8241 137.383 95.3628 137.518C96.3393 137.737 96.5413 139.033 96.8275 139.959C97.1811 141.104 96.4908 144 97.6356 143.562C98.7805 143.124 98.2586 138.41 98.4437 135.868C98.6121 133.478 100.818 130.7 102.434 128.494C105.397 124.437 108.175 120.918 107.636 114.723C107.939 116.339 108.259 117.972 108.966 119.504C110.279 122.366 112.03 122.635 114.235 123.932C123.849 129.504 124.32 135.632 126.004 141.979C126.004 141.979 126.626 131.861 129.286 129.959C130.111 129.37 131.744 130.077 131.744 130.077C135.499 107.618 122.468 101.961 110.498 105.211C97.5346 108.729 89.201 118.225 93.1911 137.636L93.2079 137.619Z" fill="#D4D8E2"/>
        <path d="M131.812 130.986C131.711 129.892 131.071 129.386 130.33 129.353C130.33 129.168 130.347 128.966 130.347 128.78C130.347 117.82 122.182 110.733 112.114 112.972C102.046 115.211 93.8812 125.902 93.8812 136.878C93.8812 137.047 93.8981 137.232 93.8981 137.4C93.0058 137.653 92.1472 138.478 92.0293 139.825C91.5411 145.279 95.4469 148.714 97.1978 149.757C100.498 156.054 105.935 160.229 112.114 158.865C118.461 157.451 124.034 150.515 127.3 142.501C129.219 140.245 132.249 135.649 131.812 131.003V130.986Z" fill="#EDEEF3"/>
    </g>
</svg>
