<svg viewBox="0 0 259 259" xmlns="http://www.w3.org/2000/svg">
<g filter="url(#filter0_f_5174_14281)">
<circle cx="129.433" cy="116" r="75" fill="#F1FBFF"/>
</g>
<path d="M109.997 44.0232C109.421 45.6942 107.961 47.1155 106.751 47.2115C105.541 47.3075 105.023 46.0207 105.618 44.3498C106.214 42.6788 107.654 41.2575 108.864 41.1615C110.074 41.0654 110.593 42.3523 109.997 44.0232Z" fill="#6B89F6"/>
<path d="M203.783 70.7779C202.208 75.2914 198.251 79.1519 194.967 79.3824C191.683 79.6129 190.3 76.1557 191.875 71.6422C193.45 67.1287 197.406 63.2682 200.69 63.0377C203.975 62.8072 205.358 66.2644 203.783 70.7779Z" fill="#FFC000"/>
<path d="M59.8877 76.6935C56.8723 78.4413 54.4331 82.6667 54.4331 86.1431C54.4331 89.6194 56.8915 91.0215 59.9262 89.2737C62.9416 87.5259 65.3808 83.3005 65.3808 79.8241C65.3808 76.3478 62.9224 74.9457 59.8877 76.6935Z" fill="#E0E7EB"/>
<g filter="url(#filter1_f_5174_14281)">
<path d="M143.651 122.49L127.612 131.753L111.69 122.49L57.6982 153.65L111.339 184.844H143.317L143.651 122.49Z" fill="#ADC8D8"/>
</g>
<mask id="mask0_5174_14281" style="mask-type:luminance" maskUnits="userSpaceOnUse" x="130" y="133" width="56" height="52">
<path d="M150.294 153.927L168.387 143.47V163.009L150.276 173.466V153.927H150.294ZM149.747 154.245L130.685 165.249V184.787L149.73 173.783V154.245H149.747ZM168.951 143.153V162.692L185.756 152.975V133.437L168.951 143.135V143.153Z" fill="white"/>
</mask>
<g mask="url(#mask0_5174_14281)">
<path d="M186.48 153.592L129.681 186.339V109.489L186.48 76.7429V153.592Z" fill="#F0F2F5"/>
<path d="M144.929 163.749C144.929 169.232 150.733 170.091 157.9 165.678C165.066 161.266 170.871 153.261 170.871 147.798C170.871 145.448 170.8 143.576 170.71 141.933C162.11 145.315 153.278 151.523 145.018 158.782C144.964 160.272 144.911 161.877 144.911 163.768L144.929 163.749Z" fill="#E0E7EB"/>
<path d="M148.125 148.937C148.125 152.411 148.125 156.661 148.125 160.452C148.125 168.529 167.858 157.56 167.858 149.378C167.858 145.851 167.858 135.853 167.84 131.955L148.125 148.937Z" fill="#F3F7FA"/>
<path d="M173.659 121.322C173.571 120.194 173.06 119.823 172.46 119.947C172.46 119.753 172.478 119.541 172.478 119.347C172.478 107.867 165.9 102.348 157.789 107.021C149.677 111.694 143.1 124.796 143.1 136.293C143.1 136.47 143.1 136.664 143.117 136.84C142.394 137.316 141.706 138.374 141.601 139.803C141.195 145.64 144.352 148.32 145.762 149.008C148.425 154.845 152.798 157.948 157.771 155.091C162.885 152.146 167.382 143.576 170.009 134.424C171.543 131.62 173.994 126.101 173.642 121.34L173.659 121.322Z" fill="#F3F7FA"/>
<path d="M142.535 137.246C142.976 136.699 143.84 136.628 144.281 136.628C145.057 136.628 145.233 137.933 145.462 138.85C145.744 139.979 145.198 143.153 146.115 142.43C147.049 141.707 146.609 136.893 146.767 134.177C146.908 131.638 148.689 128.217 149.977 125.537C152.357 120.599 154.597 116.261 154.174 109.913C154.42 111.535 154.667 113.175 155.249 114.603C156.307 117.284 157.718 117.178 159.499 118.007C167.24 121.604 167.628 127.917 168.986 134.177C168.986 134.177 169.48 123.421 171.631 120.828C172.301 120.017 173.606 120.387 173.606 120.387C176.622 95.9995 166.129 93.0898 156.484 99.2794C146.044 105.98 139.326 117.848 142.535 137.263V137.246Z" fill="#F0F2F5"/>
</g>
<mask id="mask1_5174_14281" style="mask-type:luminance" maskUnits="userSpaceOnUse" x="77" y="134" width="54" height="51">
<path d="M94.2827 163.339L77.6858 153.686V134.757L94.2827 144.393V163.322V163.339ZM94.8313 163.648L112.423 173.866V154.938L94.8142 144.719V163.648H94.8313ZM112.971 155.246V174.175L130.871 184.565V165.636L112.971 155.229V155.246Z" fill="white"/>
</mask>
<g mask="url(#mask1_5174_14281)">
<path d="M131.008 185.234L77.5999 153.943V80.526L131.008 111.817V185.234Z" fill="url(#paint0_linear_5174_14281)"/>
<path d="M131.009 171.946L120.996 162.602C110.348 152.64 98.9809 147.171 88.8136 144.273L77.5833 141.958V153.943L131.009 185.234V171.946Z" fill="url(#paint1_linear_5174_14281)"/>
<path d="M92.1401 149.691C92.1401 154.595 97.5924 161.744 104.331 165.688C111.052 169.631 116.521 168.86 116.521 163.956C116.521 161.847 116.453 160.116 116.367 158.538C107.383 151.217 99.1355 147.119 92.243 145.353C92.1916 146.622 92.1401 148.011 92.1401 149.691Z" fill="#E0E7EB"/>
<path d="M95.0552 132.185C95.0552 132.185 95.0895 142.01 95.0895 149.691C95.0895 157.372 113.572 169.751 113.572 161.967C113.572 154.183 113.538 140.518 113.538 140.518L95.0552 132.185Z" fill="#F3F7FA"/>
<path d="M119.179 138.255C119.093 137.089 118.613 136.163 118.047 135.632C118.047 135.443 118.064 135.255 118.064 135.083C118.064 124.144 111.892 111.679 104.296 107.222C96.6838 102.764 90.5286 108.027 90.5286 118.949C90.5286 119.121 90.5286 119.309 90.5457 119.481C89.8599 119.138 89.2255 119.395 89.1398 120.647C88.7626 125.756 91.7288 131.774 93.049 133.969C95.5351 142.439 99.65 150.205 104.314 152.949C109.097 155.761 113.315 152.537 115.784 146.708C117.224 145.73 119.522 143.159 119.196 138.238L119.179 138.255Z" fill="#F3F7FA"/>
<path d="M115.818 137.706C117.584 135.255 119.058 135.992 118.338 124.333C117.978 118.469 119.007 115.246 115.2 109.382C113.674 107.033 110.674 106.793 110.674 106.793C108.754 103.175 106.045 101.598 103.49 99.969C87.819 90.0246 88.6077 101.649 89.1049 113.343C89.1906 115.366 89.4135 117.303 89.6878 119.481C90.1508 119.446 92.7397 125.447 93.6827 125.893C94.0428 126.116 91.4024 114.046 92.3454 112.314C95.5345 106.501 104.09 116.549 109.594 115.846C108.942 118.863 114.36 121.658 115.303 125.636C116.281 129.768 114.72 139.232 115.8 137.706H115.818Z" fill="#F0F2F5"/>
</g>
<path d="M157.393 140.298L83.7908 129.266L103.234 86.0731L176.837 97.105L157.393 140.298Z" fill="#F3F7FA"/>
<mask id="mask2_5174_14281" style="mask-type:luminance" maskUnits="userSpaceOnUse" x="83" y="129" width="75" height="31">
<path d="M109.315 133.064L133.007 136.609V156.051L109.315 152.507V133.064ZM133.541 136.695V156.137L157.249 159.681V140.239L133.541 136.678V136.695ZM83.5935 129.211V148.67L108.765 152.438V132.996L83.5935 129.228V129.211Z" fill="white"/>
</mask>
<g mask="url(#mask2_5174_14281)">
<path d="M157.748 186.883L83.0251 174.994V100.013L157.748 111.902V186.883Z" fill="url(#paint2_linear_5174_14281)"/>
<path d="M139.098 145.487C138.998 144.317 138.335 143.56 137.572 143.233C137.572 143.044 137.605 142.854 137.605 142.665C137.605 131.464 129.264 121.003 118.982 119.3C108.7 117.597 100.358 125.305 100.358 136.523C100.358 136.695 100.375 136.884 100.375 137.073C99.4625 136.987 98.5836 137.486 98.4675 138.811C97.9534 144.196 101.967 149.237 103.741 150.992C107.108 158.735 112.68 165.152 118.982 166.202C125.466 167.269 131.154 162.382 134.504 155.483C136.461 153.934 139.562 150.442 139.114 145.521L139.098 145.487Z" fill="#F3F7FA"/>
<path d="M99.6614 137.022C100.225 136.832 101.32 137.435 101.867 137.779C102.862 138.381 103.061 139.792 103.36 140.858C103.724 142.183 103.028 144.85 104.189 144.85C105.366 144.85 104.819 139.826 105.018 137.297C105.2 134.923 107.456 132.961 109.098 131.344C112.132 128.367 114.952 125.855 114.404 119.335C114.72 121.107 115.035 122.913 115.764 124.737C117.108 128.178 118.882 129.159 121.154 131.344C130.972 140.824 131.453 147.276 133.177 154.433C133.177 154.433 133.808 144.334 136.527 143.439C137.373 143.164 139.048 144.54 139.048 144.54C142.879 123.085 129.579 112.143 117.356 110.732C104.106 109.201 95.5984 115.618 99.678 137.022H99.6614Z" fill="url(#paint3_linear_5174_14281)"/>
</g>
<mask id="mask3_5174_14281" style="mask-type:luminance" maskUnits="userSpaceOnUse" x="82" y="64" width="96" height="58">
<path d="M113.361 88.5431L90.4461 93.7003L82.218 80.4986L105.133 75.3415L113.361 88.5431ZM113.678 89.0939L90.7632 94.2511L98.9746 107.453L121.89 102.296L113.662 89.0939H113.678ZM99.2917 108.003L107.503 121.205L130.418 116.048L122.207 102.846L99.2917 108.003ZM136.877 83.2691L128.649 70.0675L105.734 75.2246L113.962 88.4263L136.877 83.2691ZM114.279 88.9771L122.507 102.179L145.422 97.0216L137.194 83.8199L114.279 88.9771ZM122.824 102.729L131.052 115.931L153.968 110.774L145.74 97.5723L122.824 102.729ZM160.31 78.0452L152.098 64.8436L129.183 70.0007L137.411 83.2024L160.326 78.0452H160.31ZM145.923 96.9548L168.838 91.7976L160.627 78.596L137.712 83.7531L145.94 96.9548H145.923ZM169.172 92.3317L146.257 97.4889L154.468 110.691L177.383 105.533L169.172 92.3317Z" fill="white"/>
</mask>
<g mask="url(#mask3_5174_14281)">
<path d="M182.441 106.785L109.523 124.276L78.4465 81.0661L151.364 63.5751L182.441 106.785Z" fill="#F3F7FA"/>
<path d="M141.28 82.3021C140.696 81.4843 140.829 80.3494 139.478 79.7486C138.326 79.2312 136.59 79.6651 135.288 80.0991C127.845 82.5525 132.518 81.2006 125.608 82.1853C121.286 82.8028 102.56 86.1575 103.528 88.5608C103.745 89.1283 104.446 89.5622 105.063 90.0295C115.026 103.596 113.215 116.275 121.29 113.544C124.378 116.382 139.382 112.343 144.656 110.657C146.675 110.006 148.561 109.055 150.614 108.487C152.567 107.937 154.67 107.887 156.539 107.119C166.186 103.18 153.364 94.2383 141.28 82.3188V82.3021Z" fill="url(#paint4_linear_5174_14281)"/>
<path d="M144.957 87.258C145.775 87.1913 146.659 87.4082 147.21 88.0091L147.193 87.9924C149.547 90.5459 148.128 93.4499 146.993 94.9186C146.955 95.6163 146.855 96.307 146.695 96.9827C147.316 97.7873 148.023 98.6881 148.727 99.5844L148.73 99.5885C149.281 100.29 149.83 100.988 150.333 101.636C151.663 101.408 153.003 101.199 154.352 101.01C155.103 101.878 155.888 102.846 156.772 104.065C158.808 106.902 153.134 110.974 144.071 113.144C135.025 115.314 126.013 114.763 123.977 111.926C123.276 110.941 122.742 110.106 122.274 109.339C123.447 108.898 124.638 108.465 125.846 108.041C125.171 107.104 124.483 106.154 123.822 105.241L123.816 105.234C123.695 105.066 123.574 104.899 123.455 104.734C121.453 104.093 119.504 103.276 117.686 102.329C115.399 101.945 109.841 100.46 108.172 97.3554C107.772 96.6043 108.339 96.0536 109.207 95.8032C109.183 95.7733 109.155 95.7412 109.126 95.7077C109.073 95.6479 109.016 95.5837 108.974 95.5195C104.567 89.3943 109.007 82.5014 118.887 80.1315C128.768 77.7615 140.35 80.8157 144.757 86.9409C144.79 86.991 144.823 87.0452 144.857 87.0995C144.89 87.1537 144.924 87.2079 144.957 87.258Z" fill="#F3F7FA"/>
<path d="M176.817 98.9742L161.68 100.193C145.557 101.494 130.553 105.917 117.969 111.041L104.45 117.233L109.524 124.276L182.442 106.785L176.817 98.9742Z" fill="#E0E7EB"/>
<path d="M140.717 77.7281C138.547 76.2427 136.06 74.9075 133.056 73.9395C124.211 71.1189 114.514 74.0063 108.472 76.5097C105.852 77.5946 101.546 78.9131 100.378 83.2024C99.6766 85.7893 100.628 88.4096 102.564 90.7462C104.734 93.3999 107.454 96.0202 108.222 96.404C108.606 96.1203 108.806 95.9367 109.474 95.9367C110.659 95.9367 111.61 96.6043 112.444 97.0716C113.479 97.6391 114.314 99.258 115.332 98.9075C116.35 98.5403 113.162 96.0869 111.96 94.7017C110.825 93.3999 111.727 91.6641 112.294 90.2955C113.028 88.5097 114.998 85.0382 122.124 84.5876C126.397 82.735 133.006 83.7197 135.71 84.6878C137.779 85.4221 140.55 86.29 141.351 87.6585C142.202 89.1273 142.953 92.1648 144.138 92.0146C145.307 91.8644 143.905 90.3623 143.938 89.5445C143.955 88.8769 143.805 88.009 144.639 87.525C145.106 87.258 145.474 87.3081 146.091 87.3414C146.191 86.5069 144.839 80.5654 140.734 77.7448L140.717 77.7281Z" fill="url(#paint5_linear_5174_14281)"/>
</g>
<mask id="mask4_5174_14281" style="mask-type:luminance" maskUnits="userSpaceOnUse" x="81" y="80" width="27" height="60">
<path d="M90.5321 94.4299L98.687 107.52V125.754L90.5321 112.665V94.4299ZM90.1296 93.7825L81.7473 80.3077V98.5599L90.1296 112.017V93.7825ZM99.1069 108.185V126.419L107.104 139.281V121.047L99.1069 108.202V108.185Z" fill="white"/>
</mask>
<g mask="url(#mask4_5174_14281)">
<path d="M107.507 195.543L81.6423 153.999V79.0652L107.507 120.609V195.543Z" fill="#ADC8D8"/>
<path d="M100.157 144.304C101.015 142.117 101.715 143.131 101.382 131.109C101.207 125.054 101.697 121.957 99.86 115.29C99.125 112.63 97.6725 111.825 97.6725 111.825C96.7451 107.8 95.4326 105.7 94.1901 103.565C86.6128 90.5801 86.9803 102.585 87.2253 114.607C87.2603 116.69 87.3653 118.702 87.5053 120.977C87.7328 121.012 88.9752 127.609 89.4477 128.239C89.6227 128.519 88.3452 115.727 88.8002 114.135C90.3402 108.78 94.4876 120.574 97.1476 120.854C96.8326 123.812 99.4575 127.644 99.9125 131.879C100.385 136.272 99.6325 145.651 100.157 144.286V144.304Z" fill="url(#paint6_linear_5174_14281)"/>
</g>
<mask id="mask5_5174_14281" style="mask-type:luminance" maskUnits="userSpaceOnUse" x="107" y="105" width="70" height="35">
<path d="M130.47 134.143L107.321 139.362L107.355 120.994L130.436 115.792L130.47 134.143ZM130.992 134.025L153.787 128.89L153.753 110.539L130.958 115.674L130.992 134.025ZM154.292 110.421L154.326 128.772L176.717 123.738L176.751 105.371L154.292 110.421Z" fill="white"/>
</mask>
<g mask="url(#mask5_5174_14281)">
<path d="M177.171 178.302L106.697 193.942V120.556L177.171 104.933V178.302Z" fill="#F0F2F5"/>
<path d="M166.33 126.163C168.384 122.071 166.616 117.273 162.39 115.455C158.164 113.637 153.08 115.472 151.043 119.58C148.989 123.671 150.757 128.469 154.983 130.287C159.208 132.105 164.293 130.27 166.33 126.163Z" fill="url(#paint7_linear_5174_14281)"/>
<path d="M116.261 137.274C114.207 134.092 115.974 128.503 120.2 124.816C124.426 121.112 129.51 120.708 131.547 123.89C133.601 127.072 131.833 132.661 127.608 136.348C123.382 140.052 118.298 140.456 116.261 137.274Z" fill="url(#paint8_linear_5174_14281)"/>
<path d="M122.641 150.591C123.197 150.187 124.257 150.355 124.796 150.49C125.772 150.709 125.974 152.005 126.261 152.931C126.614 154.076 125.924 156.972 127.069 156.534C128.214 156.096 127.692 151.382 127.877 148.84C128.045 146.449 130.251 143.672 131.867 141.466C134.83 137.409 137.608 133.89 137.069 127.695C137.372 129.311 137.692 130.944 138.399 132.476C139.712 135.338 141.463 135.607 143.669 136.904C153.282 142.476 153.753 148.604 155.437 154.951C155.437 154.951 156.06 144.833 158.72 142.931C159.545 142.341 161.178 143.049 161.178 143.049C164.932 120.59 151.901 114.933 139.931 118.182C126.968 121.701 118.634 131.196 122.624 150.608L122.641 150.591Z" fill="url(#paint9_linear_5174_14281)"/>
<path d="M161.245 143.958C161.144 142.863 160.504 142.358 159.763 142.325C159.763 142.139 159.78 141.937 159.78 141.752C159.78 130.792 151.615 123.705 141.547 125.944C131.48 128.183 123.314 138.873 123.314 149.85C123.314 150.018 123.331 150.204 123.331 150.372C122.439 150.625 121.58 151.45 121.463 152.796C120.974 158.251 124.88 161.686 126.631 162.729C129.931 169.026 135.369 173.201 141.547 171.837C147.894 170.423 153.467 163.487 156.733 155.473C158.652 153.217 161.683 148.621 161.245 143.975V143.958Z" fill="#F3F7FA"/>
</g>
<defs>
<filter id="filter0_f_5174_14281" x="-45.5669" y="-59" width="350" height="350" filterUnits="userSpaceOnUse" color-interpolation-filters="sRGB">
<feFlood flood-opacity="0" result="BackgroundImageFix"/>
<feBlend mode="normal" in="SourceGraphic" in2="BackgroundImageFix" result="shape"/>
<feGaussianBlur stdDeviation="50" result="effect1_foregroundBlur_5174_14281"/>
</filter>
<filter id="filter1_f_5174_14281" x="7.69824" y="72.4904" width="185.953" height="162.353" filterUnits="userSpaceOnUse" color-interpolation-filters="sRGB">
<feFlood flood-opacity="0" result="BackgroundImageFix"/>
<feBlend mode="normal" in="SourceGraphic" in2="BackgroundImageFix" result="shape"/>
<feGaussianBlur stdDeviation="25" result="effect1_foregroundBlur_5174_14281"/>
</filter>
<linearGradient id="paint0_linear_5174_14281" x1="129.024" y1="183.974" x2="128.812" y2="82.1453" gradientUnits="userSpaceOnUse">
<stop stop-color="#ADC8D8"/>
<stop offset="1" stop-color="#DFEAF1"/>
</linearGradient>
<linearGradient id="paint1_linear_5174_14281" x1="129.024" y1="184.713" x2="128.988" y2="142.628" gradientUnits="userSpaceOnUse">
<stop stop-color="#ADC8D8"/>
<stop offset="1" stop-color="#DFEAF1"/>
</linearGradient>
<linearGradient id="paint2_linear_5174_14281" x1="154.972" y1="185.838" x2="154.868" y2="101.356" gradientUnits="userSpaceOnUse">
<stop stop-color="#ADC8D8"/>
<stop offset="1" stop-color="#DFEAF1"/>
</linearGradient>
<linearGradient id="paint3_linear_5174_14281" x1="138.193" y1="153.905" x2="138.145" y2="111.196" gradientUnits="userSpaceOnUse">
<stop stop-color="#ADC8D8"/>
<stop offset="1" stop-color="#DFEAF1"/>
</linearGradient>
<linearGradient id="paint4_linear_5174_14281" x1="157.828" y1="114.106" x2="157.806" y2="80.0543" gradientUnits="userSpaceOnUse">
<stop stop-color="#ADC8D8"/>
<stop offset="1" stop-color="#DFEAF1"/>
</linearGradient>
<linearGradient id="paint5_linear_5174_14281" x1="144.39" y1="98.6418" x2="144.374" y2="73.1818" gradientUnits="userSpaceOnUse">
<stop stop-color="#ADC8D8"/>
<stop offset="1" stop-color="#DFEAF1"/>
</linearGradient>
<linearGradient id="paint6_linear_5174_14281" x1="100.934" y1="143.862" x2="100.779" y2="98.6681" gradientUnits="userSpaceOnUse">
<stop stop-color="#ADC8D8"/>
<stop offset="1" stop-color="#DFEAF1"/>
</linearGradient>
<linearGradient id="paint7_linear_5174_14281" x1="166.555" y1="130.794" x2="166.539" y2="115.005" gradientUnits="userSpaceOnUse">
<stop stop-color="#ADC8D8"/>
<stop offset="1" stop-color="#DFEAF1"/>
</linearGradient>
<linearGradient id="paint8_linear_5174_14281" x1="131.772" y1="139.205" x2="131.753" y2="122.02" gradientUnits="userSpaceOnUse">
<stop stop-color="#ADC8D8"/>
<stop offset="1" stop-color="#DFEAF1"/>
</linearGradient>
<linearGradient id="paint9_linear_5174_14281" x1="160.341" y1="156.107" x2="160.302" y2="117.943" gradientUnits="userSpaceOnUse">
<stop stop-color="#ADC8D8"/>
<stop offset="1" stop-color="#DFEAF1"/>
</linearGradient>
</defs>
</svg>
