<svg viewBox="0 0 259 259" xmlns="http://www.w3.org/2000/svg">
<g filter="url(#filter0_f_5076_11263)">
<circle cx="129.75" cy="117.445" r="75" fill="#F1FBFF"/>
</g>
<path d="M105.814 42.4215C105.238 44.0925 103.778 45.5137 102.568 45.6098C101.358 45.7058 100.84 44.419 101.435 42.748C102.03 41.077 103.471 39.6558 104.681 39.5597C105.891 39.4637 106.409 40.7505 105.814 42.4215Z" fill="#6B89F6"/>
<path d="M199.599 69.1761C198.024 73.6897 194.068 77.5502 190.783 77.7806C187.499 78.0111 186.116 74.554 187.691 70.0404C189.266 65.5269 193.223 61.6664 196.507 61.4359C199.791 61.2055 201.174 64.6626 199.599 69.1761Z" fill="#FFC000"/>
<path d="M59.7044 65.3068C56.689 67.0546 54.2498 71.28 54.2498 74.7564C54.2498 78.2328 56.7082 79.6349 59.7428 77.8871C62.7582 76.1393 65.1974 71.9138 65.1974 68.4375C65.1974 64.9611 62.739 63.559 59.7044 65.3068Z" fill="#ADC8D8"/>
<path d="M105.703 168.397L108.563 89.9396C109.004 77.8443 169.527 78.7413 169.039 92.1441L162.715 175.822L105.703 168.397Z" fill="url(#paint0_linear_5076_11263)"/>
<path d="M108.226 114.706L92.7429 121.03L108.772 144.582L108.226 114.706Z" fill="#ADC8D8"/>
<path d="M104.839 168.148L107.699 89.6899C108.14 77.5946 168.663 78.4916 168.175 91.8944L161.851 175.572L104.839 168.148Z" fill="url(#paint1_linear_5076_11263)"/>
<path d="M103.118 158.302V79.7925C103.118 67.6892 163.634 66.3808 163.634 79.7925L160.363 163.645L103.118 158.302Z" fill="url(#paint2_linear_5076_11263)"/>
<path d="M102.245 158.084V79.5744C102.245 67.4711 162.762 66.1627 162.762 79.5744L159.49 163.427L102.245 158.084Z" fill="url(#paint3_linear_5076_11263)"/>
<path d="M105.299 154.249V97.623C105.299 88.8933 151.531 87.9496 151.531 97.623L149.032 158.103L105.299 154.249Z" fill="url(#paint4_linear_5076_11263)"/>
<path d="M113.585 149.572V139.504C113.585 130.11 125.366 125.899 131.32 133.165L150.222 156.231L113.585 149.572Z" fill="#ADC8D8"/>
<path d="M134.7 100.551L121.678 101.788C119.413 102.003 117.694 103.923 117.729 106.198L118.43 151.127H139.474V104.893C139.474 102.321 137.26 100.307 134.7 100.551Z" fill="url(#paint5_linear_5076_11263)"/>
<path d="M131.865 100.551L118.843 101.788C116.578 102.003 114.859 103.923 114.894 106.198L115.595 151.127H136.639V104.893C136.639 102.321 134.425 100.307 131.865 100.551Z" fill="url(#paint6_linear_5076_11263)"/>
<path d="M131.865 100.551L118.843 101.788C114.76 102.176 116.825 107.631 120.118 110.075L125.034 113.724L136.639 151.127V104.893C136.639 102.321 134.425 100.307 131.865 100.551Z" fill="url(#paint7_linear_5076_11263)"/>
<path d="M113.585 150.688L112.931 114.924C118.443 116.506 119.91 121.684 126.343 132.479C134.848 146.109 146.024 153.9 150.222 157.34L113.585 150.688Z" fill="url(#paint8_linear_5076_11263)"/>
<path d="M112.713 150.688L112.059 114.924C117.571 116.506 119.037 121.684 125.471 132.479C133.976 146.109 145.151 153.9 149.35 157.34L112.713 150.688Z" fill="url(#paint9_linear_5076_11263)"/>
<path d="M111.405 165.736L110.75 129.971C116.262 131.553 117.729 136.731 124.162 147.526C132.667 161.156 143.843 168.947 148.042 172.387L111.405 165.736Z" fill="url(#paint10_linear_5076_11263)"/>
<path d="M110.532 165.736L109.878 129.971C115.39 131.553 116.857 136.731 123.29 147.526C131.795 161.156 142.971 168.947 147.169 172.387L110.532 165.736Z" fill="url(#paint11_linear_5076_11263)"/>
<path d="M114.24 100.775L108.352 100.339C113.751 87.2882 135.502 89.1082 140.082 94.4511C133.648 90.0896 116.638 90.5257 114.24 100.775Z" fill="url(#paint12_linear_5076_11263)"/>
<ellipse cx="106.716" cy="122.338" rx="8.17787" ry="10.4677" fill="url(#paint13_linear_5076_11263)"/>
<ellipse cx="103.772" cy="122.338" rx="5.23384" ry="10.4677" fill="url(#paint14_linear_5076_11263)"/>
<ellipse cx="104.426" cy="122.556" rx="5.66999" ry="10.4677" fill="#ADC8D8"/>
<ellipse cx="103.99" cy="122.338" rx="5.66999" ry="10.4677" fill="url(#paint15_linear_5076_11263)"/>
<path d="M110.751 100.552L107.479 100.006C106.114 104.192 105.695 106.674 105.299 111.237L108.788 111.455C109.257 107.123 109.721 104.744 110.751 100.552Z" fill="url(#paint16_linear_5076_11263)"/>
<path d="M107.479 100.006L102.354 98.698C100.82 104.018 100.252 107.055 99.6284 112.546L105.407 111.237C105.826 106.64 106.329 104.208 107.479 100.006Z" fill="#F3F7FA"/>
<path d="M99.6284 112.562L100.634 113.833C103.385 111.73 105.148 111.576 108.564 112.562L108.788 111.405C105.023 110.988 103.01 111.216 99.6284 112.562Z" fill="#ADC8D8"/>
<path d="M100.61 98.2619C111.95 74.6005 139.209 75.3638 150.222 95.645L143.244 99.0252C141.39 89.8659 115.766 85.8315 108.352 100.225L100.61 98.2619Z" fill="url(#paint17_linear_5076_11263)"/>
<ellipse cx="148.125" cy="124.542" rx="8.82356" ry="9.81345" transform="rotate(9.57868 148.125 124.542)" fill="url(#paint18_linear_5076_11263)"/>
<ellipse cx="144.795" cy="125.362" rx="5.88807" ry="9.81345" transform="rotate(9.57868 144.795 125.362)" fill="url(#paint19_linear_5076_11263)"/>
<path d="M148.041 114.388C147.131 109.393 144.345 99.3914 143.898 99.2319L149.568 96.0698C153.886 108.343 155.266 114.538 155.129 123.875L147.714 128.672C148.397 123.516 148.518 117.005 148.041 114.388Z" fill="#F3F7FA"/>
<path d="M147.605 114.488C146.695 109.493 143.909 99.4907 143.462 99.3313L149.132 96.1692C153.45 108.443 154.83 114.638 154.693 123.974L147.278 128.772C147.961 123.615 148.082 117.105 147.605 114.488Z" fill="url(#paint20_linear_5076_11263)"/>
<path fill-rule="evenodd" clip-rule="evenodd" d="M149.577 96.0949C153.859 108.268 155.247 114.46 155.132 123.684L157.793 121.934C157.767 112.807 156.279 106.778 151.748 94.8607L149.577 96.0949Z" fill="url(#paint21_linear_5076_11263)"/>
<path d="M92.6501 175.352L120.564 149.401L95.2475 123.576C94.2568 122.566 94.6002 120.874 95.9064 120.33L102.338 117.65V116.996L92.6501 121.051V175.352Z" fill="url(#paint22_linear_5076_11263)"/>
<path d="M164.535 116.704L131.157 142.082L165.306 177.557C166.764 179.072 169.32 178.038 169.32 175.934V114.599L164.535 116.704Z" fill="url(#paint23_linear_5076_11263)"/>
<path d="M163.445 116.268L130.066 141.646L164.216 177.121C165.674 178.636 168.23 177.602 168.23 175.497V114.163L163.445 116.268Z" fill="url(#paint24_linear_5076_11263)"/>
<path d="M160.61 118.34L127.231 145.571L161.381 181.047C162.839 182.561 165.395 181.527 165.395 179.423L165.395 116.234L160.61 118.34Z" fill="url(#paint25_linear_5076_11263)"/>
<path d="M159.52 119.757L126.141 145.135L160.29 180.61C161.748 182.125 164.305 181.091 164.305 178.987V116.889L159.52 119.757Z" fill="url(#paint26_linear_5076_11263)"/>
<path d="M157.108 121.577L123.306 150.493L157.455 185.847C158.913 187.356 161.47 186.326 161.47 184.229L161.47 118.851L157.108 121.577Z" fill="url(#paint27_linear_5076_11263)"/>
<path d="M155.594 124.766L122.216 150.057L156.365 185.411C157.823 186.92 160.379 185.889 160.379 183.792L160.379 119.506L155.594 124.766Z" fill="url(#paint28_linear_5076_11263)"/>
<path d="M163.432 116.234L119.163 149.838L153.312 185.193C154.77 186.702 157.326 185.671 157.326 183.574V122.45L164.304 116.998L169.32 114.817V113.618L163.432 116.234Z" fill="url(#paint29_linear_5076_11263)"/>
<path d="M124.806 147.867L116.211 146.598C115.529 146.497 114.841 146.724 114.353 147.21L91.472 170.008C89.7673 171.706 90.6061 174.617 92.9532 175.148L158.39 189.954C160.04 190.327 161.202 188.368 160.083 187.098L126.124 148.582C125.783 148.195 125.316 147.942 124.806 147.867Z" fill="url(#paint30_linear_5076_11263)"/>
<path d="M124.145 147.63L115.533 146.374C114.865 146.277 114.19 146.495 113.704 146.963L90.3139 169.54C88.5642 171.229 89.3951 174.186 91.7684 174.717L157.135 189.326C158.781 189.694 159.939 187.744 158.829 186.474L125.472 148.352C125.13 147.961 124.659 147.705 124.145 147.63Z" fill="url(#paint31_linear_5076_11263)"/>
<path d="M149.778 95.9511C140.485 80.3075 127.76 76.8694 111.187 85.1386C126.492 75.9365 142.016 78.352 153.057 94.8009L149.778 95.9511Z" fill="url(#paint32_linear_5076_11263)"/>
<path d="M149.232 96.1692C139.94 80.5255 127.215 77.0875 110.641 85.3566C125.947 76.1545 139.29 79.1751 150.331 95.624L149.232 96.1692Z" fill="#F3F7FA"/>
<path d="M149.677 95.733L143.244 99.0042L143.898 99.2223L149.786 96.0601L153.057 94.8607L149.677 95.733Z" fill="#ADC8D8"/>
<path d="M108.352 100.422L100.61 98.2409L108.57 99.8765L114.24 100.749L108.352 100.422Z" fill="#ADC8D8"/>
<defs>
<filter id="filter0_f_5076_11263" x="-45.2502" y="-57.5547" width="350" height="350" filterUnits="userSpaceOnUse" color-interpolation-filters="sRGB">
<feFlood flood-opacity="0" result="BackgroundImageFix"/>
<feBlend mode="normal" in="SourceGraphic" in2="BackgroundImageFix" result="shape"/>
<feGaussianBlur stdDeviation="50" result="effect1_foregroundBlur_5076_11263"/>
</filter>
<linearGradient id="paint0_linear_5076_11263" x1="163.779" y1="174.736" x2="166.94" y2="83.9324" gradientUnits="userSpaceOnUse">
<stop stop-color="#ADC8D8"/>
<stop offset="1" stop-color="#DFEAF1"/>
</linearGradient>
<linearGradient id="paint1_linear_5076_11263" x1="138.528" y1="81.2329" x2="130.69" y2="173.612" gradientUnits="userSpaceOnUse">
<stop stop-color="#F6F9FA"/>
<stop offset="1" stop-color="#E3EDF2"/>
</linearGradient>
<linearGradient id="paint2_linear_5076_11263" x1="161.386" y1="162.521" x2="161.237" y2="71.6628" gradientUnits="userSpaceOnUse">
<stop stop-color="#ADC8D8"/>
<stop offset="1" stop-color="#DFEAF1"/>
</linearGradient>
<linearGradient id="paint3_linear_5076_11263" x1="132.746" y1="70" x2="128.278" y2="162.604" gradientUnits="userSpaceOnUse">
<stop stop-color="#F6F9FA"/>
<stop offset="1" stop-color="#E3EDF2"/>
</linearGradient>
<linearGradient id="paint4_linear_5076_11263" x1="151.325" y1="124.346" x2="105.737" y2="124.346" gradientUnits="userSpaceOnUse">
<stop stop-color="#ADC8D8"/>
<stop offset="1" stop-color="#DFEAF1"/>
</linearGradient>
<linearGradient id="paint5_linear_5076_11263" x1="138.666" y1="150.518" x2="138.545" y2="101.313" gradientUnits="userSpaceOnUse">
<stop stop-color="#ADC8D8"/>
<stop offset="1" stop-color="#DFEAF1"/>
</linearGradient>
<linearGradient id="paint6_linear_5076_11263" x1="126.288" y1="151.127" x2="150.518" y2="132.187" gradientUnits="userSpaceOnUse">
<stop stop-color="#E3EDF2"/>
<stop offset="1" stop-color="#DBE6EC"/>
</linearGradient>
<linearGradient id="paint7_linear_5076_11263" x1="125.853" y1="100.531" x2="122.218" y2="150.534" gradientUnits="userSpaceOnUse">
<stop stop-color="#F6F9FA"/>
<stop offset="1" stop-color="#E3EDF2"/>
</linearGradient>
<linearGradient id="paint8_linear_5076_11263" x1="148.837" y1="156.829" x2="148.787" y2="115.579" gradientUnits="userSpaceOnUse">
<stop stop-color="#ADC8D8"/>
<stop offset="1" stop-color="#DFEAF1"/>
</linearGradient>
<linearGradient id="paint9_linear_5076_11263" x1="130.854" y1="114.924" x2="129.358" y2="157.01" gradientUnits="userSpaceOnUse">
<stop stop-color="#F6F9FA"/>
<stop offset="1" stop-color="#E3EDF2"/>
</linearGradient>
<linearGradient id="paint10_linear_5076_11263" x1="146.656" y1="171.877" x2="146.607" y2="130.627" gradientUnits="userSpaceOnUse">
<stop stop-color="#ADC8D8"/>
<stop offset="1" stop-color="#DFEAF1"/>
</linearGradient>
<linearGradient id="paint11_linear_5076_11263" x1="128.673" y1="129.971" x2="127.177" y2="172.058" gradientUnits="userSpaceOnUse">
<stop stop-color="#F6F9FA"/>
<stop offset="1" stop-color="#E3EDF2"/>
</linearGradient>
<linearGradient id="paint12_linear_5076_11263" x1="124.297" y1="90.4914" x2="124.28" y2="100.675" gradientUnits="userSpaceOnUse">
<stop stop-color="#ADC8D8"/>
<stop offset="1" stop-color="#DFEAF1"/>
</linearGradient>
<linearGradient id="paint13_linear_5076_11263" x1="114.286" y1="132.554" x2="114.259" y2="112.194" gradientUnits="userSpaceOnUse">
<stop stop-color="#ADC8D8"/>
<stop offset="1" stop-color="#DFEAF1"/>
</linearGradient>
<linearGradient id="paint14_linear_5076_11263" x1="108.617" y1="132.554" x2="108.574" y2="112.194" gradientUnits="userSpaceOnUse">
<stop stop-color="#ADC8D8"/>
<stop offset="1" stop-color="#DFEAF1"/>
</linearGradient>
<linearGradient id="paint15_linear_5076_11263" x1="104.035" y1="111.871" x2="102.84" y2="132.601" gradientUnits="userSpaceOnUse">
<stop stop-color="#F6F9FA"/>
<stop offset="1" stop-color="#E3EDF2"/>
</linearGradient>
<linearGradient id="paint16_linear_5076_11263" x1="108.038" y1="100.095" x2="107.92" y2="111.344" gradientUnits="userSpaceOnUse">
<stop stop-color="#ADC8D8"/>
<stop offset="1" stop-color="#DFEAF1"/>
</linearGradient>
<linearGradient id="paint17_linear_5076_11263" x1="126.607" y1="100.225" x2="130.681" y2="81.6178" gradientUnits="userSpaceOnUse">
<stop stop-color="#E3EDF2"/>
<stop offset="1" stop-color="#DBE6EC"/>
</linearGradient>
<linearGradient id="paint18_linear_5076_11263" x1="148.549" y1="134.356" x2="157.17" y2="120.257" gradientUnits="userSpaceOnUse">
<stop stop-color="#E3EDF2"/>
<stop offset="1" stop-color="#DBE6EC"/>
</linearGradient>
<linearGradient id="paint19_linear_5076_11263" x1="144.842" y1="115.549" x2="143.829" y2="134.995" gradientUnits="userSpaceOnUse">
<stop stop-color="#F6F9FA"/>
<stop offset="1" stop-color="#E3EDF2"/>
</linearGradient>
<linearGradient id="paint20_linear_5076_11263" x1="149.352" y1="128.772" x2="163.834" y2="119.69" gradientUnits="userSpaceOnUse">
<stop stop-color="#E3EDF2"/>
<stop offset="1" stop-color="#DBE6EC"/>
</linearGradient>
<linearGradient id="paint21_linear_5076_11263" x1="157.488" y1="123.337" x2="157.383" y2="95.3067" gradientUnits="userSpaceOnUse">
<stop stop-color="#ADC8D8"/>
<stop offset="1" stop-color="#DFEAF1"/>
</linearGradient>
<linearGradient id="paint22_linear_5076_11263" x1="106.719" y1="116.996" x2="102.947" y2="174.726" gradientUnits="userSpaceOnUse">
<stop stop-color="#F6F9FA"/>
<stop offset="1" stop-color="#E3EDF2"/>
</linearGradient>
<linearGradient id="paint23_linear_5076_11263" x1="150.391" y1="114.599" x2="147.102" y2="177.691" gradientUnits="userSpaceOnUse">
<stop stop-color="#F6F9FA"/>
<stop offset="1" stop-color="#E3EDF2"/>
</linearGradient>
<linearGradient id="paint24_linear_5076_11263" x1="166.812" y1="177.075" x2="166.703" y2="115.147" gradientUnits="userSpaceOnUse">
<stop stop-color="#ADC8D8"/>
<stop offset="1" stop-color="#DFEAF1"/>
</linearGradient>
<linearGradient id="paint25_linear_5076_11263" x1="146.466" y1="116.234" x2="142.983" y2="181.153" gradientUnits="userSpaceOnUse">
<stop stop-color="#F6F9FA"/>
<stop offset="1" stop-color="#E3EDF2"/>
</linearGradient>
<linearGradient id="paint26_linear_5076_11263" x1="162.887" y1="180.555" x2="162.775" y2="117.885" gradientUnits="userSpaceOnUse">
<stop stop-color="#ADC8D8"/>
<stop offset="1" stop-color="#DFEAF1"/>
</linearGradient>
<linearGradient id="paint27_linear_5076_11263" x1="142.541" y1="118.851" x2="138.822" y2="185.918" gradientUnits="userSpaceOnUse">
<stop stop-color="#F6F9FA"/>
<stop offset="1" stop-color="#E3EDF2"/>
</linearGradient>
<linearGradient id="paint28_linear_5076_11263" x1="158.961" y1="185.327" x2="158.841" y2="120.536" gradientUnits="userSpaceOnUse">
<stop stop-color="#ADC8D8"/>
<stop offset="1" stop-color="#DFEAF1"/>
</linearGradient>
<linearGradient id="paint29_linear_5076_11263" x1="144.442" y1="113.618" x2="141.214" y2="185.294" gradientUnits="userSpaceOnUse">
<stop stop-color="#F6F9FA"/>
<stop offset="1" stop-color="#E3EDF2"/>
</linearGradient>
<linearGradient id="paint30_linear_5076_11263" x1="160.215" y1="168.246" x2="91.2348" y2="168.246" gradientUnits="userSpaceOnUse">
<stop stop-color="#ADC8D8"/>
<stop offset="1" stop-color="#DFEAF1"/>
</linearGradient>
<linearGradient id="paint31_linear_5076_11263" x1="124.603" y1="146.352" x2="123.781" y2="189.076" gradientUnits="userSpaceOnUse">
<stop stop-color="#F6F9FA"/>
<stop offset="1" stop-color="#E3EDF2"/>
</linearGradient>
<linearGradient id="paint32_linear_5076_11263" x1="132.289" y1="79.8135" x2="132.096" y2="95.8438" gradientUnits="userSpaceOnUse">
<stop stop-color="#F6F9FA"/>
<stop offset="1" stop-color="#E3EDF2"/>
</linearGradient>
</defs>
</svg>
