<svg viewBox="0 0 200 200" xmlns="http://www.w3.org/2000/svg">
<path d="M78.5642 27.6442C77.9881 29.3151 76.5284 30.7364 75.3183 30.8324C74.1083 30.9285 73.5898 29.6416 74.1852 27.9707C74.7806 26.2997 76.2211 24.8784 77.4311 24.7824C78.6411 24.6864 79.1596 25.9732 78.5642 27.6442Z" fill="#1A2EB2"/>
<path d="M172.349 54.3988C170.775 58.9123 166.818 62.7728 163.534 63.0033C160.249 63.2338 158.867 59.7766 160.441 55.2631C162.016 50.7496 165.973 46.8891 169.257 46.6586C172.542 46.4281 173.924 49.8853 172.349 54.3988Z" fill="#FAB404"/>
<path d="M32.4546 50.5295C29.4392 52.2773 27 56.5027 27 59.9791C27 63.4554 29.4584 64.8575 32.493 63.1097C35.5085 61.3619 37.9477 57.1365 37.9477 53.6601C37.9477 50.1838 35.4893 48.7817 32.4546 50.5295Z" fill="#B9BED0"/>
<path d="M78.453 153.62L81.313 75.1622C81.7539 63.0669 142.278 63.9639 141.789 77.3667L135.466 161.045L78.453 153.62Z" fill="#D4D8E2"/>
<path d="M80.9767 99.9284L65.4933 106.253L81.5219 129.805L80.9767 99.9284Z" fill="#B9BED0"/>
<path d="M77.5892 153.37L80.4492 74.9125C80.8901 62.8172 141.414 63.7142 140.925 77.117L134.602 160.795L77.5892 153.37Z" fill="#EDEEF3"/>
<path d="M75.8682 143.525V65.0152C75.8682 52.9118 136.384 51.6034 136.384 65.0152L133.113 148.868L75.8682 143.525Z" fill="#D4D8E2"/>
<path d="M74.9958 143.307V64.7971C74.9958 52.6937 135.512 51.3854 135.512 64.7971L132.241 148.65L74.9958 143.307Z" fill="#EDEEF3"/>
<path d="M78.0488 139.472V82.8456C78.0488 74.1159 124.281 73.1722 124.281 82.8456L121.782 143.326L78.0488 139.472Z" fill="#D4D8E2"/>
<path d="M86.3358 134.795V124.726C86.3358 115.333 98.116 111.122 104.07 118.388L122.973 141.453L86.3358 134.795Z" fill="#B9BED0"/>
<path d="M107.451 85.7733L94.4283 87.0104C92.1634 87.2256 90.4443 89.1455 90.4798 91.4204L91.1802 136.35H112.225V90.1153C112.225 87.5435 110.011 85.5301 107.451 85.7733Z" fill="#D4D8E2"/>
<path d="M104.616 85.7733L91.5933 87.0104C89.3284 87.2256 87.6094 89.1456 87.6448 91.4204L88.3453 136.35H109.39V90.1153C109.39 87.5435 107.176 85.5301 104.616 85.7733Z" fill="#EDEEF3"/>
<path d="M104.616 85.7733L91.5933 87.0104V87.0104C87.5104 87.3983 89.5757 92.8537 92.869 95.2981L97.7849 98.947L109.39 136.35V90.1153C109.39 87.5435 107.176 85.5301 104.616 85.7733Z" fill="#F3F4F7"/>
<path d="M86.3357 135.911L85.6815 100.146C91.1934 101.729 92.66 106.907 99.0932 117.702C107.598 131.331 118.774 139.123 122.973 142.562L86.3357 135.911Z" fill="#D4D8E2"/>
<path d="M85.4634 135.911L84.8092 100.146C90.3211 101.729 91.7877 106.907 98.2209 117.702C106.726 131.331 117.902 139.123 122.1 142.562L85.4634 135.911Z" fill="#EDEEF3"/>
<path d="M84.155 150.958L83.5007 115.194C89.0126 116.776 90.4792 121.954 96.9124 132.749C105.417 146.379 116.593 154.17 120.792 157.61L84.155 150.958Z" fill="#D4D8E2"/>
<path d="M83.2826 150.958L82.6284 115.194C88.1403 116.776 89.6069 121.954 96.0401 132.749C104.545 146.379 115.721 154.17 119.92 157.61L83.2826 150.958Z" fill="#EDEEF3"/>
<path d="M86.99 85.998L81.1019 85.5619C86.5018 72.5109 108.252 74.3309 112.832 79.6738C106.399 75.3123 89.3888 75.7484 86.99 85.998Z" fill="#D4D8E2"/>
<ellipse cx="79.4663" cy="107.561" rx="8.17787" ry="10.4677" fill="#D4D8E2"/>
<ellipse cx="76.5223" cy="107.561" rx="5.23384" ry="10.4677" fill="#D4D8E2"/>
<ellipse cx="77.1766" cy="107.779" rx="5.66999" ry="10.4677" fill="#B9BED0"/>
<ellipse cx="76.7404" cy="107.561" rx="5.66999" ry="10.4677" fill="#EDEEF3"/>
<path d="M83.5007 85.7743L80.2296 85.2292C78.864 89.4149 78.4453 91.8967 78.0488 96.4601L81.5381 96.6782C82.0072 92.3453 82.4711 89.9666 83.5007 85.7743Z" fill="#D4D8E2"/>
<path d="M80.2297 85.2291L75.1049 83.9207C73.5705 89.2412 73.0022 92.2781 72.3789 97.7686L78.1579 96.4601C78.5765 91.863 79.0793 89.4306 80.2297 85.2291Z" fill="#EDEEF3"/>
<path d="M72.3789 97.7843L73.3842 99.0561C76.1357 96.9531 77.8988 96.7982 81.3147 97.7843L81.5381 96.6282C77.773 96.2105 75.761 96.4385 72.3789 97.7843Z" fill="#B9BED0"/>
<path d="M73.3602 83.4846C84.7002 59.8233 111.96 60.5865 122.973 80.8677L115.994 84.2479C114.141 75.0886 88.5166 71.0542 81.1019 85.4473L73.3602 83.4846Z" fill="#F3F4F7"/>
<ellipse cx="120.876" cy="109.765" rx="8.82356" ry="9.81345" transform="rotate(9.57868 120.876 109.765)" fill="#EDEEF3"/>
<ellipse cx="117.545" cy="110.585" rx="5.88807" ry="9.81345" transform="rotate(9.57868 117.545 110.585)" fill="#EDEEF3"/>
<path d="M120.792 99.6109C119.882 94.6161 117.096 84.614 116.648 84.4546L122.318 81.2925C126.637 93.5661 128.016 99.7611 127.879 109.097L120.465 113.895C121.147 108.739 121.269 102.228 120.792 99.6109Z" fill="#EDEEF3"/>
<path d="M120.356 99.7103C119.446 94.7154 116.659 84.7134 116.212 84.554L121.882 81.3918C126.2 93.6655 127.58 99.8605 127.443 109.197L120.029 113.994C120.711 108.838 120.833 102.327 120.356 99.7103Z" fill="#EDEEF3"/>
<path fill-rule="evenodd" clip-rule="evenodd" d="M122.327 81.3175C126.609 93.4908 127.997 99.6825 127.882 108.906L130.543 107.156C130.517 98.0301 129.03 92.0007 124.498 80.0834L122.327 81.3175Z" fill="#D4D8E2"/>
<path d="M65.4004 160.575L93.3142 134.624L67.9977 108.799C67.0071 107.788 67.3505 106.097 68.6567 105.552L75.0886 102.872V102.218L65.4004 106.274V160.575Z" fill="#EDEEF3"/>
<path d="M137.286 101.927L103.907 127.304L138.056 162.78C139.514 164.295 142.071 163.26 142.071 161.156V99.8215L137.286 101.927Z" fill="#EDEEF3"/>
<path d="M136.195 101.49L102.817 126.868L136.966 162.344C138.424 163.858 140.98 162.824 140.98 160.72V99.3854L136.195 101.49Z" fill="#B9BED0"/>
<path d="M133.36 103.562L99.9818 130.794L134.131 166.269C135.589 167.784 138.145 166.75 138.145 164.645L138.145 101.457L133.36 103.562Z" fill="#EDEEF3"/>
<path d="M132.27 104.98L98.8914 130.358L133.041 165.833C134.498 167.348 137.055 166.314 137.055 164.209V102.111L132.27 104.98Z" fill="#B9BED0"/>
<path d="M129.858 106.8L96.0564 135.715L130.206 171.069C131.664 172.579 134.22 171.548 134.22 169.451L134.22 104.074L129.858 106.8Z" fill="#EDEEF3"/>
<path d="M128.344 109.988L94.9661 135.279L129.115 170.633C130.573 172.143 133.129 171.112 133.129 169.015L133.129 104.728L128.344 109.988Z" fill="#B9BED0"/>
<path d="M136.183 101.457L91.913 135.061L126.062 170.415C127.52 171.924 130.076 170.894 130.076 168.797V107.672L137.055 102.22L142.071 100.04V98.8402L136.183 101.457Z" fill="#EDEEF3"/>
<path d="M97.5567 133.09L88.961 131.821C88.2798 131.72 87.5911 131.947 87.1033 132.433L64.2224 155.23C62.5177 156.929 63.3565 159.84 65.7035 160.371L131.14 175.176C132.791 175.55 133.953 173.59 132.834 172.321L98.874 133.805C98.5332 133.418 98.0665 133.165 97.5567 133.09Z" fill="#D4D8E2"/>
<path d="M96.8955 132.853L88.2834 131.597C87.6154 131.5 86.9399 131.717 86.4542 132.186L63.0643 154.763C61.3146 156.452 62.1454 159.409 64.5187 159.939L129.885 174.549C131.532 174.916 132.69 172.966 131.579 171.697L98.222 133.575C97.8799 133.184 97.4095 132.928 96.8955 132.853Z" fill="#F0F1F5"/>
<path d="M122.528 81.1738C113.235 65.5301 100.511 62.0921 83.9369 70.3613C99.2421 61.1591 114.766 63.5746 125.808 80.0235L122.528 81.1738Z" fill="#EDEEF3"/>
<path d="M121.983 81.3918C112.69 65.7481 99.9655 62.3101 83.3917 70.5793C98.6969 61.3771 112.04 64.3978 123.082 80.8466L121.983 81.3918Z" fill="#EDEEF3"/>
<path d="M122.427 80.9557L115.994 84.2269L116.648 84.4449L122.536 81.2828L125.808 80.0834L122.427 80.9557Z" fill="#B9BED0"/>
<path d="M81.102 85.6444L73.3602 83.4636L81.32 85.0992L86.99 85.9715L81.102 85.6444Z" fill="#B9BED0"/>
</svg>
