<!-- Generated by IcoMoon.io -->
<svg version="1.1" xmlns="http://www.w3.org/2000/svg" width="24" height="24" viewBox="0 0 32 32">
<title>eye_md</title>
<path d="M11.234 11.94c-1.538 1.228-2.896 2.925-3.854 4.763-0.007 0.013-0.014 0.026-0.022 0.039 0.007 0.013 0.015 0.026 0.022 0.039 0.958 1.838 2.316 3.535 3.854 4.763 1.544 1.232 3.202 1.94 4.776 1.94s3.232-0.707 4.776-1.94c1.538-1.228 2.896-2.925 3.854-4.763 0.007-0.013 0.014-0.026 0.022-0.039-0.007-0.013-0.015-0.026-0.022-0.039-0.958-1.838-2.316-3.535-3.854-4.763-1.544-1.232-3.202-1.94-4.776-1.94s-3.232 0.707-4.776 1.94zM9.987 10.377c1.771-1.413 3.856-2.377 6.024-2.377s4.253 0.963 6.024 2.377c1.767 1.41 3.289 3.32 4.362 5.368 0.176 0.288 0.291 0.625 0.291 0.998s-0.116 0.709-0.291 0.998c-1.073 2.048-2.595 3.957-4.362 5.368-1.771 1.413-3.856 2.377-6.024 2.377s-4.253-0.963-6.024-2.377c-1.767-1.41-3.289-3.32-4.362-5.368-0.176-0.288-0.292-0.625-0.292-0.998s0.116-0.71 0.292-0.998c1.073-2.048 2.595-3.957 4.362-5.368z"></path>
<path d="M11.589 16.687c0-2.482 1.942-4.565 4.422-4.565s4.422 2.083 4.422 4.565c0 2.482-1.942 4.565-4.422 4.565s-4.422-2.083-4.422-4.565zM16.010 14.122c-1.299 0-2.422 1.109-2.422 2.565s1.122 2.565 2.422 2.565c1.299 0 2.422-1.109 2.422-2.565s-1.122-2.565-2.422-2.565z"></path>
</svg>
