<svg viewBox="0 0 259 259" xmlns="http://www.w3.org/2000/svg">
<g filter="url(#filter0_f_5078_11661)">
<circle cx="129.567" cy="116" r="75" fill="#F1FBFF"/>
</g>
<path d="M178.193 56.8668C177.617 58.5378 176.157 59.959 174.947 60.0551C173.737 60.1511 173.219 58.8643 173.814 57.1933C174.409 55.5224 175.85 54.1011 177.06 54.005C178.27 53.909 178.789 55.1958 178.193 56.8668Z" fill="#6B89F6"/>
<path d="M108.125 53.7511C106.55 58.2646 102.594 62.1251 99.3094 62.3556C96.025 62.5861 94.6422 59.1289 96.2171 54.6154C97.792 50.1019 101.749 46.2414 105.033 46.0109C108.317 45.7804 109.7 49.2376 108.125 53.7511Z" fill="#FFC000"/>
<path d="M60.0213 107.752C57.0059 109.5 54.5667 113.725 54.5667 117.202C54.5667 120.678 57.0251 122.08 60.0597 120.332C63.0751 118.585 65.5143 114.359 65.5143 110.883C65.5143 107.406 63.0559 106.004 60.0213 107.752Z" fill="#ADC8D8"/>
<path d="M86.8178 183.343L105.919 189.622L163.224 102.651C127.902 61.8874 75.3999 105.319 77.1073 125.595L82.4476 177.911C82.7043 180.425 84.4165 182.554 86.8178 183.343Z" fill="url(#paint0_linear_5078_11661)"/>
<path d="M99.1826 181.556L95.2427 120.899C92.6019 82.1078 142.516 62.8479 164.605 101.798C170.922 106.924 177.049 112.62 181.183 120.114C182.559 122.607 183.067 125.461 183.067 128.308V165.838C183.067 169.825 180.307 173.281 176.419 174.163L109.591 189.328C104.469 190.49 99.523 186.797 99.1826 181.556Z" fill="#F3F7FA"/>
<path d="M147.751 144.909L121.606 178.204L175.816 167.532L155.434 144.909H147.751Z" fill="url(#paint1_linear_5078_11661)"/>
<path d="M147.751 144.909L154.901 145.656L174.749 167.746L175.816 167.532L155.434 144.909H147.751Z" fill="#ADC8D8"/>
<path d="M130.25 155.901L103.892 128.903L107.348 179.974C107.481 181.944 109.989 182.692 111.18 181.117L130.25 155.901Z" fill="url(#paint2_linear_5078_11661)"/>
<path d="M103.892 128.903L130.25 155.901L111.18 181.117C110.445 182.089 109.209 182.176 108.339 181.638C108.438 181.547 109.141 181.413 109.228 181.298L128.863 156.008L103.999 129.97L103.892 128.903Z" fill="#ADC8D8"/>
<path d="M180.085 163.258V131.144L167.386 151.312L178.207 163.952C178.851 164.705 180.085 164.249 180.085 163.258Z" fill="url(#paint3_linear_5078_11661)"/>
<path d="M178.859 133.115V163.365C178.859 163.764 178.658 164.076 178.377 164.258C179.047 164.709 180.033 164.251 180.033 163.365V131.25L178.859 133.115Z" fill="#ADC8D8"/>
<path d="M118.298 96.5689L120.753 135.305L133.782 149.438C134.226 149.918 134.993 149.891 135.401 149.38L144.336 138.187H156.288L163.868 146.714C164.344 147.25 165.202 147.174 165.576 146.562L178.04 126.184C178.898 124.781 178.874 123.009 177.977 121.63L176.67 119.619V102.545L118.298 96.5689Z" fill="url(#paint4_linear_5078_11661)"/>
<path d="M134.198 149.674C134.625 149.86 135.147 149.752 135.459 149.361L144.394 138.168H143.541L134.606 149.361C134.493 149.503 134.352 149.607 134.198 149.674Z" fill="#ADC8D8"/>
<path d="M164.297 146.966C164.765 147.17 165.345 147.017 165.635 146.544L178.098 126.165C178.956 124.762 178.932 122.99 178.036 121.611L176.67 119.512V120.152V120.793L177.182 121.611C178.078 122.99 178.103 124.762 177.245 126.165L164.781 146.544C164.66 146.741 164.489 146.882 164.297 146.966Z" fill="#ADC8D8"/>
<path d="M120.112 134.772L120.753 135.305L118.302 96.7306L117.765 96.6756L120.112 134.772Z" fill="#ADC8D8"/>
<path d="M110.929 103.385L118.191 103.932L120.112 134.772L104.353 119.21C103.577 118.445 103.124 117.411 103.086 116.322L102.903 111.095C102.747 106.647 106.491 103.051 110.929 103.385Z" fill="#ADC8D8"/>
<path d="M160.023 100.837C146.871 88.0972 138.749 84.0466 121.393 88.6723C131.3 88.9489 136.584 91.5367 145.617 99.6636L160.023 100.837Z" fill="url(#paint5_linear_5078_11661)"/>
<defs>
<filter id="filter0_f_5078_11661" x="-45.4333" y="-59" width="350" height="350" filterUnits="userSpaceOnUse" color-interpolation-filters="sRGB">
<feFlood flood-opacity="0" result="BackgroundImageFix"/>
<feBlend mode="normal" in="SourceGraphic" in2="BackgroundImageFix" result="shape"/>
<feGaussianBlur stdDeviation="50" result="effect1_foregroundBlur_5078_11661"/>
</filter>
<linearGradient id="paint0_linear_5078_11661" x1="162.841" y1="137.611" x2="77.8836" y2="137.611" gradientUnits="userSpaceOnUse">
<stop stop-color="#ADC8D8"/>
<stop offset="1" stop-color="#DFEAF1"/>
</linearGradient>
<linearGradient id="paint1_linear_5078_11661" x1="148.928" y1="144.909" x2="148.293" y2="177.975" gradientUnits="userSpaceOnUse">
<stop stop-color="#F6F9FA"/>
<stop offset="1" stop-color="#E3EDF2"/>
</linearGradient>
<linearGradient id="paint2_linear_5078_11661" x1="117.176" y1="128.903" x2="113.873" y2="181.414" gradientUnits="userSpaceOnUse">
<stop stop-color="#F6F9FA"/>
<stop offset="1" stop-color="#E3EDF2"/>
</linearGradient>
<linearGradient id="paint3_linear_5078_11661" x1="173.786" y1="131.144" x2="171.112" y2="163.893" gradientUnits="userSpaceOnUse">
<stop stop-color="#F6F9FA"/>
<stop offset="1" stop-color="#E3EDF2"/>
</linearGradient>
<linearGradient id="paint4_linear_5078_11661" x1="148.724" y1="96.5689" x2="147.269" y2="149.395" gradientUnits="userSpaceOnUse">
<stop stop-color="#F6F9FA"/>
<stop offset="1" stop-color="#E3EDF2"/>
</linearGradient>
<linearGradient id="paint5_linear_5078_11661" x1="140.805" y1="86.9316" x2="140.78" y2="100.702" gradientUnits="userSpaceOnUse">
<stop stop-color="#ADC8D8"/>
<stop offset="1" stop-color="#DFEAF1"/>
</linearGradient>
</defs>
</svg>
