<svg viewBox="0 0 24 24" xmlns="http://www.w3.org/2000/svg">
<g clip-path="url(#clip0_4350_8193)">
<path d="M2 12C2 6.47715 6.47715 2 12 2C12.5523 2 13 1.55228 13 1C13 0.447715 12.5523 0 12 0C5.37258 0 0 5.37258 0 12C0 16.2136 2.17252 19.9193 5.45383 22.0587C5.91646 22.3604 6.53603 22.2299 6.83767 21.7672C7.13932 21.3046 7.00881 20.685 6.54617 20.3834C3.80706 18.5975 2 15.5095 2 12Z" />
<path d="M16.3001 17.6132C15.9056 17.2267 15.8992 16.5936 16.2858 16.1991C17.3472 15.1159 18 13.6352 18 12C18 8.68629 15.3137 6 12 6C11.4477 6 11 5.55229 11 5C11 4.44772 11.4477 4 12 4C16.4183 4 20 7.58172 20 12C20 14.1794 19.1272 16.157 17.7142 17.5989C17.3277 17.9934 16.6946 17.9998 16.3001 17.6132Z" />
<path d="M7.6999 6.38677C8.09436 6.77332 8.10079 7.40645 7.71424 7.80091C6.65279 8.88411 6 10.3648 6 12C6 15.3137 8.68629 18 12 18C12.5523 18 13 18.4477 13 19C13 19.5523 12.5523 20 12 20C7.58172 20 4 16.4183 4 12C4 9.82056 4.87283 7.84299 6.28576 6.40111C6.6723 6.00665 7.30544 6.00023 7.6999 6.38677Z" />
<path d="M17.1623 2.23275C16.8607 2.69538 16.9912 3.31495 17.4538 3.6166C20.1929 5.40254 22 8.49051 22 12C22 17.5228 17.5228 22 12 22C11.4477 22 11 22.4477 11 23C11 23.5523 11.4477 24 12 24C18.6274 24 24 18.6274 24 12C24 7.78637 21.8275 4.08071 18.5462 1.94125C18.0835 1.63961 17.464 1.77012 17.1623 2.23275Z" />
<path d="M14.9806 12.8682C15.6524 12.4843 15.6524 11.5156 14.9806 11.1317L10.9961 8.85491C10.3295 8.47397 9.5 8.95533 9.5 9.72316V14.2768C9.5 15.0446 10.3295 15.526 10.9961 15.145L14.9806 12.8682Z" />
</g>
<defs>
<clipPath id="clip0_4350_8193">
<rect width="24" height="24" fill="white"/>
</clipPath>
</defs>
</svg>
