<svg viewBox="0 0 24 24" xmlns="http://www.w3.org/2000/svg">
<path d="M12.3999 3C7.42934 3 3.3999 7.02944 3.3999 12C3.3999 14.2342 4.21269 16.276 5.55996 17.8497C5.91913 18.2692 5.8702 18.9005 5.45066 19.2596C5.03112 19.6188 4.39985 19.5699 4.04067 19.1503C2.39491 17.228 1.3999 14.7289 1.3999 12C1.3999 5.92487 6.32477 1 12.3999 1C18.475 1 23.3999 5.92487 23.3999 12C23.3999 13.5626 23.0735 15.0516 22.4842 16.4004C22.2631 16.9065 21.6735 17.1375 21.1674 16.9164C20.6614 16.6952 20.4303 16.1057 20.6515 15.5996C21.1325 14.4986 21.3999 13.2818 21.3999 12C21.3999 7.02944 17.3705 3 12.3999 3Z"/>
<path d="M12.3999 7C9.63848 7 7.3999 9.23858 7.3999 12C7.3999 12.3716 7.44026 12.7325 7.51645 13.0792C7.63501 13.6186 7.29385 14.152 6.75444 14.2706C6.21503 14.3891 5.68164 14.048 5.56308 13.5085C5.45609 13.0218 5.3999 12.5169 5.3999 12C5.3999 8.13401 8.53391 5 12.3999 5C16.2659 5 19.3999 8.13401 19.3999 12C19.3999 12.284 19.3829 12.5644 19.3499 12.8402C19.2842 13.3886 18.7864 13.7799 18.238 13.7142C17.6897 13.6485 17.2984 13.1507 17.3641 12.6023C17.3877 12.4052 17.3999 12.2043 17.3999 12C17.3999 9.23858 15.1613 7 12.3999 7Z"/>
<path fill-rule="evenodd" clip-rule="evenodd" d="M15.3997 14V12C15.3997 10.3431 14.0566 9 12.3997 9C10.7429 9 9.39972 10.3431 9.39972 12V14.4505C9.06881 14.4951 8.73895 14.5943 8.42224 14.7527C6.97359 15.477 6.32199 17.1908 6.92351 18.6946L8.03988 21.4856C8.64733 23.0042 10.1182 24 11.7538 24H15.5595C17.6398 24 19.3729 22.4053 19.5456 20.3322L19.7123 18.3322C19.9066 16.0001 18.0663 14 15.7261 14H15.3997ZM9.3922 16.5041C9.95773 16.2761 10.6112 16.5475 10.8419 17.1243C10.9586 17.416 11.3922 17.3325 11.3922 17.0183V12C11.3922 11.4477 11.8399 11 12.3922 11C12.9445 11 13.3922 11.4477 13.3922 12V15C13.3922 15.5523 13.8399 16 14.3922 16H15.7186C16.8887 16 17.8089 17.0001 17.7117 18.1661L17.545 20.1661C17.4586 21.2027 16.5921 22 15.5519 22H11.7463C10.9285 22 10.193 21.5021 9.88932 20.7428L8.77295 17.9519C8.39239 17 8.97931 16.6373 9.3922 16.5041Z"/>
</svg>
