<svg viewBox="0 0 24 24" xmlns="http://www.w3.org/2000/svg">
    <path d="M11.9468 4.01965C8.16598 4.01965 4.95496 6.589 4.1194 10.5759L4.73548 10.6683C5.09893 10.7229 5.28308 11.1382 5.08035 11.4463L2.93587 14.7046C2.69759 15.0666 2.14587 14.9778 2.03211 14.559L1.01816 10.8269C0.922597 10.4751 1.21818 10.1407 1.57704 10.1945L2.12975 10.2774C3.11248 5.34873 7.11038 2 11.9468 2C14.8584 2 17.4808 3.24442 19.316 5.23287C19.7043 5.65367 19.5972 6.3109 19.129 6.63949C18.6859 6.95039 18.0822 6.85002 17.7051 6.46106C16.2449 4.95497 14.2045 4.01965 11.9468 4.01965Z"/>
    <path d="M12.0532 19.9804C15.834 19.9804 19.045 17.411 19.8806 13.4241L19.2645 13.3317C18.9011 13.2771 18.7169 12.8618 18.9196 12.5537L21.0641 9.29541C21.3024 8.93337 21.8541 9.02223 21.9679 9.44097L22.9818 13.1731C23.0774 13.5249 22.7818 13.8593 22.423 13.8055L21.8703 13.7226C20.8875 18.6513 16.8896 22 12.0532 22C9.1416 22 6.51925 20.7556 4.68403 18.7671C4.29566 18.3463 4.40275 17.6891 4.871 17.3605C5.31406 17.0496 5.91781 17.15 6.29491 17.5389C7.75512 19.045 9.79546 19.9804 12.0532 19.9804Z"/>
    <path fill-rule="evenodd" clip-rule="evenodd"
          d="M9 8.51638C9 6.86858 10.3431 5.53278 12 5.53278C13.6569 5.53278 15 6.86858 15 8.51638C15 10.1642 13.6569 11.5 12 11.5C10.3431 11.5 9 10.1642 9 8.51638ZM10.8462 8.51638C10.8462 7.88261 11.3627 7.36884 12 7.36884C12.6373 7.36884 13.1538 7.88261 13.1538 8.51638C13.1538 9.15015 12.6373 9.66392 12 9.66392C11.3627 9.66392 10.8462 9.15015 10.8462 8.51638Z"/>
    <path d="M9.77157 14.6787C9.23714 15.0795 9 15.5569 9 16C9 16.5523 8.55228 17 8 17C7.44772 17 7 16.5523 7 16C7 14.7862 7.65829 13.7636 8.57157 13.0787C9.48455 12.3939 10.7 12 12 12C13.3 12 14.5155 12.3939 15.4284 13.0787C16.3417 13.7636 17 14.7862 17 16C17 16.5523 16.5523 17 16 17C15.4477 17 15 16.5523 15 16C15 15.5569 14.7629 15.0795 14.2284 14.6787C13.6937 14.2776 12.9091 14 12 14C11.0909 14 10.3063 14.2776 9.77157 14.6787Z"/>
</svg>
