<?xml version="1.0" standalone="no"?>
<!DOCTYPE svg PUBLIC "-//W3C//DTD SVG 1.1//EN" "http://www.w3.org/Graphics/SVG/1.1/DTD/svg11.dtd" >
<svg xmlns="http://www.w3.org/2000/svg">
<metadata>Generated by IcoMoon</metadata>
<defs>
<font id="icomoon" horiz-adv-x="1024">
<font-face units-per-em="1024" ascent="960" descent="-64" />
<missing-glyph horiz-adv-x="1024" />
<glyph unicode="&#x20;" horiz-adv-x="512" d="" />
<glyph unicode="&#xe900;" glyph-name="icon_allow" d="M512 789.333c-188.416 0-341.333-152.917-341.333-341.333s152.917-341.333 341.333-341.333c188.416 0 341.333 152.917 341.333 341.333s-152.917 341.333-341.333 341.333zM443.733 277.333l-170.667 170.667 48.128 48.128 122.539-122.197 259.072 259.072 48.128-48.469-307.2-307.2z" />
<glyph unicode="&#xe901;" glyph-name="icon_approve" d="M526.217 789.333c-180.567 0-327.113-146.546-327.113-327.113 0-180.565 146.546-327.108 327.113-327.108 180.565 0 327.108 146.543 327.108 327.108 0 180.567-146.543 327.113-327.108 327.113zM526.217 200.533c-144.585 0-261.69 117.107-261.69 261.687 0 144.585 117.105 261.69 261.69 261.69 144.58 0 261.687-117.106 261.687-261.69 0-144.58-117.107-261.687-261.687-261.687zM693.555 584.631c-12.77 12.858-33.557 12.896-46.37 0.082l-192.341-192.341-61.638 61.402c-12.756 12.706-33.391 12.685-46.123-0.047v0c-12.749-12.749-12.749-33.417 0-46.165l107.76-107.763 238.626 238.629c12.753 12.75 12.787 33.409 0.085 46.204v0z" />
<glyph unicode="&#xe902;" glyph-name="icon_arrow_down" d="M298.667 533.333l213.333-213.333 213.333 213.333h-426.667z" />
<glyph unicode="&#xe903;" glyph-name="icon_arrow2" d="M640 643.84l-56.832 60.16-241.835-256 241.835-256 56.832 60.16-184.602 195.84 184.602 195.84z" />
<glyph unicode="&#xe904;" glyph-name="icon_ball" d="M512 64c46.933 0 85.333 37.414 85.333 83.145h-170.667c0-45.73 38.4-83.145 85.333-83.145zM768 313.438v207.859c0 127.63-69.547 234.472-192 262.741v28.269c0 34.505-28.587 62.359-64 62.359s-64-27.854-64-62.359v-28.269c-122.027-28.27-192-134.696-192-262.741v-207.859l-85.333-83.149v-41.57h682.667v41.57l-85.333 83.149zM682.667 271.863h-341.333v249.434c0 103.102 64.427 187.079 170.667 187.079s170.667-83.977 170.667-187.079v-249.434z" />
<glyph unicode="&#xe905;" glyph-name="icon_bascket" d="M661.333 789.333h149.333v-85.333h-597.333v85.333h149.333l42.667 42.667h213.333l42.667-42.667zM341.333 64c-46.933 0-85.333 38.4-85.333 85.333v512h512v-512c0-46.933-38.4-85.333-85.333-85.333h-341.333z" />
<glyph unicode="&#xe906;" glyph-name="icon_callcenter" d="M657.946 540.576c0-101.895-73.758-184.502-164.749-184.502-90.983 0-164.753 82.598-164.753 184.502 0 101.922 73.77 184.529 164.753 184.529 90.991 0 164.749-82.607 164.749-184.529zM232.404 371.465c3.276 0 6.454 0.393 9.581 0.99 7.384-14.046 14.234-24.145 23.775-34.645-5.672-8.806-8.997-19.085-8.997-30.106 0-32.171 27.833-58.33 62.031-58.33 34.207 0 62.031 26.167 62.031 58.33 0 31.305-26.388 56.841-59.328 58.193-16.757 15.637-21.865 23.829-33.812 49.429 3.623 9.869 5.691 20.86 5.691 32.61v128.064c0 17.433-4.483 33.264-12.026 45.993 35.633 90.949 119.637 151.553 211.856 151.553 91.964 0 174.242-59.375 210.441-147.934-8.917-13.267-14.251-30.509-14.251-49.612v-128.064c0-42.88 26.773-76.471 60.958-76.471 34.189 0 60.975 33.591 60.975 76.471v128.064c0 39.724-22.985 71.404-53.538 75.878-46.217 108.037-149.265 180.122-264.576 180.122-114.023 0-217.813-71.433-264.403-179.748-32.436-2.275-57.368-34.895-57.368-76.252v-128.064c-0.010-42.88 26.774-76.471 60.961-76.471zM749.534 255.949h-330.078c-19.529-33.434-57.319-56.166-100.672-56.166-42.947 0-80.421 22.327-100.099 55.275-51.123-6.268-90.685-48.516-90.685-99.802v-91.255h725.333v91.264c0.009 55.603-46.473 100.685-103.799 100.685z" />
<glyph unicode="&#xe907;" glyph-name="icon_chat" d="M170.667 173.239v-99.755h447.266v99.755c0 60.51-47.121 107.115-108.301 107.115h-229.835c-58.699 0-109.13-47.424-109.13-107.115zM394.306 326.332c71.166 0 129.47 51.759 129.47 114.927 0 63.172-58.304 114.929-129.47 114.929s-129.472-51.756-129.472-114.929c0.858-63.168 57.448-114.927 129.472-114.927zM688.559 303.326c52.663 0 94.161 42.074 94.161 91.942 0 49.865-43.093 91.938-94.161 91.938-52.668 0-94.161-42.074-94.161-91.938 0-49.869 42.291-91.942 94.161-91.942zM763.691 273.084h-175.838c29.308-23.919 47.407-60.215 47.407-99.806l4.314-99.806h213.764v114.654c0 47.838-38.788 84.958-89.647 84.958zM777.958 725.031c-19.955 77.013-96.597 122.411-172.437 102.144-75.046-20.267-120.55-98.901-100.591-175.104 9.579-36.48 31.932-65.664 60.672-84.31l-36.723-57.558 149.291 39.723c75.042 20.267 119.748 98.902 99.789 175.104zM658.21 623.698c-58.278 29.184-73.446 81.877-75.844 100.523-2.394 19.456 30.34 35.669 30.34 35.669l20.753-35.669c0 0-22.353-12.16-19.157-18.645 15.966-34.859 37.521-47.829 37.521-47.829 7.185-2.432 22.353 14.592 22.353 14.592l29.538-28.373c-0.798 1.621-25.545-29.995-45.504-20.267z" />
<glyph unicode="&#xe908;" glyph-name="icon_check" d="M767.582 575.997l-60.16 60.587-281.172-281.174-110.080 109.653-60.587-60.16 170.667-170.24 341.332 341.334z" />
<glyph unicode="&#xe909;" glyph-name="icon_checkbox" d="M810.667 832h-597.333c-46.933 0-85.333-38.4-85.333-85.333v-597.333c0-46.933 38.4-85.333 85.333-85.333h597.333c46.933 0 85.333 38.4 85.333 85.333v597.333c0 46.933-38.4 85.333-85.333 85.333zM810.667 149.333h-597.333v597.333h597.333v-597.333z" />
<glyph unicode="&#xe90a;" glyph-name="icon_conversation" d="M750.98 282.133l-123.153 67.26c-17.088 9.822-38.443 4.531-50.547-12.092l-44.847-61.214c-44.134 24.939-77.594 49.122-116.035 90.688-41.289 43.831-63.357 80.107-86.137 125.449l57.662 47.613c15.661 12.847 19.933 35.52 11.39 53.657l-63.357 129.987c-11.39 22.672-38.441 30.229-58.374 15.87l-79.73-55.169c-18.509-12.847-28.475-34.764-27.052-58.191s4.271-53.657 9.254-74.062c22.78-93.711 78.307-189.689 154.477-271.311 76.883-81.617 167.292-139.81 254.852-163.994 19.934-5.291 47.697-8.311 70.477-9.826 22.067-1.51 43.422 9.826 55.526 29.474l51.251 83.887c12.817 21.163 5.696 49.882-15.659 61.973zM723.994 789.333h-123.55c-70.81 0-128.61-59.628-128.61-132.672s57.801-132.672 128.61-132.672h6.502c-0.725-14.908-2.893-33.54-9.395-53.666-5.056-14.903 10.116-27.575 23.121-20.122 31.791 19.379 58.526 49.937 76.587 73.788h27.456c70.81 0 128.61 59.628 128.61 132.672-0.721 73.044-58.526 132.672-129.331 132.672zM582.379 632.811c-13.005 0-23.121 10.435-23.121 23.851s10.116 23.851 23.121 23.851c13.005 0 23.121-10.435 23.121-23.851s-10.837-23.851-23.121-23.851zM661.858 632.811c-13.005 0-23.121 10.435-23.121 23.851s10.116 23.851 23.121 23.851c13.005 0 23.121-10.435 23.121-23.851s-10.116-23.851-23.121-23.851zM742.059 632.811c-13.009 0-23.121 10.435-23.121 23.851s10.112 23.851 23.121 23.851c13.005 0 23.117-10.435 23.117-23.851s-10.112-23.851-23.117-23.851z" />
<glyph unicode="&#xe90b;" glyph-name="icon_deny" d="M512 789.333c-188.757 0-341.333-152.576-341.333-341.333s152.576-341.333 341.333-341.333c188.757 0 341.333 152.576 341.333 341.333s-152.576 341.333-341.333 341.333zM682.667 325.461l-48.128-48.128-122.539 122.539-122.539-122.539-48.128 48.128 122.539 122.539-122.539 122.539 48.128 48.128 122.539-122.539 122.539 122.539 48.128-48.128-122.539-122.539 122.539-122.539z" />
<glyph unicode="&#xe90c;" glyph-name="icon_info" d="M541.679 106.88c-34.628 2.163-66.372 12.996-96.67 28.164-67.815 33.22-125.529 78.716-174.585 136.491-36.071 42.607-65.649 89.549-85.128 141.547-9.379 25.276-15.871 51.273-14.429 78.716 1.443 17.331 7.936 31.774 20.2 43.331 13.707 12.999 25.971 25.998 39.678 38.997 17.314 17.332 38.957 17.332 56.271 0 10.821-10.833 20.921-20.943 31.743-31.776 10.1-10.109 20.921-20.942 31.021-31.054 18.036-18.057 18.036-39.718 0-57.775-12.986-12.996-25.971-25.997-38.957-38.997-3.607-3.61-3.607-5.777-2.164-10.108 8.657-20.945 20.921-38.997 35.35-56.333 28.135-34.662 60.599-65.715 98.112-89.549 7.936-5.056 17.314-8.666 25.971-13.722 4.331-2.167 7.215-1.442 10.825 2.167 12.983 13.001 25.971 26.722 38.955 39.718 17.314 17.331 38.959 17.331 56.273 0 20.919-20.941 42.564-41.886 63.484-63.552 17.314-18.052 17.314-39.718 0-57.050-12.262-12.279-24.529-23.834-36.070-36.109-15.872-18.778-36.070-24.555-59.878-23.108zM479.637 429.692l-2.163 2.163c-75.030 84.497-71.423 213.766 9.378 294.649 83.682 83.772 220.032 83.772 303.718 0 83.682-83.772 83.682-220.264 0-304.036-70.699-70.771-178.193-81.604-260.433-33.22l-0.721 0.721c-32.465-24.55-67.093-28.885-91.622-25.276-7.936 1.446-9.378 12.279-2.163 15.889 21.641 10.112 36.070 31.774 44.006 49.109zM612.378 671.619c0-19.499 15.872-35.387 35.349-35.387 18.756 0 34.628 15.888 34.628 35.387s-15.151 35.386-34.628 35.386c-19.477 0-35.349-15.888-35.349-35.386zM585.685 603.734c3.605-1.444 7.936-1.444 11.541-2.166 8.657-1.445 12.267-4.333 11.546-13.722 0-1.444 0-2.889 0-4.333-3.61-21.665-7.936-44.053-11.546-65.719-2.163-12.275-4.326-25.276-5.769-37.551-2.889-18.778 15.147-36.109 29.577-37.555 8.657-1.442 17.314-1.442 25.25-1.442 18.035 0 33.186 7.945 46.17 20.941 2.167 2.167 4.331 5.056 5.052 8.666 1.442 5.056-2.884 8.67-7.936 6.502-3.605-1.446-6.494-3.614-10.099-5.056-4.331-1.446-8.657-2.889-12.988-3.61-5.047-0.725-9.378 2.163-10.82 7.219-0.721 3.614-1.442 7.945-0.721 12.279 0.721 8.666 2.884 16.61 4.331 24.555 4.326 25.274 9.378 49.828 13.705 75.104 1.442 6.5 2.163 13.722 2.163 20.221 0 7.944-5.047 12.277-12.983 12.277-11.541 0-23.087 0-33.907 0s-21.645 0-32.465 0c-2.884 0-5.047 0-7.936-0.722-5.047-0.722-7.215-3.611-7.936-7.221s0.721-6.5 5.773-8.666z" />
<glyph unicode="&#xe90d;" glyph-name="icon_pen" d="M128 224.004v-160h160l471.893 471.892-160 160-471.893-471.892zM883.622 659.624c16.64 16.64 16.64 43.52 0 60.16l-99.84 99.84c-16.64 16.64-43.52 16.64-60.16 0l-78.080-78.080 160-160 78.080 78.080z" />
<glyph unicode="&#xe90e;" glyph-name="icon_phone" d="M672.721 347.14c-14.545 8.294-29.598 10.897-42.372 7.347-9.613-2.65-17.446-8.721-22.733-17.57-11.614-13.875-26.018-30.097-29.517-32.623-26.974-18.231-48.397-16.081-71.684 7.155l-130.795 130.654c-23.287 23.258-25.428 44.663-7.185 71.552 2.54 3.524 18.778 17.916 32.671 29.516 8.871 5.277 14.941 13.103 17.605 22.702 3.541 12.773 0.922 27.809-7.425 42.436-1.981 3.366-48.864 82.677-92.067 105.527-21.932 11.601-48.465 7.598-66.002-9.918l-28.89-28.855c-56.937-56.87-68.632-122.44-34.755-194.892 11.376-24.307 28.241-47.77 50.15-69.734l233.639-234.121c17.899-17.946 36.668-32.367 55.761-42.854 32.538-17.869 63.735-26.799 93.47-26.799 42.099 0 81.263 17.916 117.065 53.675l28.89 28.855c17.549 17.515 21.542 44.006 9.929 65.924-22.865 43.162-102.272 89.988-105.754 92.023zM762.24 584.603h-204.975c-6.285 0-11.388 5.096-11.388 11.374s5.103 11.374 11.388 11.374h204.975c6.289 0 11.388-5.096 11.388-11.374s-5.099-11.374-11.388-11.374zM739.465 516.361h-159.424c-6.285 0-11.388 5.094-11.388 11.375 0 6.277 5.103 11.372 11.388 11.372h159.424c6.289 0 11.388-5.095 11.388-11.372 0-6.281-5.099-11.375-11.388-11.375zM580.041 675.594h159.424c6.289 0 11.388-5.095 11.388-11.374s-5.099-11.374-11.388-11.374h-159.424c-6.285 0-11.388 5.096-11.388 11.374s5.103 11.374 11.388 11.374zM659.755 789.333c-106.748 0-193.587-86.737-193.587-193.356 0-30.801 7.403-61.305 21.453-88.512l-21.158-90.889c-0.909-3.934 0.32-8.051 3.26-10.837 2.138-2.027 4.962-3.119 7.834-3.119 1.058 0 2.116 0.149 3.153 0.444l84.506 24.375c28.958-16.252 61.538-24.819 94.541-24.819 106.743 0 193.587 86.737 193.587 193.357s-86.844 193.356-193.587 193.356z" />
<glyph unicode="&#xe90f;" glyph-name="icon_phone_approve" d="M869.577 547.555h-27.819c-26.918 161.491-165.103 284.445-330.206 284.445-165.104 0-302.391-122.953-330.208-284.445h-26.919c-37.687 0-69.092-32.116-69.092-70.653v-118.366c0-19.268 7.178-36.702 20.638-50.466 13.46-12.843 30.508-20.186 48.454-20.186h61.914c17.946 0 32.303 14.682 32.303 33.033v168.832c0 147.727 117.546 267.928 262.014 267.928 144.465 0 262.012-120.201 262.012-267.928v-230.31c0-60.557-48.457-110.106-107.678-110.106h-59.221c-4.489 19.268-20.638 33.033-41.276 33.033h-106.778c-24.23 0-43.072-20.186-43.072-44.045v-30.276c0-24.777 19.742-44.045 43.072-44.045h108.57c19.742 0 35.895 14.682 41.276 33.033h59.226c87.036 0 158.822 72.486 158.822 162.406v29.363h43.968c17.946 0 35.891 7.343 48.452 20.186 13.461 13.764 20.638 31.198 20.638 50.466v117.449c0 38.537-30.507 69.736-69.090 70.653zM700.868 489.749c0 106.437-84.348 192.688-188.433 192.688-104.089 0-188.435-86.251-188.435-192.688s84.346-192.687 188.435-192.687c104.085 0 188.433 86.251 188.433 192.687zM478.336 430.11l-45.764 50.462c-8.972 10.095-8.074 24.777 0.9 33.95 9.869 9.178 24.226 8.26 33.199-0.917l28.715-31.194 61.914 67.898c8.973 10.093 23.33 10.093 33.199 0.917s9.869-23.857 0.896-33.948l-78.959-87.168c-8.977-10.095-25.126-10.095-34.099 0z" />
<glyph unicode="&#xe910;" glyph-name="icon_phone_plus" d="M318.41 197.602c49.829-41.809 110.087-84.689 180.777-118.997 0 0 115.883-63.249 282.752-56.815 32.448 1.071 60.258 25.728 64.896 55.744l17.382 108.275c3.473 20.369-8.115 39.663-28.971 45.026l-156.442 34.304c-12.749 3.217-26.654 2.142-39.403-5.359l-93.862-51.46c-4.638-2.142-9.271-3.213-13.905-1.071-39.403 16.081-86.912 40.738-130.949 77.188-44.035 37.517-74.165 79.326-95.023 113.634-2.318 3.213-2.318 8.576 0 12.864l47.511 91.119c5.794 11.793 6.953 25.732 2.318 36.451l-49.829 141.507c-8.112 18.225-28.971 27.873-50.988 22.513l-114.723-25.729c-32.447-7.504-56.783-36.449-54.465-67.537 6.953-143.651 84.594-252.997 84.594-252.997 42.877-62.178 93.865-114.709 143.695-156.518zM804.57 499.362c65.839 45.229 104.435 123.84 87.407 209.99-17.028 80.765-86.272 146.455-171.409 161.531-139.627 24.768-261.090-75.381-261.090-203.529 0-90.457 61.299-164.762 133.952-189.53 3.405-1.075 5.675-5.385 4.54-8.614l-28.378-69.995c0-5.385 5.675-9.694 11.349-7.539 150.98 47.381 219.089 103.377 219.089 103.377 1.135 1.079 3.405 2.155 4.54 4.309 0-1.075 0-1.075 0 0zM565.052 644.74v45.229c0 3.231 2.27 4.307 4.54 4.307h73.783c3.405 0 4.544 2.154 4.544 4.308v69.997c0 2.154 2.27 4.308 4.54 4.308h47.676c2.27 0 4.54-2.154 4.54-4.308v-69.997c0-2.154 2.27-4.308 4.54-4.308h73.788c3.405 0 4.54-2.153 4.54-4.307v-45.229c0-3.231-2.27-4.308-4.54-4.308h-70.379c-3.409 0-4.544-2.153-4.544-4.307v-69.997c0-2.154-2.27-4.308-4.54-4.308h-47.676c-2.27 0-4.54 2.154-4.54 4.308v69.997c0 2.154-2.27 4.307-4.544 4.307h-73.783c-5.675-1.077-7.945 1.077-7.945 4.308z" />
<glyph unicode="&#xe911;" glyph-name="icon_plus" d="M810.667 405.333h-256v-256h-85.333v256h-256v85.333h256v256h85.333v-256h256v-85.333z" />
<glyph unicode="&#xe912;" glyph-name="icon_question" d="M477.867 243.2h68.267v68.267h-68.267v-68.267zM512 789.333c-188.416 0-341.333-152.917-341.333-341.333s152.917-341.333 341.333-341.333c188.416 0 341.333 152.917 341.333 341.333s-152.917 341.333-341.333 341.333zM512 174.933c-150.528 0-273.067 122.539-273.067 273.067s122.539 273.067 273.067 273.067c150.528 0 273.067-122.539 273.067-273.067s-122.539-273.067-273.067-273.067zM512 652.8c-75.435 0-136.533-61.099-136.533-136.533h68.267c0 37.547 30.72 68.267 68.267 68.267s68.267-30.72 68.267-68.267c0-68.267-102.4-59.733-102.4-170.667h68.267c0 76.8 102.4 85.333 102.4 170.667 0 75.435-61.099 136.533-136.533 136.533z" />
<glyph unicode="&#xe913;" glyph-name="icon_settings" d="M869.577 547.555h-27.819c-26.918 161.491-165.103 284.445-330.206 284.445-165.104 0-302.391-122.953-330.208-284.445h-26.919c-37.687 0-69.092-32.116-69.092-70.653v-118.366c0-19.268 7.178-36.702 20.638-50.466 13.46-12.843 30.508-20.186 48.454-20.186h61.914c17.946 0 32.303 14.682 32.303 33.033v168.832c0 147.727 117.546 267.928 262.014 267.928 144.465 0 262.012-120.201 262.012-267.928v-230.31c0-60.557-48.457-110.106-107.678-110.106h-59.221c-4.489 19.268-20.638 33.033-41.276 33.033h-106.778c-24.23 0-43.072-20.186-43.072-44.045v-30.276c0-24.777 19.742-44.045 43.072-44.045h108.57c19.742 0 35.895 14.682 41.276 33.033h59.226c87.036 0 158.822 72.486 158.822 162.406v29.363h43.968c17.946 0 35.891 7.343 48.452 20.186 13.461 13.764 20.638 31.198 20.638 50.466v117.449c0 38.537-30.507 69.736-69.090 70.653zM436.164 329.173c10.765-6.421 22.43-11.008 34.995-14.682v-30.276c0-7.343 5.38-12.847 12.561-12.847h56.529c7.177 0 12.561 5.504 12.561 12.847v30.276c12.565 3.674 24.23 8.26 34.995 14.682l20.638-21.103c5.385-5.504 13.461-5.504 17.946 0l39.484 40.371c5.385 5.508 5.385 13.764 0 18.355l-18.846 22.020c6.281 11.008 10.769 22.938 14.357 35.785h29.611c7.181 0 12.565 5.504 12.565 12.847v57.805c0 7.339-5.385 12.847-12.565 12.847h-29.611c-3.588 12.847-8.077 24.772-14.357 35.784l20.638 21.104c5.385 5.506 5.385 13.764 0 18.351l-39.479 40.373c-5.385 5.505-13.461 5.505-17.946 0l-20.638-21.104c-10.769 6.423-22.434 11.011-34.995 14.681v32.115c0 7.34-5.385 12.846-12.561 12.846h-56.533c-7.177 0-12.561-5.505-12.561-12.846v-30.28c-12.561-3.67-24.226-8.258-34.995-14.681l-20.637 21.104c-5.384 5.505-13.46 5.505-17.946 0l-39.481-40.373c-5.384-5.505-5.384-13.763 0-18.351l20.638-21.104c-6.281-11.011-10.767-22.938-14.357-35.785h-29.611c-7.179 0-12.562-5.504-12.562-12.847v-57.805c0-7.343 5.384-12.847 12.562-12.847h29.611c3.59-12.847 8.076-24.772 14.357-35.785l-20.638-21.103c-5.384-5.508-5.384-13.764 0-18.351l39.481-40.375c5.384-5.504 13.46-5.504 17.946 0l18.845 18.351zM512.435 541.132c40.375 0 72.678-33.032 72.678-74.324 0-41.289-32.303-74.321-72.678-74.321-40.38 0-72.683 33.033-72.683 74.321 0 41.293 32.303 74.324 72.683 74.324z" />
<glyph unicode="&#xe914;" glyph-name="icon_warning" d="M512 789.333c-188.509 0-341.333-152.824-341.333-341.333s152.824-341.333 341.333-341.333c188.51 0 341.333 152.823 341.333 341.333s-152.823 341.333-341.333 341.333zM512 168.725c-154.376 0-279.273 124.898-279.273 279.275s124.897 279.273 279.273 279.273c154.377 0 279.275-124.897 279.275-279.273s-124.898-279.275-279.275-279.275zM511.987 378.18c17.067 0 31.031 13.965 31.031 31.031v178.425c0 17.067-13.965 31.030-31.031 31.030s-31.027-13.964-31.027-31.030v-178.425c0-17.067 13.961-31.031 31.027-31.031zM511.953 267.255c21.423 0 38.788 17.37 38.788 38.788 0 21.423-17.365 38.788-38.788 38.788-21.419 0-38.788-17.365-38.788-38.788 0-21.419 17.37-38.788 38.788-38.788z" />
</font>
</defs>
</svg>
