<?xml version="1.0" standalone="no"?>
<!DOCTYPE svg PUBLIC "-//W3C//DTD SVG 1.1//EN" "http://www.w3.org/Graphics/SVG/1.1/DTD/svg11.dtd" >
<svg>
<metadata>
Created by FontForge 20090914 at Mon Jul 15 12:21:53 2019
 By www-data
Copyright (c) 1990-1996 ParaGraph. All Rights Reserved. Avant Garde Gothic is a registered trade mark of International Typeface Corporation.
</metadata>
<defs>
<font id="AvantGardeGothicC-Demi" horiz-adv-x="560" >
  <font-face 
    font-family="AvantGardeGothicCTT"
    font-weight="700"
    font-stretch="normal"
    units-per-em="1000"
    panose-1="0 0 0 0 0 0 0 0 0 0"
    ascent="800"
    descent="-200"
    x-height="554"
    cap-height="740"
    bbox="-479 -215.002 1248 980"
    underline-thickness="40"
    underline-position="-60"
    unicode-range="U+0020-U+F002"
  />
<missing-glyph horiz-adv-x="450" 
d="M50 0v512h400v-512h-400zM58 8h384v496h-384v-496z" />
    <glyph glyph-name=".notdef" horiz-adv-x="450" 
d="M50 0v512h400v-512h-400zM58 8h384v496h-384v-496z" />
    <glyph glyph-name="space" unicode=" " horiz-adv-x="233" 
 />
    <glyph glyph-name="space" unicode="&#x45d;" horiz-adv-x="233" 
 />
    <glyph glyph-name="space" unicode="&#x40d;" horiz-adv-x="233" 
 />
    <glyph glyph-name="space" unicode="&#xa0;" horiz-adv-x="233" 
 />
    <glyph glyph-name="exclam" unicode="!" horiz-adv-x="280" 
d="M73 0v127h133v-127h-133zM73 188v552h133v-552h-133z" />
    <glyph glyph-name="quotedbl" unicode="&#x22;" horiz-adv-x="360" 
d="M75 514v226h75v-226h-75zM210 514v226h75v-226h-75z" />
    <glyph glyph-name="numbersign" unicode="#" 
d="M336 0h-90l48 233h-86l-48 -233h-90l48 233h-114l20 98h114l19 92h-114l19 98h114l45 219h90l-45 -219h86l45 219h90l-45 -219h114l-19 -98h-114l-19 -92h114l-20 -98h-114zM314 331l19 92h-86l-19 -92h86z" />
    <glyph glyph-name="dollar" unicode="$" 
d="M221 -85v132.998c-44.667 10 -82.834 32.667 -114.501 68s-47.5 75.666 -47.5 120.999v12h133c-0.666992 -24.667 7.33301 -45.167 24 -61.5s37.334 -24.5 62.001 -24.5c25.333 0 46 8.33301 62 25s24 37.334 24 62.001c0 23.333 -8.33301 42.833 -25 58.5
s-48 30.834 -94 45.501c-55.333 16.667 -95.333 39.667 -120 69s-37 69 -37 119c0 44.667 11.667 83.334 35 116.001s56 54.667 98 66v131h125v-131c37.333 -10.667 67.333 -31.667 90 -63s34.334 -67 35.001 -107h-125c-0.666992 16.667 -7 30.834 -19 42.501
s-27.667 17.5 -47 17.5c-20 0 -36.333 -6.66699 -49 -20s-18.667 -28.666 -18 -45.999c0 -20 6.66699 -36.833 20 -50.5s41.333 -26.5 84 -38.5c57.333 -16.667 101.166 -42.334 131.499 -77.001s45.5 -79 45.5 -133c0 -50 -13.667 -92.833 -41 -128.5
s-63 -59.834 -107 -72.501v-133h-125z" />
    <glyph glyph-name="percent" unicode="%" horiz-adv-x="860" 
d="M223 0l306 740h102l-306 -740h-102zM21 573c0 49.333 17.5 91.499 52.5 126.499s77.5 52.833 127.5 53.5c48.667 0 90.667 -17.667 126 -53s53 -77.666 53 -126.999c0 -50 -17.667 -92.5 -53 -127.5s-77.333 -52.5 -126 -52.5c-50 0 -92.5 17.5 -127.5 52.5
s-52.5 77.5 -52.5 127.5zM132 572.999c0 -18.667 6.66602 -34.833 19.999 -48.5s29.333 -20.5 48 -20.5c18 0 34 6.66699 48 20s21 29.666 21 48.999c0 18.667 -6.83301 34.834 -20.5 48.501s-29.5 20.5 -47.5 20.5c-19.333 -0.666992 -35.666 -7.66699 -48.999 -21
s-20 -29.333 -20 -48zM474.999 162c-0.666992 49.333 16.665 91.667 51.998 127s78 53 128 53c49.333 0 91.5 -17.667 126.5 -53s52.833 -77.666 53.5 -126.999c0 -50 -17.667 -92.333 -53 -127s-77.666 -52.334 -126.999 -53.001c-50 0 -92.667 17.5 -128 52.5
s-52.666 77.5 -51.999 127.5zM585.998 162.001c-0.666992 -19.333 5.83203 -35.668 19.499 -49.001s30.167 -20 49.5 -20c18.667 -0.666992 34.834 5.83301 48.501 19.5s20.5 30.167 20.5 49.5c0 18.667 -6.83301 34.834 -20.5 48.501s-29.834 20.5 -48.501 20.5
c-19.333 -0.666992 -35.666 -7.66699 -48.999 -21s-20 -29.333 -20 -48z" />
    <glyph glyph-name="ampersand" unicode="&#x26;" horiz-adv-x="680" 
d="M513 436l147 0.000976562l-127 -223l131 -142l-97 -85l-101 106l-11 -16c-22.667 -33.333 -48.167 -57.333 -76.5 -72s-60.833 -22 -97.5 -22c-70 0 -128.5 21.667 -175.5 65s-70.5 99.333 -70.5 168c0 48 12.333 90.167 37 126.5s58.667 65.166 102 86.499
c-20 18.667 -35.333 39.167 -46 61.5s-16 46.5 -16 72.5c0 54 17.833 99.333 53.5 136s80.5 55 134.5 55c52 0 96.5 -17.5 133.5 -52.5s55.5 -78.167 55.5 -129.5c-0.666992 -39.333 -11.167 -74.5 -31.5 -105.5s-48.5 -56.5 -84.5 -76.5l68 -76zM258 322.001l-20 -9.00195
c-21.333 -9.33301 -38.333 -23.166 -51 -41.499s-19 -39.166 -19 -62.499c0 -28.667 9.33301 -52.667 28 -72s43 -29 73 -29c17.333 0 33.833 5 49.5 15s31.167 28.667 46.5 56l8 14zM285 484.999l3.99902 -3.99805c22.667 8 40.5 19 53.5 33s19.833 30.667 20.5 50
c0 19.333 -6 34.666 -18 45.999s-27.333 17 -46 17c-19.333 0 -34.166 -6.16699 -44.499 -18.5s-15.5 -26.833 -15.5 -43.5c-0.666992 -11.333 2.5 -23.333 9.5 -36s19.167 -27.334 36.5 -44.001z" />
    <glyph glyph-name="quotesingle" unicode="'" horiz-adv-x="220" 
d="M74 514v226h76v-226h-76z" />
    <glyph glyph-name="parenleft" unicode="(" horiz-adv-x="380" 
d="M349 740v-139.001c-45.333 -35.333 -79.666 -78.666 -102.999 -129.999s-35 -106.333 -35 -165c0 -59.333 11.667 -114.666 35 -165.999s57.666 -94.333 102.999 -129v-139c-82 33.333 -148.5 89.666 -199.5 168.999s-76.167 167.666 -75.5 264.999
c0 96.667 25.333 184.834 76 264.501s117 136.167 199 169.5z" />
    <glyph glyph-name="parenright" unicode=")" horiz-adv-x="380" 
d="M31 -128l0.000976562 139.001c44.667 34.667 78.667 77.667 102 129s35.333 106.666 36 165.999c0 58.667 -11.833 113.667 -35.5 165s-57.834 94.666 -102.501 129.999v139c81.333 -33.333 147.5 -89.833 198.5 -169.5s76.5 -167.834 76.5 -264.501
c0 -97.333 -25.5 -185.666 -76.5 -264.999s-117.167 -135.666 -198.5 -168.999z" />
    <glyph glyph-name="asterisk" unicode="*" horiz-adv-x="440" 
d="M371 640v-70l-102 6l56 -84l-56 -36l-47 92l-44 -92l-62 30l54 91l-100 -7v69l100 -6l-54 89l61 30l45 -90l46 91l57 -35l-54 -85z" />
    <glyph glyph-name="plus" unicode="+" horiz-adv-x="600" 
d="M242 379v194h116v-194h194v-116h-194v-194h-116v194h-194v116h194z" />
    <glyph glyph-name="comma" unicode="," horiz-adv-x="280" 
d="M73 0v132.999h133v-128c0 -30.667 -3 -53.667 -9 -69s-15 -28.666 -27 -39.999c-12 -10.667 -26.5 -19.167 -43.5 -25.5s-34.167 -9.83301 -51.5 -10.5v67c16 0 29.5 5.16699 40.5 15.5s16.5 23.833 16.5 40.5v17h-59z" />
    <glyph glyph-name="hyphenminus" unicode="-" horiz-adv-x="420" 
d="M71 377h278v-118h-278v118z" />
    <glyph glyph-name="period" unicode="." horiz-adv-x="280" 
d="M73 0v133h133v-133h-133z" />
    <glyph glyph-name="slash" unicode="/" horiz-adv-x="460" 
d="M26 -128l323 868h94l-323 -868h-94z" />
    <glyph glyph-name="zero" unicode="0" 
d="M32 248l0.000976562 239c0 82 22.167 146.833 66.5 194.5s104.833 71.5 181.5 71.5c76 0 136.333 -23.833 181 -71.5s67 -112.5 67 -194.5v-239c0 -82.667 -22.333 -147.5 -67 -194.5s-105 -70.833 -181 -71.5c-76.667 0 -137.334 23.667 -182.001 71
s-66.667 112.333 -66 195zM395.001 248v238.999c0 46 -10 80.667 -30 104s-48.333 35.333 -85 36c-37.333 0 -65.833 -11.833 -85.5 -35.5s-29.5 -58.5 -29.5 -104.5v-239c-0.666992 -46.667 9 -81.667 29 -105s48.667 -35 86 -35c36.667 -0.666992 65 10.833 85 34.5
s30 58.834 30 105.501z" />
    <glyph glyph-name="one" unicode="1" 
d="M307 0v554l-152 -199l-105 80l237 305h153v-740h-133z" />
    <glyph glyph-name="two" unicode="2" 
d="M42 0l0.000976562 126.002l255 237c38.667 36 63.334 64.333 74.001 85s16 43 16 67c-0.666992 34 -10.834 61.167 -30.501 81.5s-44.834 30.5 -75.501 30.5c-36 0 -64.833 -13.5 -86.5 -40.5s-30.834 -61.167 -27.501 -102.5h-133
c-3.33301 80.667 17.834 145.667 63.501 195s105.5 74 179.5 74c70 -0.666992 128 -22.834 174 -66.501s69 -101.5 69 -173.5c-0.666992 -44.667 -12.5 -87.334 -35.5 -128.001s-61.5 -85 -115.5 -133l-141 -126h292v-126h-478z" />
    <glyph glyph-name="three" unicode="3" 
d="M202 560h-132.997c-0.666992 56 17.333 102.167 54 138.5s85 54.5 145 54.5c55.333 0 102 -18 140 -54s57 -83.667 57 -143c0 -25.333 -5.33301 -49.5 -16 -72.5s-26.667 -42.833 -48 -59.5c38 -16 67 -41.333 87 -76s30 -75 30 -121
c0 -72.667 -24.333 -131.5 -73 -176.5s-108.334 -67.833 -179.001 -68.5c-70 0.666992 -128.333 23.167 -175 67.5s-72 100.833 -76 169.5h133c3.33301 -34.667 16 -62 38 -82s49 -29.667 81 -29c34 0 62.167 11.5 84.5 34.5s33.5 51.5 33.5 85.5c0 39.333 -12 70 -36 92
s-60.333 33.333 -109 34h-23v126h19c33.333 0 57.666 6.83301 72.999 20.5s23 32.5 23 56.5c0 20 -5.66699 36.667 -17 50s-26.333 20 -45 20c-20.667 0 -37.334 -6.5 -50.001 -19.5s-18.667 -28.833 -18 -47.5z" />
    <glyph glyph-name="four" unicode="4" 
d="M319 0v110h-319v109l340 521h112v-504h78v-126h-78v-110h-133zM319 236v278l-177 -278h177z" />
    <glyph glyph-name="five" unicode="5" 
d="M45 352l69.999 388h341l-7 -126h-235l-23 -137c14 6.66699 28.5 11.834 43.5 15.501s31.167 5.5 48.5 5.5c70 0 127 -25.167 171 -75.5s66 -110.833 66 -181.5c0 -74 -24.167 -135.667 -72.5 -185s-109.166 -74 -182.499 -74c-71.333 0 -129.666 22.5 -174.999 67.5
s-71.333 101.5 -78 169.5h133c4.66699 -32.667 17.667 -59.334 39 -80.001s48 -31 80 -31c36 0 65.5 12.167 88.5 36.5s34.5 57.166 34.5 98.499c0 36.667 -11.5 67.334 -34.5 92.001s-52.833 37 -89.5 37c-20.667 0 -39.834 -5 -57.501 -15s-31.5 -22.667 -41.5 -38z" />
    <glyph glyph-name="six" unicode="6" 
d="M287 740l157 -0.000976562l-165 -252l16.5 2c5.66699 0.666992 12.5 1 20.5 1c60.667 0 112.167 -22.5 154.5 -67.5s63.5 -104.5 63.5 -178.5c0 -75.333 -23.5 -138 -70.5 -188s-108.5 -75 -184.5 -75c-75.333 0 -137 24.833 -185 74.5s-72 112.834 -72 189.501
c0 28.667 4.5 57.5 13.5 86.5s22.5 57.167 40.5 84.5zM278 370.999c-38 0 -68.001 -12.5 -90.001 -37.5s-33 -55.833 -33 -92.5c0 -39.333 11.167 -71.333 33.5 -96s52.166 -37 89.499 -37c36.667 0 66.334 12.333 89.001 37s34 56.667 34 96
c0 36.667 -11.167 67.5 -33.5 92.5s-52.166 37.5 -89.499 37.5z" />
    <glyph glyph-name="seven" unicode="7" 
d="M85 0l276 614h-296v126h435v-126l-267 -614h-148z" />
    <glyph glyph-name="eight" unicode="8" 
d="M155 411c-22.667 14.667 -40.667 34.332 -54 58.999s-20 51.334 -20 80.001c0 58.667 18.667 107.167 56 145.5s85 57.5 143 57.5s105.667 -19.167 143 -57.5s56 -86.833 56 -145.5c0 -28.667 -6.5 -54.834 -19.5 -78.501s-31.167 -43.834 -54.5 -60.501
c37.333 -17.333 66.833 -42.333 88.5 -75s32.5 -71 32.5 -115c-0.666992 -71.333 -24.5 -129 -71.5 -173s-105.167 -66 -174.5 -66c-70 0 -128.5 22 -175.5 66s-70.5 101.667 -70.5 173c0 44.667 10.833 83.334 32.5 116.001s51.167 57.334 88.5 74.001zM280 340.998
c-32.667 -0.666992 -59.667 -12.332 -81 -34.999s-32 -50.334 -32 -83.001c0 -33.333 10.667 -60.833 32 -82.5s48.333 -32.5 81 -32.5c32 0 58.833 10.833 80.5 32.5s32.5 49.167 32.5 82.5c0 32.667 -10.833 60.5 -32.5 83.5s-48.5 34.5 -80.5 34.5zM281 627
c-22.667 0 -41.501 -7.66699 -56.501 -23s-22.5 -34.333 -22.5 -57c0 -23.333 7.5 -42.5 22.5 -57.5s33.833 -22.5 56.5 -22.5c21.333 0 39.333 7.5 54 22.5s22.334 34.167 23.001 57.5c0 22.667 -7.5 41.667 -22.5 57s-33.167 23 -54.5 23z" />
    <glyph glyph-name="nine" unicode="9" 
d="M269 0l-157 0.00195312l169 251c-6 -1.33301 -12.667 -2.33301 -20 -3s-14.333 -0.666992 -21 0c-60.667 -0.666992 -112.167 21.666 -154.5 66.999s-63.5 104.333 -63.5 177c0 74.667 23.5 136.667 70.5 186s108.5 74.333 184.5 75c75.333 0 137 -24.667 185 -74
s72 -112 72 -188c0 -30 -4.5 -59.333 -13.5 -88s-27.5 -64.334 -55.5 -107.001zM278 368.002c36.667 0 66.334 12.167 89.001 36.5s34 54.833 34 91.5c0 38 -11.333 69.167 -34 93.5s-52.334 36.833 -89.001 37.5c-38 0 -68 -12.333 -90 -37s-33 -56 -33 -94
c0 -40.667 12 -72.167 36 -94.5s53 -33.5 87 -33.5z" />
    <glyph glyph-name="colon" unicode=":" horiz-adv-x="280" 
d="M73 0v133h133v-133h-133zM73 369v133h133v-133h-133z" />
    <glyph glyph-name="semicolon" unicode=";" horiz-adv-x="280" 
d="M73 0v132.999h133v-128c0 -30.667 -3 -53.667 -9 -69s-15 -28.666 -27 -39.999c-12 -10.667 -26.5 -19.167 -43.5 -25.5s-34.167 -9.83301 -51.5 -10.5v67c16 0 29.5 5.16699 40.5 15.5s16.5 23.833 16.5 40.5v17h-59zM73 368.999v133h133v-133h-133z" />
    <glyph glyph-name="less" unicode="&#x3c;" horiz-adv-x="600" 
d="M190 316l362 -163v-111l-509 225v98l509 225v-111z" />
    <glyph glyph-name="equal" unicode="=" horiz-adv-x="600" 
d="M552 473v-115h-504v115h504zM552 278v-115h-504v115h504z" />
    <glyph glyph-name="greater" unicode="&#x3e;" horiz-adv-x="600" 
d="M410 316l-362 163v111l509 -225v-98l-509 -225v111z" />
    <glyph glyph-name="question" unicode="?" 
d="M194 0v127h133v-127h-133zM171 522l-133.003 0.000976562c-1.33301 69.333 19.334 125.166 62.001 167.499s97.334 63.5 164.001 63.5c68.667 0 123.667 -20.333 165 -61s62 -97.334 62 -170.001c0 -26.667 -4.16699 -50.5 -12.5 -71.5s-37.833 -56.5 -88.5 -106.5
c-25.333 -25.333 -42.666 -50.5 -51.999 -75.5s-13 -51.833 -11 -80.5h-133c-2.66699 44 2.33301 83.333 15 118s32.334 65.334 59.001 92.001c53.333 54.667 81.666 86.334 84.999 95.001s5 19 5 31c0 30 -8 54.667 -24 74s-39.333 29 -70 29
c-28.667 0 -51.5 -10.333 -68.5 -31s-25.167 -45.334 -24.5 -74.001z" />
    <glyph glyph-name="at" unicode="@" horiz-adv-x="740" 
d="M564 96l36.001 -55.999c-30.667 -20 -64.334 -34.667 -101.001 -44s-74 -14 -112 -14c-112.667 0 -204.834 36.167 -276.501 108.5s-107.5 164.5 -107.5 276.5c0 112.667 36 205.167 108 277.5s165.667 108.5 281 108.5c98 0 181.333 -28.833 250 -86.5
s103 -139.167 103 -244.5c0 -81.333 -23.167 -147.166 -69.5 -197.499s-96.5 -75.5 -150.5 -75.5c-19.333 -0.666992 -35.833 3.33301 -49.5 12s-23.834 20.667 -30.501 36c-16.667 -16.667 -35.5 -28.834 -56.5 -36.501s-41.5 -11.5 -61.5 -11.5
c-46.667 0 -86 16.167 -118 48.5s-48 76.166 -48 131.499c0 64 19.333 119 58 165s88.667 69 150 69c28 0 52.5 -5.33301 73.5 -16s37.833 -25.334 50.5 -44.001l11 51h96l-54 -277c-0.666992 -3.33301 -1.33398 -7.83301 -2.00098 -13.5s-1 -9.5 -1 -11.5
c0 -1.33301 0.166992 -2.66602 0.5 -3.99902s0.833008 -2.33301 1.5 -3c1.33301 -3.33301 3.5 -5.66602 6.5 -6.99902s6.83301 -1.66602 11.5 -0.999023c26.667 0 50.834 17.667 72.501 53s32.834 79.666 33.501 132.999c0 76 -25.5 138.333 -76.5 187
s-118.833 73 -203.5 73c-90.667 0 -165.167 -30 -223.5 -90s-87.166 -135.333 -86.499 -226c0 -94.667 30.667 -170.834 92 -228.501s137 -86.5 227 -86.5c27.333 0 54.833 3.5 82.5 10.5s55.5 18.167 83.5 33.5zM361.001 256.001c14 0 28.167 3.33594 42.5 10.0029
s26.166 15.334 35.499 26.001c8 9.33301 14.333 20.666 19 33.999s7 27.666 7 42.999c0 27.333 -7 48.5 -21 63.5s-32.333 22.833 -55 23.5c-28 -0.666992 -52.833 -11.334 -74.5 -32.001s-32.167 -48.334 -31.5 -83.001c0 -26 6.83301 -46.667 20.5 -62
s32.834 -23 57.501 -23z" />
    <glyph glyph-name="A" unicode="A" horiz-adv-x="740" 
d="M7 0l308 740h110l308 -740h-151l-76 191h-272l-76 -191h-151zM286 324h168l-84 216z" />
    <glyph glyph-name="B" unicode="B" horiz-adv-x="580" 
d="M68 0l0.00195312 740h178c86 -0.666992 150.333 -18.167 193 -52.5s64 -81.833 64 -142.5c0 -33.333 -7.33301 -61.833 -22 -85.5s-34.334 -42.167 -59.001 -55.5c39.333 -13.333 70.166 -36 92.499 -68s33.5 -69 33.5 -111c0 -72 -24.667 -127.5 -74 -166.5
s-123 -58.5 -221 -58.5h-185zM205.002 133h89.001c37.333 -0.666992 66.166 7.33301 86.499 24s30.5 39.667 30.5 69s-10 52.5 -30 69.5s-49 25.833 -87 26.5h-89v-189zM205.003 455h64.001c31.333 0 55.166 6.83301 71.499 20.5s24.833 32.167 25.5 55.5
c0 25.333 -8.33301 44.333 -25 57s-40.667 19 -72 19h-64v-152z" />
    <glyph glyph-name="C" unicode="C" horiz-adv-x="780" 
d="M760 528l-155.999 -0.000976562c-23.333 29.333 -51 52 -83 68s-66.333 24 -103 24c-72.667 0 -132.667 -25 -180 -75s-71 -108.333 -71 -175c0 -70 24.333 -130.167 73 -180.5s108.334 -75.166 179.001 -74.499c34 0 66.5 7 97.5 21s57.833 35.667 80.5 65h159
c-32 -67.333 -77.5 -120.666 -136.5 -159.999s-127.167 -59 -204.5 -59c-108.667 0 -200 37.333 -274 112s-111 166.667 -111 276c0 106 37.167 196.333 111.5 271s166.166 112 275.499 112c76.667 0 145.167 -19.833 205.5 -59.5s106.166 -94.834 137.499 -165.501z" />
    <glyph glyph-name="D" unicode="D" horiz-adv-x="700" 
d="M68 0v740.001h205c123.333 0 220.333 -31.5 291 -94.5s106 -156.167 106 -279.5c0 -108.667 -32.667 -196.834 -98 -264.501s-164 -101.5 -296 -101.5h-208zM205 133.001h66.999c84 -0.666992 148.333 18 193 56s67.334 97 68.001 177
c0 82.667 -23.167 143.5 -69.5 182.5s-112.5 58.5 -198.5 58.5h-60v-474z" />
    <glyph glyph-name="E" unicode="E" horiz-adv-x="520" 
d="M68 0v740h397v-133h-260v-171h249v-133h-249v-170h260v-133h-397z" />
    <glyph glyph-name="F" unicode="F" horiz-adv-x="480" 
d="M68 0v740h376v-133h-239v-171h228v-133h-228v-303h-137z" />
    <glyph glyph-name="G" unicode="G" horiz-adv-x="840" 
d="M336 377l482 0.000976562c-2 -116 -38.667 -210.833 -110 -284.5s-165.666 -110.5 -282.999 -110.5c-113.333 0 -207.666 35.833 -282.999 107.5s-112.666 163.5 -111.999 275.5c0 110.667 38 203 114 277s169 111 279 111c84.667 0 158.667 -20.5 222 -61.5
s108.666 -97.5 135.999 -169.5h-164c-20.667 32.667 -47.834 57.167 -81.501 73.5s-71.167 24.5 -112.5 24.5c-73.333 0 -134.333 -23.667 -183 -71s-73 -107 -73 -179c-0.666992 -68 22.666 -127.5 69.999 -178.5s111.333 -76.5 192 -76.5
c47.333 -0.666992 90.333 10.166 129 32.499s67.667 55.833 87 100.5h-309v129z" />
    <glyph glyph-name="H" unicode="H" horiz-adv-x="680" 
d="M68 0v740h137v-297h270v297h137v-740h-137v310h-270v-310h-137z" />
    <glyph glyph-name="I" unicode="I" horiz-adv-x="280" 
d="M71 0v740h137v-740h-137z" />
    <glyph glyph-name="J" unicode="J" horiz-adv-x="480" 
d="M412 740v-522c0 -80 -17.667 -139.333 -53 -178s-84 -58 -146 -58c-56 0 -104 17.833 -144 53.5s-60.667 80.5 -62 134.5h137c2 -18 8 -31.667 18 -41s25 -14 45 -14c24 0 41.167 7 51.5 21s15.833 38.333 16.5 73v531h137z" />
    <glyph glyph-name="K" unicode="K" horiz-adv-x="620" 
d="M68 0v740h137v-321l230 321h164l-279 -364l279 -376h-164l-230 324v-324h-137z" />
    <glyph glyph-name="L" unicode="L" horiz-adv-x="440" 
d="M68 0v740h137v-607h226v-133h-363z" />
    <glyph glyph-name="M" unicode="M" horiz-adv-x="900" 
d="M68 0v740h186l196 -566l196 566h186v-740h-137v554l-187 -554h-116l-187 554v-554h-137z" />
    <glyph glyph-name="N" unicode="N" horiz-adv-x="740" 
d="M68 0v740h137l330 -500v500h137v-740h-137l-330 500v-500h-137z" />
    <glyph glyph-name="O" unicode="O" horiz-adv-x="840" 
d="M420 753c110 0 202.497 -37.667 277.497 -113s112.5 -166.666 112.5 -273.999s-37.667 -198.166 -113 -272.499s-167.666 -111.5 -276.999 -111.5c-110 0 -202.667 37.167 -278 111.5s-112.666 165.166 -111.999 272.499c0 107.333 37.333 198.666 112 273.999
s167.334 113 278.001 113zM418.997 115c72 0 132.334 24.833 181.001 74.5s73 109.5 73 179.5c0 69.333 -24.333 128.5 -73 177.5s-108.667 73.5 -180 73.5c-72 0 -132.167 -24.5 -180.5 -73.5s-72.5 -108.167 -72.5 -177.5c0 -70.667 24.167 -130.667 72.5 -180
s108.166 -74 179.499 -74z" />
    <glyph glyph-name="P" unicode="P" 
d="M68 0v740h207c84.667 -0.666992 150 -21.5 196 -62.5s69 -97.167 69 -168.5c0 -67.333 -22.333 -122.333 -67 -165s-110.667 -64 -198 -64h-70v-280h-137zM205 607l-0.000976562 -194h81c37.333 0 66 8 86 24s30.333 40.333 31 73c0 32 -10.167 56.167 -30.5 72.5
s-49.166 24.5 -86.499 24.5h-81z" />
    <glyph glyph-name="Q" unicode="Q" horiz-adv-x="840" 
d="M826 105v-123.002c-38 -0.666992 -73.333 3.83301 -106 13.5s-61.334 23.834 -86.001 42.501c-30.667 -18 -64 -31.833 -100 -41.5s-73.333 -14.5 -112 -14.5c-108 0 -200.333 37 -277 111s-115 164.667 -115 272c0 112.667 37 205.5 111 278.5s166 109.5 276 109.5
c112.667 0 206.334 -35.667 281.001 -107s112 -165 112 -281c0 -45.333 -6.83301 -88.166 -20.5 -128.499s-35.167 -77.5 -64.5 -111.5c13.333 -8 28.5 -13.667 45.5 -17s35.5 -4.33301 55.5 -3zM211 223.998c23.333 -34.667 55.001 -61.498 95.001 -80.498
s83 -28.5 129 -28.5c14 -0.666992 28.167 1.16602 42.5 5.49902s28.166 10.5 41.499 18.5c-37.333 29.333 -77.5 52.833 -120.5 70.5s-82.833 26.5 -119.5 26.5c-12.667 -0.666992 -24.5 -1.83398 -35.5 -3.50098s-21.833 -4.5 -32.5 -8.5zM169.001 334
c16.667 4 32.999 7.16504 48.999 9.49805s33.667 3.5 53 3.5c64.667 0 126.167 -12.667 184.5 -38s111.833 -60.333 160.5 -105c18 19.333 31.833 42.333 41.5 69s14.834 56.667 15.501 90c0 74.667 -24.167 136.167 -72.5 184.5s-107.833 72.5 -178.5 72.5
c-74 0 -135 -23.667 -183 -71s-72 -105.666 -72 -174.999v-22.5c0 -6.33301 0.666992 -12.166 2 -17.499z" />
    <glyph glyph-name="R" unicode="R" horiz-adv-x="580" 
d="M68 0v739.999h214c89.333 0 158 -21 206 -63s72 -99.333 72 -172c0 -60.667 -18.5 -113.167 -55.5 -157.5s-85.167 -69.166 -144.5 -74.499l208 -273h-169l-192 273h-2v-273h-137zM205 606.999v-220h81c42 0 75.333 8.83301 100 26.5s37 45.5 37 83.5
c-0.666992 37.333 -13.167 65 -37.5 83s-57.5 27 -99.5 27h-81z" />
    <glyph glyph-name="S" unicode="S" horiz-adv-x="520" 
d="M14 208l142.998 0.00292969c0.666992 -28.667 10.5 -51.334 29.5 -68.001s42.167 -25 69.5 -25c29.333 0 53.333 8.66699 72 26s28 39.666 28 66.999c0 26.667 -8.66699 49.834 -26 69.501s-44.666 35.834 -81.999 48.501c-38 12 -58.667 18.667 -62 20
s-6.66602 3 -9.99902 5c-46 18.667 -80 45 -102 79s-33 71.667 -33 113c0 60 21.167 110 63.5 150s94.5 60 156.5 60c59.333 0 109 -19.333 149 -58s61.667 -89.334 65 -152.001h-141c-0.666992 22.667 -8 41.167 -22 55.5s-32.333 21.5 -55 21.5
c-23.333 -0.666992 -42.5 -7.83398 -57.5 -21.501s-22.167 -32.5 -21.5 -56.5c0 -21.333 6.83301 -39 20.5 -53s38.5 -26.333 74.5 -37l45 -15.5l25 -8.5c45.333 -18.667 81.666 -45.667 108.999 -81s41 -79 41 -131c0 -66.667 -22.667 -122.334 -68 -167.001
s-102.666 -67 -171.999 -67c-68.667 0 -125.667 21.667 -171 65s-68 97 -68 161z" />
    <glyph glyph-name="T" unicode="T" horiz-adv-x="420" 
d="M142 0v607h-137v133h411v-133h-137v-607h-137z" />
    <glyph glyph-name="U" unicode="U" horiz-adv-x="640" 
d="M68 740h137v-467c-0.666992 -55.333 8.5 -95.5 27.5 -120.5s48.5 -37.5 88.5 -37.5c39.333 0 68.166 12.333 86.499 37s27.5 65 27.5 121v467h137v-462c0 -90 -21.5 -161.833 -64.5 -215.5s-105.5 -80.5 -187.5 -80.5c-75.333 0 -136.166 24.5 -182.499 73.5
s-69.5 123.167 -69.5 222.5v462z" />
    <glyph glyph-name="V" unicode="V" horiz-adv-x="700" 
d="M293 0l-286 740h144l199 -563l199 563h144l-286 -740h-114z" />
    <glyph glyph-name="W" unicode="W" horiz-adv-x="900" 
d="M220 0l-215 740h140l129 -518l126 518h100l126 -518l129 518h140l-215 -740h-109l-121 489l-121 -489h-109z" />
    <glyph glyph-name="X" unicode="X" horiz-adv-x="680" 
d="M5 0l255 370l-255 370h160l175 -257l176 257h160l-256 -370l256 -370h-160l-176 256l-175 -256h-160z" />
    <glyph glyph-name="Y" unicode="Y" horiz-adv-x="620" 
d="M242 0v273l-243 467h150l162 -341l161 341h150l-243 -467v-273h-137z" />
    <glyph glyph-name="Z" unicode="Z" horiz-adv-x="500" 
d="M18 0v133l282 474h-266v133h430v-133l-282 -474h298v-133h-462z" />
    <glyph glyph-name="bracketleft" unicode="[" horiz-adv-x="320" 
d="M292 15v-142.998c-34 6.66699 -65.333 18.667 -94 36s-52 38.333 -70 63c-19.333 25.333 -33.166 53.666 -41.499 84.999s-12.5 70.666 -12.5 117.999v264c0 46.667 4.16699 85.667 12.5 117s22.166 60 41.499 86c18 24.667 41.333 45.667 70 63s60 29.333 94 36v-143
c-30 -10 -51.167 -27 -63.5 -51s-18.166 -60 -17.499 -108v-264c-0.666992 -48.667 5.16602 -85 17.499 -109s33.5 -40.667 63.5 -50z" />
    <glyph glyph-name="backslash" unicode="\" horiz-adv-x="640" 
d="M399 0l-315 740h104l315 -740h-104z" />
    <glyph glyph-name="bracketright" unicode="]" horiz-adv-x="320" 
d="M28 597v142.998c33.333 -6.66699 64.333 -18.667 93 -36s52.334 -38.333 71.001 -63c18.667 -26 32.167 -54.667 40.5 -86s12.833 -70.333 13.5 -117v-264c-0.666992 -47.333 -5.16699 -86.666 -13.5 -117.999s-21.833 -59.666 -40.5 -84.999
c-18.667 -24.667 -42.334 -45.667 -71.001 -63s-59.667 -29.333 -93 -36v143c29.333 9.33301 50 26 62 50s18.333 60.333 19 109v264c-0.666992 48 -7 84 -19 108s-32.667 41 -62 51z" />
    <glyph glyph-name="asciicircum" unicode="^" horiz-adv-x="600" 
d="M300 594l-156 -414h-134l230 560h120l230 -560h-134z" />
    <glyph glyph-name="underscore" unicode="_" horiz-adv-x="500" 
d="M500 -138h-500v90h500v-90z" />
    <glyph glyph-name="grave" unicode="`" horiz-adv-x="420" 
d="M124 840l222 -135l-53 -92l-226 125z" />
    <glyph glyph-name="a" unicode="a" horiz-adv-x="660" 
d="M606 554l-0.00195312 -554.001h-122v75h-2c-23.333 -31.333 -51.166 -54.5 -83.499 -69.5s-66.166 -22.833 -101.499 -23.5c-74 0 -137.667 26.667 -191 80s-80 123.333 -80 210c0 86 26.5 157.5 79.5 214.5s118.167 85.5 195.5 85.5c38.667 0 73.5 -8.16699 104.5 -24.5
s56.5 -40.166 76.5 -71.499h2v78h122zM321.998 445.999c-48 0 -87.166 -16.5 -117.499 -49.5s-45.5 -74.5 -45.5 -124.5c-0.666992 -48 14.166 -87.333 44.499 -118s69.833 -46 118.5 -46c47.333 0 85.666 15.667 114.999 47s44 72.333 44 123c0 48 -14.667 88 -44 120
s-67.666 48 -114.999 48z" />
    <glyph glyph-name="b" unicode="b" horiz-adv-x="660" 
d="M54 740l132.998 -0.000976562v-244h2c20.667 24 45.5 42.667 74.5 56s60.5 20 94.5 20c80.667 0 146.834 -27.167 198.501 -81.5s77.5 -125.5 77.5 -213.5c0 -86 -25.833 -156.667 -77.5 -212s-116.5 -83 -194.5 -83c-41.333 0 -77.666 8.33301 -108.999 25
s-56.333 39.334 -75 68.001h-2v-75h-122v740zM343.998 445.999c-46.667 0 -85.833 -15.501 -117.5 -46.501s-47.5 -69.5 -47.5 -115.5c0 -50 15.5 -91.833 46.5 -125.5s70.5 -50.5 118.5 -50.5c46 0 83.667 15.833 113 47.5s44 71.834 44 120.501
c0 49.333 -14.5 90 -43.5 122s-66.833 48 -113.5 48z" />
    <glyph glyph-name="c" unicode="c" horiz-adv-x="640" 
d="M460 180l149.998 -0.00292969c-22 -60.667 -56.5 -108.834 -103.5 -144.501s-103.833 -53.5 -170.5 -53.5c-88 0 -161 28 -219 84s-87 127.667 -87 215c0 82.667 28.5 151.834 85.5 207.501s128.833 83.5 215.5 83.5c68.667 0 127.667 -18.333 177 -55
s83.333 -85.667 102 -147h-150c-13.333 24.667 -31.166 43.334 -53.499 56.001s-48.166 19.334 -77.499 20.001c-51.333 0 -91.833 -16.167 -121.5 -48.5s-44.5 -71.833 -44.5 -118.5c0 -49.333 15.167 -90.333 45.5 -123s70.5 -48.667 120.5 -48
c28 0 53.5 5.83301 76.5 17.5s41.167 29.834 54.5 54.501z" />
    <glyph glyph-name="d" unicode="d" horiz-adv-x="660" 
d="M606 740v-739.999h-122v75h-2c-22 -30.667 -48.5 -53.667 -79.5 -69s-65.167 -23.333 -102.5 -24c-75.333 0 -139.833 28 -193.5 84s-80.5 125.667 -80.5 209c-0.666992 85.333 26 156.166 80 212.499s120 84.5 198 84.5c36 -0.666992 68 -7.5 96 -20.5
s51.667 -31.167 71 -54.5h2v243h133zM319 446.001c-46 0 -84.168 -15.833 -114.501 -47.5s-45.5 -72.167 -45.5 -121.5c0 -48.667 14.833 -89 44.5 -121s68.167 -48 115.5 -48c46.667 -0.666992 85.334 15 116.001 47s46 72.667 46 122c0 48.667 -15.5 89 -46.5 121
s-69.5 48 -115.5 48z" />
    <glyph glyph-name="e" unicode="e" horiz-adv-x="640" 
d="M607 218h-434.001c8 -34 25.167 -60.833 51.5 -80.5s57.5 -29.5 93.5 -29.5c26.667 -0.666992 50.5 3.5 71.5 12.5s38.5 22.167 52.5 39.5h150c-23.333 -55.333 -58.666 -98.833 -105.999 -130.5s-101.666 -47.5 -162.999 -47.5c-83.333 0 -153 28 -209 84
s-84 125 -84 207s28.167 152.333 84.5 211s126.5 88 210.5 88c83.333 0 151.5 -28.333 204.5 -85s79.833 -126.667 80.5 -210c0 -13.333 -0.333008 -24.5 -1 -33.5s-1.33398 -17.5 -2.00098 -25.5zM170.999 336l300.003 0.000976562c-9.33301 34 -27.333 60.833 -54 80.5
s-57.334 29.5 -92.001 29.5c-36.667 -0.666992 -68.834 -10.834 -96.501 -30.501s-46.834 -46.167 -57.501 -79.5z" />
    <glyph glyph-name="f" unicode="f" horiz-adv-x="280" 
d="M57 0v436h-47v118h47v6c-0.666992 60 16.5 106.833 51.5 140.5s81.833 50.834 140.5 51.501h25v-133h-17c-20 -0.666992 -36.167 -6.33398 -48.5 -17.001s-18.5 -24.667 -18.5 -42v-6h84v-118h-84v-436h-133z" />
    <glyph glyph-name="g" unicode="g" horiz-adv-x="660" 
d="M606 554l0.000976562 -470.002c0 -94 -29.167 -167.333 -87.5 -220s-128.5 -79 -210.5 -79c-67.333 0 -126.333 18 -177 54s-84 85.667 -100 149h153c8 -25.333 23.667 -44.333 47 -57s49 -19.334 77 -20.001c45.333 0 84 14.833 116 44.5s48.333 64.834 49 105.501v20
h-2c-18.667 -27.333 -41.834 -48.666 -69.501 -63.999s-59.5 -23 -95.5 -23c-77.333 0 -143.333 28.333 -198 85s-82 125.334 -82 206.001c0 83.333 27.667 152 83 206s122 81 200 81c38.667 0 72.667 -8 102 -24s53 -39.333 71 -70h2v76h122zM320.001 445.998
c-50.667 0 -90.167 -15.832 -118.5 -47.499s-42.5 -69.167 -42.5 -112.5c0 -46.667 14.167 -86 42.5 -118s67.833 -48 118.5 -48c48 0 86.833 15.333 116.5 46s44.5 69 44.5 115c0 49.333 -14.833 89.166 -44.5 119.499s-68.5 45.5 -116.5 45.5z" />
    <glyph glyph-name="h" unicode="h" horiz-adv-x="600" 
d="M54 0l-0.000976562 740h133v-228c16.667 20 37.5 35 62.5 45s51.833 15 80.5 15c64.667 0 116.667 -22.167 156 -66.5s59.333 -104.833 60 -181.5v-324h-133v294c-0.666992 50.667 -10.667 88.667 -30 114s-46.333 38 -81 38c-38.667 0 -67.667 -13 -87 -39
s-28.666 -63.667 -27.999 -113v-294h-133z" />
    <glyph glyph-name="i" unicode="i" horiz-adv-x="240" 
d="M54 0v554h133v-554h-133zM54 618v122h133v-122h-133z" />
    <glyph glyph-name="j" unicode="j" horiz-adv-x="260" 
d="M206 554v-526.001c0 -71.333 -17.667 -124.5 -53 -159.5s-80.333 -52.833 -135 -53.5v129c17.333 -2 30.833 2.83301 40.5 14.5s14.5 34.834 14.5 69.501v526h133zM73 617.999v122h133v-122h-133z" />
    <glyph glyph-name="k" unicode="k" horiz-adv-x="580" 
d="M54 0v740h133v-447l178 261h157l-200 -271l233 -283h-178l-190 259v-259h-133z" />
    <glyph glyph-name="l" unicode="l" horiz-adv-x="240" 
d="M54 0v740h133v-740h-133z" />
    <glyph glyph-name="m" unicode="m" horiz-adv-x="940" 
d="M54 0l-0.000976562 554h122v-51h2c15.333 22 35.833 39 61.5 51s53.167 18 82.5 18c34 0 65.333 -7.83301 94 -23.5s51.334 -36.5 68.001 -62.5c20.667 28 45.834 49.333 75.501 64s63.5 22 101.5 22c68 0 122.667 -22.167 164 -66.5s62 -104.833 62 -181.5v-324h-133
v294c0 50 -9 87.833 -27 113.5s-45.333 38.5 -82 38.5c-36.667 -0.666992 -63.834 -13.667 -81.501 -39s-26.5 -63 -26.5 -113v-294h-133v294c0 50 -9 87.833 -27 113.5s-45.333 38.5 -82 38.5s-64 -12.833 -82 -38.5s-26.667 -63.5 -26 -113.5v-294h-133z" />
    <glyph glyph-name="n" unicode="n" horiz-adv-x="600" 
d="M54 0l-0.00292969 554h122v-51h2c17.333 22 38.833 39 64.5 51s54.834 18 87.501 18c64.667 0 116.834 -22.167 156.501 -66.5s59.5 -104.833 59.5 -181.5v-324h-133v294c-0.666992 50.667 -10.667 88.667 -30 114s-46.333 38 -81 38c-38.667 0 -67.667 -13 -87 -39
s-28.666 -63.667 -27.999 -113v-294h-133z" />
    <glyph glyph-name="o" unicode="o" horiz-adv-x="640" 
d="M320 572c83.333 0 153.166 -29 209.499 -87s84.5 -127.667 84.5 -209c0 -82 -28.167 -151.5 -84.5 -208.5s-126.166 -85.5 -209.499 -85.5c-84 0 -154 28.5 -210 85.5s-84 126.5 -84 208.5c0 81.333 28 151 84 209s126 87 210 87zM320 446
c-48 0 -86.833 -16.666 -116.5 -49.999s-44.5 -73.333 -44.5 -120c-0.666992 -46.667 14 -86.334 44 -119.001s69 -49 117 -49c47.333 -0.666992 86 15.5 116 48.5s45 72.833 45 119.5s-15 86.667 -45 120s-68.667 50 -116 50z" />
    <glyph glyph-name="p" unicode="p" horiz-adv-x="660" 
d="M54 -185l0.000976562 739.002h122v-72h2c16.667 27.333 40.667 49.166 72 65.499s66.666 24.5 105.999 24.5c77.333 0 143 -27.333 197 -82s81 -125.667 81 -213c0 -80.667 -25.333 -150 -76 -208s-118 -87 -202 -87c-32.667 0 -63.5 6.16699 -92.5 18.5
s-53.833 32.166 -74.5 59.499h-2v-245h-133zM342.001 446.002c-48.667 -0.666992 -88 -16.832 -118 -48.499s-45 -71.834 -45 -120.501c0 -52 14.667 -93.167 44 -123.5s67.333 -45.5 114 -45.5c47.333 0 86.333 16 117 48s46.334 72.667 47.001 122
c-0.666992 48 -15.834 88 -45.501 120s-67.5 48 -113.5 48z" />
    <glyph glyph-name="q" unicode="q" horiz-adv-x="660" 
d="M606 554v-739.001h-133v245h-2c-18.667 -25.333 -42 -44.666 -70 -57.999s-60.333 -20 -97 -20c-82 0 -148.833 27.5 -200.5 82.5s-77.5 125.833 -77.5 212.5c0 86 27.167 156.667 81.5 212s119.5 83 195.5 83c40.667 0 76.167 -8 106.5 -24s54.5 -38 72.5 -66h2v72h122z
M319 445.999c-48 0 -86.665 -15.834 -115.998 -47.501s-44 -72.167 -44 -121.5c-0.666992 -48 13.166 -88.167 41.499 -120.5s67.833 -48.5 118.5 -48.5c47.333 0 86.166 15.833 116.499 47.5s45.5 71.5 45.5 119.5c-0.666992 50 -16 90.833 -46 122.5
s-68.667 47.834 -116 48.501z" />
    <glyph glyph-name="r" unicode="r" horiz-adv-x="320" 
d="M54 0l0.000976562 554h122v-50h2c12.667 23.333 30.5 41 53.5 53s47.833 17 74.5 15v-129c-38.667 0 -68.334 -11.5 -89.001 -34.5s-30.667 -59.5 -30 -109.5v-299h-133z" />
    <glyph glyph-name="s" unicode="s" horiz-adv-x="440" 
d="M19 174h132.997c0.666992 -20.667 7.83398 -36.834 21.501 -48.501s30.834 -17.5 51.501 -17.5c18 -0.666992 32.833 4 44.5 14s17.5 24.333 17.5 43c-0.666992 12 -4.33398 22.5 -11.001 31.5s-19.667 17.5 -39 25.5l-12.5 4
c-4.33301 1.33301 -19.166 6.33301 -44.499 15c-49.333 15.333 -85.166 36 -107.499 62s-33.5 58.667 -33.5 98c0 48 17.667 88.5 53 121.5s80 49.5 134 49.5c50 0 91.667 -15.833 125 -47.5s51.333 -72.5 54 -122.5h-133c-2 14 -7.33301 24.833 -16 32.5s-20 11.5 -34 11.5
c-15.333 0 -27.5 -4.33301 -36.5 -13s-13.5 -20 -13.5 -34c0 -14.667 5.33301 -26.667 16 -36s33.667 -18 69 -26c58.667 -14.667 100.5 -35 125.5 -61s37.5 -60.333 37.5 -103c0 -54.667 -18.667 -100.167 -56 -136.5s-85.333 -54.5 -144 -54.5
c-62 0 -111 18.833 -147 56.5s-54 82.834 -54 135.501z" />
    <glyph glyph-name="t" unicode="t" horiz-adv-x="300" 
d="M74 0v436h-65v118h65v186h133v-186h80v-118h-80v-436h-133z" />
    <glyph glyph-name="u" unicode="u" horiz-adv-x="600" 
d="M546 554l-0.00390625 -554h-122v51h-2c-18 -22 -39.167 -39 -63.5 -51s-51.166 -18 -80.499 -18c-75.333 0 -131.666 23.167 -168.999 69.5s-55.666 113.833 -54.999 202.5v300h133v-282c-0.666992 -57.333 8.33301 -99.166 27 -125.499s47.334 -39.166 86.001 -38.499
c38 -0.666992 66.333 12.166 85 38.499s28 68.166 28 125.499v282h133z" />
    <glyph glyph-name="v" unicode="v" 
d="M225 0l-224 554h148l128 -364l128 364h148l-224 -554h-104z" />
    <glyph glyph-name="w" unicode="w" horiz-adv-x="799" 
d="M210 0l-200 554h141l102 -338l92 338h104l92 -338l102 338h141l-200 -554h-82l-105 359l-105 -359h-82z" />
    <glyph glyph-name="x" unicode="x" 
d="M4 0l187 284l-172 270h155l105 -166l105 166h155l-176 -270l193 -284h-164l-112 179l-112 -179h-164z" />
    <glyph glyph-name="y" unicode="y" horiz-adv-x="580" 
d="M417 554h151l-318 -739h-143l102 237l-203 502h151l127 -355z" />
    <glyph glyph-name="z" unicode="z" horiz-adv-x="460" 
d="M20 0v118l246 318h-218v118h377v-118l-246 -318h263v-118h-422z" />
    <glyph glyph-name="braceleft" unicode="{" horiz-adv-x="340" 
d="M36 261l-0.000976562 90.0029c12 0 23.833 3 35.5 9s21.5 14.667 29.5 26c6 8.66699 10.333 18.167 13 28.5s4.33398 25.5 5.00098 45.5v146c-0.666992 30 2 52.667 8 68s16 28.666 30 39.999c10 8 22.333 14.167 37 18.5s32.667 6.83301 54 7.5h56v-90h-10
c-24 0 -42 -6.33301 -54 -19s-18 -36 -18 -70v-127c0 -40.667 -7.66699 -71.167 -23 -91.5s-37.666 -32.166 -66.999 -35.499v-2c29.333 -4 51.5 -16.167 66.5 -36.5s22.833 -50.5 23.5 -90.5v-127c-0.666992 -34 5.16602 -57.333 17.499 -70s30.5 -19 54.5 -19h10v-90h-56
c-21.333 0 -39.333 2.33301 -54 7s-27 11 -37 19c-14 11.333 -23.833 24.666 -29.5 39.999s-8.5 38 -8.5 68v146c0 19.333 -1.5 34.166 -4.5 44.499s-7.5 20.166 -13.5 29.499c-8 10.667 -17.833 19 -29.5 25s-23.5 9.33301 -35.5 10z" />
    <glyph glyph-name="bar" unicode="|" horiz-adv-x="600" 
d="M241 0v740h119v-740h-119z" />
    <glyph glyph-name="braceright" unicode="}" horiz-adv-x="340" 
d="M304 351l-0.000976562 -90.0029c-12.667 -0.666992 -24.834 -4 -36.501 -10s-21.167 -14.333 -28.5 -25c-6.66699 -9.33301 -11.5 -19.166 -14.5 -29.499s-4.16699 -25.166 -3.5 -44.499v-146c0 -30 -3 -52.667 -9 -68s-15.667 -28.666 -29 -39.999
c-10.667 -8 -23.334 -14.333 -38.001 -19s-32.334 -7 -53.001 -7h-56v90h10c23.333 0.666992 41 7.16699 53 19.5s18.333 35.5 19 69.5v127c-0.666992 40 6.66602 70.167 21.999 90.5s38 32.5 68 36.5v2c-30 3.33301 -52.667 15.166 -68 35.499s-22.666 50.833 -21.999 91.5
v127c-0.666992 34 -7 57.333 -19 70s-29.667 19 -53 19h-10v90h56c20.667 0 38.334 -2.33301 53.001 -7s27.334 -11 38.001 -19c13.333 -11.333 22.833 -24.666 28.5 -39.999s8.83398 -38 9.50098 -68v-146c-0.666992 -20 0.5 -35.167 3.5 -45.5s7.83301 -19.833 14.5 -28.5
c7.33301 -11.333 16.833 -20 28.5 -26s23.834 -9 36.501 -9z" />
    <glyph glyph-name="asciitilde" unicode="~" horiz-adv-x="600" 
d="M488 421l63.999 -73c-23.333 -42.667 -46.333 -73 -69 -91s-47.667 -26.667 -75 -26c-17.333 0 -36.833 3.16699 -58.5 9.5s-46.834 17.166 -75.501 32.499c-18 8.66699 -32.667 14.834 -44 18.501s-21.666 5.5 -30.999 5.5c-16 0 -31.667 -6.83301 -47 -20.5
s-28.666 -34.167 -39.999 -61.5l-64 74c19.333 41.333 42 72.166 68 92.499s53 30.833 81 31.5c16 0 34.833 -3.5 56.5 -10.5s49.5 -18.5 83.5 -34.5c16 -8 29.333 -13.667 40 -17s20.667 -4.66602 30 -3.99902c14 0 27.5 5.66699 40.5 17s26.5 30.333 40.5 57z" />
    <glyph glyph-name="afii10051" horiz-adv-x="700" 
d="M145 0v606.999h-137v133h491v-133h-217v-152h143c76.667 -0.666992 136.667 -21.167 180 -61.5s65 -95.833 65 -166.5c0 -67.333 -22.833 -122 -68.5 -164s-104.5 -63 -176.5 -63h-50v133h51c31.333 0 57 8.33301 77 25s30 39.667 30 69s-10 52.333 -30 69
s-45.667 25.334 -77 26.001h-144v-322h-137z" />
    <glyph glyph-name="afii10051" unicode="&#x402;" horiz-adv-x="700" 
d="M145 0v606.999h-137v133h491v-133h-217v-152h143c76.667 -0.666992 136.667 -21.167 180 -61.5s65 -95.833 65 -166.5c0 -67.333 -22.833 -122 -68.5 -164s-104.5 -63 -176.5 -63h-50v133h51c31.333 0 57 8.33301 77 25s30 39.667 30 69s-10 52.333 -30 69
s-45.667 25.334 -77 26.001h-144v-322h-137z" />
    <glyph glyph-name="afii10052" horiz-adv-x="440" 
d="M68 0v740h370v-133h-233v-607h-137zM133 879l242 101l37 -110l-242 -90z" />
    <glyph glyph-name="afii10052" unicode="&#x403;" horiz-adv-x="440" 
d="M68 0v740h370v-133h-233v-607h-137zM133 879l242 101l37 -110l-242 -90z" />
    <glyph glyph-name="afii10061" horiz-adv-x="620" 
d="M68 0v740h137v-321l230 321h164l-279 -364l279 -376h-164l-230 324v-324h-137zM213 879l242 101l37 -110l-242 -90z" />
    <glyph glyph-name="afii10061" unicode="&#x40c;" horiz-adv-x="620" 
d="M68 0v740h137v-321l230 321h164l-279 -364l279 -376h-164l-230 324v-324h-137zM213 879l242 101l37 -110l-242 -90z" />
    <glyph glyph-name="afii10060" horiz-adv-x="720" 
d="M145 0v607.002h-137v133h491v-133h-217v-148h135c44.667 -0.666992 81 -4.83398 109 -12.501s51.667 -19.167 71 -34.5c22 -18.667 38.667 -41.834 50 -69.501s17 -63.167 17 -106.5v-236h-137v218c0 24 -2.16699 42 -6.5 54s-10.833 22.333 -19.5 31
c-8.66699 7.33301 -19.5 13 -32.5 17s-29.833 6 -50.5 6h-136v-326h-137z" />
    <glyph glyph-name="afii10060" unicode="&#x40b;" horiz-adv-x="720" 
d="M145 0v607.002h-137v133h491v-133h-217v-148h135c44.667 -0.666992 81 -4.83398 109 -12.501s51.667 -19.167 71 -34.5c22 -18.667 38.667 -41.834 50 -69.501s17 -63.167 17 -106.5v-236h-137v218c0 24 -2.16699 42 -6.5 54s-10.833 22.333 -19.5 31
c-8.66699 7.33301 -19.5 13 -32.5 17s-29.833 6 -50.5 6h-136v-326h-137z" />
    <glyph glyph-name="afii10145" horiz-adv-x="679" 
d="M611 740v-740h-203v-185h-137v185h-203v740h137v-607h269v607h137z" />
    <glyph glyph-name="afii10145" unicode="&#x40f;" horiz-adv-x="679" 
d="M611 740v-740h-203v-185h-137v185h-203v740h137v-607h269v607h137z" />
    <glyph glyph-name="afii10099" horiz-adv-x="600" 
d="M54 0l-0.000976562 594.999h-100v114h100v31h133v-31h267v-114h-267v-155c16.667 20 37.5 35 62.5 45s51.833 15 80.5 15c64.667 0 116.834 -22.167 156.501 -66.5s59.5 -104.833 59.5 -181.5v-204c-0.666992 -42 -6.33398 -76.167 -17.001 -102.5
s-26.667 -49.166 -48 -68.499c-24 -20 -52.167 -35.333 -84.5 -46s-65.166 -16 -98.499 -16v126c34 -2 61.667 6.33301 83 25s32 46 32 82v170c0 52 -9.5 91 -28.5 117s-46.5 39 -82.5 39c-39.333 0 -68.5 -13 -87.5 -39s-28.167 -66.333 -27.5 -121v-214h-133z" />
    <glyph glyph-name="afii10099" unicode="&#x452;" horiz-adv-x="600" 
d="M54 0l-0.000976562 594.999h-100v114h100v31h133v-31h267v-114h-267v-155c16.667 20 37.5 35 62.5 45s51.833 15 80.5 15c64.667 0 116.834 -22.167 156.501 -66.5s59.5 -104.833 59.5 -181.5v-204c-0.666992 -42 -6.33398 -76.167 -17.001 -102.5
s-26.667 -49.166 -48 -68.499c-24 -20 -52.167 -35.333 -84.5 -46s-65.166 -16 -98.499 -16v126c34 -2 61.667 6.33301 83 25s32 46 32 82v170c0 52 -9.5 91 -28.5 117s-46.5 39 -82.5 39c-39.333 0 -68.5 -13 -87.5 -39s-28.167 -66.333 -27.5 -121v-214h-133z" />
    <glyph glyph-name="afii10109" horiz-adv-x="580" 
d="M54 0v554h133v-254l198 254h158l-221 -260l233 -294h-168l-200 266v-266h-133zM194 705l225 135l54 -102l-229 -125z" />
    <glyph glyph-name="afii10109" unicode="&#x45c;" horiz-adv-x="580" 
d="M54 0v554h133v-254l198 254h158l-221 -260l233 -294h-168l-200 266v-266h-133zM194 705l225 135l54 -102l-229 -125z" />
    <glyph glyph-name="afii10108" horiz-adv-x="600" 
d="M54 0l-0.000976562 595h-100v114h100v31h133v-31h267v-114h-267v-155c16.667 20 37.5 35 62.5 45s51.833 15 80.5 15c64.667 0 116.834 -22.167 156.501 -66.5s59.5 -104.833 59.5 -181.5v-252h-133v222c0 50.667 -9.83301 88.667 -29.5 114s-46.834 38 -81.501 38
c-38.667 0 -67.667 -13 -87 -39s-28.666 -63.667 -27.999 -113v-222h-133z" />
    <glyph glyph-name="afii10108" unicode="&#x45b;" horiz-adv-x="600" 
d="M54 0l-0.000976562 595h-100v114h100v31h133v-31h267v-114h-267v-155c16.667 20 37.5 35 62.5 45s51.833 15 80.5 15c64.667 0 116.834 -22.167 156.501 -66.5s59.5 -104.833 59.5 -181.5v-252h-133v222c0 50.667 -9.83301 88.667 -29.5 114s-46.834 38 -81.501 38
c-38.667 0 -67.667 -13 -87 -39s-28.666 -63.667 -27.999 -113v-222h-133z" />
    <glyph glyph-name="afii10062" unicode="&#xa1;" horiz-adv-x="700" 
d="M691 740l-335 -740h-150l87 188l-284 552h166l195 -394l171 394h150zM190 920h114.999c2 -15.333 8.66699 -27.5 20 -36.5s26.333 -13.5 45 -13.5c18 0 32.667 4.5 44 13.5s18.333 21.167 21 36.5h115c-6.66699 -41.333 -26.167 -75 -58.5 -101s-72.833 -39 -121.5 -39
c-49.333 0 -90.166 13 -122.499 39s-51.5 59.667 -57.5 101z" />
    <glyph glyph-name="afii10062" unicode="&#x40e;" horiz-adv-x="700" 
d="M691 740l-335 -740h-150l87 188l-284 552h166l195 -394l171 394h150zM190 920h114.999c2 -15.333 8.66699 -27.5 20 -36.5s26.333 -13.5 45 -13.5c18 0 32.667 4.5 44 13.5s18.333 21.167 21 36.5h115c-6.66699 -41.333 -26.167 -75 -58.5 -101s-72.833 -39 -121.5 -39
c-49.333 0 -90.166 13 -122.499 39s-51.5 59.667 -57.5 101z" />
    <glyph glyph-name="afii10110" unicode="&#xa2;" horiz-adv-x="580" 
d="M417 554h151l-318 -739h-143l102 237l-203 502h151l127 -355zM130 756h99.999c3.33301 -15.333 10.833 -26.833 22.5 -34.5s25.834 -11.5 42.501 -11.5c16 0 29.833 3.83301 41.5 11.5s19.5 19.167 23.5 34.5h100c-6 -39.333 -24 -71.833 -54 -97.5s-67 -38.5 -111 -38.5
c-44.667 0 -82 12.833 -112 38.5s-47.667 58.167 -53 97.5z" />
    <glyph glyph-name="afii10110" unicode="&#x45e;" horiz-adv-x="580" 
d="M417 554h151l-318 -739h-143l102 237l-203 502h151l127 -355zM130 756h99.999c3.33301 -15.333 10.833 -26.833 22.5 -34.5s25.834 -11.5 42.501 -11.5c16 0 29.833 3.83301 41.5 11.5s19.5 19.167 23.5 34.5h100c-6 -39.333 -24 -71.833 -54 -97.5s-67 -38.5 -111 -38.5
c-44.667 0 -82 12.833 -112 38.5s-47.667 58.167 -53 97.5z" />
    <glyph glyph-name="afii10057" unicode="&#xa3;" horiz-adv-x="480" 
d="M412 740v-522c0 -80 -17.667 -139.333 -53 -178s-84 -58 -146 -58c-56 0 -104 17.833 -144 53.5s-60.667 80.5 -62 134.5h137c2 -18 8 -31.667 18 -41s25 -14 45 -14c24 0 41.167 7 51.5 21s15.833 38.333 16.5 73v531h137z" />
    <glyph glyph-name="afii10057" unicode="&#x408;" horiz-adv-x="480" 
d="M412 740v-522c0 -80 -17.667 -139.333 -53 -178s-84 -58 -146 -58c-56 0 -104 17.833 -144 53.5s-60.667 80.5 -62 134.5h137c2 -18 8 -31.667 18 -41s25 -14 45 -14c24 0 41.167 7 51.5 21s15.833 38.333 16.5 73v531h137z" />
    <glyph glyph-name="currency" unicode="&#xa4;" 
d="M27 227l44.001 43.998c-12.667 20.667 -22 41.667 -28 63s-9 43 -9 65c0 24.667 3 47.834 9 69.501s15.333 42.167 28 61.5l-44 43l79 80l44 -44c19.333 12 39.5 21.333 60.5 28s43.833 10 68.5 10c26 0 50 -3.16699 72 -9.5s42.667 -15.833 62 -28.5l44 44l77 -80
l-44 -43c12 -20 21.333 -40.667 28 -62s10 -44 10 -68c0 -25.333 -3.33301 -48.5 -10 -69.5s-16 -40.833 -28 -59.5l44 -44l-77 -79l-44 44c-19.333 -14 -39.5 -24.167 -60.5 -30.5s-43.833 -9.16602 -68.5 -8.49902c-27.333 0 -51.833 3 -73.5 9s-41.834 16 -60.501 30
l-44 -44zM404.001 399.998c0 32.667 -11.999 61.333 -35.999 86s-53 37 -87 37c-34.667 0 -63.834 -12.333 -87.501 -37s-35.5 -53.334 -35.5 -86.001c-0.666992 -33.333 11 -62.166 35 -86.499s53.333 -36.5 88 -36.5c34 -0.666992 63 11.333 87 36s36 53.667 36 87z" />
    <glyph glyph-name="afii10050" unicode="&#xa5;" horiz-adv-x="460" 
d="M68 0v740h253v130h137v-263h-253v-607h-137z" />
    <glyph glyph-name="afii10050" unicode="&#x490;" horiz-adv-x="460" 
d="M68 0v740h253v130h137v-263h-253v-607h-137z" />
    <glyph glyph-name="brokenbar" unicode="&#xa6;" horiz-adv-x="600" 
d="M243 0v296h119v-296h-119zM243 444v296h119v-296h-119z" />
    <glyph glyph-name="section" unicode="&#xa7;" 
d="M499 565l-125 -0.00195312c-1.33301 20.667 -9 37.5 -23 50.5s-33.333 20.167 -58 21.5c-22.667 0 -40.167 -5.16699 -52.5 -15.5s-18.5 -23.5 -18.5 -39.5c0 -14.667 5.33301 -28 16 -40s28 -23.667 52 -35l143 -72c30 -15.333 53.5 -35.166 70.5 -59.499
s25.5 -52.833 25.5 -85.5c0 -25.333 -6.33301 -49.666 -19 -72.999s-32 -45.666 -58 -66.999c16 -14 28.167 -31.5 36.5 -52.5s12.5 -44.5 12.5 -70.5c-0.666992 -50.667 -20.5 -93.834 -59.5 -129.501s-90.5 -53.5 -154.5 -53.5c-63.333 0 -116.666 18.833 -159.999 56.5
s-66.333 89.167 -69 154.5h132c-0.666992 -28.667 7.66602 -51.5 24.999 -68.5s40 -25.833 68 -26.5c26 0 47.167 6.33301 63.5 19s24.5 28.667 24.5 48c0 13.333 -4.16699 25.5 -12.5 36.5s-25.166 23.5 -50.499 37.5l-158 83c-40 20.667 -68.333 44 -85 70s-25 57 -25 93
c0 29.333 6.66699 57 20 83s33.666 47 60.999 63c-10 12 -17.333 25.833 -22 41.5s-7 33.167 -7 52.5c0 48 18 87.667 54 119s85.333 47 148 47c61.333 -0.666992 110.5 -18.667 147.5 -54s56.167 -80 57.5 -134zM221 288.998l151.999 -78c10 10.667 17.833 21.5 23.5 32.5
s8.5 21.5 8.5 31.5c0 12.667 -4.16699 24 -12.5 34s-26.166 22.333 -53.499 37l-147 76c-10 -8.66699 -17.167 -18.5 -21.5 -29.5s-6.5 -22.5 -6.5 -34.5c-0.666992 -12.667 4 -25.167 14 -37.5s24.333 -22.833 43 -31.5z" />
    <glyph glyph-name="afii10023" unicode="&#xa8;" horiz-adv-x="520" 
d="M68 0v740h397v-133h-260v-171h249v-133h-249v-170h260v-133h-397zM95 920h137v-126h-137v126zM301 920h137v-126h-137v126z" />
    <glyph glyph-name="afii10023" unicode="&#x401;" horiz-adv-x="520" 
d="M68 0v740h397v-133h-260v-171h249v-133h-249v-170h260v-133h-397zM95 920h137v-126h-137v126zM301 920h137v-126h-137v126z" />
    <glyph glyph-name="copyright" unicode="&#xa9;" horiz-adv-x="740" 
d="M371 -18c-106.667 0 -197.5 37.667 -272.5 113s-112.833 166.333 -113.5 273c0 106 37.5 196.667 112.5 272s166.167 113 273.5 113c106 0 196.5 -37.667 271.5 -113s112.833 -166 113.5 -272c0 -107.333 -37.667 -198.5 -113 -273.5s-166 -112.5 -272 -112.5zM371 54
c85.333 0 158.835 30.5 220.502 91.5s92.5 135.167 92.5 222.5c0 86 -30.667 159.667 -92 221s-135 92 -221 92c-87.333 0 -161.5 -30.667 -222.5 -92s-91.5 -135 -91.5 -221c-0.666992 -87.333 29.666 -161.5 90.999 -222.5s135.666 -91.5 222.999 -91.5zM577.002 463
l-90 -0.000976562c-12 16.667 -27.5 29.834 -46.5 39.501s-40.5 14.5 -64.5 14.5c-40 0 -73.167 -14.333 -99.5 -43s-39.5 -62.667 -39.5 -102c0 -41.333 13.333 -76.166 40 -104.499s59.667 -42.5 99 -42.5c21.333 0 41.5 4.16699 60.5 12.5s34.5 20.833 46.5 37.5h92
c-18.667 -38.667 -45 -69.334 -79 -92.001s-73.667 -34 -119 -34c-63.333 0 -115.833 21.167 -157.5 63.5s-62.5 95.5 -62.5 159.5c0 62 21 114.167 63 156.5s93.667 63.833 155 64.5c46 0 86.667 -11.667 122 -35s62 -55 80 -95z" />
    <glyph glyph-name="afii10053" unicode="&#xaa;" horiz-adv-x="775" 
d="M755 528l-156.001 -0.00195312c-24 30.667 -52.833 53.667 -86.5 69s-71.167 23 -112.5 23c-55.333 0 -104 -16.167 -146 -48.5s-71 -77.833 -87 -136.5h374v-130h-374c13.333 -59.333 42 -105.833 86 -139.5s93.333 -50.5 148 -50.5
c38.667 -0.666992 74.667 6.33301 108 21s61 36.334 83 65.001h159c-31.333 -67.333 -76.166 -120.666 -134.499 -159.999s-126.166 -59 -203.499 -59c-108.667 0 -199.667 37.167 -273 111.5s-110 166.5 -110 276.5c-0.666992 108 35.666 198.833 108.999 272.5
s163.333 110.5 270 110.5c79.333 0 149.333 -20 210 -60s106 -95 136 -165z" />
    <glyph glyph-name="afii10053" unicode="&#x404;" horiz-adv-x="775" 
d="M755 528l-156.001 -0.00195312c-24 30.667 -52.833 53.667 -86.5 69s-71.167 23 -112.5 23c-55.333 0 -104 -16.167 -146 -48.5s-71 -77.833 -87 -136.5h374v-130h-374c13.333 -59.333 42 -105.833 86 -139.5s93.333 -50.5 148 -50.5
c38.667 -0.666992 74.667 6.33301 108 21s61 36.334 83 65.001h159c-31.333 -67.333 -76.166 -120.666 -134.499 -159.999s-126.166 -59 -203.499 -59c-108.667 0 -199.667 37.167 -273 111.5s-110 166.5 -110 276.5c-0.666992 108 35.666 198.833 108.999 272.5
s163.333 110.5 270 110.5c79.333 0 149.333 -20 210 -60s106 -95 136 -165z" />
    <glyph glyph-name="guillemotleft" unicode="&#xab;" horiz-adv-x="460" 
d="M108 318l67 -59v-123l-139 131v101l139 130v-123zM321 318l67 -59v-123l-139 131v101l139 130v-123z" />
    <glyph glyph-name="logicalnot" unicode="&#xac;" horiz-adv-x="600" 
d="M434 182v173h-386v118h504v-291h-118z" />
    <glyph glyph-name="hyphen" unicode="&#xad;" horiz-adv-x="420" 
d="M71 377h278v-118h-278v118z" />
    <glyph glyph-name="registered" unicode="&#xae;" horiz-adv-x="740" 
d="M371 -18c-106.667 0 -197.5 37.667 -272.5 113s-112.833 166.333 -113.5 273c0 106 37.5 196.667 112.5 272s166.167 113 273.5 113c106 0 196.5 -37.667 271.5 -113s112.833 -166 113.5 -272c0 -107.333 -37.667 -198.5 -113 -273.5s-166 -112.5 -272 -112.5zM371 54
c85.333 0 158.835 30.5 220.502 91.5s92.5 135.167 92.5 222.5c0 86 -30.667 159.667 -92 221s-135 92 -221 92c-87.333 0 -161.5 -30.667 -222.5 -92s-91.5 -135 -91.5 -221c-0.666992 -87.333 29.666 -161.5 90.999 -222.5s135.666 -91.5 222.999 -91.5zM242.002 152v427
h125c51.333 0 91 -12 119 -36s42 -57 42 -99c0 -34.667 -11 -65.167 -33 -91.5s-49.667 -40.5 -83 -42.5l116 -158h-98l-107 158h-1v-158h-80zM322.002 503v-127h47c24 0 43 5 57 15s21.333 26 22 48c0 21.333 -7.16699 37.333 -21.5 48s-33.5 16 -57.5 16h-47z" />
    <glyph glyph-name="afii10056" unicode="&#xaf;" horiz-adv-x="340" 
d="M102 0v740h137v-740h-137zM9 920h137v-126h-137v126zM195 920h137v-126h-137v126z" />
    <glyph glyph-name="afii10056" unicode="&#x407;" horiz-adv-x="340" 
d="M102 0v740h137v-740h-137zM9 920h137v-126h-137v126zM195 920h137v-126h-137v126z" />
    <glyph glyph-name="degree" unicode="&#xb0;" horiz-adv-x="400" 
d="M350 590c0 -41.333 -14.832 -76.6641 -44.499 -105.997s-64.834 -44 -105.501 -44c-42 0 -77.5 14.667 -106.5 44s-43.5 64.666 -43.5 105.999c-0.666992 41.333 13.666 76.666 42.999 105.999s65 44 107 44c40.667 0 75.834 -14.833 105.501 -44.5
s44.5 -64.834 44.5 -105.501zM290.001 590.002c0 24.667 -9.00098 45.6689 -27.001 63.002s-39.333 26.333 -64 27c-24.667 0 -45.667 -8.83301 -63 -26.5s-26 -38.834 -26 -63.501s8.83301 -45.834 26.5 -63.501s38.834 -26.5 63.501 -26.5c24 -0.666992 45 8 63 26
s27 39.333 27 64z" />
    <glyph glyph-name="plusminus" unicode="&#xb1;" horiz-adv-x="600" 
d="M242 433v137h116v-137h194v-116h-194v-143h-116v143h-194v116h194zM48 0v116h504v-116h-504z" />
    <glyph glyph-name="afii10055" unicode="&#xb2;" horiz-adv-x="280" 
d="M71 0v740h137v-740h-137z" />
    <glyph glyph-name="afii10055" unicode="&#x406;" horiz-adv-x="280" 
d="M71 0v740h137v-740h-137z" />
    <glyph glyph-name="afii10103" unicode="&#xb3;" horiz-adv-x="240" 
d="M54 0v554h133v-554h-133zM54 618v122h133v-122h-133z" />
    <glyph glyph-name="afii10103" unicode="&#x456;" horiz-adv-x="240" 
d="M54 0v554h133v-554h-133zM54 618v122h133v-122h-133z" />
    <glyph glyph-name="afii10098" unicode="&#xb4;" horiz-adv-x="400" 
d="M54 554h204v116h130v-234h-201v-436h-133v554z" />
    <glyph glyph-name="afii10098" unicode="&#x491;" horiz-adv-x="400" 
d="M54 554h204v116h130v-234h-201v-436h-133v554z" />
    <glyph glyph-name="mu" unicode="&#xb5;" horiz-adv-x="576" 
d="M48 554h132.999v-276c0 -60 8.16699 -103.5 24.5 -130.5s43.5 -40.167 81.5 -39.5c36.667 0 63.667 13.5 81 40.5s26.333 70.167 27 129.5v276h133v-554h-122v59h-2c-14 -24 -32.333 -42.667 -55 -56s-47.667 -20.333 -75 -21c-18 0 -34.667 2.83301 -50 8.5
s-29.666 13.167 -42.999 22.5v-198h-133v739z" />
    <glyph glyph-name="paragraph" unicode="&#xb6;" horiz-adv-x="600" 
d="M242 -128l-0.000976562 458c-58 0 -106.667 19 -146 57s-59 87 -59 147c0 61.333 20.333 111 61 149s94.334 57 161.001 57h268v-868h-103v760h-82v-760h-100z" />
    <glyph glyph-name="afii10071" unicode="&#xb8;" horiz-adv-x="640" 
d="M607 218h-434.001c8 -34 25.167 -60.833 51.5 -80.5s57.5 -29.5 93.5 -29.5c26.667 -0.666992 50.5 3.5 71.5 12.5s38.5 22.167 52.5 39.5h150c-23.333 -55.333 -58.666 -98.833 -105.999 -130.5s-101.666 -47.5 -162.999 -47.5c-83.333 0 -153 28 -209 84
s-84 125 -84 207s28.167 152.333 84.5 211s126.5 88 210.5 88c83.333 0 151.5 -28.333 204.5 -85s79.833 -126.667 80.5 -210c0 -13.333 -0.333008 -24.5 -1 -33.5s-1.33398 -17.5 -2.00098 -25.5zM170.999 336l300.003 0.000976562c-9.33301 34 -27.333 60.833 -54 80.5
s-57.334 29.5 -92.001 29.5c-36.667 -0.666992 -68.834 -10.834 -96.501 -30.501s-46.834 -46.167 -57.501 -79.5zM154.002 740.001h133v-120h-133v120zM364.002 740.001h133v-120h-133v120z" />
    <glyph glyph-name="afii10071" unicode="&#x451;" horiz-adv-x="640" 
d="M607 218h-434.001c8 -34 25.167 -60.833 51.5 -80.5s57.5 -29.5 93.5 -29.5c26.667 -0.666992 50.5 3.5 71.5 12.5s38.5 22.167 52.5 39.5h150c-23.333 -55.333 -58.666 -98.833 -105.999 -130.5s-101.666 -47.5 -162.999 -47.5c-83.333 0 -153 28 -209 84
s-84 125 -84 207s28.167 152.333 84.5 211s126.5 88 210.5 88c83.333 0 151.5 -28.333 204.5 -85s79.833 -126.667 80.5 -210c0 -13.333 -0.333008 -24.5 -1 -33.5s-1.33398 -17.5 -2.00098 -25.5zM170.999 336l300.003 0.000976562c-9.33301 34 -27.333 60.833 -54 80.5
s-57.334 29.5 -92.001 29.5c-36.667 -0.666992 -68.834 -10.834 -96.501 -30.501s-46.834 -46.167 -57.501 -79.5zM154.002 740.001h133v-120h-133v120zM364.002 740.001h133v-120h-133v120z" />
    <glyph glyph-name="afii61352" unicode="&#xb9;" horiz-adv-x="1100" 
d="M70 0v740h137l325 -500v500h137v-740h-137l-325 500v-500h-137zM719 560c0 49.333 17.499 91.667 52.499 127s77.5 53 127.5 53c48.667 0 90.667 -17.667 126 -53s53 -77.666 53 -126.999c-0.666992 -50 -18.5 -92.5 -53.5 -127.5s-76.833 -52.5 -125.5 -52.5
c-50 -0.666992 -92.667 16.666 -128 51.999s-52.666 78 -51.999 128zM818.999 560.001c0 -22 7.66699 -40.833 23 -56.5s34 -23.5 56 -23.5c21.333 0 40 7.66699 56 23s24 34.333 24 57c0 22 -7.83301 40.833 -23.5 56.5s-34.167 23.5 -55.5 23.5
c-22 0 -40.833 -8 -56.5 -24s-23.5 -34.667 -23.5 -56zM732.999 326.001h330v-120h-330v120z" />
    <glyph glyph-name="afii61352" unicode="&#x2116;" horiz-adv-x="1100" 
d="M70 0v740h137l325 -500v500h137v-740h-137l-325 500v-500h-137zM719 560c0 49.333 17.499 91.667 52.499 127s77.5 53 127.5 53c48.667 0 90.667 -17.667 126 -53s53 -77.666 53 -126.999c-0.666992 -50 -18.5 -92.5 -53.5 -127.5s-76.833 -52.5 -125.5 -52.5
c-50 -0.666992 -92.667 16.666 -128 51.999s-52.666 78 -51.999 128zM818.999 560.001c0 -22 7.66699 -40.833 23 -56.5s34 -23.5 56 -23.5c21.333 0 40 7.66699 56 23s24 34.333 24 57c0 22 -7.83301 40.833 -23.5 56.5s-34.167 23.5 -55.5 23.5
c-22 0 -40.833 -8 -56.5 -24s-23.5 -34.667 -23.5 -56zM732.999 326.001h330v-120h-330v120z" />
    <glyph glyph-name="afii10101" unicode="&#xba;" horiz-adv-x="640" 
d="M460 180l149.998 0.00195312c-21.333 -60.667 -56 -108.834 -104 -144.501s-105 -53.5 -171 -53.5c-86.667 0 -159.167 28 -217.5 84s-87.5 127.667 -87.5 215c0 82.667 28.667 151.834 86 207.501s128.666 83.5 213.999 83.5c68.667 0 127.834 -18.5 177.501 -55.5
s83.834 -85.833 102.501 -146.5h-150c-12 25.333 -29.667 44.166 -53 56.499s-49.666 18.833 -78.999 19.5c-39.333 0 -73 -10.333 -101 -31s-46 -47 -54 -79h249v-118h-249c10 -34 29.167 -60.833 57.5 -80.5s61.5 -29.5 99.5 -29.5c28.667 0 54 6.16699 76 18.5
s40 30.166 54 53.499z" />
    <glyph glyph-name="afii10101" unicode="&#x454;" horiz-adv-x="640" 
d="M460 180l149.998 0.00195312c-21.333 -60.667 -56 -108.834 -104 -144.501s-105 -53.5 -171 -53.5c-86.667 0 -159.167 28 -217.5 84s-87.5 127.667 -87.5 215c0 82.667 28.667 151.834 86 207.501s128.666 83.5 213.999 83.5c68.667 0 127.834 -18.5 177.501 -55.5
s83.834 -85.833 102.501 -146.5h-150c-12 25.333 -29.667 44.166 -53 56.499s-49.666 18.833 -78.999 19.5c-39.333 0 -73 -10.333 -101 -31s-46 -47 -54 -79h249v-118h-249c10 -34 29.167 -60.833 57.5 -80.5s61.5 -29.5 99.5 -29.5c28.667 0 54 6.16699 76 18.5
s40 30.166 54 53.499z" />
    <glyph glyph-name="guillemotright" unicode="&#xbb;" horiz-adv-x="460" 
d="M353 318l-68 57v123l139 -130v-101l-139 -131v123zM140 318l-68 57v123l139 -130v-101l-139 -131v123z" />
    <glyph glyph-name="afii10105" unicode="&#xbc;" horiz-adv-x="260" 
d="M206 554v-526.001c0 -71.333 -17.667 -124.5 -53 -159.5s-80.333 -52.833 -135 -53.5v129c17.333 -2 30.833 2.83301 40.5 14.5s14.5 34.834 14.5 69.501v526h133zM73 617.999v122h133v-122h-133z" />
    <glyph glyph-name="afii10105" unicode="&#x458;" horiz-adv-x="260" 
d="M206 554v-526.001c0 -71.333 -17.667 -124.5 -53 -159.5s-80.333 -52.833 -135 -53.5v129c17.333 -2 30.833 2.83301 40.5 14.5s14.5 34.834 14.5 69.501v526h133zM73 617.999v122h133v-122h-133z" />
    <glyph glyph-name="afii10054" unicode="&#xbd;" horiz-adv-x="520" 
d="M14 208l142.999 0.00488281c0.666992 -28.667 10.5 -51.334 29.5 -68.001s42.167 -25 69.5 -25c29.333 0 53.333 8.66699 72 26s28 39.666 28 66.999c0 19.333 -4.16699 37 -12.5 53s-64.166 46 -167.499 90c-46 18.667 -80 45 -102 79s-33 71.667 -33 113
c0 60 21.167 110 63.5 150s94.5 60 156.5 60c59.333 0 109 -19.333 149 -58s61.667 -89.334 65 -152.001h-141c-0.666992 22.667 -8 41.167 -22 55.5s-32.333 21.5 -55 21.5c-23.333 -0.666992 -42.5 -7.83398 -57.5 -21.501s-22.167 -32.5 -21.5 -56.5
c0 -15.333 3 -28.5 9 -39.5s58 -35.833 156 -74.5c45.333 -18.667 81.666 -45.667 108.999 -81s41 -79 41 -131c0 -66.667 -22.667 -122.334 -68 -167.001s-102.666 -67 -171.999 -67c-68.667 0 -125.667 21.667 -171 65s-68 97 -68 161z" />
    <glyph glyph-name="afii10054" unicode="&#x405;" horiz-adv-x="520" 
d="M14 208l142.999 0.00488281c0.666992 -28.667 10.5 -51.334 29.5 -68.001s42.167 -25 69.5 -25c29.333 0 53.333 8.66699 72 26s28 39.666 28 66.999c0 19.333 -4.16699 37 -12.5 53s-64.166 46 -167.499 90c-46 18.667 -80 45 -102 79s-33 71.667 -33 113
c0 60 21.167 110 63.5 150s94.5 60 156.5 60c59.333 0 109 -19.333 149 -58s61.667 -89.334 65 -152.001h-141c-0.666992 22.667 -8 41.167 -22 55.5s-32.333 21.5 -55 21.5c-23.333 -0.666992 -42.5 -7.83398 -57.5 -21.501s-22.167 -32.5 -21.5 -56.5
c0 -15.333 3 -28.5 9 -39.5s58 -35.833 156 -74.5c45.333 -18.667 81.666 -45.667 108.999 -81s41 -79 41 -131c0 -66.667 -22.667 -122.334 -68 -167.001s-102.666 -67 -171.999 -67c-68.667 0 -125.667 21.667 -171 65s-68 97 -68 161z" />
    <glyph glyph-name="afii10102" unicode="&#xbe;" horiz-adv-x="440" 
d="M19 174h132.997c0.666992 -20.667 7.83398 -36.834 21.501 -48.501s30.834 -17.5 51.501 -17.5c18 -0.666992 32.833 4 44.5 14s17.5 24.333 17.5 43c-0.666992 12 -4.33398 22.5 -11.001 31.5s-19.667 17.5 -39 25.5l-12.5 4
c-4.33301 1.33301 -19.166 6.33301 -44.499 15c-49.333 15.333 -85.166 36 -107.499 62s-33.5 58.667 -33.5 98c0 48 17.667 88.5 53 121.5s80 49.5 134 49.5c50 0 91.667 -15.833 125 -47.5s51.333 -72.5 54 -122.5h-133c-2 14 -7.33301 24.833 -16 32.5s-20 11.5 -34 11.5
c-15.333 0 -27.5 -4.33301 -36.5 -13s-13.5 -20 -13.5 -34c0 -11.333 3 -20.833 9 -28.5s15.667 -14.167 29 -19.5c4 -2 8.5 -3.83301 13.5 -5.5s16.167 -4.5 33.5 -8.5c58.667 -14.667 100.5 -35 125.5 -61s37.5 -60.333 37.5 -103c0 -54.667 -18.667 -100.167 -56 -136.5
s-85.333 -54.5 -144 -54.5c-62 0 -111 18.833 -147 56.5s-54 82.834 -54 135.501z" />
    <glyph glyph-name="afii10102" unicode="&#x455;" horiz-adv-x="440" 
d="M19 174h132.997c0.666992 -20.667 7.83398 -36.834 21.501 -48.501s30.834 -17.5 51.501 -17.5c18 -0.666992 32.833 4 44.5 14s17.5 24.333 17.5 43c-0.666992 12 -4.33398 22.5 -11.001 31.5s-19.667 17.5 -39 25.5l-12.5 4
c-4.33301 1.33301 -19.166 6.33301 -44.499 15c-49.333 15.333 -85.166 36 -107.499 62s-33.5 58.667 -33.5 98c0 48 17.667 88.5 53 121.5s80 49.5 134 49.5c50 0 91.667 -15.833 125 -47.5s51.333 -72.5 54 -122.5h-133c-2 14 -7.33301 24.833 -16 32.5s-20 11.5 -34 11.5
c-15.333 0 -27.5 -4.33301 -36.5 -13s-13.5 -20 -13.5 -34c0 -11.333 3 -20.833 9 -28.5s15.667 -14.167 29 -19.5c4 -2 8.5 -3.83301 13.5 -5.5s16.167 -4.5 33.5 -8.5c58.667 -14.667 100.5 -35 125.5 -61s37.5 -60.333 37.5 -103c0 -54.667 -18.667 -100.167 -56 -136.5
s-85.333 -54.5 -144 -54.5c-62 0 -111 18.833 -147 56.5s-54 82.834 -54 135.501z" />
    <glyph glyph-name="afii10104" unicode="&#xbf;" horiz-adv-x="340" 
d="M104 0v554h133v-554h-133zM19 740h133v-120h-133v120zM189 740h133v-120h-133v120z" />
    <glyph glyph-name="afii10104" unicode="&#x457;" horiz-adv-x="340" 
d="M104 0v554h133v-554h-133zM19 740h133v-120h-133v120zM189 740h133v-120h-133v120z" />
    <glyph glyph-name="afii10017" unicode="&#xc0;" horiz-adv-x="740" 
d="M7 0l308 740h110l308 -740h-151l-76 191h-272l-76 -191h-151zM286 324h168l-84 216z" />
    <glyph glyph-name="afii10017" unicode="&#x410;" horiz-adv-x="740" 
d="M7 0l308 740h110l308 -740h-151l-76 191h-272l-76 -191h-151zM286 324h168l-84 216z" />
    <glyph glyph-name="afii10018" unicode="&#xc1;" horiz-adv-x="600" 
d="M68 740h432v-133h-295v-152h118c82.667 0 144.167 -22 184.5 -66s60.5 -98 60.5 -162c0 -67.333 -22.833 -122 -68.5 -164s-104.5 -63 -176.5 -63h-255v740zM205 322l-0.000976562 -189h119c31.333 -0.666992 56.833 7.5 76.5 24.5s29.834 40.167 30.501 69.5
c0 26 -9.16699 48.167 -27.5 66.5s-44.833 27.833 -79.5 28.5h-119z" />
    <glyph glyph-name="afii10018" unicode="&#x411;" horiz-adv-x="600" 
d="M68 740h432v-133h-295v-152h118c82.667 0 144.167 -22 184.5 -66s60.5 -98 60.5 -162c0 -67.333 -22.833 -122 -68.5 -164s-104.5 -63 -176.5 -63h-255v740zM205 322l-0.000976562 -189h119c31.333 -0.666992 56.833 7.5 76.5 24.5s29.834 40.167 30.501 69.5
c0 26 -9.16699 48.167 -27.5 66.5s-44.833 27.833 -79.5 28.5h-119z" />
    <glyph glyph-name="afii10019" unicode="&#xc2;" horiz-adv-x="580" 
d="M68 0l0.00195312 740h178c86 -0.666992 150.333 -18.167 193 -52.5s64 -81.833 64 -142.5c0 -33.333 -7.33301 -61.833 -22 -85.5s-34.334 -42.167 -59.001 -55.5c39.333 -13.333 70.166 -36 92.499 -68s33.5 -69 33.5 -111c0 -72 -24.667 -127.5 -74 -166.5
s-123 -58.5 -221 -58.5h-185zM205.002 133h89.001c37.333 -0.666992 66.166 7.33301 86.499 24s30.5 39.667 30.5 69s-10 52.5 -30 69.5s-49 25.833 -87 26.5h-89v-189zM205.003 455h64.001c31.333 0 55.166 6.83301 71.499 20.5s24.833 32.167 25.5 55.5
c0 25.333 -8.33301 44.333 -25 57s-40.667 19 -72 19h-64v-152z" />
    <glyph glyph-name="afii10019" unicode="&#x412;" horiz-adv-x="580" 
d="M68 0l0.00195312 740h178c86 -0.666992 150.333 -18.167 193 -52.5s64 -81.833 64 -142.5c0 -33.333 -7.33301 -61.833 -22 -85.5s-34.334 -42.167 -59.001 -55.5c39.333 -13.333 70.166 -36 92.499 -68s33.5 -69 33.5 -111c0 -72 -24.667 -127.5 -74 -166.5
s-123 -58.5 -221 -58.5h-185zM205.002 133h89.001c37.333 -0.666992 66.166 7.33301 86.499 24s30.5 39.667 30.5 69s-10 52.5 -30 69.5s-49 25.833 -87 26.5h-89v-189zM205.003 455h64.001c31.333 0 55.166 6.83301 71.499 20.5s24.833 32.167 25.5 55.5
c0 25.333 -8.33301 44.333 -25 57s-40.667 19 -72 19h-64v-152z" />
    <glyph glyph-name="afii10020" unicode="&#xc3;" horiz-adv-x="440" 
d="M68 0v740h370v-133h-233v-607h-137z" />
    <glyph glyph-name="afii10020" unicode="&#x413;" horiz-adv-x="440" 
d="M68 0v740h370v-133h-233v-607h-137z" />
    <glyph glyph-name="afii10021" unicode="&#xc4;" horiz-adv-x="820" 
d="M471 740l274 -607h69v-273h-137v140h-534v-140h-137v273h71l274 607h120zM228 133h366l-183 417z" />
    <glyph glyph-name="afii10021" unicode="&#x414;" horiz-adv-x="820" 
d="M471 740l274 -607h69v-273h-137v140h-534v-140h-137v273h71l274 607h120zM228 133h366l-183 417z" />
    <glyph glyph-name="afii10022" unicode="&#xc5;" horiz-adv-x="520" 
d="M68 0v740h397v-133h-260v-171h249v-133h-249v-170h260v-133h-397z" />
    <glyph glyph-name="afii10022" unicode="&#x415;" horiz-adv-x="520" 
d="M68 0v740h397v-133h-260v-171h249v-133h-249v-170h260v-133h-397z" />
    <glyph glyph-name="afii10024" unicode="&#xc6;" horiz-adv-x="940" 
d="M401 0v324l-216 -324h-164l265 380l-259 360h158l216 -321v321h137v-321l216 321h158l-259 -356l265 -384h-164l-216 324v-324h-137z" />
    <glyph glyph-name="afii10024" unicode="&#x416;" horiz-adv-x="940" 
d="M401 0v324l-216 -324h-164l265 380l-259 360h158l216 -321v321h137v-321l216 321h158l-259 -356l265 -384h-164l-216 324v-324h-137z" />
    <glyph glyph-name="afii10025" unicode="&#xc7;" 
d="M54 548c0 58.667 19.835 107.5 59.502 146.5s96.167 58.5 169.5 58.5c65.333 0 118.833 -18.5 160.5 -55.5s62.5 -86.167 62.5 -147.5c0 -36.667 -9.83301 -69 -29.5 -97s-45.167 -49.333 -76.5 -64c41.333 -10.667 73.333 -32.5 96 -65.5s34 -71.833 34 -116.5
c-0.666992 -67.333 -24.5 -120.5 -71.5 -159.5s-108.167 -58.5 -183.5 -58.5c-73.333 0 -133.833 21.5 -181.5 64.5s-68.834 101.167 -63.501 174.5h137c0 -30.667 9.33301 -56 28 -76s47 -30 85 -30c34.667 0 62.167 8.16699 82.5 24.5s30.5 39.833 30.5 70.5
c0 30 -9.5 54 -28.5 72s-43.833 27 -74.5 27h-70v133h60c27.333 -0.666992 49 6.5 65 21.5s24 35.5 24 61.5c0 27.333 -7.83301 48.833 -23.5 64.5s-36.834 23.5 -63.501 23.5c-26 0 -47.333 -6.5 -64 -19.5s-25.667 -30.5 -27 -52.5h-137z" />
    <glyph glyph-name="afii10025" unicode="&#x417;" 
d="M54 548c0 58.667 19.835 107.5 59.502 146.5s96.167 58.5 169.5 58.5c65.333 0 118.833 -18.5 160.5 -55.5s62.5 -86.167 62.5 -147.5c0 -36.667 -9.83301 -69 -29.5 -97s-45.167 -49.333 -76.5 -64c41.333 -10.667 73.333 -32.5 96 -65.5s34 -71.833 34 -116.5
c-0.666992 -67.333 -24.5 -120.5 -71.5 -159.5s-108.167 -58.5 -183.5 -58.5c-73.333 0 -133.833 21.5 -181.5 64.5s-68.834 101.167 -63.501 174.5h137c0 -30.667 9.33301 -56 28 -76s47 -30 85 -30c34.667 0 62.167 8.16699 82.5 24.5s30.5 39.833 30.5 70.5
c0 30 -9.5 54 -28.5 72s-43.833 27 -74.5 27h-70v133h60c27.333 -0.666992 49 6.5 65 21.5s24 35.5 24 61.5c0 27.333 -7.83301 48.833 -23.5 64.5s-36.834 23.5 -63.501 23.5c-26 0 -47.333 -6.5 -64 -19.5s-25.667 -30.5 -27 -52.5h-137z" />
    <glyph glyph-name="afii10026" unicode="&#xc8;" horiz-adv-x="740" 
d="M68 740h137v-520l330 520h137v-740h-137v520l-330 -520h-137v740z" />
    <glyph glyph-name="afii10026" unicode="&#x418;" horiz-adv-x="740" 
d="M68 740h137v-520l330 520h137v-740h-137v520l-330 -520h-137v740z" />
    <glyph glyph-name="afii10027" unicode="&#xc9;" horiz-adv-x="740" 
d="M68 740h137v-520l330 520h137v-740h-137v520l-330 -520h-137v740zM190 920l114.999 0.00195312c2 -15.333 8.66699 -27.5 20 -36.5s26.333 -13.5 45 -13.5c18 -0.666992 32.667 3.66602 44 12.999s18.333 21.666 21 36.999h115c-6.66699 -41.333 -26.167 -75 -58.5 -101
s-72.833 -39 -121.5 -39c-49.333 0 -90.166 13 -122.499 39s-51.5 59.667 -57.5 101z" />
    <glyph glyph-name="afii10027" unicode="&#x419;" horiz-adv-x="740" 
d="M68 740h137v-520l330 520h137v-740h-137v520l-330 -520h-137v740zM190 920l114.999 0.00195312c2 -15.333 8.66699 -27.5 20 -36.5s26.333 -13.5 45 -13.5c18 -0.666992 32.667 3.66602 44 12.999s18.333 21.666 21 36.999h115c-6.66699 -41.333 -26.167 -75 -58.5 -101
s-72.833 -39 -121.5 -39c-49.333 0 -90.166 13 -122.499 39s-51.5 59.667 -57.5 101z" />
    <glyph glyph-name="afii10028" unicode="&#xca;" horiz-adv-x="620" 
d="M68 0v740h137v-321l230 321h164l-279 -364l279 -376h-164l-230 324v-324h-137z" />
    <glyph glyph-name="afii10028" unicode="&#x41a;" horiz-adv-x="620" 
d="M68 0v740h137v-321l230 321h164l-279 -364l279 -376h-164l-230 324v-324h-137z" />
    <glyph glyph-name="afii10029" unicode="&#xcb;" horiz-adv-x="720" 
d="M420 740l293 -740h-151l-202 550l-202 -550h-151l293 740h120z" />
    <glyph glyph-name="afii10029" unicode="&#x41b;" horiz-adv-x="720" 
d="M420 740l293 -740h-151l-202 550l-202 -550h-151l293 740h120z" />
    <glyph glyph-name="afii10030" unicode="&#xcc;" horiz-adv-x="920" 
d="M68 0v740h186l206 -566l206 566h186v-740h-137v554l-197 -554h-116l-197 554v-554h-137z" />
    <glyph glyph-name="afii10030" unicode="&#x41c;" horiz-adv-x="920" 
d="M68 0v740h186l206 -566l206 566h186v-740h-137v554l-197 -554h-116l-197 554v-554h-137z" />
    <glyph glyph-name="afii10031" unicode="&#xcd;" horiz-adv-x="680" 
d="M68 0v740h137v-297h270v297h137v-740h-137v310h-270v-310h-137z" />
    <glyph glyph-name="afii10031" unicode="&#x41d;" horiz-adv-x="680" 
d="M68 0v740h137v-297h270v297h137v-740h-137v310h-270v-310h-137z" />
    <glyph glyph-name="afii10032" unicode="&#xce;" horiz-adv-x="840" 
d="M420 753c110 0 202.497 -37.667 277.497 -113s112.5 -166.666 112.5 -273.999s-37.667 -198.166 -113 -272.499s-167.666 -111.5 -276.999 -111.5c-110 0 -202.667 37.167 -278 111.5s-112.666 165.166 -111.999 272.499c0 107.333 37.333 198.666 112 273.999
s167.334 113 278.001 113zM418.997 115c72 0 132.334 24.833 181.001 74.5s73 109.5 73 179.5c0 69.333 -24.333 128.5 -73 177.5s-108.667 73.5 -180 73.5c-72 0 -132.167 -24.5 -180.5 -73.5s-72.5 -108.167 -72.5 -177.5c0 -70.667 24.167 -130.667 72.5 -180
s108.166 -74 179.499 -74z" />
    <glyph glyph-name="afii10032" unicode="&#x41e;" horiz-adv-x="840" 
d="M420 753c110 0 202.497 -37.667 277.497 -113s112.5 -166.666 112.5 -273.999s-37.667 -198.166 -113 -272.499s-167.666 -111.5 -276.999 -111.5c-110 0 -202.667 37.167 -278 111.5s-112.666 165.166 -111.999 272.499c0 107.333 37.333 198.666 112 273.999
s167.334 113 278.001 113zM418.997 115c72 0 132.334 24.833 181.001 74.5s73 109.5 73 179.5c0 69.333 -24.333 128.5 -73 177.5s-108.667 73.5 -180 73.5c-72 0 -132.167 -24.5 -180.5 -73.5s-72.5 -108.167 -72.5 -177.5c0 -70.667 24.167 -130.667 72.5 -180
s108.166 -74 179.499 -74z" />
    <glyph glyph-name="afii10033" unicode="&#xcf;" horiz-adv-x="680" 
d="M68 0v740h544v-740h-137v607h-270v-607h-137z" />
    <glyph glyph-name="afii10033" unicode="&#x41f;" horiz-adv-x="680" 
d="M68 0v740h544v-740h-137v607h-270v-607h-137z" />
    <glyph glyph-name="afii10034" unicode="&#xd0;" 
d="M68 0v740h207c84.667 -0.666992 150 -21.5 196 -62.5s69 -97.167 69 -168.5c0 -67.333 -22.333 -122.333 -67 -165s-110.667 -64 -198 -64h-70v-280h-137zM205 607l-0.000976562 -194h81c37.333 0 66 8 86 24s30.333 40.333 31 73c0 32 -10.167 56.167 -30.5 72.5
s-49.166 24.5 -86.499 24.5h-81z" />
    <glyph glyph-name="afii10034" unicode="&#x420;" 
d="M68 0v740h207c84.667 -0.666992 150 -21.5 196 -62.5s69 -97.167 69 -168.5c0 -67.333 -22.333 -122.333 -67 -165s-110.667 -64 -198 -64h-70v-280h-137zM205 607l-0.000976562 -194h81c37.333 0 66 8 86 24s30.333 40.333 31 73c0 32 -10.167 56.167 -30.5 72.5
s-49.166 24.5 -86.499 24.5h-81z" />
    <glyph glyph-name="afii10035" unicode="&#xd1;" horiz-adv-x="780" 
d="M760 528l-155.999 -0.000976562c-23.333 29.333 -51 52 -83 68s-66.333 24 -103 24c-72.667 0 -132.667 -25 -180 -75s-71 -108.333 -71 -175c0 -70 24.333 -130.167 73 -180.5s108.334 -75.166 179.001 -74.499c34 0 66.5 7 97.5 21s57.833 35.667 80.5 65h159
c-32 -67.333 -77.5 -120.666 -136.5 -159.999s-127.167 -59 -204.5 -59c-108.667 0 -200 37.333 -274 112s-111 166.667 -111 276c0 106 37.167 196.333 111.5 271s166.166 112 275.499 112c76.667 0 145.167 -19.833 205.5 -59.5s106.166 -94.834 137.499 -165.501z" />
    <glyph glyph-name="afii10035" unicode="&#x421;" horiz-adv-x="780" 
d="M760 528l-155.999 -0.000976562c-23.333 29.333 -51 52 -83 68s-66.333 24 -103 24c-72.667 0 -132.667 -25 -180 -75s-71 -108.333 -71 -175c0 -70 24.333 -130.167 73 -180.5s108.334 -75.166 179.001 -74.499c34 0 66.5 7 97.5 21s57.833 35.667 80.5 65h159
c-32 -67.333 -77.5 -120.666 -136.5 -159.999s-127.167 -59 -204.5 -59c-108.667 0 -200 37.333 -274 112s-111 166.667 -111 276c0 106 37.167 196.333 111.5 271s166.166 112 275.499 112c76.667 0 145.167 -19.833 205.5 -59.5s106.166 -94.834 137.499 -165.501z" />
    <glyph glyph-name="afii10036" unicode="&#xd2;" horiz-adv-x="420" 
d="M142 0v607h-137v133h411v-133h-137v-607h-137z" />
    <glyph glyph-name="afii10036" unicode="&#x422;" horiz-adv-x="420" 
d="M142 0v607h-137v133h411v-133h-137v-607h-137z" />
    <glyph glyph-name="afii10037" unicode="&#xd3;" horiz-adv-x="700" 
d="M691 740l-335 -740h-150l87 188l-284 552h166l195 -394l171 394h150z" />
    <glyph glyph-name="afii10037" unicode="&#x423;" horiz-adv-x="700" 
d="M691 740l-335 -740h-150l87 188l-284 552h166l195 -394l171 394h150z" />
    <glyph glyph-name="afii10038" unicode="&#xd4;" horiz-adv-x="860" 
d="M362 -37v104c-96.667 0.666992 -176.167 31 -238.5 91s-93.5 136.333 -93.5 229c0 92 31.167 168 93.5 228s141.833 90.667 238.5 92v93h137v-93c96 -1.33301 175.333 -32 238 -92s94 -136 94 -228c0 -92.667 -31.333 -169 -94 -229s-142 -90.333 -238 -91v-104h-137z
M362 200l0.000976562 374.002c-59.333 0.666992 -106.833 -17.333 -142.5 -54s-53.167 -81 -52.5 -133c0 -52.667 17.667 -97.334 53 -134.001s82.666 -54.334 141.999 -53.001zM499.001 574.002v-374.002c58.667 -1.33301 105.834 16.334 141.501 53.001
s53.5 81.334 53.5 134.001c0 52 -17.833 96.333 -53.5 133s-82.834 54.667 -141.501 54z" />
    <glyph glyph-name="afii10038" unicode="&#x424;" horiz-adv-x="860" 
d="M362 -37v104c-96.667 0.666992 -176.167 31 -238.5 91s-93.5 136.333 -93.5 229c0 92 31.167 168 93.5 228s141.833 90.667 238.5 92v93h137v-93c96 -1.33301 175.333 -32 238 -92s94 -136 94 -228c0 -92.667 -31.333 -169 -94 -229s-142 -90.333 -238 -91v-104h-137z
M362 200l0.000976562 374.002c-59.333 0.666992 -106.833 -17.333 -142.5 -54s-53.167 -81 -52.5 -133c0 -52.667 17.667 -97.334 53 -134.001s82.666 -54.334 141.999 -53.001zM499.001 574.002v-374.002c58.667 -1.33301 105.834 16.334 141.501 53.001
s53.5 81.334 53.5 134.001c0 52 -17.833 96.333 -53.5 133s-82.834 54.667 -141.501 54z" />
    <glyph glyph-name="afii10039" unicode="&#xd5;" horiz-adv-x="680" 
d="M5 0l255 370l-255 370h160l175 -257l176 257h160l-256 -370l256 -370h-160l-176 256l-175 -256h-160z" />
    <glyph glyph-name="afii10039" unicode="&#x425;" horiz-adv-x="680" 
d="M5 0l255 370l-255 370h160l175 -257l176 257h160l-256 -370l256 -370h-160l-176 256l-175 -256h-160z" />
    <glyph glyph-name="afii10040" unicode="&#xd6;" horiz-adv-x="700" 
d="M612 740v-607h84v-273h-137v140h-491v740h137v-607h270v607h137z" />
    <glyph glyph-name="afii10040" unicode="&#x426;" horiz-adv-x="700" 
d="M612 740v-607h84v-273h-137v140h-491v740h137v-607h270v607h137z" />
    <glyph glyph-name="afii10041" unicode="&#xd7;" horiz-adv-x="620" 
d="M552 740v-740h-137v280h-126c-45.333 -0.666992 -82 3 -110 11s-51.333 20 -70 36c-22.667 18 -39.5 40.833 -50.5 68.5s-16.5 63.5 -16.5 107.5v237h137v-219c0 -24.667 2 -43 6 -55s10.667 -22 20 -30c8 -8 18.5 -13.833 31.5 -17.5s30.167 -5.5 51.5 -5.5h127v327h137
z" />
    <glyph glyph-name="afii10041" unicode="&#x427;" horiz-adv-x="620" 
d="M552 740v-740h-137v280h-126c-45.333 -0.666992 -82 3 -110 11s-51.333 20 -70 36c-22.667 18 -39.5 40.833 -50.5 68.5s-16.5 63.5 -16.5 107.5v237h137v-219c0 -24.667 2 -43 6 -55s10.667 -22 20 -30c8 -8 18.5 -13.833 31.5 -17.5s30.167 -5.5 51.5 -5.5h127v327h137
z" />
    <glyph glyph-name="afii10042" unicode="&#xd8;" horiz-adv-x="1000" 
d="M68 740h137v-607h226v607h137v-607h226v607h137v-740h-863v740z" />
    <glyph glyph-name="afii10042" unicode="&#x428;" horiz-adv-x="1000" 
d="M68 740h137v-607h226v607h137v-607h226v607h137v-740h-863v740z" />
    <glyph glyph-name="afii10043" unicode="&#xd9;" horiz-adv-x="1020" 
d="M68 740h137v-607h226v607h137v-607h226v607h137v-607h84v-273h-137v140h-810v740z" />
    <glyph glyph-name="afii10043" unicode="&#x429;" horiz-adv-x="1020" 
d="M68 740h137v-607h226v607h137v-607h226v607h137v-607h84v-273h-137v140h-810v740z" />
    <glyph glyph-name="afii10044" unicode="&#xda;" horiz-adv-x="680" 
d="M8 740l297 0.000976562v-285h110c76.667 0 136.667 -20.333 180 -61s65 -96.334 65 -167.001c0 -67.333 -22.833 -122 -68.5 -164s-104.5 -63 -176.5 -63h-247v607h-160v133zM305 322.001v-189h111c31.333 0 57 8.33301 77 25s30 39.667 30 69s-10 52.5 -30 69.5
s-45.667 25.5 -77 25.5h-111z" />
    <glyph glyph-name="afii10044" unicode="&#x42a;" horiz-adv-x="680" 
d="M8 740l297 0.000976562v-285h110c76.667 0 136.667 -20.333 180 -61s65 -96.334 65 -167.001c0 -67.333 -22.833 -122 -68.5 -164s-104.5 -63 -176.5 -63h-247v607h-160v133zM305 322.001v-189h111c31.333 0 57 8.33301 77 25s30 39.667 30 69s-10 52.5 -30 69.5
s-45.667 25.5 -77 25.5h-111z" />
    <glyph glyph-name="afii10045" unicode="&#xdb;" horiz-adv-x="840" 
d="M68 740l137 0.000976562v-285h110c76.667 0 136.667 -20.333 180 -61s65 -96.334 65 -167.001c0 -67.333 -22.833 -122 -68.5 -164s-104.5 -63 -176.5 -63h-247v740zM205 322.001l0.000976562 -189h111c31.333 0 57 8.33301 77 25s30 39.667 30 69
c-0.666992 29.333 -10.834 52.5 -30.501 69.5s-45.167 25.5 -76.5 25.5h-111zM635.001 0.000976562v740h137v-740h-137z" />
    <glyph glyph-name="afii10045" unicode="&#x42b;" horiz-adv-x="840" 
d="M68 740l137 0.000976562v-285h110c76.667 0 136.667 -20.333 180 -61s65 -96.334 65 -167.001c0 -67.333 -22.833 -122 -68.5 -164s-104.5 -63 -176.5 -63h-247v740zM205 322.001l0.000976562 -189h111c31.333 0 57 8.33301 77 25s30 39.667 30 69
c-0.666992 29.333 -10.834 52.5 -30.501 69.5s-45.167 25.5 -76.5 25.5h-111zM635.001 0.000976562v740h137v-740h-137z" />
    <glyph glyph-name="afii10046" unicode="&#xdc;" horiz-adv-x="580" 
d="M68 740l137 0.000976562v-285h110c76.667 0 136.667 -20.333 180 -61s65 -96.334 65 -167.001c0 -67.333 -22.833 -122 -68.5 -164s-104.5 -63 -176.5 -63h-247v740zM205 322.001l0.000976562 -189h111c31.333 0 57 8.33301 77 25s30 39.667 30 69
c-0.666992 29.333 -10.834 52.5 -30.501 69.5s-45.167 25.5 -76.5 25.5h-111z" />
    <glyph glyph-name="afii10046" unicode="&#x42c;" horiz-adv-x="580" 
d="M68 740l137 0.000976562v-285h110c76.667 0 136.667 -20.333 180 -61s65 -96.334 65 -167.001c0 -67.333 -22.833 -122 -68.5 -164s-104.5 -63 -176.5 -63h-247v740zM205 322.001l0.000976562 -189h111c31.333 0 57 8.33301 77 25s30 39.667 30 69
c-0.666992 29.333 -10.834 52.5 -30.501 69.5s-45.167 25.5 -76.5 25.5h-111z" />
    <glyph glyph-name="afii10047" unicode="&#xdd;" horiz-adv-x="775" 
d="M176 528l-155.997 -0.000976562c29.333 70 74.333 124.833 135 164.5s131 59.834 211 60.501c106.667 0 196.5 -36.5 269.5 -109.5s109.5 -164.167 109.5 -273.5c0 -111.333 -36.333 -203.833 -109 -277.5s-164 -110.5 -274 -110.5c-78.667 0 -147 19.667 -205 59
s-102.333 92.666 -133 159.999h159c21.333 -28.667 48.666 -50.167 81.999 -64.5s69.666 -21.5 108.999 -21.5c55.333 0 105.166 17 149.499 51s72.5 80.333 84.5 139h-334v130h334c-16 59.333 -45 104.833 -87 136.5s-90.667 47.834 -146 48.501
c-42 0 -79.833 -7.66699 -113.5 -23s-62.167 -38.333 -85.5 -69z" />
    <glyph glyph-name="afii10047" unicode="&#x42d;" horiz-adv-x="775" 
d="M176 528l-155.997 -0.000976562c29.333 70 74.333 124.833 135 164.5s131 59.834 211 60.501c106.667 0 196.5 -36.5 269.5 -109.5s109.5 -164.167 109.5 -273.5c0 -111.333 -36.333 -203.833 -109 -277.5s-164 -110.5 -274 -110.5c-78.667 0 -147 19.667 -205 59
s-102.333 92.666 -133 159.999h159c21.333 -28.667 48.666 -50.167 81.999 -64.5s69.666 -21.5 108.999 -21.5c55.333 0 105.166 17 149.499 51s72.5 80.333 84.5 139h-334v130h334c-16 59.333 -45 104.833 -87 136.5s-90.667 47.834 -146 48.501
c-42 0 -79.833 -7.66699 -113.5 -23s-62.167 -38.333 -85.5 -69z" />
    <glyph glyph-name="afii10048" unicode="&#xde;" horiz-adv-x="1120" 
d="M205 445l123.001 -0.00292969c17.333 93.333 62 167.833 134 223.5s153 83.834 243 84.501c108 0 199.167 -37.667 273.5 -113s111.5 -166.666 111.5 -273.999s-37.167 -198.166 -111.5 -272.499s-165.5 -111.5 -273.5 -111.5c-100 0 -185.333 31.333 -256 94
s-112.334 140 -125.001 232h-119v-308h-137v740h137v-295zM704.001 114.997c70 -0.666992 129.001 24 177.001 74s72 110 72 180c-0.666992 69.333 -24.834 128.5 -72.501 177.5s-106.167 73.5 -175.5 73.5c-70 0 -129 -24.5 -177 -73.5s-71.667 -108.167 -71 -177.5
c-0.666992 -70 23 -129.833 71 -179.5s106.667 -74.5 176 -74.5z" />
    <glyph glyph-name="afii10048" unicode="&#x42e;" horiz-adv-x="1120" 
d="M205 445l123.001 -0.00292969c17.333 93.333 62 167.833 134 223.5s153 83.834 243 84.501c108 0 199.167 -37.667 273.5 -113s111.5 -166.666 111.5 -273.999s-37.167 -198.166 -111.5 -272.499s-165.5 -111.5 -273.5 -111.5c-100 0 -185.333 31.333 -256 94
s-112.334 140 -125.001 232h-119v-308h-137v740h137v-295zM704.001 114.997c70 -0.666992 129.001 24 177.001 74s72 110 72 180c-0.666992 69.333 -24.834 128.5 -72.501 177.5s-106.167 73.5 -175.5 73.5c-70 0 -129 -24.5 -177 -73.5s-71.667 -108.167 -71 -177.5
c-0.666992 -70 23 -129.833 71 -179.5s106.667 -74.5 176 -74.5z" />
    <glyph glyph-name="afii10049" unicode="&#xdf;" horiz-adv-x="600" 
d="M532 740v-740h-137v287h-2l-198 -287h-160l204 273c-59.333 6.66699 -107.333 30 -144 70s-55 91.667 -55 155c0 74.667 23.833 133.667 71.5 177s116.5 65 206.5 65h214zM395 607h-81c-46 0 -80.333 -9.5 -103 -28.5s-34 -46.167 -34 -81.5
c-0.666992 -36 10.5 -63.333 33.5 -82s57.5 -28 103.5 -28h81v220z" />
    <glyph glyph-name="afii10049" unicode="&#x42f;" horiz-adv-x="600" 
d="M532 740v-740h-137v287h-2l-198 -287h-160l204 273c-59.333 6.66699 -107.333 30 -144 70s-55 91.667 -55 155c0 74.667 23.833 133.667 71.5 177s116.5 65 206.5 65h214zM395 607h-81c-46 0 -80.333 -9.5 -103 -28.5s-34 -46.167 -34 -81.5
c-0.666992 -36 10.5 -63.333 33.5 -82s57.5 -28 103.5 -28h81v220z" />
    <glyph glyph-name="afii10065" unicode="&#xe0;" horiz-adv-x="660" 
d="M606 554l-0.00195312 -554.001h-122v75h-2c-23.333 -31.333 -51.166 -54.5 -83.499 -69.5s-66.166 -22.833 -101.499 -23.5c-74 0 -137.667 26.667 -191 80s-80 123.333 -80 210c0 86 26.5 157.5 79.5 214.5s118.167 85.5 195.5 85.5c38.667 0 73.5 -8.16699 104.5 -24.5
s56.5 -40.166 76.5 -71.499h2v78h122zM321.998 445.999c-48 0 -87.166 -16.5 -117.499 -49.5s-45.5 -74.5 -45.5 -124.5c-0.666992 -48 14.166 -87.333 44.499 -118s69.833 -46 118.5 -46c47.333 0 85.666 15.667 114.999 47s44 72.333 44 123c0 48 -14.667 88 -44 120
s-67.666 48 -114.999 48z" />
    <glyph glyph-name="afii10065" unicode="&#x430;" horiz-adv-x="660" 
d="M606 554l-0.00195312 -554.001h-122v75h-2c-23.333 -31.333 -51.166 -54.5 -83.499 -69.5s-66.166 -22.833 -101.499 -23.5c-74 0 -137.667 26.667 -191 80s-80 123.333 -80 210c0 86 26.5 157.5 79.5 214.5s118.167 85.5 195.5 85.5c38.667 0 73.5 -8.16699 104.5 -24.5
s56.5 -40.166 76.5 -71.499h2v78h122zM321.998 445.999c-48 0 -87.166 -16.5 -117.499 -49.5s-45.5 -74.5 -45.5 -124.5c-0.666992 -48 14.166 -87.333 44.499 -118s69.833 -46 118.5 -46c47.333 0 85.666 15.667 114.999 47s44 72.333 44 123c0 48 -14.667 88 -44 120
s-67.666 48 -114.999 48z" />
    <glyph glyph-name="afii10066" unicode="&#xe1;" horiz-adv-x="640" 
d="M591 740l-0.000976562 -118l-215 -4c-70 -1.33301 -124.833 -16.833 -164.5 -46.5s-63.5 -72.167 -71.5 -127.5h2c22.667 32 51.667 57 87 75s76 27 122 27c76.667 0 139.667 -24.667 189 -74s74 -114.333 74 -195c0 -86.667 -27.667 -157.5 -83 -212.5
s-127.333 -82.5 -216 -82.5c-95.333 0 -167.333 29.333 -216 88s-73 144.667 -73 258c-0.666992 125.333 27.833 224 85.5 296s146.834 109.333 267.501 112zM322.999 428c-46 0 -83.834 -14.667 -113.501 -44s-44.5 -68 -44.5 -116c0 -49.333 14.333 -88.333 43 -117
s67 -43 115 -43c47.333 0 85.333 14.667 114 44s43.334 68 44.001 116c-0.666992 49.333 -15.5 88.333 -44.5 117s-66.833 43 -113.5 43z" />
    <glyph glyph-name="afii10066" unicode="&#x431;" horiz-adv-x="640" 
d="M591 740l-0.000976562 -118l-215 -4c-70 -1.33301 -124.833 -16.833 -164.5 -46.5s-63.5 -72.167 -71.5 -127.5h2c22.667 32 51.667 57 87 75s76 27 122 27c76.667 0 139.667 -24.667 189 -74s74 -114.333 74 -195c0 -86.667 -27.667 -157.5 -83 -212.5
s-127.333 -82.5 -216 -82.5c-95.333 0 -167.333 29.333 -216 88s-73 144.667 -73 258c-0.666992 125.333 27.833 224 85.5 296s146.834 109.333 267.501 112zM322.999 428c-46 0 -83.834 -14.667 -113.501 -44s-44.5 -68 -44.5 -116c0 -49.333 14.333 -88.333 43 -117
s67 -43 115 -43c47.333 0 85.333 14.667 114 44s43.334 68 44.001 116c-0.666992 49.333 -15.5 88.333 -44.5 117s-66.833 43 -113.5 43z" />
    <glyph glyph-name="afii10067" unicode="&#xe2;" horiz-adv-x="500" 
d="M54 554l244 -0.000976562c47.333 0 85.833 -13.5 115.5 -40.5s44.5 -61.833 44.5 -104.5c-0.666992 -26 -8.66699 -49.167 -24 -69.5s-35.333 -35.5 -60 -45.5c31.333 -9.33301 56.5 -25.666 75.5 -48.999s28.5 -50 28.5 -80c0 -46 -16.333 -85 -49 -117
s-78.667 -48 -138 -48h-237v554zM187 439.999v-100.001h87c16 -0.666992 28.833 3.83301 38.5 13.5s14.834 21.834 15.501 36.501c0 14.667 -4.83301 26.667 -14.5 36s-22.834 14 -39.501 14h-87zM187 225.998l0.00195312 -112.001h95
c21.333 -0.666992 37.666 4.33301 48.999 15s17 24.334 17 41.001s-5.83301 30 -17.5 40s-27.834 15.333 -48.501 16h-95z" />
    <glyph glyph-name="afii10067" unicode="&#x432;" horiz-adv-x="500" 
d="M54 554l244 -0.000976562c47.333 0 85.833 -13.5 115.5 -40.5s44.5 -61.833 44.5 -104.5c-0.666992 -26 -8.66699 -49.167 -24 -69.5s-35.333 -35.5 -60 -45.5c31.333 -9.33301 56.5 -25.666 75.5 -48.999s28.5 -50 28.5 -80c0 -46 -16.333 -85 -49 -117
s-78.667 -48 -138 -48h-237v554zM187 439.999v-100.001h87c16 -0.666992 28.833 3.83301 38.5 13.5s14.834 21.834 15.501 36.501c0 14.667 -4.83301 26.667 -14.5 36s-22.834 14 -39.501 14h-87zM187 225.998l0.00195312 -112.001h95
c21.333 -0.666992 37.666 4.33301 48.999 15s17 24.334 17 41.001s-5.83301 30 -17.5 40s-27.834 15.333 -48.501 16h-95z" />
    <glyph glyph-name="afii10068" unicode="&#xe3;" horiz-adv-x="380" 
d="M54 554h314v-118h-181v-436h-133v554z" />
    <glyph glyph-name="afii10068" unicode="&#x433;" horiz-adv-x="380" 
d="M54 554h314v-118h-181v-436h-133v554z" />
    <glyph glyph-name="afii10069" unicode="&#xe4;" horiz-adv-x="680" 
d="M400 554l203 -436h66v-258h-130v140h-398v-140h-130v258h66l203 436h120zM227 118h226l-113 256z" />
    <glyph glyph-name="afii10069" unicode="&#x434;" horiz-adv-x="680" 
d="M400 554l203 -436h66v-258h-130v140h-398v-140h-130v258h66l203 436h120zM227 118h226l-113 256z" />
    <glyph glyph-name="afii10070" unicode="&#xe5;" horiz-adv-x="640" 
d="M607 218h-434.001c8 -34 25.167 -60.833 51.5 -80.5s57.5 -29.5 93.5 -29.5c26.667 -0.666992 50.5 3.5 71.5 12.5s38.5 22.167 52.5 39.5h150c-23.333 -55.333 -58.666 -98.833 -105.999 -130.5s-101.666 -47.5 -162.999 -47.5c-83.333 0 -153 28 -209 84
s-84 125 -84 207s28.167 152.333 84.5 211s126.5 88 210.5 88c83.333 0 151.5 -28.333 204.5 -85s79.833 -126.667 80.5 -210c0 -13.333 -0.333008 -24.5 -1 -33.5s-1.33398 -17.5 -2.00098 -25.5zM170.999 336l300.003 0.000976562c-9.33301 34 -27.333 60.833 -54 80.5
s-57.334 29.5 -92.001 29.5c-36.667 -0.666992 -68.834 -10.834 -96.501 -30.501s-46.834 -46.167 -57.501 -79.5z" />
    <glyph glyph-name="afii10070" unicode="&#x435;" horiz-adv-x="640" 
d="M607 218h-434.001c8 -34 25.167 -60.833 51.5 -80.5s57.5 -29.5 93.5 -29.5c26.667 -0.666992 50.5 3.5 71.5 12.5s38.5 22.167 52.5 39.5h150c-23.333 -55.333 -58.666 -98.833 -105.999 -130.5s-101.666 -47.5 -162.999 -47.5c-83.333 0 -153 28 -209 84
s-84 125 -84 207s28.167 152.333 84.5 211s126.5 88 210.5 88c83.333 0 151.5 -28.333 204.5 -85s79.833 -126.667 80.5 -210c0 -13.333 -0.333008 -24.5 -1 -33.5s-1.33398 -17.5 -2.00098 -25.5zM170.999 336l300.003 0.000976562c-9.33301 34 -27.333 60.833 -54 80.5
s-57.334 29.5 -92.001 29.5c-36.667 -0.666992 -68.834 -10.834 -96.501 -30.501s-46.834 -46.167 -57.501 -79.5z" />
    <glyph glyph-name="afii10072" unicode="&#xe6;" horiz-adv-x="840" 
d="M354 0v266l-180 -266h-157l202 290l-190 264h157l168 -254v254h133v-254l168 254h157l-190 -264l202 -290h-157l-180 266v-266h-133z" />
    <glyph glyph-name="afii10072" unicode="&#x436;" horiz-adv-x="840" 
d="M354 0v266l-180 -266h-157l202 290l-190 264h157l168 -254v254h133v-254l168 254h157l-190 -264l202 -290h-157l-180 266v-266h-133z" />
    <glyph glyph-name="afii10073" unicode="&#xe7;" horiz-adv-x="460" 
d="M172 390l-132.999 0.00195312c3.33301 50.667 21.833 93.667 55.5 129s79.5 53 137.5 53c56 0 101.5 -14 136.5 -42s52.5 -65.667 52.5 -113c0 -27.333 -8.33301 -51.666 -25 -72.999s-38.334 -36.333 -65.001 -45c32 -8.66699 56.5 -25.334 73.5 -50.001
s25.833 -53.334 26.5 -86.001c0 -54 -18.333 -97.667 -55 -131s-85.667 -50 -147 -50c-68 0 -119.5 19 -154.5 57s-51.5 87.333 -49.5 148h133c0 -24.667 6.83301 -44 20.5 -58s32.167 -21 55.5 -21c19.333 0 34.666 5.16699 45.999 15.5s17.333 24.5 18 42.5
c0 19.333 -5.5 33.833 -16.5 43.5s-25.167 14.5 -42.5 14.5h-31v114h25c18.667 -0.666992 33 3.83301 43 13.5s15 23.167 15 40.5s-4.83301 30.666 -14.5 39.999s-23.5 14 -41.5 14s-32.667 -5.33301 -44 -16s-17.666 -24 -18.999 -40z" />
    <glyph glyph-name="afii10073" unicode="&#x437;" horiz-adv-x="460" 
d="M172 390l-132.999 0.00195312c3.33301 50.667 21.833 93.667 55.5 129s79.5 53 137.5 53c56 0 101.5 -14 136.5 -42s52.5 -65.667 52.5 -113c0 -27.333 -8.33301 -51.666 -25 -72.999s-38.334 -36.333 -65.001 -45c32 -8.66699 56.5 -25.334 73.5 -50.001
s25.833 -53.334 26.5 -86.001c0 -54 -18.333 -97.667 -55 -131s-85.667 -50 -147 -50c-68 0 -119.5 19 -154.5 57s-51.5 87.333 -49.5 148h133c0 -24.667 6.83301 -44 20.5 -58s32.167 -21 55.5 -21c19.333 0 34.666 5.16699 45.999 15.5s17.333 24.5 18 42.5
c0 19.333 -5.5 33.833 -16.5 43.5s-25.167 14.5 -42.5 14.5h-31v114h25c18.667 -0.666992 33 3.83301 43 13.5s15 23.167 15 40.5s-4.83301 30.666 -14.5 39.999s-23.5 14 -41.5 14s-32.667 -5.33301 -44 -16s-17.666 -24 -18.999 -40z" />
    <glyph glyph-name="afii10074" unicode="&#xe8;" horiz-adv-x="620" 
d="M54 554h133v-359l246 359h133v-554h-133v359l-246 -359h-133v554z" />
    <glyph glyph-name="afii10074" unicode="&#x438;" horiz-adv-x="620" 
d="M54 554h133v-359l246 359h133v-554h-133v359l-246 -359h-133v554z" />
    <glyph glyph-name="afii10075" unicode="&#xe9;" horiz-adv-x="620" 
d="M54 554h133v-359l246 359h133v-554h-133v359l-246 -359h-133v554zM145 756h99.999c3.33301 -15.333 10.833 -26.833 22.5 -34.5s25.834 -11.5 42.501 -11.5c16 0 29.833 3.83301 41.5 11.5s19.5 19.167 23.5 34.5h100c-6 -39.333 -24 -71.833 -54 -97.5
s-67 -38.5 -111 -38.5c-44.667 0 -82 12.833 -112 38.5s-47.667 58.167 -53 97.5z" />
    <glyph glyph-name="afii10075" unicode="&#x439;" horiz-adv-x="620" 
d="M54 554h133v-359l246 359h133v-554h-133v359l-246 -359h-133v554zM145 756h99.999c3.33301 -15.333 10.833 -26.833 22.5 -34.5s25.834 -11.5 42.501 -11.5c16 0 29.833 3.83301 41.5 11.5s19.5 19.167 23.5 34.5h100c-6 -39.333 -24 -71.833 -54 -97.5
s-67 -38.5 -111 -38.5c-44.667 0 -82 12.833 -112 38.5s-47.667 58.167 -53 97.5z" />
    <glyph glyph-name="afii10076" unicode="&#xea;" horiz-adv-x="580" 
d="M54 0v554h133v-254l198 254h158l-221 -260l233 -294h-168l-200 266v-266h-133z" />
    <glyph glyph-name="afii10076" unicode="&#x43a;" horiz-adv-x="580" 
d="M54 0v554h133v-254l198 254h158l-221 -260l233 -294h-168l-200 266v-266h-133z" />
    <glyph glyph-name="afii10077" unicode="&#xeb;" horiz-adv-x="580" 
d="M350 554l226 -554h-148l-138 374l-138 -374h-148l226 554h120z" />
    <glyph glyph-name="afii10077" unicode="&#x43b;" horiz-adv-x="580" 
d="M350 554l226 -554h-148l-138 374l-138 -374h-148l226 554h120z" />
    <glyph glyph-name="afii10078" unicode="&#xec;" horiz-adv-x="780" 
d="M54 0v554h193l143 -394l143 394h193v-554h-133v407l-148 -407h-110l-148 407v-407h-133z" />
    <glyph glyph-name="afii10078" unicode="&#x43c;" horiz-adv-x="780" 
d="M54 0v554h193l143 -394l143 394h193v-554h-133v407l-148 -407h-110l-148 407v-407h-133z" />
    <glyph glyph-name="afii10079" unicode="&#xed;" horiz-adv-x="580" 
d="M54 554h133v-204h206v204h133v-554h-133v232h-206v-232h-133v554z" />
    <glyph glyph-name="afii10079" unicode="&#x43d;" horiz-adv-x="580" 
d="M54 554h133v-204h206v204h133v-554h-133v232h-206v-232h-133v554z" />
    <glyph glyph-name="afii10080" unicode="&#xee;" horiz-adv-x="640" 
d="M320 572c83.333 0 153.166 -29 209.499 -87s84.5 -127.667 84.5 -209c0 -82 -28.167 -151.5 -84.5 -208.5s-126.166 -85.5 -209.499 -85.5c-84 0 -154 28.5 -210 85.5s-84 126.5 -84 208.5c0 81.333 28 151 84 209s126 87 210 87zM320 446
c-48 0 -86.833 -16.666 -116.5 -49.999s-44.5 -73.333 -44.5 -120c-0.666992 -46.667 14 -86.334 44 -119.001s69 -49 117 -49c47.333 -0.666992 86 15.5 116 48.5s45 72.833 45 119.5s-15 86.667 -45 120s-68.667 50 -116 50z" />
    <glyph glyph-name="afii10080" unicode="&#x43e;" horiz-adv-x="640" 
d="M320 572c83.333 0 153.166 -29 209.499 -87s84.5 -127.667 84.5 -209c0 -82 -28.167 -151.5 -84.5 -208.5s-126.166 -85.5 -209.499 -85.5c-84 0 -154 28.5 -210 85.5s-84 126.5 -84 208.5c0 81.333 28 151 84 209s126 87 210 87zM320 446
c-48 0 -86.833 -16.666 -116.5 -49.999s-44.5 -73.333 -44.5 -120c-0.666992 -46.667 14 -86.334 44 -119.001s69 -49 117 -49c47.333 -0.666992 86 15.5 116 48.5s45 72.833 45 119.5s-15 86.667 -45 120s-68.667 50 -116 50z" />
    <glyph glyph-name="afii10081" unicode="&#xef;" horiz-adv-x="580" 
d="M54 554h472v-554h-133v436h-206v-436h-133v554z" />
    <glyph glyph-name="afii10081" unicode="&#x43f;" horiz-adv-x="580" 
d="M54 554h472v-554h-133v436h-206v-436h-133v554z" />
    <glyph glyph-name="afii10082" unicode="&#xf0;" horiz-adv-x="660" 
d="M54 -185l0.000976562 739.002h122v-72h2c16.667 27.333 40.667 49.166 72 65.499s66.666 24.5 105.999 24.5c77.333 0 143 -27.333 197 -82s81 -125.667 81 -213c0 -80.667 -25.333 -150 -76 -208s-118 -87 -202 -87c-32.667 0 -63.5 6.16699 -92.5 18.5
s-53.833 32.166 -74.5 59.499h-2v-245h-133zM342.001 446.002c-48.667 -0.666992 -88 -16.832 -118 -48.499s-45 -71.834 -45 -120.501c0 -52 14.667 -93.167 44 -123.5s67.333 -45.5 114 -45.5c47.333 0 86.333 16 117 48s46.334 72.667 47.001 122
c-0.666992 48 -15.834 88 -45.501 120s-67.5 48 -113.5 48z" />
    <glyph glyph-name="afii10082" unicode="&#x440;" horiz-adv-x="660" 
d="M54 -185l0.000976562 739.002h122v-72h2c16.667 27.333 40.667 49.166 72 65.499s66.666 24.5 105.999 24.5c77.333 0 143 -27.333 197 -82s81 -125.667 81 -213c0 -80.667 -25.333 -150 -76 -208s-118 -87 -202 -87c-32.667 0 -63.5 6.16699 -92.5 18.5
s-53.833 32.166 -74.5 59.499h-2v-245h-133zM342.001 446.002c-48.667 -0.666992 -88 -16.832 -118 -48.499s-45 -71.834 -45 -120.501c0 -52 14.667 -93.167 44 -123.5s67.333 -45.5 114 -45.5c47.333 0 86.333 16 117 48s46.334 72.667 47.001 122
c-0.666992 48 -15.834 88 -45.501 120s-67.5 48 -113.5 48z" />
    <glyph glyph-name="afii10083" unicode="&#xf1;" horiz-adv-x="640" 
d="M460 180l149.998 -0.00292969c-22 -60.667 -56.5 -108.834 -103.5 -144.501s-103.833 -53.5 -170.5 -53.5c-88 0 -161 28 -219 84s-87 127.667 -87 215c0 82.667 28.5 151.834 85.5 207.501s128.833 83.5 215.5 83.5c68.667 0 127.667 -18.333 177 -55
s83.333 -85.667 102 -147h-150c-13.333 24.667 -31.166 43.334 -53.499 56.001s-48.166 19.334 -77.499 20.001c-51.333 0 -91.833 -16.167 -121.5 -48.5s-44.5 -71.833 -44.5 -118.5c0 -49.333 15.167 -90.333 45.5 -123s70.5 -48.667 120.5 -48
c28 0 53.5 5.83301 76.5 17.5s41.167 29.834 54.5 54.501z" />
    <glyph glyph-name="afii10083" unicode="&#x441;" horiz-adv-x="640" 
d="M460 180l149.998 -0.00292969c-22 -60.667 -56.5 -108.834 -103.5 -144.501s-103.833 -53.5 -170.5 -53.5c-88 0 -161 28 -219 84s-87 127.667 -87 215c0 82.667 28.5 151.834 85.5 207.501s128.833 83.5 215.5 83.5c68.667 0 127.667 -18.333 177 -55
s83.333 -85.667 102 -147h-150c-13.333 24.667 -31.166 43.334 -53.499 56.001s-48.166 19.334 -77.499 20.001c-51.333 0 -91.833 -16.167 -121.5 -48.5s-44.5 -71.833 -44.5 -118.5c0 -49.333 15.167 -90.333 45.5 -123s70.5 -48.667 120.5 -48
c28 0 53.5 5.83301 76.5 17.5s41.167 29.834 54.5 54.501z" />
    <glyph glyph-name="afii10084" unicode="&#xf2;" horiz-adv-x="420" 
d="M10 554h399v-118h-133v-436h-133v436h-133v118z" />
    <glyph glyph-name="afii10084" unicode="&#x442;" horiz-adv-x="420" 
d="M10 554h399v-118h-133v-436h-133v436h-133v118z" />
    <glyph glyph-name="afii10085" unicode="&#xf3;" horiz-adv-x="580" 
d="M417 554h151l-318 -739h-143l102 237l-203 502h151l127 -355z" />
    <glyph glyph-name="afii10085" unicode="&#x443;" horiz-adv-x="580" 
d="M417 554h151l-318 -739h-143l102 237l-203 502h151l127 -355z" />
    <glyph glyph-name="afii10086" unicode="&#xf4;" horiz-adv-x="820" 
d="M344 740h133v-168c92.667 -2.66699 168.167 -33 226.5 -91s87.5 -126 87.5 -204c-0.666992 -79.333 -31 -147.333 -91 -204s-134.333 -87 -223 -91v-167h-133v167c-89.333 4 -164 34.333 -224 91s-90 124.667 -90 204c0 78 29 146 87 204s133.667 88.333 227 91v168z
M344 100v353.999c-54 -2 -97.667 -19.167 -131 -51.5s-50 -74.166 -50 -125.499c0 -50.667 17.5 -92.5 52.5 -125.5s77.833 -50.167 128.5 -51.5zM477 453.999v-353.999c50 1.33301 92.667 18.5 128 51.5s53 74.833 53 125.5c0 51.333 -16.833 93.166 -50.5 125.499
s-77.167 49.5 -130.5 51.5z" />
    <glyph glyph-name="afii10086" unicode="&#x444;" horiz-adv-x="820" 
d="M344 740h133v-168c92.667 -2.66699 168.167 -33 226.5 -91s87.5 -126 87.5 -204c-0.666992 -79.333 -31 -147.333 -91 -204s-134.333 -87 -223 -91v-167h-133v167c-89.333 4 -164 34.333 -224 91s-90 124.667 -90 204c0 78 29 146 87 204s133.667 88.333 227 91v168z
M344 100v353.999c-54 -2 -97.667 -19.167 -131 -51.5s-50 -74.166 -50 -125.499c0 -50.667 17.5 -92.5 52.5 -125.5s77.833 -50.167 128.5 -51.5zM477 453.999v-353.999c50 1.33301 92.667 18.5 128 51.5s53 74.833 53 125.5c0 51.333 -16.833 93.166 -50.5 125.499
s-77.167 49.5 -130.5 51.5z" />
    <glyph glyph-name="afii10087" unicode="&#xf5;" 
d="M4 0l187 284l-172 270h155l105 -166l105 166h155l-176 -270l193 -284h-164l-112 179l-112 -179h-164z" />
    <glyph glyph-name="afii10087" unicode="&#x445;" 
d="M4 0l187 284l-172 270h155l105 -166l105 166h155l-176 -270l193 -284h-164l-112 179l-112 -179h-164z" />
    <glyph glyph-name="afii10088" unicode="&#xf6;" horiz-adv-x="620" 
d="M54 554h133v-436h208v436h133v-436h84v-258h-130v140h-428v554z" />
    <glyph glyph-name="afii10088" unicode="&#x446;" horiz-adv-x="620" 
d="M54 554h133v-436h208v436h133v-436h84v-258h-130v140h-428v554z" />
    <glyph glyph-name="afii10089" unicode="&#xf7;" horiz-adv-x="520" 
d="M466 554l0.000976562 -554.001h-133v190h-78c-74.667 0 -129.834 13.333 -165.501 40s-53.5 82.334 -53.5 167.001v157h133v-157c0 -37.333 7 -61.5 21 -72.5s35.667 -16.5 65 -16.5h78v246h133z" />
    <glyph glyph-name="afii10089" unicode="&#x447;" horiz-adv-x="520" 
d="M466 554l0.000976562 -554.001h-133v190h-78c-74.667 0 -129.834 13.333 -165.501 40s-53.5 82.334 -53.5 167.001v157h133v-157c0 -37.333 7 -61.5 21 -72.5s35.667 -16.5 65 -16.5h78v246h133z" />
    <glyph glyph-name="afii10090" unicode="&#xf8;" horiz-adv-x="840" 
d="M54 554h133v-436h168v436h133v-436h168v436h133v-554h-735v554z" />
    <glyph glyph-name="afii10090" unicode="&#x448;" horiz-adv-x="840" 
d="M54 554h133v-436h168v436h133v-436h168v436h133v-554h-735v554z" />
    <glyph glyph-name="afii10091" unicode="&#xf9;" horiz-adv-x="880" 
d="M54 554h133v-436h168v436h133v-436h168v436h133v-436h84v-258h-130v140h-689v554z" />
    <glyph glyph-name="afii10091" unicode="&#x449;" horiz-adv-x="880" 
d="M54 554h133v-436h168v436h133v-436h168v436h133v-436h84v-258h-130v140h-689v554z" />
    <glyph glyph-name="afii10092" unicode="&#xfa;" horiz-adv-x="600" 
d="M5 554l262 0.000976562v-194h119c54.667 0 99.334 -15.833 134.001 -47.5s52 -75.834 52 -132.501c0 -56 -17.333 -100 -52 -132s-79.334 -48 -134.001 -48h-252v436h-129v118zM267 242.001l0.000976562 -123.998h105c21.333 -0.666992 37.666 4.66602 48.999 15.999
s17.333 26.666 18 45.999c0 18.667 -5.66699 33.5 -17 44.5s-28 16.833 -50 17.5h-105z" />
    <glyph glyph-name="afii10092" unicode="&#x44a;" horiz-adv-x="600" 
d="M5 554l262 0.000976562v-194h119c54.667 0 99.334 -15.833 134.001 -47.5s52 -75.834 52 -132.501c0 -56 -17.333 -100 -52 -132s-79.334 -48 -134.001 -48h-252v436h-129v118zM267 242.001l0.000976562 -123.998h105c21.333 -0.666992 37.666 4.66602 48.999 15.999
s17.333 26.666 18 45.999c0 18.667 -5.66699 33.5 -17 44.5s-28 16.833 -50 17.5h-105z" />
    <glyph glyph-name="afii10093" unicode="&#xfb;" horiz-adv-x="740" 
d="M54 554l132.999 0.000976562v-194h119c54.667 0 99.334 -15.833 134.001 -47.5s52 -75.834 52 -132.501c-0.666992 -56 -18.167 -100 -52.5 -132s-78.833 -48 -133.5 -48h-252v554zM186.999 242.001v-123.998h105c21.333 -0.666992 37.833 4.66602 49.5 15.999
s17.5 26.666 17.5 45.999c0 18.667 -5.66699 33.5 -17 44.5s-28 16.833 -50 17.5h-105zM552.999 0.00292969v554h133v-554h-133z" />
    <glyph glyph-name="afii10093" unicode="&#x44b;" horiz-adv-x="740" 
d="M54 554l132.999 0.000976562v-194h119c54.667 0 99.334 -15.833 134.001 -47.5s52 -75.834 52 -132.501c-0.666992 -56 -18.167 -100 -52.5 -132s-78.833 -48 -133.5 -48h-252v554zM186.999 242.001v-123.998h105c21.333 -0.666992 37.833 4.66602 49.5 15.999
s17.5 26.666 17.5 45.999c0 18.667 -5.66699 33.5 -17 44.5s-28 16.833 -50 17.5h-105zM552.999 0.00292969v554h133v-554h-133z" />
    <glyph glyph-name="afii10094" unicode="&#xfc;" horiz-adv-x="520" 
d="M54 554l132.999 0.000976562v-194h119c54.667 0 99.334 -15.833 134.001 -47.5s52 -75.834 52 -132.501c-0.666992 -56 -18.167 -100 -52.5 -132s-78.833 -48 -133.5 -48h-252v554zM186.999 242.001v-123.998h105c21.333 -0.666992 37.833 4.66602 49.5 15.999
s17.5 26.666 17.5 45.999c0 18.667 -5.66699 33.5 -17 44.5s-28 16.833 -50 17.5h-105z" />
    <glyph glyph-name="afii10094" unicode="&#x44c;" horiz-adv-x="520" 
d="M54 554l132.999 0.000976562v-194h119c54.667 0 99.334 -15.833 134.001 -47.5s52 -75.834 52 -132.501c-0.666992 -56 -18.167 -100 -52.5 -132s-78.833 -48 -133.5 -48h-252v554zM186.999 242.001v-123.998h105c21.333 -0.666992 37.833 4.66602 49.5 15.999
s17.5 26.666 17.5 45.999c0 18.667 -5.66699 33.5 -17 44.5s-28 16.833 -50 17.5h-105z" />
    <glyph glyph-name="afii10095" unicode="&#xfd;" horiz-adv-x="640" 
d="M30 180l150.002 0.000976562c12 -24.667 29.167 -42.834 51.5 -54.501s48.5 -17.5 78.5 -17.5c40.667 -0.666992 74.667 9.16602 102 29.499s46.333 47.166 57 80.499h-229v118h229c-10 32.667 -28.667 59.167 -56 79.5s-61 30.5 -101 30.5
c-28.667 0 -54.834 -6.33301 -78.501 -19s-41.5 -31.667 -53.5 -57h-150c18 60.667 51.667 109.5 101 146.5s109 55.5 179 55.5c85.333 0 156.666 -27.667 213.999 -83s86 -124.666 86 -207.999c0 -87.333 -29.333 -159 -88 -215s-131 -84 -217 -84
c-66.667 0 -124 17.833 -172 53.5s-82.333 83.834 -103 144.501z" />
    <glyph glyph-name="afii10095" unicode="&#x44d;" horiz-adv-x="640" 
d="M30 180l150.002 0.000976562c12 -24.667 29.167 -42.834 51.5 -54.501s48.5 -17.5 78.5 -17.5c40.667 -0.666992 74.667 9.16602 102 29.499s46.333 47.166 57 80.499h-229v118h229c-10 32.667 -28.667 59.167 -56 79.5s-61 30.5 -101 30.5
c-28.667 0 -54.834 -6.33301 -78.501 -19s-41.5 -31.667 -53.5 -57h-150c18 60.667 51.667 109.5 101 146.5s109 55.5 179 55.5c85.333 0 156.666 -27.667 213.999 -83s86 -124.666 86 -207.999c0 -87.333 -29.333 -159 -88 -215s-131 -84 -217 -84
c-66.667 0 -124 17.833 -172 53.5s-82.333 83.834 -103 144.501z" />
    <glyph glyph-name="afii10096" unicode="&#xfe;" horiz-adv-x="880" 
d="M187 354h78.001c16.667 64 51.667 116.333 105 157s116.666 61 189.999 61c84.667 0 154.834 -28.833 210.501 -86.5s83.5 -127.5 83.5 -209.5c0 -83.333 -27.833 -153.166 -83.5 -209.499s-125.834 -84.5 -210.501 -84.5c-79.333 0 -145.833 23.167 -199.5 69.5
s-85.5 105.166 -95.5 176.499h-78v-228h-133v554h133v-200zM560.001 446c-48 0 -86.999 -16.667 -116.999 -50s-45 -73.333 -45 -120c-0.666992 -46.667 14.166 -86.334 44.499 -119.001s69.5 -49 117.5 -49c47.333 0 86 16.333 116 49s45 72.334 45 119.001
s-15 86.667 -45 120s-68.667 50 -116 50z" />
    <glyph glyph-name="afii10096" unicode="&#x44e;" horiz-adv-x="880" 
d="M187 354h78.001c16.667 64 51.667 116.333 105 157s116.666 61 189.999 61c84.667 0 154.834 -28.833 210.501 -86.5s83.5 -127.5 83.5 -209.5c0 -83.333 -27.833 -153.166 -83.5 -209.499s-125.834 -84.5 -210.501 -84.5c-79.333 0 -145.833 23.167 -199.5 69.5
s-85.5 105.166 -95.5 176.499h-78v-228h-133v554h133v-200zM560.001 446c-48 0 -86.999 -16.667 -116.999 -50s-45 -73.333 -45 -120c-0.666992 -46.667 14.166 -86.334 44.499 -119.001s69.5 -49 117.5 -49c47.333 0 86 16.333 116 49s45 72.334 45 119.001
s-15 86.667 -45 120s-68.667 50 -116 50z" />
    <glyph glyph-name="afii10097" unicode="&#xff;" horiz-adv-x="540" 
d="M486 554l-0.000976562 -554.001h-133v213l-164 -213h-166l167 196c-45.333 4.66699 -81.166 23.334 -107.499 56.001s-39.5 72 -39.5 118c0 50 18 93 54 129s85.333 54.333 148 55h241zM352.999 296.999v138.999h-103c-23.333 0 -41.5 -6.66699 -54.5 -20
s-19.5 -31 -19.5 -53c0 -19.333 6.5 -35.166 19.5 -47.499s31.167 -18.5 54.5 -18.5h103z" />
    <glyph glyph-name="afii10097" unicode="&#x44f;" horiz-adv-x="540" 
d="M486 554l-0.000976562 -554.001h-133v213l-164 -213h-166l167 196c-45.333 4.66699 -81.166 23.334 -107.499 56.001s-39.5 72 -39.5 118c0 50 18 93 54 129s85.333 54.333 148 55h241zM352.999 296.999v138.999h-103c-23.333 0 -41.5 -6.66699 -54.5 -20
s-19.5 -31 -19.5 -53c0 -19.333 6.5 -35.166 19.5 -47.499s31.167 -18.5 54.5 -18.5h103z" />
    <glyph glyph-name="afii10059" unicode="&#x152;" horiz-adv-x="980" 
d="M468 740l137 0.000976562v-285h110c76.667 0 136.667 -20.333 180 -61s65 -96.334 65 -167.001c0 -67.333 -22.833 -122 -68.5 -164s-104.5 -63 -176.5 -63h-247v322h-263v-322h-137v740h137v-285h263v285zM605 322.001l-0.000976562 -189.001h111
c31.333 0 56.833 8.33301 76.5 25s29.834 39.667 30.501 69c0 29.333 -10 52.333 -30 69s-45.667 25.334 -77 26.001h-111z" />
    <glyph glyph-name="afii10059" unicode="&#x40a;" horiz-adv-x="980" 
d="M468 740l137 0.000976562v-285h110c76.667 0 136.667 -20.333 180 -61s65 -96.334 65 -167.001c0 -67.333 -22.833 -122 -68.5 -164s-104.5 -63 -176.5 -63h-247v322h-263v-322h-137v740h137v-285h263v285zM605 322.001l-0.000976562 -189.001h111
c31.333 0 56.833 8.33301 76.5 25s29.834 39.667 30.501 69c0 29.333 -10 52.333 -30 69s-45.667 25.334 -77 26.001h-111z" />
    <glyph glyph-name="afii10107" unicode="&#x153;" horiz-adv-x="860" 
d="M394 554l133.001 0.000976562v-194h119c54.667 0 99.167 -15.833 133.5 -47.5s51.833 -75.834 52.5 -132.501c0 -56 -17.333 -100 -52 -132s-79.334 -48 -134.001 -48h-252v242h-207v-242h-133v554h133v-194h207v194zM527.001 242.001v-123.998h105
c21.333 -0.666992 37.833 4.66602 49.5 15.999s17.5 26.666 17.5 45.999c0 18.667 -5.66699 33.5 -17 44.5s-28 16.833 -50 17.5h-105z" />
    <glyph glyph-name="afii10107" unicode="&#x45a;" horiz-adv-x="860" 
d="M394 554l133.001 0.000976562v-194h119c54.667 0 99.167 -15.833 133.5 -47.5s51.833 -75.834 52.5 -132.501c0 -56 -17.333 -100 -52 -132s-79.334 -48 -134.001 -48h-252v242h-207v-242h-133v554h133v-194h207v194zM527.001 242.001v-123.998h105
c21.333 -0.666992 37.833 4.66602 49.5 15.999s17.5 26.666 17.5 45.999c0 18.667 -5.66699 33.5 -17 44.5s-28 16.833 -50 17.5h-105z" />
    <glyph glyph-name="afii10058" unicode="&#x160;" horiz-adv-x="1000" 
d="M488 0v514h-2l-308 -514h-161l471 740h137v-285h110c76.667 -0.666992 136.667 -21.167 180 -61.5s65 -95.833 65 -166.5c-0.666992 -67.333 -23.667 -122 -69 -164s-104 -63 -176 -63h-247zM625 322v-189h111c31.333 0 57 8.33301 77 25s30 39.667 30 69
s-10 52.5 -30 69.5s-45.667 25.5 -77 25.5h-111z" />
    <glyph glyph-name="afii10058" unicode="&#x409;" horiz-adv-x="1000" 
d="M488 0v514h-2l-308 -514h-161l471 740h137v-285h110c76.667 -0.666992 136.667 -21.167 180 -61.5s65 -95.833 65 -166.5c-0.666992 -67.333 -23.667 -122 -69 -164s-104 -63 -176 -63h-247zM625 322v-189h111c31.333 0 57 8.33301 77 25s30 39.667 30 69
s-10 52.5 -30 69.5s-45.667 25.5 -77 25.5h-111z" />
    <glyph glyph-name="afii10106" unicode="&#x161;" horiz-adv-x="840" 
d="M374 0v386.001h-2l-206 -386h-154l315 554h180v-194h119c54.667 0 99.334 -15.833 134.001 -47.5s52 -75.834 52 -132.501c0 -56 -17.333 -100 -52 -132s-79.334 -48 -134.001 -48h-252zM507 242.001v-123.998h105c21.333 -0.666992 37.833 4.66602 49.5 15.999
s17.5 26.666 17.5 45.999c0 18.667 -5.66699 33.5 -17 44.5s-28 16.833 -50 17.5h-105z" />
    <glyph glyph-name="afii10106" unicode="&#x459;" horiz-adv-x="840" 
d="M374 0v386.001h-2l-206 -386h-154l315 554h180v-194h119c54.667 0 99.334 -15.833 134.001 -47.5s52 -75.834 52 -132.501c0 -56 -17.333 -100 -52 -132s-79.334 -48 -134.001 -48h-252zM507 242.001v-123.998h105c21.333 -0.666992 37.833 4.66602 49.5 15.999
s17.5 26.666 17.5 45.999c0 18.667 -5.66699 33.5 -17 44.5s-28 16.833 -50 17.5h-105z" />
    <glyph glyph-name="afii10193" unicode="&#x178;" horiz-adv-x="580" 
d="M54 554h133v-436h206v436h133v-554h-171v-160h-130v160h-171v554z" />
    <glyph glyph-name="afii10193" unicode="&#x45f;" horiz-adv-x="580" 
d="M54 554h133v-436h206v436h133v-554h-171v-160h-130v160h-171v554z" />
    <glyph glyph-name="afii10100" unicode="&#x192;" horiz-adv-x="380" 
d="M54 554h314v-118h-181v-436h-133v554zM94 705l225 135l54 -102l-229 -125z" />
    <glyph glyph-name="afii10100" unicode="&#x453;" horiz-adv-x="380" 
d="M54 554h314v-118h-181v-436h-133v554zM94 705l225 135l54 -102l-229 -125z" />
    <glyph glyph-name="accent" unicode="&#x2c6;" horiz-adv-x="1" 
d="M-429 705l225 135l54 -102l-229 -125z" />
    <glyph glyph-name="Accent" unicode="&#x2dc;" horiz-adv-x="1" 
d="M-479 879l242 101l37 -110l-242 -90z" />
    <glyph glyph-name="endash" unicode="&#x2013;" horiz-adv-x="500" 
d="M0 259v118h500v-118h-500z" />
    <glyph glyph-name="emdash" unicode="&#x2014;" horiz-adv-x="1000" 
d="M0 377h1000v-118h-1000v118z" />
    <glyph glyph-name="quoteleft" unicode="&#x2018;" horiz-adv-x="280" 
d="M206 613v-132.999h-133v128c0 30.667 2.83301 53.667 8.5 69s14.834 28.666 27.501 39.999c11.333 10.667 25.5 19.167 42.5 25.5s34.5 9.83301 52.5 10.5v-67c-16.667 0 -30.334 -5.16699 -41.001 -15.5s-16 -23.833 -16 -40.5v-17h59z" />
    <glyph glyph-name="quoteright" unicode="&#x2019;" horiz-adv-x="280" 
d="M73 606v133h133v-128c0 -31.333 -3 -54.666 -9 -69.999s-15 -28.333 -27 -39c-12 -11.333 -26.5 -20.166 -43.5 -26.499s-34.167 -9.5 -51.5 -9.5v67c16 -0.666992 29.5 4.16602 40.5 14.499s16.5 24.166 16.5 41.499v17h-59z" />
    <glyph glyph-name="quotesinglbase" unicode="&#x201a;" horiz-adv-x="280" 
d="M73 0v132.999h133v-128c0 -30.667 -3 -53.667 -9 -69s-15 -28.666 -27 -39.999c-12 -10.667 -26.5 -19.167 -43.5 -25.5s-34.167 -9.83301 -51.5 -10.5v67c16 0 29.5 5.16699 40.5 15.5s16.5 23.833 16.5 40.5v17h-59z" />
    <glyph glyph-name="quotedblleft" unicode="&#x201c;" horiz-adv-x="480" 
d="M410 613v-132.999h-133v128c0 30.667 2.83301 53.667 8.5 69s14.834 28.666 27.501 39.999c11.333 10.667 25.5 19.167 42.5 25.5s34.5 9.83301 52.5 10.5v-67c-16.667 0 -30.334 -5.16699 -41.001 -15.5s-16 -23.833 -16 -40.5v-17h59zM203 613.001v-132.999h-133v128
c0 30.667 2.83301 53.667 8.5 69s14.834 28.666 27.501 39.999c11.333 10.667 25.5 19.167 42.5 25.5s34.5 9.83301 52.5 10.5v-67c-16.667 0 -30.334 -5.16699 -41.001 -15.5s-16 -23.833 -16 -40.5v-17h59z" />
    <glyph glyph-name="quotedblright" unicode="&#x201d;" horiz-adv-x="480" 
d="M70 607v133h133v-128c0 -31.333 -3 -54.666 -9 -69.999s-15 -28.333 -27 -39c-12 -11.333 -26.5 -20.166 -43.5 -26.499s-34.167 -9.5 -51.5 -9.5v67c16 -0.666992 29.5 4.16602 40.5 14.499s16.5 24.166 16.5 41.499v17h-59zM277 607l-0.000976562 133h133v-128
c0 -31.333 -3 -54.666 -9 -69.999s-15 -28.333 -27 -39c-12 -11.333 -26.5 -20.166 -43.5 -26.499s-34.167 -9.5 -51.5 -9.5v67c16 -0.666992 29.333 4.16602 40 14.499s16.334 24.166 17.001 41.499v17h-59z" />
    <glyph glyph-name="quotedblbase" unicode="&#x201e;" horiz-adv-x="480" 
d="M70 0v132.999h133v-128c0 -30.667 -3 -53.667 -9 -69s-15 -28.666 -27 -39.999c-12 -10.667 -26.5 -19.167 -43.5 -25.5s-34.167 -9.83301 -51.5 -10.5v67c16 0 29.5 5.16699 40.5 15.5s16.5 23.833 16.5 40.5v17h-59zM277 -0.000976562l-0.000976562 132.999h133v-128
c0 -30.667 -3 -53.667 -9 -69s-15 -28.666 -27 -39.999c-12 -10.667 -26.5 -19.167 -43.5 -25.5s-34.167 -9.83301 -51.5 -10.5v67c16 0 29.333 5.16699 40 15.5s16.334 23.833 17.001 40.5v17h-59z" />
    <glyph glyph-name="dagger" unicode="&#x2020;" 
d="M348 740v-186h161v-118h-161v-564h-133v564h-163v118h163v186h133z" />
    <glyph glyph-name="daggerdbl" unicode="&#x2021;" 
d="M346 740v-148h163v-118h-163v-97h163v-118h-163v-387h-133v387h-161v118h161v97h-161v118h161v148h133z" />
    <glyph glyph-name="bullet" unicode="&#x2022;" horiz-adv-x="600" 
d="M100 318c-0.666992 54.667 18.666 101.667 57.999 141s86.666 59 141.999 59c54.667 0 101.5 -19.667 140.5 -59s58.833 -86.333 59.5 -141c0 -55.333 -19.667 -102.5 -59 -141.5s-86.333 -58.5 -141 -58.5c-55.333 0 -102.666 19.5 -141.999 58.5
s-58.666 86.167 -57.999 141.5z" />
    <glyph glyph-name="ellipsis" unicode="&#x2026;" horiz-adv-x="1000" 
d="M100 0v133h133v-133h-133zM433 0v133h133v-133h-133zM766 0v133h133v-133h-133z" />
    <glyph glyph-name="perthousand" unicode="&#x2030;" horiz-adv-x="1280" 
d="M223 0l306 740h102l-306 -740h-102zM21 573c0 49.333 17.5 91.499 52.5 126.499s77.5 52.833 127.5 53.5c48.667 0 90.667 -17.667 126 -53s53 -77.666 53 -126.999c0 -50 -17.667 -92.5 -53 -127.5s-77.333 -52.5 -126 -52.5c-50 0 -92.5 17.5 -127.5 52.5
s-52.5 77.5 -52.5 127.5zM132 572.999c0 -18.667 6.66602 -34.833 19.999 -48.5s29.333 -20.5 48 -20.5c18 0 34 6.66699 48 20s21 29.666 21 48.999c0 18.667 -6.83301 34.834 -20.5 48.501s-29.5 20.5 -47.5 20.5c-19.333 -0.666992 -35.666 -7.66699 -48.999 -21
s-20 -29.333 -20 -48zM474.999 162c-0.666992 49.333 16.665 91.667 51.998 127s78 53 128 53c49.333 0 91.5 -17.667 126.5 -53s52.833 -77.666 53.5 -126.999c0 -50 -17.667 -92.333 -53 -127s-77.666 -52.334 -126.999 -53.001c-50 0 -92.667 17.5 -128 52.5
s-52.666 77.5 -51.999 127.5zM585.998 162.001c-0.666992 -19.333 5.83203 -35.668 19.499 -49.001s30.167 -20 49.5 -20c18.667 -0.666992 34.834 5.83301 48.501 19.5s20.5 30.167 20.5 49.5c0 18.667 -6.83301 34.834 -20.5 48.501s-29.834 20.5 -48.501 20.5
c-19.333 -0.666992 -35.666 -7.66699 -48.999 -21s-20 -29.333 -20 -48zM887.997 161.999c-0.666992 49.333 16.666 91.666 51.999 126.999s78 53 128 53c49.333 0 91.5 -17.667 126.5 -53s52.833 -77.666 53.5 -126.999c0 -50 -17.667 -92.5 -53 -127.5
s-77.666 -52.5 -126.999 -52.5c-50 0 -92.5 17.5 -127.5 52.5s-52.5 77.5 -52.5 127.5zM998.997 161.999c0 -19.333 6.66797 -35.668 20.001 -49.001s29.666 -20 48.999 -20c18.667 -0.666992 34.667 5.83301 48 19.5s20.333 30.167 21 49.5
c0 18.667 -6.83301 34.834 -20.5 48.501s-29.834 20.5 -48.501 20.5c-19.333 -0.666992 -35.666 -7.66699 -48.999 -21s-20 -29.333 -20 -48z" />
    <glyph glyph-name="guilsinglleft" unicode="&#x2039;" horiz-adv-x="240" 
d="M108 318l67 -58v-122l-139 130v100l139 130v-122z" />
    <glyph glyph-name="guilsinglright" unicode="&#x203a;" horiz-adv-x="240" 
d="M132 318l-67 58v122l139 -130v-100l-139 -130v122z" />
    <glyph glyph-name="trademark" unicode="&#x2122;" horiz-adv-x="1000" 
d="M929 740v-404h-88v326l-119 -326h-52l-119 326v-326h-88v404h142l91 -239l91 239h142zM414 740v-78h-123v-326h-97v326h-123v78h343z" />
    <glyph glyph-name="periodcentered" unicode="&#x2219;" horiz-adv-x="250" 
d="M59 251v133h133v-133h-133z" />
    <glyph glyph-name="apple" unicode="&#xf000;" horiz-adv-x="601" 
d="M100 318c-0.666992 54.667 18.666 101.667 57.999 141s86.666 59 141.999 59c54.667 0 101.5 -19.667 140.5 -59s58.833 -86.333 59.5 -141c0 -55.333 -19.667 -102.5 -59 -141.5s-86.333 -58.5 -141 -58.5c-55.333 0 -102.666 19.5 -141.999 58.5
s-58.666 86.167 -57.999 141.5z" />
    <glyph glyph-name="fi" unicode="&#xf001;" horiz-adv-x="520" 
d="M57 0v436h-47v118h47v6c-0.666992 60 16.5 106.833 51.5 140.5s81.833 50.834 140.5 51.501h25v-133h-17c-20 -0.666992 -36.167 -6.33398 -48.5 -17.001s-18.5 -24.667 -18.5 -42v-6h277v-554h-133v436h-144v-436h-133zM334 618v122h133v-122h-133z" />
    <glyph glyph-name="uniF002" unicode="&#xf002;" horiz-adv-x="520" 
d="M57 0v436h-47v118h47v6c-0.666992 60 16.5 106.833 51.5 140.5s81.833 50.834 140.5 51.501h25v-133h-17c-20 -0.666992 -36.167 -6.33398 -48.5 -17.001s-18.5 -24.667 -18.5 -42v-6h144v186h133v-740h-133v436h-144v-436h-133z" />
    <glyph glyph-name="glyph1" horiz-adv-x="0" 
 />
    <glyph glyph-name="glyph2" horiz-adv-x="280" 
 />
    <glyph glyph-name="sterling" 
d="M40 0l0.00195312 126h139c6 10.667 10.333 21.834 13 33.501s4.33398 23.834 5.00098 36.501c0 19.333 -4.66699 38.666 -14 57.999s-23.333 38 -42 56h-141v125h58c-7.33301 18 -12.166 32.833 -14.499 44.5s-3.5 24.167 -3.5 37.5c-2 70 20.333 127 67 171
s106.667 65.667 180 65c63.333 -1.33301 115.666 -22 156.999 -62s64.666 -90 69.999 -150h-134c-2.66699 24.667 -12.834 45.167 -30.501 61.5s-40.167 24.5 -67.5 24.5c-35.333 0 -62.833 -11.667 -82.5 -35s-28.5 -51.333 -26.5 -84
c0.666992 -14.667 3.16699 -28 7.5 -40s10.833 -23 19.5 -33h208v-125h-116c12 -18 21.333 -37.5 28 -58.5s10 -42.167 10 -63.5c-0.666992 -11.333 -1.66699 -21.833 -3 -31.5s-3.66602 -19.834 -6.99902 -30.501h10c12 0 24.5 2.33301 37.5 7s24.167 11 33.5 19
s16.5 18 21.5 30s7.5 26.333 7.5 43c0 9.33301 -0.833008 17.666 -2.5 24.999s-3.83398 15 -6.50098 23h133c2.66699 -8 4.66699 -16.167 6 -24.5s2.33301 -17.166 3 -26.499c0 -31.333 -6.66699 -62 -20 -92s-33 -55.667 -59 -77
c-23.333 -18.667 -47.833 -32.167 -73.5 -40.5s-58.834 -12.5 -99.501 -12.5h-271z" />
    <glyph glyph-name="notequal" horiz-adv-x="600" 
d="M48 473h269l41 110h94l-41 -110h141v-115h-184l-30 -80h214v-115h-257l-44 -120h-94l44 120h-153v115h196l30 80h-226v115z" />
    <glyph glyph-name="glyph260" horiz-adv-x="420" 
d="M73 879l242 101l37 -110l-242 -90z" />
    <glyph glyph-name="glyph239" horiz-adv-x="420" 
d="M74 705l225 135l54 -102l-229 -125z" />
    <glyph glyph-name="infinity" horiz-adv-x="840" 
d="M389 275c-23.333 -30 -51.498 -54.665 -84.498 -73.998s-66.5 -29 -100.5 -29c-50 -0.666992 -90.833 16 -122.5 50s-47.5 76.667 -47.5 128c0 52.667 17 95.5 51 128.5s80.333 49.833 139 50.5c44.667 0 86 -8.33301 124 -25s70.333 -41.334 97 -74.001
c31.333 33.333 62.333 58 93 74s65 24 103 24c50 0 90 -15.333 120 -46s45 -71.334 45 -122.001c0 -57.333 -17.833 -103 -53.5 -137s-82.834 -51 -141.501 -51c-48 0 -90.333 8.33301 -127 25s-68.334 42.667 -95.001 78zM343.002 338.002
c-30.667 48 -55.333 78.501 -74 91.501s-38.334 19.5 -59.001 19.5c-28 0 -51.167 -9 -69.5 -27s-27.166 -42 -26.499 -72c0 -28.667 8 -52.334 24 -71.001s39 -27.667 69 -27c18 0 35.833 4.83301 53.5 14.5s45.167 33.5 82.5 71.5zM493.003 366.003
c26.667 -38.667 51.165 -66.501 73.498 -83.501s45.166 -25.5 68.499 -25.5c24.667 0 45.834 9.33301 63.501 28s26.834 43.334 27.501 74.001c0 28.667 -8.66699 50.667 -26 66s-39.666 23 -66.999 23c-26 0 -49 -6.16699 -69 -18.5s-43.667 -33.5 -71 -63.5z" />
    <glyph glyph-name="lessequal" horiz-adv-x="600" 
d="M190 455l362 -163v-111l-509 225v98l509 225v-111zM43 340l509 -225v-111l-509 225v111z" />
    <glyph glyph-name="greaterequal" horiz-adv-x="600" 
d="M410 455l-362 163v111l509 -225v-98l-509 -225v111zM557 340v-111l-509 -225v111z" />
    <glyph glyph-name="radical" horiz-adv-x="700" 
d="M262 500l100 -343l110 673h208v-100h-124l-142 -830h-104l-154 500h-136v100h242z" />
    <glyph glyph-name="florin" 
d="M365 554h91.999l-19 -115h-93l-62 -360c-10 -54.667 -19.5 -94.5 -28.5 -119.5s-19.833 -46.167 -32.5 -63.5c-20 -25.333 -45 -44.333 -75 -57s-63.667 -19 -101 -19c-13.333 0 -25.166 0.666992 -35.499 2s-19.5 3 -27.5 5l20 114
c4.66699 -0.666992 9.66699 -1.33398 15 -2.00098s11.333 -1 18 -1c34 0 59.5 8.5 76.5 25.5s31.5 58.167 43.5 123.5l62 352h-94l19 115h96l3 16c8 45.333 16.333 77.333 25 96s19 35.334 31 50.001c24 29.333 53.833 50.333 89.5 63s71.167 16 106.5 10l-20 -117h-7
c-10 0 -20 -1.83301 -30 -5.5s-18.667 -8.16699 -26 -13.5c-10.667 -8 -19.5 -18 -26.5 -30s-12.5 -29.667 -16.5 -53z" />
    <glyph glyph-name="approxequal" horiz-adv-x="600" 
d="M488 521l63.999 -72.999c-23.333 -42.667 -46.333 -72.834 -69 -90.501s-47.667 -26.5 -75 -26.5c-17.333 0 -36.833 3.16699 -58.5 9.5s-46.834 17.166 -75.501 32.499c-18 8.66699 -32.667 14.834 -44 18.501s-21.666 5.5 -30.999 5.5
c-16 0 -31.667 -6.83301 -47 -20.5s-28.666 -34.167 -39.999 -61.5l-64 74c19.333 41.333 42 72.333 68 93s53 31 81 31c16 0 34.833 -3.5 56.5 -10.5s49.5 -18.5 83.5 -34.5c16 -8 29.333 -13.5 40 -16.5s20.667 -4.5 30 -4.5c14 0 27.5 5.66699 40.5 17
s26.5 30.333 40.5 57zM487.999 281.001l63.999 -73.001c-23.333 -42.667 -46.333 -72.834 -69 -90.501s-47.667 -26.5 -75 -26.5c-17.333 -0.666992 -36.833 2.33301 -58.5 9s-46.834 17.667 -75.501 33c-18 8.66699 -32.667 14.834 -44 18.501s-21.666 5.5 -30.999 5.5
c-16 -0.666992 -31.667 -7.66699 -47 -21s-28.666 -33.666 -39.999 -60.999l-64 74c19.333 41.333 42 72.166 68 92.499s53 30.833 81 31.5c16 0 34.833 -3.5 56.5 -10.5s49.5 -18.5 83.5 -34.5c16 -8 29.333 -13.667 40 -17s20.667 -4.66602 30 -3.99902
c14 0 27.5 5.66699 40.5 17s26.5 30.333 40.5 57z" />
    <glyph glyph-name="Delta" horiz-adv-x="740" 
d="M7 0l308 740h110l308 -740h-726zM212 133h316l-158 407z" />
    <glyph glyph-name="divide" horiz-adv-x="600" 
d="M48 263v116h504v-116h-504zM242 454v116h116v-116h-116zM242 65v116h116v-116h-116z" />
    <glyph glyph-name="glyph274" horiz-adv-x="500" 
d="M70 920h114.999c2 -15.333 8.66699 -27.5 20 -36.5s26.333 -13.5 45 -13.5c18 0 32.667 4.5 44 13.5s18.333 21.167 21 36.5h115c-6.66699 -41.333 -26.167 -75 -58.5 -101s-72.833 -39 -121.5 -39c-49.333 0 -90.166 13 -122.499 39s-51.5 59.667 -57.5 101z" />
    <glyph glyph-name="glyph245" horiz-adv-x="480" 
d="M75 756h99.999c3.33301 -15.333 10.833 -26.833 22.5 -34.5s25.834 -11.5 42.501 -11.5c16 0 29.833 3.83301 41.5 11.5s19.5 19.167 23.5 34.5h100c-6 -39.333 -24 -71.833 -54 -97.5s-67 -38.5 -111 -38.5c-44.667 0 -82 12.833 -112 38.5s-47.667 58.167 -53 97.5z
" />
    </font>
</defs>
</svg>
