<svg width="200" height="200" viewBox="0 0 200 200" fill="none" xmlns="http://www.w3.org/2000/svg">
<path d="M36.6973 64.5105C37.2735 66.1814 38.7332 67.6027 39.9432 67.6988C41.1532 67.7948 41.6718 66.508 41.0764 64.837C40.481 63.166 39.0405 61.7448 37.8305 61.6487C36.6205 61.5527 36.1019 62.8395 36.6973 64.5105Z" fill="#6B89F6"/>
<path d="M54.9429 36.3958C57.9584 38.1436 60.3976 42.369 60.3976 45.8454C60.3976 49.3218 57.9392 50.7238 54.9045 48.9761C51.8891 47.2283 49.4499 43.0028 49.4499 39.5265C49.4499 36.0501 51.9083 34.648 54.9429 36.3958Z" fill="#ADC8D8"/>
<g filter="url(#filter0_d_6975_8651)">
<path d="M146.811 51.5045C145.945 51.89 145.298 52.4986 144.899 53.2241C144.786 52.9868 144.666 52.7521 144.527 52.5195C142.038 48.3711 136.43 46.5991 132.009 48.564C130.055 49.4325 128.661 50.8891 127.926 52.6013C126.868 51.5988 125.214 51.2561 123.857 51.8593C123.35 52.0846 122.944 52.4189 122.651 52.8102C122.54 52.5182 122.406 52.2231 122.235 51.9377C120.722 49.4169 117.319 48.3457 114.638 49.5371C112.819 50.3456 111.803 51.9818 111.801 53.7369C107.029 50.3148 100.498 49.3686 95.0297 51.799C87.7872 55.0179 85.07 62.973 88.7108 69.8495C86.7455 69.4511 84.6688 69.6043 82.799 70.4353C78.3781 72.4002 76.8104 77.3609 79.2995 81.5094C79.3799 81.6434 79.4662 81.7673 79.5529 81.8919C79.5825 81.9344 79.6122 81.9771 79.6416 82.0201C78.8393 81.955 78.0268 82.0751 77.2777 82.408C75.0307 83.4067 74.2358 85.9221 75.5009 88.0307C76.7661 90.1393 79.6093 91.0378 81.8564 90.039L151.386 59.1369C153.633 58.1382 154.428 55.6228 153.163 53.5142C151.898 51.4065 149.057 50.5079 146.811 51.5045Z" fill="url(#paint0_linear_6975_8651)"/>
<path d="M155.495 68.9769C154.751 69.3073 154.249 69.8853 154.023 70.5548C154.014 70.5399 154.006 70.525 153.998 70.5101C153.991 70.496 153.985 70.4818 153.978 70.4677C153.964 70.4387 153.95 70.4097 153.933 70.3806C152.42 67.8598 149.017 66.7886 146.336 67.98C144.28 68.8936 143.249 70.8717 143.548 72.8807C143.187 72.8136 142.811 72.8403 142.473 72.9905C141.645 73.3585 141.352 74.2852 141.818 75.062C141.878 75.1624 141.95 75.2578 142.029 75.343C141.541 75.3257 141.041 75.4075 140.585 75.6102C139.075 76.281 138.541 77.9709 139.391 79.3872C140.241 80.8035 142.151 81.4071 143.66 80.7363L158.573 74.1084C160.083 73.4376 160.617 71.7476 159.767 70.3313C158.917 68.915 157.007 68.3114 155.498 68.9822L155.495 68.9769Z" fill="url(#paint1_linear_6975_8651)"/>
<path d="M84.1989 122.743C88.6198 120.778 94.2271 122.55 96.7161 126.699L96.7105 126.701C99.1584 130.781 97.6829 135.634 93.43 137.665L93.4363 137.675L47.7289 157.99C43.3079 159.954 37.7007 158.182 35.2116 154.034C32.7225 149.886 34.2901 144.925 38.7111 142.96C38.9254 142.865 39.138 142.789 39.3558 142.712L39.3721 142.706C38.8858 142.3 38.4648 141.824 38.1351 141.275C36.6258 138.759 37.5725 135.748 40.2589 134.554C41.481 134.011 42.8529 133.943 44.1275 134.26C44.5987 129.874 47.3712 125.911 51.978 123.863C58.2236 121.087 65.8649 122.718 70.6736 127.416C70.9261 125.958 71.8968 124.663 73.4456 123.975C75.9123 122.878 78.979 123.697 80.6357 125.793C81.4314 124.515 82.6332 123.439 84.1989 122.743Z" fill="url(#paint2_linear_6975_8651)"/>
</g>
<path d="M146.813 50.5033C145.946 50.8888 145.298 51.4979 144.899 52.2241C144.786 51.9868 144.666 51.7521 144.527 51.5195C142.038 47.3711 136.43 45.5991 132.009 47.564C130.055 48.4325 128.661 49.8891 127.926 51.6013C126.868 50.5988 125.214 50.2561 123.857 50.8593C123.35 51.0846 122.944 51.4189 122.651 51.8102C122.54 51.5182 122.406 51.2231 122.235 50.9377C120.722 48.4169 117.319 47.3457 114.638 48.5371C112.819 49.3456 111.803 50.9818 111.801 52.7369C107.03 49.3148 100.498 48.3686 95.0297 50.799C87.7872 54.0179 85.07 61.973 88.7108 68.8495C86.7455 68.4511 84.6688 68.6043 82.799 69.4353C78.3781 71.4002 76.8105 76.3609 79.2996 80.5094C79.4074 80.6891 79.5257 80.8507 79.6416 81.0201C78.8393 80.955 78.0268 81.0751 77.2778 81.408C75.0307 82.4067 74.2358 84.9221 75.5009 87.0307C76.7661 89.1393 79.6093 90.0377 81.8564 89.039L151.386 58.1369C153.633 57.1382 154.428 54.6228 153.163 52.5142C151.898 50.4056 149.055 49.5071 146.808 50.5058L146.813 50.5033Z" fill="url(#paint3_linear_6975_8651)"/>
<path d="M155.495 67.9769C154.751 68.3073 154.249 68.8853 154.023 69.5547C153.988 69.4966 153.968 69.4388 153.933 69.3806C152.42 66.8598 149.017 65.7886 146.336 66.98C144.281 67.8936 143.249 69.8717 143.548 71.8807C143.187 71.8136 142.811 71.8403 142.473 71.9905C141.645 72.3585 141.352 73.2852 141.818 74.062C141.878 74.1624 141.95 74.2578 142.029 74.343C141.541 74.3257 141.041 74.4075 140.585 74.6102C139.075 75.281 138.541 76.9709 139.391 78.3872C140.241 79.8035 142.151 80.4071 143.66 79.7363L158.573 73.1084C160.083 72.4375 160.617 70.7476 159.767 69.3313C158.917 67.915 157.007 67.3114 155.498 67.9822L155.495 67.9769Z" fill="url(#paint4_linear_6975_8651)"/>
<g filter="url(#filter1_d_6975_8651)">
<path d="M96.7162 125.699C94.2271 121.55 88.6198 119.778 84.1989 121.743C82.6333 122.439 81.4315 123.515 80.6357 124.793C78.9791 122.697 75.9123 121.878 73.4456 122.975C71.8969 123.663 70.9261 124.958 70.6736 126.416C65.865 121.718 58.2236 120.087 51.978 122.863C47.3712 124.911 44.5987 128.874 44.1275 133.26C42.8529 132.943 41.481 133.011 40.2589 133.554C37.5726 134.748 36.6258 137.759 38.1351 140.275C38.4649 140.824 38.8858 141.3 39.3721 141.706C39.1486 141.786 38.9307 141.862 38.7111 141.96C34.2902 143.925 32.7225 148.886 35.2116 153.034C37.7007 157.182 43.3079 158.954 47.7289 156.99L93.4363 136.675L93.43 136.665C97.683 134.634 99.1584 129.781 96.7105 125.701L96.7162 125.699Z" fill="url(#paint5_linear_6975_8651)"/>
</g>
<g filter="url(#filter2_bd_6975_8651)">
<path d="M120.214 60.8278L52.1351 91.0853C50.873 91.6462 50.4628 93.1226 51.219 94.383L92.8719 163.804C93.6281 165.065 95.2643 165.632 96.5264 165.071L164.606 134.813C165.868 134.252 166.278 132.776 165.522 131.516L123.869 62.0942C123.113 60.8338 121.476 60.2669 120.214 60.8278Z" fill="url(#paint6_linear_6975_8651)"/>
</g>
<g filter="url(#filter3_bd_6975_8651)">
<path d="M51.5105 94.8688L92.8719 163.805C93.6281 165.065 95.2643 165.632 96.5264 165.071L164.23 134.98L164.522 135.466C165.278 136.726 164.868 138.203 163.606 138.764L95.5264 169.021C94.2643 169.582 92.6281 169.015 91.8719 167.755L50.219 98.3333C49.4628 97.073 49.873 95.5966 51.1351 95.0356L51.5105 94.8688Z" fill="url(#paint7_linear_6975_8651)"/>
</g>
<path d="M108.18 83.3039L63.7352 103.024C62.4731 103.585 62.0629 105.061 62.8191 106.321L62.9344 106.514C63.6906 107.774 65.3268 108.341 66.5889 107.78L111.034 88.0602C112.296 87.4992 112.706 86.0228 111.95 84.7625L111.835 84.5703C111.078 83.31 109.442 82.743 108.18 83.3039Z" fill="#ADC8D8"/>
<path d="M52.1351 91.0853L120.214 60.8278C121.476 60.2669 123.113 60.8338 123.869 62.0942L128.841 70.3815L56.1914 102.67L51.219 94.383C50.4628 93.1226 50.873 91.6462 52.1351 91.0853Z" fill="#ADC8D8"/>
<rect width="3.69777" height="3.69777" rx="1" transform="matrix(0.913812 -0.406138 0.514496 0.857493 58.4499 93.2643)" fill="#FFC000"/>
<path d="M124.244 75.7782L114.735 80.0043C113.473 80.5653 113.063 82.0417 113.819 83.302L113.934 83.4942C114.691 84.7545 116.327 85.3215 117.589 84.7605L127.098 80.5344C128.36 79.9734 128.77 78.497 128.014 77.2367L127.899 77.0445C127.142 75.7842 125.506 75.2172 124.244 75.7782Z" fill="#FFC000"/>
<path fill-rule="evenodd" clip-rule="evenodd" d="M144.363 125.627C148.911 123.606 152.137 120.2 153.793 116.202L156.895 117.182C157.173 118.175 158.004 119.047 159.156 119.411L169.279 122.61C170.998 123.153 172.78 122.36 173.261 120.84C173.742 119.319 172.738 117.646 171.019 117.103L160.896 113.904C159.744 113.54 158.563 113.776 157.765 114.429L154.663 113.448C155.606 109.225 154.922 104.584 152.362 100.317C146.67 90.8311 133.862 86.7835 123.753 91.2762C113.645 95.7689 110.064 107.101 115.755 116.586C121.446 126.072 134.255 130.119 144.363 125.627ZM141.193 120.342C148.191 117.232 150.67 109.387 146.73 102.82C142.79 96.2527 133.922 93.4506 126.924 96.5609C119.926 99.6713 117.447 107.516 121.387 114.083C125.327 120.65 134.194 123.452 141.193 120.342Z" fill="url(#paint8_linear_6975_8651)"/>
<path fill-rule="evenodd" clip-rule="evenodd" d="M145.363 123.627C149.911 121.606 153.137 118.2 154.793 114.202L157.895 115.182C158.173 116.175 159.004 117.047 160.156 117.411L170.279 120.61C171.998 121.153 173.78 120.36 174.261 118.84C174.742 117.319 173.738 115.646 172.019 115.103L161.896 111.904C160.744 111.54 159.563 111.776 158.765 112.429L155.663 111.448C156.606 107.225 155.922 102.584 153.362 98.3167C147.67 88.8311 134.862 84.7835 124.753 89.2762C114.645 93.7689 111.064 105.101 116.755 114.586C122.446 124.072 135.255 128.119 145.363 123.627ZM142.193 118.342C149.191 115.232 151.67 107.387 147.73 100.82C143.79 94.2527 134.922 91.4506 127.924 94.5609C120.926 97.6713 118.447 105.516 122.387 112.083C126.327 118.65 135.194 121.452 142.193 118.342Z" fill="#F3F7FA"/>
<defs>
<filter id="filter0_d_6975_8651" x="14.0288" y="37.7625" width="166.142" height="151.029" filterUnits="userSpaceOnUse" color-interpolation-filters="sRGB">
<feFlood flood-opacity="0" result="BackgroundImageFix"/>
<feColorMatrix in="SourceAlpha" type="matrix" values="0 0 0 0 0 0 0 0 0 0 0 0 0 0 0 0 0 0 127 0" result="hardAlpha"/>
<feOffset dy="10"/>
<feGaussianBlur stdDeviation="10"/>
<feComposite in2="hardAlpha" operator="out"/>
<feColorMatrix type="matrix" values="0 0 0 0 0.35 0 0 0 0 0.54 0 0 0 0 0.65 0 0 0 0.05 0"/>
<feBlend mode="normal" in2="BackgroundImageFix" result="effect1_dropShadow_6975_8651"/>
<feBlend mode="normal" in="SourceGraphic" in2="effect1_dropShadow_6975_8651" result="shape"/>
</filter>
<filter id="filter1_d_6975_8651" x="14.0288" y="110.942" width="103.865" height="76.8495" filterUnits="userSpaceOnUse" color-interpolation-filters="sRGB">
<feFlood flood-opacity="0" result="BackgroundImageFix"/>
<feColorMatrix in="SourceAlpha" type="matrix" values="0 0 0 0 0 0 0 0 0 0 0 0 0 0 0 0 0 0 127 0" result="hardAlpha"/>
<feOffset dy="10"/>
<feGaussianBlur stdDeviation="10"/>
<feComposite in2="hardAlpha" operator="out"/>
<feColorMatrix type="matrix" values="0 0 0 0 0.35 0 0 0 0 0.54 0 0 0 0 0.65 0 0 0 0.05 0"/>
<feBlend mode="normal" in2="BackgroundImageFix" result="effect1_dropShadow_6975_8651"/>
<feBlend mode="normal" in="SourceGraphic" in2="effect1_dropShadow_6975_8651" result="shape"/>
</filter>
<filter id="filter2_bd_6975_8651" x="30.8398" y="50.6114" width="155.061" height="144.676" filterUnits="userSpaceOnUse" color-interpolation-filters="sRGB">
<feFlood flood-opacity="0" result="BackgroundImageFix"/>
<feGaussianBlur in="BackgroundImageFix" stdDeviation="2"/>
<feComposite in2="SourceAlpha" operator="in" result="effect1_backgroundBlur_6975_8651"/>
<feColorMatrix in="SourceAlpha" type="matrix" values="0 0 0 0 0 0 0 0 0 0 0 0 0 0 0 0 0 0 127 0" result="hardAlpha"/>
<feOffset dy="10"/>
<feGaussianBlur stdDeviation="10"/>
<feComposite in2="hardAlpha" operator="out"/>
<feColorMatrix type="matrix" values="0 0 0 0 0.35 0 0 0 0 0.54 0 0 0 0 0.65 0 0 0 0.05 0"/>
<feBlend mode="normal" in2="effect1_backgroundBlur_6975_8651" result="effect2_dropShadow_6975_8651"/>
<feBlend mode="normal" in="SourceGraphic" in2="effect2_dropShadow_6975_8651" result="shape"/>
</filter>
<filter id="filter3_bd_6975_8651" x="29.8398" y="84.8688" width="155.061" height="114.369" filterUnits="userSpaceOnUse" color-interpolation-filters="sRGB">
<feFlood flood-opacity="0" result="BackgroundImageFix"/>
<feGaussianBlur in="BackgroundImageFix" stdDeviation="2"/>
<feComposite in2="SourceAlpha" operator="in" result="effect1_backgroundBlur_6975_8651"/>
<feColorMatrix in="SourceAlpha" type="matrix" values="0 0 0 0 0 0 0 0 0 0 0 0 0 0 0 0 0 0 127 0" result="hardAlpha"/>
<feOffset dy="10"/>
<feGaussianBlur stdDeviation="10"/>
<feComposite in2="hardAlpha" operator="out"/>
<feColorMatrix type="matrix" values="0 0 0 0 0.35 0 0 0 0 0.54 0 0 0 0 0.65 0 0 0 0.05 0"/>
<feBlend mode="normal" in2="effect1_backgroundBlur_6975_8651" result="effect2_dropShadow_6975_8651"/>
<feBlend mode="normal" in="SourceGraphic" in2="effect2_dropShadow_6975_8651" result="shape"/>
</filter>
<linearGradient id="paint0_linear_6975_8651" x1="159.611" y1="103.17" x2="35.2248" y2="103.17" gradientUnits="userSpaceOnUse">
<stop stop-color="#ADC8D8"/>
<stop offset="1" stop-color="#DFEAF1"/>
</linearGradient>
<linearGradient id="paint1_linear_6975_8651" x1="159.611" y1="103.17" x2="35.2248" y2="103.17" gradientUnits="userSpaceOnUse">
<stop stop-color="#ADC8D8"/>
<stop offset="1" stop-color="#DFEAF1"/>
</linearGradient>
<linearGradient id="paint2_linear_6975_8651" x1="159.611" y1="103.17" x2="35.2248" y2="103.17" gradientUnits="userSpaceOnUse">
<stop stop-color="#ADC8D8"/>
<stop offset="1" stop-color="#DFEAF1"/>
</linearGradient>
<linearGradient id="paint3_linear_6975_8651" x1="101.592" y1="47.8826" x2="113.224" y2="74.8406" gradientUnits="userSpaceOnUse">
<stop stop-color="#F6F9FA"/>
<stop offset="1" stop-color="#E3EDF2"/>
</linearGradient>
<linearGradient id="paint4_linear_6975_8651" x1="145.719" y1="67.2542" x2="149.834" y2="76.8939" gradientUnits="userSpaceOnUse">
<stop stop-color="#F6F9FA"/>
<stop offset="1" stop-color="#E3EDF2"/>
</linearGradient>
<linearGradient id="paint5_linear_6975_8651" x1="55.4482" y1="121.321" x2="66.9483" y2="148.178" gradientUnits="userSpaceOnUse">
<stop stop-color="#F6F9FA"/>
<stop offset="1" stop-color="#E3EDF2"/>
</linearGradient>
<linearGradient id="paint6_linear_6975_8651" x1="86.4653" y1="75.8274" x2="118.247" y2="154.32" gradientUnits="userSpaceOnUse">
<stop stop-color="#F6F9FA"/>
<stop offset="1" stop-color="#E3EDF2"/>
</linearGradient>
<linearGradient id="paint7_linear_6975_8651" x1="164.39" y1="131.982" x2="50.9308" y2="131.982" gradientUnits="userSpaceOnUse">
<stop stop-color="#ADC8D8"/>
<stop offset="1" stop-color="#DFEAF1"/>
</linearGradient>
<linearGradient id="paint8_linear_6975_8651" x1="161.884" y1="100.552" x2="121.282" y2="124.914" gradientUnits="userSpaceOnUse">
<stop stop-color="#ADC8D8"/>
<stop offset="1" stop-color="#DFEAF1"/>
</linearGradient>
</defs>
</svg>
