<svg width="164" height="42" viewBox="0 0 164 42" fill="none" xmlns="http://www.w3.org/2000/svg">
<path fill-rule="evenodd" clip-rule="evenodd" d="M25.0111 17.822C25.4477 17.8619 25.9555 18.0843 26.3364 18.2512L24.3302 22.8311C24.2406 22.7918 24.1814 22.766 24.1278 22.7434C22.9852 22.5388 21.9695 21.9466 21.2324 21.0965C20.8774 21.7302 20.2203 22.643 19.1147 23.3055C18.8387 23.5953 18.5288 23.851 18.1916 24.0671C17.787 24.3264 17.0932 24.7341 16.167 24.9823C16.053 25.0129 15.9393 25.0401 15.8259 25.064C15.8888 25.1728 15.9431 25.2739 15.9894 25.3646C16.3907 26.1503 16.5893 26.9186 16.6909 27.493C16.7449 27.7981 16.7703 28.1072 16.7671 28.4164C16.7812 28.5278 16.8047 28.7243 16.8196 28.9382C16.8289 29.0715 16.836 29.2237 16.8372 29.3918C16.9019 30.251 16.7884 31.0387 16.5637 31.7426C17.2987 31.719 18.0392 31.8574 18.7304 32.1601C19.0753 32.3112 19.3566 32.4686 19.5511 32.5838C19.7065 32.6758 19.8636 32.7759 19.9375 32.823C19.9419 32.8258 19.946 32.8285 19.9498 32.8309L17.9382 37.4231C17.6661 37.3039 17.4463 37.1642 17.2424 37.0345C17.0658 36.9222 16.901 36.8174 16.7242 36.74L13.9455 38.2468C13.3978 38.4608 12.5804 38.2541 12.1837 37.7777L9.64551 34.2445C9.24888 33.7681 9.27303 33.0221 9.80505 32.4985L11.4567 30.8007C11.7505 30.4754 11.9174 30.0945 11.8303 29.6024C11.8503 29.3841 11.8246 29.1837 11.7989 28.9833C11.7731 28.7829 11.7474 28.5824 11.7674 28.3642C11.6803 27.8721 11.4663 27.3243 11.0854 27.1575L9.03816 25.958C8.45894 25.553 8.17355 24.8226 8.45163 24.1878L10.1758 20.2518C10.4539 19.617 11.1842 19.3316 11.8746 19.4827L14.1443 20.1743C14.7078 20.2698 15.073 20.1271 15.4937 19.8574C15.7876 19.5321 16.0814 19.2069 16.4465 19.0642C16.8117 18.9215 17.0342 18.4136 17.0741 17.9771L17.2021 15.6119C17.1707 14.9928 17.7583 14.3422 18.3774 14.3108L22.6954 13.781C23.3701 13.6225 24.0763 14.0832 24.2347 14.7579L25.0111 17.822Z" fill="#FFC107"/>
<path d="M38.6678 34.104H28.0118L26.0318 39H18.7598L29.8838 13.8H36.9038L48.0638 39H40.6478L38.6678 34.104ZM36.5798 28.848L33.3398 20.784L30.0998 28.848H36.5798Z" fill="#28376E"/>
<path d="M50.0845 13.8H62.0005C64.7605 13.8 67.2085 14.316 69.3445 15.348C71.4805 16.38 73.1365 17.844 74.3125 19.74C75.4886 21.636 76.0765 23.856 76.0765 26.4C76.0765 28.944 75.4886 31.164 74.3125 33.06C73.1365 34.956 71.4805 36.42 69.3445 37.452C67.2085 38.484 64.7605 39 62.0005 39H50.0845V13.8ZM61.7125 33.312C63.8725 33.312 65.6005 32.7 66.8965 31.476C68.2165 30.252 68.8765 28.56 68.8765 26.4C68.8765 24.24 68.2165 22.548 66.8965 21.324C65.6005 20.1 63.8725 19.488 61.7125 19.488H57.2125V33.312H61.7125Z" fill="#28376E"/>
<path d="M102.579 39L102.507 25.644L96.0267 36.516H92.8587L86.4147 26.004V39H79.8267V13.8H85.6947L94.5507 28.344L103.191 13.8H109.059L109.131 39H102.579Z" fill="#28376E"/>
<path d="M114.174 13.8H121.302V39H114.174V13.8Z" fill="#28376E"/>
<path d="M150.35 13.8V39H144.482L133.358 25.572V39H126.374V13.8H132.242L143.366 27.228V13.8H150.35Z" fill="#28376E"/>
</svg>
