<svg width="178" height="42" viewBox="0 0 178 42" fill="none" xmlns="http://www.w3.org/2000/svg">
<path d="M72.6166 22.654C72.3274 29.9839 66.552 35.6914 59.3622 35.6914C51.7793 35.6914 46.144 29.5546 46.144 22.1479C46.144 14.6734 52.2493 8.53198 59.6876 8.53198C63.0453 8.53198 66.3306 9.97808 69.1143 12.5765L66.9497 15.2473C64.8213 13.4035 62.2544 12.1427 59.6921 12.1427C54.2376 12.1427 49.7638 16.6211 49.7638 22.1433C49.7638 27.7424 53.9891 32.0762 59.3713 32.0762C64.2112 32.0762 68.0027 28.5378 68.7619 23.9871H57.7851V20.7741H72.6256V22.654H72.6166Z" fill="#28376E"/>
<path d="M85.2157 20.887H83.1912C80.9587 20.887 79.1466 22.6991 79.1466 24.9316V35.4745H75.5359V17.4209H78.4959V18.9393C79.472 17.9632 81.022 17.4209 82.7573 17.4209H86.6573L85.2157 20.887Z" fill="#28376E"/>
<path d="M104.896 35.4745H101.828V33.2014C99.4552 35.5197 95.7089 36.6314 91.9174 34.9684C89.1066 33.7347 87.0143 31.1724 86.4584 28.1491C85.3829 22.3105 89.8748 17.1317 95.614 17.1317C98.0317 17.1317 100.201 18.1078 101.787 19.694V17.4209H104.892V35.4745H104.896ZM101.2 27.747C102.054 24.0775 99.2744 20.7424 95.6502 20.7424C92.5094 20.7424 89.9788 23.3047 89.9788 26.4138C89.9788 29.9251 93.0653 32.6456 96.6579 32.031C98.8722 31.6514 100.693 29.9342 101.2 27.747Z" fill="#28376E"/>
<path d="M112.172 16.4087V17.421H117.915V20.5978H112.172V35.4745H108.597V16.5171C108.597 12.5449 111.449 10.1995 115.023 10.1995H119.357L117.911 13.5933H115.023C113.437 13.5933 112.172 14.8541 112.172 16.4087Z" fill="#28376E"/>
<path d="M137.054 35.4745H133.985V33.2014C131.613 35.5197 127.866 36.6314 124.075 34.9684C121.264 33.7347 119.172 31.1724 118.616 28.1491C117.54 22.3105 122.032 17.1317 127.772 17.1317C130.189 17.1317 132.358 18.1078 133.945 19.694V17.4209H137.049V35.4745H137.054ZM133.362 27.747C134.216 24.0775 131.437 20.7424 127.812 20.7424C124.672 20.7424 122.141 23.3047 122.141 26.4138C122.141 29.9251 125.227 32.6456 128.82 32.031C131.034 31.6514 132.851 29.9342 133.362 27.747Z" fill="#28376E"/>
<path d="M156.341 24.7869V35.4745H152.73V24.7869C152.73 22.55 150.886 20.7424 148.686 20.7424C146.413 20.7424 144.605 22.55 144.605 24.7869V35.4745H140.994V17.4209H143.99V18.9754C145.292 17.8186 147.023 17.1362 148.83 17.1362C153.019 17.1317 156.341 20.5616 156.341 24.7869Z" fill="#28376E"/>
<path d="M177.576 35.4745H174.508V33.2014C172.135 35.5197 168.389 36.6314 164.597 34.9684C161.786 33.7347 159.694 31.1724 159.138 28.1491C158.063 22.3105 162.555 17.1317 168.294 17.1317C170.712 17.1317 172.881 18.1078 174.467 19.694V17.4209H177.571V35.4745H177.576ZM173.884 27.747C174.738 24.0775 171.959 20.7424 168.334 20.7424C165.194 20.7424 162.663 23.3047 162.663 26.4138C162.663 29.9251 165.75 32.6456 169.342 32.031C171.557 31.6514 173.373 29.9342 173.884 27.747Z" fill="#28376E"/>
<path d="M38.6062 18.5281C38.5429 17.8231 38.4209 17.0097 38.1859 16.1104C37.9509 15.2156 37.603 14.235 37.1014 13.2137C36.5907 12.2014 35.9264 11.144 35.0678 10.1227C34.7334 9.72046 34.3673 9.32731 33.9697 8.93867C34.5617 6.58877 33.2511 4.5552 33.2511 4.5552C30.9916 4.41511 29.5546 5.25565 29.0213 5.64429C28.9309 5.60813 28.8451 5.56746 28.7547 5.53131C28.3706 5.37314 27.9729 5.22853 27.5662 5.102C27.1595 4.97547 26.7437 4.85797 26.3189 4.75403C25.8941 4.65462 25.4603 4.56875 25.0219 4.50097C24.9451 4.48741 24.8683 4.47837 24.7915 4.46934C23.8063 1.31504 20.9729 0 20.9729 0C17.8186 2.00194 17.2176 4.80374 17.2176 4.80374C17.2176 4.80374 17.204 4.86701 17.1859 4.97095C17.0097 5.02066 16.838 5.07037 16.6617 5.1246C16.4177 5.1969 16.1827 5.28728 15.9387 5.37314C15.6992 5.46804 15.4597 5.55842 15.2201 5.66236C14.7456 5.86572 14.2711 6.09619 13.8102 6.35378C13.3628 6.60684 12.9245 6.8825 12.4952 7.18076C12.4319 7.15365 12.3867 7.13105 12.3867 7.13105C8.01679 5.46352 4.13493 7.46998 4.13493 7.46998C3.78244 12.1201 5.87928 15.0484 6.29503 15.5771C6.19109 15.8664 6.09619 16.1556 6.00581 16.4493C5.68044 17.5023 5.44093 18.5823 5.2918 19.703C5.26921 19.8612 5.25113 20.0239 5.23305 20.1866C1.19755 22.1795 0 26.2692 0 26.2692C3.37121 30.1465 7.29826 30.3861 7.29826 30.3861C7.30278 30.3815 7.3073 30.3815 7.3073 30.377C7.80891 31.2673 8.38735 32.1168 9.03357 32.9077C9.30471 33.2376 9.59393 33.5584 9.88767 33.8657C8.65849 37.377 10.0594 40.3054 10.0594 40.3054C13.8102 40.4454 16.2776 38.6649 16.7928 38.2537C17.1679 38.3802 17.5429 38.4932 17.927 38.5926C19.0794 38.8909 20.2589 39.0626 21.4383 39.1168C21.7321 39.1304 22.0258 39.1349 22.3241 39.1349H22.4687L22.5636 39.1304L22.7489 39.1259L22.9342 39.1168L22.9387 39.1214C24.7056 41.643 27.8147 42 27.8147 42C30.0245 39.6682 30.1511 37.3589 30.1511 36.8573C30.1511 36.8573 30.1511 36.8392 30.1511 36.8257C30.1511 36.785 30.1511 36.7534 30.1511 36.7534C30.1511 36.7172 30.1465 36.6856 30.1465 36.6449C30.612 36.3196 31.0549 35.9716 31.4706 35.5965C32.3564 34.7966 33.1291 33.8838 33.7708 32.9032C33.8296 32.8128 33.8883 32.7179 33.9471 32.623C36.4506 32.7676 38.213 31.073 38.213 31.073C37.7973 28.4655 36.3105 27.1956 36.0032 26.9516C36.0032 26.9516 35.9897 26.9425 35.9716 26.929C35.9535 26.9154 35.9445 26.9064 35.9445 26.9064C35.9264 26.8974 35.9083 26.8838 35.8903 26.8702C35.9038 26.7121 35.9174 26.5584 35.9264 26.4003C35.9445 26.1201 35.9535 25.8399 35.9535 25.5597V25.3518V25.2479V25.1937C35.9535 25.1214 35.9535 25.1485 35.9535 25.1214L35.9445 24.9451L35.9309 24.7101C35.9264 24.6288 35.9219 24.5565 35.9128 24.4842C35.9083 24.4119 35.8993 24.3396 35.8903 24.2673L35.8631 24.0504L35.8315 23.8334C35.7908 23.5487 35.7321 23.264 35.6688 22.9793C35.4067 21.8541 34.9684 20.7876 34.3899 19.8296C33.8115 18.8715 33.0884 18.0219 32.2795 17.3079C31.4661 16.5894 30.5578 16.0155 29.6043 15.5862C28.6507 15.1569 27.6475 14.8812 26.6488 14.7547C26.1517 14.6914 25.6501 14.6643 25.1575 14.6688L24.9722 14.6733H24.9271C24.9135 14.6733 24.8593 14.6733 24.8638 14.6733L24.787 14.6779L24.6062 14.6914C24.5384 14.6959 24.4661 14.7005 24.4028 14.7095C24.1498 14.7321 23.8967 14.7682 23.6527 14.8179C22.663 15.0032 21.7276 15.3602 20.9006 15.8528C20.0781 16.3454 19.3596 16.9645 18.7766 17.6604C18.1937 18.3609 17.7418 19.1336 17.43 19.9335C17.1181 20.7334 16.9464 21.5604 16.8967 22.3648C16.8832 22.5636 16.8786 22.7669 16.8832 22.9613C16.8832 23.011 16.8832 23.0607 16.8877 23.1104L16.8922 23.2731C16.9012 23.368 16.9057 23.4674 16.9148 23.5623C16.9555 23.969 17.0278 24.3577 17.1362 24.7372C17.3531 25.4874 17.7011 26.1698 18.1349 26.7482C18.5642 27.3267 19.0794 27.8057 19.6262 28.1808C20.173 28.5558 20.756 28.8225 21.3344 28.9897C21.9128 29.1614 22.4868 29.2337 23.0291 29.2337C23.0968 29.2337 23.1646 29.2337 23.2324 29.2292C23.2686 29.2292 23.3047 29.2247 23.3409 29.2247C23.377 29.2247 23.4132 29.2201 23.4493 29.2201C23.5081 29.2156 23.5623 29.2066 23.621 29.2021C23.6346 29.2021 23.6527 29.1975 23.6708 29.1975L23.725 29.1885C23.7611 29.184 23.7928 29.1795 23.8289 29.1749C23.9012 29.1659 23.96 29.1524 24.0278 29.1388C24.091 29.1252 24.1543 29.1162 24.2176 29.0981C24.3441 29.071 24.4616 29.0349 24.5791 28.9942C24.8141 28.9174 25.0355 28.8225 25.2434 28.7185C25.4513 28.6101 25.6411 28.4926 25.8173 28.3706C25.867 28.3344 25.9167 28.2983 25.9664 28.2576C26.1562 28.1085 26.1879 27.8328 26.0342 27.6475C25.9032 27.4848 25.6727 27.4442 25.4919 27.5436C25.4467 27.5662 25.4016 27.5933 25.3564 27.6159C25.1982 27.6927 25.0355 27.7605 24.8593 27.8192C24.683 27.8735 24.5023 27.9187 24.3125 27.9548C24.2176 27.9684 24.1227 27.9819 24.0232 27.991C23.9735 27.9955 23.9238 28 23.8786 28C23.8289 28 23.7792 28.0045 23.734 28.0045C23.6888 28.0045 23.6391 28.0045 23.5939 28C23.5352 27.9955 23.4764 27.9955 23.4177 27.991C23.4177 27.991 23.3861 27.991 23.4132 27.991H23.3951L23.3544 27.9864C23.3273 27.9819 23.3002 27.9819 23.2776 27.9774C23.2234 27.9729 23.1737 27.9638 23.1194 27.9593C22.6946 27.9006 22.2653 27.7786 21.8541 27.5888C21.4383 27.4035 21.0407 27.1414 20.6837 26.8205C20.3267 26.4997 20.0148 26.111 19.7708 25.6727C19.5268 25.2343 19.3551 24.7508 19.2737 24.2402C19.2331 23.9871 19.215 23.7205 19.224 23.4629C19.2285 23.3906 19.2285 23.3228 19.2331 23.2505C19.2331 23.2686 19.2331 23.2414 19.2331 23.2369V23.2098L19.2376 23.1556C19.2421 23.1194 19.2421 23.0878 19.2466 23.0516C19.2602 22.9116 19.2828 22.7715 19.3054 22.6314C19.4997 21.5197 20.0555 20.4351 20.9187 19.6127C21.1356 19.4093 21.366 19.215 21.6146 19.0478C21.8631 18.876 22.1252 18.7269 22.3964 18.6004C22.672 18.4739 22.9567 18.3699 23.2505 18.2931C23.5442 18.2163 23.847 18.162 24.1498 18.1349C24.3034 18.1214 24.4571 18.1168 24.6107 18.1168C24.6514 18.1168 24.683 18.1168 24.7147 18.1168L24.8412 18.1214L24.918 18.1259C24.9496 18.1259 24.918 18.1259 24.9316 18.1259H24.9632L25.0897 18.1349C25.4196 18.162 25.7495 18.2072 26.0749 18.2841C26.7256 18.4287 27.3583 18.6682 27.9503 18.9935C29.1298 19.6488 30.1375 20.6701 30.7521 21.9038C31.0639 22.5184 31.2808 23.1782 31.3893 23.8606C31.4164 24.0323 31.4345 24.204 31.448 24.3757L31.4571 24.5068L31.4616 24.6378C31.4661 24.683 31.4661 24.7237 31.4661 24.7689C31.4661 24.8141 31.4706 24.8593 31.4661 24.8909V25.0039L31.4616 25.1304C31.4571 25.2163 31.4525 25.3518 31.448 25.4377C31.4345 25.6275 31.4164 25.8128 31.3938 26.0026C31.3712 26.1879 31.3396 26.3731 31.3079 26.5584C31.2718 26.7437 31.2311 26.9245 31.1859 27.1052C31.0955 27.4668 30.9781 27.8283 30.838 28.1762C30.5623 28.8767 30.1917 29.541 29.7489 30.1556C28.8586 31.3802 27.643 32.379 26.2602 33.0116C25.5688 33.3234 24.8367 33.5539 24.091 33.6759C23.7159 33.7392 23.3363 33.7753 22.9567 33.7889L22.8844 33.7934H22.8257H22.7037H22.5184H22.4235C22.4732 33.7934 22.4145 33.7934 22.419 33.7934H22.3828C22.1795 33.7889 21.9761 33.7799 21.7728 33.7618C20.9593 33.703 20.1595 33.5584 19.3822 33.3325C18.6049 33.1065 17.8502 32.8037 17.1362 32.4241C15.7082 31.6604 14.4338 30.6165 13.4351 29.3557C12.9335 28.7276 12.4952 28.0542 12.1336 27.3447C11.7721 26.6352 11.4874 25.8896 11.275 25.1304C11.0671 24.3667 10.9361 23.5894 10.8864 22.8031L10.8773 22.654L10.8728 22.6178V22.5862V22.5229L10.8683 22.3919V22.3602V22.315V22.2247L10.8638 22.0439V22.0077C10.8638 22.0123 10.8638 22.0123 10.8638 21.9942V21.9219C10.8638 21.827 10.8683 21.7321 10.8683 21.6327C10.8819 21.244 10.9135 20.8464 10.9677 20.4487C11.0174 20.051 11.0852 19.6488 11.1666 19.2511C11.2479 18.8535 11.3473 18.4603 11.4558 18.0762C11.6772 17.3034 11.9529 16.5533 12.2828 15.8438C12.938 14.4248 13.7966 13.173 14.8315 12.1698C15.0891 11.9167 15.3557 11.6772 15.6359 11.4558C15.9116 11.2343 16.2008 11.0265 16.499 10.8321C16.7928 10.6378 17.1001 10.4571 17.4164 10.2944C17.57 10.2085 17.7327 10.1362 17.8909 10.0594C17.9722 10.0232 18.0536 9.98709 18.1349 9.95094C18.2163 9.91478 18.2976 9.87863 18.379 9.847C18.7043 9.70691 19.0433 9.59393 19.3822 9.48547C19.468 9.45836 19.5539 9.43576 19.6398 9.40865C19.7256 9.38154 19.8115 9.36346 19.8974 9.33635C20.0691 9.28664 20.2453 9.24597 20.417 9.20529C20.5029 9.1827 20.5933 9.16462 20.6791 9.14655C20.765 9.12847 20.8554 9.11039 20.9413 9.09232C21.0316 9.07424 21.1175 9.06068 21.2079 9.04261L21.3389 9.02001L21.47 9.00194C21.5604 8.98838 21.6462 8.97482 21.7366 8.96127C21.836 8.94319 21.9354 8.93867 22.0349 8.92059C22.1162 8.91156 22.2518 8.89348 22.3331 8.88444C22.3964 8.87992 22.4597 8.87088 22.5229 8.86637L22.6495 8.85281L22.7127 8.84829L22.785 8.84377C22.8844 8.83925 22.9839 8.83021 23.0878 8.82569L23.2369 8.81666C23.2369 8.81666 23.2912 8.81666 23.246 8.81666H23.2776L23.3409 8.81214C23.4267 8.80762 23.5126 8.8031 23.5985 8.79858C23.9374 8.78954 24.2763 8.78954 24.6152 8.79858C25.2886 8.82569 25.9484 8.898 26.5901 9.02001C27.8735 9.25952 29.0801 9.67076 30.1737 10.213C31.2673 10.7463 32.2479 11.4061 33.0975 12.1201C33.1517 12.1653 33.2014 12.2105 33.2556 12.2556C33.3054 12.3008 33.3596 12.346 33.4093 12.3912C33.5132 12.4816 33.6127 12.5765 33.7121 12.6669C33.8115 12.7573 33.9064 12.8522 34.0013 12.9471C34.0962 13.042 34.1911 13.1369 34.277 13.2318C34.6385 13.6159 34.9729 14 35.2711 14.3886C35.8767 15.1659 36.3602 15.9522 36.7444 16.6933C36.7669 16.7385 36.7941 16.7837 36.8167 16.8334C36.8393 16.8786 36.8619 16.9238 36.8844 16.9735C36.9296 17.0639 36.9748 17.1543 37.0155 17.2447C37.0562 17.3351 37.1014 17.4254 37.1375 17.5113C37.1782 17.6017 37.2143 17.6875 37.2505 17.7734C37.3951 18.1214 37.5261 18.4513 37.6301 18.7631C37.8063 19.2647 37.9374 19.7211 38.0368 20.1188C38.0775 20.277 38.2266 20.3809 38.3893 20.3673C38.5565 20.3538 38.6875 20.2137 38.6921 20.0465C38.6649 19.5946 38.6559 19.0975 38.6062 18.5281Z" fill="url(#paint0_linear)"/>
<defs>
<linearGradient id="paint0_linear" x1="19.33" y1="51.4365" x2="19.33" y2="13.0716" gradientUnits="userSpaceOnUse">
<stop stop-color="#FFF100"/>
<stop offset="1" stop-color="#F05A28"/>
</linearGradient>
</defs>
</svg>
