<svg width="195" height="42" viewBox="0 0 195 42" fill="none" xmlns="http://www.w3.org/2000/svg">
<path d="M35.7592 13.7998V38.9998H28.6312V29.1718H18.9112V38.9998H11.7832V13.7998H18.9112V23.2678H28.6312V13.7998H35.7592Z" fill="#28376E"/>
<path d="M68.6395 39.5039C66.5995 39.5039 64.6195 39.2519 62.6995 38.7479C60.7795 38.2439 59.2195 37.5719 58.0195 36.7319L60.3595 31.4759C61.4875 32.2199 62.7955 32.8199 64.2835 33.2759C65.7715 33.7319 67.2355 33.9599 68.6755 33.9599C71.4115 33.9599 72.7795 33.2759 72.7795 31.9079C72.7795 31.1879 72.3835 30.6599 71.5915 30.3239C70.8235 29.9639 69.5755 29.5919 67.8475 29.2079C65.9515 28.7999 64.3675 28.3679 63.0955 27.9119C61.8235 27.4319 60.7315 26.6759 59.8195 25.6439C58.9075 24.6119 58.4515 23.2199 58.4515 21.4679C58.4515 19.9319 58.8715 18.5519 59.7115 17.3279C60.5515 16.0799 61.7995 15.0959 63.4555 14.3759C65.1355 13.6559 67.1875 13.2959 69.6115 13.2959C71.2675 13.2959 72.8995 13.4879 74.5075 13.8719C76.1155 14.2319 77.5315 14.7719 78.7555 15.4919L76.5595 20.7839C74.1595 19.4879 71.8315 18.8399 69.5755 18.8399C68.1595 18.8399 67.1275 19.0559 66.4795 19.4879C65.8315 19.8959 65.5075 20.4359 65.5075 21.1079C65.5075 21.7799 65.8915 22.2839 66.6595 22.6199C67.4275 22.9559 68.6635 23.3039 70.3675 23.6639C72.2875 24.0719 73.8715 24.5159 75.1195 24.9959C76.3915 25.4519 77.4835 26.1959 78.3955 27.2279C79.3315 28.2359 79.7995 29.6159 79.7995 31.3679C79.7995 32.8799 79.3795 34.2479 78.5395 35.4719C77.6995 36.6959 76.4395 37.6799 74.7595 38.4239C73.0795 39.1439 71.0395 39.5039 68.6395 39.5039Z" fill="#28376E"/>
<path d="M88.1046 19.4519H80.3646V13.7999H102.937V19.4519H95.2326V38.9999H88.1046V19.4519Z" fill="#28376E"/>
<path d="M117.949 39.5039C115.285 39.5039 112.885 38.9399 110.749 37.8119C108.637 36.6839 106.969 35.1239 105.745 33.1319C104.545 31.1399 103.945 28.8959 103.945 26.3999C103.945 23.9039 104.545 21.6599 105.745 19.6679C106.969 17.6759 108.637 16.1159 110.749 14.9879C112.885 13.8599 115.285 13.2959 117.949 13.2959C120.613 13.2959 123.001 13.8599 125.113 14.9879C127.249 16.1159 128.917 17.6759 130.117 19.6679C131.341 21.6599 131.953 23.9039 131.953 26.3999C131.953 28.8959 131.341 31.1399 130.117 33.1319C128.917 35.1239 127.249 36.6839 125.113 37.8119C123.001 38.9399 120.613 39.5039 117.949 39.5039ZM117.949 33.5999C119.221 33.5999 120.373 33.2999 121.405 32.6999C122.437 32.0999 123.253 31.2599 123.853 30.1799C124.453 29.0759 124.753 27.8159 124.753 26.3999C124.753 24.9839 124.453 23.7359 123.853 22.6559C123.253 21.5519 122.437 20.6999 121.405 20.0999C120.373 19.4999 119.221 19.1999 117.949 19.1999C116.677 19.1999 115.525 19.4999 114.493 20.0999C113.461 20.6999 112.645 21.5519 112.045 22.6559C111.445 23.7359 111.145 24.9839 111.145 26.3999C111.145 27.8159 111.445 29.0759 112.045 30.1799C112.645 31.2599 113.461 32.0999 114.493 32.6999C115.525 33.2999 116.677 33.5999 117.949 33.5999Z" fill="#28376E"/>
<path d="M146.702 32.3039H142.814V38.9999H135.686V13.7999H147.206C149.486 13.7999 151.466 14.1839 153.146 14.9519C154.826 15.6959 156.122 16.7759 157.034 18.1919C157.946 19.5839 158.402 21.2279 158.402 23.1239C158.402 24.9479 157.97 26.5439 157.106 27.9119C156.266 29.2559 155.054 30.3119 153.47 31.0799L158.906 38.9999H151.274L146.702 32.3039ZM151.202 23.1239C151.202 21.9479 150.83 21.0359 150.086 20.3879C149.342 19.7399 148.238 19.4159 146.774 19.4159H142.814V26.7959H146.774C148.238 26.7959 149.342 26.4839 150.086 25.8599C150.83 25.2119 151.202 24.2999 151.202 23.1239Z" fill="#28376E"/>
<path d="M175.483 29.9639V38.9999H168.355V29.8559L158.743 13.7999H166.267L172.243 23.8079L178.219 13.7999H185.131L175.483 29.9639Z" fill="#28376E"/>
<path fill-rule="evenodd" clip-rule="evenodd" d="M43.2637 14C43.348 14.2768 43.3933 14.5706 43.3933 14.875C43.3933 18.3166 44.9146 20.3414 47.3683 22.5502C49.822 20.3414 51.3433 18.3166 51.3433 14.875C51.3433 14.5706 51.3886 14.2768 51.4729 14H43.2637ZM51.4729 39C51.3886 38.7232 51.3433 38.4294 51.3433 38.125C51.3433 34.6834 49.822 32.6586 47.3683 30.4498C44.9146 32.6586 43.3933 34.6834 43.3933 38.125C43.3933 38.4294 43.348 38.7232 43.2637 39H51.4729Z" fill="#FFC107"/>
</svg>
