<svg width="24" height="24" viewBox="0 0 24 24" fill="none" xmlns="http://www.w3.org/2000/svg">
    <path d="M20.3807 9.66667H19.7287C19.0978 5.88172 15.8591 3 11.9895 3C8.11987 3 4.90221 5.88172 4.25026 9.66667H3.61935C2.73607 9.66667 2 10.4194 2 11.3226V14.0968C2 14.5484 2.16824 14.957 2.4837 15.2796C2.79916 15.5806 3.19874 15.7527 3.61935 15.7527H5.07045C5.49106 15.7527 5.82755 15.4086 5.82755 14.9785V11.0215C5.82755 7.55914 8.58254 4.74194 11.9685 4.74194C15.3544 4.74194 18.1094 7.55914 18.1094 11.0215V16.4194C18.1094 17.8387 16.9737 19 15.5857 19H14.1977C14.0925 18.5484 13.714 18.2258 13.2303 18.2258H10.7277C10.1598 18.2258 9.71819 18.6989 9.71819 19.2581V19.9677C9.71819 20.5484 10.1809 21 10.7277 21H13.2723C13.735 21 14.1136 20.6559 14.2397 20.2258H15.6278C17.6677 20.2258 19.3502 18.5269 19.3502 16.4194V15.7312H20.3807C20.8013 15.7312 21.2219 15.5591 21.5163 15.2581C21.8318 14.9355 22 14.5269 22 14.0753V11.3226C22 10.4194 21.285 9.68817 20.3807 9.66667Z"
          fill="white" fill-opacity="0.3"/>
    <path d="M10.2226 14.785C10.4749 14.9355 10.7483 15.043 11.0428 15.1291V15.8387C11.0428 16.0108 11.1689 16.1398 11.3372 16.1398H12.6621C12.8303 16.1398 12.9565 16.0108 12.9565 15.8387V15.1291C13.251 15.043 13.5244 14.9355 13.7767 14.785L14.2604 15.2796C14.3866 15.4086 14.5759 15.4086 14.681 15.2796L15.6064 14.3334C15.7326 14.2043 15.7326 14.0108 15.6064 13.9032L15.1647 13.3871C15.3119 13.1291 15.4171 12.8495 15.5012 12.5484H16.1952C16.3635 12.5484 16.4897 12.4194 16.4897 12.2473V10.8925C16.4897 10.7205 16.3635 10.5914 16.1952 10.5914H15.5012C15.4171 10.2903 15.3119 10.0108 15.1647 9.75271L15.6484 9.25809C15.7746 9.12905 15.7746 8.9355 15.6484 8.82798L14.7231 7.88174C14.5969 7.75271 14.4076 7.75271 14.3025 7.88174L13.8188 8.37636C13.5664 8.22583 13.293 8.1183 12.9986 8.03228V7.27959C12.9986 7.10755 12.8724 6.97852 12.7042 6.97852H11.3792C11.211 6.97852 11.0848 7.10755 11.0848 7.27959V7.98927C10.7904 8.07529 10.517 8.18282 10.2646 8.33335L9.78092 7.83873C9.65474 7.7097 9.46546 7.7097 9.36031 7.83873L8.43497 8.78497C8.30879 8.914 8.30879 9.10755 8.43497 9.21507L8.91867 9.7097C8.77146 9.96776 8.66631 10.2473 8.58218 10.5484H7.88818C7.71993 10.5484 7.59375 10.6774 7.59375 10.8495V12.2043C7.59375 12.3764 7.71993 12.5054 7.88818 12.5054H8.58218C8.66631 12.8065 8.77146 13.086 8.91867 13.3441L8.43497 13.8387C8.30879 13.9678 8.30879 14.1613 8.43497 14.2688L9.36031 15.2151C9.48649 15.3441 9.67577 15.3441 9.78092 15.2151L10.2226 14.785ZM12.0102 9.81722C12.9565 9.81722 13.7136 10.5914 13.7136 11.5592C13.7136 12.5269 12.9565 13.3011 12.0102 13.3011C11.0638 13.3011 10.3067 12.5269 10.3067 11.5592C10.3067 10.5914 11.0638 9.81722 12.0102 9.81722Z"
          fill="white" fill-opacity="0.3"/>
</svg>
