<svg width="27" height="24" viewBox="0 0 27 24" fill="none" xmlns="http://www.w3.org/2000/svg">
<path d="M24.8139 8.88889H23.9338C23.082 3.84229 18.7098 0 13.4858 0C8.26183 0 3.91798 3.84229 3.03786 8.88889H2.18612C0.993691 8.88889 0 9.89247 0 11.0968V14.7957C0 15.3978 0.227129 15.9427 0.652997 16.3728C1.07886 16.7742 1.6183 17.0036 2.18612 17.0036H4.14511C4.71293 17.0036 5.16719 16.5448 5.16719 15.9713V10.6953C5.16719 6.07885 8.88643 2.32258 13.4574 2.32258C18.0284 2.32258 21.7476 6.07885 21.7476 10.6953V17.8925C21.7476 19.7849 20.2145 21.3333 18.3407 21.3333H16.4669C16.3249 20.7312 15.8139 20.3011 15.1609 20.3011H11.7823C11.0158 20.3011 10.4196 20.9319 10.4196 21.6774V22.6237C10.4196 23.3978 11.0442 24 11.7823 24H15.2177C15.8423 24 16.3533 23.5412 16.5237 22.9677H18.3975C21.1514 22.9677 23.4227 20.7025 23.4227 17.8925V16.9749H24.8139C25.3817 16.9749 25.9495 16.7455 26.347 16.3441C26.7729 15.914 27 15.3692 27 14.767V11.0968C27 9.89247 26.0347 8.91756 24.8139 8.88889Z" fill="white" fill-opacity="0.3"/>
<path d="M11.1009 15.7133C11.4416 15.914 11.8107 16.0574 12.2082 16.1721V17.1183C12.2082 17.3477 12.3785 17.5197 12.6056 17.5197H14.3943C14.6214 17.5197 14.7918 17.3477 14.7918 17.1183V16.1721C15.1892 16.0574 15.5583 15.914 15.899 15.7133L16.552 16.3728C16.7224 16.5448 16.9779 16.5448 17.1198 16.3728L18.369 15.1111C18.5394 14.9391 18.5394 14.681 18.369 14.5377L17.7728 13.8495C17.9716 13.5054 18.1135 13.1326 18.2271 12.7312H19.164C19.3911 12.7312 19.5615 12.5592 19.5615 12.3298V10.5233C19.5615 10.2939 19.3911 10.1219 19.164 10.1219H18.2271C18.1135 9.72046 17.9716 9.3477 17.7728 9.00361L18.4258 8.34411C18.5962 8.17207 18.5962 7.91401 18.4258 7.77064L17.1766 6.50899C17.0063 6.33695 16.7507 6.33695 16.6088 6.50899L15.9558 7.16849C15.6151 6.96777 15.246 6.8244 14.8485 6.70971V5.70612C14.8485 5.47673 14.6782 5.30469 14.4511 5.30469H12.6624C12.4353 5.30469 12.2649 5.47673 12.2649 5.70612V6.65236C11.8675 6.76705 11.4984 6.91042 11.1577 7.11114L10.5047 6.45164C10.3343 6.2796 10.0788 6.2796 9.93686 6.45164L8.68765 7.71329C8.5173 7.88533 8.5173 8.1434 8.68765 8.28677L9.34065 8.94626C9.14191 9.29035 8.99995 9.66311 8.88639 10.0645H7.94948C7.72235 10.0645 7.552 10.2366 7.552 10.466V12.2724C7.552 12.5018 7.72235 12.6739 7.94948 12.6739H8.88639C8.99995 13.0753 9.14191 13.4481 9.34065 13.7921L8.68765 14.4516C8.5173 14.6237 8.5173 14.8817 8.68765 15.0251L9.93686 16.2868C10.1072 16.4588 10.3627 16.4588 10.5047 16.2868L11.1009 15.7133ZM13.5141 9.08963C14.7918 9.08963 15.8138 10.1219 15.8138 11.4122C15.8138 12.7025 14.7918 13.7348 13.5141 13.7348C12.2365 13.7348 11.2145 12.7025 11.2145 11.4122C11.2145 10.1219 12.2365 9.08963 13.5141 9.08963Z" fill="white" fill-opacity="0.3"/>
</svg>
