<svg width="24" height="24" viewBox="0 0 24 24" fill="none" xmlns="http://www.w3.org/2000/svg">
<path d="M20.3807 9.66667H19.7287C19.0978 5.88172 15.8591 3 11.9895 3C8.11987 3 4.90221 5.88172 4.25026 9.66667H3.61935C2.73607 9.66667 2 10.4194 2 11.3226V14.0968C2 14.5484 2.16824 14.957 2.4837 15.2796C2.79916 15.5806 3.19874 15.7527 3.61935 15.7527H5.07045C5.49106 15.7527 5.82755 15.4086 5.82755 14.9785V11.0215C5.82755 7.55914 8.58254 4.74194 11.9685 4.74194C15.3544 4.74194 18.1094 7.55914 18.1094 11.0215V16.4194C18.1094 17.8387 16.9737 19 15.5857 19H14.1977C14.0925 18.5484 13.714 18.2258 13.2303 18.2258H10.7277C10.1598 18.2258 9.71819 18.6989 9.71819 19.2581V19.9677C9.71819 20.5484 10.1809 21 10.7277 21H13.2723C13.735 21 14.1136 20.6559 14.2397 20.2258H15.6278C17.6677 20.2258 19.3502 18.5269 19.3502 16.4194V15.7312H20.3807C20.8013 15.7312 21.2219 15.5591 21.5163 15.2581C21.8318 14.9355 22 14.5269 22 14.0753V11.3226C22 10.4194 21.285 9.68817 20.3807 9.66667Z" fill="white" fill-opacity="0.3"/>
<path d="M16.4266 11.0215C16.4266 8.52688 14.4497 6.50537 12.0102 6.50537C9.57062 6.50537 7.59375 8.52688 7.59375 11.0215C7.59375 13.5161 9.57062 15.5376 12.0102 15.5376C14.4497 15.5376 16.4266 13.5161 16.4266 11.0215ZM11.211 12.4193L10.1384 11.2366C9.92813 11 9.94917 10.6559 10.1595 10.4409C10.3908 10.2258 10.7273 10.2473 10.9376 10.4624L11.6106 11.1935L13.0617 9.60214C13.272 9.36559 13.6085 9.36559 13.8398 9.58064C14.0711 9.79569 14.0711 10.1398 13.8608 10.3763L12.0102 12.4193C11.7998 12.6559 11.4213 12.6559 11.211 12.4193Z" fill="white" fill-opacity="0.3"/>
</svg>
