<svg width="27" height="24" viewBox="0 0 27 24" fill="none" xmlns="http://www.w3.org/2000/svg">
<path d="M24.8139 8.88889H23.9338C23.082 3.84229 18.7098 0 13.4858 0C8.26183 0 3.91798 3.84229 3.03786 8.88889H2.18612C0.993691 8.88889 0 9.89247 0 11.0968V14.7957C0 15.3978 0.227129 15.9427 0.652997 16.3728C1.07886 16.7742 1.6183 17.0036 2.18612 17.0036H4.14511C4.71293 17.0036 5.16719 16.5448 5.16719 15.9713V10.6953C5.16719 6.07885 8.88643 2.32258 13.4574 2.32258C18.0284 2.32258 21.7476 6.07885 21.7476 10.6953V17.8925C21.7476 19.7849 20.2145 21.3333 18.3407 21.3333H16.4669C16.3249 20.7312 15.8139 20.3011 15.1609 20.3011H11.7823C11.0158 20.3011 10.4196 20.9319 10.4196 21.6774V22.6237C10.4196 23.3978 11.0442 24 11.7823 24H15.2177C15.8423 24 16.3533 23.5412 16.5237 22.9677H18.3975C21.1514 22.9677 23.4227 20.7025 23.4227 17.8925V16.9749H24.8139C25.3817 16.9749 25.9495 16.7455 26.347 16.3441C26.7729 15.914 27 15.3692 27 14.767V11.0968C27 9.89247 26.0347 8.91756 24.8139 8.88889Z" fill="white" fill-opacity="0.3"/>
<path d="M19.476 10.6951C19.476 7.36892 16.8073 4.67358 13.5139 4.67358C10.2205 4.67358 7.55176 7.36892 7.55176 10.6951C7.55176 14.0213 10.2205 16.7166 13.5139 16.7166C16.8073 16.7166 19.476 14.0213 19.476 10.6951ZM12.435 12.5589L10.9871 10.9818C10.7032 10.6664 10.7316 10.2076 11.0155 9.9209C11.3278 9.63416 11.782 9.66283 12.066 9.94957L12.9745 10.9245L14.9335 8.80262C15.2174 8.4872 15.6716 8.4872 15.9839 8.77394C16.2962 9.06068 16.2962 9.51946 16.0123 9.83487L13.5139 12.5589C13.23 12.8743 12.719 12.8743 12.435 12.5589Z" fill="white" fill-opacity="0.3"/>
</svg>
