<svg width="24" height="24" viewBox="0 0 24 24" fill="none" xmlns="http://www.w3.org/2000/svg">
<path d="M4 18.4397V20.7777H14.4828V18.4397C14.4828 17.0215 13.3784 15.9292 11.9445 15.9292H6.55774C5.18198 15.9292 4 17.0407 4 18.4397Z" fill="white" fill-opacity="0.3"/>
<path d="M9.24154 14.8516C10.9095 14.8516 12.276 13.6385 12.276 12.158C12.276 10.6774 10.9095 9.46436 9.24154 9.46436C7.57356 9.46436 6.20703 10.6774 6.20703 12.158C6.22713 13.6385 7.55347 14.8516 9.24154 14.8516Z" fill="white" fill-opacity="0.3"/>
<path d="M16.1381 15.3908C17.3724 15.3908 18.345 14.4047 18.345 13.2359C18.345 12.0672 17.335 11.0811 16.1381 11.0811C14.9037 11.0811 13.9312 12.0672 13.9312 13.2359C13.9312 14.4047 14.9224 15.3908 16.1381 15.3908Z" fill="white" fill-opacity="0.3"/>
<path d="M17.899 16.0996H13.7778C14.4647 16.6602 14.8889 17.5109 14.8889 18.4388L14.99 20.778H20.0001V18.0908C20.0001 16.9696 19.091 16.0996 17.899 16.0996Z" fill="white" fill-opacity="0.3"/>
<path d="M18.2334 5.50708C17.7657 3.70208 15.9694 2.63808 14.1919 3.11308C12.433 3.58808 11.3665 5.43108 11.8343 7.21708C12.0588 8.07208 12.5827 8.75609 13.2563 9.19309L12.3956 10.5421L15.8946 9.61109C17.6534 9.13609 18.7012 7.29308 18.2334 5.50708ZM15.4268 7.88208C14.0609 7.19808 13.7054 5.96308 13.6492 5.52608C13.5931 5.07008 14.3603 4.69008 14.3603 4.69008L14.8467 5.52608C14.8467 5.52608 14.3228 5.81108 14.3977 5.96308C14.7719 6.78008 15.2771 7.08408 15.2771 7.08408C15.4455 7.14108 15.801 6.74208 15.801 6.74208L16.4933 7.40708C16.4746 7.36908 15.8946 8.11008 15.4268 7.88208Z" fill="white" fill-opacity="0.3"/>
</svg>
