<svg width="26" height="30" viewBox="0 0 26 30" fill="none" xmlns="http://www.w3.org/2000/svg">
<path d="M0 26.0545V29.9999H17.0345V26.0545C17.0345 23.6614 15.2397 21.8181 12.9097 21.8181H4.15628C1.92071 21.8181 0 23.6938 0 26.0545Z" fill="white" fill-opacity="0.3"/>
<path d="M8.51721 19.9998C11.2276 19.9998 13.4482 17.9529 13.4482 15.4544C13.4482 12.9559 11.2276 10.9089 8.51721 10.9089C5.80678 10.9089 3.58618 12.9559 3.58618 15.4544C3.61884 17.9529 5.77412 19.9998 8.51721 19.9998Z" fill="white" fill-opacity="0.3"/>
<path d="M19.7241 20.9092C21.73 20.9092 23.3103 19.2451 23.3103 17.2728C23.3103 15.3006 21.6692 13.6365 19.7241 13.6365C17.7183 13.6365 16.1379 15.3006 16.1379 17.2728C16.1379 19.2451 17.7487 20.9092 19.7241 20.9092Z" fill="white" fill-opacity="0.3"/>
<path d="M22.67 22.7271H16.1379C17.2266 23.5986 17.899 24.9209 17.899 26.3634L18.0591 29.9997H26V25.8225C26 24.0794 24.5591 22.7271 22.67 22.7271Z" fill="white" fill-opacity="0.3"/>
<path d="M23.129 4.23068C22.3689 1.18475 19.45 -0.610741 16.5615 0.190818C13.7035 0.992378 11.9704 4.10243 12.7305 7.11629C13.0954 8.5591 13.9467 9.71335 15.0413 10.4508L13.6427 12.7272L19.3284 11.1562C22.1865 10.3546 23.8892 7.24454 23.129 4.23068ZM18.5683 8.23848C16.3487 7.08423 15.771 5.00018 15.6798 4.26274C15.5886 3.49324 16.8352 2.852 16.8352 2.852L17.6257 4.26274C17.6257 4.26274 16.7744 4.74368 16.896 5.00018C17.5041 6.37886 18.325 6.89186 18.325 6.89186C18.5987 6.98804 19.1764 6.31473 19.1764 6.31473L20.3014 7.43692C20.271 7.37279 19.3284 8.62322 18.5683 8.23848Z" fill="white" fill-opacity="0.3"/>
</svg>
