<svg width="19" height="22" viewBox="0 0 19 22" fill="none" xmlns="http://www.w3.org/2000/svg">
<path d="M13.8819 8.34807C13.8819 11.2669 11.9498 13.6332 9.56625 13.6332C7.18298 13.6332 5.2506 11.2672 5.2506 8.34807C5.2506 5.42843 7.18298 3.06209 9.56625 3.06209C11.9498 3.06209 13.8819 5.42843 13.8819 8.34807ZM2.73484 13.1924C2.82066 13.1924 2.90389 13.1811 2.98582 13.1641C3.17924 13.5664 3.35866 13.8557 3.6086 14.1565C3.46004 14.4087 3.37292 14.7032 3.37292 15.0189C3.37292 15.9405 4.102 16.6898 4.9978 16.6898C5.89386 16.6898 6.62269 15.9402 6.62269 15.0189C6.62269 14.1222 5.93146 13.3907 5.06859 13.3519C4.62963 12.9039 4.49584 12.6694 4.1829 11.936C4.27779 11.6533 4.33198 11.3384 4.33198 11.0018V7.33333C4.33198 6.83394 4.21453 6.38047 4.01696 6.01583C4.95036 3.41051 7.15083 1.67445 9.5665 1.67445C11.9754 1.67445 14.1308 3.37531 15.079 5.91215C14.8454 6.2922 14.7056 6.78609 14.7056 7.33333V11.0018C14.7056 12.2302 15.407 13.1924 16.3025 13.1924C17.198 13.1924 17.8996 12.2302 17.8996 11.0018V7.33333C17.8996 6.1954 17.2976 5.28791 16.4972 5.15976C15.2866 2.06495 12.5873 0 9.56676 0C6.5799 0 3.86114 2.04625 2.64073 5.14904C1.79108 5.21421 1.13796 6.14865 1.13796 7.33333V11.0018C1.1377 12.2302 1.8393 13.1924 2.73484 13.1924ZM16.281 16.5014H7.63464C7.12309 17.4593 6.13317 18.1105 4.99754 18.1105C3.87254 18.1105 2.89093 17.4708 2.37549 16.527C1.03633 16.7066 0 17.9169 0 19.3859V22H19V19.3856C19.0003 17.7928 17.7827 16.5014 16.281 16.5014Z" fill="white" fill-opacity="0.3"/>
</svg>
