<svg width="24" height="24" viewBox="0 0 24 24" fill="none" xmlns="http://www.w3.org/2000/svg">
    <path d="M15.4206 9.83024C15.4206 12.2184 13.6919 14.1545 11.5593 14.1545C9.42688 14.1545 7.6979 12.2186 7.6979 9.83024C7.6979 7.44144 9.42688 5.50534 11.5593 5.50534C13.6919 5.50534 15.4206 7.44144 15.4206 9.83024ZM5.44696 13.7938C5.52375 13.7938 5.59822 13.7846 5.67152 13.7706C5.84458 14.0998 6.00512 14.3365 6.22875 14.5826C6.09582 14.789 6.01788 15.0299 6.01788 15.2882C6.01788 16.0422 6.67021 16.6553 7.47172 16.6553C8.27345 16.6553 8.92556 16.042 8.92556 15.2882C8.92556 14.5545 8.30709 13.956 7.53505 13.9243C7.1423 13.5578 7.0226 13.3658 6.74259 12.7658C6.8275 12.5345 6.87598 12.2769 6.87598 12.0015V9C6.87598 8.59141 6.7709 8.22038 6.59412 7.92204C7.42927 5.79042 9.39811 4.37001 11.5595 4.37001C13.7149 4.37001 15.6433 5.76162 16.4917 7.83721C16.2827 8.14816 16.1577 8.55226 16.1577 9V12.0015C16.1577 13.0065 16.7852 13.7938 17.5864 13.7938C18.3877 13.7938 19.0155 13.0065 19.0155 12.0015V9C19.0155 8.06896 18.4768 7.32647 17.7607 7.22162C16.6775 4.6895 14.2623 3 11.5597 3C8.88728 3 6.4547 4.6742 5.36275 7.21285C4.60254 7.26617 4.01818 8.03071 4.01818 9V12.0015C4.01794 13.0065 4.64569 13.7938 5.44696 13.7938ZM17.5672 16.5012H9.83099C9.37329 17.2848 8.48757 17.8176 7.47149 17.8176C6.46491 17.8176 5.58662 17.2943 5.12543 16.5221C3.92724 16.669 3 17.6592 3 18.8612V21H20V18.861C20.0002 17.5578 18.9108 16.5012 17.5672 16.5012Z"
          fill="black"/>
</svg>
