<svg width="24" height="24" viewBox="0 0 24 24" fill="none" xmlns="http://www.w3.org/2000/svg">
<path d="M7.46273 17.8687C8.6306 18.8486 10.0429 19.8536 11.6997 20.6577C11.6997 20.6577 14.4157 22.1401 18.3267 21.9893C19.0872 21.9642 19.739 21.3863 19.8477 20.6828L20.2551 18.1451C20.3365 17.6677 20.0649 17.2155 19.5761 17.0898L15.9095 16.2858C15.6107 16.2104 15.2848 16.2356 14.986 16.4114L12.7861 17.6175C12.6774 17.6677 12.5688 17.6928 12.4602 17.6426C11.5367 17.2657 10.4232 16.6878 9.39108 15.8335C8.359 14.9542 7.65284 13.9743 7.16397 13.1702C7.10965 13.0949 7.10965 12.9692 7.16397 12.8687L8.27752 10.7331C8.41332 10.4567 8.44048 10.13 8.33184 9.87878L7.16397 6.5622C6.97385 6.13506 6.48497 5.90893 5.96893 6.03456L3.2801 6.63758C2.51962 6.81346 1.94926 7.49185 2.00358 8.22049C2.16654 11.5873 3.98625 14.1501 3.98625 14.1501C4.99117 15.6074 6.18621 16.8386 7.35409 17.8185" fill="white" fill-opacity="0.3"/>
<path d="M18.8571 10.7962C20.4002 9.73615 21.3048 7.89369 20.9057 5.87456C20.5066 3.98162 18.8837 2.44203 16.8883 2.08868C13.6158 1.50817 10.769 3.85542 10.769 6.85889C10.769 8.97898 12.2057 10.7205 13.9085 11.301C13.9883 11.3262 14.0415 11.4272 14.0149 11.5029L13.3498 13.1434C13.3498 13.2696 13.4828 13.3706 13.6158 13.3201C17.1544 12.2096 18.7507 10.8972 18.7507 10.8972C18.7773 10.8719 18.8305 10.8467 18.8571 10.7962C18.8571 10.8214 18.8571 10.8214 18.8571 10.7962ZM13.2434 7.38891V6.32886C13.2434 6.25314 13.2966 6.22791 13.3498 6.22791H15.0791C15.1589 6.22791 15.1856 6.17743 15.1856 6.12695V4.4864C15.1856 4.43592 15.2388 4.38544 15.292 4.38544H16.4094C16.4626 4.38544 16.5158 4.43592 16.5158 4.4864V6.12695C16.5158 6.17743 16.569 6.22791 16.6222 6.22791H18.3516C18.4314 6.22791 18.458 6.27838 18.458 6.32886V7.38891C18.458 7.46463 18.4048 7.48987 18.3516 7.48987H16.7021C16.6222 7.48987 16.5956 7.54034 16.5956 7.59082V9.23137C16.5956 9.28185 16.5424 9.33233 16.4892 9.33233H15.3718C15.3186 9.33233 15.2654 9.28185 15.2654 9.23137V7.59082C15.2654 7.54034 15.2122 7.48987 15.1589 7.48987H13.4296C13.2966 7.51511 13.2434 7.46463 13.2434 7.38891Z" fill="white" fill-opacity="0.3"/>
</svg>
