<svg width="24" height="24" viewBox="0 0 24 24" fill="none" xmlns="http://www.w3.org/2000/svg">
<path fill-rule="evenodd" clip-rule="evenodd" d="M15.7669 14.3639C15.426 14.1695 15.0732 14.1085 14.7738 14.1917C14.5485 14.2538 14.3649 14.3961 14.241 14.6035C13.9688 14.9287 13.6312 15.3089 13.5492 15.3681C12.917 15.7954 12.4149 15.745 11.8691 15.2004L8.8036 12.1382C8.2578 11.5931 8.20763 11.0914 8.63519 10.4612C8.69471 10.3786 9.0753 10.0413 9.40091 9.76943C9.60882 9.64574 9.75108 9.46234 9.81353 9.23735C9.89653 8.93798 9.83515 8.58557 9.63952 8.24275C9.59308 8.16385 8.49427 6.30501 7.48168 5.76946C6.96764 5.49756 6.34577 5.59139 5.93476 6.00192L5.25765 6.67822C3.92318 8.0111 3.64908 9.54791 4.44309 11.246C4.70971 11.8157 5.10498 12.3656 5.61849 12.8804L11.0941 18.3676H11.0944C11.5139 18.7882 11.9538 19.1262 12.4013 19.372C13.1639 19.7908 13.8951 20.0001 14.592 20.0001C15.5787 20.0001 16.4966 19.5802 17.3357 18.7421L18.0128 18.0658C18.4241 17.6553 18.5177 17.0344 18.2455 16.5207C17.7096 15.5091 15.8485 14.4116 15.7669 14.3639Z" fill="white" fill-opacity="0.3"/>
<path fill-rule="evenodd" clip-rule="evenodd" d="M17.865 8.79837H13.0609C12.9136 8.79837 12.794 8.67894 12.794 8.53179C12.794 8.38464 12.9136 8.26521 13.0609 8.26521H17.865C18.0124 8.26521 18.1319 8.38464 18.1319 8.53179C18.1319 8.67894 18.0124 8.79837 17.865 8.79837ZM17.3312 10.3978H13.5947C13.4474 10.3978 13.3278 10.2784 13.3278 10.1312C13.3278 9.98409 13.4474 9.86467 13.5947 9.86467H17.3312C17.4786 9.86467 17.5981 9.98409 17.5981 10.1312C17.5981 10.2784 17.4786 10.3978 17.3312 10.3978ZM13.5947 6.66576H17.3312C17.4786 6.66576 17.5981 6.78518 17.5981 6.93233C17.5981 7.07948 17.4786 7.19891 17.3312 7.19891H13.5947C13.4474 7.19891 13.3278 7.07948 13.3278 6.93233C13.3278 6.78518 13.4474 6.66576 13.5947 6.66576ZM15.463 4C12.9611 4 10.9258 6.03291 10.9258 8.53179C10.9258 9.25368 11.0993 9.96863 11.4286 10.6063L10.9327 12.7365C10.9114 12.8287 10.9402 12.9252 11.0091 12.9905C11.0592 13.038 11.1254 13.0636 11.1927 13.0636C11.2175 13.0636 11.2423 13.0601 11.2666 13.0532L13.2472 12.4819C13.9259 12.8628 14.6895 13.0636 15.463 13.0636C17.9648 13.0636 20.0002 11.0307 20.0002 8.53179C20.0002 6.03291 17.9648 4 15.463 4Z" fill="white" fill-opacity="0.3"/>
</svg>
