<svg width="24" height="24" viewBox="0 0 24 24" fill="none" xmlns="http://www.w3.org/2000/svg">
    <path d="M17.6011 15.8875L14.7147 14.3111C14.3142 14.0809 13.8137 14.2049 13.53 14.5945L12.4789 16.0292C11.4445 15.4447 10.6603 14.8779 9.75933 13.9037C8.79162 12.8764 8.2744 12.0262 7.74049 10.9635L9.09194 9.84756C9.459 9.54645 9.55911 9.01507 9.3589 8.58997L7.87397 5.54341C7.60702 5.01204 6.973 4.83491 6.50583 5.17145L4.63716 6.46447C4.20336 6.76558 3.96978 7.27924 4.00314 7.82833C4.03651 8.37742 4.10325 9.08592 4.22004 9.56416C4.75395 11.7605 6.05535 14.01 7.8406 15.923C9.64254 17.8359 11.7615 19.1998 13.8137 19.7666C14.2809 19.8906 14.9315 19.9614 15.4655 19.9969C15.9827 20.0323 16.4832 19.7666 16.7669 19.3061L17.9681 17.34C18.2685 16.844 18.1016 16.1709 17.6011 15.8875Z"
          fill="white" fill-opacity="0.3"/>
    <path d="M16.9686 4H14.0729C12.4133 4 11.0586 5.39752 11.0586 7.10949C11.0586 8.82146 12.4133 10.219 14.0729 10.219H14.2253C14.2083 10.5684 14.1575 11.0051 14.0051 11.4768C13.8866 11.8261 14.2422 12.1231 14.547 11.9484C15.2921 11.4942 15.9187 10.778 16.342 10.219H16.9855C18.6451 10.219 19.9998 8.82146 19.9998 7.10949C19.9829 5.39752 18.6281 4 16.9686 4ZM13.6495 7.6685C13.3447 7.6685 13.1076 7.42393 13.1076 7.10949C13.1076 6.79505 13.3447 6.55048 13.6495 6.55048C13.9543 6.55048 14.1914 6.79505 14.1914 7.10949C14.1914 7.42393 13.9374 7.6685 13.6495 7.6685ZM15.5123 7.6685C15.2075 7.6685 14.9704 7.42393 14.9704 7.10949C14.9704 6.79505 15.2075 6.55048 15.5123 6.55048C15.8171 6.55048 16.0542 6.79505 16.0542 7.10949C16.0542 7.42393 15.8171 7.6685 15.5123 7.6685ZM17.392 7.6685C17.0871 7.6685 16.8501 7.42393 16.8501 7.10949C16.8501 6.79505 17.0871 6.55048 17.392 6.55048C17.6968 6.55048 17.9338 6.79505 17.9338 7.10949C17.9338 7.42393 17.6968 7.6685 17.392 7.6685Z"
          fill="white" fill-opacity="0.3"/>
</svg>
