<svg width="25" height="25" viewBox="0 0 25 25" fill="none" xmlns="http://www.w3.org/2000/svg">
<path d="M21.2516 18.5743L16.7416 16.1111C16.1159 15.7513 15.3338 15.9451 14.8906 16.5539L13.2482 18.7957C11.6319 17.8824 10.4067 16.9968 8.99891 15.4746C7.48687 13.8694 6.67872 12.5409 5.84449 10.8804L7.95613 9.13681C8.52966 8.66633 8.68607 7.83605 8.37324 7.17183L6.05305 2.41158C5.63594 1.58131 4.64529 1.30455 3.91535 1.83039L0.995557 3.85073C0.317748 4.32122 -0.0472253 5.12382 0.0049138 5.98177C0.0570529 6.83972 0.161331 7.94675 0.343818 8.694C1.17804 12.1258 3.21147 15.6406 6.00091 18.6296C8.81642 21.6186 12.1273 23.7497 15.3338 24.6353C16.0638 24.829 17.0805 24.9397 17.9147 24.9951C18.7228 25.0504 19.5049 24.6353 19.9481 23.9157L21.8251 20.8437C22.2944 20.0688 22.0337 19.0171 21.2516 18.5743Z" fill="white" fill-opacity="0.3"/>
<path d="M20.2636 0H15.7391C13.1461 0 11.0293 2.18363 11.0293 4.85858C11.0293 7.53353 13.1461 9.71716 15.7391 9.71716H15.9772C15.9508 10.2631 15.8714 10.9454 15.6332 11.6824C15.448 12.2283 16.0037 12.6924 16.4799 12.4194C17.6442 11.7097 18.6232 10.5906 19.2846 9.71716H20.2901C22.8831 9.71716 24.9999 7.53353 24.9999 4.85858C24.9734 2.18363 22.8567 0 20.2636 0ZM15.0776 5.73203C14.6013 5.73203 14.2309 5.3499 14.2309 4.85858C14.2309 4.36726 14.6013 3.98513 15.0776 3.98513C15.5539 3.98513 15.9243 4.36726 15.9243 4.85858C15.9243 5.3499 15.5274 5.73203 15.0776 5.73203ZM17.9881 5.73203C17.5119 5.73203 17.1414 5.3499 17.1414 4.85858C17.1414 4.36726 17.5119 3.98513 17.9881 3.98513C18.4644 3.98513 18.8348 4.36726 18.8348 4.85858C18.8348 5.3499 18.4644 5.73203 17.9881 5.73203ZM20.9251 5.73203C20.4489 5.73203 20.0784 5.3499 20.0784 4.85858C20.0784 4.36726 20.4489 3.98513 20.9251 3.98513C21.4014 3.98513 21.7718 4.36726 21.7718 4.85858C21.7718 5.3499 21.4014 5.73203 20.9251 5.73203Z" fill="white" fill-opacity="0.3"/>
</svg>
