<svg width="24" height="24" viewBox="0 0 24 24" fill="none" xmlns="http://www.w3.org/2000/svg">
    <path d="M12.6956 19.995C11.884 19.9443 11.14 19.6904 10.4299 19.3349C8.84049 18.5563 7.48782 17.49 6.33806 16.1359C5.49264 15.1373 4.7994 14.0371 4.34287 12.8184C4.12306 12.226 3.97089 11.6167 4.0047 10.9735C4.03852 10.5673 4.1907 10.2288 4.47814 9.95794C4.7994 9.65328 5.08684 9.34861 5.4081 9.04394C5.8139 8.63772 6.32115 8.63772 6.72695 9.04394C6.98057 9.29783 7.21729 9.5348 7.47092 9.78868C7.70763 10.0256 7.96126 10.2795 8.19797 10.5165C8.62068 10.9397 8.62068 11.4474 8.19797 11.8706C7.89362 12.1752 7.58927 12.4799 7.28492 12.7846C7.20038 12.8692 7.20038 12.92 7.2342 13.0215C7.4371 13.5124 7.72454 13.9355 8.06271 14.3418C8.72213 15.1542 9.48301 15.882 10.3622 16.4406C10.5482 16.5591 10.768 16.6437 10.9709 16.7622C11.0724 16.813 11.14 16.796 11.2246 16.7114C11.5289 16.4067 11.8333 16.0851 12.1376 15.7805C12.5434 15.3743 13.0507 15.3743 13.4565 15.7805C13.9468 16.2713 14.4541 16.7622 14.9444 17.27C15.3502 17.6931 15.3502 18.2009 14.9444 18.6071C14.657 18.8949 14.3695 19.1657 14.099 19.4534C13.727 19.8935 13.2536 20.0289 12.6956 19.995ZM11.2415 12.4291L11.1908 12.3784C9.43228 10.398 9.51683 7.36827 11.4106 5.47256C13.3719 3.50915 16.5676 3.50915 18.529 5.47256C20.4903 7.43597 20.4903 10.635 18.529 12.5984C16.872 14.2571 14.3526 14.511 12.4251 13.377L12.4082 13.3601C11.6473 13.9355 10.8357 14.0371 10.2608 13.9525C10.0748 13.9186 10.041 13.6647 10.2101 13.5801C10.7173 13.3431 11.0555 12.8354 11.2415 12.4291ZM14.3526 6.75893C14.3526 7.21594 14.7246 7.58831 15.1811 7.58831C15.6207 7.58831 15.9927 7.21594 15.9927 6.75893C15.9927 6.30193 15.6376 5.92956 15.1811 5.92956C14.7246 5.92956 14.3526 6.30193 14.3526 6.75893ZM13.727 8.34998C13.8115 8.38383 13.913 8.38383 13.9975 8.40075C14.2004 8.43461 14.285 8.50231 14.2681 8.72235C14.2681 8.7562 14.2681 8.79005 14.2681 8.8239C14.1835 9.33168 14.0821 9.85639 13.9975 10.3642C13.9468 10.6519 13.8961 10.9566 13.8623 11.2443C13.7946 11.6844 14.2173 12.0906 14.5555 12.1245C14.7584 12.1583 14.9613 12.1583 15.1473 12.1583C15.57 12.1583 15.9251 11.9721 16.2294 11.6675C16.2802 11.6167 16.3309 11.549 16.3478 11.4644C16.3816 11.3459 16.2802 11.2612 16.1618 11.312C16.0773 11.3459 16.0096 11.3967 15.9251 11.4305C15.8236 11.4644 15.7222 11.4982 15.6207 11.5151C15.5024 11.5321 15.4009 11.4644 15.3671 11.3459C15.3502 11.2612 15.3333 11.1597 15.3502 11.0581C15.3671 10.855 15.4178 10.6688 15.4517 10.4826C15.5531 9.89024 15.6715 9.31476 15.7729 8.72235C15.8067 8.57001 15.8236 8.40075 15.8236 8.24842C15.8236 8.06223 15.7053 7.96068 15.5193 7.96068C15.2488 7.96068 14.9782 7.96068 14.7246 7.96068C14.471 7.96068 14.2173 7.96068 13.9637 7.96068C13.8961 7.96068 13.8454 7.96068 13.7777 7.97761C13.6594 7.99453 13.6086 8.06224 13.5917 8.14687C13.5748 8.23149 13.6086 8.2992 13.727 8.34998Z"
          fill="white" fill-opacity="0.3"/>
</svg>
