<svg width="26" height="26" viewBox="0 0 26 26" fill="none" xmlns="http://www.w3.org/2000/svg">
<path d="M14.1303 25.992C12.8115 25.9094 11.6025 25.4969 10.4485 24.9193C7.8658 23.6541 5.66771 21.9213 3.79934 19.7209C2.42554 18.0981 1.29902 16.3103 0.557166 14.33C0.199977 13.3673 -0.0473075 12.3771 0.00764463 11.3319C0.0625968 10.6718 0.309881 10.1217 0.776974 9.68166C1.29902 9.18658 1.76611 8.69149 2.28816 8.19641C2.94758 7.53629 3.77187 7.53629 4.43129 8.19641C4.84343 8.60898 5.2281 8.99404 5.64024 9.40661C6.0249 9.79168 6.43704 10.2042 6.82171 10.5893C7.50861 11.2769 7.50861 12.1021 6.82171 12.7897C6.32714 13.2848 5.83257 13.7799 5.338 14.2749C5.20062 14.4125 5.20062 14.495 5.25557 14.66C5.58529 15.4576 6.05238 16.1453 6.6019 16.8054C7.67347 18.1256 8.90989 19.3083 10.3386 20.216C10.6409 20.4085 10.9981 20.546 11.3278 20.7386C11.4926 20.8211 11.6025 20.7936 11.7399 20.656C12.2345 20.161 12.7291 19.6384 13.2236 19.1433C13.8831 18.4832 14.7073 18.4832 15.3668 19.1433C16.1636 19.9409 16.9879 20.7386 17.7847 21.5637C18.4441 22.2513 18.4441 23.0765 17.7847 23.7366C17.3176 24.2042 16.8505 24.6442 16.4109 25.1118C15.8064 25.8269 15.0371 26.047 14.1303 25.992ZM11.7674 13.6973L11.685 13.6148C8.82746 10.3968 8.96484 5.47344 12.0422 2.39291C15.2294 -0.797637 20.4224 -0.797637 23.6096 2.39291C26.7968 5.58346 26.7968 10.7818 23.6096 13.9724C20.9169 16.6679 16.823 17.0804 13.6907 15.2376L13.6632 15.2101C12.4268 16.1453 11.108 16.3103 10.1738 16.1728C9.87155 16.1178 9.8166 15.7052 10.0914 15.5677C10.9156 15.1826 11.4652 14.3575 11.7674 13.6973ZM16.823 4.48327C16.823 5.2259 17.4275 5.831 18.1693 5.831C18.8837 5.831 19.4882 5.2259 19.4882 4.48327C19.4882 3.74064 18.9112 3.13554 18.1693 3.13554C17.4275 3.13554 16.823 3.74064 16.823 4.48327ZM15.8064 7.06871C15.9438 7.12372 16.1086 7.12372 16.246 7.15123C16.5757 7.20624 16.7131 7.31625 16.6856 7.67382C16.6856 7.72883 16.6856 7.78383 16.6856 7.83884C16.5482 8.66399 16.3834 9.51663 16.246 10.3418C16.1636 10.8094 16.0811 11.3044 16.0262 11.772C15.9163 12.4871 16.6032 13.1473 17.1527 13.2023C17.4824 13.2573 17.8121 13.2573 18.1144 13.2573C18.8013 13.2573 19.3783 12.9547 19.8728 12.4596C19.9553 12.3771 20.0377 12.2671 20.0652 12.1296C20.1201 11.937 19.9553 11.7995 19.7629 11.882C19.6256 11.937 19.5156 12.0196 19.3783 12.0746C19.2134 12.1296 19.0486 12.1846 18.8837 12.2121C18.6914 12.2396 18.5265 12.1296 18.4716 11.937C18.4441 11.7995 18.4166 11.6345 18.4441 11.4695C18.4716 11.1394 18.554 10.8369 18.6089 10.5343C18.7738 9.57164 18.9661 8.63648 19.131 7.67382C19.1859 7.42627 19.2134 7.15123 19.2134 6.90368C19.2134 6.60113 19.0211 6.4361 18.7188 6.4361C18.2792 6.4361 17.8396 6.4361 17.4275 6.4361C17.0153 6.4361 16.6032 6.4361 16.191 6.4361C16.0811 6.4361 15.9987 6.4361 15.8888 6.46361C15.6965 6.49111 15.614 6.60113 15.5866 6.73866C15.5591 6.87618 15.614 6.9862 15.8064 7.06871Z" fill="white" fill-opacity="0.3"/>
</svg>
