<svg width="31" height="36" viewBox="0 0 31 36" fill="none" xmlns="http://www.w3.org/2000/svg">
<g filter="url(#filter0_d)">
<path d="M10.6128 22.216C12.0265 23.5879 13.7362 24.9949 15.7417 26.1205C15.7417 26.1205 19.0295 28.1959 23.7639 27.9848C24.6845 27.9496 25.4735 27.1406 25.6051 26.1557L26.0982 22.6029C26.1969 21.9346 25.8681 21.3014 25.2763 21.1256L20.8378 19.9999C20.4761 19.8944 20.0816 19.9296 19.7199 20.1758L17.0568 21.8642C16.9253 21.9346 16.7938 21.9698 16.6623 21.8994C15.5444 21.3718 14.1965 20.5627 12.9471 19.3668C11.6977 18.1356 10.8429 16.7638 10.2511 15.6381C10.1854 15.5326 10.1854 15.3567 10.2511 15.216L11.5991 12.2261C11.7635 11.8392 11.7964 11.3819 11.6649 11.0301L10.2511 6.38693C10.021 5.78894 9.42917 5.47236 8.80449 5.64824L5.54959 6.49246C4.62901 6.73869 3.93858 7.68843 4.00433 8.70853C4.2016 13.4221 6.40441 17.01 6.40441 17.01C7.62089 19.0502 9.06752 20.7738 10.4813 22.1456" fill="white" fill-opacity="0.3"/>
<path d="M24.406 12.3146C26.274 10.8306 27.3691 8.25114 26.886 5.42436C26.4029 2.77425 24.4383 0.618833 22.0228 0.124146C18.0613 -0.688553 14.6152 2.59758 14.6152 6.80241C14.6152 9.77053 16.3544 12.2086 18.4156 13.0213C18.5122 13.0567 18.5766 13.198 18.5444 13.304L17.7393 15.6008C17.7393 15.7774 17.9003 15.9188 18.0613 15.8481C22.3448 14.2934 24.2772 12.456 24.2772 12.456C24.3094 12.4206 24.3738 12.3853 24.406 12.3146C24.406 12.35 24.406 12.35 24.406 12.3146ZM17.6104 7.54444V6.06038C17.6104 5.95438 17.6749 5.91904 17.7393 5.91904H19.8327C19.9293 5.91904 19.9615 5.84837 19.9615 5.7777V3.48095C19.9615 3.41028 20.0259 3.33961 20.0904 3.33961H21.443C21.5075 3.33961 21.5719 3.41028 21.5719 3.48095V5.7777C21.5719 5.84837 21.6363 5.91904 21.7007 5.91904H23.7941C23.8907 5.91904 23.9229 5.98971 23.9229 6.06038V7.54444C23.9229 7.65045 23.8585 7.68578 23.7941 7.68578H21.7973C21.7007 7.68578 21.6685 7.75645 21.6685 7.82712V10.1239C21.6685 10.1945 21.6041 10.2652 21.5397 10.2652H20.187C20.1226 10.2652 20.0582 10.1945 20.0582 10.1239V7.82712C20.0582 7.75645 19.9937 7.68578 19.9293 7.68578H17.8359C17.6749 7.72112 17.6104 7.65045 17.6104 7.54444Z" fill="white" fill-opacity="0.3"/>
</g>
<defs>
<filter id="filter0_d" x="0" y="0" width="30.9999" height="35.9999" filterUnits="userSpaceOnUse" color-interpolation-filters="sRGB">
<feFlood flood-opacity="0" result="BackgroundImageFix"/>
<feColorMatrix in="SourceAlpha" type="matrix" values="0 0 0 0 0 0 0 0 0 0 0 0 0 0 0 0 0 0 127 0"/>
<feOffset dy="4"/>
<feGaussianBlur stdDeviation="2"/>
<feColorMatrix type="matrix" values="0 0 0 0 0 0 0 0 0 0 0 0 0 0 0 0 0 0 0.25 0"/>
<feBlend mode="normal" in2="BackgroundImageFix" result="effect1_dropShadow"/>
<feBlend mode="normal" in="SourceGraphic" in2="effect1_dropShadow" result="shape"/>
</filter>
</defs>
</svg>
