<svg width="25" height="25" viewBox="0 0 25 25" fill="none" xmlns="http://www.w3.org/2000/svg">
<path fill-rule="evenodd" clip-rule="evenodd" d="M18.3858 16.1934C17.8533 15.8898 17.302 15.7944 16.8341 15.9243C16.4821 16.0214 16.1952 16.2438 16.0017 16.5679C15.5763 17.076 15.0488 17.67 14.9208 17.7625C13.9328 18.4302 13.1484 18.3514 12.2956 17.5005L7.50567 12.7159C6.65285 11.8641 6.57445 11.0802 7.24253 10.0955C7.33552 9.96638 7.9302 9.43947 8.43897 9.01462C8.76383 8.82135 8.9861 8.53478 9.08369 8.18323C9.21338 7.71548 9.11747 7.16483 8.81179 6.62918C8.73923 6.50589 7.02234 3.60146 5.44015 2.76466C4.63696 2.33981 3.66529 2.48643 3.02307 3.12787L1.96508 4.1846C-0.120038 6.26722 -0.548322 8.66848 0.692325 11.3217C1.10893 12.2119 1.72655 13.0712 2.5289 13.8755L11.0846 22.4492H11.085C11.7405 23.1065 12.4278 23.6346 13.1272 24.0187C14.3186 24.673 15.4612 25 16.5501 25C18.0918 25 19.526 24.344 20.8371 23.0344L21.8951 21.9777C22.5377 21.3362 22.6841 20.3662 22.2587 19.5635C21.4214 17.9828 18.5134 16.268 18.3858 16.1934Z" fill="white" fill-opacity="0.3"/>
<path fill-rule="evenodd" clip-rule="evenodd" d="M21.6639 7.49745H14.1575C13.9273 7.49745 13.7405 7.31084 13.7405 7.08092C13.7405 6.851 13.9273 6.6644 14.1575 6.6644H21.6639C21.8941 6.6644 22.0809 6.851 22.0809 7.08092C22.0809 7.31084 21.8941 7.49745 21.6639 7.49745ZM20.8299 9.99659H14.9915C14.7613 9.99659 14.5745 9.80999 14.5745 9.58007C14.5745 9.35015 14.7613 9.16354 14.9915 9.16354H20.8299C21.0601 9.16354 21.2469 9.35015 21.2469 9.58007C21.2469 9.80999 21.0601 9.99659 20.8299 9.99659ZM14.9915 4.16525H20.8299C21.0601 4.16525 21.2469 4.35185 21.2469 4.58177C21.2469 4.81169 21.0601 4.9983 20.8299 4.9983H14.9915C14.7613 4.9983 14.5745 4.81169 14.5745 4.58177C14.5745 4.35185 14.7613 4.16525 14.9915 4.16525ZM17.9107 0C14.0015 0 10.8213 3.17642 10.8213 7.08092C10.8213 8.20887 11.0924 9.32599 11.607 10.3223L10.8321 13.6508C10.7988 13.7949 10.8438 13.9457 10.9514 14.0477C11.0298 14.1219 11.1332 14.1618 11.2383 14.1618C11.2771 14.1618 11.3159 14.1564 11.3538 14.1456L14.4486 13.253C15.5091 13.8482 16.7022 14.1618 17.9107 14.1618C21.8199 14.1618 25.0001 10.9854 25.0001 7.08092C25.0001 3.17642 21.8199 0 17.9107 0Z" fill="white" fill-opacity="0.3"/>
</svg>
