<svg width="103" height="22" viewBox="0 0 103 22" fill="none" xmlns="http://www.w3.org/2000/svg">
<path fill-rule="evenodd" clip-rule="evenodd" d="M14.7447 5.97416C15.051 6.00215 15.4074 6.15827 15.6747 6.27535L14.2668 9.4893C14.2039 9.46174 14.1624 9.44362 14.1248 9.42781C13.323 9.2842 12.6102 8.86862 12.0929 8.27205C11.8438 8.71675 11.3827 9.35734 10.6068 9.82221C10.4131 10.0256 10.1956 10.2051 9.95901 10.3567C9.67508 10.5387 9.1882 10.8248 8.53823 10.999C8.45822 11.0204 8.37843 11.0395 8.29888 11.0563C8.34304 11.1327 8.38111 11.2036 8.41362 11.2672C8.69521 11.8186 8.83458 12.3578 8.9059 12.7608C8.94378 12.9749 8.96165 13.1919 8.95938 13.4089C8.96927 13.487 8.98573 13.6249 8.9962 13.775C9.00272 13.8686 9.00775 13.9753 9.0086 14.0933C9.05394 14.6963 8.97432 15.2491 8.81663 15.743C9.33241 15.7264 9.8521 15.8236 10.3371 16.036C10.5792 16.1421 10.7766 16.2525 10.9131 16.3333C11.0221 16.3979 11.1323 16.4681 11.1842 16.5012C11.1873 16.5032 11.1902 16.505 11.1929 16.5067L9.78121 19.7294C9.59022 19.6457 9.43602 19.5477 9.2929 19.4567C9.16895 19.3778 9.0533 19.3043 8.92925 19.25L6.97932 20.3073C6.59494 20.4576 6.02131 20.3125 5.74297 19.9782L3.96176 17.4988C3.68342 17.1644 3.70037 16.6409 4.07372 16.2735L5.23279 15.082C5.43898 14.8538 5.55607 14.5865 5.49496 14.2411C5.50895 14.088 5.49092 13.9473 5.47288 13.8067C5.45484 13.666 5.4368 13.5254 5.4508 13.3722C5.38969 13.0268 5.23948 12.6425 4.97218 12.5254L3.53555 11.6837C3.12908 11.3994 2.9288 10.8869 3.12395 10.4414L4.33387 7.67933C4.52902 7.23383 5.04154 7.03355 5.52606 7.1396L7.11881 7.6249C7.51424 7.69192 7.7705 7.59178 8.06578 7.40254C8.27197 7.17427 8.47816 6.94601 8.73442 6.84587C8.99068 6.74573 9.1468 6.38933 9.17479 6.083L9.26466 4.42323C9.24258 3.98878 9.65496 3.53224 10.0894 3.51016L13.1196 3.13837C13.5931 3.02719 14.0886 3.35047 14.1998 3.82395L14.7447 5.97416Z" fill="#FFC107"/>
<path d="M24.3283 17.4001H16.8504L15.4609 20.8359H10.3577L18.164 3.1517H23.0904L30.9219 20.8359H25.7177L24.3283 17.4001ZM22.863 13.7117L20.5893 8.05276L18.3156 13.7117H22.863Z" fill="white"/>
<path d="M32.34 3.1517H40.7021C42.639 3.1517 44.3569 3.51381 45.8558 4.23802C47.3548 4.96223 48.5169 5.9896 49.3421 7.32012C50.1674 8.65065 50.58 10.2085 50.58 11.9938C50.58 13.7791 50.1674 15.337 49.3421 16.6675C48.5169 17.998 47.3548 19.0254 45.8558 19.7496C44.3569 20.4738 42.639 20.8359 40.7021 20.8359H32.34V3.1517ZM40.5 16.8443C42.0158 16.8443 43.2285 16.4149 44.1379 15.5559C45.0642 14.697 45.5274 13.5096 45.5274 11.9938C45.5274 10.478 45.0642 9.29065 44.1379 8.4317C43.2285 7.57276 42.0158 7.14328 40.5 7.14328H37.3421V16.8443H40.5Z" fill="white"/>
<path d="M69.1781 20.8359L69.1275 11.4633L64.5802 19.0928H62.357L57.8349 11.7159V20.8359H53.2117V3.1517H57.3296L63.5444 13.358L69.6075 3.1517H73.7254L73.776 20.8359H69.1781Z" fill="white"/>
<path d="M77.3154 3.1517H82.3175V20.8359H77.3154V3.1517Z" fill="white"/>
<path d="M102.701 3.1517V20.8359H98.5836L90.7773 11.4128V20.8359H85.8762V3.1517H89.9941L97.8004 12.5749V3.1517H102.701Z" fill="white"/>
</svg>
