<svg width="81" height="16" viewBox="0 0 81 16" fill="none" xmlns="http://www.w3.org/2000/svg">
    <path fill-rule="evenodd" clip-rule="evenodd"
          d="M10.272 3.25788C10.5148 3.28 10.7973 3.40335 11.0092 3.49586L9.89318 6.03515C9.84331 6.01338 9.81038 5.99907 9.78056 5.98657C9.14493 5.87311 8.57987 5.54476 8.16983 5.07343C7.97233 5.42478 7.6068 5.9309 6.9917 6.29819C6.83817 6.45888 6.66578 6.60068 6.47818 6.7205C6.2531 6.86426 5.86713 7.09029 5.35187 7.22793C5.28845 7.24487 5.22519 7.25993 5.16213 7.2732C5.19714 7.33355 5.22731 7.38959 5.25309 7.43988C5.47632 7.8755 5.5868 8.3015 5.64334 8.61996C5.67337 8.78911 5.68753 8.96051 5.68573 9.13196C5.69358 9.19371 5.70662 9.30266 5.71492 9.42126C5.72009 9.49517 5.72408 9.57952 5.72475 9.67273C5.7607 10.1491 5.69758 10.5859 5.57257 10.9761C5.98145 10.963 6.39343 11.0398 6.77791 11.2076C6.96982 11.2914 7.12629 11.3787 7.2345 11.4425C7.32095 11.4936 7.40833 11.5491 7.44943 11.5752C7.4519 11.5767 7.4542 11.5782 7.45632 11.5795L6.33724 14.1257C6.18583 14.0596 6.06359 13.9821 5.95013 13.9102C5.85187 13.848 5.76019 13.7899 5.66185 13.7469L4.11606 14.5824C3.81134 14.701 3.3566 14.5864 3.13595 14.3223L1.72391 12.3633C1.50326 12.0992 1.51669 11.6855 1.81266 11.3952L2.73151 10.4539C2.89496 10.2736 2.98778 10.0624 2.93934 9.78951C2.95043 9.6685 2.93613 9.55737 2.92184 9.44625C2.90754 9.33513 2.89324 9.22401 2.90433 9.10299C2.85589 8.83013 2.73681 8.52643 2.52491 8.43392L1.38603 7.7689C1.06381 7.54432 0.905039 7.13939 1.05974 6.7874L2.0189 4.60512C2.1736 4.25314 2.57989 4.0949 2.964 4.17868L4.22664 4.56212C4.54011 4.61507 4.74326 4.53595 4.97734 4.38644C5.1408 4.20608 5.30425 4.02573 5.5074 3.94661C5.71054 3.86749 5.83431 3.58591 5.8565 3.34388L5.92775 2.03252C5.91024 1.68926 6.23715 1.32855 6.58156 1.31111L8.9837 1.01736C9.35905 0.92952 9.75191 1.18494 9.84004 1.55903L10.272 3.25788Z"
          fill="#FFC107"/>
    <path d="M17.8695 12.2854H11.9414L10.8399 15H6.79443L12.9828 1.02789H16.8881L23.0966 15H18.971L17.8695 12.2854ZM16.7079 9.37122L14.9054 4.90016L13.103 9.37122H16.7079Z"
          fill="white"/>
    <path d="M24.2207 1.02789H30.8497C32.3852 1.02789 33.747 1.31399 34.9353 1.88618C36.1236 2.45837 37.0448 3.27008 37.699 4.32131C38.3533 5.37255 38.6804 6.60342 38.6804 8.01394C38.6804 9.42445 38.3533 10.6553 37.699 11.7066C37.0448 12.7578 36.1236 13.5695 34.9353 14.1417C33.747 14.7139 32.3852 15 30.8497 15H24.2207V1.02789ZM30.6895 11.8463C31.8912 11.8463 32.8525 11.507 33.5734 10.8283C34.3078 10.1497 34.6749 9.21154 34.6749 8.01394C34.6749 6.81633 34.3078 5.8782 33.5734 5.19956C32.8525 4.52091 31.8912 4.18159 30.6895 4.18159H28.1861V11.8463H30.6895Z"
          fill="white"/>
    <path d="M53.4238 15L53.3838 7.59477L49.7789 13.6227H48.0165L44.4316 7.79437V15H40.7666V1.02789H44.0311L48.9578 9.09178L53.7643 1.02789H57.0287L57.0688 15H53.4238Z"
          fill="white"/>
    <path d="M59.8746 1.02789H63.84V15H59.8746V1.02789Z" fill="white"/>
    <path d="M79.9993 1.02789V15H76.7348L70.5464 7.55485V15H66.6612V1.02789H69.9256L76.114 8.47302V1.02789H79.9993Z"
          fill="white"/>
</svg>
