<svg width="152" height="22" viewBox="0 0 152 22" fill="none" xmlns="http://www.w3.org/2000/svg">
<path d="M15.5228 16.301H7.21404L5.67018 20.1185H0L8.67369 0.469391H14.1474L22.8491 20.1185H17.0667L15.5228 16.301ZM13.8947 12.2027L11.3684 5.91501L8.84211 12.2027H13.8947Z" fill="white"/>
<path d="M40.4809 3.89395V20.1185H36.0178L29.5897 12.5396V20.1185H24.2844V3.89395H28.7476L35.1757 11.529V3.89395H40.4809Z" fill="white"/>
<path d="M55.2748 17.2554H48.3134L47.1344 20.1185H41.9414L49.1555 3.89395H54.4888L61.7029 20.1185H56.4257L55.2748 17.2554ZM53.759 13.494L51.8221 8.60974L49.8292 13.494H53.759Z" fill="white"/>
<path d="M63.155 3.89395H68.5726V16.0203H76.0954V20.1185H63.155V3.89395Z" fill="white"/>
<path d="M85.693 14.6729V20.1185H80.2754V14.6729L73.7632 3.89395H79.4895L83.1386 9.95711L86.7877 3.89395H92.2053L85.693 14.6729Z" fill="white"/>
<path d="M96.1783 7.9922H91.2941V3.89395H106.48V7.9922H101.596V20.1185H96.1783V7.9922Z" fill="white"/>
<path d="M108.385 3.89395H113.803V20.1185H108.385V3.89395Z" fill="white"/>
<path d="M143.894 20.4834C142.566 20.4834 141.256 20.3337 139.964 20.0343C138.673 19.7162 137.616 19.3045 136.793 18.7992L138.589 14.8975C139.375 15.384 140.255 15.7676 141.228 16.0483C142.201 16.3103 143.183 16.4413 144.175 16.4413C144.905 16.4413 145.438 16.3571 145.775 16.1887C146.112 16.0016 146.28 15.7583 146.28 15.4589C146.28 15.1033 146.056 14.8413 145.607 14.6729C145.157 14.4858 144.418 14.2799 143.389 14.0554C142.135 13.8121 141.087 13.5407 140.245 13.2413C139.403 12.9419 138.664 12.446 138.028 11.7536C137.41 11.0612 137.101 10.1255 137.101 8.94658C137.101 7.91735 137.41 6.99103 138.028 6.16764C138.645 5.34425 139.534 4.69863 140.694 4.23079C141.873 3.76296 143.249 3.52904 144.821 3.52904C145.943 3.52904 147.038 3.65068 148.105 3.89395C149.171 4.11851 150.107 4.46471 150.912 4.93255L149.256 8.8343C147.871 7.9922 146.327 7.57115 144.624 7.57115C143.894 7.57115 143.342 7.67407 142.968 7.87992C142.612 8.08577 142.435 8.34775 142.435 8.66588C142.435 9.00273 142.659 9.26471 143.108 9.45185C143.557 9.62027 144.287 9.79805 145.298 9.98518C146.552 10.2285 147.6 10.4998 148.442 10.7992C149.302 11.0986 150.042 11.5852 150.659 12.2589C151.295 12.9326 151.614 13.8495 151.614 15.0097C151.614 16.0577 151.314 16.9934 150.715 17.8168C150.135 18.6402 149.256 19.2951 148.077 19.7817C146.917 20.2495 145.522 20.4834 143.894 20.4834Z" fill="white"/>
<path d="M122.334 8.4357C121.563 9.30319 121.095 10.4456 121.095 11.6975C121.095 13.3292 121.89 14.775 123.115 15.6684L120.16 19.5977C117.75 17.8066 116.182 14.9333 116.182 11.7018C116.182 9.20913 117.108 6.93289 118.638 5.20146C119.631 6.06665 121.022 7.28479 122.334 8.4357Z" fill="#F36A83"/>
<path d="M130.707 13.1321C130.093 15.1452 128.221 16.6097 126.007 16.6097C124.924 16.6097 123.922 16.259 123.11 15.6648L120.153 19.5977C121.787 20.8141 123.81 21.5306 126.004 21.5306C130.29 21.5306 133.93 18.7907 135.276 14.9703L130.707 13.1321Z" fill="#9678D8"/>
<path d="M130.612 9.98241L135.221 8.26874C133.825 4.52974 130.228 1.87289 126.011 1.87289C125.705 1.87289 125.407 1.88782 125.108 1.91767C122.534 2.14903 120.25 3.37297 118.638 5.20142C119.636 6.06639 121.025 7.28414 122.335 8.43479C123.235 7.42275 124.546 6.78517 126.007 6.78517C128.117 6.78517 129.916 8.11515 130.612 9.98241Z" fill="#8BC158"/>
</svg>
