<svg width="122" height="16" viewBox="0 0 122 16" fill="none" xmlns="http://www.w3.org/2000/svg">
<path d="M31.6023 1.37535V14.5873H27.9169L22.6089 8.44054V14.5873H18.2281V1.37535H21.9136L27.2215 7.6061V1.37535H31.6023Z" fill="white"/>
<path d="M43.8183 12.223H38.0699L37.0964 14.5873H32.8083L38.7653 1.37535H43.1693L49.1262 14.5873H44.7686L43.8183 12.223ZM42.5666 9.22862L40.9673 5.19551L39.3216 9.22862H42.5666Z" fill="white"/>
<path d="M50.3254 1.37535H54.7989V11.2032H61.0108V14.5873H50.3254V1.37535Z" fill="white"/>
<path d="M68.936 10.2021V14.5873H64.4625V10.2021L59.085 1.37535H63.8134L66.8267 6.30809L69.8399 1.37535H74.3134L68.936 10.2021Z" fill="white"/>
<path d="M77.5941 4.68557H73.561V1.37535H86.1008V4.68557H82.0677V14.5873H77.5941V4.68557Z" fill="white"/>
<path d="M87.674 1.37535H92.1475V14.5873H87.674V1.37535Z" fill="white"/>
<path d="M114.105 15C113.008 15 111.926 14.8764 110.86 14.6291C109.794 14.3664 108.921 14.0265 108.241 13.6093L109.724 10.3874C110.373 10.7892 111.1 11.106 111.903 11.3377C112.707 11.5541 113.518 11.6623 114.337 11.6623C114.94 11.6623 115.38 11.5927 115.658 11.4536C115.936 11.2991 116.075 11.0982 116.075 10.851C116.075 10.5574 115.89 10.3411 115.519 10.202C115.148 10.0475 114.538 9.87748 113.688 9.69205C112.653 9.49117 111.787 9.26711 111.092 9.01987C110.397 8.77263 109.786 8.36313 109.261 7.79139C108.751 7.21965 108.496 6.44702 108.496 5.47351C108.496 4.62362 108.751 3.85872 109.261 3.17881C109.771 2.4989 110.505 1.96578 111.463 1.57947C112.436 1.19316 113.572 1 114.87 1C115.797 1 116.701 1.10044 117.582 1.30132C118.463 1.48675 119.235 1.77263 119.9 2.15894L118.532 5.3808C117.389 4.68543 116.114 4.33775 114.708 4.33775C114.105 4.33775 113.649 4.42274 113.34 4.59272C113.047 4.76269 112.9 4.97903 112.9 5.24172C112.9 5.51987 113.085 5.7362 113.456 5.89073C113.827 6.0298 114.43 6.1766 115.264 6.33113C116.299 6.53201 117.165 6.75607 117.86 7.00331C118.571 7.25055 119.181 7.65232 119.691 8.20861C120.217 8.7649 120.479 9.52207 120.479 10.4801C120.479 11.3455 120.232 12.1181 119.738 12.798C119.259 13.4779 118.532 14.0188 117.559 14.4205C116.601 14.8068 115.45 15 114.105 15Z" fill="white"/>
<path d="M12.1693 12.4083H6.421L5.28799 14.5871H0.999912L7.11637 1.37518H11.5203L17.3178 14.5871H12.9602L12.1693 12.4083ZM10.9177 9.30234L9.31835 5.26922L7.67266 9.30234H10.9177Z" fill="white"/>
<path d="M98.6029 5.78603C98.0848 6.36907 97.77 7.13692 97.77 7.97826C97.77 9.07492 98.3047 10.0467 99.1276 10.6471L97.142 13.288C95.5218 12.0842 94.4685 10.1531 94.4685 7.98117C94.4685 6.30585 95.0905 4.776 96.1187 3.6123C96.7861 4.1938 97.7212 5.01251 98.6029 5.78603Z" fill="#F36A83"/>
<path d="M104.23 8.9425C103.817 10.2955 102.559 11.2798 101.071 11.2798C100.343 11.2798 99.6702 11.0441 99.1243 10.6448L97.1368 13.288C98.2353 14.1056 99.5946 14.5871 101.069 14.5871C103.95 14.5871 106.396 12.7457 107.301 10.178L104.23 8.9425Z" fill="#9678D8"/>
<path d="M104.166 6.82558L107.264 5.67382C106.326 3.16085 103.908 1.37518 101.074 1.37518C100.869 1.37518 100.668 1.38521 100.467 1.40528C98.7368 1.56077 97.202 2.38338 96.1185 3.61228C96.7891 4.19363 97.7228 5.01207 98.6032 5.78543C99.2079 5.10523 100.09 4.67672 101.071 4.67672C102.489 4.67672 103.698 5.5706 104.166 6.82558Z" fill="#8BC158"/>
</svg>
