<svg width="88" height="24" viewBox="0 0 88 24" fill="none" xmlns="http://www.w3.org/2000/svg">
<path d="M65.7549 2.12487C65.791 2.04845 65.8655 2 65.9468 2C66.0282 2 66.1028 2.04845 66.1388 2.12487L66.8273 3.58517C66.8585 3.65123 66.9188 3.69705 66.9886 3.70766L68.5284 3.94179C68.6092 3.95403 68.676 4.01321 68.7012 4.09425C68.7264 4.17529 68.7054 4.26444 68.647 4.32388L67.5329 5.46066C67.4825 5.5121 67.4594 5.58627 67.4712 5.65894L67.7342 7.26409C67.7478 7.34825 67.715 7.43316 67.6489 7.48336C67.5829 7.5333 67.4957 7.53992 67.4234 7.50046L66.0461 6.74253C65.9838 6.70819 65.9092 6.70819 65.8469 6.74253L64.4696 7.50034C64.3975 7.53992 64.31 7.53343 64.2441 7.48336C64.1781 7.43329 64.1452 7.34825 64.1589 7.26409L64.4218 5.65894C64.4338 5.58627 64.4106 5.5121 64.3601 5.46066L63.246 4.32388C63.1877 4.26432 63.1667 4.17529 63.1919 4.09425C63.2171 4.01321 63.284 3.95403 63.3648 3.94179L64.9048 3.70766C64.9745 3.69705 65.0348 3.65123 65.066 3.58505L65.7549 2.12487Z" fill="#FFC107"/>
<path d="M15.7621 18.2699H8.39576L7.02702 21.6518H2L9.68985 4.24481H14.5427L22.2574 21.6518H17.1308L15.7621 18.2699ZM14.3187 14.6393L12.0789 9.06905L9.83916 14.6393H14.3187Z" fill="white"/>
<path d="M31.328 22C28.7399 22 26.7241 21.2954 25.2807 19.8863C23.8539 18.4771 23.1405 16.4795 23.1405 13.8933V4.24481H28.0679V13.7441C28.0679 16.5292 29.1712 17.9218 31.3778 17.9218C33.5678 17.9218 34.6628 16.5292 34.6628 13.7441V4.24481H39.5156V13.8933C39.5156 16.4795 38.7939 18.4771 37.3505 19.8863C35.9237 21.2954 33.9162 22 31.328 22Z" fill="white"/>
<path d="M42.8537 4.24481H51.091C52.999 4.24481 54.6912 4.60124 56.1678 5.3141C57.6444 6.02696 58.7892 7.03823 59.6021 8.3479C60.4151 9.65757 60.8215 11.191 60.8215 12.9483C60.8215 14.7056 60.4151 16.2391 59.6021 17.5488C58.7892 18.8584 57.6444 19.8697 56.1678 20.5826C54.6912 21.2954 52.999 21.6518 51.091 21.6518H42.8537V4.24481ZM50.8919 17.7228C52.3851 17.7228 53.5796 17.3001 54.4755 16.4546C55.388 15.6091 55.8443 14.4404 55.8443 12.9483C55.8443 11.4563 55.388 10.2875 54.4755 9.44206C53.5796 8.59657 52.3851 8.17383 50.8919 8.17383H47.7811V17.7228H50.8919Z" fill="white"/>
<path d="M75.7469 8.14896H70.3963V4.24481H86V8.14896H80.6743V21.6518H75.7469V8.14896Z" fill="white"/>
<path d="M63.3582 9.38245H68.2856V21.6519H63.3582V9.38245Z" fill="#FFC107"/>
</svg>
