<svg width="61" height="16" viewBox="0 0 61 16" fill="none" xmlns="http://www.w3.org/2000/svg">
<path d="M45.6283 1.08741C45.6536 1.03391 45.7058 1 45.7627 1C45.8197 1 45.8719 1.03391 45.8971 1.08741L46.3791 2.10962C46.4009 2.15586 46.4431 2.18794 46.492 2.19537L47.5698 2.35925C47.6264 2.36782 47.6731 2.40925 47.6908 2.46597C47.7084 2.5227 47.6937 2.58511 47.6528 2.62671L46.873 3.42246C46.8376 3.45847 46.8215 3.51039 46.8298 3.56126L47.0139 4.68486C47.0234 4.74378 47.0004 4.80321 46.9541 4.83835C46.908 4.87331 46.8469 4.87794 46.7963 4.85032L45.8322 4.31977C45.7886 4.29573 45.7364 4.29573 45.6927 4.31977L44.7286 4.85024C44.6782 4.87794 44.617 4.8734 44.5708 4.83835C44.5246 4.8033 44.5015 4.74378 44.5111 4.68486L44.6952 3.56126C44.7036 3.51039 44.6874 3.45847 44.652 3.42246L43.8722 2.62671C43.8313 2.58502 43.8166 2.5227 43.8342 2.46597C43.8519 2.40925 43.8987 2.36782 43.9553 2.35925L45.0333 2.19537C45.0821 2.18794 45.1243 2.15586 45.1461 2.10953L45.6283 1.08741Z" fill="#FFC107"/>
<path d="M10.6335 12.3889H5.47703L4.51891 14.7563H1L6.38289 2.57135H9.77986L15.1802 14.7563H11.5916L10.6335 12.3889ZM9.62308 9.84749L8.05525 5.94832L6.48741 9.84749H9.62308Z" fill="white"/>
<path d="M21.5296 15C19.7179 15 18.3069 14.5068 17.2965 13.5204C16.2977 12.534 15.7983 11.1356 15.7983 9.32528V2.57135H19.2476V9.22084C19.2476 11.1704 20.0199 12.1452 21.5645 12.1452C23.0975 12.1452 23.864 11.1704 23.864 9.22084V2.57135H27.2609V9.32528C27.2609 11.1356 26.7557 12.534 25.7454 13.5204C24.7466 14.5068 23.3413 15 21.5296 15Z" fill="white"/>
<path d="M29.5976 2.57135H35.3637C36.6993 2.57135 37.8839 2.82085 38.9175 3.31985C39.9511 3.81885 40.7524 4.52674 41.3215 5.44351C41.8905 6.36028 42.1751 7.43372 42.1751 8.66381C42.1751 9.89391 41.8905 10.9673 41.3215 11.8841C40.7524 12.8009 39.9511 13.5088 38.9175 14.0078C37.8839 14.5068 36.6993 14.7563 35.3637 14.7563H29.5976V2.57135ZM35.2243 12.006C36.2696 12.006 37.1057 11.71 37.7329 11.1182C38.3716 10.5264 38.691 9.70824 38.691 8.66381C38.691 7.61939 38.3716 6.80126 37.7329 6.20942C37.1057 5.61758 36.2696 5.32166 35.2243 5.32166H33.0468V12.006H35.2243Z" fill="white"/>
<path d="M52.6228 5.30426H48.8774V2.57135H59.8V5.30426H56.072V14.7563H52.6228V5.30426Z" fill="white"/>
<path d="M43.9507 6.16772H47.3999V14.7563H43.9507V6.16772Z" fill="#FFC107"/>
</svg>
