<svg width="86" height="28" viewBox="0 0 86 28" fill="none" xmlns="http://www.w3.org/2000/svg">
<path d="M64.7204 0.967629C64.7571 0.889994 64.8327 0.840775 64.9153 0.840775C64.9979 0.840775 65.0736 0.889994 65.1102 0.967629L65.8092 2.45119C65.8408 2.51829 65.9021 2.56485 65.9729 2.57563L67.536 2.81348C67.618 2.82591 67.6858 2.88604 67.7114 2.96837C67.737 3.0507 67.7156 3.14127 67.6564 3.20166L66.5254 4.35653C66.4742 4.4088 66.4508 4.48415 66.4628 4.55798L66.7298 6.18869C66.7436 6.27419 66.7103 6.36045 66.6432 6.41144C66.5762 6.46218 66.4876 6.46891 66.4142 6.42882L65.0161 5.65882C64.9529 5.62393 64.8772 5.62393 64.8138 5.65882L63.4157 6.4287C63.3425 6.46891 63.2537 6.46231 63.1868 6.41144C63.1198 6.36057 63.0864 6.27419 63.1003 6.18869L63.3672 4.55798C63.3793 4.48415 63.3558 4.4088 63.3046 4.35653L62.1736 3.20166C62.1144 3.14115 62.0931 3.0507 62.1186 2.96837C62.1442 2.88604 62.2121 2.82591 62.2941 2.81348L63.8575 2.57563C63.9282 2.56485 63.9895 2.51829 64.0211 2.45106L64.7204 0.967629Z" fill="#FFC107"/>
<path d="M13.9705 23.3698H6.49263L5.10316 26.8055H0L7.80632 9.12134H12.7326L20.5642 26.8055H15.36L13.9705 23.3698ZM12.5053 19.6813L10.2316 14.0224L7.9579 19.6813H12.5053Z" fill="white"/>
<path d="M29.7722 27.1592C27.1449 27.1592 25.0986 26.4434 23.6333 25.0119C22.1849 23.5803 21.4607 21.5508 21.4607 18.9234V9.12134H26.4628V18.7719C26.4628 21.6013 27.5828 23.0161 29.8228 23.0161C32.0459 23.0161 33.1575 21.6013 33.1575 18.7719V9.12134H38.0838V18.9234C38.0838 21.5508 37.3512 23.5803 35.8859 25.0119C34.4375 26.4434 32.3996 27.1592 29.7722 27.1592Z" fill="white"/>
<path d="M41.4724 9.12134H49.8345C51.7714 9.12134 53.4893 9.48344 54.9882 10.2077C56.4872 10.9319 57.6493 11.9592 58.4745 13.2898C59.2998 14.6203 59.7124 16.1782 59.7124 17.9634C59.7124 19.7487 59.2998 21.3066 58.4745 22.6371C57.6493 23.9677 56.4872 24.995 54.9882 25.7192C53.4893 26.4434 51.7714 26.8055 49.8345 26.8055H41.4724V9.12134ZM49.6324 22.814C51.1482 22.814 52.3609 22.3845 53.2703 21.5255C54.1966 20.6666 54.6598 19.4792 54.6598 17.9634C54.6598 16.4477 54.1966 15.2603 53.2703 14.4013C52.3609 13.5424 51.1482 13.1129 49.6324 13.1129H46.4745V22.814H49.6324Z" fill="white"/>
<path d="M74.8638 13.0877H69.4323V9.12134H85.2723V13.0877H79.8659V26.8055H74.8638V13.0877Z" fill="white"/>
<path d="M62.2876 9.12134H67.2897V26.8055H62.2876V9.12134Z" fill="#FFC107"/>
</svg>
