<svg width="48" height="16" viewBox="0 0 48 16" fill="none" xmlns="http://www.w3.org/2000/svg">
<path d="M15.8235 15.0001V1.16479H22.1482C23.4131 1.16479 24.5002 1.36903 25.4094 1.7775C26.3317 2.18597 27.0432 2.77891 27.5439 3.55632C28.0447 4.32056 28.295 5.22973 28.295 6.28385C28.295 7.32479 28.0447 8.22738 27.5439 8.99161C27.0432 9.74267 26.3317 10.3224 25.4094 10.7309C24.5002 11.1262 23.4131 11.3238 22.1482 11.3238H17.9976L19.7369 9.68338V15.0001H15.8235ZM24.3816 15.0001L20.9425 9.96008H25.1129L28.5717 15.0001H24.3816ZM19.7369 10.0984L17.9976 8.29985H21.911C22.728 8.29985 23.3341 8.12197 23.7294 7.7662C24.1378 7.41044 24.3421 6.91632 24.3421 6.28385C24.3421 5.6382 24.1378 5.1375 23.7294 4.78173C23.3341 4.42597 22.728 4.24809 21.911 4.24809H17.9976L19.7369 2.4495V10.0984Z" fill="white"/>
<path d="M30.454 15.0001V1.16479H33.6756L39.4074 10.5728H37.7076L43.2813 1.16479H46.5029L46.5424 15.0001H42.9453L42.9057 6.63962H43.5184L39.3481 13.6363H37.6088L33.3199 6.63962H34.0709V15.0001H30.454Z" fill="white"/>
<path d="M8.39495 15C7.33213 15 6.34613 14.8333 5.43697 14.5C4.54061 14.1538 3.7595 13.6667 3.09364 13.0385C2.44058 12.4102 1.92837 11.6731 1.55702 10.8269C1.18567 9.96794 1 9.02563 1 7.99999C1 6.97435 1.18567 6.03846 1.55702 5.1923C1.92837 4.33333 2.44058 3.58974 3.09364 2.96154C3.7595 2.33333 4.54061 1.85256 5.43697 1.51923C6.34613 1.17308 7.33213 1 8.39495 1C9.63705 1 10.7447 1.21795 11.7179 1.65385C12.2105 1.87162 12.6615 2.13738 13.071 2.45115C13.7648 2.98277 13.6722 3.99523 13.0244 4.58205C12.3307 5.21041 11.2712 5.09205 10.4556 4.63292C10.4093 4.60686 10.3627 4.58179 10.3157 4.55769C9.80351 4.28846 9.22728 4.15384 8.58703 4.15384C8.03641 4.15384 7.53061 4.24359 7.06962 4.42307C6.60864 4.60256 6.21168 4.86538 5.87875 5.21153C5.55862 5.54487 5.30252 5.94871 5.11044 6.42307C4.93117 6.89743 4.84153 7.42307 4.84153 7.99999C4.84153 8.57692 4.93117 9.10256 5.11044 9.57692C5.30252 10.0513 5.55862 10.4615 5.87875 10.8077C6.21168 11.141 6.60864 11.3974 7.06962 11.5769C7.53061 11.7564 8.03641 11.8461 8.58703 11.8461C9.22728 11.8461 9.80351 11.7115 10.3157 11.4423C10.3646 11.4173 10.413 11.3911 10.4611 11.364C11.273 10.9053 12.3286 10.7877 13.0198 11.4137C13.6688 12.0017 13.7567 13.016 13.0605 13.5473C12.6538 13.8576 12.2063 14.1239 11.7179 14.3461C10.7447 14.782 9.63705 15 8.39495 15Z" fill="white"/>
<circle cx="8.82347" cy="7.99998" r="2.05882" fill="#F9B406"/>
</svg>
