<svg width="69" height="24" viewBox="0 0 69 24" fill="none" xmlns="http://www.w3.org/2000/svg">
    <path d="M23.1765 22V2.23535H32.2118C34.0189 2.23535 35.5718 2.52712 36.8706 3.11065C38.1883 3.69417 39.2047 4.54123 39.92 5.65182C40.6353 6.74358 40.993 8.04241 40.993 9.54829C40.993 11.0353 40.6353 12.3248 39.92 13.4165C39.2047 14.4895 38.1883 15.3177 36.8706 15.9012C35.5718 16.4659 34.0189 16.7483 32.2118 16.7483H26.2824L28.7671 14.4048V22H23.1765ZM35.4024 22L30.4894 14.8H36.4471L41.3883 22H35.4024ZM28.7671 14.9977L26.2824 12.4283H31.873C33.04 12.4283 33.9059 12.1742 34.4706 11.6659C35.0542 11.1577 35.3459 10.4518 35.3459 9.54829C35.3459 8.62594 35.0542 7.91064 34.4706 7.40241C33.9059 6.89417 33.04 6.64005 31.873 6.64005H26.2824L28.7671 4.07064V14.9977Z"
          fill="white"/>
    <path d="M44.0772 22V2.23535H48.6796L56.8678 15.6753H54.4396L62.4019 2.23535H67.0043L67.0607 22H61.9219L61.8655 10.0565H62.7407L56.7831 20.0518H54.2984L48.1713 10.0565H49.2443V22H44.0772Z"
          fill="white"/>
    <path d="M12.5642 22C11.0459 22 9.63733 21.7619 8.33853 21.2857C7.05802 20.7912 5.94214 20.0952 4.99091 19.1978C4.05796 18.3004 3.32624 17.2472 2.79575 16.0385C2.26525 14.8113 2 13.4652 2 12C2 10.5348 2.26525 9.1978 2.79575 7.98901C3.32624 6.7619 4.05796 5.69963 4.99091 4.8022C5.94214 3.90476 7.05802 3.21795 8.33853 2.74176C9.63733 2.24725 11.0459 2 12.5642 2C14.3386 2 15.921 2.31136 17.3113 2.93407C18.015 3.24517 18.6593 3.62483 19.2443 4.07307C20.2355 4.83253 20.1032 6.2789 19.1777 7.11722C18.1868 8.01487 16.6732 7.84579 15.508 7.18988C15.4419 7.15266 15.3753 7.11684 15.3082 7.08241C14.5764 6.6978 13.7533 6.50549 12.8386 6.50549C12.052 6.50549 11.3294 6.6337 10.6709 6.89011C10.0123 7.14652 9.44526 7.52197 8.96964 8.01648C8.51231 8.49267 8.14645 9.06959 7.87206 9.74725C7.61596 10.4249 7.4879 11.1758 7.4879 12C7.4879 12.8242 7.61596 13.5751 7.87206 14.2527C8.14645 14.9304 8.51231 15.5165 8.96964 16.011C9.44526 16.4872 10.0123 16.8535 10.6709 17.1099C11.3294 17.3663 12.052 17.4945 12.8386 17.4945C13.7533 17.4945 14.5764 17.3022 15.3082 16.9176C15.3779 16.8818 15.4472 16.8445 15.5158 16.8057C16.6757 16.1504 18.1838 15.9824 19.1711 16.8768C20.0983 17.7167 20.2239 19.1657 19.2293 19.9247C18.6483 20.368 18.0089 20.7484 17.3113 21.0659C15.921 21.6886 14.3386 22 12.5642 22Z"
          fill="white"/>
    <ellipse cx="13.1765" cy="12" rx="2.94117" ry="2.94117" fill="#F9B406"/>
</svg>
