<svg width="122" height="20" viewBox="0 0 122 20" fill="none" xmlns="http://www.w3.org/2000/svg">
<path d="M16.8253 1.15784V18.842H11.8232V11.9452H5.00211V18.842H0V1.15784H5.00211V7.80205H11.8232V1.15784H16.8253Z" fill="white"/>
<path d="M39.8992 19.1958C38.4676 19.1958 37.0781 19.019 35.7307 18.6653C34.3834 18.3116 33.2886 17.84 32.4465 17.2505L34.0886 13.5621C34.8802 14.0842 35.7981 14.5053 36.8423 14.8253C37.8865 15.1453 38.9139 15.3053 39.9244 15.3053C41.8444 15.3053 42.8044 14.8253 42.8044 13.8653C42.8044 13.36 42.5265 12.9895 41.9707 12.7537C41.4318 12.5011 40.556 12.24 39.3434 11.9705C38.0128 11.6842 36.9013 11.3811 36.0086 11.0611C35.116 10.7242 34.3497 10.1937 33.7097 9.46948C33.0697 8.74527 32.7497 7.76843 32.7497 6.53895C32.7497 5.46106 33.0444 4.49264 33.6339 3.63369C34.2234 2.7579 35.0992 2.06737 36.2613 1.56211C37.4402 1.05685 38.8802 0.804214 40.5813 0.804214C41.7434 0.804214 42.8886 0.938952 44.0171 1.20843C45.1455 1.46106 46.1392 1.84 46.9981 2.34527L45.4571 6.05895C43.7728 5.14948 42.1392 4.69474 40.556 4.69474C39.5623 4.69474 38.8381 4.84632 38.3834 5.14948C37.9286 5.43579 37.7013 5.81474 37.7013 6.28632C37.7013 6.7579 37.9707 7.11158 38.5097 7.34737C39.0486 7.58316 39.916 7.82737 41.1118 8.08C42.4592 8.36632 43.5707 8.6779 44.4465 9.01474C45.3392 9.33474 46.1055 9.85685 46.7455 10.5811C47.4023 11.2884 47.7307 12.2568 47.7307 13.4863C47.7307 14.5474 47.436 15.5074 46.8465 16.3663C46.2571 17.2253 45.3728 17.9158 44.1939 18.4379C43.015 18.9432 41.5834 19.1958 39.8992 19.1958Z" fill="white"/>
<path d="M53.5588 5.12421H48.1273V1.1579H63.9673V5.12421H58.5609V18.8421H53.5588V5.12421Z" fill="white"/>
<path d="M74.502 19.1958C72.6325 19.1958 70.9483 18.8 69.4494 18.0084C67.9673 17.2168 66.7967 16.1221 65.9378 14.7242C65.0957 13.3263 64.6746 11.7516 64.6746 10C64.6746 8.24843 65.0957 6.67369 65.9378 5.27579C66.7967 3.8779 67.9673 2.78316 69.4494 1.99158C70.9483 1.2 72.6325 0.804214 74.502 0.804214C76.3715 0.804214 78.0473 1.2 79.5294 1.99158C81.0283 2.78316 82.1988 3.8779 83.0409 5.27579C83.8999 6.67369 84.3294 8.24843 84.3294 10C84.3294 11.7516 83.8999 13.3263 83.0409 14.7242C82.1988 16.1221 81.0283 17.2168 79.5294 18.0084C78.0473 18.8 76.3715 19.1958 74.502 19.1958ZM74.502 15.0526C75.3946 15.0526 76.203 14.8421 76.9273 14.4211C77.6515 14 78.2241 13.4105 78.6452 12.6526C79.0662 11.8779 79.2767 10.9937 79.2767 10C79.2767 9.00632 79.0662 8.13053 78.6452 7.37264C78.2241 6.5979 77.6515 6 76.9273 5.57895C76.203 5.1579 75.3946 4.94737 74.502 4.94737C73.6094 4.94737 72.8009 5.1579 72.0767 5.57895C71.3525 6 70.7799 6.5979 70.3588 7.37264C69.9378 8.13053 69.7273 9.00632 69.7273 10C69.7273 10.9937 69.9378 11.8779 70.3588 12.6526C70.7799 13.4105 71.3525 14 72.0767 14.4211C72.8009 14.8421 73.6094 15.0526 74.502 15.0526Z" fill="white"/>
<path d="M94.6798 14.1432H91.9513V18.8421H86.9492V1.1579H95.0334C96.6334 1.1579 98.0229 1.42737 99.2019 1.96632C100.381 2.48843 101.29 3.24632 101.93 4.24C102.57 5.21685 102.89 6.37053 102.89 7.70106C102.89 8.98106 102.587 10.1011 101.981 11.0611C101.391 12.0042 100.541 12.7453 99.4292 13.2842L103.244 18.8421H97.8882L94.6798 14.1432ZM97.8377 7.70106C97.8377 6.87579 97.5766 6.23579 97.0545 5.78106C96.5324 5.32632 95.7577 5.09895 94.7303 5.09895H91.9513V10.2779H94.7303C95.7577 10.2779 96.5324 10.059 97.0545 9.62106C97.5766 9.16632 97.8377 8.52632 97.8377 7.70106Z" fill="white"/>
<path d="M114.877 12.5011V18.8421H109.875V12.4253L103.129 1.1579H108.41L112.603 8.18106L116.797 1.1579H121.647L114.877 12.5011Z" fill="white"/>
<path fill-rule="evenodd" clip-rule="evenodd" d="M22.0916 1.29832C22.1507 1.49259 22.1825 1.69876 22.1825 1.91236C22.1825 4.32754 23.2501 5.74843 24.972 7.2985C26.6939 5.74843 27.7615 4.32754 27.7615 1.91236C27.7615 1.69876 27.7933 1.49259 27.8524 1.29832H22.0916ZM27.8524 18.8422C27.7933 18.6479 27.7615 18.4417 27.7615 18.2281C27.7615 15.813 26.6939 14.3921 24.972 12.842C23.2501 14.3921 22.1825 15.813 22.1825 18.2281C22.1825 18.4417 22.1507 18.6479 22.0916 18.8422H27.8524Z" fill="#FFC107"/>
</svg>
