<svg width="94" height="16" viewBox="0 0 94 16" fill="none" xmlns="http://www.w3.org/2000/svg">
    <path d="M13.78 1.26917V14.7307H9.98054V9.4807H4.79946V14.7307H1V1.26917H4.79946V6.32686H9.98054V1.26917H13.78Z"
          fill="white"/>
    <path d="M31.3063 15C30.2189 15 29.1635 14.8654 28.1401 14.5962C27.1167 14.3269 26.2851 13.9679 25.6455 13.5192L26.8928 10.7115C27.4941 11.109 28.1913 11.4295 28.9844 11.6731C29.7776 11.9167 30.5579 12.0385 31.3255 12.0385C32.7839 12.0385 33.5131 11.6731 33.5131 10.9423C33.5131 10.5577 33.302 10.2756 32.8798 10.0962C32.4705 9.90385 31.8052 9.70513 30.8842 9.5C29.8735 9.28205 29.0292 9.05128 28.3512 8.80769C27.6732 8.55128 27.0911 8.14744 26.605 7.59615C26.1188 7.04487 25.8758 6.30128 25.8758 5.36538C25.8758 4.54487 26.0997 3.80769 26.5474 3.15385C26.9951 2.48718 27.6604 1.96154 28.5431 1.57692C29.4386 1.19231 30.5324 1 31.8244 1C32.7071 1 33.577 1.10256 34.4342 1.30769C35.2913 1.5 36.0461 1.78846 36.6985 2.17308L35.5279 5C34.2487 4.30769 33.0078 3.96154 31.8052 3.96154C31.0505 3.96154 30.5004 4.07692 30.155 4.30769C29.8096 4.52564 29.6369 4.8141 29.6369 5.17308C29.6369 5.53205 29.8415 5.80128 30.2509 5.98077C30.6603 6.16026 31.3191 6.34615 32.2274 6.53846C33.2508 6.75641 34.0951 6.99359 34.7604 7.25C35.4384 7.49359 36.0205 7.89103 36.5066 8.44231C37.0055 8.98077 37.255 9.71795 37.255 10.6538C37.255 11.4615 37.0311 12.1923 36.5833 12.8462C36.1356 13.5 35.464 14.0256 34.5685 14.4231C33.673 14.8077 32.5856 15 31.3063 15Z"
          fill="white"/>
    <path d="M41.6818 4.28846H37.5562V1.26923H49.5878V4.28846H45.4813V14.7308H41.6818V4.28846Z" fill="white"/>
    <path d="M57.5897 15C56.1697 15 54.8904 14.6987 53.7518 14.0962C52.6261 13.4936 51.737 12.6603 51.0845 11.5962C50.4449 10.5321 50.1251 9.33333 50.1251 8C50.1251 6.66667 50.4449 5.46795 51.0845 4.40385C51.737 3.33974 52.6261 2.50641 53.7518 1.90385C54.8904 1.30128 56.1697 1 57.5897 1C59.0097 1 60.2826 1.30128 61.4083 1.90385C62.5469 2.50641 63.436 3.33974 64.0756 4.40385C64.7281 5.46795 65.0543 6.66667 65.0543 8C65.0543 9.33333 64.7281 10.5321 64.0756 11.5962C63.436 12.6603 62.5469 13.4936 61.4083 14.0962C60.2826 14.6987 59.0097 15 57.5897 15ZM57.5897 11.8462C58.2677 11.8462 58.8817 11.6859 59.4318 11.3654C59.9819 11.0449 60.4169 10.5962 60.7367 10.0192C61.0565 9.42949 61.2164 8.75641 61.2164 8C61.2164 7.24359 61.0565 6.57692 60.7367 6C60.4169 5.41026 59.9819 4.95513 59.4318 4.63462C58.8817 4.3141 58.2677 4.15385 57.5897 4.15385C56.9117 4.15385 56.2976 4.3141 55.7475 4.63462C55.1974 4.95513 54.7625 5.41026 54.4426 6C54.1228 6.57692 53.9629 7.24359 53.9629 8C53.9629 8.75641 54.1228 9.42949 54.4426 10.0192C54.7625 10.5962 55.1974 11.0449 55.7475 11.3654C56.2976 11.6859 56.9117 11.8462 57.5897 11.8462Z"
          fill="white"/>
    <path d="M72.9161 11.1538H70.8437V14.7308H67.0442V1.26923H73.1848C74.4001 1.26923 75.4555 1.47436 76.351 1.88462C77.2465 2.28205 77.9373 2.85897 78.4234 3.61538C78.9096 4.35897 79.1526 5.23718 79.1526 6.25C79.1526 7.22436 78.9224 8.07692 78.4618 8.80769C78.0141 9.52564 77.368 10.0897 76.5237 10.5L79.4213 14.7308H75.3532L72.9161 11.1538ZM75.3148 6.25C75.3148 5.6218 75.1165 5.13462 74.7199 4.78846C74.3233 4.44231 73.7349 4.26923 72.9545 4.26923H70.8437V8.21154H72.9545C73.7349 8.21154 74.3233 8.04487 74.7199 7.71154C75.1165 7.36538 75.3148 6.87821 75.3148 6.25Z"
          fill="white"/>
    <path d="M88.2573 9.90385V14.7308H84.4578V9.84615L79.3343 1.26923H83.3449L86.5303 6.61539L89.7157 1.26923H93.4L88.2573 9.90385Z"
          fill="white"/>
    <path fill-rule="evenodd" clip-rule="evenodd"
          d="M17.78 1.3761C17.825 1.52397 17.8491 1.68092 17.8491 1.84351C17.8491 3.68199 18.66 4.76359 19.9679 5.94353C21.2758 4.76359 22.0867 3.68199 22.0867 1.84351C22.0867 1.68092 22.1109 1.52397 22.1558 1.3761H17.78ZM22.1558 14.7308C22.1109 14.5829 22.0867 14.426 22.0867 14.2634C22.0867 12.4249 21.2758 11.3433 19.9679 10.1634C18.66 11.3433 17.8491 12.4249 17.8491 14.2634C17.8491 14.426 17.825 14.5829 17.78 14.7308H22.1558Z"
          fill="#FFC107"/>
</svg>
