<svg width="172" height="20" viewBox="0 0 172 20" fill="none" xmlns="http://www.w3.org/2000/svg">
<path d="M7.45263 19.1958C6.02105 19.1958 4.63158 19.019 3.28421 18.6653C1.93684 18.3116 0.842105 17.84 0 17.2505L1.64211 13.5621C2.43368 14.0842 3.35158 14.5053 4.39579 14.8253C5.44 15.1453 6.46737 15.3053 7.47789 15.3053C9.39789 15.3053 10.3579 14.8253 10.3579 13.8653C10.3579 13.36 10.08 12.9895 9.52421 12.7537C8.98526 12.5011 8.10947 12.24 6.89684 11.9705C5.56632 11.6842 4.45474 11.3811 3.56211 11.0611C2.66947 10.7242 1.90316 10.1937 1.26316 9.46948C0.623158 8.74527 0.303158 7.76843 0.303158 6.53895C0.303158 5.46106 0.597895 4.49264 1.18737 3.63369C1.77684 2.7579 2.65263 2.06737 3.81474 1.56211C4.99368 1.05685 6.43368 0.804214 8.13474 0.804214C9.29684 0.804214 10.4421 0.938952 11.5705 1.20843C12.6989 1.46106 13.6926 1.84 14.5516 2.34527L13.0105 6.05895C11.3263 5.14948 9.69263 4.69474 8.10947 4.69474C7.11579 4.69474 6.39158 4.84632 5.93684 5.14948C5.48211 5.43579 5.25474 5.81474 5.25474 6.28632C5.25474 6.7579 5.52421 7.11158 6.06316 7.34737C6.60211 7.58316 7.46947 7.82737 8.66526 8.08C10.0126 8.36632 11.1242 8.6779 12 9.01474C12.8926 9.33474 13.6589 9.85685 14.2989 10.5811C14.9558 11.2884 15.2842 12.2568 15.2842 13.4863C15.2842 14.5474 14.9895 15.5074 14.4 16.3663C13.8105 17.2253 12.9263 17.9158 11.7474 18.4379C10.5684 18.9432 9.13684 19.1958 7.45263 19.1958Z" fill="white"/>
<path d="M25.7548 19.1958C23.1274 19.1958 21.0811 18.48 19.6159 17.0484C18.1674 15.6168 17.4432 13.5874 17.4432 10.96V1.1579H22.4453V10.8084C22.4453 13.6379 23.5653 15.0526 25.8053 15.0526C28.0285 15.0526 29.1401 13.6379 29.1401 10.8084V1.1579H34.0664V10.96C34.0664 13.5874 33.3338 15.6168 31.8685 17.0484C30.4201 18.48 28.3822 19.1958 25.7548 19.1958Z" fill="white"/>
<path d="M45.5392 1.1579C47.1392 1.1579 48.5287 1.42737 49.7076 1.96632C50.8866 2.48843 51.7961 3.24632 52.4361 4.24C53.0761 5.21685 53.3961 6.37053 53.3961 7.70106C53.3961 9.03158 53.0761 10.1853 52.4361 11.1621C51.7961 12.139 50.8866 12.8968 49.7076 13.4358C48.5287 13.9579 47.1392 14.219 45.5392 14.219H42.4571V18.8421H37.455V1.1579H45.5392ZM45.2361 10.2779C46.2634 10.2779 47.0382 10.059 47.5603 9.62106C48.0824 9.16632 48.3434 8.52632 48.3434 7.70106C48.3434 6.87579 48.0824 6.23579 47.5603 5.78106C47.0382 5.32632 46.2634 5.09895 45.2361 5.09895H42.4571V10.2779H45.2361Z" fill="white"/>
<path d="M70.0328 14.9768V18.8421H55.8349V1.1579H69.7044V5.02316H60.7865V8.00422H68.6434V11.7432H60.7865V14.9768H70.0328Z" fill="white"/>
<path d="M80.5391 14.1432H77.8107V18.8421H72.8086V1.1579H80.8928C82.4928 1.1579 83.8823 1.42737 85.0613 1.96632C86.2402 2.48843 87.1497 3.24632 87.7897 4.24C88.4297 5.21685 88.7497 6.37053 88.7497 7.70106C88.7497 8.98106 88.4465 10.1011 87.8402 11.0611C87.2507 12.0042 86.4002 12.7453 85.2886 13.2842L89.1034 18.8421H83.7476L80.5391 14.1432ZM83.697 7.70106C83.697 6.87579 83.436 6.23579 82.9139 5.78106C82.3918 5.32632 81.617 5.09895 80.5897 5.09895H77.8107V10.2779H80.5897C81.617 10.2779 82.3918 10.059 82.9139 9.62106C83.436 9.16632 83.697 8.52632 83.697 7.70106Z" fill="white"/>
<path d="M109.446 1.1579L101.867 18.8421H96.9409L89.3872 1.1579H94.7935L99.5935 12.6779L104.495 1.1579H109.446Z" fill="white"/>
<path d="M110.481 1.1579H115.483V18.8421H110.481V1.1579Z" fill="white"/>
<path d="M125.257 19.1958C123.825 19.1958 122.436 19.019 121.088 18.6653C119.741 18.3116 118.646 17.84 117.804 17.2505L119.446 13.5621C120.238 14.0842 121.156 14.5053 122.2 14.8253C123.244 15.1453 124.272 15.3053 125.282 15.3053C127.202 15.3053 128.162 14.8253 128.162 13.8653C128.162 13.36 127.884 12.9895 127.328 12.7537C126.79 12.5011 125.914 12.24 124.701 11.9705C123.371 11.6842 122.259 11.3811 121.366 11.0611C120.474 10.7242 119.707 10.1937 119.067 9.46948C118.427 8.74527 118.107 7.76843 118.107 6.53895C118.107 5.46106 118.402 4.49264 118.992 3.63369C119.581 2.7579 120.457 2.06737 121.619 1.56211C122.798 1.05685 124.238 0.804214 125.939 0.804214C127.101 0.804214 128.246 0.938952 129.375 1.20843C130.503 1.46106 131.497 1.84 132.356 2.34527L130.815 6.05895C129.131 5.14948 127.497 4.69474 125.914 4.69474C124.92 4.69474 124.196 4.84632 123.741 5.14948C123.286 5.43579 123.059 5.81474 123.059 6.28632C123.059 6.7579 123.328 7.11158 123.867 7.34737C124.406 7.58316 125.274 7.82737 126.47 8.08C127.817 8.36632 128.928 8.6779 129.804 9.01474C130.697 9.33474 131.463 9.85685 132.103 10.5811C132.76 11.2884 133.088 12.2568 133.088 13.4863C133.088 14.5474 132.794 15.5074 132.204 16.3663C131.615 17.2253 130.731 17.9158 129.552 18.4379C128.373 18.9432 126.941 19.1958 125.257 19.1958Z" fill="white"/>
<path d="M163.08 14.1432H160.352V18.8421H155.35V1.1579H163.434C165.034 1.1579 166.423 1.42737 167.602 1.96632C168.781 2.48843 169.691 3.24632 170.331 4.24C170.971 5.21685 171.291 6.37053 171.291 7.70106C171.291 8.98106 170.988 10.1011 170.381 11.0611C169.792 12.0042 168.941 12.7453 167.83 13.2842L171.644 18.8421H166.289L163.08 14.1432ZM166.238 7.70106C166.238 6.87579 165.977 6.23579 165.455 5.78106C164.933 5.32632 164.158 5.09895 163.131 5.09895H160.352V10.2779H163.131C164.158 10.2779 164.933 10.059 165.455 9.62106C165.977 9.16632 166.238 8.52632 166.238 7.70106Z" fill="white"/>
<path d="M144.005 19.1958C142.136 19.1958 140.451 18.8 138.952 18.0084C137.47 17.2168 136.3 16.1221 135.441 14.7242C134.599 13.3263 134.178 11.7516 134.178 10C134.178 8.24843 134.599 6.67369 135.441 5.27579C136.3 3.8779 137.47 2.78316 138.952 1.99158C140.451 1.2 142.136 0.804214 144.005 0.804214C145.874 0.804214 147.55 1.2 149.032 1.99158C150.531 2.78316 151.702 3.8779 152.544 5.27579C153.403 6.67369 153.832 8.24843 153.832 10C153.832 11.7516 153.403 13.3263 152.544 14.7242C151.702 16.1221 150.531 17.2168 149.032 18.0084C147.55 18.8 145.874 19.1958 144.005 19.1958ZM144.005 15.0526C144.898 15.0526 145.706 14.8421 146.43 14.4211C147.154 14 147.727 13.4105 148.148 12.6526C148.569 11.8779 148.78 10.9937 148.78 10C148.78 9.00632 148.569 8.13053 148.148 7.37264C147.727 6.5979 147.154 6 146.43 5.57895C145.706 5.1579 144.898 4.94737 144.005 4.94737C143.112 4.94737 142.304 5.1579 141.58 5.57895C140.856 6 140.283 6.5979 139.862 7.37264C139.441 8.13053 139.23 9.00632 139.23 10C139.23 10.9937 139.441 11.8779 139.862 12.6526C140.283 13.4105 140.856 14 141.58 14.4211C142.304 14.8421 143.112 15.0526 144.005 15.0526Z" fill="#FFC107"/>
<circle cx="144.056" cy="10.0702" r="1.75439" fill="white"/>
</svg>
