<svg width="133" height="16" viewBox="0 0 133 16" fill="none" xmlns="http://www.w3.org/2000/svg">
<path d="M6.68355 15C5.59179 15 4.53215 14.8654 3.50461 14.5962C2.47708 14.3269 1.64221 13.9679 1 13.5192L2.25231 10.7115C2.85598 11.109 3.55599 11.4295 4.35233 11.6731C5.14867 11.9167 5.93216 12.0385 6.70281 12.0385C8.16705 12.0385 8.89917 11.6731 8.89917 10.9423C8.89917 10.5577 8.68724 10.2756 8.26338 10.0962C7.85237 9.90385 7.18447 9.70513 6.25969 9.5C5.245 9.28205 4.39728 9.05128 3.71654 8.80769C3.0358 8.55128 2.45139 8.14744 1.96331 7.59615C1.47523 7.04487 1.2312 6.30128 1.2312 5.36538C1.2312 4.54487 1.45597 3.80769 1.90551 3.15385C2.35506 2.48718 3.02296 1.96154 3.90921 1.57692C4.8083 1.19231 5.90647 1 7.20374 1C8.08998 1 8.96339 1.10256 9.82395 1.30769C10.6845 1.5 11.4423 1.78846 12.0974 2.17308L10.9221 5C9.63771 4.30769 8.39182 3.96154 7.18447 3.96154C6.42666 3.96154 5.87436 4.07692 5.52757 4.30769C5.18078 4.52564 5.00738 4.8141 5.00738 5.17308C5.00738 5.53205 5.21289 5.80128 5.6239 5.98077C6.03492 6.16026 6.69639 6.34615 7.60833 6.53846C8.63586 6.75641 9.48358 6.99359 10.1515 7.25C10.8322 7.49359 11.4166 7.89103 11.9047 8.44231C12.4056 8.98077 12.6561 9.71795 12.6561 10.6538C12.6561 11.4615 12.4313 12.1923 11.9818 12.8462C11.5322 13.5 10.8579 14.0256 9.95881 14.4231C9.05972 14.8077 7.96796 15 6.68355 15Z" fill="white"/>
<path d="M20.6412 15C18.6375 15 17.0769 14.4551 15.9595 13.3654C14.8549 12.2756 14.3026 10.7308 14.3026 8.73077V1.26923H18.1173V8.61538C18.1173 10.7692 18.9715 11.8462 20.6797 11.8462C22.3752 11.8462 23.2229 10.7692 23.2229 8.61538V1.26923H26.9798V8.73077C26.9798 10.7308 26.4211 12.2756 25.3036 13.3654C24.199 14.4551 22.6449 15 20.6412 15Z" fill="white"/>
<path d="M35.7292 1.26923C36.9494 1.26923 38.0091 1.47436 38.9082 1.88462C39.8073 2.28205 40.5009 2.85897 40.9889 3.61538C41.477 4.35897 41.7211 5.23718 41.7211 6.25C41.7211 7.26282 41.477 8.14103 40.9889 8.88461C40.5009 9.62821 39.8073 10.2051 38.9082 10.6154C38.0091 11.0128 36.9494 11.2115 35.7292 11.2115H33.3788V14.7308H29.564V1.26923H35.7292ZM35.498 8.21154C36.2815 8.21154 36.8724 8.04487 37.2705 7.71154C37.6687 7.36538 37.8678 6.8782 37.8678 6.25C37.8678 5.6218 37.6687 5.13462 37.2705 4.78846C36.8724 4.44231 36.2815 4.26923 35.498 4.26923H33.3788V8.21154H35.498Z" fill="white"/>
<path d="M54.4086 11.7885V14.7308H43.581V1.26923H54.1582V4.21154H47.3572V6.48077H53.349V9.32692H47.3572V11.7885H54.4086Z" fill="white"/>
<path d="M62.421 11.1538H60.3402V14.7308H56.5255V1.26923H62.6907C63.9109 1.26923 64.9706 1.47436 65.8697 1.88462C66.7687 2.28205 67.4623 2.85897 67.9504 3.61538C68.4385 4.35897 68.6825 5.23718 68.6825 6.25C68.6825 7.22436 68.4513 8.07692 67.9889 8.80769C67.5394 9.52564 66.8908 10.0897 66.043 10.5L68.9522 14.7308H64.8678L62.421 11.1538ZM64.8293 6.25C64.8293 5.6218 64.6302 5.13462 64.232 4.78846C63.8338 4.44231 63.243 4.26923 62.4595 4.26923H60.3402V8.21154H62.4595C63.243 8.21154 63.8338 8.04487 64.232 7.71154C64.6302 7.36538 64.8293 6.8782 64.8293 6.25Z" fill="white"/>
<path d="M84.4661 1.26923L78.6862 14.7308H74.9293L69.1687 1.26923H73.2917L76.9523 10.0385L80.6899 1.26923H84.4661Z" fill="white"/>
<path d="M85.2556 1.26923H89.0703V14.7308H85.2556V1.26923Z" fill="white"/>
<path d="M96.5238 15C95.432 15 94.3724 14.8654 93.3448 14.5962C92.3173 14.3269 91.4824 13.9679 90.8402 13.5192L92.0925 10.7115C92.6962 11.109 93.3962 11.4295 94.1926 11.6731C94.9889 11.9167 95.7724 12.0385 96.543 12.0385C98.0073 12.0385 98.7394 11.6731 98.7394 10.9423C98.7394 10.5577 98.5275 10.2756 98.1036 10.0962C97.6926 9.90385 97.0247 9.70513 96.0999 9.5C95.0852 9.28205 94.2375 9.05128 93.5568 8.80769C92.876 8.55128 92.2916 8.14744 91.8035 7.59615C91.3155 7.04487 91.0714 6.30128 91.0714 5.36538C91.0714 4.54487 91.2962 3.80769 91.7457 3.15385C92.1953 2.48718 92.8632 1.96154 93.7494 1.57692C94.6485 1.19231 95.7467 1 97.044 1C97.9302 1 98.8036 1.10256 99.6642 1.30769C100.525 1.5 101.283 1.78846 101.938 2.17308L100.762 5C99.4779 4.30769 98.232 3.96154 97.0247 3.96154C96.2669 3.96154 95.7146 4.07692 95.3678 4.30769C95.021 4.52564 94.8476 4.8141 94.8476 5.17308C94.8476 5.53205 95.0531 5.80128 95.4641 5.98077C95.8751 6.16026 96.5366 6.34615 97.4486 6.53846C98.4761 6.75641 99.3238 6.99359 99.9917 7.25C100.672 7.49359 101.257 7.89103 101.745 8.44231C102.246 8.98077 102.496 9.71795 102.496 10.6538C102.496 11.4615 102.272 12.1923 101.822 12.8462C101.372 13.5 100.698 14.0256 99.799 14.4231C98.8999 14.8077 97.8082 15 96.5238 15Z" fill="white"/>
<path d="M125.369 11.1538H123.288V14.7308H119.473V1.26923H125.638C126.859 1.26923 127.918 1.47436 128.817 1.88462C129.716 2.28205 130.41 2.85897 130.898 3.61538C131.386 4.35897 131.63 5.23718 131.63 6.25C131.63 7.22436 131.399 8.07692 130.937 8.80769C130.487 9.52564 129.839 10.0897 128.991 10.5L131.9 14.7308H127.816L125.369 11.1538ZM127.777 6.25C127.777 5.6218 127.578 5.13462 127.18 4.78846C126.782 4.44231 126.191 4.26923 125.407 4.26923H123.288V8.21154H125.407C126.191 8.21154 126.782 8.04487 127.18 7.71154C127.578 7.36538 127.777 6.8782 127.777 6.25Z" fill="white"/>
<path d="M110.821 15C109.396 15 108.111 14.6987 106.968 14.0962C105.838 13.4936 104.945 12.6603 104.29 11.5962C103.648 10.5321 103.327 9.33333 103.327 8C103.327 6.66667 103.648 5.46795 104.29 4.40385C104.945 3.33974 105.838 2.50641 106.968 1.90385C108.111 1.30128 109.396 1 110.821 1C112.247 1 113.525 1.30128 114.655 1.90385C115.799 2.50641 116.691 3.33974 117.333 4.40385C117.989 5.46795 118.316 6.66667 118.316 8C118.316 9.33333 117.989 10.5321 117.333 11.5962C116.691 12.6603 115.799 13.4936 114.655 14.0962C113.525 14.6987 112.247 15 110.821 15ZM110.821 11.8462C111.502 11.8462 112.119 11.6859 112.671 11.3654C113.223 11.0449 113.66 10.5962 113.981 10.0192C114.302 9.42949 114.463 8.75641 114.463 8C114.463 7.24359 114.302 6.57692 113.981 6C113.66 5.41026 113.223 4.95513 112.671 4.63461C112.119 4.3141 111.502 4.15385 110.821 4.15385C110.141 4.15385 109.524 4.3141 108.972 4.63461C108.42 4.95513 107.983 5.41026 107.662 6C107.341 6.57692 107.18 7.24359 107.18 8C107.18 8.75641 107.341 9.42949 107.662 10.0192C107.983 10.5962 108.42 11.0449 108.972 11.3654C109.524 11.6859 110.141 11.8462 110.821 11.8462Z" fill="#FFC107"/>
<ellipse cx="110.86" cy="8.05349" rx="1.33793" ry="1.33547" fill="white"/>
</svg>
