<svg width="139" height="42" viewBox="0 0 139 42" fill="none" xmlns="http://www.w3.org/2000/svg">
    <path d="M100.986 2.18077C101.039 2.07014 101.146 2 101.264 2C101.382 2 101.49 2.07014 101.542 2.18077L102.538 4.29484C102.583 4.39046 102.67 4.4568 102.771 4.47217L104.999 4.81111C105.115 4.82882 105.212 4.91451 105.249 5.03182C105.285 5.14914 105.255 5.27821 105.17 5.36425L103.559 7.00996C103.486 7.08443 103.452 7.19181 103.469 7.29702L103.85 9.62078C103.869 9.74261 103.822 9.86553 103.726 9.9382C103.631 10.0105 103.505 10.0201 103.4 9.96297L101.408 8.86571C101.318 8.816 101.21 8.816 101.119 8.86571L99.1271 9.96279C99.0229 10.0201 98.8963 10.0107 98.8009 9.9382C98.7055 9.86572 98.6578 9.74261 98.6777 9.62078L99.0581 7.29702C99.0753 7.19181 99.0418 7.08443 98.9688 7.00996L97.3572 5.36425C97.2728 5.27803 97.2424 5.14914 97.2788 5.03182C97.3152 4.91451 97.4121 4.82882 97.5289 4.81111L99.7567 4.47217C99.8575 4.4568 99.9448 4.39046 99.9899 4.29466L100.986 2.18077Z"
          fill="#FFC107"/>
    <path d="M28.6678 34.1038H18.0118L16.0318 38.9998H8.75977L19.8838 13.7998H26.9038L38.0638 38.9998H30.6478L28.6678 34.1038ZM26.5798 28.8478L23.3398 20.7838L20.0998 28.8478H26.5798Z"
          fill="#28376E"/>
    <path d="M51.1852 39.5038C47.4412 39.5038 44.5252 38.4838 42.4372 36.4438C40.3732 34.4038 39.3412 31.5118 39.3412 27.7678V13.7998H46.4692V27.5518C46.4692 31.5838 48.0652 33.5998 51.2572 33.5998C54.4252 33.5998 56.0092 31.5838 56.0092 27.5518V13.7998H63.0292V27.7678C63.0292 31.5118 61.9852 34.4038 59.8972 36.4438C57.8332 38.4838 54.9292 39.5038 51.1852 39.5038Z"
          fill="#28376E"/>
    <path d="M67.858 13.7998H79.774C82.534 13.7998 84.982 14.3158 87.118 15.3478C89.254 16.3798 90.91 17.8438 92.086 19.7398C93.262 21.6358 93.85 23.8558 93.85 26.3998C93.85 28.9438 93.262 31.1638 92.086 33.0598C90.91 34.9558 89.254 36.4198 87.118 37.4518C84.982 38.4838 82.534 38.9998 79.774 38.9998H67.858V13.7998ZM79.486 33.3118C81.646 33.3118 83.374 32.6998 84.67 31.4758C85.99 30.2518 86.65 28.5598 86.65 26.3998C86.65 24.2398 85.99 22.5478 84.67 21.3238C83.374 20.0998 81.646 19.4878 79.486 19.4878H74.986V33.3118H79.486Z"
          fill="#28376E"/>
    <path d="M115.441 19.4518H107.701V13.7998H130.273V19.4518H122.569V38.9998H115.441V19.4518Z" fill="#28376E"/>
    <path d="M97.5195 13.7998H104.648V38.9998H97.5195V13.7998Z" fill="#FFC107"/>
</svg>
