<svg width="230" height="132" viewBox="0 0 230 132" fill="none" xmlns="http://www.w3.org/2000/svg">
    <path d="M171.716 59L174 56.0186L171.716 53H137V59H171.716Z" fill="#FFC107"/>
    <path d="M210.862 4.71196V120.74C210.862 122.776 209.223 124.408 207.163 124.408H22.838C20.8026 124.408 19.1382 122.774 19.1382 120.74V4.71196C19.1382 2.4024 21.0262 0.5 23.387 0.5H206.614C208.951 0.5 210.862 2.37891 210.862 4.71196Z"
          stroke="#2C3A6F"/>
    <path d="M224.557 130.406L224.557 130.406L224.561 130.405L228.015 129.143C228.913 128.805 229.5 127.951 229.5 126.976V125.802H0.518417C0.521225 125.853 0.523972 125.909 0.526276 125.969L0.526642 125.978V125.988V127.772C0.526642 128.26 0.818298 128.699 1.27232 128.869L1.27768 128.871L5.44421 130.489C5.44485 130.49 5.4455 130.49 5.44614 130.49C7.20085 131.155 9.06076 131.5 10.919 131.5H218.559C220.611 131.5 222.636 131.127 224.557 130.406Z"
          stroke="#2C3A6F"/>
    <path d="M27.4658 117.315V8.77448H203.328V117.315H27.4658Z" stroke="#2C3A6F"/>
    <path d="M179.724 71L182 68L179.724 65H137V71H179.724Z" fill="#E9E9E9"/>
    <path d="M171.688 83L174 80L171.688 77H137V83H171.688Z" fill="#E9E9E9"/>
    <path d="M57.5926 47.0056C52.3608 52.038 49.0693 59.2657 49 67H77V39C69.0657 38.9324 62.859 42.007 57.5926 47.0056Z"
          fill="#E9E9E9"/>
    <path d="M89.7091 54.4531C87.0279 51.7344 83.148 50.0469 79 50V65H93.999C94.0463 60.9063 92.406 57.1719 89.7091 54.4531Z"
          fill="#E9E9E9"/>
    <path d="M77 67V90.9986C83.5614 91.0694 89.5263 88.4501 93.8772 84.1317C98.2281 79.8134 100.93 73.6545 101 67H77Z"
          fill="#E9E9E9"/>
    <path d="M77 67L57.0012 67C56.9422 72.4678 59.1249 77.4386 62.7235 81.0643C66.3222 84.6901 71.4546 86.9415 77 87L77 67Z"
          fill="#FFC107"/>
</svg>
