<svg width="230" height="132" viewBox="0 0 230 132" fill="none" xmlns="http://www.w3.org/2000/svg">
    <path d="M210.862 4.71196V120.74C210.862 122.776 209.223 124.408 207.163 124.408H22.838C20.8025 124.408 19.1382 122.774 19.1382 120.74V4.71196C19.1382 2.4024 21.0262 0.5 23.387 0.5H206.614C208.951 0.5 210.862 2.37891 210.862 4.71196Z"
          stroke="#E9E9E9"/>
    <path d="M224.557 130.406L224.557 130.406L224.561 130.405L228.015 129.143C228.913 128.805 229.5 127.951 229.5 126.976V125.802H0.518433C0.52124 125.853 0.523987 125.909 0.526276 125.969L0.526642 125.978V125.988V127.772C0.526642 128.26 0.818298 128.699 1.27232 128.869L1.27768 128.871L5.44421 130.489C5.44485 130.49 5.4455 130.49 5.44614 130.49C7.20085 131.155 9.06076 131.5 10.919 131.5H218.559C220.611 131.5 222.636 131.127 224.557 130.406Z"
          stroke="#E9E9E9"/>
    <path d="M27.4658 8.77451H203.328V117.315H27.4658V8.77451Z" stroke="#E9E9E9"/>
    <path d="M27.4668 8.77451H203.329V117.315H27.4668V8.77451Z" stroke="#E9E9E9"/>
    <rect x="58.0078" y="26.3027" width="8.78981" height="2.18785" rx="1.09392" fill="#E9E9E9"/>
    <rect x="68.2627" y="26.3027" width="12.4522" height="2.18785" rx="1.09392" fill="#E9E9E9"/>
    <rect x="82.9121" y="26.3027" width="32.9618" height="2.18785" rx="1.09392" fill="#E9E9E9"/>
    <rect x="58.0078" y="22.6562" width="57.8662" height="2.18785" rx="1.09392" fill="#E9E9E9"/>
    <rect x="119.537" y="22.6562" width="11.7197" height="2.18785" rx="1.09392" fill="#E9E9E9"/>
    <rect x="137.115" y="22.6562" width="11.7197" height="2.18785" rx="1.09392" fill="#E9E9E9"/>
    <rect width="23.0888" height="2.18785" rx="1.09392"
          transform="matrix(0.999942 -0.0108124 0.0109075 0.999941 158.357 22.72)" fill="#E9E9E9"/>
    <rect x="58.0078" y="45.264" width="8.78981" height="2.18785" rx="1.09392" fill="#E9E9E9"/>
    <rect x="68.2627" y="45.264" width="12.4522" height="2.18785" rx="1.09392" fill="#E9E9E9"/>
    <rect x="82.9121" y="45.264" width="32.9618" height="2.18785" rx="1.09392" fill="#E9E9E9"/>
    <rect x="119.537" y="41.804" width="11.7197" height="2.18785" rx="1.09392" fill="#E9E9E9"/>
    <rect x="137.115" y="41.804" width="11.7197" height="2.18785" rx="1.09392" fill="#E9E9E9"/>
    <rect width="23.0888" height="2.18785" rx="1.09392"
          transform="matrix(0.999942 -0.0108124 0.0109075 0.999941 158.357 41.8673)" fill="#E9E9E9"/>
    <rect x="58.0078" y="41.6175" width="57.8662" height="2.18785" rx="1.09392" fill="#E9E9E9"/>
    <rect x="58.0078" y="64.2254" width="8.78981" height="2.18785" rx="1.09392" fill="#E9E9E9"/>
    <rect x="68.2627" y="64.2254" width="12.4522" height="2.18785" rx="1.09392" fill="#E9E9E9"/>
    <rect x="82.9121" y="64.2254" width="32.9618" height="2.18785" rx="1.09392" fill="#E9E9E9"/>
    <rect x="119.537" y="60.7654" width="11.7197" height="2.18785" rx="1.09392" fill="#E9E9E9"/>
    <rect x="137.115" y="60.7654" width="11.7197" height="2.18785" rx="1.09392" fill="#E9E9E9"/>
    <rect width="23.0888" height="2.18785" rx="1.09392"
          transform="matrix(0.999942 -0.0108124 0.0109075 0.999941 158.357 60.8287)" fill="#E9E9E9"/>
    <rect x="58.0078" y="60.5789" width="57.8662" height="2.18785" rx="1.09392" fill="#E9E9E9"/>
    <rect x="58.0078" y="83.1867" width="8.78981" height="2.18785" rx="1.09392" fill="#E9E9E9"/>
    <rect x="68.2627" y="83.1867" width="12.4522" height="2.18785" rx="1.09392" fill="#E9E9E9"/>
    <rect x="82.9121" y="83.1867" width="32.9618" height="2.18785" rx="1.09392" fill="#E9E9E9"/>
    <rect x="119.537" y="79.7267" width="11.7197" height="2.18785" rx="1.09392" fill="#E9E9E9"/>
    <rect x="137.115" y="79.7267" width="11.7197" height="2.18785" rx="1.09392" fill="#E9E9E9"/>
    <rect width="23.0888" height="2.18785" rx="1.09392"
          transform="matrix(0.999942 -0.0108124 0.0109075 0.999941 158.357 79.79)" fill="#E9E9E9"/>
    <rect x="58.0078" y="79.5402" width="57.8662" height="2.18785" rx="1.09392" fill="#E9E9E9"/>
    <rect x="58.0078" y="102.878" width="8.78981" height="2.18785" rx="1.09392" fill="#E9E9E9"/>
    <rect x="68.2627" y="102.878" width="12.4522" height="2.18785" rx="1.09392" fill="#E9E9E9"/>
    <rect x="82.9121" y="102.878" width="32.9618" height="2.18785" rx="1.09392" fill="#E9E9E9"/>
    <rect x="119.537" y="99.4173" width="11.7197" height="2.18785" rx="1.09392" fill="#E9E9E9"/>
    <rect x="137.115" y="99.4173" width="11.7197" height="2.18785" rx="1.09392" fill="#E9E9E9"/>
    <rect width="23.0888" height="2.18785" rx="1.09392"
          transform="matrix(0.999942 -0.0108124 0.0109075 0.999941 158.357 99.4806)" fill="#E9E9E9"/>
    <rect x="58.0078" y="99.2312" width="57.8662" height="2.18785" rx="1.09392" fill="#E9E9E9"/>
    <path fill-rule="evenodd" clip-rule="evenodd"
          d="M50.4385 27.0809L50.0479 26.692C49.6572 26.303 49.0712 26.303 48.6806 26.692L48.4852 26.8865C48.3388 27.0323 48.0946 27.0809 47.8993 26.9837C47.2644 26.692 46.6785 26.303 46.1413 25.7682C45.6041 25.2334 45.2135 24.65 44.9205 24.018C44.8228 23.8235 44.8717 23.5804 45.0182 23.3859L45.2135 23.1914C45.6041 22.8025 45.6041 22.2191 45.2135 21.8301L44.8228 21.4412C44.4322 21.0522 43.8462 21.0522 43.4555 21.4412L43.1137 21.7815C42.7719 22.1218 42.5765 22.6566 42.723 23.1914C42.9672 24.4555 43.6997 25.8655 44.9205 27.0323C46.0925 28.1992 47.5086 28.9771 48.7782 29.2202C49.3154 29.3174 49.8037 29.1716 50.1944 28.7826L50.5362 28.4423C50.7804 28.1019 50.7804 27.4699 50.4385 27.0809Z"
          fill="#5AAD44"/>
    <path fill-rule="evenodd" clip-rule="evenodd"
          d="M50.4385 46.0423L50.0479 45.6533C49.6572 45.2644 49.0712 45.2644 48.6806 45.6533L48.4853 45.8478C48.3388 45.9937 48.0946 46.0423 47.8993 45.945C47.2644 45.6533 46.6785 45.2644 46.1413 44.7296C45.6041 44.1948 45.2135 43.6113 44.9205 42.9793C44.8228 42.7848 44.8717 42.5417 45.0182 42.3472L45.2135 42.1528C45.6041 41.7638 45.6041 41.1804 45.2135 40.7914L44.8228 40.4025C44.4322 40.0135 43.8462 40.0135 43.4555 40.4025L43.1137 40.7428C42.7719 41.0832 42.5765 41.618 42.723 42.1528C42.9672 43.4169 43.6997 44.8268 44.9205 45.9937C46.0925 47.1605 47.5086 47.9384 48.7782 48.1815C49.3154 48.2787 49.8037 48.1329 50.1944 47.7439L50.5362 47.4036C50.7804 47.0633 50.7804 46.4312 50.4385 46.0423Z"
          fill="#5AAD44"/>
    <path fill-rule="evenodd" clip-rule="evenodd"
          d="M50.4385 65.0036L50.0479 64.6147C49.6572 64.2257 49.0712 64.2257 48.6806 64.6147L48.4853 64.8091C48.3388 64.955 48.0946 65.0036 47.8993 64.9064C47.2644 64.6147 46.6785 64.2257 46.1413 63.6909C45.6041 63.1561 45.2135 62.5727 44.9205 61.9406C44.8228 61.7462 44.8717 61.5031 45.0182 61.3086L45.2135 61.1141C45.6041 60.7252 45.6041 60.1417 45.2135 59.7528L44.8228 59.3638C44.4322 58.9749 43.8462 58.9749 43.4555 59.3638L43.1137 59.7042C42.7719 60.0445 42.5765 60.5793 42.723 61.1141C42.9672 62.3782 43.6997 63.7881 44.9205 64.955C46.0925 66.1218 47.5086 66.8997 48.7782 67.1428C49.3154 67.2401 49.8037 67.0942 50.1944 66.7053L50.5362 66.3649C50.7804 66.0246 50.7804 65.3926 50.4385 65.0036Z"
          fill="#FFC107"/>
    <path fill-rule="evenodd" clip-rule="evenodd"
          d="M50.4385 84.6942L50.0479 84.3052C49.6572 83.9163 49.0712 83.9163 48.6806 84.3052L48.4853 84.4997C48.3388 84.6455 48.0946 84.6942 47.8993 84.5969C47.2644 84.3052 46.6785 83.9163 46.1413 83.3815C45.6041 82.8466 45.2135 82.2632 44.9205 81.6312C44.8228 81.4367 44.8717 81.1936 45.0182 80.9991L45.2135 80.8047C45.6041 80.4157 45.6041 79.8323 45.2135 79.4433L44.8228 79.0544C44.4322 78.6654 43.8462 78.6654 43.4555 79.0544L43.1137 79.3947C42.7719 79.735 42.5765 80.2698 42.723 80.8047C42.9672 82.0687 43.6997 83.4787 44.9205 84.6455C46.0925 85.8124 47.5086 86.5903 48.7782 86.8334C49.3154 86.9306 49.8037 86.7848 50.1944 86.3958L50.5362 86.0555C50.7804 85.7152 50.7804 85.0831 50.4385 84.6942Z"
          fill="#FF4444"/>
    <path fill-rule="evenodd" clip-rule="evenodd"
          d="M50.4385 103.655L50.0479 103.267C49.6572 102.878 49.0712 102.878 48.6806 103.267L48.4853 103.461C48.3388 103.607 48.0946 103.655 47.8993 103.558C47.2644 103.267 46.6785 102.878 46.1413 102.343C45.6041 101.808 45.2135 101.225 44.9205 100.593C44.8228 100.398 44.8717 100.155 45.0182 99.9605L45.2135 99.766C45.6041 99.377 45.6041 98.7936 45.2135 98.4047L44.8228 98.0157C44.4322 97.6268 43.8462 97.6268 43.4555 98.0157L43.1137 98.356C42.7719 98.6964 42.5765 99.2312 42.723 99.766C42.9672 101.03 43.6997 102.44 44.9205 103.607C46.0925 104.774 47.5086 105.552 48.7782 105.795C49.3154 105.892 49.8037 105.746 50.1944 105.357L50.5362 105.017C50.7804 104.676 50.7804 104.044 50.4385 103.655Z"
          fill="#5AAD44"/>
</svg>
