<svg width="230" height="132" viewBox="0 0 230 132" fill="none" xmlns="http://www.w3.org/2000/svg">
    <path d="M210.864 4.71197V120.741C210.864 122.776 209.225 124.408 207.164 124.408H22.8394C20.804 124.408 19.1396 122.774 19.1396 120.741V4.71197C19.1396 2.4024 21.0276 0.5 23.3884 0.5H206.615C208.952 0.5 210.864 2.37891 210.864 4.71197Z"
          stroke="#E9E9E9"/>
    <path d="M224.557 130.406L224.557 130.406L224.561 130.405L228.015 129.143C228.913 128.805 229.5 127.951 229.5 126.976V125.802H0.518433C0.52124 125.853 0.523987 125.909 0.526276 125.969L0.526642 125.978V125.988V127.772C0.526642 128.261 0.818298 128.699 1.27232 128.869L1.27768 128.871L5.44421 130.489C5.44485 130.49 5.4455 130.49 5.44614 130.49C7.20085 131.155 9.06076 131.5 10.919 131.5H218.559C220.611 131.5 222.636 131.127 224.557 130.406Z"
          stroke="#E9E9E9"/>
    <path d="M27.4668 8.77469H203.329V117.315H27.4668V8.77469Z" stroke="#E9E9E9"/>
    <path d="M27.4668 8.77469H203.329V117.315H27.4668V8.77469Z" stroke="#E9E9E9"/>
    <rect x="58.0078" y="27.7127" width="8.78981" height="1.97935" rx="0.989676" fill="#E9E9E9"/>
    <rect x="68.2617" y="27.7127" width="12.4522" height="1.97935" rx="0.989676" fill="#E9E9E9"/>
    <rect x="82.9111" y="27.7127" width="32.9618" height="1.97935" rx="0.989676" fill="#E9E9E9"/>
    <rect x="58.0078" y="24.0662" width="57.8662" height="1.97935" rx="0.989676" fill="#E9E9E9"/>
    <rect x="119.536" y="24.0662" width="11.7197" height="1.97935" rx="0.989676" fill="#E9E9E9"/>
    <rect x="137.115" y="24.0662" width="11.7197" height="1.97935" rx="0.989676" fill="#E9E9E9"/>
    <rect width="23.0888" height="1.97935" rx="0.989676"
          transform="matrix(0.999942 -0.0108124 0.0109075 0.999941 158.357 24.1299)" fill="#E9E9E9"/>
    <path d="M48.4849 21.1494C45.2509 21.1494 42.625 23.7638 42.625 26.9836C42.625 30.2035 45.2509 32.8179 48.4849 32.8179C51.7189 32.8179 54.3447 30.2035 54.3447 26.9836C54.3447 23.7729 51.7096 21.1494 48.4849 21.1494ZM47.6188 28.4789C47.8399 28.6899 48.1071 28.91 48.4112 28.9559C48.4204 28.9651 48.4296 28.9651 48.448 28.9651C48.4572 28.9651 48.4664 28.9651 48.4849 28.9651C48.4941 28.9651 48.5033 28.9651 48.5217 28.9651C48.5402 28.9651 48.5494 28.9651 48.5586 28.9559C48.8626 28.91 49.1298 28.6991 49.351 28.4789C49.3602 28.8091 49.4155 29.1394 49.4155 29.4696C49.4062 29.9283 48.964 30.3319 48.4941 30.3503C48.0242 30.3319 47.5727 29.9283 47.5727 29.4696C47.5543 29.1394 47.6096 28.8091 47.6188 28.4789ZM46.8356 27.1579C46.6421 26.8002 46.6421 26.4607 46.6698 26.0663C46.6882 25.6902 46.7066 25.3232 46.7343 24.9563C46.7896 24.9563 46.8541 24.9471 46.9186 24.9288C47.0107 24.8921 47.0568 24.8187 47.0752 24.7361C47.1765 24.8004 47.3147 24.8187 47.4253 24.7728C47.4529 24.7637 47.4714 24.7361 47.4898 24.6995C47.6556 24.9747 47.9597 25.0939 48.3006 25.0664C48.4757 25.0572 48.6968 24.8829 48.8258 24.6903C48.8626 24.7453 48.9271 24.7912 49.0101 24.8279C49.139 24.8829 49.268 24.8646 49.3786 24.8095C49.4247 24.8829 49.4984 24.9471 49.5997 25.0022C49.8301 25.1123 50.0236 25.1123 50.2263 25.0205C50.2539 25.3691 50.2631 25.7177 50.2815 26.0755C50.3 26.4699 50.3092 26.8093 50.1157 27.1671C49.9038 27.5524 49.7103 27.9285 49.3786 28.2312C49.1206 28.4697 48.8442 28.7908 48.4664 28.8183C48.0979 28.7908 47.8123 28.4697 47.5543 28.2312C47.241 27.9193 47.0475 27.5524 46.8356 27.1579ZM52.3915 30.9282C52.2348 30.653 52.0782 30.3686 51.9492 30.0842C51.7557 29.6531 51.3503 29.6347 50.9265 29.5155C50.4566 29.3779 49.9959 29.1944 49.5352 29.0476C49.5352 29.0476 49.5352 29.0476 49.526 29.0476C49.4984 28.8091 49.4799 28.5798 49.4892 28.3413V28.3321C49.7564 28.0569 49.9775 27.7817 50.1525 27.4331C50.2355 27.2588 50.3368 27.0937 50.4013 26.9194C50.4013 26.9102 50.4013 26.9102 50.4013 26.9011C50.7975 26.9745 50.6869 26.2864 50.7791 26.0755C50.8251 25.9654 50.8436 25.8736 50.8344 25.7911C51.2766 25.8553 51.4425 25.1306 51.1292 24.8921C51.2766 24.782 51.3872 24.571 51.3687 24.4151C51.3319 24.0665 51.2029 23.8188 50.862 23.6812C50.9173 23.6078 50.9357 23.5161 50.8988 23.4152C50.8436 23.2592 50.7054 23.1675 50.5579 23.1675C50.5948 22.984 50.5672 22.7822 50.4842 22.6813C50.3 22.4703 49.9498 22.3052 49.6826 22.4245C49.6642 22.3602 49.6366 22.3052 49.5997 22.2685C49.526 22.1951 49.4062 22.1951 49.3049 22.241C49.2588 22.1126 49.1667 22.0025 49.0377 21.9658C48.9548 21.9474 48.8534 21.9566 48.7613 21.9841C48.6323 21.8832 48.4296 21.9199 48.3006 22.0208C48.19 21.9566 48.0518 21.9291 47.9505 21.9658C47.8215 22.0025 47.7201 22.1126 47.6833 22.241C47.5819 22.2043 47.4622 22.1951 47.3885 22.2685C47.3516 22.3052 47.324 22.3602 47.3055 22.4245C47.0383 22.296 46.679 22.4611 46.5039 22.6813C46.421 22.7822 46.3934 22.984 46.4302 23.1675C46.2736 23.1675 46.1354 23.2592 46.0893 23.4152C46.0525 23.5161 46.0801 23.6078 46.1262 23.6812C45.7853 23.8096 45.6563 24.0573 45.6194 24.4151C45.601 24.571 45.7116 24.782 45.859 24.8921C45.5365 25.1306 45.7024 25.8553 46.1538 25.7911C46.1446 25.8736 46.163 25.9746 46.2091 26.0755C46.3012 26.2773 46.1999 26.9561 46.5777 26.9011V26.9102C46.6421 27.0937 46.7435 27.2588 46.8264 27.424C47.0107 27.7817 47.2318 28.0477 47.4898 28.3229V28.3321C47.499 28.5706 47.4806 28.8 47.4529 29.0385H47.4437C46.9738 29.1761 46.5224 29.3687 46.0525 29.5063C45.6286 29.6256 45.2232 29.6439 45.0298 30.0751C44.9008 30.3594 44.7441 30.6438 44.5875 30.919C43.5648 29.9099 42.9383 28.5156 42.9383 26.9836C42.9383 23.9289 45.4352 21.4429 48.5033 21.4429C51.5714 21.4429 54.0683 23.9289 54.0683 26.9836C54.0499 28.5248 53.4142 29.9191 52.3915 30.9282ZM50.4474 26.2681C50.4382 26.0663 50.429 25.8645 50.4197 25.6627C50.6869 25.6168 50.7054 25.892 50.6224 26.0846C50.604 26.1213 50.5948 26.158 50.5856 26.2039C50.5764 26.2865 50.5948 26.7543 50.4382 26.7635C50.4658 26.5983 50.4566 26.4332 50.4474 26.2681ZM46.5224 26.7543C46.375 26.7268 46.3934 26.2865 46.3842 26.2039C46.3842 26.1672 46.3657 26.1213 46.3473 26.0846C46.2644 25.9012 46.2828 25.626 46.5408 25.6627C46.5316 25.8645 46.5224 26.0663 46.5132 26.2681C46.5039 26.4332 46.4947 26.5892 46.5224 26.7543Z"
          fill="#E9E9E9"/>
    <path d="M48.8621 27.9378C48.9266 27.9103 48.9911 27.8827 49.0188 27.8369C49.0464 27.791 49.0648 27.7543 49.074 27.7084C49.0833 27.6993 49.0833 27.6901 49.0833 27.6809C49.0925 27.6718 49.1017 27.6626 49.1017 27.6442C49.1017 27.58 49.0833 27.5066 48.9911 27.4791C48.9082 27.4516 48.8345 27.4241 48.7331 27.4241C48.6226 27.4241 48.5397 27.4699 48.4752 27.525C48.4199 27.4699 48.337 27.4241 48.2172 27.4241C48.1158 27.4241 48.0421 27.4424 47.9592 27.4791C47.8671 27.5158 47.8486 27.5892 47.8486 27.6442C47.8486 27.6626 47.8578 27.6718 47.8671 27.6809C47.8671 27.6901 47.8671 27.6993 47.8763 27.7084C47.8855 27.7543 47.9039 27.8002 47.9316 27.8369C47.9592 27.8827 48.0237 27.9103 48.0882 27.9378C48.1895 27.9745 48.3462 27.9928 48.4659 27.9745C48.5949 27.9928 48.7608 27.9745 48.8621 27.9378Z"
          fill="#E9E9E9"/>
    <ellipse cx="52.8801" cy="22.608" rx="1.46497" ry="1.45857" fill="#5AAD44"/>
    <rect x="58.0078" y="46.1499" width="8.78981" height="1.97935" rx="0.989676" fill="#E9E9E9"/>
    <rect x="68.2617" y="46.1499" width="12.4522" height="1.97935" rx="0.989676" fill="#E9E9E9"/>
    <rect x="82.9111" y="46.1499" width="32.9618" height="1.97935" rx="0.989676" fill="#E9E9E9"/>
    <rect x="58.0078" y="42.5034" width="57.8662" height="1.97935" rx="0.989676" fill="#E9E9E9"/>
    <rect x="119.536" y="42.5034" width="11.7197" height="1.97935" rx="0.989676" fill="#E9E9E9"/>
    <rect x="137.115" y="42.5034" width="11.7197" height="1.97935" rx="0.989676" fill="#E9E9E9"/>
    <rect width="23.0888" height="1.97935" rx="0.989676"
          transform="matrix(0.999942 -0.0108124 0.0109075 0.999941 158.357 42.5677)" fill="#E9E9E9"/>
    <path d="M48.4849 39.5867C45.2509 39.5867 42.625 42.2011 42.625 45.421C42.625 48.6408 45.2509 51.2552 48.4849 51.2552C51.7189 51.2552 54.3447 48.6408 54.3447 45.421C54.3447 42.2103 51.7096 39.5867 48.4849 39.5867ZM47.6188 46.9162C47.8399 47.1272 48.1071 47.3474 48.4112 47.3933C48.4204 47.4024 48.4296 47.4024 48.448 47.4024C48.4572 47.4024 48.4664 47.4024 48.4849 47.4024C48.4941 47.4024 48.5033 47.4024 48.5217 47.4024C48.5402 47.4024 48.5494 47.4024 48.5586 47.3933C48.8626 47.3474 49.1298 47.1364 49.351 46.9162C49.3602 47.2465 49.4155 47.5767 49.4155 47.907C49.4062 48.3656 48.964 48.7693 48.4941 48.7876C48.0242 48.7693 47.5727 48.3656 47.5727 47.907C47.5543 47.5767 47.6096 47.2465 47.6188 46.9162ZM46.8356 45.5953C46.6421 45.2375 46.6421 44.8981 46.6698 44.5036C46.6882 44.1275 46.7066 43.7606 46.7343 43.3937C46.7896 43.3937 46.8541 43.3845 46.9186 43.3661C47.0107 43.3294 47.0568 43.2561 47.0752 43.1735C47.1765 43.2377 47.3147 43.2561 47.4253 43.2102C47.4529 43.201 47.4714 43.1735 47.4898 43.1368C47.6556 43.412 47.9597 43.5313 48.3006 43.5037C48.4757 43.4946 48.6968 43.3203 48.8258 43.1276C48.8626 43.1827 48.9271 43.2285 49.0101 43.2652C49.139 43.3203 49.268 43.3019 49.3786 43.2469C49.4247 43.3203 49.4984 43.3845 49.5997 43.4395C49.8301 43.5496 50.0236 43.5496 50.2263 43.4579C50.2539 43.8065 50.2631 44.155 50.2815 44.5128C50.3 44.9073 50.3092 45.2467 50.1157 45.6044C49.9038 45.9897 49.7103 46.3658 49.3786 46.6686C49.1206 46.9071 48.8442 47.2281 48.4664 47.2557C48.0979 47.2281 47.8123 46.9071 47.5543 46.6686C47.241 46.3567 47.0475 45.9897 46.8356 45.5953ZM52.3915 49.3655C52.2348 49.0903 52.0782 48.806 51.9492 48.5216C51.7557 48.0904 51.3503 48.0721 50.9265 47.9528C50.4566 47.8152 49.9959 47.6318 49.5352 47.485C49.5352 47.485 49.5352 47.485 49.526 47.485C49.4984 47.2465 49.4799 47.0171 49.4892 46.7786V46.7695C49.7564 46.4943 49.9775 46.2191 50.1525 45.8705C50.2355 45.6962 50.3368 45.5311 50.4013 45.3568C50.4013 45.3476 50.4013 45.3476 50.4013 45.3384C50.7975 45.4118 50.6869 44.7238 50.7791 44.5128C50.8251 44.4027 50.8436 44.311 50.8344 44.2284C51.2766 44.2926 51.4425 43.568 51.1292 43.3294C51.2766 43.2194 51.3872 43.0084 51.3687 42.8524C51.3319 42.5038 51.2029 42.2562 50.862 42.1186C50.9173 42.0452 50.9357 41.9534 50.8988 41.8525C50.8436 41.6966 50.7054 41.6048 50.5579 41.6048C50.5948 41.4214 50.5672 41.2196 50.4842 41.1187C50.3 40.9077 49.9498 40.7425 49.6826 40.8618C49.6642 40.7976 49.6366 40.7425 49.5997 40.7059C49.526 40.6325 49.4062 40.6325 49.3049 40.6783C49.2588 40.5499 49.1667 40.4398 49.0377 40.4031C48.9548 40.3848 48.8534 40.394 48.7613 40.4215C48.6323 40.3206 48.4296 40.3573 48.3006 40.4582C48.19 40.394 48.0518 40.3664 47.9505 40.4031C47.8215 40.4398 47.7201 40.5499 47.6833 40.6783C47.5819 40.6416 47.4622 40.6325 47.3885 40.7059C47.3516 40.7425 47.324 40.7976 47.3055 40.8618C47.0383 40.7334 46.679 40.8985 46.5039 41.1187C46.421 41.2196 46.3934 41.4214 46.4302 41.6048C46.2736 41.6048 46.1354 41.6966 46.0893 41.8525C46.0525 41.9534 46.0801 42.0452 46.1262 42.1186C45.7853 42.247 45.6563 42.4947 45.6194 42.8524C45.601 43.0084 45.7116 43.2194 45.859 43.3294C45.5365 43.568 45.7024 44.2926 46.1538 44.2284C46.1446 44.311 46.163 44.4119 46.2091 44.5128C46.3012 44.7146 46.1999 45.3935 46.5777 45.3384V45.3476C46.6421 45.5311 46.7435 45.6962 46.8264 45.8613C47.0107 46.2191 47.2318 46.4851 47.4898 46.7603V46.7695C47.499 47.008 47.4806 47.2373 47.4529 47.4758H47.4437C46.9738 47.6134 46.5224 47.8061 46.0525 47.9437C45.6286 48.0629 45.2232 48.0813 45.0298 48.5124C44.9008 48.7968 44.7441 49.0812 44.5875 49.3564C43.5648 48.3473 42.9383 46.9529 42.9383 45.421C42.9383 42.3662 45.4352 39.8802 48.5033 39.8802C51.5714 39.8802 54.0683 42.3662 54.0683 45.421C54.0499 46.9621 53.4142 48.3565 52.3915 49.3655ZM50.4474 44.7055C50.4382 44.5036 50.429 44.3018 50.4197 44.1C50.6869 44.0541 50.7054 44.3293 50.6224 44.522C50.604 44.5587 50.5948 44.5954 50.5856 44.6412C50.5764 44.7238 50.5948 45.1916 50.4382 45.2008C50.4658 45.0357 50.4566 44.8706 50.4474 44.7055ZM46.5224 45.1916C46.375 45.1641 46.3934 44.7238 46.3842 44.6412C46.3842 44.6045 46.3657 44.5587 46.3473 44.522C46.2644 44.3385 46.2828 44.0633 46.5408 44.1C46.5316 44.3018 46.5224 44.5036 46.5132 44.7055C46.5039 44.8706 46.4947 45.0265 46.5224 45.1916Z"
          fill="#E9E9E9"/>
    <path d="M48.8621 46.3745C48.9266 46.347 48.9911 46.3194 49.0188 46.2736C49.0464 46.2277 49.0648 46.191 49.074 46.1452C49.0833 46.136 49.0833 46.1268 49.0833 46.1176C49.0925 46.1085 49.1017 46.0993 49.1017 46.0809C49.1017 46.0167 49.0833 45.9433 48.9911 45.9158C48.9082 45.8883 48.8345 45.8608 48.7331 45.8608C48.6226 45.8608 48.5397 45.9066 48.4752 45.9617C48.4199 45.9066 48.337 45.8608 48.2172 45.8608C48.1158 45.8608 48.0421 45.8791 47.9592 45.9158C47.8671 45.9525 47.8486 46.0259 47.8486 46.0809C47.8486 46.0993 47.8578 46.1085 47.8671 46.1176C47.8671 46.1268 47.8671 46.136 47.8763 46.1452C47.8855 46.191 47.9039 46.2369 47.9316 46.2736C47.9592 46.3194 48.0237 46.347 48.0882 46.3745C48.1895 46.4112 48.3462 46.4295 48.4659 46.4112C48.5949 46.4295 48.7608 46.4112 48.8621 46.3745Z"
          fill="#E9E9E9"/>
    <ellipse cx="52.8801" cy="41.0455" rx="1.46497" ry="1.45857" fill="#5AAD44"/>
    <rect x="58.0078" y="64.9544" width="8.78981" height="1.97935" rx="0.989676" fill="#E9E9E9"/>
    <rect x="68.2617" y="64.9544" width="12.4522" height="1.97935" rx="0.989676" fill="#E9E9E9"/>
    <rect x="82.9111" y="64.9544" width="32.9618" height="1.97935" rx="0.989676" fill="#E9E9E9"/>
    <rect x="58.0078" y="61.3074" width="57.8662" height="1.97935" rx="0.989676" fill="#E9E9E9"/>
    <rect x="119.536" y="61.3074" width="11.7197" height="1.97935" rx="0.989676" fill="#E9E9E9"/>
    <rect x="137.115" y="61.3074" width="11.7197" height="1.97935" rx="0.989676" fill="#E9E9E9"/>
    <rect width="23.0888" height="1.97935" rx="0.989676"
          transform="matrix(0.999942 -0.0108124 0.0109075 0.999941 158.357 61.3716)" fill="#E9E9E9"/>
    <path d="M48.4849 58.3906C45.2509 58.3906 42.625 61.005 42.625 64.2248C42.625 67.4447 45.2509 70.0591 48.4849 70.0591C51.7189 70.0591 54.3447 67.4447 54.3447 64.2248C54.3447 61.0142 51.7096 58.3906 48.4849 58.3906ZM47.6188 65.7201C47.8399 65.9311 48.1071 66.1513 48.4112 66.1971C48.4204 66.2063 48.4296 66.2063 48.448 66.2063C48.4572 66.2063 48.4664 66.2063 48.4849 66.2063C48.4941 66.2063 48.5033 66.2063 48.5217 66.2063C48.5402 66.2063 48.5494 66.2063 48.5586 66.1971C48.8626 66.1513 49.1298 65.9403 49.351 65.7201C49.3602 66.0503 49.4155 66.3806 49.4155 66.7108C49.4062 67.1695 48.964 67.5731 48.4941 67.5915C48.0242 67.5731 47.5727 67.1695 47.5727 66.7108C47.5543 66.3806 47.6096 66.0503 47.6188 65.7201ZM46.8356 64.3991C46.6421 64.0414 46.6421 63.702 46.6698 63.3075C46.6882 62.9314 46.7066 62.5645 46.7343 62.1975C46.7896 62.1975 46.8541 62.1883 46.9186 62.17C47.0107 62.1333 47.0568 62.0599 47.0752 61.9774C47.1765 62.0416 47.3147 62.0599 47.4253 62.0141C47.4529 62.0049 47.4714 61.9774 47.4898 61.9407C47.6556 62.2159 47.9597 62.3351 48.3006 62.3076C48.4757 62.2984 48.6968 62.1241 48.8258 61.9315C48.8626 61.9865 48.9271 62.0324 49.0101 62.0691C49.139 62.1241 49.268 62.1058 49.3786 62.0507C49.4247 62.1241 49.4984 62.1883 49.5997 62.2434C49.8301 62.3535 50.0236 62.3535 50.2263 62.2617C50.2539 62.6103 50.2631 62.9589 50.2815 63.3167C50.3 63.7111 50.3092 64.0505 50.1157 64.4083C49.9038 64.7936 49.7103 65.1697 49.3786 65.4724C49.1206 65.7109 48.8442 66.032 48.4664 66.0595C48.0979 66.032 47.8123 65.7109 47.5543 65.4724C47.241 65.1605 47.0475 64.7936 46.8356 64.3991ZM52.3915 68.1694C52.2348 67.8942 52.0782 67.6098 51.9492 67.3254C51.7557 66.8943 51.3503 66.8759 50.9265 66.7567C50.4566 66.6191 49.9959 66.4356 49.5352 66.2889C49.5352 66.2889 49.5352 66.2889 49.526 66.2889C49.4984 66.0503 49.4799 65.821 49.4892 65.5825V65.5733C49.7564 65.2981 49.9775 65.0229 50.1525 64.6743C50.2355 64.5 50.3368 64.3349 50.4013 64.1606C50.4013 64.1515 50.4013 64.1515 50.4013 64.1423C50.7975 64.2157 50.6869 63.5277 50.7791 63.3167C50.8251 63.2066 50.8436 63.1149 50.8344 63.0323C51.2766 63.0965 51.4425 62.3718 51.1292 62.1333C51.2766 62.0232 51.3872 61.8122 51.3687 61.6563C51.3319 61.3077 51.2029 61.06 50.862 60.9224C50.9173 60.849 50.9357 60.7573 50.8988 60.6564C50.8436 60.5004 50.7054 60.4087 50.5579 60.4087C50.5948 60.2252 50.5672 60.0234 50.4842 59.9225C50.3 59.7115 49.9498 59.5464 49.6826 59.6657C49.6642 59.6015 49.6366 59.5464 49.5997 59.5097C49.526 59.4363 49.4062 59.4363 49.3049 59.4822C49.2588 59.3538 49.1667 59.2437 49.0377 59.207C48.9548 59.1886 48.8534 59.1978 48.7613 59.2253C48.6323 59.1244 48.4296 59.1611 48.3006 59.262C48.19 59.1978 48.0518 59.1703 47.9505 59.207C47.8215 59.2437 47.7201 59.3538 47.6833 59.4822C47.5819 59.4455 47.4622 59.4363 47.3885 59.5097C47.3516 59.5464 47.324 59.6015 47.3055 59.6657C47.0383 59.5372 46.679 59.7024 46.5039 59.9225C46.421 60.0234 46.3934 60.2252 46.4302 60.4087C46.2736 60.4087 46.1354 60.5004 46.0893 60.6564C46.0525 60.7573 46.0801 60.849 46.1262 60.9224C45.7853 61.0508 45.6563 61.2985 45.6194 61.6563C45.601 61.8122 45.7116 62.0232 45.859 62.1333C45.5365 62.3718 45.7024 63.0965 46.1538 63.0323C46.1446 63.1149 46.163 63.2158 46.2091 63.3167C46.3012 63.5185 46.1999 64.1973 46.5777 64.1423V64.1515C46.6421 64.3349 46.7435 64.5 46.8264 64.6652C47.0107 65.0229 47.2318 65.289 47.4898 65.5642V65.5733C47.499 65.8118 47.4806 66.0412 47.4529 66.2797H47.4437C46.9738 66.4173 46.5224 66.6099 46.0525 66.7475C45.6286 66.8668 45.2232 66.8851 45.0298 67.3163C44.9008 67.6006 44.7441 67.885 44.5875 68.1602C43.5648 67.1512 42.9383 65.7568 42.9383 64.2248C42.9383 61.1701 45.4352 58.6841 48.5033 58.6841C51.5714 58.6841 54.0683 61.1701 54.0683 64.2248C54.0499 65.766 53.4142 67.1603 52.3915 68.1694ZM50.4474 63.5093C50.4382 63.3075 50.429 63.1057 50.4197 62.9039C50.6869 62.858 50.7054 63.1332 50.6224 63.3258C50.604 63.3625 50.5948 63.3992 50.5856 63.4451C50.5764 63.5277 50.5948 63.9955 50.4382 64.0047C50.4658 63.8396 50.4566 63.6744 50.4474 63.5093ZM46.5224 63.9955C46.375 63.968 46.3934 63.5277 46.3842 63.4451C46.3842 63.4084 46.3657 63.3625 46.3473 63.3258C46.2644 63.1424 46.2828 62.8672 46.5408 62.9039C46.5316 63.1057 46.5224 63.3075 46.5132 63.5093C46.5039 63.6744 46.4947 63.8304 46.5224 63.9955Z"
          fill="#E9E9E9"/>
    <path d="M48.8621 65.179C48.9266 65.1515 48.9911 65.124 49.0188 65.0781C49.0464 65.0322 49.0648 64.9955 49.074 64.9497C49.0833 64.9405 49.0833 64.9313 49.0833 64.9221C49.0925 64.913 49.1017 64.9038 49.1017 64.8854C49.1017 64.8212 49.0833 64.7478 48.9911 64.7203C48.9082 64.6928 48.8345 64.6653 48.7331 64.6653C48.6226 64.6653 48.5397 64.7112 48.4752 64.7662C48.4199 64.7112 48.337 64.6653 48.2172 64.6653C48.1158 64.6653 48.0421 64.6836 47.9592 64.7203C47.8671 64.757 47.8486 64.8304 47.8486 64.8854C47.8486 64.9038 47.8578 64.913 47.8671 64.9221C47.8671 64.9313 47.8671 64.9405 47.8763 64.9497C47.8855 64.9955 47.9039 65.0414 47.9316 65.0781C47.9592 65.124 48.0237 65.1515 48.0882 65.179C48.1895 65.2157 48.3462 65.234 48.4659 65.2157C48.5949 65.234 48.7608 65.2157 48.8621 65.179Z"
          fill="#E9E9E9"/>
    <ellipse cx="52.8801" cy="59.8493" rx="1.46497" ry="1.45857" fill="#5AAD44"/>
    <rect x="58.0078" y="84.7472" width="8.78981" height="1.97935" rx="0.989676" fill="#E9E9E9"/>
    <rect x="68.2617" y="84.7472" width="12.4522" height="1.97935" rx="0.989676" fill="#E9E9E9"/>
    <rect x="82.9111" y="84.7472" width="32.9618" height="1.97935" rx="0.989676" fill="#E9E9E9"/>
    <rect x="58.0078" y="81.1007" width="57.8662" height="1.97935" rx="0.989676" fill="#E9E9E9"/>
    <rect x="119.536" y="81.1007" width="11.7197" height="1.97935" rx="0.989676" fill="#E9E9E9"/>
    <rect x="137.115" y="81.1007" width="11.7197" height="1.97935" rx="0.989676" fill="#E9E9E9"/>
    <rect width="23.0888" height="1.97935" rx="0.989676"
          transform="matrix(0.999942 -0.0108124 0.0109075 0.999941 158.357 81.1644)" fill="#E9E9E9"/>
    <path d="M48.4849 78.1841C45.2509 78.1841 42.625 80.7986 42.625 84.0184C42.625 87.2383 45.2509 89.8527 48.4849 89.8527C51.7189 89.8527 54.3447 87.2383 54.3447 84.0184C54.3447 80.8077 51.7096 78.1841 48.4849 78.1841ZM47.6188 85.5137C47.8399 85.7247 48.1071 85.9448 48.4112 85.9907C48.4204 85.9999 48.4296 85.9999 48.448 85.9999C48.4572 85.9999 48.4664 85.9999 48.4849 85.9999C48.4941 85.9999 48.5033 85.9999 48.5217 85.9999C48.5402 85.9999 48.5494 85.9999 48.5586 85.9907C48.8626 85.9448 49.1298 85.7338 49.351 85.5137C49.3602 85.8439 49.4155 86.1742 49.4155 86.5044C49.4062 86.9631 48.964 87.3667 48.4941 87.3851C48.0242 87.3667 47.5727 86.9631 47.5727 86.5044C47.5543 86.1742 47.6096 85.8439 47.6188 85.5137ZM46.8356 84.1927C46.6421 83.835 46.6421 83.4955 46.6698 83.1011C46.6882 82.725 46.7066 82.358 46.7343 81.9911C46.7896 81.9911 46.8541 81.9819 46.9186 81.9636C47.0107 81.9269 47.0568 81.8535 47.0752 81.7709C47.1765 81.8352 47.3147 81.8535 47.4253 81.8076C47.4529 81.7985 47.4714 81.7709 47.4898 81.7342C47.6556 82.0094 47.9597 82.1287 48.3006 82.1012C48.4757 82.092 48.6968 81.9177 48.8258 81.7251C48.8626 81.7801 48.9271 81.826 49.0101 81.8627C49.139 81.9177 49.268 81.8994 49.3786 81.8443C49.4247 81.9177 49.4984 81.9819 49.5997 82.037C49.8301 82.147 50.0236 82.147 50.2263 82.0553C50.2539 82.4039 50.2631 82.7525 50.2815 83.1103C50.3 83.5047 50.3092 83.8441 50.1157 84.2019C49.9038 84.5872 49.7103 84.9633 49.3786 85.266C49.1206 85.5045 48.8442 85.8256 48.4664 85.8531C48.0979 85.8256 47.8123 85.5045 47.5543 85.266C47.241 84.9541 47.0475 84.5872 46.8356 84.1927ZM52.3915 87.963C52.2348 87.6878 52.0782 87.4034 51.9492 87.119C51.7557 86.6879 51.3503 86.6695 50.9265 86.5503C50.4566 86.4127 49.9959 86.2292 49.5352 86.0824C49.5352 86.0824 49.5352 86.0824 49.526 86.0824C49.4984 85.8439 49.4799 85.6146 49.4892 85.3761V85.3669C49.7564 85.0917 49.9775 84.8165 50.1525 84.4679C50.2355 84.2936 50.3368 84.1285 50.4013 83.9542C50.4013 83.945 50.4013 83.945 50.4013 83.9359C50.7975 84.0092 50.6869 83.3212 50.7791 83.1103C50.8251 83.0002 50.8436 82.9084 50.8344 82.8259C51.2766 82.8901 51.4425 82.1654 51.1292 81.9269C51.2766 81.8168 51.3872 81.6058 51.3687 81.4499C51.3319 81.1013 51.2029 80.8536 50.862 80.716C50.9173 80.6426 50.9357 80.5509 50.8988 80.45C50.8436 80.294 50.7054 80.2023 50.5579 80.2023C50.5948 80.0188 50.5672 79.817 50.4842 79.7161C50.3 79.5051 49.9498 79.34 49.6826 79.4592C49.6642 79.395 49.6366 79.34 49.5997 79.3033C49.526 79.2299 49.4062 79.2299 49.3049 79.2758C49.2588 79.1473 49.1667 79.0373 49.0377 79.0006C48.9548 78.9822 48.8534 78.9914 48.7613 79.0189C48.6323 78.918 48.4296 78.9547 48.3006 79.0556C48.19 78.9914 48.0518 78.9639 47.9505 79.0006C47.8215 79.0373 47.7201 79.1473 47.6833 79.2758C47.5819 79.2391 47.4622 79.2299 47.3885 79.3033C47.3516 79.34 47.324 79.395 47.3055 79.4592C47.0383 79.3308 46.679 79.4959 46.5039 79.7161C46.421 79.817 46.3934 80.0188 46.4302 80.2023C46.2736 80.2023 46.1354 80.294 46.0893 80.45C46.0525 80.5509 46.0801 80.6426 46.1262 80.716C45.7853 80.8444 45.6563 81.0921 45.6194 81.4499C45.601 81.6058 45.7116 81.8168 45.859 81.9269C45.5365 82.1654 45.7024 82.8901 46.1538 82.8259C46.1446 82.9084 46.163 83.0093 46.2091 83.1103C46.3012 83.3121 46.1999 83.9909 46.5777 83.9359V83.945C46.6421 84.1285 46.7435 84.2936 46.8264 84.4587C47.0107 84.8165 47.2318 85.0825 47.4898 85.3577V85.3669C47.499 85.6054 47.4806 85.8347 47.4529 86.0733H47.4437C46.9738 86.2109 46.5224 86.4035 46.0525 86.5411C45.6286 86.6604 45.2232 86.6787 45.0298 87.1098C44.9008 87.3942 44.7441 87.6786 44.5875 87.9538C43.5648 86.9447 42.9383 85.5504 42.9383 84.0184C42.9383 80.9637 45.4352 78.4777 48.5033 78.4777C51.5714 78.4777 54.0683 80.9637 54.0683 84.0184C54.0499 85.5595 53.4142 86.9539 52.3915 87.963ZM50.4474 83.3029C50.4382 83.1011 50.429 82.8993 50.4197 82.6974C50.6869 82.6516 50.7054 82.9268 50.6224 83.1194C50.604 83.1561 50.5948 83.1928 50.5856 83.2387C50.5764 83.3212 50.5948 83.7891 50.4382 83.7983C50.4658 83.6331 50.4566 83.468 50.4474 83.3029ZM46.5224 83.7891C46.375 83.7616 46.3934 83.3212 46.3842 83.2387C46.3842 83.202 46.3657 83.1561 46.3473 83.1194C46.2644 82.936 46.2828 82.6608 46.5408 82.6974C46.5316 82.8993 46.5224 83.1011 46.5132 83.3029C46.5039 83.468 46.4947 83.624 46.5224 83.7891Z"
          fill="#E9E9E9"/>
    <path d="M48.8621 84.9725C48.9266 84.9449 48.9911 84.9174 49.0188 84.8715C49.0464 84.8257 49.0648 84.789 49.074 84.7431C49.0833 84.7339 49.0833 84.7248 49.0833 84.7156C49.0925 84.7064 49.1017 84.6972 49.1017 84.6789C49.1017 84.6147 49.0833 84.5413 48.9911 84.5138C48.9082 84.4863 48.8345 84.4587 48.7331 84.4587C48.6226 84.4587 48.5397 84.5046 48.4752 84.5596C48.4199 84.5046 48.337 84.4587 48.2172 84.4587C48.1158 84.4587 48.0421 84.4771 47.9592 84.5138C47.8671 84.5505 47.8486 84.6239 47.8486 84.6789C47.8486 84.6972 47.8578 84.7064 47.8671 84.7156C47.8671 84.7248 47.8671 84.7339 47.8763 84.7431C47.8855 84.789 47.9039 84.8348 47.9316 84.8715C47.9592 84.9174 48.0237 84.9449 48.0882 84.9725C48.1895 85.0091 48.3462 85.0275 48.4659 85.0091C48.5949 85.0275 48.7608 85.0091 48.8621 84.9725Z"
          fill="#E9E9E9"/>
    <ellipse cx="52.8801" cy="79.6425" rx="1.46497" ry="1.45857" fill="#FFC107"/>
    <rect x="58.0078" y="103.551" width="8.78981" height="1.97935" rx="0.989676" fill="#E9E9E9"/>
    <rect x="68.2617" y="103.551" width="12.4522" height="1.97935" rx="0.989676" fill="#E9E9E9"/>
    <rect x="82.9111" y="103.551" width="32.9618" height="1.97935" rx="0.989676" fill="#E9E9E9"/>
    <rect x="58.0078" y="99.9052" width="57.8662" height="1.97935" rx="0.989676" fill="#E9E9E9"/>
    <rect x="119.536" y="99.9052" width="11.7197" height="1.97935" rx="0.989676" fill="#E9E9E9"/>
    <rect x="137.115" y="99.9052" width="11.7197" height="1.97935" rx="0.989676" fill="#E9E9E9"/>
    <rect width="23.0888" height="1.97935" rx="0.989676"
          transform="matrix(0.999942 -0.0108124 0.0109075 0.999941 158.357 99.9689)" fill="#E9E9E9"/>
    <path d="M48.4849 96.9885C45.2509 96.9885 42.625 99.6029 42.625 102.823C42.625 106.043 45.2509 108.657 48.4849 108.657C51.7189 108.657 54.3447 106.043 54.3447 102.823C54.3447 99.6121 51.7096 96.9885 48.4849 96.9885ZM47.6188 104.318C47.8399 104.529 48.1071 104.749 48.4112 104.795C48.4204 104.804 48.4296 104.804 48.448 104.804C48.4572 104.804 48.4664 104.804 48.4849 104.804C48.4941 104.804 48.5033 104.804 48.5217 104.804C48.5402 104.804 48.5494 104.804 48.5586 104.795C48.8626 104.749 49.1298 104.538 49.351 104.318C49.3602 104.648 49.4155 104.978 49.4155 105.309C49.4062 105.767 48.964 106.171 48.4941 106.189C48.0242 106.171 47.5727 105.767 47.5727 105.309C47.5543 104.978 47.6096 104.648 47.6188 104.318ZM46.8356 102.997C46.6421 102.639 46.6421 102.3 46.6698 101.905C46.6882 101.529 46.7066 101.162 46.7343 100.795C46.7896 100.795 46.8541 100.786 46.9186 100.768C47.0107 100.731 47.0568 100.658 47.0752 100.575C47.1765 100.639 47.3147 100.658 47.4253 100.612C47.4529 100.603 47.4714 100.575 47.4898 100.539C47.6556 100.814 47.9597 100.933 48.3006 100.905C48.4757 100.896 48.6968 100.722 48.8258 100.529C48.8626 100.584 48.9271 100.63 49.0101 100.667C49.139 100.722 49.268 100.704 49.3786 100.649C49.4247 100.722 49.4984 100.786 49.5997 100.841C49.8301 100.951 50.0236 100.951 50.2263 100.86C50.2539 101.208 50.2631 101.557 50.2815 101.915C50.3 102.309 50.3092 102.648 50.1157 103.006C49.9038 103.391 49.7103 103.768 49.3786 104.07C49.1206 104.309 48.8442 104.63 48.4664 104.657C48.0979 104.63 47.8123 104.309 47.5543 104.07C47.241 103.758 47.0475 103.391 46.8356 102.997ZM52.3915 106.767C52.2348 106.492 52.0782 106.208 51.9492 105.923C51.7557 105.492 51.3503 105.474 50.9265 105.355C50.4566 105.217 49.9959 105.034 49.5352 104.887C49.5352 104.887 49.5352 104.887 49.526 104.887C49.4984 104.648 49.4799 104.419 49.4892 104.18V104.171C49.7564 103.896 49.9775 103.621 50.1525 103.272C50.2355 103.098 50.3368 102.933 50.4013 102.759C50.4013 102.749 50.4013 102.749 50.4013 102.74C50.7975 102.814 50.6869 102.126 50.7791 101.915C50.8251 101.804 50.8436 101.713 50.8344 101.63C51.2766 101.694 51.4425 100.97 51.1292 100.731C51.2766 100.621 51.3872 100.41 51.3687 100.254C51.3319 99.9056 51.2029 99.6579 50.862 99.5203C50.9173 99.4469 50.9357 99.3552 50.8988 99.2543C50.8436 99.0983 50.7054 99.0066 50.5579 99.0066C50.5948 98.8231 50.5672 98.6213 50.4842 98.5204C50.3 98.3094 49.9498 98.1443 49.6826 98.2636C49.6642 98.1994 49.6366 98.1443 49.5997 98.1076C49.526 98.0342 49.4062 98.0342 49.3049 98.0801C49.2588 97.9517 49.1667 97.8416 49.0377 97.8049C48.9548 97.7865 48.8534 97.7957 48.7613 97.8232C48.6323 97.7223 48.4296 97.759 48.3006 97.8599C48.19 97.7957 48.0518 97.7682 47.9505 97.8049C47.8215 97.8416 47.7201 97.9517 47.6833 98.0801C47.5819 98.0434 47.4622 98.0342 47.3885 98.1076C47.3516 98.1443 47.324 98.1994 47.3055 98.2636C47.0383 98.1351 46.679 98.3003 46.5039 98.5204C46.421 98.6213 46.3934 98.8231 46.4302 99.0066C46.2736 99.0066 46.1354 99.0983 46.0893 99.2543C46.0525 99.3552 46.0801 99.4469 46.1262 99.5203C45.7853 99.6487 45.6563 99.8964 45.6194 100.254C45.601 100.41 45.7116 100.621 45.859 100.731C45.5365 100.97 45.7024 101.694 46.1538 101.63C46.1446 101.713 46.163 101.814 46.2091 101.915C46.3012 102.116 46.1999 102.795 46.5777 102.74V102.749C46.6421 102.933 46.7435 103.098 46.8264 103.263C47.0107 103.621 47.2318 103.887 47.4898 104.162V104.171C47.499 104.41 47.4806 104.639 47.4529 104.878H47.4437C46.9738 105.015 46.5224 105.208 46.0525 105.345C45.6286 105.465 45.2232 105.483 45.0298 105.914C44.9008 106.199 44.7441 106.483 44.5875 106.758C43.5648 105.749 42.9383 104.355 42.9383 102.823C42.9383 99.768 45.4352 97.282 48.5033 97.282C51.5714 97.282 54.0683 99.768 54.0683 102.823C54.0499 104.364 53.4142 105.758 52.3915 106.767ZM50.4474 102.107C50.4382 101.905 50.429 101.704 50.4197 101.502C50.6869 101.456 50.7054 101.731 50.6224 101.924C50.604 101.96 50.5948 101.997 50.5856 102.043C50.5764 102.126 50.5948 102.593 50.4382 102.603C50.4658 102.437 50.4566 102.272 50.4474 102.107ZM46.5224 102.593C46.375 102.566 46.3934 102.126 46.3842 102.043C46.3842 102.006 46.3657 101.96 46.3473 101.924C46.2644 101.74 46.2828 101.465 46.5408 101.502C46.5316 101.704 46.5224 101.905 46.5132 102.107C46.5039 102.272 46.4947 102.428 46.5224 102.593Z"
          fill="#E9E9E9"/>
    <path d="M48.8621 103.776C48.9266 103.749 48.9911 103.721 49.0188 103.676C49.0464 103.63 49.0648 103.593 49.074 103.547C49.0833 103.538 49.0833 103.529 49.0833 103.52C49.0925 103.51 49.1017 103.501 49.1017 103.483C49.1017 103.419 49.0833 103.345 48.9911 103.318C48.9082 103.29 48.8345 103.263 48.7331 103.263C48.6226 103.263 48.5397 103.309 48.4752 103.364C48.4199 103.309 48.337 103.263 48.2172 103.263C48.1158 103.263 48.0421 103.281 47.9592 103.318C47.8671 103.354 47.8486 103.428 47.8486 103.483C47.8486 103.501 47.8578 103.51 47.8671 103.52C47.8671 103.529 47.8671 103.538 47.8763 103.547C47.8855 103.593 47.9039 103.639 47.9316 103.676C47.9592 103.721 48.0237 103.749 48.0882 103.776C48.1895 103.813 48.3462 103.831 48.4659 103.813C48.5949 103.831 48.7608 103.813 48.8621 103.776Z"
          fill="#E9E9E9"/>
    <ellipse cx="52.8801" cy="98.4469" rx="1.46497" ry="1.45857" fill="#FF4444"/>
</svg>
